<?xml version="1.0" encoding="UTF-8"?>
<svg id="Layer_2" data-name="Layer 2" xmlns="http://www.w3.org/2000/svg" viewBox="0 0 803 185.3">
  <g id="BUTTON">
    <g>
      <g>
        <rect x="2.5" y="12.8" width="798" height="170" rx="12" ry="12" style="fill: #241716;"/>
        <path d="M788.5,185.3H14.5c-8,0-14.5-6.5-14.5-14.5V24.8c0-8,6.5-14.5,14.5-14.5H788.5c8,0,14.5,6.5,14.5,14.5V170.8c0,8-6.5,14.5-14.5,14.5ZM14.5,15.3c-5.2,0-9.5,4.3-9.5,9.5V170.8c0,5.2,4.3,9.5,9.5,9.5H788.5c5.2,0,9.5-4.3,9.5-9.5V24.8c0-5.2-4.3-9.5-9.5-9.5H14.5Z" style="fill: #241716;"/>
      </g>
      <g>
        <rect x="2.5" y="2.5" width="798" height="170" rx="12" ry="12" style="fill: #f0f0f0;"/>
        <path d="M788.5,175H14.5c-8,0-14.5-6.5-14.5-14.5V14.5C0,6.5,6.5,0,14.5,0H788.5c8,0,14.5,6.5,14.5,14.5V160.5c0,8-6.5,14.5-14.5,14.5ZM14.5,5c-5.2,0-9.5,4.3-9.5,9.5V160.5c0,5.2,4.3,9.5,9.5,9.5H788.5c5.2,0,9.5-4.3,9.5-9.5V14.5c0-5.2-4.3-9.5-9.5-9.5H14.5Z" style="fill: #241716;"/>
      </g>
      <g>
        <g>
          <g>
            <path d="M30.2,24.8c-1.7,3.6-6,5.1-9.5,3.4-3.6-1.7-5.1-6-3.4-9.5,1.7-3.6,6-5.1,9.5-3.4,3.6,1.7,5.1,6,3.4,9.5Z" style="fill: #adadad;"/>
            <path d="M23.7,30.4c-1.3,0-2.5-.3-3.8-.9-4.4-2.1-6.2-7.3-4.1-11.7,2.1-4.4,7.3-6.2,11.7-4.1,4.4,2.1,6.2,7.3,4.1,11.7-1.5,3.1-4.6,5-7.9,5Zm0-14.3c-.6,0-1.3,.1-1.9,.3-1.4,.5-2.5,1.5-3.2,2.8-.6,1.3-.7,2.9-.2,4.3,.5,1.4,1.5,2.5,2.8,3.2,1.3,.6,2.9,.7,4.3,.2,1.4-.5,2.5-1.5,3.2-2.8,.6-1.3,.7-2.9,.2-4.3-.5-1.4-1.5-2.5-2.8-3.2-.8-.4-1.6-.5-2.4-.5Z" style="fill: #241716;"/>
          </g>
          <g>
            <line x1="17.2" y1="18.6" x2="30.2" y2="24.8" style="fill: #adadad;"/>
            <rect x="22.1" y="14.5" width="3.2" height="14.3" transform="translate(-6.1 33.7) rotate(-64.5)" style="fill: #241716;"/>
          </g>
        </g>
        <g>
          <g>
            <path d="M30.2,153.8c-1.7,3.6-6,5.1-9.5,3.4-3.6-1.7-5.1-6-3.4-9.5,1.7-3.6,6-5.1,9.5-3.4,3.6,1.7,5.1,6,3.4,9.5Z" style="fill: #adadad;"/>
            <path d="M23.7,159.4c-1.3,0-2.5-.3-3.8-.9-4.4-2.1-6.2-7.3-4.1-11.7,2.1-4.4,7.3-6.2,11.7-4.1,4.4,2.1,6.2,7.3,4.1,11.7-1.5,3.1-4.6,5-7.9,5Zm0-14.3c-.6,0-1.3,.1-1.9,.3-1.4,.5-2.5,1.5-3.2,2.8-.6,1.3-.7,2.9-.2,4.3,.5,1.4,1.5,2.5,2.8,3.2,1.3,.6,2.9,.7,4.3,.2,1.4-.5,2.5-1.5,3.2-2.8,.6-1.3,.7-2.9,.2-4.3-.5-1.4-1.5-2.5-2.8-3.2-.8-.4-1.6-.5-2.4-.5Z" style="fill: #241716;"/>
          </g>
          <g>
            <line x1="17.2" y1="147.6" x2="30.2" y2="153.8" style="fill: #adadad;"/>
            <rect x="22.1" y="143.5" width="3.2" height="14.3" transform="translate(-122.5 107.1) rotate(-64.5)" style="fill: #241716;"/>
          </g>
        </g>
        <g>
          <g>
            <path d="M786.2,24.8c-1.7,3.6-6,5.1-9.5,3.4-3.6-1.7-5.1-6-3.4-9.5,1.7-3.6,6-5.1,9.5-3.4,3.6,1.7,5.1,6,3.4,9.5Z" style="fill: #adadad;"/>
            <path d="M779.7,30.4c-1.3,0-2.5-.3-3.8-.9-4.4-2.1-6.2-7.3-4.1-11.7,2.1-4.4,7.3-6.2,11.7-4.1,4.4,2.1,6.2,7.3,4.1,11.7-1.5,3.1-4.6,5-7.9,5Zm0-14.3c-.6,0-1.3,.1-1.9,.3-1.4,.5-2.5,1.5-3.2,2.8-.6,1.3-.7,2.9-.2,4.3,.5,1.4,1.5,2.5,2.8,3.2,1.3,.6,2.9,.7,4.3,.2,1.4-.5,2.5-1.5,3.2-2.8,.6-1.3,.7-2.9,.2-4.3-.5-1.4-1.5-2.5-2.8-3.2-.8-.4-1.6-.5-2.4-.5Z" style="fill: #241716;"/>
          </g>
          <g>
            <line x1="773.2" y1="18.6" x2="786.2" y2="24.8" style="fill: #adadad;"/>
            <rect x="778.1" y="14.5" width="3.2" height="14.3" transform="translate(423.9 715.8) rotate(-64.5)" style="fill: #241716;"/>
          </g>
        </g>
        <g>
          <g>
            <path d="M786.2,153.8c-1.7,3.6-6,5.1-9.5,3.4-3.6-1.7-5.1-6-3.4-9.5,1.7-3.6,6-5.1,9.5-3.4,3.6,1.7,5.1,6,3.4,9.5Z" style="fill: #adadad;"/>
            <path d="M779.7,159.4c-1.3,0-2.5-.3-3.8-.9-4.4-2.1-6.2-7.3-4.1-11.7,2.1-4.4,7.3-6.2,11.7-4.1,4.4,2.1,6.2,7.3,4.1,11.7-1.5,3.1-4.6,5-7.9,5Zm0-14.3c-.6,0-1.3,.1-1.9,.3-1.4,.5-2.5,1.5-3.2,2.8-.6,1.3-.7,2.9-.2,4.3,.5,1.4,1.5,2.5,2.8,3.2,1.3,.6,2.9,.7,4.3,.2,1.4-.5,2.5-1.5,3.2-2.8,.6-1.3,.7-2.9,.2-4.3-.5-1.4-1.5-2.5-2.8-3.2-.8-.4-1.6-.5-2.4-.5Z" style="fill: #241716;"/>
          </g>
          <g>
            <line x1="773.2" y1="147.6" x2="786.2" y2="153.8" style="fill: #adadad;"/>
            <rect x="778.1" y="143.5" width="3.2" height="14.3" transform="translate(307.5 789.2) rotate(-64.5)" style="fill: #241716;"/>
          </g>
        </g>
      </g>
    </g>
  </g>
</svg>