<?xml version="1.0" encoding="UTF-8"?>
<svg xmlns="http://www.w3.org/2000/svg" xmlns:xlink="http://www.w3.org/1999/xlink" viewBox="0 0 738.1 739.5">
  <defs>
    <radialGradient id="_未命名漸層_10" data-name="未命名漸層 10" cx="364" cy="367.5" fx="364" fy="367.5" r="363.4" gradientUnits="userSpaceOnUse">
      <stop offset="0" stop-color="#fff"/>
      <stop offset="0" stop-color="#fff" stop-opacity="1"/>
      <stop offset=".2" stop-color="#fff" stop-opacity=".9"/>
      <stop offset=".4" stop-color="#fff" stop-opacity=".7"/>
      <stop offset=".6" stop-color="#fff" stop-opacity=".5"/>
      <stop offset=".8" stop-color="#fff" stop-opacity=".3"/>
      <stop offset="1" stop-color="#fff" stop-opacity="0"/>
    </radialGradient>
    <radialGradient id="_未命名漸層_10-2" data-name="未命名漸層 10" cx="364" cy="367.5" fx="364" fy="367.5" r="363.4" xlink:href="#_未命名漸層_10"/>
    <radialGradient id="_未命名漸層_10-3" data-name="未命名漸層 10" cx="364" cy="367.5" fx="364" fy="367.5" r="363.4" xlink:href="#_未命名漸層_10"/>
    <radialGradient id="_未命名漸層_10-4" data-name="未命名漸層 10" cx="364" cy="367.5" fx="364" fy="367.5" r="363.4" xlink:href="#_未命名漸層_10"/>
    <radialGradient id="_未命名漸層_10-5" data-name="未命名漸層 10" cx="364" cy="367.5" fx="364" fy="367.5" r="363.4" xlink:href="#_未命名漸層_10"/>
    <radialGradient id="_未命名漸層_10-6" data-name="未命名漸層 10" cx="364" cy="367.5" fx="364" fy="367.5" r="363.4" xlink:href="#_未命名漸層_10"/>
    <radialGradient id="_未命名漸層_10-7" data-name="未命名漸層 10" cx="364" cy="367.5" fx="364" fy="367.5" r="363.4" xlink:href="#_未命名漸層_10"/>
    <radialGradient id="_未命名漸層_10-8" data-name="未命名漸層 10" cx="364" cy="367.5" fx="364" fy="367.5" r="363.4" xlink:href="#_未命名漸層_10"/>
    <radialGradient id="_未命名漸層_10-9" data-name="未命名漸層 10" cx="364" cy="367.5" fx="364" fy="367.5" r="363.4" xlink:href="#_未命名漸層_10"/>
    <radialGradient id="_未命名漸層_10-10" data-name="未命名漸層 10" r="363.4" xlink:href="#_未命名漸層_10"/>
    <radialGradient id="_未命名漸層_10-11" data-name="未命名漸層 10" cx="364" cy="367.5" fx="364" fy="367.5" r="363.4" xlink:href="#_未命名漸層_10"/>
    <radialGradient id="_未命名漸層_10-12" data-name="未命名漸層 10" cx="364" cy="367.5" fx="364" fy="367.5" r="363.4" xlink:href="#_未命名漸層_10"/>
    <radialGradient id="_未命名漸層_10-13" data-name="未命名漸層 10" cx="364" cy="367.5" fx="364" fy="367.5" r="363.4" xlink:href="#_未命名漸層_10"/>
    <radialGradient id="_未命名漸層_10-14" data-name="未命名漸層 10" cx="364" cy="367.5" fx="364" fy="367.5" r="363.4" xlink:href="#_未命名漸層_10"/>
    <radialGradient id="_未命名漸層_10-15" data-name="未命名漸層 10" cx="364" cy="367.5" fx="364" fy="367.5" r="363.4" xlink:href="#_未命名漸層_10"/>
    <radialGradient id="_未命名漸層_10-16" data-name="未命名漸層 10" cx="364" cy="367.5" fx="364" fy="367.5" r="363.4" xlink:href="#_未命名漸層_10"/>
    <radialGradient id="_未命名漸層_10-17" data-name="未命名漸層 10" cx="364" cy="367.5" fx="364" fy="367.5" r="363.4" xlink:href="#_未命名漸層_10"/>
    <radialGradient id="_未命名漸層_10-18" data-name="未命名漸層 10" cx="364" cy="367.5" fx="364" fy="367.5" r="363.4" xlink:href="#_未命名漸層_10"/>
  </defs>
  <g style="isolation: isolate;">
    <g id="Layer_2" data-name="Layer 2">
      <g id="OTHER">
        <g style="mix-blend-mode: soft-light; opacity: .9;">
          <polygon points="369 369.7 340.7 0 397.4 0 369 369.7" style="fill: url(#_未命名漸層_10);"/>
          <polygon points="369 369.7 216 32 269.2 12.6 369 369.7" style="fill: url(#_未命名漸層_10-2);"/>
          <polygon points="369 369.7 109.7 104.7 153.1 68.3 369 369.7" style="fill: url(#_未命名漸層_10-3);"/>
          <polygon points="369 369.7 34.7 209.4 63 160.3 369 369.7" style="fill: url(#_未命名漸層_10-4);"/>
          <polygon points="369 369.7 0 333.4 9.8 277.6 369 369.7" style="fill: url(#_未命名漸層_10-5);"/>
          <polygon points="369 369.7 9.8 461.8 0 406 369 369.7" style="fill: url(#_未命名漸層_10-6);"/>
          <polygon points="369 369.7 63 579.1 34.7 530.1 369 369.7" style="fill: url(#_未命名漸層_10-7);"/>
          <polygon points="369 369.7 153.1 671.2 109.7 634.8 369 369.7" style="fill: url(#_未命名漸層_10-8);"/>
          <polygon points="369 369.7 269.2 726.9 216 707.5 369 369.7" style="fill: url(#_未命名漸層_10-9);"/>
          <polygon points="369 369.7 397.4 739.5 340.7 739.5 369 369.7" style="fill: url(#_未命名漸層_10-10);"/>
          <polygon points="369 369.7 522.1 707.5 468.9 726.9 369 369.7" style="fill: url(#_未命名漸層_10-11);"/>
          <polygon points="369 369.7 628.4 634.8 585 671.2 369 369.7" style="fill: url(#_未命名漸層_10-12);"/>
          <polygon points="369 369.7 703.4 530.1 675.1 579.1 369 369.7" style="fill: url(#_未命名漸層_10-13);"/>
          <polygon points="369 369.7 738.1 406 728.3 461.8 369 369.7" style="fill: url(#_未命名漸層_10-14);"/>
          <polygon points="369 369.7 728.3 277.6 738.1 333.4 369 369.7" style="fill: url(#_未命名漸層_10-15);"/>
          <polygon points="369 369.7 675.1 160.3 703.4 209.4 369 369.7" style="fill: url(#_未命名漸層_10-16);"/>
          <polygon points="369 369.7 585 68.3 628.4 104.7 369 369.7" style="fill: url(#_未命名漸層_10-17);"/>
          <polygon points="369 369.7 468.9 12.6 522.1 32 369 369.7" style="fill: url(#_未命名漸層_10-18);"/>
        </g>
      </g>
    </g>
  </g>
</svg>