<?xml version="1.0" encoding="UTF-8"?>
<svg id="Layer_2" data-name="Layer 2" xmlns="http://www.w3.org/2000/svg" viewBox="0 0 326.3 33.9">
  <g id="OTHER">
    <g>
      <path d="M0,22.2v-1.8c0-1.8,.9-2.6,2.6-2.6h7.3c0,2.9-.9,4.4-2.6,4.4H0Z"/>
      <path d="M40.5,28.4l1.6-.2v-7.2h-5.7c0-3,.9-4.5,2.6-4.5h3.1V3.8c0-1.8,.9-2.6,2.6-2.6h20c0,2.8-.9,4.2-2.6,4.2h-13.8c-.6,0-.9,.4-.9,1.2h16.5c0,2.6-.9,3.9-2.6,3.9h-13.8v1.1h16.5c0,2.6-.9,3.9-2.6,3.9h-13.8v1.1h21.3c0,3-.9,4.5-2.6,4.5h-1l.7,.5c1.4,1,1.4,2,0,3-.2,.2-1.3,.9-3.4,2.1,2.1,1.1,4.5,1.9,7.2,2.4-2.2,3.1-4.1,4.3-5.8,3.8-2.2-.4-4.5-1.5-6.9-3.6-2.4-2-4.3-4.7-5.8-8.1h-3.5v6.5l6.7-.9c.2,3-.6,4.6-2.4,4.9-2.3,.4-6.6,1-12.8,1.9-.8-3.1-.2-4.8,1.5-5Zm22.2-7.3h-6.4c.6,1,1.4,1.9,2.3,2.9,1.3-.8,2.7-1.8,4.1-2.9Z"/>
      <path d="M92.5,20.3l-1,.3v7.8c0,1.2-.1,2.1-.4,2.8-.2,.7-.7,1.2-1.3,1.5-1.1,.6-3,.9-5.7,.9l-.6-2.1c-.5-1.7,.1-2.5,1.9-2.5h.5c.4,0,.7-.2,.7-.6v-6.5l-3.2,.8c-.8-3.3-.4-5.1,1.3-5.4l1.9-.4v-5.6h-3.9c0-3.2,.9-4.7,2.6-4.7h1.3V0c3.3,0,4.9,.9,4.9,2.6v3.8h3.1c0,3.2-.9,4.7-2.6,4.7h-.4v4.5l2.9-.7c.4,3.1-.2,4.8-1.9,5.3Zm23.6,8.8c-2.2,2.8-3.9,3.7-5.3,2.6,0-.1-1.2-1-3.7-2.5-2.6,2-6.3,3.5-11.2,4.4-1.6-2.9-1.5-4.6,.2-4.9,2.1-.1,4.3-.8,6.4-2.1l-1.6-.8-.3,.7-2.1-.7c-1.7-.5-2.2-1.6-1.6-3.2l1.5-4h-3.6c0-3.1,.9-4.6,2.6-4.6h2.5l1.4-4.7c3.4,.5,4.9,1.6,4.3,3.3l-.5,1.4h10.8c0,3.1-1,4.6-2.9,4.6-.6,2.7-1.5,4.9-2.6,6.8,2.5,1.4,4.3,2.7,5.6,3.8Zm-15.4-20.3c-.6,0-.9,.3-.9,.8v2.6c-3.2,0-4.8-.9-4.8-2.6v-2.6c0-1.8,.9-2.6,2.6-2.6h4.6V0c3.5,0,5.2,.9,5.2,2.6v1.7h8.2v7.9c-3.3,0-5-.9-5-2.6v-.8h-9.9Zm7,9.7h-4.1l-.8,2.1c-.2,.5,0,.9,.5,1.2l2.8,1.2,1.6-4.5Z"/>
      <path d="M138.3,8.4v25.1c-3.2,0-4.9-.9-4.9-2.6V15.9l-2.1,2.4c-1.8-3.6-2.1-6-.9-7.3,.4-.2,1.3-1.5,2.8-3.8,1.4-2.3,2.6-4.6,3.5-7.1,3.2,1,4.4,2.4,3.7,4-.2,.7-.9,2.1-2.1,4.3Zm21.3,13h-3.7c2.1,3,4.6,5.3,7.5,7-2.4,2.7-4.3,3.5-5.6,2.3-.9-.5-2.3-2.2-4.2-5.1v8c-3.4,0-5.2-.9-5.2-2.6v-5.2c-2,2.7-4.2,4.9-6.6,6.5-2.3-2.7-2.8-4.6-1.3-5.6,1.5-.6,3.4-2.4,5.6-5.4h-6.4c0-3.1,.9-4.6,2.6-4.6h6.1v-2.5h-6.5V4.2c0-1.8,.9-2.6,2.6-2.6h16.2V11.6c0,1.8-.9,2.6-2.6,2.6h-4.5v2.5h8.7c0,3.1-.9,4.6-2.6,4.6Zm-12-15.4c-.6,0-.9,.3-.9,.9v2.9h7.9c.6,0,.9-.3,.9-.9v-2.9h-7.9Z"/>
      <path d="M205.7,9.5h-16c-1.2,2.5-2.6,4.9-4.2,7.2v16.8c-3.5,0-5.2-.9-5.2-2.6v-8.6l-2.6,1.9c-1.7-3.4-1.8-5.7-.5-6.8,2-1,4.2-3.6,6.5-7.9h-7.2c0-3.3,.9-4.9,2.6-4.9h6.8l1.4-4.6c3.7,.9,5.2,2.1,4.6,3.8l-.3,.8h16.6c0,3.3-.9,4.9-2.6,4.9Zm3.1,10.8c0,3.2-.9,4.8-2.6,4.8h-5.1v3.2c0,1.3-.1,2.3-.4,2.9-.3,.7-.8,1.2-1.7,1.6-1.2,.5-3.3,.8-6.5,.8-.9-3.3-.5-4.9,1.3-4.8-.8,0-.3,0,1.4,0,.3,0,.5,0,.6-.1,.1,0,.2-.2,.2-.4v-3.1h-8.5c0-3.2,.9-4.8,2.6-4.8h5.9v-1.2c0-1,.5-1.5,1.5-1.5l1.5-1.4h-8.9c0-3.1,.9-4.6,2.6-4.6h10.3l1.1-.3c2.1,1.7,2.6,3.2,1.4,4.5-1,1.2-2.5,2.6-4.3,4.1v.5h7.8Z"/>
      <path d="M223.1,3.7c0-1.8,.9-2.6,2.6-2.6h29.3V30.9c0,1.8-.9,2.6-2.6,2.6h-29.3V3.7Zm4.9,25.5h21c.6,0,.9-.3,.9-.9V5.4h-21c-.6,0-.9,.3-.9,.9V29.3Zm13-16.3h8.1c0,1.8-.9,2.8-2.6,2.8h-17.4c0-1.8,.9-2.8,2.6-2.8h4.9v-.8h-5.1c0-4,.9-6,2.6-6h12.2c0,4-.9,6-2.6,6h-2.6v.8Zm-10.8,15.5v-9.3c0-1.8,.9-2.6,2.6-2.6h14.7v9.3c0,1.8-.9,2.6-2.6,2.6h-14.7Zm4.9-9.2c-.6,0-.9,.3-.9,.9v5.5h8.3c.6,0,.9-.3,.9-.9v-5.5h-8.3Zm.1,5.6v-2.2c0-1.8,.9-2.6,2.6-2.6h4.6c0,3.2-.9,4.8-2.6,4.8h-4.6Zm1.3-16.1c-.6,0-.9,.3-.9,.9h5.3c.6,0,.9-.3,.9-.9h-5.3Zm2,13.4c-.5,0-.7,.2-.7,.7h1c.5,0,.7-.2,.7-.7h-1Z"/>
      <path d="M297,14h-18.3v3.9c-.1,0,17.5,0,17.5,0v15.8c-3.8,0-5.7-.9-5.7-2.6v-7.7h-12.7c-.9,4.4-2.7,7.9-5.3,10.6-2.7-2.8-3.5-5-2.5-6.4,.9-.6,1.7-2.3,2.3-5.1,.6-2.8,1-6,1-9.6V.7c3.6,0,5.4,.9,5.4,2.6v5.3h7.9V0c3.7,0,5.6,.9,5.6,2.6v5.9h7.5c0,3.6-.9,5.3-2.6,5.3Z"/>
      <path d="M316.4,22.2v-1.8c0-1.8,.9-2.6,2.6-2.6h7.3c0,2.9-.9,4.4-2.6,4.4h-7.3Z"/>
    </g>
  </g>
</svg>