<?xml version="1.0" encoding="UTF-8"?>
<svg id="Layer_2" data-name="Layer 2" xmlns="http://www.w3.org/2000/svg" viewBox="0 0 355 391.1">
  <g id="OTHER">
    <g>
      <path d="M331.2,385.6c-2.2,0-4.5-.4-6.6-1.3l-134.7-52.3c-4.9-1.9-10.1-2.9-15.4-2.9s-10.8,1-15.8,3.1L30.6,383.7c-2.2,.9-4.5,1.3-6.8,1.3-4.7,0-9.3-1.9-12.8-5.2-3.5-3.4-5.5-8.1-5.5-13.1V5.5H349.5V367.2c0,10.1-8.2,18.3-18.3,18.3Z" style="fill: #ff8d1e;"/>
      <path d="M344,11V367.2c0,7.9-6.6,12.8-12.8,12.8s-3.1-.3-4.7-.9l-134.7-52.3c-5.6-2.2-11.4-3.2-17.3-3.2s-12.2,1.2-17.9,3.5L28.6,378.6c-1.6,.6-3.2,.9-4.8,.9-6.1,0-12.8-4.9-12.8-12.8V11H344m11-11H0V366.8c0,13.7,11.2,23.8,23.8,23.8s5.9-.6,8.9-1.7l128.1-51.5c4.4-1.8,9.1-2.7,13.8-2.7s9.1,.8,13.4,2.5l134.7,52.3c2.9,1.1,5.8,1.6,8.6,1.6,12.6,0,23.8-10.2,23.8-23.8V0h0Z" style="fill: #241716;"/>
    </g>
  </g>
</svg>