<?xml version="1.0" encoding="UTF-8"?>
<svg id="Layer_2" data-name="Layer 2" xmlns="http://www.w3.org/2000/svg" viewBox="0 0 178.1 81.4">
  <g id="BUTTON">
    <g>
      <g>
        <path d="M140,80.4H38C17.6,80.4,1,63.7,1,43.4h0C1,23,17.6,6.4,38,6.4h102c20.4,0,37,16.6,37,37h0c0,20.4-16.6,37-37,37Z" style="fill: #603813;"/>
        <path d="M140,81.4H38C17,81.4,0,64.3,0,43.4S17,5.4,38,5.4h102c21,0,38,17,38,38s-17,38-38,38ZM38,7.4C18.1,7.4,2,23.5,2,43.4s16.1,36,36,36h102c19.9,0,36-16.1,36-36S159.9,7.4,140,7.4H38Z" style="fill: #603813;"/>
      </g>
      <g>
        <rect x="1.1" y="1" width="176" height="74" rx="37" ry="37" style="fill: #eedfb6;"/>
        <path d="M140.1,76H38.1C17.1,76,0,59,0,38S17.1,0,38.1,0h102c21,0,38,17,38,38s-17,38-38,38ZM38.1,2C18.2,2,2.1,18.1,2.1,38s16.1,36,36,36h102c19.9,0,36-16.1,36-36S159.9,2,140.1,2H38.1Z" style="fill: #603813;"/>
      </g>
      <g>
        <path d="M52.4,29.2h-5.8c2.5,2.2,5.6,3.8,9.3,4.9-2.1,2.6-3.9,3.6-5.5,2.9l-.8-.4v7.8c0,1.7-.8,2.5-2.5,2.5H29.6v-10.1l-2.9,1.3c-2.1-2.6-2.3-4.2-.8-4.9,2-.4,4.2-1.8,6.8-4.2h-8c0-2.8,.8-4.2,2.5-4.2h10v-3.5c3.2,0,4.8,.8,4.8,2.5v.9h12.8c0,2.8-.8,4.2-2.5,4.2Zm-27.5,23.3v-1.7c0-1.7,.8-2.5,2.5-2.5h27.4c0,2.8-.8,4.3-2.5,4.3H24.9Zm6.9-16.9h16.1c-2.2-1.4-4.1-3.1-5.8-5v4.1c-3.2,0-4.8-.8-4.8-2.5v-1.5c-1.6,1.9-3.4,3.6-5.5,5Zm12.8,4.2v-1.1h-10.1v1.1h10.1Zm-.8,4.1c.6,0,.8-.4,.8-1.1h-10.1v1.1h9.2Z" style="fill: #603813;"/>
        <path d="M86.4,36h-15.9l-.5,.9h15.7v14.1c0,1.7-.8,2.5-2.5,2.5h-18.5v-9.5c-1.5,1.5-3.2,2.7-5,3.7-2.1-2.7-2.4-4.5-1.1-5.5,1.9-.7,4-2.8,6.1-6.2h-7c0-2.6,.8-3.9,2.5-3.9h6.5l.4-.9h-7c0-2.5,.8-3.8,2.5-3.8h5.8l.3-.9c-2.5,0-5.1,0-7.9,0-.6-2.5-.1-3.7,1.6-3.8,8.6,0,15.9-.3,21.9-1.2,1.9,2.4,2,3.7,.3,3.9-2,.4-5.5,.6-10.4,.9l-.3,1.1h13.2c0,2.5-.8,3.8-2.5,3.8h-11.9l-.3,.9h16.6c0,2.6-.8,3.9-2.5,3.9Zm-5.8,5.6v-1h-11.2v1h11.2Zm-11.2,3v1h11.2v-1h-11.2Zm0,5.1h10.3c.6,0,.8-.3,.8-1h-11.2v1Z" style="fill: #603813;"/>
        <path d="M120.8,29.1v18.9c0,1.3-.2,2.3-.5,3-.3,.7-.8,1.3-1.6,1.6-1.2,.6-3.4,.8-6.8,.8l-.8-2.5c-.5-1.6,0-2.4,1.7-2.3h2.1c.6,0,.8-.2,.8-.6v-5.4c-1,1.2-1.8,2.2-2.3,3.1-2.9-1.9-5.1-4.6-6.5-8.2-1.5,3.9-3.9,6.7-7.1,8.4l-1.7-2.4v10c-3.3,0-5-.8-5-2.5V31.6c0-1.7,.8-2.5,2.5-2.5h9.2l-.2-1.9h-5.4c0-2.8,.8-4.2,2.5-4.2h7.2l.6,6.2h11.3Zm-21.8,4.8c-.6,0-.8,.3-.8,.8v6.4c2.4-1.6,4.1-4,5.2-7.3h-4.4Zm16.9,0h-5.1c1.1,3,2.8,5.3,5.1,6.9v-6.9Z" style="fill: #603813;"/>
        <path d="M131.1,28.6c-.6,0-.8,.3-.8,.8v2.8c-3.3,0-4.9-.8-4.9-2.5v-3.1c0-1.7,.8-2.5,2.5-2.5h9.8v-2.5c3.4,0,5.2,.8,5.2,2.5h12.5v5.6c0,1.7-.8,2.5-2.5,2.5h-2l3.1,2.5c-2.5,2.2-4.4,2.7-5.7,1.6-.4-.8-2.5-2.3-6.4-4.8,2.4-1.9,4.3-2.5,5.7-1.6l2.6,1.7v-3.1h-19.1Zm5.1,6.7c1.1-1.3,2.4-1.9,4.1-1.9h2.6c3.6,4.5,8.3,7.5,13.9,9.1-2.1,3.1-3.9,4.2-5.4,3.6l-1-.5v5.4c0,1.7-.8,2.5-2.5,2.5h-17.4v-7.6l-3.3,1.5c-1.9-2.8-2-4.6-.5-5.3,1.1-.3,2.9-1.3,5.4-3.1,2.4-1.8,3.8-3,4-3.6Zm-2.3-6.5c3.2,1.1,4.3,2.3,3.3,3.7,0,.2-.8,1-2.4,2.4-1.6,1.4-3.2,2.6-4.9,3.5-2.3-2.7-2.7-4.4-1.2-5.2,1.8-.6,3.6-2,5.2-4.4Zm1.6,20.3h9.1c.6,0,.8-.3,.8-.8v-1.6h-9.9v2.5Zm.7-6.8h9.1c-1.9-1.4-3.5-2.9-4.7-4.3-1.1,1.4-2.6,2.8-4.5,4.3Z" style="fill: #603813;"/>
      </g>
    </g>
  </g>
</svg>