<?xml version="1.0" encoding="UTF-8"?>
<svg id="Layer_2" data-name="Layer 2" xmlns="http://www.w3.org/2000/svg" viewBox="0 0 1036 252.6">
  <g id="BG">
    <g>
      <g>
        <g>
          <rect x="3" y="11.3" width="1030" height="23.7" style="fill: #ffc681;"/>
          <path d="M1036,37.9H0V8.3H1036v29.7ZM6,31.9H1030V14.3H6V31.9Z" style="fill: #241716;"/>
        </g>
        <g>
          <g>
            <polygon points="983.5 64.7 983.5 12.9 965 12.9 965 64.7 831.8 64.7 831.8 12.9 813.3 12.9 813.3 64.7 679 64.7 679 12.9 660.5 12.9 660.5 64.7 527.3 64.7 527.3 12.9 508.8 12.9 508.8 64.7 374.5 64.7 374.5 12.9 356 12.9 356 64.7 222.8 64.7 222.8 12.9 204.3 12.9 204.3 64.7 80.4 64.7 80.4 12.9 61.9 12.9 61.9 64.7 53.8 249.6 199.7 249.6 210.9 148.9 207.8 249.6 359.5 249.6 365.2 181 365.2 249.6 518.1 249.6 524.3 188.3 527.3 249.6 668.6 249.6 674 189.2 675.5 249.6 833 249.6 833 140.8 844.5 249.6 984.6 249.6 983.5 64.7" style="fill: #241716;"/>
            <path d="M987.7,252.6h-145.8l-5.9-55.3v55.3h-163.4l-.3-11.1-1,11.1h-146.8l-1.2-24.5-2.5,24.5h-158.5v0H204.7l.9-28.9-3.2,28.9H50.7l8.2-188V9.9h24.5V61.7h117.9V9.9h24.5V61.7h127.1V9.9h24.5V61.7h128.3V9.9h24.5V61.7h127.1V9.9h24.5V61.7h128.3V9.9h24.5V61.7h127.1V9.9h24.5v54.8l1.2,188Zm-140.4-6h134.4l-1.1-182V15.9h-12.5v51.8h-139.1V15.9h-12.5v51.8h-140.3V15.9h-12.5v51.8h-139.1V15.9h-12.5v51.8h-140.3V15.9h-12.5v51.8H219.8V15.9h-12.5v51.8H77.4V15.9h-12.5v48.9s-8,181.8-8,181.8H197l11-98,6,.4-3.1,97.6h145.8l5.6-65.8,6,.3v65.6h147.1l5.9-58.6,6,.2,2.9,58.5h135.6l5.2-57.7,6,.2,1.4,57.5h151.5v-105.8l6-.3,11.3,106.1Z" style="fill: #241716;"/>
          </g>
          <g>
            <polygon points="983.5 54.8 983.5 3 965 3 965 54.8 831.8 54.8 831.8 3 813.3 3 813.3 54.8 679 54.8 679 3 660.5 3 660.5 54.8 527.3 54.8 527.3 3 508.8 3 508.8 54.8 374.5 54.8 374.5 3 356 3 356 54.8 222.8 54.8 222.8 3 204.3 3 204.3 54.8 80.4 54.8 80.4 3 61.9 3 61.9 54.8 53.8 239.8 199.7 239.8 210.9 139.1 207.8 239.8 359.5 239.8 365.2 171.2 365.2 239.8 518.1 239.8 524.3 178.4 527.3 239.8 668.6 239.8 674 179.3 675.5 239.8 833 239.8 833 131 844.5 239.8 984.6 239.8 983.5 54.8" style="fill: #0071b6;"/>
            <path d="M987.7,242.8h-145.8l-5.9-55.3v55.3h-163.4l-.3-11.1-1,11.1h-146.8l-1.2-24.5-2.5,24.5h-158.5v0H204.7l.9-28.9-3.2,28.9H50.7L58.9,54.7V0h24.5V51.8h117.9V0h24.5V51.8h127.1V0h24.5V51.8h128.3V0h24.5V51.8h127.1V0h24.5V51.8h128.3V0h24.5V51.8h127.1V0h24.5V54.8l1.2,188Zm-140.4-6h134.4l-1.1-182V6h-12.5V57.8h-139.1V6h-12.5V57.8h-140.3V6h-12.5V57.8h-139.1V6h-12.5V57.8h-140.3V6h-12.5V57.8H219.8V6h-12.5V57.8H77.4V6h-12.5V54.9s-8,181.8-8,181.8H197l11-98,6,.4-3.1,97.6h145.8l5.6-65.8,6,.3v65.6h147.1l5.9-58.6,6,.2,2.9,58.5h135.6l5.2-57.7,6,.2,1.4,57.5h151.5v-105.8l6-.3,11.3,106.1Z" style="fill: #241716;"/>
          </g>
          <path d="M986.6,241.8h-143.9l-7.8-73.1v73.1h-161.4l-.7-27.6-2.5,27.6h-145l-1.8-36.8-3.7,36.8h-156.6v-23.1l-2,23.1H205.7l1.7-52.8-5.9,52.8H51.7L59.9,54.7V1s22.5,0,22.5,0V52.8h119.9V1h22.5V52.8h129.1V1h22.5V52.8h130.3V1h22.5V52.8h129.1V1h22.5V52.8h130.3V1h22.5V52.8h129.1V1h22.5V54.8l1.2,187Zm-140.3-4h136.3l-1.1-183V5h-14.5V56.8h-137.1V5h-14.5V56.8h-138.3V5h-14.5V56.8h-137.1V5h-14.5V56.8h-138.3V5h-14.5V56.8H220.8V5h-14.5V56.8H78.4V5h-14.5V54.8l-8,183H197.9l11.1-98.9,4,.3-3.1,98.6h147.8l5.6-66.8,4,.2v66.6h149l6-59.5h4c0,.1,3,59.5,3,59.5h137.5l5.3-58.6h4c0,.1,1.5,58.6,1.5,58.6h153.5v-106.8l4-.2,11.4,107Z" style="fill: #241716;"/>
        </g>
      </g>
      <g>
        <g>
          <path d="M660.6,131.8l-11.5-26.4c-1.1-2.6-3.6-4.2-6.4-4.2h-4.9c-.9,0-1.8,.2-2.6,.5-.9-.4-1.8-.6-2.8-.6h-6.9c-2.3,0-4.5,1.1-5.8,3-1.3-1.9-3.4-3-5.8-3h-7.2c0,0-.1,0-.2,0,0,0-.1,0-.2,0h-5.8c-2.1,0-4,1-5.3,2.5-1.3-1.5-3.2-2.5-5.3-2.5h-5.8c-.7,0-1.4,.1-2,.3-.6-.2-1.2-.2-1.8-.2h-7.6c-1.9,0-3.8,.8-5.1,2.2h0c-.3-.3-.6-.6-1-.8,1-1.2,1.7-2.8,1.7-4.5v-26.4c0-3.9-3.1-7-7-7h-5.8c-2.3,0-4.4,1.1-5.7,2.9-1.3-1.8-3.4-2.9-5.7-2.9h-7.9c-3.9,0-7,3.1-7,7v.6l-1.5-3.4c-1.1-2.6-3.6-4.2-6.4-4.2h-4.9c-2.8,0-5.3,1.7-6.4,4.2l-1.3,3.1v-.3c0-3.9-3.1-7-7-7h-8.8c-2.6,0-4.9,1.4-6.1,3.6-1.2-2.2-3.6-3.6-6.1-3.6h-8.9c-3.9,0-7,3.1-7,7v26.4c0,2.9,1.7,5.3,4.2,6.4-1.5,1.3-2.8,2.8-3.7,4.6-1.1,2.1-1.6,4.4-1.6,7s.7,5.4,2.2,7.5c.3,.4,.6,.9,1,1.3l-2.1,2.4c-2.6,2.8-2.4,7.2,.4,9.8,1.9,1.8,4.1,3.1,6.5,4,2.1,.7,4.8,1.2,7.1,1.2s3.9-.3,5.7-.7c1.8-.5,3.5-1.3,5.1-2.3,1.3,1.5,3.2,2.5,5.4,2.5h5.8c2.3,0,4.4-1.1,5.6-2.9,1.3,1.7,3.3,2.9,5.6,2.9h5.8c2.9,0,5.3-1.7,6.4-4.2,1.7,1.4,3.7,2.6,5.9,3.4,2.5,1,5.3,1.4,8.2,1.4s5.7-.5,8.1-1.4c1.6-.6,3.1-1.4,4.5-2.3,1.3,1.8,3.4,3.1,5.8,3.1h5.8c2.2,0,4.1-1,5.4-2.5h0c1.3,1.6,3.3,2.5,5.3,2.5h8.1c1.7,0,3.2-.6,4.5-1.6,.7,.4,1.3,.7,2,1,2.2,.9,4.7,1.3,7.5,1.3s5.2-.5,7.4-1.3c2.4-.9,4.4-2.3,6-4,.4-.4,.8-.9,1.1-1.3,.5,3.3,3.4,5.9,6.9,5.9h5.8c.6,0,1.3,0,1.9-.3,.6,.2,1.3,.3,2,.3h6.4c2.9,0,5.5-1.8,6.5-4.4l.5-1.2h.8l.5,1.2c1.1,2.6,3.6,4.4,6.5,4.4h6.6c2.4,0,4.6-1.2,5.9-3.2,1.3-2,1.5-4.5,.6-6.6Zm-121.2-9.5c0,.2-.1,.3-.2,.3-.1,.1-.2,.1-.2,.2,0,0,0,0-.1,0-.1,0-.8,.2-1.3,0-.1,0-.2,0-.2,0-.1-.1-.2-.2-.2-.3,0-.3-.1-.6-.1-1s0-.8,.1-.9c0-.2,.2-.3,.2-.4,0,0,.2-.1,.3-.2,.1,0,.8-.2,1.3,0,.1,0,.2,0,.2,0,0,0,0,0,.1,.1,0,0,0,0,0,.1,.1,.3,.2,.6,.2,1.1s0,.7-.1,.9Zm-21.6-21.1c0-.2,.2-.4,.3-.6l.5-1.2h.8l.5,1.2c.1,.3,.3,.6,.5,.9-.8-.3-1.6-.5-2.5-.5h0Zm31,1.8c-.4-.2-.8-.4-1.2-.6,.1-.1,.2-.3,.3-.4,.2,.4,.5,.7,.8,1Zm-25,1.6c.3,.1,.6,.2,1,.3-.2,.2-.4,.3-.6,.5-.1-.3-.3-.5-.4-.8Z" style="fill: #241716;"/>
          <path d="M455.4,186.7c-2.2-2.1-4.5-4-6.8-5.6-.8-.5-1.6-.9-2.5-1.1-1.6-.3-3.2-.8-4.7-1.5-.2-.1-.5-.2-.7-.3-1.7-.6-3.5-1.1-5.2-1.6-.7-.2-1.5-.3-2.2-.3-.5,0-1.1,0-1.6,.1-1.1,.2-2.2,.7-3,1.4-.7,0-1.3-.2-2-.2-.8-.2-1.6-.3-2.4-.3-.6,0-1.1,0-1.7,0,.9-.7,1.8-1.4,2.7-2.3,.8-.7,1.5-1.5,2.1-2.4,.6-.7,1.2-1.5,1.6-2.4,.9-2.1,.8-4.6-.4-6.5-1.7-2.8-3.9-5.1-6.4-7,.7-.2,1.4-.4,2-.8,2.8-.8,5.5-1.5,8-2.1,.1,0,.3,0,.4,0,.1,0,.2,.2,.3,.2,.2,.1,.4,.2,.6,.4,1.9,.9,3.8,1.8,5.5,2.6,.9,.4,1.9,.6,2.9,.6,.3,.1,.5,.2,.8,.3,1.1,.6,2.3,1,3.6,1.1,.1,0,.3,0,.4,.1,3.1,.8,6.3-.6,7.9-3.4l.2-.4c.1-.2,.2-.4,.3-.6,.3-.4,.5-.8,.6-1.2,1.4-3.7,1.2-7.6-.6-11.2,0-.2-.2-.3-.3-.5-2.8-4.7-6.6-8.7-11.2-11.9-5.9-4.4-12.6-6.6-19.9-6.7-.6-1.4-1.4-2.7-2.4-3.8,.8-.2,1.6-.5,2.4-.9,.8-.3,1.5-.8,2.1-1.4,0,0,.1,0,.2,0,.6-.2,1.1-.5,1.7-.8,.6-.4,1.1-.8,1.7-1.2l.7-.5c.8-.6,1.4-1.2,1.8-1.8,2.4-2.6,3.3-6.1,2.6-9.7-.2-1-.7-2-1.3-2.8-1.8-2.3-3.9-4.4-6.2-6.1,.8-.6,1.5-1.4,1.9-2.3,.6-.4,1.1-.9,1.5-1.5,.4-.3,.8-.6,1.1-1,1,0,2-.4,3.2-1,2.7-1.5,4-4.6,3.4-7.5,.4-1.9,0-3.9-1.2-5.5-.8-1-1.6-2.1-2.6-3.1-.7-1.9-2.2-4.1-5.2-5.7-.3-.2-.6-.4-.8-.6-.4-.4-.8-.8-1.3-1.1-2.3-1.5-4.8-3.1-7.7-4.8-.8-.9-1.8-1.7-2.9-2.1-.6-.5-1.3-.9-2-1.1-1.8-.7-3.8-.7-5.6-.2-1.5,.3-2.9,.8-4.1,1.5-.2,0-.3,0-.5,.1-.1,0-.2,0-.3,.1-1.1,.2-2.2,.6-3.1,1.3-.8,0-1.6,.3-2.3,.6-.4,.2-.6,.3-.8,.3-.9,0-1.9,0-2.8,.3-3.2,1-6,2-8.5,2.9-.2,0-.4,.2-.6,.2l-16.1,7.4c-.8,.4-1.5,.9-2.1,1.5-1.2,.5-2.2,1.3-3,2.4-.4,.5-.7,1-.9,1.6-1.1,1.8-1.3,4.1-.5,6.1,.6,1.6,1.5,3,2.6,4.3-.1,0-.2,.1-.3,.2-1.2,.8-2.3,1.8-3.2,3.1,0,0,0,0,0,0-1.3,.6-2.5,1.6-3.2,2.9-2,3.4-4,7-6.1,11,0,.2-.2,.4-.3,.6-.3,.7-.6,1.3-.9,1.8-.4,.6-.6,1.3-.8,1.9-.5,.7-.8,1.4-1.1,2.3-.3,.4-.5,.9-.7,1.4,0,0,0,0,0,0-.5,.9-.9,1.8-1.5,3,0,0,0,0,0,.1-.6,.7-1,1.6-1.2,2.5-1,1.7-1.7,3.3-2.3,5-.6,.9-1.1,1.9-1.4,3-.5,.9-.9,1.7-1.1,2.6,0,.2-.2,.4-.3,.6-1.9-1.8-4.1-3.4-6.4-4.7-1.7-1-3.2-2.3-4.4-4-.3-.4-.7-.8-1.1-1.2-1.3-1.1-2.5-1.9-3.8-2.4-12.4-10.9-23.3-23.4-32.4-37.2-.3-.6-.7-1.3-1-2-.7-1.2-1.3-2.5-2-3.9,0-.2-.2-.3-.3-.5-.5-.8-.9-1.6-1.3-2.4,.4-1.3,.6-2.6,.7-4,0-1.1-.1-2.2-.6-3.2-.1-.3-.2-.5-.2-.7-.1-1.3-.6-2.6-1.4-3.6-3.7-4.8-8.6-8-14.5-9.3-.5-.1-1-.2-1.5-.2-.5,0-.9-.1-1.4,0-1,0-2,.3-2.9,.7-.9,.3-1.7,.7-2.4,1.2-.5,.2-1,.4-1.4,.7-1.4,.4-2.5,1.2-3.4,2.2-.7,.2-1.3,.5-1.9,.9-1.2,.9-2.1,2.1-2.6,3.5-.7,1.3-1,2.7-1,4-.3,.7-.6,1.4-1,2-7,10.9-14,21.4-20.7,31,0,.1-.2,.2-.2,.4-4.3,7-8.9,14.2-14,22-.4,.5-.7,.9-.9,1.4-.1,.1-.3,.3-.4,.5-.5,.6-1,1.2-1.3,1.8-.2,.3-.5,.6-.7,.9-.5,.6-.9,1.2-1.3,1.7h0c-.6,.8-1.1,1.5-1.5,2.2-.4,.4-.7,.9-1,1.5-.3,.4-.5,.7-.7,1.1-.4,.5-.7,1-1,1.5-.4,.4-.8,.9-1.1,1.5-.1,.1-.2,.2-.3,.3-.2,.3-.5,.5-.7,.8-.4,.4-.7,.8-1,1.2l-.5,.5c-.5,.5-.9,1.1-1.2,1.6-.2,.2-.3,.5-.5,.7-.7-1.9-1.5-3.9-2.6-5.8-.3-.6-.8-1.2-1.3-1.7-2.6-2.5-5.2-5.1-7.7-7.5-1.4-1.3-2.7-2.7-4.1-4-1.1-1.1-2.5-1.7-4-1.9-1-.3-2.1-.5-3.1-.3-1.4-.3-2.8-.2-4.1,.3-.8,0-1.6,.1-2.3,.4-2.6-.1-5.1-.4-7.7-.7-.4-1.2-1-2.4-1.7-3.5-.8-1.4-1.7-2.8-2.7-4.1,2.4-.6,4.6-1.2,6.8-1.8,.4-.1,.7-.3,1.1-.4,0,0,.2,0,.2,0,.4,0,.8-.2,1.1-.3,.7,0,1.4,0,2.2-.1,1.4,.1,2.9,.3,4.5,.7,1.1,.7,2.5,1.2,3.9,1.2,2.5,0,5-.3,7.7-1,0,0,.1,0,.2,0,0,0,.2,0,.4,.1,1,.5,2,.7,3.1,.7s2.9,0,4.2-.1c.7,0,1.4,0,2.2-.1,.2,0,.4,0,.5,0,.5,0,.9,0,1.4,0,2,0,4.1-.4,6.2-.9,.5,0,1.1,0,1.6-.1,1.3,0,2.6-.3,3.9-.8,.4-.2,.8-.4,1.2-.6,2.2-1.4,3.6-3.6,4.1-6.3,.8-3.5,.8-8.6-3.4-13.9,0,0-.1-.2-.2-.3-5-5.8-11-10.2-17.7-13.1-2-.9-4-1.8-6.1-2.7l-4-1.8c-1.2-.5-2.4-.7-3.7-.6-.7-.1-1.5-.1-2.3,0-.9,.1-1.7,.5-2.5,.9-.7,.3-1.4,.8-1.9,1.4-.2,.2-.4,.4-.6,.5-1.3,.7-2.4,1.8-3,3.2-1,.5-1.8,1.2-2.5,2.2-.1,0-.3,0-.4,0,0,0-.1,0-.2,0-14.7,2.4-29.2,6-42.9,10.9,0,0-.1,0-.2,0-9.4,3.7-19.2,5.6-29.2,5.6-1.4-.4-2.8-.7-4.2-1-1.2-.3-2.5-.6-3.7-.9-2.8-.7-5.8,.4-7.5,2.8-.3,.4-.5,.8-.7,1.2-.4,.4-.8,1-1.1,1.5-.3,.3-.7,.6-1,1-2.3,2.8-2.1,6.8,.4,9.4,.3,.3,.6,.5,.9,.8,0,.1,.2,.3,.3,.4,6.2,7.8,14,12.8,23.3,15,6.3,1.9,12.5,1.6,18.3-.9,.4,0,.8-.2,1.1-.2,.7,0,1.4-.3,2-.5,.3-.1,.6-.3,.9-.4-1.6,2.6-3.3,5.1-5.1,7.4-.2,.3-.4,.5-.6,.8-1.5,2.5-3.1,4.9-4.9,7.1-2-2.8-5.8-3.8-8.9-2.3-3.2,1.6-4.6,5.3-3.5,8.6,.6,1.7,1.4,3.4,2.3,5-1.5,1.6-3.1,3-4.7,4.4-.2,.2-.4,.4-.6,.5-.4,.2-.8,.5-1.2,.8-1.3,1-2.3,2-3.1,3-.7,.3-1.4,.8-2,1.4-.3,.3-.6,.6-.8,.9-.4,.3-.8,.5-1.2,.8-.8,.4-1.4,.7-2.1,1.1-1.3,.8-2.2,2-2.7,3.4-.2,.2-.4,.4-.5,.6-.2,.2-.3,.3-.5,.5-.9,.6-1.8,1.1-2.7,1.5-.2,0-.4,.2-.6,.3-.5,.3-1,.5-1.5,.8-3.5,1.7-4.9,5.8-3.3,9.2,.7,1.5,1.9,2.6,3.2,3.3,1.6,1.1,3.5,1.5,5.4,1,.4,0,1-.2,1.6-.4,.2,0,.5,0,.7-.2,2-.6,4.1-1.2,6.4-1.8,.6-.1,1.1-.3,1.6-.6,.1,0,.2,0,.3-.1,.4-.1,.8-.3,1.3-.4,.4,0,.9,.1,1.4,0,0,0,.1,0,.2,0,1.4,.2,2.8,0,4.1-.5,.9,0,1.8,0,2.7-.3,2-.6,3.9-1.5,5.9-2.6,.3-.1,.7-.3,1-.5,.1,0,.2,0,.3,0,2.7-.3,5-1.5,6.9-3.4,0,0,0,0,0,0,1.1,1.7,2.4,3.3,3.9,4.7,0,0,0,0,.1,.1,0,.1,.2,.2,.3,.3,.3,.5,.6,.9,.9,1.3,.3,.9,.9,1.7,1.6,2.4l.3,.3c0,0,.2,.2,.3,.3,1.3,1.6,2.5,3.4,3.9,5.5,.2,.3,.4,.6,.7,.9,6.1,6.8,12.8,13.3,19.8,19.5,4,4.3,8.3,5.5,11.2,5.7,.2,0,.3,0,.5,0,1.1,0,2.3-.3,3.3-.8,1.6-.8,3.2-1.8,4.7-3,1.1,0,2.9-.5,4.5-2.1,.7-.5,1.4-1.2,2.1-1.9,.7-.5,1.2-.8,1.8-1.1,1.1-.5,2-1.3,2.6-2.3,.5-.6,.9-1.3,1.2-2,.4-.3,.7-.7,1-1.1,.3-.5,.7-1,1.2-1.6,.8-.9,1.3-2,1.6-3.1,.5-.9,1.1-1.9,1.6-3,.5-.9,.7-1.8,.8-2.7,.6-1.5,1.2-2.9,1.7-4.3,.2-.7,.4-1.4,.4-2.1,0,0,0-.1,0-.2,.2-.4,.4-.9,.6-1.3,2.3,1.2,5.1,1,7.3-.6,1.4-1,2.9-2.1,4.4-3.2,.5-.2,1.1-.4,1.5-.7,1.8-1.2,3.6-2.5,5.2-4,0,0,.1,0,.2-.1,1-.6,1.8-1.3,2.4-2.3,.4-.6,.9-1.2,1.6-1.9,.4-.3,.7-.7,1-1.1,.6-.6,1.2-1.2,1.7-1.9,.5-.5,1.1-1.1,1.6-2,0,0,0,0,0,0,1-.7,1.9-1.7,2.4-2.8,.1-.2,.3-.4,.4-.6,.8-.6,1.4-1.3,1.9-2.1,.1-.2,.2-.4,.3-.6,.3-.3,.6-.7,.9-1.1,.4-.7,.7-1.4,.9-2.1,.7-.5,1.3-1.1,1.8-1.8-.3,2.2-.3,4.4-.3,6.6-.1,.5-.2,1-.2,1.6,0,.6-.2,1.3-.2,2-.8,2.9-1.5,5.8-2,8.5-1.8,2.6-3.2,4.7-4.4,6.7-.4,.6-.7,1.3-.9,2-.2,.4-.4,.7-.6,1.1-.9,1.5-1.2,3.4-.8,5.3-.1,.4-.2,.9-.2,1.3-.2,3.1,.8,6.1,2.7,8.4,1.7,4,4,7.6,6.9,10.8,.2,.3,.5,.5,.8,.7l.8,.7c1.6,2.2,3.4,4.1,5.4,5.7,.3,.2,.5,.4,.8,.6,.5,.3,1,.5,1.5,.7,1.9,1,4,1.4,6.2,1.2,0,0,0,0,0,0,1.5,.2,3-.2,4.3-1,.7-.4,1.4-.8,2.3-1.3,.2-.1,.4-.2,.6-.3,2.1-1.3,4.1-2.8,6-4.5l1.5-1.2c.9-.7,1.7-1.5,2.6-2.3,4-2.8,7.7-6,11-9.5,.8,.4,1.6,.7,2.5,.9h.4c.3,.2,.7,.3,1.2,.5,.7,.3,1.5,.6,2.3,.8,1,.7,2.1,1.1,3.3,1.3,1.3,.9,2.8,1.6,4.5,2.1,.3,.1,.6,.3,1,.5,.3,.2,.7,.3,1,.5,1,.4,1.8,.7,2.6,1.1,.2,0,.4,.2,.7,.3,1.5,.5,3.1,1.2,4.7,1.9,.1,0,.2,.2,.3,.2-.6,1-.9,2.2-.9,3.5h0c0,2.2,.9,4.1,2.4,5.4,1.3,1.1,2.9,1.7,4.6,1.7s.6,0,.9,0c1.9-.2,3.7-.8,5.5-1.6,1.7-.2,3.3-.6,4.8-1.3h0c1.5,0,3.1-.3,4.6-.8,2.4,.2,4.8-.3,7-1.5,.6-.2,1.2-.4,1.7-.8,.6-.4,1.2-.8,1.7-1.3,1.8-.9,3.1-2.5,3.7-4.6,.4-1.7,.4-3.5-.2-5.2,.3-.4,.6-.9,.9-1.3,.2-.3,.4-.7,.6-1,.1-.2,.2-.3,.3-.5,.6-.6,1-1.2,1.4-1.9,0-.1,.1-.2,.2-.4,.4-.4,.7-.9,1.1-1.4,.4-.6,.8-1.3,1-2,.2-.4,.4-.8,.6-1.2,.3-.5,.6-1.1,.9-1.6,0-.2,.2-.4,.3-.6,.2-.2,.3-.4,.4-.6,.4-.7,.8-1.3,1.1-1.9,0,0,0,0,0,0,.7-.6,1.3-1.3,1.7-2.1,.6-.9,1-1.9,1.2-3.1,.1-.4,.2-.8,.3-1.2,.2-.4,.3-.8,.4-1.2,0,0,0-.2,0-.2,.2-.3,.4-.6,.5-.9,1.1-1,1.8-2.3,2-3.7,.2-.4,.4-.8,.6-1.2,.3-.3,.6-.7,.9-1.1,.5-.7,.9-1.5,1.2-2.3,.2-.3,.4-.6,.6-.9,.4-.6,.6-1.3,.8-2,.2-.5,.4-1,.5-1.5,0-.1,0-.3,0-.4,0-.2,.2-.4,.3-.5,.8-1,1.2-2.3,1.3-3.6,.1-.3,.3-.6,.3-.9,.1-.4,.3-.9,.5-1.4,.5-.7,.9-1.5,1.1-2.3,.2-.3,.3-.7,.5-1.1,0-.2,.1-.3,.1-.5,.4-.6,.7-1.3,.8-2.1,.1-.3,.3-.7,.4-1,1-1.6,1.8-3.2,2.5-4.7,0,0,0-.1,0-.2,.5,.9,1.2,1.7,2,2.4,.1,.1,.2,.2,.4,.3-.3,.4-.6,.8-.9,1.2-2.2,2.3-2.9,5.6-1.9,8.8,0,0,0,.2,0,.2,1.3,3.7,3.3,7.1,5.8,9.9,0,0-.2,.1-.3,.2-1.6,1.2-3.3,2.3-5.5,3.6-.4,.2-.7,.5-1,.8-1,.6-1.8,1.4-2.4,2.4-1,1.6-1.3,3.6-.8,5.4,.6,2.3,1.6,4.4,3,6.3-1.1,.4-2.3,.8-3.4,1.2-3,.8-6.3,1.6-9.9,2.4-.4,0-.7,.2-1.1,.3-2.4,0-4.6,1.3-5.8,3.4-.8,.5-1.5,1.1-2.1,1.9-.6,.9-1.1,1.8-1.3,2.8-.4,1.4-.4,2.9,.1,4.3,.4,1.1,.9,2.1,1.5,3,.5,1.5,1.4,2.9,2.5,3.9,.5,.8,1.1,1.6,1.7,2.5,1.4,2.1,3.8,3.2,6.2,3.1,.1,0,.3,0,.4,0,1.3,0,2.6-.4,3.7-1.1,.9,0,1.8-.1,2.7-.5,1.3,0,2.5-.4,3.6-1,1-.3,2.2-.6,3.3-1,.2,0,.4-.1,.5-.2,1.6-.7,3.1-1.3,4.5-1.8,1.4,0,2.7-.5,3.8-1.3,.4,0,.7,0,1.1,0,.6,0,1.2,0,2-.1,3.5,0,6.9-.6,10.4-1.8,3.9,.1,7.9-.3,12-1.2,1-.1,2.1-.2,3.3-.2,2,0,3.9,.2,6,.4,1.4,.4,2.9,.6,4.4,.6,4,.7,8,1.1,12.1,1.2,4.1,1,7.5,1.8,10.7,2.5,.2,0,.4,0,.6,.1,.6,0,1.2,.2,1.8,.2,.4,0,.9,.1,1.3,.2,0,0,.2,0,.3,.1,.4,.4,.8,.8,1.3,1.1,1.1,.8,2.4,1.2,3.7,1.3,0,0,.2,.1,.3,.2,.8,.5,1.8,.9,2.8,1,2.6,.4,5-.2,7-1.5,1.2-.2,2.3-.6,3.4-1.1,0,0,.1,0,.2,0,1.3-.6,2.3-1.6,3.1-2.8,.8-1,1.3-1.9,1.7-2.7,1.3-2.3,1.3-5,.3-7.3-.9-3.3-2.8-6.1-5.6-8Zm-87.5-60.5c0-.3,.1-.7,.2-1,0-.1,0-.3,.1-.4,0-.1,.1-.2,.2-.3,.5,.4,1.1,.7,1.7,.9-.8,.3-1.5,.6-2.2,.9Zm-228.2,30.4c.2-.3,.4-.6,.6-.9,.3-.3,.6-.6,.9-.9,1.9-.4,3.7-1.3,5-2.9,2.3-2.3,4.5-4.8,6.6-7.7,0,0,0,0,.1-.1,1.5-2.1,3.1-4.3,4.9-6.7,0,0,.2,0,.3,0,2.4,.4,4.9,1.1,7.4,2-.2,4.4-.6,8.7-1.3,12.9-1.1,6.8-3.6,12.5-7.7,17.2-2.9-1-5.5-2.7-8-4.9,0,0-.1-.1-.2-.2-2-1.7-3.9-3.7-5.7-5.8-.8-1-1.8-1.7-2.9-2.1Zm163.6-20c.2,.1,.4,.3,.6,.4,.6,.5,1.1,1,1.7,1.6-.6-.3-1.1-.5-1.7-.7-.3-.1-.7-.2-1-.3,.1-.3,.3-.7,.4-1Zm-3.4,32.1h.3c1.2-.2,2.5-.4,3.8-.5,.4,0,.9,.1,1.3,.1h0c1.3,.2,2.6,.1,3.9-.2,1.6,.6,3.4,.6,5,0,1-.4,2-1.1,2.7-1.9,1.6-.6,3-1.8,3.8-3.4,1.1-2.2,1.4-4.7,1-7.2-.2-1-.6-1.9-1.1-2.7-.6-.8-1.2-1.6-1.8-2.4,.6,.5,1.2,.9,1.9,1.4,.5,.3,.9,.6,1.5,.8,1.2,.5,2.4,.9,3.6,1.1,.9,.4,1.7,.7,2.5,1,.2,0,.3,0,.5,.1,0,0,0,0,0,.1-.2,.3-.4,.7-.5,1.1-.4,.5-.7,1.1-.9,1.7h0c-.4,.8-.7,1.4-1,2.1-.4,.6-.6,1.2-.8,1.9-.2,.2-.3,.5-.4,.7-1.9,3.8-3.8,7.5-5.7,11-.7,1.4-1.4,2.7-1.9,3.9-.2,.4-.4,.7-.6,1.1-5.5-3.6-11.3-6.9-17.5-9.9,.2,0,.3,0,.5,0Z" style="fill: #241716;"/>
        </g>
        <g id="_圖層_1" data-name=" 圖層 1">
          <g>
            <g>
              <path d="M471.9,71.6h8.8l6.1,17.2h0l6.1-17.2h8.8v26.4h-5.8v-20.3h0l-7,20.3h-4.4l-6.7-20.3h0v20.3h-5.8v-26.4h0Z" style="fill: #facd00;"/>
              <path d="M516.5,71.6h4.8l11.5,26.4h-6.6l-2.3-5.6h-10.3l-2.2,5.6h-6.4l11.4-26.4h0Zm2.2,7.7l-3.2,8.2h6.4l-3.3-8.2h0Z" style="fill: #facd00;"/>
              <path d="M536.2,71.6h7.9l11.2,18.3h0v-18.3h5.8v26.4h-7.6l-11.5-18.8h0v18.8h-5.8v-26.4Z" style="fill: #facd00;"/>
              <path d="M484.9,114.6c-.5-.6-1.1-1-1.9-1.3-.8-.3-1.6-.4-2.3-.4s-.8,0-1.3,.1c-.5,0-.9,.2-1.3,.5-.4,.2-.7,.5-1,.8-.2,.3-.4,.8-.4,1.3,0,.8,.3,1.4,.9,1.8s1.4,.8,2.2,1.1,1.9,.6,2.9,.9c1,.3,2,.7,2.9,1.3,.9,.6,1.7,1.3,2.2,2.2,.6,.9,.9,2.1,.9,3.7s-.3,2.8-.8,3.8c-.6,1.1-1.3,2-2.2,2.7-.9,.7-2,1.3-3.3,1.6-1.2,.3-2.5,.5-3.9,.5s-3.3-.3-4.8-.8c-1.4-.5-2.8-1.4-4.1-2.5l4.2-4.6c.6,.8,1.4,1.4,2.2,1.9,.9,.4,1.9,.7,2.8,.7s.9,0,1.4-.2c.5,0,.9-.3,1.3-.5,.4-.2,.7-.5,.9-.8,.2-.3,.4-.7,.4-1.2,0-.8-.3-1.4-.9-1.9-.6-.5-1.4-.8-2.3-1.2s-1.9-.7-3-1-2.1-.7-3-1.3c-.9-.6-1.7-1.3-2.3-2.1s-.9-2.1-.9-3.5,.3-2.7,.8-3.7,1.3-2,2.2-2.7c.9-.7,2-1.3,3.2-1.6,1.2-.4,2.5-.6,3.8-.6s2.9,.2,4.3,.7,2.7,1.1,3.8,2.1l-4,4.4h0Z" style="fill: #facd00;"/>
              <path d="M494.8,108.1h5.8v9.8h11.3v-9.8h5.8v26.4h-5.8v-11.4h-11.3v11.4h-5.8v-26.4Z" style="fill: #facd00;"/>
              <path d="M524,121.3c0-2.1,.4-4,1.1-5.7,.7-1.7,1.7-3.2,3-4.4,1.3-1.2,2.8-2.1,4.5-2.8,1.7-.7,3.6-1,5.7-1s4,.3,5.7,1c1.7,.7,3.3,1.6,4.5,2.8,1.3,1.2,2.2,2.7,3,4.4,.7,1.7,1.1,3.6,1.1,5.7s-.4,4-1.1,5.7c-.7,1.7-1.7,3.2-3,4.4-1.3,1.2-2.8,2.1-4.5,2.8-1.7,.7-3.6,1-5.7,1s-4-.3-5.7-1c-1.7-.7-3.3-1.6-4.5-2.8s-2.2-2.7-3-4.4c-.7-1.7-1.1-3.6-1.1-5.7Zm6.1,0c0,1.3,.2,2.4,.6,3.4,.4,1,.9,1.9,1.7,2.7,.7,.7,1.6,1.4,2.6,1.8,1,.4,2.1,.7,3.4,.7s2.4-.2,3.4-.7c1-.4,1.9-1,2.6-1.8,.7-.7,1.3-1.6,1.7-2.7,.4-1,.6-2.1,.6-3.4s-.2-2.3-.6-3.4c-.4-1-.9-2-1.7-2.7-.7-.7-1.6-1.4-2.6-1.8s-2.1-.7-3.4-.7-2.4,.2-3.4,.7c-1,.4-1.9,1-2.6,1.8-.7,.7-1.3,1.7-1.7,2.7-.4,1-.6,2.2-.6,3.4Z" style="fill: #facd00;"/>
              <path d="M556.6,108.1h5.8v11l10.3-11h7.6l-11.8,12.3,12.7,14.1h-8.1l-10.7-12.6v12.6h-5.8v-26.4h0Z" style="fill: #facd00;"/>
              <path d="M606.4,124.3c0,1.6-.2,3-.7,4.3s-1.2,2.5-2.1,3.5c-.9,1-2.1,1.7-3.5,2.3-1.4,.6-3,.8-4.8,.8s-3.5-.3-4.9-.8-2.6-1.3-3.5-2.3c-.9-1-1.6-2.1-2.1-3.5-.5-1.3-.7-2.8-.7-4.3v-16.2h5.8v16c0,.8,.1,1.6,.4,2.3,.3,.7,.6,1.3,1.1,1.8,.5,.5,1,.9,1.7,1.2,.7,.3,1.4,.4,2.1,.4s1.5-.1,2.1-.4c.7-.3,1.2-.7,1.7-1.2s.8-1.1,1.1-1.8c.3-.7,.4-1.4,.4-2.3v-16h5.8v16.2h0Z" style="fill: #facd00;"/>
              <path d="M616.7,123.3l-9.9-15.2h7.2l5.6,9.9,5.9-9.9h6.9l-9.9,15.2v11.2h-5.8v-11.2h0Z" style="fill: #facd00;"/>
              <path d="M637.9,108.1h4.8l11.5,26.4h-6.6l-2.3-5.6h-10.3l-2.2,5.6h-6.4l11.4-26.4h0Zm2.2,7.7l-3.2,8.2h6.4l-3.3-8.2h0Z" style="fill: #facd00;"/>
            </g>
            <g>
              <path d="M85.8,100.2c0,0-.2,0-.3-.1,0,0,.2,.1,.3,.1Zm98.6-26.9v.3h-.1c0-.1,.1,.2,.1,.2-.7,0-1.3-.2-1.7-.6,0,.2-.1,.4-.1,.5-.2,0-.4,0-.5-.1,0,.2,0,.4,.1,.5h-.3c-.2,0-.4,0-.5,.1,0,.3,.3,.6,.5,.8-.7,0-1.4,.2-2,.3,0,.6-.1,1.3-.5,1.9-.2,0-.3-.2-.3-.3-.2,.4-.3,.7-.1,.9-.2,0-.4,0-.5-.1-.2,.4-.4,.7-.5,.9-.4,0-.8,0-1.3,0-.2,.4-.3,.8-.3,1.3-.4,.3-.8,.7-1.1,1.1-1.1,.2-2.4,.4-3.7,.6-14.2,2.3-28.1,5.8-41.7,10.6-10.6,4.2-21.5,6.2-32.7,6.1-2.9-.7-5.8-1.4-8.7-2.2,.5,.7,.8,1.4,.9,1.9-.2,.2-.5,.1-.8-.1-.3,0-.5,.2-.5,.3h-1c.6,.3,1,.7,1.3,1.3h-.3c-.5,.7-1.1,.8-1.9,.1,.2,.4,.4,.7,.5,.8-.2,.4-.5,.5-.9,.1,.6,.5,1.1,1,1.4,1.5,5.3,6.6,11.8,10.8,19.6,12.6,5,1.5,9.8,1.3,14.3-.8,.8-.2,1.7-.4,2.5-.5,.7-.3,1.5-.7,2.3-1.1h.1c.6,0,1.3-.2,2-.5,1-.4,2-.6,2.9-.6l1.1-.3h2.5c1,.8,2.2,1.5,3.4,2.2-.2,.6-.3,1.2-.3,1.7-2.8,6-6.1,11.5-9.9,16.3-2.7,4.7-5.9,8.9-9.7,12.7,0,0-.3,.2-.5,.3h0c-.5,.7-1,1.4-1.4,1.9-1.8-2.4-3.5-4.8-5.1-7.3,1,2.9,2.6,5.6,4.7,7.9-3,3.5-6.1,6.6-9.2,9.2,0,0,0,.1,.1,.1-.5,.8-1.2,1.3-2,1.3-.9,.7-1.7,1.5-2.3,2.3,0,0,.2,0,.3,.1-.4,.4-.8,.7-1.3,.8,0,0,0,.1,.1,.1,0,.2-.3,.4-.5,.5h-.9c-.4,.4-.6,.8-.6,1.3-1,.3-1.9,.8-2.5,1.5-.8,.3-1.5,.7-2.2,1.1,0,0,0,.1,.3,.1,.7-.2,1.5-.5,2.3-.8l-3.4,2.7h.1c0,.2-.3,.3-.5,.3,0,0-.1,0-.1-.1-.2,.2-.4,.3-.5,.3h.1c-.5,.3-.9,.7-1.1,1.2-2.3,1.4-4.5,2.7-6.7,3.7,.4-.2,1-.4,1.7-.5,0,0,0-.2,.1-.3,0-.3,.4-.4,.8-.1,0,0-.2,.2-.3,.3-.2,.3-.4,.5-.5,.6-.4,0-.8,0-1.1,.5,.4,0,.8-.2,1.3-.3,0,0,.3-.1,.6-.1,2.1-.6,4.3-1.3,6.7-1.9,.4-.4,.9-.6,1.5-.6,1-.3,2.1-.6,3.1-.9,.2,0,.5,0,.8,0,0,0-.1-.2-.1-.3,.3,0,.7,0,1.1,0,0,0-.1,.3-.1,.5,0,0-.1,0-.1-.1v.3c0,0,.2,0,.3-.1h0c0,.1,.3,0,.5,0,.5,.3,1,.3,1.5-.1,.7,0,1.4-.4,2.2-.9-.4,0-.7,0-.9,0,.3-.4,.8-.6,1.4-.6-.2-.4,0-.6,.5-.6h-.1c.3-.2,.7-.3,1.3-.3,0,0-.2-.2-.3-.3,.2-.3,.5-.4,.9-.3h0c.9-.7,2-1,3.3-1.2,0-.3,.3-.6,.5-.9,0,0,.3,0,.5-.1,.5-.2,1.1-.5,1.9-.8-.2,0-.4,0-.5-.3,.4-.3,.9-.7,1.4-1.1h-.1c.4-.2,.9-.6,1.4-1.1l.9-.9c.5-.2,1-.5,1.5-.8,.2-.4,.6-.6,1.3-.6-4.1,4.7-8.8,8.3-14.1,10.9,1.7-.5,3.3-1.3,4.8-2.2,1.5-.6,3.1-1.5,4.5-2.7,.5-.5,1.1-1,1.7-1.5,.2-.4,.6-.8,1.1-1.3,.2,0,.4,.1,.5,.5-.8,.4-1.4,.9-1.7,1.5,0,.3-.1,.5-.5,.6v-.3c-.1,0-.1,.1-.1,.1,0,0,0,.1,.1,.1,0,0,0,.1-.1,.1-.2,0-.3,0-.3-.1-.2,.4-.4,.7-.6,.9,0,.2-.3,.3-.6,.3-.3,.2-.4,.4-.3,.5,1.4-.2,2.5-.9,3.3-2,1-.4,1.8-1.1,2.3-2,.8-.2,1.5-.7,2.2-1.4,.7-.2,1.3-.7,1.7-1.4,.3,.5,.6,1,.9,1.5,0,0-.1,.2-.1,.3h.3c.4,.7,1,1.5,1.7,2.3,1.1,2.2,2.5,4.1,4.2,5.7h.1c.2,.3,.4,.6,.6,.7,.1,.1,.3,.2,.4,.2-1.4-1.4-2.6-2.9-3.7-4.5-.3-.2-.4-.4-.1-.6,1.8,2.4,3.6,4.7,5.6,6.9h-.1c-.3-.5-.8-.9-1.4-1.3,.6,1,1.4,1.9,2.2,2.5,0,.4,.3,.7,.9,.8-.3,0-.6,0-.9-.1,1.8,2.2,3.4,4.5,5,7,6.2,6.9,12.7,13.2,19.5,19.1,2.1,2.3,4.3,3.5,6.9,3.7,1.8-.9,3.5-2.1,5.1-3.4,1-.2,2-.7,2.9-1.4,0,.7-.5,1.1-1.3,1.1h.6c0,0,.2,0,.3-.3,.8-.5,1.5-1.2,2.2-2-.2,0-.4,0-.6-.1,.3,0,.7-.1,1.1-.1,.8-.6,1.8-1.2,2.8-1.7,0,0-.1,0-.1-.1,.2,0,.4-.3,.6-.5-.5,0-.9,.2-1.3,.3,0-.7,.6-1.1,1.5-1.3-.3,0-.4-.1-.3-.5,.5-.3,1.1-.7,1.7-1.1,.5-.7,1.1-1.4,1.7-2.2,0,0-.1,0-.1-.1s0-.3,.1-.5c.7-1.3,1.5-2.7,2.3-4.2-.2-.3-.2-.6,0-.9,.7-1.5,1.4-3.2,2-5,0-.4,0-.8,.1-1.3h0c0-.6,.2-1,.3-1.5,.5-.6,.8-1.4,.8-2.2,.3-.5,.4-1.1,.1-1.9,.6-2.1,1.3-4.2,1.9-6.4,.2-.7,.4-1.6,.6-2.7h-.3c.2-1,.4-2.1,.6-3.1,.3-3.7,1.4-7.1,3.3-10.1h1.7c1-.3,1.6-1.1,1.7-2.5,0-1.5,0-3.2-.1-5,.2-.3,0-.7-.3-1.3-.6-2-1.4-3.9-2.5-5.7-4.1-3.9-8-7.8-11.8-11.5-.5,0-1,0-1.4-.3-.7,.2-1.5,.1-2.5-.1-.7,.3-1.5,.5-2.5,.5,0,.3,0,.5-.3,.5-4.9,0-9.8-.6-14.6-1.5,.2,0,.3,0,.3-.3,0,0-.2,.2-.3,.3h-.1c-.7,0-1.4,0-2.2-.2,0-.4,.2-.9,.6-1.4,.4-1.5,0-3.1-1.1-4.5-.9-1.9-2.2-3.6-3.7-5.1-2.4-1.4-4.6-3.1-6.7-5.1,1.5-.8,3.1-1.7,4.5-2.5,0,0,0-.2,.1-.3,0,.2,0,.3,.3,.3,0,0,.1-.2,.5-.3,.6,0,1.3-.3,1.9-.6,.5-.2,1.2-.1,2,.1,0,0,0-.2,0-.2,0,0,0-.1,0-.2,.7-.2,1.4-.4,2-.5,2.3-.5,4.6-1.1,7-1.9,0,0-.1,0-.1-.1,1.3-.3,2.5-.6,3.7-.9,.8,0,1.9,0,3.1-.1,2.9,.2,5.9,.7,8.9,1.5-.2,0-.4,.2-.5,.3,2,0,3.9-.3,5.9-.8,1.8-.5,3.6-.3,5.5,.6,1.4,0,2.8,0,3.9-.1,.6,0,1.4,0,2.2-.1,.6,0,1.3,0,1.9,.1,2,0,4-.5,6.1-1.1,.5,.2,.9,.2,1.3,0,.6,0,1.4,0,2.2-.3,.5-.3,.8-.9,.9-1.7,.7-2.9,0-5.6-2-8.3-4.3-5-9.4-8.8-15.3-11.3-3.2-1.4-6.6-2.9-10.1-4.5h-.3Zm-69.2,88c0,0,.3,0,.6-.3-.2,0-.4,.2-.6,.3Zm57.4-23.5c0,5.4-.6,10.6-1.4,15.7-1.5,9.7-5.7,17.6-12.5,23.9-5.6-1-10.6-3.6-14.9-7.6-2.3-2-4.5-4.2-6.5-6.7v.3c3,4.3,6.8,8,11.3,10.9v.3c-4.1-2.6-7.6-5.7-10.6-9.5,0,.3,0,.6,.1,.8-3.3-2.8-5.8-6.1-7.5-9.9,0-.2,0-.4,.1-.6-.2,0-.3,0-.3,.3-.3,0-.4-.3-.1-.6,.2,0,.4,0,.6,.3,.7-.7,1.4-1.5,2.2-2.3-.3,0-.7,0-1.1,0-.3,.3-.5,.6-.5,.8-.3,0-.5,0-.6,.1,0,0-.2-.3-.3-.5-.3,.2-.6,.4-.9,.6,0-.2,.2-.4,.3-.6,.2-.3,.5-.5,.9-.5-.2,.2-.3,.4-.3,.5,.3,0,.6,0,.8,0h.1c-.3-.6-.4-1.2-.1-1.7,.2,0,.4-.1,.5-.5,0,.5,0,.9,.1,1.1,.4-.4,.8-.5,1.3-.3h.3c0,.3,0,.4-.3,.3h-.5c0,.3,0,.5,.3,.6,.4-.3,.8-.6,1.1-.9,.4-.7,.9-1.4,1.5-1.9-.3,0-.6,.1-.9,.1,0,0,.2,0,.3-.3,0-.5,.4-.6,.8-.3,.5-.5,1.1-1.2,1.9-2,0-.2,.1-.4,.5-.5,.6-.9,1.4-1.3,2.3-1.1-.4,.5-.7,1-.8,1.5-.2,0-.3,0-.3,.1,.6,0,1.1-.3,1.5-.8,2.2-2.2,4.2-4.6,6.2-7.1,2.5-3.4,5-6.8,7.5-10.1,1.3,.3,2.7,.5,4.2,.6,3.1,.5,6.2,1.4,9.2,2.5,2.2,.8,3.6,2.4,4.3,4.8h0Zm-35.9,28.9c-.2,0-.4-.4-.5-.8v.5c-2.6-2.4-4.7-5.2-6.2-8.5,1.1,1.1,2.2,2.4,3.1,3.7,1.4,1.8,2.7,3.5,3.6,5.1h0Zm-2.3,6.4l-.3-.3,.3,.3Zm2.9-6.5c1.8,1.4,3.4,3.1,4.8,5-1.7-1.8-3.3-3.4-4.8-5Z" style="fill: #facd00;"/>
              <path d="M270.8,56.8c4.3,1,7.8,3.3,10.5,6.8,0,1,.4,2,.8,2.9,0,1.8-.6,3.4-1.4,4.8,.2,.4,.5,.8,.8,1.3,.7,1.5,1.5,3,2.3,4.3,1.1,2.2,2.2,4.2,3.3,6.2,9.7,14.9,21.3,28.2,34.9,39.9,.9,.2,1.9,.7,2.8,1.5,1.8,2.4,3.9,4.3,6.5,5.9,2.6,1.4,4.9,3.3,6.8,5.6,.8,.9,1.5,1.9,2,2.8,.2,.4,.2,.8,.1,1.3-.5,.3-.7,.6-.6,.9-.5,.5-.8,1.1-.8,1.7-.6,1.5-1.3,2.9-2,4.2-.9,.7-2,1.3-3.1,1.5-1,0-2.1,0-3.1-.3-.9-.3-1.8-.7-2.5-1.1-1.1-.2-2.2-.5-3.3-.9-2.6-1.9-5.1-3.8-7.4-5.9-.9,0-1.8-.3-2.5-.8,.5,0,1.1,0,1.9-.1-2.9-2.6-5.8-5.2-8.7-7.9-.8-.5-1.5-1.1-2.2-1.9-1-.7-2-1.6-2.8-2.6-2.7-2.1-5.2-4.2-7.4-6.5-.7-.4-1.3-.9-1.7-1.5-.3,0-.5-.2-.5-.6l-.3-.3h0c-.8-.5-1.5-1.2-2.2-1.9v-.3c0,0,0,.1-.2,.1s-.1,0,0-.3h.1c4.3,4.3,8.8,8.3,13.5,12.1h0c-1.8-1.7-3.5-3.3-5.1-4.9h.3c.4,.7,1,1.2,1.7,1.4,0,.4,.1,.6,.5,.5,.3,.6,.8,1.1,1.4,1.5,.4,.2,.8,.5,1.3,.9,.3,.5,.7,.8,1.3,.9,2.6,2.2,5.3,4.3,8.2,6.5v-.3c-3.2-2.9-6.5-5.8-9.9-8.7,1.6,1.4,3.4,2.7,5.1,4-2.5-2.3-5-4.4-7.6-6.5h-.1c0,0,0,.2,.3,.3-.2,0-.3,0-.3-.3h0c-.7-.7-1.4-1.4-2.2-2-.2,0-.3,0-.3,0h.3c-.2,0-.3-.3-.3-.5,0,0-.1,0-.1,.1-.9-.6-1.7-1.3-2.3-2-.8-.5-1.5-1.2-2-2-1.9-1.8-3.7-3.5-5.6-5.3,0,0-.3-.2-.5-.5-1.4-1.1-2.6-2.5-3.7-4,5.5,5.6,11.2,10.9,17.2,15.8,2.6,2.4,5.3,4.7,8.1,6.8-.5-.6-.9-1.3-1.3-2-3.8-3-7.5-6.2-11-9.6-4.5-4.2-9.1-8.6-13.6-13.2,0,0,0-.1-.3-.1-.4-.4-.8-.9-1.1-1.5,3.3,3.3,6.7,6.6,10.1,9.8h.1c-1.6-2-3.4-3.8-5.1-5.6,.4,.5,.8,1,1.3,1.4h0c-1.9-2-3.7-3.9-5.4-5.9l4,4h0c-2.7-3-5.2-6-7.6-9,0,.6,.2,1.1,.6,1.5-.4-.5-.7-1.1-.9-1.7,0,0,0,.1,.1,.1h0c-.7-.6-1.3-1.2-1.5-2.1-.8-1.5-1.9-2.9-3.1-4.2-.3-.4-.6-.8-.9-1.3,0,0,0,.5,.4,1.3,.4,.7,.9,1.6,1.8,2.8-.5-.4-.9-.9-1.1-1.4-.3-.5-.6-1.1-.9-1.9-1.8-2.5-3.4-5.1-4.8-7.9-.5,.2-.7,.5-.5,.8,2.5,5.1,5.3,10,8.4,14.7,0,.2,0,.3,.3,.3h0c.6,1,1.2,1.9,1.7,2.9-2.8-4-5.4-8.2-7.9-12.4-1-1.8-2-3.5-2.9-5.4-.3,0-.5,.3-.5,.5,.7,2.3,1.8,4.4,3.1,6.3,0,.5,.4,1,.8,1.4-.4-.5-.8-1-1.1-1.5,0,.8,.5,1.5,1.1,2,.3,.6,.6,1.3,.8,1.9,.2,0,.4,.3,.5,.5h0c-2.1-3.1-4.1-6.3-6.1-9.6-.2,0-.3,0-.3,.1-.3,.4-.6,.8-.8,1.1-.2,.4-.4,.8-.6,1.1-.2,0-.4,.1-.5,.1,0,0,0,.1,.1,.1,0,0-.1,.2-.1,.3-.6,.9-1.2,1.8-1.7,2.6,.4-.8,.9-1.7,1.5-2.6,0,0-.1,0-.1-.1-.8,.9-1.4,1.9-1.9,2.8-.4,.3-.7,.7-.9,1.3-.5,.9-1,1.8-1.5,2.6-.5,.6-1,1.3-1.4,1.9,0,.2,.1,.3,.5,.3,.3-.2,.8-.5,1.4-.8,.7-.3,1.4-.5,2.2-.5,.3,.4,.7,.6,1.3,.5,.3-.2,.6-.4,.8-.6,.3-.2,.7-.4,1.1-.6,.7-.4,1.5-.7,2.3-.9,.9,0,1.8,.4,2.6,.8,.8,.6,1.7,1.1,2.6,1.4v-.3c.2,.4,.5,.7,.9,.8v-.5c.8,1.4,1.9,2.8,3.1,4,0,.8,.4,1.5,.9,2.2-.2,.3-.3,.6-.3,.8,0,1.1-.3,2.1-.8,2.9-.9,1-2,1.8-3.3,2.2-2.9,.9-5.8,.9-8.8,0-2-.4-3.8,0-5.4,1.3-1.1,.6-2.2,1.1-3.3,1.5,.4-1.6,1.4-3.1,2.8-4.3,0-.9-.1-1.8-.8-2.5-.5-1.4-1-2.7-1.5-4h-.3c.3,0,.4-.4,.3-.9-3.4,4.7-6.7,9.3-9.9,14.1-.8,.7-1.5,1.6-2.2,2.6,.9-1.3,1.6-2.6,2.2-4.2-.7,1.3-1.5,2.3-2.5,3.3,0,.3,0,.6-.3,.8-.2,0-.3,.3-.1,.5-.4,.5-.8,1.1-1.1,1.7-.2,0-.3,.2-.3,.3-.8,1.4-1.6,2.8-2.5,4-.4,.3-.5,.6-.3,.8,0,0,0,.4,.4,.8,.4,.4,1,.9,2,1.5,1.3,.5,2.5,1.1,3.7,1.9,.2,.5,.5,.7,.8,.6,3.1-3.1,6.5-5.8,10.2-8.1,1.6-1,3.4-2.2,5.3-3.4,2.5-.9,5-1.9,7.6-2.9,.5-.6,1.3-1,2.2-1.3,3.7-.3,7.5,0,11.3,.8,1.4,.6,2.6,1.4,3.7,2.5,2.8,2,5.2,4.3,7.3,7.1,.8,.9,1.4,2,1.7,3.3,.2,.9,.5,1.8,.8,2.6,.3,2.5,0,4.8-1.3,6.8-.4,.6-.6,1.3-.5,1.9-1,2.8-2,5.5-2.8,8.1-.7,.9-1.4,1.7-2.2,2.3-.6,.8-1.4,1.5-2.2,2.2-.8,1-1.9,1.8-3.1,2.2-1.4,.8-3,1.5-4.7,2-1.8-.2-3.3-1-4.7-2.5-.9,.2-1.6,.6-2.2,1.1-.2,.3-.5,.4-.8,.3,0,0-.1,0-.1-.1,0,0,0,0-.2,0-.1,0-.3,0-.6,.1-.2,.4-.5,.8-.8,1.1,0,0-.1-.3-.1-.5,0,0-.2,.2-.3,.3,0,0-.1-.2-.1-.3-.3,.2-.5,.5-.5,.8-.4,.3-.9,.5-1.4,.6,0,0-.1,0-.1-.1-.6,.2-1.1,.5-1.4,.8-.5-.2-.9-.1-1.3,.1-.2,0-.3,.2-.3,.3-.4-.2-.8-.2-1.3,0-.4,.5-.8,.7-1.3,.5-.4,.2-.7,.3-.9,.3-2.1,.9-4,2-5.9,3.1-.4,.3-.7,.6-.9,.9,3.5,.9,7.1,1.4,10.7,1.3,4.5-1.1,9.1-2.8,13.6-4.8,3.5-1.1,6.9-2.7,10.2-4.7,1.6-.9,3.1-2.2,4.3-3.9-.2-.6-.1-1.2,.1-1.7,.4,.2,.8,0,1.1-.3-.2-.2-.2-.4,0-.6,0,.2,.2,.3,.5,.3,.3-.4,.8-.6,1.5-.6s.4,0,.6-.1c0-.2,0-.4-.1-.5,.3,0,.5,0,.6-.3,1.1,.3,2.1,0,2.9-.8,2.1,.7,3.8,2,5.1,3.7,3.3,2.6,6.1,5.5,8.4,8.7,.2,1,0,2-.3,2.8-.4,0-.8,0-1.1,.3-.2,.2-.5,.4-.8,.5-.3,0-.6,0-.8-.1,0,.5,0,.9-.1,1.3-.8-.5-1.8-.7-2.9-.6-1,.4-2,.5-2.9,.3h-.6c-.2,0-.4-.2-.6-.3-2,.3-3.9,.6-5.7,.8h-1.5c-.9,.6-1.9,.9-2.9,.9-1.1,1.3-2.2,2.5-3.1,3.7-1.1,1.4-2.2,2.9-3.1,4.3,0,.9,.4,1.5,1.4,1.9,2,.6,3.9,1.3,5.7,2,6.8,3.2,13.3,6.9,19.6,11.2,3.5,2.7,7,5.5,10.4,8.4v.5c-.3,0-.6-.1-.8-.1,0,.2,0,.3,.1,.3h-.1c.7,.7,1.4,1.4,2,2.2,.3,1.6-.2,2.9-1.5,3.7,0,0-.1,0-.1-.1-.2,.2-.4,.3-.5,.3h0c-1.6,1.1-3.4,1.4-5.3,.8-1.6,.9-3.3,1.3-4.9,.9-1.8,.9-3.6,1.4-5.6,1.5-1.4,.8-2.9,1.4-4.3,1.5h0c.6-.7,1.4-1.2,2.2-1.7,.6-.7,1.4-1.5,2.3-2.3-.4-.6-1-1.3-1.7-1.9h0c-.6-.8-1.4-1.4-2.3-1.9-.7-.6-1.4-1.1-2-1.5-.4,0-.8-.1-1.1-.5-2.1-1-4.2-1.9-6.2-2.6-1.1-.5-2.2-.9-3.1-1.3-.7-.4-1.4-.8-2.2-1.1-1.4-.3-2.5-.9-3.4-1.7-.5-.2-1-.4-1.4-.5-.2,0-.3,0-.3-.3-.3,0-.6,.1-.8,.1-.4-.5-.9-.8-1.4-.9-.9,0-1.8-.4-2.5-.8-.8-.2-1.5-.4-2.2-.6-.7-.2-1.4-.5-2-.8-.7-.7-1.5-1.1-2.3-1.3-.6-.3-1.3-.4-1.9-.1-.9,.7-1.7,1.5-2.3,2.3-3.4,3.7-7.1,7-11.2,9.8-1.5,1.4-3,2.6-4.3,3.7-1.6,1.4-3.4,2.8-5.1,3.9-1,.5-2,1-2.8,1.5-.6-.2-1.1-.2-1.4,0-.9,0-1.8,0-2.6-.6-.3,0-.6-.2-.8-.3-1.8-1.4-3.3-3.2-4.7-5.1-.5-.4-1-.8-1.5-1.3-2.7-3-4.7-6.3-6.1-9.9-1.3-1.1-1.8-2.5-1.7-4.2,.5-1,.5-2.2,0-3.4,0,.3,.4,.4,.8,.3,0-.4-.2-.8-.3-1.3,0,0,.2,0,.5-.1,0,0,0-.1,.3-.1,0-.4,0-.9,0-1.4,0,0,0-.2,.1-.3,1.5-2.5,3.3-5,5.1-7.7,.5-3.3,1.3-6.7,2.3-10.1,0-.7,0-1.4,.1-2,0,0,.2-.3,.3-.6-.3-.2-.3-.5,0-.9-.2-2.7,0-5.4,.3-8.2,.2-3.2-.4-6.3-1.9-9.3-.9-.7-1.6-1.6-2-2.8-.9-.5-1.6-.5-2.2,0-.3,.6-.7,1.3-1.1,1.9-.4,.4-.8,.7-1.1,.9,.8-1.1,1.7-2.3,2.6-3.4-.2,0-.3-.2-.3-.3-1.9,2.4-3.6,4.8-5.3,7.1-.7,.8-1.4,1.6-1.9,2.3,0,0,0,.1,.1,.1h-.3c-1.1,1.4-2.2,2.7-3.3,4,.4-.2,.7-.1,.8,.1-.2,0-.3,0-.3,.3-.2,.2-.4,.4-.5,.5,0-.2-.3-.4-.5-.5-.3,.2-.4,.4-.3,.6,0,.2,0,.3,.3,.1h.1c0,.2,0,.5-.1,.8-.7,.5-1.3,1.1-1.7,1.9l-.8,.8c0,.3,0,.5-.1,.6,0,0-.1,0-.1-.1-.3,.5-.7,.9-1.1,1.1-.2,.4-.5,.7-.8,.8,0,.4,0,.7-.3,.9-.2,0-.3,0-.1-.3,0,.2-.2,.4-.3,.5,0,0,0,0,.1,0-.5,.9-1.2,1.6-2,2.2-.4,0-.5,.3-.3,.6-1.1,1-2.1,2.1-2.8,3.3-.6,.3-1.1,.7-1.4,1.1-1.4,1.3-2.8,2.3-4.2,3.3h-.6c-1.9,1.4-3.7,2.8-5.6,4.2-1.5-.9-3-2-4.3-3.1-1-1.1-2.1-2.4-3.3-3.7-.5-.5-.6-1.1-.3-1.7-.2,0-.3-.2-.1-.3,.4,0,.5-.4,.3-.8,.5,0,.8-.4,.9-.9,.6-.3,.9-.8,.9-1.5,.3-.7,.9-1.1,1.7-1.3,0-.2,.2-.4,.6-.6,0,0,0,.1,.1,.1,1.5-2.9,3.3-5.6,5.3-8.2-.2,.8-.4,1.5-.6,2-.4,.9-.7,1.8-.8,2.5,0,0,0,.1,.1,.1,0,0,.2-.2,.5-.5h-.1c.6-.3,1.3-.7,1.9-1.3,0,0-.2,0-.3-.1h.1c0,0,0,.2,.1,.2,.3-.5,.7-1,1.3-1.5,.3,0,.6-.4,.8-.8,.3,0,.6-.4,.8-.8h-.3c0-.2,.3-.4,.6-.5,0,.2-.2,.3-.3,.3,0,0,0,.1,.1,.1,.4-.6,.9-1.1,1.4-1.4,0-.2,0-.4,.1-.6,.5,0,.8-.4,.8-.9h-.1c.5-.2,.9-.5,1.1-.9,.2,0,.3,0,.3-.3,.3-.3,.6-.7,.9-1.1,0,0,0,.1,.1,.1,0,0,.2-.2,.3-.5h.1c-.2,0-.3,.2-.1,.3v.5h.3c-.3,.4-.6,.8-.9,1.1,.4,0,.8,0,1.1-.3v-.5c.7-.9,1.5-1.9,2.5-2.8,0,0,0,.1,.1,.1,1.3-1.8,2.5-3.5,3.9-5.4,0,0,0-.2-.1-.3,0,0-.1,.3-.1,.5-.8,.6-1.4,1.3-1.9,2-.2,0-.3,.2-.3,.3-.2,.4-.4,.8-.5,1.1-.3,.2-.6,.4-.8,.5,0,.2,0,.3,.1,.3-.4,0-.6,.3-.6,.5h0c0,.1-.1,.1-.1,.1-.7,1-1.4,1.9-2.2,2.6-.2,0-.3,0-.3-.1,.3-.3,.7-.7,1.1-1.1v-.3c-.3,.4-.6,.7-.9,.8-.2-.2-.1-.5,.1-.8,.4-.2,.8-.5,1.1-.9,0,0-.2-.1-.3-.1,.2,0,.4-.2,.5-.5,.3,0,.5-.4,.6-.8,0,0-.2,.1-.3,.1,.3-.3,.7-.7,1.1-1.1,0,0,0,.1,.1,.1,0-.3,0-.6,.5-.9,.2,0,.4-.1,.5-.5h0c.3-.5,.7-.8,1.3-1.2-.3,.6-.6,1.2-.8,1.7,.8-.8,1.5-1.8,2.2-2.8,0,0-.1,0-.1-.1,.2,0,.3-.2,.3-.6,0,0-.2,0-.3,.3,0,.2-.3,.5-.6,.9-.2,0-.4,0-.5-.1,.3,0,.6-.4,.9-.8h-.1c0,0,0-.2,.1-.3,0,0,0,.1,.1,.1,0-.8,.5-1.4,1.3-1.9-.2-.2-.1-.5,.1-.8,.2,0,.4-.4,.5-.8,.4,.2,.7,0,.8-.3,0,0,0,.2,.1,.3,.2-.2,.3-.5,.3-.8-.2,.2-.4,.3-.5,.1,0-.5,.2-1,.8-1.5,.5-.7,1.1-1.5,1.7-2.3,0,0,.2,0,.3-.1,0,0,0-.1-.1-.1,.2-.3,.5-.6,.9-.9,0-.4,0-.8,.6-1.1h.3c0,0,0,.1-.1,.1,0,.2,.3,.3,.5,.1,0,0,.1,0,.1-.3-.3,0-.5,0-.6-.3,.3,0,.6-.2,.9-.3,0,0,0-.2,.1-.3,0,0-.2,0-.3-.1,0-.5,.4-1,.9-1.4h-.1c4.8-7.2,9.5-14.6,14.1-22.2,7.1-10.2,14.1-20.7,20.9-31.3,.9-1.5,1.7-3.3,2.3-5.3-.3-.3-.4-.7-.1-1.1,.2,0,.4-.3,.6-.5,0-.2-.1-.4-.1-.6,.5,.2,1,.1,1.5-.1,0,0-.1,0-.1-.1,.4,.2,.8,0,1.3-.3v-.8c.3-.2,.5-.5,.6-.8,.2,.2,.5,.3,.9,.1,.3-.8,1-1.2,2-1.1,.2-.5,.6-.9,1.3-1.1,.2,0,.4,.1,.6,.1,0,0,0-.2,.1-.5,0,.2,.3,.3,.6,.3l.5-.2Zm-62.5,103v-.3c-2.3,2.3-4.7,4.5-7.1,6.7-.8,0-1.1,0-.9-.1,0-.4-.3-.6-.6-.5-.7,1-1.4,2-2.2,2.8,.7-.5,1.4-1.1,2.2-1.7,0,.3-.3,.6-.6,.8,.3-.3,.7-.4,1.3-.3,0,.3,.1,.3,.5,0,0,0,0-.1-.1-.1,.3,0,.6,0,.9-.3,2.3-2.2,4.5-4.4,6.8-6.8h0Zm-.8-13.3c-1.8,1.8-3.5,3.5-5.1,5.3,1.8-1.6,3.5-3.4,5.1-5.3Zm3.9-5.7c.8-.6,1.5-1.5,2.2-2.6-.3,.4-.6,.8-.9,1.3h0c-.2,.2-.4,.4-.6,.5,0,.5-.3,.8-.6,.9h0Zm.9,13l3.3-3.9h-.3c-1,1.4-2,2.6-2.9,3.9Zm17.8-18.6c0,0-.2-.2-.3-.3-1.4,2-2.9,3.9-4.3,5.7,0,0,0-.2,0-.5-.5,.5-.9,1-1.1,1.5-.5,.4-1,.8-1.4,1.1,0,.2,0,.3,.1,.3-.3,.5-.6,.8-.9,.8,0,.2,0,.3,.1,.3,0,0,.2-.2,.5-.3-.2,.6-.5,1-.9,1.3,0,0,0-.2,0-.5-.5,.3-.9,.6-1.1,.9,0-.2,.3-.3,.6-.3-.3,.5-.6,.7-.9,.6h.3c0,0,0,.1,.1,.1,0,0,0-.1,.1-.1-.3,.7-.7,1.3-1.3,1.7v-.3c-.2,0-.4,.1-.6,.1,0,.2,0,.4,.1,.5,0,0,.1-.3,.5-.5h0c-.9,1.4-1.9,2.5-2.9,3.5-.5,1-1,1.6-1.4,1.7-.4,0-.5,0-.3,0,0,0,0,.2,.1,.3-.2,.2-.4,.4-.5,.5,0,0-.1-.2-.1-.5-.2,.2-.4,.4-.5,.5h.3c0,0,0,.1,.3,.1-.6,.3-1.1,.7-1.4,1.3h0c-.3,.4-.6,.9-.9,1.4,6.3-6.5,12.1-13.5,17.5-21.1h0Zm6.1-10.1v-.3c-4.5,5.4-9,10.6-13.3,15.8-1.6,1.6-3,3.5-4.2,5.6,6-6.8,11.9-13.9,17.5-21.1h0Zm7.3,49.9v-.3c-1.3,1.6-2.4,3.3-3.5,4.9-.2,.3-.3,.5-.1,.6-.2,.3-.4,.6-.5,.8,0,0-.1,0-.1-.1v.8c.2,.6,.6,1.1,1.3,1.4,1.3,1.4,2.8,1.8,4.8,1.3,6.4-.7,12.6-2.6,18.4-5.7-.3,0-.6,0-.8-.1,0,0,0,.1,.1,.1h-.1c-.2,.1-.4,0-.5-.3h.1c-.4-.2-.8-.3-1.1-.1-.7-.2-1.4-.4-1.9-.5-1.4,0-2.8-.2-4-.6-1.4,.2-2.8,0-4.2-.5-2-.3-3.8-.7-5.6-1.1-.8-.4-1.6-.6-2.3-.5h0Zm22-90.4c-.6-.2-1.1,0-1.4,.6-1,2.1-2.3,4-3.7,5.9-.3,.7-.6,1.3-.8,1.7-5.1,6.5-10.1,13-15,19.6,0,.2,0,.3,.1,.3-.6,1.1-1.2,2.3-1.7,3.5,0,0-.2,0-.3-.1,.3-.8,.7-1.6,1.3-2.3-.5,0-.8,.3-.8,.6-.5,1.4-1.1,2.8-1.9,4,.4-.6,.8-1.3,1.3-2,0,0,.2,0,.3,.1,0,.2-.2,.4-.3,.5,.4-.4,.8-.9,1.1-1.5,4.4-5.7,8.8-11.5,13.2-17.4,.3-.5,.6-1.1,.8-1.9-.4,.6-.9,1.2-1.4,1.7h0c.7-1.1,1.4-2.1,2-3.2,1.8-2.6,3.5-5.1,5.4-7.6,0,0-.1,0-.1-.1,.5-.3,.9-.8,1.1-1.4,0,0-.1,0-.1-.1,0,0,0,0,.1,0s.4,0,.5,.1c-1.1,1.8-2.2,3.4-3.3,4.9,0-.2,.3-.4,.6-.6,.9-1.4,1.9-2.7,2.8-4,0-.3,0-.5,.1-.5,0,0,0-.4,.1-.8h.1Zm-9.8,88.8c-2.3-.3-4.4-.6-6.5-.9,2.6,.6,5.2,1.2,7.9,1.7-.2,.2-.4,.4-.5,.5-.2,0-.4,0-.5-.3,0,0-.2,0-.3,.3-.2-.2-.5-.4-.8-.6h-1.1c.5,0,1,.2,1.5,.6,0,0-.1,.2-.1,.3-.4,0-.7,0-.8-.3,0,.2-.2,.3-.3,.1-.4,0-.8-.2-1.3-.3-1.5-.3-3-.6-4.5-.8-1.3-.2-2.4-.5-3.5-.9h0c-.2,0-.3,.1-.3,.3,3.8,.8,7.7,1.6,11.5,2.5,0,.3,0,.4,0,.1,.6,.4,1.3,.7,2,.8h.8c.6,.2,1.3,.4,2,.6,.8,.3,1.6,.6,2.5,.8,.9,.4,1.8,.1,2.6-.8,0,0,.1-.2,.5-.3-.2,0-.3,0-.3-.1,0,0,0,0,0-.1,0,0,.2,0,.3,.1,.2,0,.4,0,.6,0-3-1-5.9-1.9-8.8-2.6-.8,0-1.7-.3-2.6-.6h0Zm-6.3-.5c-1.4-.4-2.8-.7-4-.8,1.3,.2,2.6,.5,4,.8Zm27.4-49.9c-2-.9-3.9-1.4-5.9-1.5-1.1,.7-2.3,1.3-3.5,1.7-2.3,1.1-4.5,2.3-6.7,3.5-.5,.2-.9,.5-1.1,.8-4.5,1.9-8.2,4.7-11,8.5,0,.5,.2,.9,.3,1.3,0,1,0,2-.3,2.9,.2,4.2,.4,8.3,.6,12.4,.2-.2,.5-.6,.8-1.3,.6-.8,1.3-1.8,2-2.8,0-.2,0-.4,.1-.6v-.3c.7-.5,1.4-1.3,1.9-2.3,.5-.8,1-1.6,1.5-2.5,.5-.6,.9-1.4,1.3-2.3-.7,0-1.4,0-1.9,0-1-.3-1.7-1.1-2-2.5-.5-.4-.7-1-.6-1.7,.7-.2,1.4-.5,2.2-.8-.2-.5,0-.8,.6-.8,0-.4,.2-.8,.8-1.1,.4-.5,1-.9,1.9-1.3,1.4-1.1,3-2.2,4.8-3.3,.6,0,1.3-.3,1.9-.6,1.8,1,3.5,2.1,5.3,3.1,.4,.3,.8,.6,1.3,.9,.4,.3,.8,.7,1.1,1.1,0,.2-.2,.3-.3,.3-.9,2.3-2.5,3.7-4.8,4.2-.9,.8-1.9,1.4-2.9,1.5-3.8,3.3-6.7,7.2-8.7,11.6,4.2-2.2,8.2-4.5,12.1-7,0,0-.2-.2-.3-.5,0-.2,.3-.4,.6-.6,.9-.8,2-1.6,3.1-2.3,1.1-.3,1.9-1.1,2.2-2.3,0-.6,.3-1.3,.9-1.9,0,0,.2,.2,.5,.3-.2-.4-.1-.9,.1-1.4,0,.3,.1,.4,.5,.1,0-.7,0-1.5-.1-2.5,.2,0,.4,.1,.6,.1,0-.2,0-.5,.1-.9,.3-.6,.6-1.3,.8-2,.6-2.5,.8-5,.5-7.6h0Zm-26.2-15.1c1-1.4,2.1-2.9,3.1-4.5-.3,.3-.6,.6-.8,.8-.6,1.1-1.4,2.1-2.2,2.9,0,0,0,.1,.1,.1-.2,.2-.4,.4-.5,.5,0,0,0,.1,.1,.1h0Zm20.3,74.7c-.4,0-.7-.2-.9-.3-4.9,4-9.4,8.1-13.6,12.2-2,1.6-3.9,3.2-5.9,4.7,.8-.2,1.6-.6,2.5-1.1,1.3-1.3,2.6-2.5,4-3.9,.5-.4,1-.9,1.5-1.4,2.4-1.4,4.7-3.2,6.8-5.3,.9-.5,1.7-1.3,2.3-2.2-.2,0-.3,0-.1-.1,0,0,.3,0,.6-.1v-.3c.7-.2,1.4-.6,2-1.1,.2-.2,.5-.6,.8-1.1h0Zm-11.2-20.4c-1.8-.4-3.5-.5-5.3-.3,1.6,.4,3.4,.5,5.3,.3Zm26.5,1.1c-.4,0-.8-.1-1.3-.1-1.1,.2-2.3,.4-3.5,.6,0-.2,.3-.4,.9-.6-3.5,.7-7,1.4-10.4,2,3.1,1.3,6.3,2.4,9.6,3.5,2.2-1.4,4.3-2.9,6.5-4.7,0-.2,.3-.4,.5-.6-.3,0-.6,.1-.8,.1-1,.2-1.9,.4-2.6,.6-.4,0-.8,0-1.3-.1,.7-.2,1.5-.5,2.3-.8h0Zm-4.5-59c.9,.9,1.9,1.9,2.8,2.8-.5-.3-.9-.7-1.3-1.3-1.4-1-2.6-2.3-3.5-3.9,.6,.8,1.3,1.6,2,2.3h0Zm2.9,5.3c-.6,0-1.1-.5-1.4-1.1-1-.8-1.9-1.8-2.6-2.8-.3-.2-.6-.5-.8-.9,1.5,1.6,3.2,3.3,4.8,4.8h0Zm-1.5-8.4c-.9-1.1-1.9-2.3-2.8-3.5,.7,1.4,1.6,2.5,2.8,3.5Zm.1,82c-.6,0-1.1,0-1.5-.3,.7,.5,1.5,.8,2.3,.9,.2,.5,.6,.8,1.3,.8-.3,0-.5,.1-.6,.1,.2,0,.4,.2,.6,.3-.6,.3-1.2,.3-1.7-.1,0,0,0,.1,.1,.1-.2,0-.4,0-.5,0h0c1.4,.5,2.8,.9,4,1.5-.3,0-.5,0-.6-.3h0c-.4-.1-.7-.3-.9-.7-.2,.2-.4,.1-.6-.1,.3-.2,.6-.4,.9-.5,.2,0,.4,.2,.6,.3-.2,0-.4-.2-.5-.3h0c.3-.1,.6,0,.8,.2h-.1c.4,.5,.9,.6,1.5,.6-.4-.6-1-1-1.7-1.3-.5-.3-1-.5-1.4-.5-.6-.4-1.3-.7-2-.8h0Zm2.9-3.1c-1.3-.2-2.4-.6-3.4-1.1,2.8,1.1,5.6,2.2,8.5,3.3,0,0-.1,0-.1-.3-1.1-.3-2.2-.7-3.3-1.1-.6,0-1.2-.4-1.7-.8Zm-2-71.8c0,.4,.4,.6,.8,.6,.5,.5,1,1,1.5,1.5-.3,0-.5,0-.6-.3-.4-.4-.9-.8-1.4-1.3,0-.2,0-.3-.3-.1-.4-.4-.7-.9-.9-1.4,.2,.3,.5,.6,.9,.9h0Zm7.6,54.9c-.5,.5-1.1,.8-1.7,.8v-.6c0,.3-.3,.4-.5,.3-.3,.4-.6,.7-.9,.9-.4,.3-.8,.7-1.1,1.1-1.5,1.1-3,2.3-4.3,3.5h0c.7,0,1.5-.5,2.5-1.1,.4-.4,.8-.7,1.1-1,.3-.3,.6-.4,.8-.4,1.6-.7,3-1.9,4.2-3.5Zm-1.1-47.6c-.7-.5-1.4-1.1-1.9-1.7-1-.7-2-1.6-2.8-2.6-.3-.2-.6-.5-.8-.9-.3,0-.5-.1-.6-.5h.1c2.1,1.7,4,3.7,5.9,5.7h0Zm-.3,64.8c-1.3-.6-2.4-1.1-3.5-1.4,0,0,.3,0,.5,.1,.9,.4,2,.8,3.1,1.3Zm2,8.1c-.6-.2-1.2-.5-1.7-.8,.4,.5,1,.8,1.7,.8,.3,.4,.7,.6,1.3,.6,.2,.2,.5,.3,.8,.3-.3,0-.6-.3-.8-.5-.4,0-.8-.1-1.3-.5Zm2.5-69.9c.4,.8,1.1,1.4,2,1.9,0,.4,.4,.8,.8,1.1h.3c0,.2,.1,.3,.5,.3h-.1c.3,.3,.6,.6,.9,.8h-.3c-1.8-1.4-3.4-2.8-4.8-4.5,.2,.4,.5,.6,.8,.5h0Zm3.3,72.5c-1.3-.5-2.4-1-3.5-1.5,2.5,1.5,5.2,2.7,8.1,3.4-.5,0-.9-.3-1.3-.5-.6-.2-1.1-.5-1.5-.9-.3,.2-.5,.1-.6-.1-.4,0-.8,0-1.1-.3h0Z" style="fill: #facd00;"/>
              <path d="M413.6,64.7c3.1,1.9,6.3,3.8,9.4,5.9,.7,.7,1.5,1.4,2.3,1.9,1.5,.8,2.4,1.9,2.5,3.3,1.3,1.3,2.3,2.5,3.3,3.7-.4,.8-.5,1.5-.1,2.1,0,.2,0,.4,.1,.6-.3,.2-.5,.2-.6,0-.9,0-1.8,.3-2.5,.6-.8,.5-1.4,1.1-1.7,1.7h-.3c0,.1-.1,.1-.1,.1-.4,.5-.8,.9-1.1,1.1l-.3,.3c0,0,0,.1,.1,.1-.6,0-1,.4-1.3,.9-.4,.4-.8,.7-1.1,.9,0,.2,.2,.4,.3,.5-.3,0-.5,.3-.6,.5,0,0-.2,0-.3-.1-2.1,2.4-4.2,4.8-6.2,7.1,4.9,1.6,9,4.5,12.1,8.5,.3,1.5,0,2.8-1.3,3.9,0,.2-.2,.4-.3,.5-.8,.6-1.6,1.2-2.3,1.7-.9,.3-1.8,.5-2.6,.6,0,0-.2,.1-.3,.1,.2,.3,.3,.6,.3,.8-1.3,.5-2.4,.8-3.4,.9h0c-.8,.5-1.6,.7-2.5,.7-.3,.3-.6,.5-.9,.5-1.4,.4-2.6,.8-3.9,1.1-1.9,.7-3.7,1.1-5.4,1.3,0,0-.2,.2-.3,.3,0,0,.3,0,.6,0,2,1.4,4,2.7,6,4,.7,.6,1.5,1.2,2.5,1.7,2.1,.9,3.4,2.4,3.9,4.5-.2,.5-.5,1-.9,1.4-1.9,1.9-3.9,3.2-6.2,3.9-.9,.5-1.8,1-2.6,1.4-.6,0-1.1,.1-1.5,.5-2.9,2.8-5.5,5.8-7.9,9,1.4-.3,2.8-.7,4.2-1.1,6.3-1.1,11.9-3.7,16.9-7.7-.5-1.3-.2-2.1,.9-2.5,.5,.2,1,0,1.4-.5,.7,.4,1.1,.3,1.3-.5,.3,.2,.5,0,.5-.3v-.3c5.9,0,11.2,1.9,16,5.4,3.8,2.7,6.9,6,9.3,9.9,.9,1.9,1,3.7,.3,5.6-.3,.5-.6,1-.8,1.4,0-.2,0-.4-.1-.6-1,.4-1.9,.4-2.6-.1-.2,0-.4-.2-.5-.5-.7,.2-1.3,0-1.5-.6-.6,0-1.3,.1-1.9,.1-1.9-.8-3.6-1.6-5.3-2.5-.5-.3-1-.7-1.4-1.3-1.4,0-2.8,0-4.2,0-3.3,.8-6.5,1.7-9.8,2.6-.5,.4-1.1,.6-1.7,.5,.4,0,.8-.3,1.3-.6,0,0-.1-.2-.1-.3,.5-.4,1.1-.8,1.9-1.3,0,0-.1-.2-.1-.3,2.8-1.8,5.2-4,7.3-6.7-.9-1.5-2.1-2.8-3.7-3.9-1.1-.7-2.3-1.5-3.4-2.3-.3,0-.5,0-.6-.1-1.4,.3-2.6,1.1-3.4,2.3-.4,.6-.8,1.2-1.3,1.7-1,.7-1.9,1.5-2.6,2.5-1,.8-1.7,1.8-2,2.9-.2,.5-.4,1-.6,1.5-.2,0-.3,0-.3-.1v.9c-.8,1.5-1.7,2.9-2.6,4-.6,.6-1.3,1-2,1.3-.3,0-.5,.3-.5,.5-.9,.6-1.8,1.2-2.5,1.7,0,1,0,2,.1,2.9,0,.4,0,.7-.1,.9,.5,.7,1.3,1.2,2.1,1.4,1.1-.2,2.3-.5,3.5-.8,2.8,.6,5.4,2,7.7,4,2,1.4,3.6,3.1,4.9,5.3-.2,.4-.5,.6-.8,.6-.2,.8-.6,1.4-1.1,1.7-.9,1-1.9,1.9-2.9,2.5-1.9,1.3-3.8,2.3-5.7,3.1-1.1,.3-2.1,.6-2.9,.8-.7,.3-1.5,.5-2.3,.5-1.3,.6-2.5,1.2-3.7,1.7-.2,1.3-.3,2.5-.3,3.9,3.5,.6,7,1.1,10.7,1.4,1.4,0,2.9,.2,4.5,.3h0c.4,0,.8,0,1.1,.1,0,0,.2,0,.5,0,0,.3-.3,.4-.5,.3-.4-.3-.9-.4-1.4-.1-.2,.2-.4,.2-.5,0-2.4,0-4.7,0-6.8-.1-1.1,0-2.2,.1-3.3,.1-.8,0-1.6,.2-2.5,.3,.5,.2,1.1,.3,1.7,.3,3.9,0,7.8,.1,11.6,.5,.6,0,1.3,0,1.9,.3,3.2,.2,6.4,.4,9.6,.5,0,0,0-.2,.1-.3-.6,0-1.3-.2-2-.3,0,0-.1,0-.1-.1-.5,.2-1,.1-1.4-.1-.3,0-.5,0-.6,.1-.5-.3-1.2-.5-2-.5l-.3-.3c-.8,.3-1.6,.3-2.3,0-.4,0-.8,0-1.1-.1,0,0,0-.2,.3-.3,1.5,.3,3.1,.4,4.8,.3,0,0,0,.1,.1,.1,2,.2,3.9,.5,5.9,.8,0,0,0-.2,.3-.3,0,0-.2-.2-.3-.3,.6,0,1.3,0,1.9,.1,0,0,0-.3-.1-.5,.4,0,.6-.2,.5-.6v-.3c.3,.2,.6,.2,.7,0,1.8,.5,3.4,1,4.9,1.5,2.1,.9,4.1,1.6,6.2,2,2.3,1.5,4.4,3.3,6.3,5.3,2,1.1,3.1,2.8,3.4,5.1,.4,.4,.5,.9,.1,1.4-.3,.7-.7,1.4-1.3,1.9,0,.3-.3,.5-.5,.6-.7,.3-1.4,.5-2,.6,0,0-.2,0-.3-.1-.3,0-.6,.1-.9,.1-.8,1.1-1.9,1.6-3.3,1.4-.5-.3-.9-.6-1.3-.8-.6,0-1.1-.3-1.5-.5-.4,0-.8,0-1.1-.1,0,0,.2-.3,.3-.5-.4-.4-.9-.7-1.4-.8-.8-.2-1.5-.5-2.1-.9-1.5-.2-3-.4-4.5-.6-3.8-.8-7.6-1.7-11.3-2.6-4.2,0-8.4-.5-12.6-1.3-1.3,0-2.4,0-3.5-.5-2.4-.2-4.8-.4-7.3-.5-1.5,0-3.1,0-4.7,.3-4,.9-7.9,1.3-11.8,1.1-3.3,1.3-6.5,1.9-9.8,1.9-.8,0-1.5,.1-2,.1-.8,0-1.5,.1-2.1,.1-1,0-1.9,.5-2.6,1.3-.3-.3-.6-.3-.9,0-2.1,.7-4.1,1.5-6,2.3-1.5,.5-2.9,.9-4.2,1.3-.3,.2-.5,.4-.6,.5-.9-.2-1.8,0-2.5,.5-.6-.6-1.3-.6-1.9,0-.7,.3-1.4,.7-2,1.1-.4-.3-.7-.4-.8-.3v.3c-.8-1.3-1.6-2.4-2.5-3.5-.7-.4-1.1-1.1-1.1-2-.6-.6-1.1-1.4-1.4-2.3h.3c-.2-.2-.3-.4-.1-.6,.4,0,.9-.3,1.4-.5,0-.2,0-.4,.3-.6,.2,0,.5-.2,.8-.3-.3-.3-.2-.5,.3-.6-.3,0-.4-.1-.3-.5,.7,.2,1.5,0,2.3-.5,3.5-.7,7-1.6,10.7-2.6,2.3-.9,4.6-1.6,7-2.1,.4-.3,.9-.5,1.5-.5,3-.2,5.9-.6,8.8-1.1,1.9,0,3.6-.5,5.4-1.3,1-1.3,1.8-2.8,2.1-4.5-1,.3-2,.5-2.8,.5-2.5,.4-4.7,0-6.7-1.1-2,0-3.8,0-5.4-.5-1-.3-2.1-.7-3.1-1.3-.9-1.3-1.6-2.6-2-4.2,.4,0,.8-.4,1.1-.8,2.1-1.3,4.1-2.6,6-4,3.8-3,7.8-5.9,11.9-8.7-.3,.7-.7,1.3-1.1,1.7-.9,1.4-1.9,2.5-2.9,3.4-1.8,1.4-3.1,2.8-4,4.3,0,.5,.4,.8,.8,.9,.6,0,1.4-.4,2.1-.8,2.1-1.4,4.2-2.6,6.5-3.9,0,0,0-.3,.3-.5,.3-1.6,0-3.1-.8-4.5,0-.5-.2-1.1-.3-1.7-3.7,.4-7.4,.2-11-.6-2.1-2.3-3.6-4.9-4.7-7.9-.3-1,0-1.8,.9-2.3,.2-.7,.6-1.3,1.3-1.7,2.1-2.3,4.4-4.5,6.7-6.8,0-.3,.3-.7,.6-1.1-1.9,.8-3.7,1-5.6,.6-1.4-.4-2.4-1.1-3.3-2-.8-.7-1.3-1.6-1.4-2.6,0,0,.2,0,.3-.1,0,0-.1-.2-.1-.5,0,0,.3,0,.6-.1v-.5c.8,0,1.6-.1,2.3-.8,0-.5,.1-.9,.8-1.3,.8-.4,1.6-.7,2.5-.9,5.6-2.6,11.1-5.4,16.6-8.5,.9-1.5,2-3,3.3-4.3,.4,0,.7,0,.8-.5-.9,0-1.8,.1-2.5,.5-.5,0-1.1,0-1.7,0h.1c-.4,0-.8,0-1.1,0-.3,.2-.6,.3-.8,.1h.3c-.6-.1-1.3,0-1.9,.2,0,0,.2,0,.5-.1-.6,0-1.1,0-1.5,.1-.9,0-1.7,0-2.3-.1-2.1,.2-4.2,.3-6.2,.1-.3,.2-.5,.4-.6,.5-.4,0-.7-.4-.8-.8h-3.1c-.4-.7-1-1.3-1.7-1.7-.8-1-1.4-2.4-1.5-4-.2-.5-.4-1.2-.5-2-.8,.2-1.5,.5-2,.9-1.3,2.3-2.4,4.5-3.5,6.8,0,.2,0,.4,.1,.5-.6,.4-1,1-1.1,1.7-.5,.6-.8,1.3-.9,1.9,0,0-.1,.2-.1,.2s0,0,.1,0c-.4,.2-.6,.4-.5,.6,.3,.5,.2,.9-.1,1.3-.5,.2-.8,.5-.9,.9,.3,0,.5,.3,.5,.5-.3,.2-.4,.4-.3,.6-.5,.9-.9,1.8-1.3,2.6-.4,.4-.8,.7-1.1,.9,0,0,.2,0,.3,.1-.3,0-.5,0-.5,.3,.4,0,.5,.3,.1,.5,0,0-.1-.2-.1-.3,0,.2,0,.4,0,.5,0,0,0,.1,.1,.1-.3,1.3-.8,2.3-1.4,3.3-.6,1.3-1,2.4-1.3,3.5-.7,1.8-1.7,3.5-2.9,5.1,.2,.2,.3,.4,.1,.6-.2,.3-.3,.7-.3,1.1-.3,0-.5,.1-.5,.5,0,.5-.2,1-.3,1.4-.5,.5-.7,1-.6,1.5h-.1c-.6,1.3-1.1,2.4-1.4,3.5-.5,.8-.7,1.6-.6,2.3-.5,.4-.8,.9-.8,1.4-.6,.2-.8,.5-.5,.9h0c0,.1-.1,0-.1,0-.4,.5-.5,1-.1,1.4-.3,.2-.5,.4-.6,.5,0,.3,.1,.6,.1,.9-.2,.3-.4,.6-.6,.9-.2,0-.3-.2-.3-.3,0,.3-.1,.6-.1,.8-.2,0-.3,0-.3,.3,0,.3,.1,.6,.1,.8-.2,0-.4,0-.5,0,0,0,.1,.3,.1,.5-.2,0-.4,.2-.6,.3-.4,1-.9,2-1.4,2.8-.4,.4-.7,.9-.8,1.4,0,0,.2,.1,.3,.1-.8,.6-1.4,1.4-1.5,2.1-.4,.6-.7,1.3-.9,2,0,.4-.3,.7-.6,.8,0,.5,0,1-.1,1.5-.4,0-.6,.3-.6,.6h0c0,.1-.1,0-.1,0l-.3,.3c0,.3,.4,.4,.8,.3-.6,0-1,.4-1.3,.8,.2,0,.5,0,.8,0-.7,.6-1.3,1.3-1.7,2-.2,.5-.5,1-.8,1.5-.4,.5-.8,1.1-1.1,1.9-.4,.8-.8,1.5-1.3,2.1h.1c-.5,.5-.8,1.1-.8,1.7-.6,.8-1.2,1.4-1.7,1.9,0,0-.1,.2,0,.2,0,0,.1,0,.2,0-.3,.2-.6,.4-.8,.6h.5c-.2,.2-.4,.4-.5,.5-.4-.4-.7-.4-.8,0,.4,.3,.5,.6,.1,.9-.3,0-.5,.1-.6,.5,0,0,0-.2,.3-.3,0-.2-.2-.4-.3-.6-.5,.9-1,1.7-1.4,2.3,.4-.4,.9-.7,1.4-.9h0c-.4,.7-.9,1.4-1.4,2,0,.2-.2,.5-.3,.8-.9,.8-1.3,1.9-1.1,3.3,.9,.9,1.3,1.9,1.1,2.8v-.3c-.6,.7-1.4,1.3-2.1,1.5-.5-.2-1-.3-1.4-.1-1.1,1.3-2.5,1.6-4,1.3-2-1.1-3.4-2.8-4.3-4.8,0,0,0-.1-.1-.1-.2,.5-.5,.9-.8,1.1v-2.8c1.1-1.3,2.3-2.6,3.4-4.2,0-.4,.4-.8,.8-1.1,.9-1.8,2-3.5,3.1-5.4,.5-1,1.1-2.1,1.9-3.3,.5-1.3,1.1-2.5,1.9-3.9,1.9-3.6,3.8-7.3,5.7-11.2,.4-.4,.7-1,.9-1.9h0c.3-.3,.5-.7,.6-1.2,0-.5,.4-1.1,.8-1.7,0-.2,.2-.5,.3-.9,.3-.4,.6-.9,.8-1.4h0c.2-.5,.4-.8,.6-1.2,.4-1,.9-2,1.5-2.8,.6-1.5,1.3-3.1,2-4.7,0-.4,0-.8,.3-1.3,0-.4,.3-.9,.6-1.4,.2,0,.4-.4,.6-.8,.4-1.1,.8-2.3,1.3-3.4,0-.4,.4-.8,.8-1.1,0-.5,0-.9,.5-1.3,.3-1,.8-2.1,1.4-3.1,1.3-2,2.4-4.2,3.5-6.7,.2-.7,.6-1.5,1.1-2.3,.2-.8,.5-1.5,.9-2.1,.2,0,.4-.4,.5-.9,.6-1.9,1.5-3.6,2.6-5.3v-.6c0,0,.2,0,.3,0v-.3c.2-.4,.4-.8,.6-1.3,.4-.9,.8-1.8,1.3-2.6,.3-.3,.5-.7,.5-1.1,.3-.3,.5-.7,.6-1.3,0,0,.2-.3,.3-.5,0,0-.1,0-.1-.1,.3,0,.5-.1,.5-.5,.3-.5,.5-1.1,.6-1.9,.5-.8,1-1.8,1.4-2.8,1.9-3.6,3.8-7.2,5.9-10.7,0,.3,.2,.6,.3,.9,.4-.5,.7-1.1,.9-1.7,0,0,.2,0,.3,.1,.3-.4,.7-.8,1.1-1.3,.3-.7,.8-1.3,1.4-1.7,0,.5,.4,.7,.9,.6,0-.2,.2-.5,.5-.8,1.5,1.1,2.3,2.6,2.1,4.5,0,3-.9,5.8-2.3,8.4,.9,0,1.7-.5,2.3-1.3,3.8-2,7.2-4.7,10.1-8.2,2.3-2.4,4.4-4.9,6.5-7.4-1.9,0-3.6-.2-5.3-.8-.7,0-1.4,0-2-.3-3.9-1.1-7.5-2.9-10.8-5.3-.6-.7-1.1-1.5-1.4-2.3h.1c0-.5,.2-.7,.5-1.1,.9,0,1.7-.3,2.3-1.3v-.3c5.4-2.5,10.7-4.9,16.1-7.4,2.7-.9,5.5-1.9,8.4-2.8,0,0,.4,.1,1.1,0,.7,0,1.8-.4,3.3-1,1,0,2.1-.2,3.1-.6,.3,0,.7,0,1.1-.3-.2,0-.4-.2-.5-.5,.5,.2,.9,.1,1.3-.1,0,0-.1,0-.1-.1,.3,0,.7,0,1.3,.1,.3-.2,.6-.5,.8-.9,.7-.4,1.5-.7,2.3-.8,.4-.2,.9-.2,1.4,0,.4,.5,1,.9,1.9,1.1v.4Zm-80.6,101.3c3.4-7,6.5-14.2,9.4-21.5-1.3,2.6-2.4,5.2-3.5,7.7-.5,1.8-1.2,3.3-2,4.7-1.8,3.6-3.5,7.2-5.1,10.7-3.3,6.1-6.6,12.2-9.9,18.2-.2,.6-.5,1.1-.9,1.5-.5,1-1,2.1-1.5,3.1,.4-.6,.8-1.3,1.3-1.9h0c.2-.5,.5-.8,.8-1.2-.2,.6-.4,1.1-.6,1.4,0,0,.2-.3,.5-.5,.8-1.1,1.6-2.4,2.3-3.7-.3,.3-.6,.6-.8,.8,0-.4,.2-.8,.6-1.1,.2,0,.3,0,.3,.1h0c-.2-.1-.3-.3-.1-.6,.5-.9,1.2-2,2-3.3,0,.2,.2,.3,.3,.1-.3-.2-.4-.4-.1-.6,0-.2,.2-.2,.5,0-.3,0-.4,.2-.3,.3,.5-.4,.9-1,1.1-1.9,0,0,0-.1,.1-.1-.2,0-.4,0-.5,.1,0-.5,.2-1.1,.8-1.9h0c.3-1.4,1-2.5,2.1-3.5-.2,.2-.4,.4-.5,.6-.2-.3,0-.6,.3-.8,.5-1,1-2.1,1.4-3.3,.3-.3,.7-.8,1.1-1.4,0,0-.1,0-.1-.1,.4,0,.7,0,.8-.6-.2,.2-.4,.4-.5,.5,0,0-.1,0-.1-.1,.4-.6,.8-1.3,1.1-1.9h-.1Zm-5.3,18.6h-.3c0,.1,0-.2,0-.2-.5,.7-.9,1.4-1.1,2,0,0,0-.3,.3-.5,0,.3,0,.6-.3,.8,0,0-.2-.1-.3-.1-.2,.4-.4,.7-.6,.9,0,.3,.2,.4,.5,.1,.6-.8,1.3-1.9,1.9-3.1h0Zm11.8-14.9c.2,0,.2-.2,.1-.3-.4,.4-.6,.9-.5,1.5h-.1c0,0,0-.2,.1-.5-.2,.6-.6,1.2-1.1,1.7,0,.4,0,.7,.1,.9-.3,.3-.5,.6-.6,.9,.3-.3,.5-.7,.5-1.1-.4,.4-.7,.8-.9,1.3,.2,0,.3,0,.3,.1-.3,0-.5,0-.6,.1-.2,.6-.4,1.2-.5,1.7-.4,.2-.5,.4-.1,.5,.3-.2,.5-.7,.6-1.4,0,.6-.3,1.1-.5,1.4,0,.2-.2,.4-.3,.5,0,0-.1,0-.1-.1-.2,0-.3,.3-.3,.5h.3c-.2,.3-.4,.6-.5,.9,0,0-.1-.2-.1-.3-.2,.3-.3,.6-.1,.9-.4,.3-.6,.7-.6,1.1-.2,0-.4,.2-.5,.3h.3c-.4,.5-.8,1-1.1,1.4,0,.2,0,.4,0,.5,0,0,0-.1-.1-.1,0,0-.1,.2-.1,.3,0,0-.1,.2-.1,.3s0,.1,.1,.1c0,.4-.2,.6-.3,.5-1.5,2.4-3.1,4.7-4.7,7-.2,.3-.4,.5-.6,.5s-.3,0-.3,.3c0,.2-.2,.4-.3,.5,.3-1.3,.9-2.4,1.9-3.4,.2-.4,.5-.8,.8-1.3,.6-.7,1.3-1.5,1.9-2.5,.3-.3,.6-.8,.9-1.4,.3-.2,.5-.5,.5-.9-.2,.2-.4,.4-.5,.6,.6-.9,1.2-2,1.7-3.1,.4-.5,.8-1.1,1.1-1.9,.8-1.4,1.6-3,2.3-4.7,.8-1.4,1.5-2.7,2.1-4,0,.2,.2,.4,.3,.5,0,0,.2-.3,.3-.6,0,.4-.3,.7-.6,.8h-.1Zm-5.9,4.5c2.7-5.4,5.3-10.7,7.7-16.1-.9,2-1.8,3.9-2.6,5.7-1,1.4-1.8,2.8-2.1,4.2-.3,.2-.6,.5-.8,.8-1.5,3.1-3,6.2-4.5,9.3-.2,.2-.3,.4-.1,.5-.2,.2-.4,.4-.5,.5-.4,.5-.6,1-.6,1.4,0,0-.2,0-.3,0-.2,.2-.1,.3,.1,.3-.5,.7-1,1.4-1.5,1.9,0,.2,0,.4,.1,.6h.3c-.5,.3-1,.7-1.4,1.1,0,0,0,.1,.3,.1,.9-.5,1.4-1.3,1.4-2.3,0,0,.2-.1,.3-.1v-.3c0-.2,.1-.3,.5-.3,.6-.8,1.2-1.8,1.7-2.9,0,0-.1,0-.1,0,.9-1.4,1.6-2.8,2.1-4.2h0Zm10.8-14.4c.3-.3,.4-.7,.3-1.3-.5,1.1-1.1,2.3-1.9,3.4-.7,2.1-1.8,4.1-3.1,5.9,0,.3,0,.6-.1,.9,.2,0,.5-.1,.8-.1h0c-.2-.1-.3,0-.3,0-.2-.4,0-.7,.6-.9,0-.2,0-.5,.3-.8,0,0,0,.1,.1,.1,0-.3,.3-.7,.5-1.1,0,0-.2,.2-.3,.3h-.1c.3-.7,.8-1.4,1.4-2.1,.2-.4,.5-.9,.9-1.5,0,0-.2,0-.2,0,0,0,0,0,0,0,0-.3,.1-.5,.5-.5h-.3c0,0,.2-.3,.3-.5,0,0-.1,0-.1-.1,.4-.4,.7-.9,.8-1.5h0Zm12.8-29.4h-.1c-1,2.4-2.1,4.7-3.4,6.8-.5,1.8-1.2,3.5-2,5.1-.3,.4-.5,.8-.6,1.1-.2,.3-.3,.7-.3,1.1-.4,.5-.6,1-.6,1.4-1,2.1-2,4.3-2.8,6.3-.5,.5-.8,1-.8,1.5,0,.2-.2,.3-.3,.1v.3c0,0,0,.1,.1,.1-.2,.4-.3,.8-.3,1.3h.1c3.4-8.4,7-16.9,11-25.2h0Zm8.8,66.8c-.5,.2-.7,0-.6-.3-1.8,.6-3.5,1.3-5.4,1.9h.3c.6,0,1.3,0,1.9-.5,0-.2,.1-.3,.5-.1,.3,0,.7-.3,1.1-.5,.7,0,1.5-.1,2.3-.5h0Zm32.8-7h-2l-.3,.3c-2,.2-3.9,.6-5.7,1.1,2.4-.2,4.9-.5,7.4-.9,0,0,.2,.1,.3,.1,.2,0,.5-.1,.9-.1h0c0,.1,0,0,0,0,.3,0,.6-.1,.9-.1-.3,0-.6-.1-.9-.1h0c0-.1-.3-.1-.3-.1h0c0,.2-.1,.2-.1,.1-.2,0-.3,0-.1-.1h0Zm.9,.7h-.6c-.3,0-.6,0-.8,.1-.5,0-.9,0-1.3,.3,0,0-.1,0-.1-.1-.2,0-.3,0-.3,.1h.9c.6,0,1.4-.1,2.1-.5h0Zm13.8-5.3c-2.4,0-4.8,0-7.1,0,4.2,.4,8.4,.6,12.7,.5-.2,0-.3,0-.1-.3-.4,.3-.8,.3-1.3,0-.4,0-.8,0-1.3,.1-.5,0-.9,0-1.3-.3-.6,0-1.2,0-1.7,0h0Z" style="fill: #facd00;"/>
            </g>
          </g>
        </g>
      </g>
    </g>
  </g>
</svg>