<?xml version="1.0" encoding="UTF-8"?>
<svg id="Layer_2" data-name="Layer 2" xmlns="http://www.w3.org/2000/svg" viewBox="0 0 56 56">
  <g id="BUTTON">
    <g>
      <polygon points="36.292999999999665 18.292999999999665 28 26.585900000000038 19.707000000000335 18.292999999999665 18.292999999999665 19.707000000000335 26.585893442308588 28 18.292999999999665 36.292999999999665 19.707000000000335 37.707000000000335 28 29.414099999999962 36.292999999999665 37.707000000000335 37.707000000000335 36.292999999999665 29.414093370862247 28 37.707000000000335 19.707000000000335 36.292999999999665 18.292999999999665" style="fill: #fff;"/>
      <path d="M28,0C12.560493796619994,0,0,12.560499999999593,0,28s12.560493796619994,28,28,28c15.439493016550841,0,28-12.560499999999593,28-28S43.439493016550841,0,28,0Zm0,54c-14.336406231246656,0-26-11.663099999999758-26-26S13.663593768753344,2,28,2c14.336393044417491,0,26,11.663099999999758,26,26s-11.663606955582509,26-26,26Z" style="fill: #fff;"/>
    </g>
  </g>
</svg>