<?xml version="1.0" encoding="UTF-8"?>
<svg id="Layer_2" data-name="Layer 2" xmlns="http://www.w3.org/2000/svg" viewBox="0 0 226.975183116745029 45.218700000001263">
  <g id="BUTTON">
    <g>
      <g>
        <path d="M22.608972179245029,40.218531250000524c-9.70947265625,0-17.60888671875-7.8994140625-17.60888671875-17.609375S12.899499522995029,4.999781250000524,22.608972179245029,4.999781250000524c9.7099609375,0,17.609375,7.8994140625,17.609375,17.609375s-7.8994140625,17.609375-17.609375,17.609375Zm-6.84716796875-4.47265625h13.69482421875v-9.484375h-1.203125V15.543726562500524h-.6005859375v-6.0703125h-10.03173828125v6.0703125h-1.859375v9.4833984375h1.203125v1.234375h-1.203125v9.484375Z"/>
        <path d="M15.121102916549717,9.489405273438024v3.5540771484375h-1.859085083007812v21.4290771484375c-3.507232666015625-2.76934814453125-5.76202392578125-7.05792236328125-5.76202392578125-11.86328125,0-5.6087646484375,3.0714111328125-10.51324462890625,7.621109008789062-13.119873046875m15.031600952148438,.0318603515625c4.519134521484375,2.61468505859375,7.5657958984375,7.50213623046875,7.5657958984375,13.0880126953125,0,4.80535888671875-2.254745483398438,9.0938720703125-5.761993408203125,11.86322021484375v-10.71099853515625h-1.2030029296875V13.043482421875524h-.600799560546875v-3.522216796875m-7.54351806640625-7.021240234375C11.503198253463779,2.500025390625524,2.499993907760654,11.503321289063024,2.499993907760654,22.609278320313024c0,11.10614013671875,9.003204345703125,20.10943603515625,20.10919189453125,20.10943603515625,11.106109619140625,0,20.10931396484375-9.0032958984375,20.10931396484375-20.10943603515625,0-11.10595703125-9.003204345703125-20.1092529296875-20.10931396484375-20.1092529296875h0Zm-2.488082885742188,14.03936767578125v-4.56622314453125h5.031600952148438v4.56622314453125h-5.031600952148438Zm-1.859085083007812,5.98809814453125v-4.4840087890625h7.491485595703125v10.718017578125h1.2030029296875v4.4840087890625h-8.694488525390625v-4.4840087890625h1.202987670898438v-6.2340087890625h-1.202987670898438Z"/>
      </g>
      <g>
        <path d="M61.012292491745029,13.165796875000524c2.73046875,2.2646484375,5.0439453125,4.2998046875,6.9404296875,6.10546875l-4.95703125,4.859375c-3.248046875-3.2958984375-5.41796875-5.4462890625-6.509765625-6.4501953125l4.5263671875-4.5146484375Zm.646484375-10.578125c3.5634765625,2.8671875,5.9775390625,4.8583984375,7.2421875,5.9765625l-4.78515625,4.81640625c-2.701171875-2.6376953125-4.95703125-4.744140625-6.767578125-6.3212890625l4.310546875-4.4716796875Zm-.0859375,22.9619140625l6.4228515625,2.193359375c-1.6669921875,6.36328125-2.974609375,11.408203125-3.9228515625,15.1357421875l-6.5517578125-2.064453125c1.4658203125-4.701171875,2.8154296875-9.7890625,4.0517578125-15.2646484375Zm7.6728515625-21.02734375c7.759765625-.1142578125,16.4384765625-.515625,26.037109375-1.2041015625l.689453125,5.6337890625c-2.3564453125,.1435546875-5.67578125,.3291015625-9.9580078125,.55859375v4.0849609375h11.380859375v5.84765625h-11.380859375v4.1279296875h9.65625v19.0927734375h-6.767578125v-2.193359375h-12.5439453125v2.236328125h-6.7685546875V23.571070312500524h9.5703125v-4.1279296875h-10.90625v-5.84765625h10.90625v-3.7412109375c-2.0693359375,.0859375-5.1298828125,.1865234375-9.181640625,.30078125-.14453125-1.4033203125-.388671875-3.28125-.7333984375-5.6328125Zm7.11328125,24.7255859375v5.50390625h12.5439453125v-5.50390625h-12.5439453125Z"/>
        <path d="M100.110925304245029,14.197046875000524v-4.3427734375h9.009765625v-1.5048828125c-2.8173828125,.0576171875-5.302734375,.1005859375-7.4580078125,.12890625-.0576171875-.4296875-.3740234375-1.9345703125-.9482421875-4.5146484375,4.9423828125-.0576171875,11.796875-.2294921875,20.5625-.5166015625l1.0341796875,4.38671875c-3.908203125,.2001953125-6.4951171875,.3154296875-7.7587890625,.34375v1.6767578125h8.060546875v4.3427734375h-8.060546875v1.462890625h7.8447265625v14.619140625h-7.8447265625v1.462890625h7.5859375v3.955078125h-7.5859375v1.3759765625c1.6376953125-.056640625,4.1083984375-.11328125,7.4140625-.171875,1.3505859375-2.521484375,2.2841796875-5.216796875,2.8017578125-8.083984375,.517578125-2.8662109375,.8623046875-7.28125,1.03515625-13.244140625h-2.28515625v-6.01953125h2.4140625c.0283203125-2.37890625,.0576171875-4.7734375,.0859375-7.1806640625h5.7333984375c-.029296875,2.4365234375-.072265625,4.830078125-.12890625,7.1806640625h8.017578125c-.115234375,13.3017578125-.2587890625,22.173828125-.4306640625,26.6171875-.05859375,3.7841796875-1.595703125,5.7900390625-4.61328125,6.01953125-1.7236328125,.1435546875-3.5634765625,.21484375-5.517578125,.21484375-.287109375-1.7197265625-.5888671875-3.439453125-.9052734375-5.1591796875-.7470703125,1.8056640625-1.7529296875,3.8115234375-3.017578125,6.01953125-1.609375-1.69140625-2.615234375-2.7236328125-3.017578125-3.095703125-.0283203125,.3720703125-.04296875,.90234375-.04296875,1.5908203125-7.5,.0859375-14.728515625,.2724609375-21.6826171875,.55859375l-.560546875-4.9873046875c4.138671875-.0576171875,7.2275390625-.1005859375,9.2685546875-.12890625v-1.505859375h-8.2333984375v-3.955078125h8.2333984375v-1.462890625h-7.845703125V15.659937500000524h7.845703125v-1.462890625h-9.009765625Zm6.2080078125,5.203125v1.720703125h2.8017578125v-1.720703125h-2.8017578125Zm0,5.375v1.720703125h2.8017578125v-1.720703125h-2.8017578125Zm11.03515625-5.375h-2.8017578125v1.720703125h2.8017578125v-1.720703125Zm0,7.095703125v-1.720703125h-2.8017578125v1.720703125h2.8017578125Zm16.466796875-10.9228515625h-2.37109375c-.0859375,8.830078125-1.005859375,15.609375-2.7587890625,20.33984375,.7177734375,.0283203125,1.65234375,.04296875,2.8017578125,.04296875,.6611328125,0,1.1494140625-.1865234375,1.4658203125-.5595703125,.287109375-.3720703125,.458984375-.9599609375,.517578125-1.7626953125,.2294921875-5.2744140625,.3447265625-11.2939453125,.3447265625-18.060546875Z"/>
        <path d="M143.174401866745029,6.629664062500524h5.431640625c-.3740234375-1.318359375-.705078125-2.5078125-.9912109375-3.5693359375l6.5947265625-.4296875c.31640625,1.2041015625,.6181640625,2.537109375,.9052734375,3.9990234375h4.828125v5.546875h-16.7685546875V6.629664062500524Zm1.0341796875,7.1376953125h14.61328125v4.90234375h-14.61328125v-4.90234375Zm0,6.4931640625h14.61328125v4.90234375h-14.61328125v-4.90234375Zm.0869140625,22.5751953125V26.796656250000524h14.4404296875v16.0390625h-5.3447265625v-1.935546875h-3.6650390625v1.935546875h-5.4306640625Zm5.4306640625-10.62109375v3.267578125h3.6650390625v-3.267578125h-3.6650390625Zm11.7685546875-12.943359375h6.8115234375v-3.353515625h-7.759765625v-5.9345703125h4.353515625c-1.810546875-3.697265625-2.8017578125-5.71875-2.9736328125-6.0625l5.689453125-1.5908203125c1.4365234375,2.6376953125,2.572265625,4.8154296875,3.4052734375,6.53515625l-3.318359375,1.1181640625h4.439453125c1.03515625-1.833984375,2.341796875-4.3564453125,3.9228515625-7.5673828125l6.2939453125,1.7626953125c-1.0927734375,1.8056640625-2.328125,3.7412109375-3.70703125,5.8046875h4.0947265625v5.9345703125h-7.888671875v3.353515625h6.8544921875v5.8916015625h-6.8544921875v3.482421875h8.966796875v5.9345703125h-8.966796875v8.255859375h-6.5517578125v-8.255859375h-8.6220703125v-5.9345703125h8.6220703125v-3.482421875h-6.8115234375v-5.8916015625Z"/>
        <path d="M199.515222179245029,5.081812500000524h10.0439453125V2.415796875000524h6.2939453125v2.666015625h10.388671875v4.1708984375h-10.388671875v1.3759765625h9.4833984375v3.7841796875h-9.4833984375v1.3759765625h11.1220703125v4.2138671875h-28.2353515625v-2.150390625c-.5458984375-.314453125-1.0927734375-.64453125-1.6376953125-.9892578125v23.048828125c1.29296875-1.7490234375,2.1982421875-3.583984375,2.71484375-5.50390625,.4599609375-1.720703125,.6904296875-3.841796875,.6904296875-6.3642578125v-6.7080078125h24.52734375v14.7060546875c0,2.2353515625-.40234375,3.8271484375-1.20703125,4.7724609375-.8623046875,1.0029296875-2.3857421875,1.5625-4.5693359375,1.677734375-1.6669921875,.0859375-3.87890625,.12890625-6.6376953125,.12890625-.2587890625-1.2041015625-.6904296875-2.82421875-1.2939453125-4.859375,2.4716796875,.056640625,4.2099609375,.0859375,5.2158203125,.0859375s1.65234375-.2001953125,1.9404296875-.6015625c.1435546875-.2001953125,.2431640625-.5166015625,.3017578125-.9462890625h-13.0185546875c-.689453125,2.63671875-1.9833984375,5.216796875-3.8798828125,7.740234375-1.982421875-1.17578125-3.578125-2.0361328125-4.7841796875-2.580078125v1.5048828125h-6.078125V12.692164062500524c-.4609375,4.38671875-.8916015625,8.357421875-1.2939453125,11.9111328125l-3.75-.47265625c.603515625-5.0166015625,1.048828125-9.8037109375,1.3359375-14.3623046875l3.7080078125,.30078125V2.415796875000524h6.078125v7.4384765625c1.6376953125,.74609375,2.8017578125,1.3046875,3.4912109375,1.6767578125v-.90234375h8.9658203125v-1.3759765625h-10.0439453125V5.081812500000524Zm1.12109375,9.3310546875l-.4736328125,1.3759765625h9.396484375v-1.3759765625h-8.9228515625Zm5.94921875,16.51171875c-.05859375,.6875-.115234375,1.21875-.1728515625,1.5908203125h12.4150390625v-1.5908203125h-12.2421875Zm.0859375-5.375v1.5908203125h12.15625v-1.5908203125h-12.15625Z"/>
      </g>
    </g>
  </g>
</svg>