<?xml version="1.0" encoding="UTF-8"?>
<svg id="Layer_2" data-name="Layer 2" xmlns="http://www.w3.org/2000/svg" viewBox="0 0 225.532731554740167 45.218800000000556">
  <g id="BUTTON">
    <g>
      <g>
        <path d="M22.609391710990167,40.218334375000268c-9.7099609375,0-17.609375-7.8994140625-17.609375-17.609375S12.899430773490167,4.999584375000268,22.609391710990167,4.999584375000268s17.609375,7.8994140625,17.609375,17.609375-7.8994140625,17.609375-17.609375,17.609375Zm3.3837890625-6.150390625c.6162109375,.447265625,1.33740234375,.68359375,2.0859375,.68359375,1.13623046875,0,2.2158203125-.552734375,2.88818359375-1.4775390625,.67236328125-.92578125,.853515625-2.0849609375,.49755859375-3.181640625l-1.29296875-3.9775390625,3.3837890625-2.458984375c1.25-.9072265625,1.76953125-2.5048828125,1.2919921875-3.974609375-.47705078125-1.4697265625-1.8359375-2.45703125-3.38134765625-2.45703125h-4.18310546875l-1.29296875-3.978515625c-.47705078125-1.4697265625-1.8359375-2.45703125-3.38134765625-2.45703125-1.544921875,0-2.90380859375,.9873046875-3.38134765625,2.45703125l-1.2919921875,3.978515625h-4.18359375c-1.544921875,0-2.90380859375,.9873046875-3.38134765625,2.45703125-.47705078125,1.4697265625,.0419921875,3.0673828125,1.29248046875,3.9755859375l3.38330078125,2.45703125-1.2919921875,3.978515625c-.3564453125,1.0966796875-.17529296875,2.2568359375,.4970703125,3.181640625,.67236328125,.92578125,1.75244140625,1.4775390625,2.88818359375,1.4775390625,.74853515625,0,1.4697265625-.236328125,2.0849609375-.68359375l3.384765625-2.458984375,3.3837890625,2.458984375Z"/>
        <path d="M22.609300158255792,7.499950585937768c8.331283569335938,0,15.109283447265625,6.778076171875,15.109283447265625,15.1094970703125,0,3.798583984375-1.409027099609375,7.2742919921875-3.731781005859375,9.9317626953125,.2392578125-1.0528564453125,.197555541992188-2.1678466796875-.144622802734375-3.220947265625l-.731369018554688-2.2509765625,1.914337158203125-1.390869140625c2.129119873046875-1.5465087890625,3.013320922851562-4.2672119140625,2.200225830078125-6.77001953125-.8131103515625-2.5028076171875-3.127487182617188-4.1844482421875-5.759078979492188-4.1844482421875h-2.36676025390625l-.731307983398438-2.250732421875c-.813125610351562-2.5028076171875-3.127471923828125-4.184326171875-5.758987426757812-4.184326171875-2.631393432617188,0-4.94573974609375,1.6815185546875-5.758941650390625,4.1842041015625l-.731338500976562,2.2508544921875h-2.366775512695312c-2.631423950195312,0-4.945770263671875,1.6815185546875-5.758926391601562,4.1842041015625-.813140869140625,2.5028076171875,.070892333984375,5.2235107421875,2.199752807617188,6.77001953125l1.914764404296875,1.3912353515625-.731216430664062,2.2503662109375c-.342315673828125,1.0533447265625-.384124755859375,2.1683349609375-.144851684570312,3.2213134765625-2.322769165039062-2.657470703125-3.731689453125-6.133056640625-3.731689453125-9.931640625,0-8.3314208984375,6.777999877929688-15.1094970703125,15.109283447265625-15.1094970703125m0,27.19921875l1.915328979492188,1.3916015625c.698272705078125,.5072021484375,1.47845458984375,.8546142578125,2.301116943359375,1.029541015625-1.338882446289062,.3896484375-2.753494262695312,.5985107421875-4.216445922851562,.5985107421875s-2.87762451171875-.2088623046875-4.216506958007812-.5986328125c.822586059570312-.1748046875,1.60296630859375-.5223388671875,2.301727294921875-1.02978515625l1.914779663085938-1.3912353515625m0-32.19921875C11.503205797904229,2.499950585937768,2.500016710990167,11.503246484375268,2.500016710990167,22.609447656250268c0,11.1060791015625,9.003189086914062,20.109375,20.109283447265625,20.109375,11.106002807617188,0,20.109283447265625-9.0032958984375,20.109283447265625-20.109375,0-11.106201171875-9.003280639648438-20.1094970703125-20.109283447265625-20.1094970703125h0Zm-5.470291137695312,29.7515869140625c-.659637451171875,0-1.248031616210938-.6455078125-1.007308959960938-1.38623046875l1.61700439453125-4.9765625c.141311645507812-.434814453125-.01348876953125-.9111328125-.383407592773438-1.179931640625l-4.2333984375-3.07568359375c-.826995849609375-.600830078125-.401992797851562-1.9091796875,.620285034179688-1.9091796875h5.232742309570312c.457290649414062,0,.862472534179688-.2943115234375,1.003677368164062-.7291259765625l1.616989135742188-4.9766845703125c.157958984375-.4862060546875,.580810546875-.729248046875,1.003646850585938-.729248046875,.4228515625,0,.845703125,.2430419921875,1.003662109375,.729248046875l1.61700439453125,4.9766845703125c.14129638671875,.434814453125,.546478271484375,.7291259765625,1.003692626953125,.7291259765625h5.232696533203125c1.02239990234375,0,1.447402954101562,1.308349609375,.62030029296875,1.9091796875l-4.233291625976562,3.07568359375c-.369918823242188,.268798828125-.52471923828125,.7451171875-.383407592773438,1.179931640625l1.61700439453125,4.9765625c.240631103515625,.7406005859375-.347824096679688,1.38623046875-1.007369995117188,1.38623046875-.206314086914062,0-.419479370117188-.0631103515625-.616546630859375-.206298828125l-4.233367919921875-3.07568359375c-.184967041015625-.1343994140625-.402664184570312-.2015380859375-.620361328125-.2015380859375-.217681884765625,0-.43536376953125,.067138671875-.620269775390625,.2015380859375l-4.233367919921875,3.07568359375c-.197036743164062,.14306640625-.410324096679688,.206298828125-.616607666015625,.206298828125h0Z"/>
      </g>
      <g>
        <path d="M60.992692492240167,12.934154687500268c2.73046875,2.2646484375,5.0439453125,4.2998046875,6.9404296875,6.10546875l-4.95703125,4.859375c-3.248046875-3.2958984375-5.41796875-5.4462890625-6.509765625-6.4501953125l4.5263671875-4.5146484375Zm.646484375-10.578125c3.5634765625,2.8671875,5.9775390625,4.8583984375,7.2421875,5.9765625l-4.78515625,4.81640625c-2.701171875-2.6376953125-4.95703125-4.744140625-6.767578125-6.3212890625l4.310546875-4.4716796875Zm-.0859375,22.9619140625l6.4228515625,2.193359375c-1.6669921875,6.36328125-2.974609375,11.408203125-3.9228515625,15.1357421875l-6.5517578125-2.064453125c1.4658203125-4.701171875,2.8154296875-9.7890625,4.0517578125-15.2646484375Zm7.6728515625-21.02734375c7.759765625-.1142578125,16.4384765625-.515625,26.037109375-1.2041015625l.689453125,5.6337890625c-2.3564453125,.1435546875-5.67578125,.3291015625-9.9580078125,.55859375v4.0849609375h11.380859375v5.84765625h-11.380859375v4.1279296875h9.65625v19.0927734375h-6.767578125v-2.193359375h-12.5439453125v2.236328125h-6.7685546875V23.339428125000268h9.5703125v-4.1279296875h-10.90625v-5.84765625h10.90625v-3.7412109375c-2.0693359375,.0859375-5.1298828125,.1865234375-9.181640625,.30078125-.14453125-1.4033203125-.388671875-3.28125-.7333984375-5.6328125Zm7.11328125,24.7255859375v5.50390625h12.5439453125v-5.50390625h-12.5439453125Z"/>
        <path d="M100.091325304740167,13.965404687500268v-4.3427734375h9.009765625v-1.5048828125c-2.8173828125,.0576171875-5.302734375,.1005859375-7.4580078125,.12890625-.0576171875-.4296875-.3740234375-1.9345703125-.9482421875-4.5146484375,4.9423828125-.0576171875,11.796875-.2294921875,20.5625-.5166015625l1.0341796875,4.38671875c-3.908203125,.2001953125-6.4951171875,.3154296875-7.7587890625,.34375v1.6767578125h8.060546875v4.3427734375h-8.060546875v1.462890625h7.8447265625v14.619140625h-7.8447265625v1.462890625h7.5859375v3.955078125h-7.5859375v1.3759765625c1.6376953125-.056640625,4.1083984375-.11328125,7.4140625-.171875,1.3505859375-2.521484375,2.2841796875-5.216796875,2.8017578125-8.083984375,.517578125-2.8662109375,.8623046875-7.28125,1.03515625-13.244140625h-2.28515625v-6.01953125h2.4140625c.0283203125-2.37890625,.0576171875-4.7734375,.0859375-7.1806640625h5.7333984375c-.029296875,2.4365234375-.072265625,4.830078125-.12890625,7.1806640625h8.017578125c-.115234375,13.3017578125-.2587890625,22.173828125-.4306640625,26.6171875-.05859375,3.7841796875-1.595703125,5.7900390625-4.61328125,6.01953125-1.7236328125,.1435546875-3.5634765625,.21484375-5.517578125,.21484375-.287109375-1.7197265625-.5888671875-3.439453125-.9052734375-5.1591796875-.7470703125,1.8056640625-1.7529296875,3.8115234375-3.017578125,6.01953125-1.609375-1.69140625-2.615234375-2.7236328125-3.017578125-3.095703125-.0283203125,.3720703125-.04296875,.90234375-.04296875,1.5908203125-7.5,.0859375-14.728515625,.2724609375-21.6826171875,.55859375l-.560546875-4.9873046875c4.138671875-.0576171875,7.2275390625-.1005859375,9.2685546875-.12890625v-1.505859375h-8.2333984375v-3.955078125h8.2333984375v-1.462890625h-7.845703125V15.428295312500268h7.845703125v-1.462890625h-9.009765625Zm6.2080078125,5.203125v1.720703125h2.8017578125v-1.720703125h-2.8017578125Zm0,5.375v1.720703125h2.8017578125v-1.720703125h-2.8017578125Zm11.03515625-5.375h-2.8017578125v1.720703125h2.8017578125v-1.720703125Zm0,7.095703125v-1.720703125h-2.8017578125v1.720703125h2.8017578125Zm16.466796875-10.9228515625h-2.37109375c-.0859375,8.830078125-1.005859375,15.609375-2.7587890625,20.33984375,.7177734375,.0283203125,1.65234375,.04296875,2.8017578125,.04296875,.6611328125,0,1.1494140625-.1865234375,1.4658203125-.5595703125,.287109375-.3720703125,.458984375-.9599609375,.517578125-1.7626953125,.2294921875-5.2744140625,.3447265625-11.2939453125,.3447265625-18.060546875Z"/>
        <path d="M143.974137804740167,29.188060937500268h15.7763671875c.0283203125-.4580078125,.0439453125-1.26171875,.0439453125-2.408203125h6.853515625c-.0283203125,.802734375-.072265625,1.60546875-.12890625,2.408203125h4.6552734375c-.2587890625-.6025390625-.474609375-1.1181640625-.646484375-1.5478515625l6.4658203125-.4306640625c.201171875,.66015625,.40234375,1.3193359375,.603515625,1.978515625h5.6474609375v4.9443359375h-11.423828125c6.322265625,1.6630859375,10.302734375,2.7529296875,11.9404296875,3.2685546875l-3.275390625,5.76171875c-2.1552734375-.859375-7.19921875-2.7802734375-15.130859375-5.76171875l2.1982421875-3.2685546875h-2.0263671875c-1.1201171875,2.666015625-3.21875,4.6728515625-6.29296875,6.0205078125-3.017578125,1.3466796875-7.47265625,2.2646484375-13.36328125,2.751953125-.6611328125-1.3759765625-1.6240234375-3.16796875-2.888671875-5.375,4.7421875-.4296875,8.36328125-.931640625,10.86328125-1.5048828125,2.2412109375-.5166015625,3.7646484375-1.146484375,4.5693359375-1.892578125h-14.4404296875v-4.9443359375Zm9.4833984375-26.875h5.7333984375V27.640209375000268h-5.7333984375v-8.3857421875h-1.681640625c-.115234375,1.8642578125-.4599609375,3.3974609375-1.0341796875,4.6015625-.5751953125,1.2041015625-1.56640625,2.4658203125-2.974609375,3.7841796875-1.2646484375-.888671875-2.744140625-1.8349609375-4.439453125-2.837890625,2.2412109375-1.548828125,3.390625-3.3974609375,3.4482421875-5.5478515625h-3.3193359375v-4.7294921875h10.0009765625v-2.236328125h-8.1474609375V3.388256250000268h5.3017578125V7.559154687500268h2.845703125V2.313060937500268Zm6.5087890625,14.4482421875h1.810546875c-.603515625-.8603515625-1.2216796875-1.8203125-1.853515625-2.8818359375,3.994140625-.486328125,7.3134765625-1.203125,9.9580078125-2.1494140625-.833984375-1.0029296875-1.681640625-2.021484375-2.5439453125-3.052734375l1.1640625-.5166015625h-2.2841796875c-1.4658203125,1.00390625-3.103515625,1.8349609375-4.9140625,2.494140625-.6328125-1.3759765625-1.30859375-2.5224609375-2.0263671875-3.4404296875,3.591796875-1.490234375,6.1494140625-3.2099609375,7.6728515625-5.1591796875l5.302734375,.4296875c-.2880859375,.373046875-.71875,.875-1.2939453125,1.5048828125h11.552734375v4.73046875c-2.09765625,2.2646484375-4.59765625,4.013671875-7.5,5.2451171875h5.04296875v2.7958984375h3.8798828125v4.2998046875h-3.8798828125v.81640625c0,3.1826171875-1.6953125,4.859375-5.0869140625,5.03125-1.3212890625,.0576171875-2.90234375,.0859375-4.7412109375,.0859375-.201171875-1.0322265625-.560546875-2.408203125-1.078125-4.1279296875,.919921875,.029296875,2.01171875,.04296875,3.2763671875,.04296875,1.1494140625,0,1.724609375-.5302734375,1.724609375-1.5908203125v-.2578125h-7.888671875c.890625,.91796875,1.78125,1.8916015625,2.6728515625,2.923828125l-4.181640625,2.580078125c-.9482421875-1.232421875-2.041015625-2.5947265625-3.2763671875-4.0849609375l2.5869140625-1.4189453125h-4.095703125v-4.2998046875Zm6.552734375-7.482421875l1.37890625,2.0205078125c-1.6376953125,.8037109375-3.5771484375,1.419921875-5.8193359375,1.849609375l-.9482421875-2.236328125c2.01171875-.4873046875,3.8076171875-1.0322265625,5.388671875-1.6337890625Zm7.6298828125,5.07421875c-2.55859375,.974609375-5.517578125,1.77734375-8.8798828125,2.408203125h8.8798828125v-2.408203125Zm-2.845703125-6.1923828125c.0576171875,.0576171875,.67578125,.759765625,1.8544921875,2.107421875,1.1484375-.5732421875,2.26953125-1.275390625,3.3623046875-2.107421875h-5.216796875Z"/>
        <path d="M187.771012804740167,42.475170312500268V22.694896875000268h17.3720703125v19.7802734375h-6.12109375v-1.978515625h-5.1298828125v1.978515625h-6.12109375Zm3.4912109375-38.4423828125h30.822265625V20.114818750000268h-30.822265625V4.032787500000268Zm2.6298828125,24.337890625v6.4501953125h5.1298828125v-6.4501953125h-5.1298828125Zm4.4404296875-14.103515625h16.681640625v-4.34375h-16.681640625v4.34375Zm9.5263671875,28.2080078125V22.694896875000268h17.673828125v19.6083984375h-6.12109375v-1.806640625h-5.431640625v1.978515625h-6.12109375Zm6.12109375-14.1044921875v6.4501953125h5.431640625v-6.4501953125h-5.431640625Z"/>
      </g>
    </g>
  </g>
</svg>