<?xml version="1.0" encoding="UTF-8"?>
<svg id="Layer_2" data-name="Layer 2" xmlns="http://www.w3.org/2000/svg" viewBox="0 0 157.236300000000483 120.132900000000518">
  <g id="TEXT">
    <g>
      <g>
        <path d="M73.740200000000186,101.140699999999924h.781300000000556c1.859399999999368,0,3.570299999999406,.468699999999444,5.132799999999406,1.406199999999444,1.785200000000259,1.171900000001187,2.900400000000445,2.772500000000946,3.345699999999852,4.804700000000594,.148400000000038,.780300000000352,.224599999999555,1.561499999999796,.224599999999555,2.343800000000556,0,1.483299999999872-.335900000000038,2.889600000000428-1.003899999999703,4.218699999999444-1.042999999999665,2.030300000000352-2.64259999999922,3.24120000000039-4.798799999998664,3.632799999999406-2.453100000000632,.389699999999721-5.16990000000078,.58600000000115-8.144600000001446,.58600000000115-8.701100000000224,0-16.232399999998961-2.109400000001187-22.591800000000148-6.328199999999924-6.361300000000483-4.218700000001263-11.177700000000186-9.922800000000279-14.449199999999109-17.109300000000076-.372999999999593-.703199999999924-.892499999999927-1.133800000001429-1.5625-1.289099999999962-8.851500000000669-2.343800000000556-15.841800000000148-7.479500000001281-20.974600000001374-15.410200000000259-5.132799999999406-7.92870000000039-7.699199999999109-17.988199999999779-7.699199999999109-30.175699999999779,0-14.374100000000908,3.550800000000891-25.605499999999665,10.656300000000556-33.691500000000815C19.757799999999406,6.042999999999665,29.20509999999922,2,40.994099999999889,2c11.789099999999962,0,21.236399999999776,4.042999999999665,28.339900000000853,12.128899999999703,7.10149999999885,8.08600000000115,10.654300000000148,19.317399999999907,10.654300000000148,33.691500000000815,0,11.484300000000076-2.287100000001374,21.093699999999444-6.861300000000483,28.828099999998813-4.574300000000221,7.734400000001187-10.841800000000148,13.007800000001225-18.798899999999776,15.820300000001225-.298800000000483,.079099999999016-.486300000000483,.252899999999499-.558600000000297,.527299999999741-.074200000000928,.272499999999127-.039000000000669,.527399999999034,.111399999999776,.761800000000221,1.859300000000076,2.578099999998813,4.388600000000224,4.471599999998944,7.587900000000445,5.683499999999185,3.195299999999406,1.210000000000946,6.582000000000335,1.816500000000815,10.152299999999741,1.816500000000815,.66990000000078,0,1.375-.040100000000166,2.119099999999889-.117200000000594ZM22.976599999999962,47.820400000000518c0,9.219699999999648,1.597599999999147,16.406199999999444,4.796800000000076,21.5625,3.197299999999814,5.156199999999444,7.60360000000037,7.734300000000076,13.220699999999852,7.734300000000076,5.615300000001298,0,10.04110000000037-2.578100000000632,13.277400000000853-7.734300000000076,3.236299999998664-5.156300000000556,4.853499999999258-12.342800000000352,4.853499999999258-21.5625,0-8.592800000000352-1.617200000000594-15.311600000000908-4.853499999999258-20.156300000000556-3.236300000000483-4.842800000000352-7.662099999999555-7.265600000000632-13.277400000000853-7.265600000000632-5.617099999999482,0-10.023400000000038,2.422800000000279-13.220699999999852,7.265600000000632-3.199200000000928,4.844699999999648-4.796800000000076,11.563500000000204-4.796800000000076,20.156300000000556Z"/>
        <path d="M69.277299999999741,120.132900000000518c-9.061499999999796,0-17.034099999998944-2.241299999999683-23.697200000000521-6.661200000000463-6.627999999998792-4.396500000000742-11.719699999999648-10.412099999999555-15.13379999999961-17.881799999999203-.120100000000093-.21100000000115-.194299999999203-.228500000001077-.223599999999351-.235400000001391-9.366299999999683-2.478499999999258-16.815500000000611-7.948199999998906-22.202199999999721-16.271499999998923C2.698200000000725,70.862300000000687,0,60.343800000000556,0,47.820400000000518,0,33.010800000000017,3.752899999999499,21.231499999999869,11.154300000000148,12.808600000000297,18.618200000000797,4.309600000000501,28.658199999999852,0,40.994099999999889,0c12.334999999999127,0,22.376000000000204,4.309600000000501,29.842800000000352,12.808600000000297,7.399400000000242,8.425799999999072,11.151400000000649,20.20509999999922,11.151400000000649,35.011800000000221,0,11.793899999998757-2.402400000000853,21.835900000000038-7.139699999999721,29.846599999998944-4.510700000000725,7.627000000000407-10.685500000001412,13.045900000000984-18.369099999999889,16.128000000000611,1.501899999999296,1.65519999999924,3.378899999999703,2.897399999999834,5.697299999999814,3.776299999999537,2.955999999998312,1.119200000001001,6.133699999998498,1.686600000000908,9.444299999999203,1.686600000000908,.587900000000445,0,1.231400000000576-.036200000000463,1.913099999999758-.106499999999869l.206000000000131-.010700000000725h.781300000000556c2.218699999999444,0,4.290999999999258,.569300000001022,6.162099999999555,1.691399999999703,2.297800000000279,1.506800000001022,3.710900000000038,3.541000000001077,4.270499999998719,6.091800000000148,.182600000000093,.959899999999834,.270500000000538,1.875,.270500000000538,2.771500000000742,0,1.78899999999885-.409200000000055,3.509699999998702-1.216800000000148,5.117099999999482-1.326199999999517,2.582099999999627-3.477499999999054,4.202199999999721-6.228499999999258,4.702199999999721-2.594699999999648,.413099999999758-5.440399999999499,.618200000000797-8.502000000000407,.618200000000797ZM40.994099999999889,4c-11.290999999999258,0-20.069299999999203,3.745199999999386-26.834899999999834,11.448300000000017-6.74120000000039,7.671899999999368-10.159200000000055,18.563500000000204-10.159200000000055,32.372100000000501,0,11.739199999999983,2.48240000000078,21.526299999999537,7.377899999999499,29.088799999999537,4.830100000001039,7.462900000000445,11.494200000001001,12.362300000000687,19.807600000000093,14.563500000000204,.801800000001094,.184600000000501,2.001000000000204,.746100000000297,2.817399999999907,2.285200000000259l.05370000000039,.108299999999872c3.099700000000666,6.808600000000297,7.71980000000076,12.283299999999144,13.734400000001187,16.271499999998923,5.996099999998478,3.978500000001077,13.225599999997939,5.995200000001205,21.486299999998664,5.995200000001205,2.851599999999962,0,5.486399999999776-.188500000000204,7.831100000001243-.561600000000908,1.5-.272399999999834,2.573199999998906-1.091800000000148,3.332999999998719-2.57129999999961,.524400000000242-1.042900000000373,.783199999999852-2.128899999999703,.783199999999852-3.304599999999482,0-.646500000000742-.063499999998385-1.309600000000501-.189399999999296-1.96980000000076-.320400000000518-1.459899999999834-1.134799999999814-2.625-2.47860000000037-3.506799999999203-1.188399999999092-.710900000000038-2.531199999999444-1.078100000000632-4.035099999999147-1.078100000000632h-.679700000000594c-.780300000000352,.078100000000632-1.527299999999741,.117200000000594-2.220699999999852,.117200000000594-3.796900000001187,0-7.450199999999313-.654300000000148-10.860399999999572-1.946300000001429-3.558600000000297-1.34769999999844-6.418900000000576-3.495199999999386-8.501900000001115-6.38379999999961l-.061499999999796-.089899999999034c-.453199999999924-.707000000000335-.581099999999424-1.547800000000279-.357500000000073-2.367200000000594,.244200000001001-.927700000000186,.927799999999479-1.622999999999593,1.879000000000815-1.908199999999852,7.439399999999296-2.644500000000335,13.390600000000632-7.667900000000373,17.686499999999796-14.932600000000093,4.368099999999686-7.385700000000725,6.583000000000538-16.742200000000594,6.583000000000538-27.809499999999389,0-13.806700000001001-3.417000000001281-24.697299999999814-10.157200000001467-32.372100000000501-6.76759999999922-7.703100000000632-15.545899999999165-11.448300000000017-26.836999999999534-11.448300000000017Zm0,75.117200000000594c-6.329099999999016,0-11.348599999999351-2.920900000000984-14.920899999999165-8.680600000001505-3.381800000001022-5.451199999999517-5.096600000000763-13.060599999998885-5.096600000000763-22.616199999998571,0-8.953199999999924,1.725500000000466-16.105499999999665,5.127900000001318-21.258800000001429,3.576199999999517-5.416099999998551,8.585899999998219-8.163099999999758,14.889599999998609-8.163099999999758,6.297899999999572,0,11.324300000000221,2.743100000001505,14.940500000000611,8.154300000000148,3.444299999999203,5.156200000001263,5.190399999999499,12.311499999999796,5.190399999999499,21.267600000001039,0,9.558499999999185-1.736300000000483,17.170799999999872-5.159200000000055,22.625899999999092-3.611299999998664,5.753899999999703-8.648400000000038,8.670900000000984-14.971700000000055,8.670900000000984Zm0-56.718700000001263c-4.944299999999203,0-8.722599999999147,2.083000000000538-11.551699999999983,6.367200000000594-2.962899999998626,4.488199999999779-4.465799999999945,10.898400000000038-4.465799999999945,19.054700000000594,0,8.799799999998868,1.512700000001132,15.699199999999109,4.496100000000297,20.507799999999406,2.833000000000538,4.568300000000818,6.60149999999885,6.789000000000669,11.52139999999963,6.789000000000669,4.923899999999776,0,8.712900000000445-2.22360000000117,11.583000000000538-6.797800000000279,3.01759999999922-4.807600000000093,4.547899999999572-11.704100000000835,4.547899999999572-20.498999999999796,0-8.151400000000649-1.519500000000335-14.558600000000297-4.516599999999016-19.045000000000073-2.867200000000594-4.291000000001077-6.666000000001077-6.376900000001115-11.614300000001094-6.376900000001115Z"/>
      </g>
      <g>
        <path d="M109.826199999999517,92.703199999999924c-2.304699999998775,0-4.257799999999406-.838900000000649-5.857399999998961-2.519599999999627-1.599700000000666-1.67870000000039-2.39850000000115-3.709899999999834-2.39850000000115-6.093699999999444,0-2.381900000000314,.798800000000483-4.413100000001577,2.39850000000115-6.093800000000556,1.599599999999555-1.67870000000039,3.552700000000186-2.519500000000335,5.857399999998961-2.519500000000335h8.703100000000632c.742200000000594,0,1.115200000000186-.389600000000428,1.115200000000186-1.171899999999368V25.789099999999962c0-.780300000000352-.372999999999593-1.171899999999368-1.115200000000186-1.171899999999368h-8.255900000000111c-1.785099999999147,0-3.290999999999258-.644500000000335-4.519500000000335-1.933600000000297-1.226599999999962-1.289000000000669-1.839799999999741-2.831000000000131-1.839799999999741-4.628899999999703,0-1.875,.574200000000928-3.55370000000039,1.728499999999258-5.039000000000669,1.15230000000156-1.483399999999165,2.623000000001412-2.460999999999331,4.408200000001671-2.929700000000594,3.048799999998664-.858399999999165,5.800799999999072-1.875,8.255799999998999-3.046899999999368,5.355499999999665-2.420899999999165,10.078199999999924-3.632799999999406,14.170000000000073-3.632799999999406,2.079999999999927,0,3.847599999999147,.761699999999109,5.298800000000483,2.285099999999147,1.451199999999517,1.52350000000115,2.175799999999072,3.379899999999907,2.175799999999072,5.566500000000815v63.046800000000076c0,.782299999998941,.371100000000297,1.171899999999368,1.115200000000186,1.171899999999368h5.914099999999962c2.304700000000594,0,4.255800000000818,.840799999999945,5.85740000000078,2.519500000000335,1.597599999999147,1.680699999998978,2.398400000000038,3.711900000000242,2.398400000000038,6.093800000000556,0,2.38379999999961-.800800000000891,4.414999999999054-2.398400000000038,6.093699999999444-1.601599999999962,1.680699999998978-3.552700000000186,2.519599999999627-5.85740000000078,2.519599999999627h-37.154300000000148Z"/>
        <path d="M146.980499999999665,94.703199999999924h-37.154300000000148c-2.864299999999275,0-5.322299999999814-1.056699999999182-7.305699999998978-3.140699999999924-1.957000000000335-2.05370000000039-2.950200000001132-4.568300000000818-2.950200000001132-7.472599999999147,0-2.902400000000853,.992200000000594-5.416000000001077,2.950200000001132-7.472700000000259,1.985399999999572-2.084000000000742,4.443400000000111-3.140600000000632,7.305699999998978-3.140600000000632h7.818300000000818V26.617200000000594h-7.371100000000297c-2.344699999999648,0-4.352499999999054-.859300000000076-5.96769999999924-2.55370000000039-1.586900000000242-1.668900000000576-2.391600000000835-3.689400000001115-2.391600000000835-6.00879999999961,0-2.323200000000725,.722599999999147-4.430600000001505,2.149400000000242-6.266600000000835,1.422800000000279-1.832000000000335,3.266599999999016-3.055599999999686,5.479499999999462-3.636699999999109,2.885700000000725-.8125,5.555600000001505-1.797800000000279,7.902299999999741-2.917000000001281,5.630900000000111-2.545899999999165,10.675800000000891-3.828099999998813,15.031300000000556-3.828099999998813,2.640600000000632,0,4.910099999999147,.977499999999054,6.747000000001208,2.905299999998533,1.809599999998682,1.900400000000445,2.727599999998347,4.237300000000687,2.727599999998347,6.946300000001429v62.218699999999444h5.029300000000148c2.859300000000076,0,5.317399999999907,1.055700000000797,7.304700000000594,3.138699999999517,1.95889999999963,2.061499999999796,2.951100000000224,4.575200000001132,2.951100000000224,7.474600000001374,0,2.902299999999741-.992200000000594,5.415999999999258-2.949200000000928,7.472599999999147-1.986299999998664,2.084000000000742-4.444299999999203,3.140699999999924-7.306599999999889,3.140699999999924Zm-37.154300000000148-17.226599999999962c-1.749099999999089,0-3.191399999999703,.621100000000297-4.409200000000055,1.899400000000242-1.242199999998775,1.304700000000594-1.846700000000055,2.846700000000055-1.846700000000055,4.713900000000649,0,1.868099999999686,.603500000001077,3.410099999999147,1.846700000000055,4.713799999999537,1.215799999999945,1.278399999999237,2.658199999999852,1.899499999999534,4.409200000000055,1.899499999999534h37.154300000000148c1.749000000001615,0,3.191400000001522-.621100000000297,4.409100000000763-1.899499999999534,1.242199999998775-1.304600000001301,1.846700000000055-2.847600000000966,1.846700000000055-4.713799999999537,0-1.865300000001298-.604500000001281-3.407200000001467-1.847600000000966-4.715800000001764-1.217799999998533-1.27639999999883-2.66019999999844-1.897499999999127-4.408199999999852-1.897499999999127h-5.914099999999962c-1.863299999999072,0-3.115200000000186-1.274400000000242-3.115200000000186-3.171899999999368V11.257900000000518c0-1.670000000000073-.531299999998737-3.040100000000166-1.624099999999089-4.186600000000908-1.066399999999703-1.120100000000093-2.326100000000224-1.664999999999054-3.850500000000466-1.664999999999054-3.784200000000055,0-8.274499999999534,1.162099999999555-13.345699999999852,3.45509999999922-2.513699999999517,1.200199999999313-5.399499999999534,2.265600000000632-8.538099999999758,3.149400000000242-1.395500000000538,.367200000000594-2.487300000000687,1.093699999999444-3.371100000000297,2.231400000000576-.879899999999907,1.132799999999406-1.307600000000093,2.379899999999907-1.307600000000093,3.8125,0,1.275399999998626,.421800000000076,2.33889999999883,1.289000000000669,3.25,.852600000000166,.895499999998719,1.828199999999924,1.3125,3.070299999999406,1.3125h8.255900000000111c1.863299999999072,0,3.115200000000186,1.274400000000242,3.115200000000186,3.171899999999368v48.515600000000632c0,1.897499999999127-1.251900000001115,3.171899999999368-3.115200000000186,3.171899999999368h-8.703100000000632Z"/>
      </g>
    </g>
  </g>
</svg>