<?xml version="1.0" encoding="UTF-8"?>
<svg id="Layer_2" data-name="Layer 2" xmlns="http://www.w3.org/2000/svg" viewBox="0 0 158.351599999999962 120.367200000000594">
  <g id="TEXT">
    <g>
      <g>
        <path d="M73.740200000000186,101.375h.781300000000556c1.859399999999368,0,3.570299999999406,.468699999999444,5.132799999999406,1.406199999999444,1.785200000000259,1.171900000001187,2.900400000000445,2.772500000000946,3.345699999999852,4.804700000000594,.148400000000038,.780300000000352,.224599999999555,1.561499999999796,.224599999999555,2.343800000000556,0,1.483299999999872-.335900000000038,2.889600000000428-1.003899999999703,4.218699999999444-1.042999999999665,2.030300000000352-2.64259999999922,3.24120000000039-4.798799999998664,3.632799999999406-2.453100000000632,.389699999999721-5.16990000000078,.58600000000115-8.144600000001446,.58600000000115-8.701100000000224,0-16.232399999998961-2.109400000001187-22.591800000000148-6.328199999999924-6.361300000000483-4.218700000001263-11.177700000000186-9.922800000000279-14.449199999999109-17.109300000000076-.372999999999593-.703199999999924-.892499999999927-1.133800000001429-1.5625-1.289099999999962-8.851500000000669-2.343800000000556-15.841800000000148-7.479500000001281-20.974600000001374-15.410200000000259-5.132799999999406-7.92870000000039-7.699199999999109-17.988199999999779-7.699199999999109-30.175699999999779,0-14.374100000000908,3.550800000000891-25.605499999999665,10.656300000000556-33.691500000000815C19.757799999999406,6.277299999999741,29.20509999999922,2.234300000000076,40.994099999999889,2.234300000000076c11.789099999999962,0,21.236399999999776,4.042999999999665,28.339900000000853,12.128899999999703,7.10149999999885,8.08600000000115,10.654300000000148,19.317399999999907,10.654300000000148,33.691500000000815,0,11.484300000000076-2.287100000001374,21.093699999999444-6.861300000000483,28.828099999998813-4.574300000000221,7.734400000001187-10.841800000000148,13.007800000001225-18.798899999999776,15.820300000001225-.298800000000483,.079099999999016-.486300000000483,.252899999999499-.558600000000297,.527299999999741-.074200000000928,.272499999999127-.039000000000669,.527399999999034,.111399999999776,.761800000000221,1.859300000000076,2.578099999998813,4.388600000000224,4.471599999998944,7.587900000000445,5.683499999999185,3.195299999999406,1.210000000000946,6.582000000000335,1.816500000000815,10.152299999999741,1.816500000000815,.66990000000078,0,1.375-.040100000000166,2.119099999999889-.117200000000594ZM22.976599999999962,48.054700000000594c0,9.219699999999648,1.597599999999147,16.406199999999444,4.796800000000076,21.5625,3.197299999999814,5.156199999999444,7.60360000000037,7.734300000000076,13.220699999999852,7.734300000000076,5.615300000001298,0,10.04110000000037-2.578100000000632,13.277400000000853-7.734300000000076,3.236299999998664-5.156300000000556,4.853499999999258-12.342800000000352,4.853499999999258-21.5625,0-8.592800000000352-1.617200000000594-15.311600000000908-4.853499999999258-20.156300000000556-3.236300000000483-4.842800000000352-7.662099999999555-7.265600000000632-13.277400000000853-7.265600000000632-5.617099999999482,0-10.023400000000038,2.422800000000279-13.220699999999852,7.265600000000632-3.199200000000928,4.844699999999648-4.796800000000076,11.563500000000204-4.796800000000076,20.156300000000556Z"/>
        <path d="M69.277299999999741,120.367200000000594c-9.061499999999796,0-17.034099999998944-2.241299999999683-23.697200000000521-6.661200000000463-6.627999999998792-4.396500000000742-11.719699999999648-10.412099999999555-15.13379999999961-17.881799999999203-.120100000000093-.21100000000115-.194299999999203-.228500000001077-.223599999999351-.235400000001391-9.366299999999683-2.478499999999258-16.815500000000611-7.948199999998906-22.202199999999721-16.271499999998923C2.698200000000725,71.096600000000763,0,60.578100000000632,0,48.054700000000594,0,33.245100000000093,3.752899999999499,21.465799999999945,11.154300000000148,13.042900000000373,18.618200000000797,4.543900000000576,28.658199999999852,.234300000000076,40.994099999999889,.234300000000076c12.334999999999127,0,22.376000000000204,4.309600000000501,29.842800000000352,12.808600000000297,7.399400000000242,8.425799999999072,11.151400000000649,20.20509999999922,11.151400000000649,35.011800000000221,0,11.793899999998757-2.402400000000853,21.835900000000038-7.139699999999721,29.846599999998944-4.510700000000725,7.627000000000407-10.685500000001412,13.045900000000984-18.369099999999889,16.128000000000611,1.501899999999296,1.65519999999924,3.378899999999703,2.897399999999834,5.697299999999814,3.776299999999537,2.955999999998312,1.119200000001001,6.133699999998498,1.686600000000908,9.444299999999203,1.686600000000908,.587900000000445,0,1.231400000000576-.036200000000463,1.913099999999758-.106499999999869l.206000000000131-.010700000000725h.781300000000556c2.218699999999444,0,4.290999999999258,.569300000001022,6.162099999999555,1.691399999999703,2.297800000000279,1.506800000001022,3.710900000000038,3.541000000001077,4.270499999998719,6.091800000000148,.182600000000093,.959899999999834,.270500000000538,1.875,.270500000000538,2.771500000000742,0,1.78899999999885-.409200000000055,3.509699999998702-1.216800000000148,5.117099999999482-1.326199999999517,2.582099999999627-3.477499999999054,4.202199999999721-6.228499999999258,4.702199999999721-2.594699999999648,.413099999999758-5.440399999999499,.618200000000797-8.502000000000407,.618200000000797ZM40.994099999999889,4.234300000000076c-11.290999999999258,0-20.069299999999203,3.745199999999386-26.834899999999834,11.448300000000017-6.74120000000039,7.671899999999368-10.159200000000055,18.563500000000204-10.159200000000055,32.372100000000501,0,11.739199999999983,2.48240000000078,21.526299999999537,7.377899999999499,29.088799999999537,4.830100000001039,7.462900000000445,11.494200000001001,12.362300000000687,19.807600000000093,14.563500000000204,.801800000001094,.184600000000501,2.001000000000204,.746100000000297,2.817399999999907,2.285200000000259l.05370000000039,.108299999999872c3.099700000000666,6.808600000000297,7.71980000000076,12.283299999999144,13.734400000001187,16.271499999998923,5.996099999998478,3.978500000001077,13.225599999997939,5.995200000001205,21.486299999998664,5.995200000001205,2.851599999999962,0,5.486399999999776-.188500000000204,7.831100000001243-.561600000000908,1.5-.272399999999834,2.573199999998906-1.091800000000148,3.332999999998719-2.57129999999961,.524400000000242-1.042900000000373,.783199999999852-2.128899999999703,.783199999999852-3.304599999999482,0-.646500000000742-.063499999998385-1.309600000000501-.189399999999296-1.96980000000076-.320400000000518-1.459899999999834-1.134799999999814-2.625-2.47860000000037-3.506799999999203-1.188399999999092-.710900000000038-2.531199999999444-1.078100000000632-4.035099999999147-1.078100000000632h-.679700000000594c-.780300000000352,.078100000000632-1.527299999999741,.117200000000594-2.220699999999852,.117200000000594-3.796900000001187,0-7.450199999999313-.654300000000148-10.860399999999572-1.946300000001429-3.558600000000297-1.34769999999844-6.418900000000576-3.495199999999386-8.501900000001115-6.38379999999961l-.061499999999796-.089899999999034c-.453199999999924-.707000000000335-.581099999999424-1.547800000000279-.357500000000073-2.367200000000594,.244200000001001-.927700000000186,.927799999999479-1.622999999999593,1.879000000000815-1.908199999999852,7.439399999999296-2.644500000000335,13.390600000000632-7.667900000000373,17.686499999999796-14.932600000000093,4.368099999999686-7.385700000000725,6.583000000000538-16.742200000000594,6.583000000000538-27.809499999999389,0-13.806700000001001-3.417000000001281-24.697299999999814-10.157200000001467-32.372100000000501-6.76759999999922-7.703100000000632-15.545899999999165-11.448300000000017-26.836999999999534-11.448300000000017Zm0,75.117200000000594c-6.329099999999016,0-11.348599999999351-2.920900000000984-14.920899999999165-8.680600000001505-3.381800000001022-5.451199999999517-5.096600000000763-13.060599999998885-5.096600000000763-22.616199999998571,0-8.953199999999924,1.725500000000466-16.105499999999665,5.127900000001318-21.258800000001429,3.576199999999517-5.416099999998551,8.585899999998219-8.163099999999758,14.889599999998609-8.163099999999758,6.297899999999572,0,11.324300000000221,2.743100000001505,14.940500000000611,8.154300000000148,3.444299999999203,5.156200000001263,5.190399999999499,12.311499999999796,5.190399999999499,21.267600000001039,0,9.558499999999185-1.736300000000483,17.170799999999872-5.159200000000055,22.625899999999092-3.611299999998664,5.753899999999703-8.648400000000038,8.670900000000984-14.971700000000055,8.670900000000984Zm0-56.718700000001263c-4.944299999999203,0-8.722599999999147,2.083000000000538-11.551699999999983,6.367200000000594-2.962899999998626,4.488199999999779-4.465799999999945,10.898400000000038-4.465799999999945,19.054700000000594,0,8.799799999998868,1.512700000001132,15.699199999999109,4.496100000000297,20.507799999999406,2.833000000000538,4.568300000000818,6.60149999999885,6.789000000000669,11.52139999999963,6.789000000000669,4.923899999999776,0,8.712900000000445-2.22360000000117,11.583000000000538-6.797800000000279,3.01759999999922-4.807600000000093,4.547899999999572-11.704100000000835,4.547899999999572-20.498999999999796,0-8.151400000000649-1.519500000000335-14.558600000000297-4.516599999999016-19.045000000000073-2.867200000000594-4.291000000001077-6.666000000001077-6.376900000001115-11.614300000001094-6.376900000001115Z"/>
      </g>
      <g>
        <path d="M103.244099999999889,92.9375c-1.5625,0-2.91990000000078-.604499999999462-4.072199999998702-1.816399999999703-1.154300000001967-1.210000000000946-1.728500000001077-2.636800000000221-1.728500000001077-4.277400000000853,0-4.061499999999796,1.412099999999555-7.5,4.238199999999779-10.3125,10.337900000000445-10.078099999998813,18.130900000000111-18.729499999999462,23.375-25.956999999998516,5.244200000001001-7.225600000001577,7.865300000001298-13.652400000000853,7.865300000001298-19.277400000000853,0-4.061499999999796-.986400000001595-7.186499999999796-2.957100000001446-9.375-1.970699999999852-2.186499999999796-4.667899999998554-3.281199999999444-8.087799999999334-3.281199999999444-2.900400000000445,0-5.765699999999924,1.054699999998775-8.591800000000148,3.164099999999962-1.859399999999368,1.329099999999016-3.832099999999627,1.992099999999482-5.912200000000666,1.992099999999482-2.009699999998702,0-3.831999999998516-.74120000000039-5.466699999999037-2.226500000000669-1.5625-1.561499999999796-2.343800000000556-3.495100000000093-2.343800000000556-5.800799999999072,0-2.30370000000039,.853500000001077-4.160200000000259,2.566399999999703-5.566399999999703,6.396500000000742-5.467800000000352,13.908199999999852-8.203100000000632,22.537100000001374-8.203100000000632,8.255900000000111,0,14.966799999998329,2.559499999999389,20.138699999999517,7.675699999999779,5.167999999999665,5.118200000000797,7.753899999999703,11.894599999999627,7.753899999999703,20.332099999999627,0,12.501000000000204-8.29490000000078,27.618100000001505-24.880900000000111,45.351500000000669-.150400000000445,.079100000000835-.166000000001077,.215899999999237-.054700000000594,.410200000000259,.111400000001595,.19629999999961,.240300000001298,.254899999999907,.390699999999924,.175799999999072,5.279300000000148-.703099999998813,9.519500000000335-1.054699999998775,12.718700000001263-1.054699999998775h7.140599999998813c2.304700000000594,0,4.295000000000073,.878899999999703,5.968800000000556,2.636699999999109s2.509799999999814,3.887699999999313,2.509799999999814,6.386700000000928c0,2.500999999998385-.835999999999331,4.628899999999703-2.509799999999814,6.386699999999109-1.673800000000483,1.757900000000518-3.664099999999962,2.636800000000221-5.968800000000556,2.636800000000221h-44.628899999999703Z"/>
        <path d="M147.872999999999593,94.9375h-44.628899999999703c-2.125899999999092,0-3.983399999999165-.820299999999406-5.52139999999963-2.438500000000204-1.511800000000221-1.584000000000742-2.279300000000148-3.488299999999072-2.279300000000148-5.655300000000352,0-4.595699999999852,1.623999999999796-8.541999999999462,4.827100000000428-11.730499999999665,10.230499999999665-9.972599999999147,18.019500000000335-18.619099999999889,23.166999999999462-25.713799999999537,4.966800000000148-6.841800000000148,7.484400000001187-12.932600000000093,7.484400000001187-18.102600000000166,0-3.532199999999648-.822300000001633-6.236300000000483-2.443400000000111-8.037099999999555-1.588900000000649-1.761700000000928-3.748000000001412-2.619099999999889-6.601500000000669-2.619099999999889-2.447299999999814,0-4.935600000000704,.930699999998978-7.395599999999831,2.766599999999016-2.228500000001077,1.593700000001263-4.609300000000076,2.389600000000428-7.108400000000984,2.389600000000428-2.514599999998609,0-4.805599999999686-.923800000000483-6.811499999999796-2.746100000000297-2.013600000000224-2.008700000000317-2.998999999999796-4.436499999999796-2.998999999999796-7.281199999999444,0-2.922899999999572,1.109400000001187-5.316399999999703,3.296900000001187-7.112300000000687C107.569299999999203,2.920899999999165,115.588900000000649,0,124.666000000001077,0c8.759799999999814,0,16.00879999999961,2.777299999999741,21.544899999998961,8.253899999999703,5.539099999999962,5.485300000000279,8.347700000000259,12.804700000000594,8.347700000000259,21.753899999999703,0,12.16990000000078-7.535200000000259,26.764600000000428-22.409200000000055,43.424800000000687,3.38379999999961-.360399999999572,6.259799999999814-.541999999999462,8.583000000000538-.541999999999462h7.140599999998813c2.863300000000891,0,5.358400000000984,1.095699999999852,7.417000000001281,3.257799999999406,2.031299999998737,2.132799999999406,3.061599999999089,4.746100000000297,3.061599999999089,7.765600000000632,0,3.019599999999627-1.030300000000352,5.632799999999406-3.061599999999089,7.765699999999924-2.058600000000297,2.162099999999555-4.55370000000039,3.257799999999406-7.417000000001281,3.257799999999406ZM121.877000000000407,16.640600000000632h0c3.995100000000093,0,7.215799999999945,1.326199999999517,9.573199999998906,3.942399999999907,2.30370000000039,2.557600000000093,3.471700000001874,6.162099999999555,3.471700000001874,10.713799999999537,0,6.031300000000556-2.774400000002061,12.912099999999555-8.247100000000501,20.452199999999721-5.280300000000352,7.277299999999741-13.219700000001467,16.097600000000966-23.596700000000055,26.213900000000649-2.441400000001522,2.429599999999482-3.634700000000521,5.338799999999537-3.634700000000521,8.880799999998999,0,1.135800000000017,.373999999999796,2.055700000000797,1.175699999999779,2.896500000000742,.777400000000853,.817399999999907,1.610400000001391,1.197299999999814,2.625,1.197299999999814h44.628899999999703c1.75,0,3.22860000000037-.659200000000055,4.520599999999831-2.015699999999924,1.317300000000614-1.38379999999961,1.958000000000538-3.022399999999834,1.958000000000538-5.007799999999406,0-1.985300000000279-.640699999999924-3.624000000001615-1.958000000000538-5.007800000001225-1.291999999999462-1.356399999998757-2.770599999999831-2.015599999998813-4.520599999999831-2.015599999998813h-7.140599999998813c-3.058600000000297,0-7.184500000001208,.340799999999945-12.264600000000428,1.011699999999109-.980499999999665,.264699999999721-2.033199999999852-.175799999999072-2.584000000000742-1.146499999998923-.447299999999814-.780300000000352-.346700000000055-1.477500000000873-.246100000000297-1.823200000000725,.123999999999796-.423800000000483,.368200000000797-.793999999999869,.705100000001039-1.074200000000928,16.068300000000818-17.210999999999331,24.215799999999945-31.964899999999034,24.215799999999945-43.850599999999758,0-7.953099999998813-2.342800000000352-14.138699999999517-7.16110000000117-18.911199999998644-4.827199999999721-4.775300000001153-10.954099999999016-7.096600000000763-18.73149999999805-7.096600000000763-8.096700000001874,0-15.242200000000594,2.598599999999351-21.237300000000687,7.723599999999351-1.283199999999852,1.05370000000039-1.86620000000039,2.331100000001243-1.86620000000039,4.045900000000984,0,1.769500000000335,.575199999999313,3.204099999999016,1.757799999999406,4.385699999998906,1.195300000001225,1.083000000000538,2.543000000001484,1.641600000000835,4.052700000000186,1.641600000000835,1.670900000000984,0,3.224700000000666-.529300000000148,4.749100000000908-1.619099999999889,3.132799999999406-2.338900000000649,6.425799999999072-3.537099999999555,9.754899999999907-3.537099999999555Z"/>
      </g>
    </g>
  </g>
</svg>