<?xml version="1.0" encoding="UTF-8"?>
<svg id="Layer_2" data-name="Layer 2" xmlns="http://www.w3.org/2000/svg" viewBox="0 0 157.906300000000556 120.367200000000594">
  <g id="TEXT">
    <g>
      <g>
        <path d="M73.740200000000186,101.375h.781300000000556c1.859399999999368,0,3.570299999999406,.468699999999444,5.132799999999406,1.406199999999444,1.785200000000259,1.171900000001187,2.900400000000445,2.772500000000946,3.345699999999852,4.804700000000594,.148400000000038,.780300000000352,.224599999999555,1.561499999999796,.224599999999555,2.343800000000556,0,1.483299999999872-.335900000000038,2.889600000000428-1.003899999999703,4.218699999999444-1.042999999999665,2.030300000000352-2.64259999999922,3.24120000000039-4.798799999998664,3.632799999999406-2.453100000000632,.389699999999721-5.16990000000078,.58600000000115-8.144600000001446,.58600000000115-8.701100000000224,0-16.232399999998961-2.109400000001187-22.591800000000148-6.328199999999924-6.361300000000483-4.218700000001263-11.177700000000186-9.922800000000279-14.449199999999109-17.109300000000076-.372999999999593-.703199999999924-.892499999999927-1.133800000001429-1.5625-1.289099999999962-8.851500000000669-2.343800000000556-15.841800000000148-7.479500000001281-20.974600000001374-15.410200000000259-5.132799999999406-7.92870000000039-7.699199999999109-17.988199999999779-7.699199999999109-30.175699999999779,0-14.374100000000908,3.550800000000891-25.605499999999665,10.656300000000556-33.691500000000815C19.757799999999406,6.277299999999741,29.20509999999922,2.234300000000076,40.994099999999889,2.234300000000076c11.789099999999962,0,21.236399999999776,4.042999999999665,28.339900000000853,12.128899999999703,7.10149999999885,8.08600000000115,10.654300000000148,19.317399999999907,10.654300000000148,33.691500000000815,0,11.484300000000076-2.287100000001374,21.093699999999444-6.861300000000483,28.828099999998813-4.574300000000221,7.734400000001187-10.841800000000148,13.007800000001225-18.798899999999776,15.820300000001225-.298800000000483,.079099999999016-.486300000000483,.252899999999499-.558600000000297,.527299999999741-.074200000000928,.272499999999127-.039000000000669,.527399999999034,.111399999999776,.761800000000221,1.859300000000076,2.578099999998813,4.388600000000224,4.471599999998944,7.587900000000445,5.683499999999185,3.195299999999406,1.210000000000946,6.582000000000335,1.816500000000815,10.152299999999741,1.816500000000815,.66990000000078,0,1.375-.040100000000166,2.119099999999889-.117200000000594ZM22.976599999999962,48.054700000000594c0,9.219699999999648,1.597599999999147,16.406199999999444,4.796800000000076,21.5625,3.197299999999814,5.156199999999444,7.60360000000037,7.734300000000076,13.220699999999852,7.734300000000076,5.615300000001298,0,10.04110000000037-2.578100000000632,13.277400000000853-7.734300000000076,3.236299999998664-5.156300000000556,4.853499999999258-12.342800000000352,4.853499999999258-21.5625,0-8.592800000000352-1.617200000000594-15.311600000000908-4.853499999999258-20.156300000000556-3.236300000000483-4.842800000000352-7.662099999999555-7.265600000000632-13.277400000000853-7.265600000000632-5.617099999999482,0-10.023400000000038,2.422800000000279-13.220699999999852,7.265600000000632-3.199200000000928,4.844699999999648-4.796800000000076,11.563500000000204-4.796800000000076,20.156300000000556Z"/>
        <path d="M69.277299999999741,120.367200000000594c-9.061499999999796,0-17.034099999998944-2.241299999999683-23.697200000000521-6.661200000000463-6.627999999998792-4.396500000000742-11.719699999999648-10.412099999999555-15.13379999999961-17.881799999999203-.120100000000093-.21100000000115-.194299999999203-.228500000001077-.223599999999351-.235400000001391-9.366299999999683-2.478499999999258-16.815500000000611-7.948199999998906-22.202199999999721-16.271499999998923C2.698200000000725,71.096600000000763,0,60.578100000000632,0,48.054700000000594,0,33.245100000000093,3.752899999999499,21.465799999999945,11.154300000000148,13.042900000000373,18.618200000000797,4.543900000000576,28.658199999999852,.234300000000076,40.994099999999889,.234300000000076c12.334999999999127,0,22.376000000000204,4.309600000000501,29.842800000000352,12.808600000000297,7.399400000000242,8.425799999999072,11.151400000000649,20.20509999999922,11.151400000000649,35.011800000000221,0,11.793899999998757-2.402400000000853,21.835900000000038-7.139699999999721,29.846599999998944-4.510700000000725,7.627000000000407-10.685500000001412,13.045900000000984-18.369099999999889,16.128000000000611,1.501899999999296,1.65519999999924,3.378899999999703,2.897399999999834,5.697299999999814,3.776299999999537,2.955999999998312,1.119200000001001,6.133699999998498,1.686600000000908,9.444299999999203,1.686600000000908,.587900000000445,0,1.231400000000576-.036200000000463,1.913099999999758-.106499999999869l.206000000000131-.010700000000725h.781300000000556c2.218699999999444,0,4.290999999999258,.569300000001022,6.162099999999555,1.691399999999703,2.297800000000279,1.506800000001022,3.710900000000038,3.541000000001077,4.270499999998719,6.091800000000148,.182600000000093,.959899999999834,.270500000000538,1.875,.270500000000538,2.771500000000742,0,1.78899999999885-.409200000000055,3.509699999998702-1.216800000000148,5.117099999999482-1.326199999999517,2.582099999999627-3.477499999999054,4.202199999999721-6.228499999999258,4.702199999999721-2.594699999999648,.413099999999758-5.440399999999499,.618200000000797-8.502000000000407,.618200000000797ZM40.994099999999889,4.234300000000076c-11.290999999999258,0-20.069299999999203,3.745199999999386-26.834899999999834,11.448300000000017-6.74120000000039,7.671899999999368-10.159200000000055,18.563500000000204-10.159200000000055,32.372100000000501,0,11.739199999999983,2.48240000000078,21.526299999999537,7.377899999999499,29.088799999999537,4.830100000001039,7.462900000000445,11.494200000001001,12.362300000000687,19.807600000000093,14.563500000000204,.801800000001094,.184600000000501,2.001000000000204,.746100000000297,2.817399999999907,2.285200000000259l.05370000000039,.108299999999872c3.099700000000666,6.808600000000297,7.71980000000076,12.283299999999144,13.734400000001187,16.271499999998923,5.996099999998478,3.978500000001077,13.225599999997939,5.995200000001205,21.486299999998664,5.995200000001205,2.851599999999962,0,5.486399999999776-.188500000000204,7.831100000001243-.561600000000908,1.5-.272399999999834,2.573199999998906-1.091800000000148,3.332999999998719-2.57129999999961,.524400000000242-1.042900000000373,.783199999999852-2.128899999999703,.783199999999852-3.304599999999482,0-.646500000000742-.063499999998385-1.309600000000501-.189399999999296-1.96980000000076-.320400000000518-1.459899999999834-1.134799999999814-2.625-2.47860000000037-3.506799999999203-1.188399999999092-.710900000000038-2.531199999999444-1.078100000000632-4.035099999999147-1.078100000000632h-.679700000000594c-.780300000000352,.078100000000632-1.527299999999741,.117200000000594-2.220699999999852,.117200000000594-3.796900000001187,0-7.450199999999313-.654300000000148-10.860399999999572-1.946300000001429-3.558600000000297-1.34769999999844-6.418900000000576-3.495199999999386-8.501900000001115-6.38379999999961l-.061499999999796-.089899999999034c-.453199999999924-.707000000000335-.581099999999424-1.547800000000279-.357500000000073-2.367200000000594,.244200000001001-.927700000000186,.927799999999479-1.622999999999593,1.879000000000815-1.908199999999852,7.439399999999296-2.644500000000335,13.390600000000632-7.667900000000373,17.686499999999796-14.932600000000093,4.368099999999686-7.385700000000725,6.583000000000538-16.742200000000594,6.583000000000538-27.809499999999389,0-13.806700000001001-3.417000000001281-24.697299999999814-10.157200000001467-32.372100000000501-6.76759999999922-7.703100000000632-15.545899999999165-11.448300000000017-26.836999999999534-11.448300000000017Zm0,75.117200000000594c-6.329099999999016,0-11.348599999999351-2.920900000000984-14.920899999999165-8.680600000001505-3.381800000001022-5.451199999999517-5.096600000000763-13.060599999998885-5.096600000000763-22.616199999998571,0-8.953199999999924,1.725500000000466-16.105499999999665,5.127900000001318-21.258800000001429,3.576199999999517-5.416099999998551,8.585899999998219-8.163099999999758,14.889599999998609-8.163099999999758,6.297899999999572,0,11.324300000000221,2.743100000001505,14.940500000000611,8.154300000000148,3.444299999999203,5.156200000001263,5.190399999999499,12.311499999999796,5.190399999999499,21.267600000001039,0,9.558499999999185-1.736300000000483,17.170799999999872-5.159200000000055,22.625899999999092-3.611299999998664,5.753899999999703-8.648400000000038,8.670900000000984-14.971700000000055,8.670900000000984Zm0-56.718700000001263c-4.944299999999203,0-8.722599999999147,2.083000000000538-11.551699999999983,6.367200000000594-2.962899999998626,4.488199999999779-4.465799999999945,10.898400000000038-4.465799999999945,19.054700000000594,0,8.799799999998868,1.512700000001132,15.699199999999109,4.496100000000297,20.507799999999406,2.833000000000538,4.568300000000818,6.60149999999885,6.789000000000669,11.52139999999963,6.789000000000669,4.923899999999776,0,8.712900000000445-2.22360000000117,11.583000000000538-6.797800000000279,3.01759999999922-4.807600000000093,4.547899999999572-11.704100000000835,4.547899999999572-20.498999999999796,0-8.151400000000649-1.519500000000335-14.558600000000297-4.516599999999016-19.045000000000073-2.867200000000594-4.291000000001077-6.666000000001077-6.376900000001115-11.614300000001094-6.376900000001115Z"/>
      </g>
      <g>
        <path d="M124.554700000000594,94.578100000000632c-9.298800000000483,0-17.070299999999406-2.264699999999721-23.318400000000111-6.796900000001187-1.861300000000483-1.406199999999444-2.865200000000186-3.319299999999203-3.013600000000224-5.742199999998775v-.820300000001225c0-2.186499999999796,.632799999999406-4.139599999998609,1.898400000000038-5.859399999999368,1.1875-1.71769999999924,2.861300000000483-2.695299999999406,5.019500000000335-2.929599999999482,.371099999998478-.07720000000154,.742199999998775-.117200000000594,1.115299999999479-.117200000000594,1.710900000000038,0,3.308600000000297,.50879999999961,4.798800000000483,1.523400000000038,3.718699999999444,2.343800000000556,7.511699999999109,3.515600000000632,11.378899999999703,3.515600000000632,4.01759999999922,0,7.197299999999814-.878900000001522,9.540999999999258-2.636700000000928,2.341800000000148-1.757799999999406,3.513700000001336-4.277299999999741,3.513700000001336-7.558600000000297,0-3.515599999998813-1.043000000001484-6.248999999999796-3.125-8.203099999998813-2.082000000000335-1.952199999999721-5.912100000001374-3.202199999999721-11.490300000001298-3.75-1.935499999999593-.155300000000352-3.609300000000076-.975600000001577-5.02139999999963-2.460900000000038-1.414099999999962-1.483400000000984-2.119199999999182-3.260800000000017-2.119199999999182-5.332100000001446,0-2.069299999999203,.685599999998885-3.846699999998236,2.064500000000407-5.331999999998516,1.375-1.483400000000984,3.066399999999703-2.381800000001022,5.076099999998405-2.695300000001225,7.957099999999627-1.171899999999368,11.9375-4.921899999999368,11.9375-11.25,0-3.046899999999368-.820299999999406-5.390599999998813-2.454999999999927-7.031299999998737-1.636699999999109-1.640600000000632-4.054699999998775-2.460900000000038-7.251999999998588-2.460900000000038-2.974600000001374,0-5.83980000000156,.820299999999406-8.58980000000156,2.460900000000038-1.638699999999517,1.016599999999016-3.34769999999844,1.523499999999331-5.132799999999406,1.523499999999331-.373100000000704,0-.744200000001001-.038099999999758-1.115299999999479-.117200000000594-2.306599999999889-.234399999999368-4.128900000001522-1.209999999999127-5.466800000000148-2.929699999998775-1.191399999999703-1.561499999999796-1.785100000000966-3.281300000000556-1.785100000000966-5.156300000000556v-1.054599999999482c.222600000000966-2.343800000000556,1.263600000000224-4.101599999999962,3.122999999999593-5.27350000000115,6.320300000001225-4.061499999999796,12.978500000001077-6.093699999999444,19.970700000001671-6.093699999999444,8.925799999999072,0,16.011699999999109,2.129800000000614,21.253899999999703,6.386700000000928,5.244199999999182,4.25879999999961,7.867200000000594,10.332999999998719,7.867200000000594,18.222599999999147,0,9.140699999999924-4.501900000001115,15.665100000000166-13.5,19.570400000000518-.150400000000445,.079099999999016-.224600000001374,.215799999999945-.224600000001374,.410099999999147,0,.19629999999961,.074200000000928,.333000000000538,.224600000001374,.410200000000259,4.908199999998033,1.563400000000911,8.83009999999922,4.180599999999686,11.769499999998516,7.851500000000669,2.9375,3.672899999999572,4.408300000000963,8.243199999998978,4.408300000000963,13.710999999999331,0,5.390600000000632-1.451200000001336,10.098599999999351-4.351599999999962,14.121100000000297-2.900400000000445,4.024400000000242-6.695299999999406,7.012699999999313-11.380900000000111,8.964799999999741-4.685499999999593,1.952100000000428-9.892499999999927,2.929700000000594-15.619099999999889,2.929700000000594Z"/>
        <path d="M124.554700000000594,96.578100000000632c-9.686499999999796,0-17.926800000001094-2.415100000000166-24.493200000000797-7.177700000000186-2.370100000000093-1.79110000000037-3.650399999998626-4.218800000000556-3.834899999999834-7.239300000001094l-.003899999999703-.122099999998682v-.820300000001225c0-2.612299999998868,.769500000000335-4.982399999998961,2.288000000000466-7.044899999998961,1.475599999999758-2.136700000000928,3.613299999999072-3.404300000000148,6.320399999998699-3.721700000000055,.475500000000466-.092800000000352,.954100000000835-.139600000000428,1.424800000000687-.139600000000428,2.108400000000984,0,4.101500000000669,.628899999999703,5.924800000000687,1.870100000000093,3.317299999998795,2.089799999999741,6.787099999999555,3.168900000000576,10.252899999999499,3.168900000000576,3.555700000000797,0,6.362300000000687-.752900000001318,8.340799999999945-2.236300000000483,1.826199999999517-1.371100000000297,2.713900000000649-3.320299999999406,2.713900000000649-5.959000000000742,0-2.96389999999883-.815400000001318-5.169899999998961-2.494200000001001-6.745100000000093-1.197199999998702-1.123099999998885-3.959899999999834-2.593799999998737-10.316399999999703-3.217799999998533-2.397399999999834-.191400000001522-4.520500000000538-1.226500000000669-6.275400000000445-3.073200000000725-1.77139999999963-1.85740000000078-2.669899999998961-4.11620000000039-2.669899999998961-6.710000000000946,0-2.582999999998719,.873999999999796-4.834899999999834,2.598699999998644-6.692399999999907,1.680599999999686-1.813399999999092,3.778300000001764-2.927700000000186,6.233400000000984-3.311499999999796,9.185499999999593-1.352499999999054,10.245999999999185-5.940399999999499,10.245999999999185-9.273400000000038,0-2.51759999999922-.612299999998868-4.355499999999665-1.871999999999389-5.619199999999182-1.239300000001094-1.243099999999686-3.202199999999721-1.872999999999593-5.834999999999127-1.872999999999593-2.596700000001874,0-5.142600000001039,.733399999999165-7.565400000001318,2.17870000000039-1.920899999999165,1.192399999999907-4.002899999999499,1.805699999998978-6.157199999999648,1.805699999998978-.477600000000166,0-.95509999999922-.046899999999368-1.421899999999368-.138699999999517-2.8125-.309600000000501-5.080100000001039-1.547899999999572-6.738300000000891-3.679700000000594-1.468699999999444-1.924799999998868-2.207000000000335-4.067399999999907-2.207000000000335-6.384799999999814l.00879999999961-1.244099999999889c.279300000001967-2.939500000000407,1.67870000000039-5.283199999999852,4.047800000000279-6.776400000000649,6.605500000001484-4.244099999999889,13.688500000000204-6.401299999999537,21.037100000001374-6.401299999999537,9.355499999999665,0,16.929699999998775,2.299800000000687,22.514699999999721,6.83389999999963,5.710900000000038,4.637700000001132,8.606400000000576,11.29110000000037,8.606400000000576,19.775400000000445,0,8.804700000000594-3.858400000000984,15.450199999999313-11.481400000000576,19.799800000000687,3.729499999999462,1.709999999999127,6.851500000000669,4.119199999999182,9.3125,7.192399999999907,3.215799999999945,4.021499999998923,4.846700000000055,9.054699999998775,4.846700000000055,14.960999999999331,0,5.793900000000576-1.590900000001056,10.938400000000911-4.729499999999462,15.290999999999258-3.105500000001484,4.308600000000297-7.221700000001874,7.552700000000186-12.233400000000984,9.640600000000632-4.911200000000463,2.046899999999368-10.424800000000687,3.084000000000742-16.388699999999517,3.084000000000742Zm-24.332000000000335-14.603500000001077c.123999999999796,1.822200000000521,.831000000000131,3.162100000001374,2.219699999999648,4.210900000000038,5.836900000000242,4.234400000001187,13.287100000001374,6.392600000001039,22.112300000000687,6.392600000001039,5.432600000000093,0,10.42870000000039-.933600000000297,14.849599999999555-2.775400000000445,4.319300000001022-1.799800000000687,7.861300000000483-4.587900000000445,10.528299999999945-8.288099999999758,2.636699999999109-3.658199999999852,3.973700000000463-8.015600000000632,3.973700000000463-12.952100000000428,0-4.975599999999758-1.33600000000115-9.167999999999665-3.96980000000076-12.461999999999534-2.674800000000687-3.339799999999741-6.313500000000204-5.760700000000725-10.815399999999499-7.195300000001225l-.305700000000797-.125899999999092c-.82129999999961-.420900000000984-1.311499999999796-1.239300000001094-1.311499999999796-2.189500000000407,0-.939399999999296,.483400000000984-1.753899999999703,1.293999999999869-2.180699999998978l.134700000000521-.064400000001115c8.273499999999331-3.590799999999945,12.295900000000984-9.39259999999922,12.295900000000984-17.735399999999572,0-7.322200000000521-2.332000000000335-12.775400000000445-7.127900000001318-16.66990000000078-4.853499999999258-3.941399999999703-11.58009999999922-5.939399999999296-19.993199999998978-5.939399999999296-6.569300000001022,0-12.924800000000687,1.943300000000818-18.889600000000428,5.776299999999537-1.327199999999721,.83600000000115-2.024400000000242,2.007800000001225-2.204100000000835,3.691399999999703v.954100000000835c0,1.440500000000611,.450200000001132,2.730499999999665,1.375,3.943400000000111,.984300000000076,1.265600000000632,2.323200000000725,1.974599999999555,4.079100000000835,2.152299999999741l.214799999999741,.034200000000055c.231499999999869,.048800000000483,.459999999999127,.073300000000017,.698300000000017,.073300000000017,1.417900000000373,0,2.751899999999296-.400400000000445,4.078100000000632-1.222700000000259,3.081000000000131-1.83889999999883,6.316399999999703-2.761699999999109,9.644500000000335-2.761699999999109,3.733399999999165,0,6.649399999998423,1.025399999998626,8.667999999999665,3.048799999998664,2.016599999999016,2.02350000000115,3.03899999999885,4.864300000001094,3.03899999999885,8.443400000000111,0,5.118100000001505-2.367099999999482,11.567399999999907-13.64639999999963,13.228500000001077-1.548899999999776,.242199999998775-2.83009999999922,.921899999999368-3.900400000000445,2.076199999999517-1.030299999998533,1.110300000000279-1.531299999998737,2.409100000000763-1.531299999998737,3.972599999999147,0,1.55370000000039,.512699999999313,2.845700000001671,1.566399999999703,3.95220000000154,1.073300000000017,1.127899999999499,2.293999999999869,1.731399999998757,3.734399999999368,1.847599999999147,6.121100000000297,.600599999999758,10.262700000001132,2.001000000000204,12.698200000000725,4.284200000000055,2.493199999998978,2.339799999999741,3.756900000000314,5.590799999999945,3.756900000000314,9.662099999999555,0,3.92870000000039-1.451200000001336,7.009799999999814-4.313500000000204,9.158199999999852-2.686499999999796,2.015600000000632-6.300800000000891,3.037100000001374-10.74120000000039,3.037100000001374-4.23240000000078,0-8.41990000000078-1.28610000000117-12.445299999999406-3.823200000000725-1.221700000000055-.831099999999424-2.423800000000483-1.215799999999945-3.73240000000078-1.215799999999945-.232500000000073,0-.464899999999034,.024400000000242-.708000000000538,.075199999999313l-.191499999998996,.030200000001059c-1.587800000001153,.172899999999572-2.729400000000169,.833000000000538-3.58980000000156,2.079099999999016-1.049799999998868,1.427800000001298-1.543899999998757,2.957100000001446-1.543899999998757,4.721700000000055v.755900000000111Z"/>
      </g>
    </g>
  </g>
</svg>