<?xml version="1.0" encoding="UTF-8"?>
<svg id="Layer_2" data-name="Layer 2" xmlns="http://www.w3.org/2000/svg" viewBox="0 0 506.5 227.4">
  <g id="TEXT_LOGO" data-name="TEXT&amp;amp;LOGO">
    <g>
      <path d="M109.1,76.7C113.8,42.6,156.8,10.4,190.5,3.2c33.7-7.2,71.1,8.7,89.3,38,20.7-12.1,42.7-24.4,66.7-24.8s50.1,15.9,51.6,39.8c21.7-11.1,48.7-12.3,70.4-1.3,21.7,11,37.1,34.5,36.6,58.9-.5,24.4-18,47.9-41.7,53.8-13.1,3.3-27.1,1.4-40.2,4.7-20.5,5.2-35.9,22.3-55.5,30-29.9,11.6-67.5-3.3-81.3-32.2-18.4,15.1-37,30.2-58.1,41.1-21.1,10.9-45.3,17.4-68.8,13.8-23.5-3.6-46-18.4-54.8-40.6-18.4,13.1-50.3,23.8-71.8,16.9-22.2-7.1-34.9-33.6-30.6-56.5,4.3-22.9,19.4-42.2,40-53,20.6-10.8,43.9-12.3,67-15" style="fill: #fff;"/>
      <path d="M110.6,77.1c1.9-13.2,9-25,17.8-34.9,9.6-10.8,21.3-19.7,34-26.6,12-6.5,25.2-11.4,38.9-12.4,14.1-1,28.4,1.8,41.2,7.7,14.6,6.7,27.4,17.4,36,31.1,.4,.7,1.3,1,2.1,.5,18-10.5,37-21.4,58-24.1,16.7-2.1,34.2,2.5,46.5,14.3,6.5,6.3,10.8,14.4,11.5,23.5,0,1.2,1.2,1.8,2.3,1.3,25.9-13.1,59.4-12,81.9,7.4,20.1,17.3,29.2,46.3,17.6,71-5.4,11.4-14.3,21.1-25.7,26.7-14.2,7-30.1,4.7-45.2,7.2-27.4,4.7-45.3,30.4-72.9,34.3-23.5,3.3-49-7.6-62.4-27.3-1.6-2.4-3.1-5-4.4-7.6-.5-.9-1.7-.9-2.4-.3-22.9,18.7-46.5,38.1-74.7,48.3-25.4,9.2-54.3,10.7-78.1-3.5-11.6-6.9-21.3-17.1-26.4-29.8-.3-.8-1.3-1.5-2.2-.9-14.5,10.2-32.5,17.2-50.2,18.6-8.2,.7-16.8,0-24.4-3.4-7.2-3.3-13.3-8.9-17.6-15.5-9.5-14.4-10.8-31.8-5.3-47.9,5.8-17,18.1-31.3,33.6-40.3,21-12.1,45.7-13.7,69.2-16.4,1.9-.2,1.9-3.2,0-3-22.1,2.6-45,4.1-65.3,14-17,8.2-31,22.3-38.4,39.7-7,16.3-7.6,34.2,.5,50.2,3.7,7.4,9.2,13.9,16,18.5,7,4.8,15.2,7,23.7,7.3,10.8,.4,21.6-1.8,31.8-5.3,9.9-3.4,19.5-7.9,28-13.9-.7-.3-1.5-.6-2.2-.9,9.4,23.3,32.7,38.5,57.1,41.8,30.3,4.2,60.1-7.6,85.2-23.8,14.7-9.5,28.3-20.6,41.9-31.7l-2.4-.3c10.8,22.4,35.3,36.5,59.9,36.9,13.4,.2,25.5-4.1,36.9-10.9,12.7-7.6,24.4-17.7,38.7-22.2,15.9-5,33.3-1.3,49-7.4,12.2-4.7,22.3-13.8,28.8-25.1,6.6-11.3,9.4-24.6,7.6-37.6-1.8-13.4-8.2-26-17.3-36-20.4-22.3-53.2-27.9-81.1-18-3.5,1.2-6.9,2.7-10.3,4.4,.8,.4,1.5,.9,2.3,1.3-1.2-17.2-14.2-30.2-29.5-36.7-18.7-7.9-39.1-4.6-57.3,2.9-11.7,4.8-22.8,11.1-33.7,17.5,.7,.2,1.4,.4,2.1,.5C265.3,15.5,236.4,0,207,0c-14.2,0-27.9,4-40.7,10.2-13.5,6.5-26.1,15.4-36.6,26.2-10.7,10.9-19.8,24.5-22.1,39.9-.3,1.9,2.6,2.7,2.9,.8h0Z"/>
    </g>
  </g>
</svg>