<?xml version="1.0" encoding="UTF-8"?>
<svg id="Layer_2" data-name="Layer 2" xmlns="http://www.w3.org/2000/svg" xmlns:xlink="http://www.w3.org/1999/xlink" viewBox="0 0 1167 509.1">
  <defs>
    <clipPath id="clippath">
      <rect y="164.1" width="1167" height="345" style="fill: none;"/>
    </clipPath>
  </defs>
  <g id="BG">
    <g>
      <g>
        <g style="clip-path: url(#clippath);">
          <g>
            <path d="M1252.6,397.6c2.3-29.1,1.8-58.4-1.6-87.4-7.4,10.1-24.7,9.6-36.4,3.6s-20.3-15.8-31.4-22.6c-32.6-19.9-79.1-9.9-113.4-27.5-7.3-3.8-14.3-8.9-22.8-9.5-7.7-.5-15.2,2.9-22.9,2.6-18.2-.7-27-19.7-41.1-30-20.9-15.2-52.2-9.5-76.2,1.3-24,10.9-46.4,26.4-73,29.7-18.7,2.4-38.3-1.5-56.2,3.6-18,5.2-32.7,19-51.6,20.2-18.5,1.2-34.8-10.2-52.3-15.5-49.7-15.2-101.1,18.2-153.5,20.9-68,3.5-134.5-45-199.3-26.3-11.7,3.4-23,9-35.4,9-16.5,0-31-9.7-47.1-13.1-43.6-9.3-84.7,28.8-129.4,25.5-15.9-1.2-30.8-7.6-46.2-11.2-33.9-7.9-71.6-1.8-100.3,16.2v222.2H1246.7l5.9-112Z" style="fill: #fff;"/>
            <path d="M1254.1,397.6c2.2-29.1,1.7-58.3-1.6-87.4-.1-1.1-1.6-2.2-2.6-1.1-10.6,13-30.3,6.9-42-1.1-12.3-8.5-22.3-18.7-36.5-24.2-28.3-10.9-59.8-7.1-88.6-16.4-14-4.5-26.2-16.2-41.6-14.5-7.9,.9-15.5,3.7-23.4,1.3-7.2-2.2-12.7-7.7-17.8-12.9-8.5-8.9-16.4-17.7-28.3-21.9-13.1-4.7-27.7-3.9-41-.9-31.3,7-56.6,28.8-87.7,36.2-17.9,4.3-36.1,1.2-54.2,3.2-14.6,1.6-26.5,8.4-39.4,14.9-7.4,3.7-15.2,7-23.6,7.5-9.1,.6-17.8-2-26.1-5.3-14.1-5.5-27.3-11.9-42.6-13.6-31.6-3.5-62.5,8.3-92.6,16.3-15.9,4.2-32.2,7.8-48.7,8.1-16.6,.3-33.1-2.3-49.2-6.1-30.6-7.1-60.3-18.5-91.6-22.9-13.5-1.9-27.3-2.4-40.8-.4-16.8,2.5-32.8,12.3-49.9,12-16.8-.3-31.3-10.4-47.5-13.4-12.8-2.3-25.8-.8-38.2,2.5-28.5,7.5-55.6,24.1-85.8,23.5-18.7-.4-35.8-8.6-53.9-12.2-14.9-3-30.2-3.3-45.2-1.3-14.3,2-28.3,6.1-41.2,12.5-4.3,2.1-11.2,3.7-11.7,9-.7,8.8,0,18,0,26.8v193.8c0,.8,.7,1.5,1.5,1.5H1194.8c16.6,0,33.2,.4,49.8,0,.7,0,1.4,0,2.1,0s1.5-.7,1.5-1.5c1.7-32.7,3.4-65.3,5.1-98l.7-14c.1-1.9-2.9-1.9-3,0-1.7,32.7-3.4,65.3-5.1,98l-.7,14,1.5-1.5H-18.2c-5.6,0-11.7-.7-17.2,0-.7,0-1.4,0-2.1,0l1.5,1.5v-211.1c0-2.8-.7-6.8,0-9.5,.1-.4-.2-1.2,0-1.6,0,0,5.7-2.5,6.4-2.9,4.5-2.4,9.2-4.5,14-6.4,15.5-5.9,32.1-8.9,48.7-8.9,17.4,0,33.4,4.4,50,9.2,14.8,4.3,29.3,6.8,44.6,4.6,14.6-2.2,28.5-7.4,42.2-12.5,13.3-5,26.7-10.2,40.8-12.5,16.6-2.7,31.2,.7,46.7,6.6,15,5.7,28.5,8.7,44.2,4.1,15.9-4.6,30.3-10.1,47.1-10.6,31.7-1,62.5,9.5,92.6,18,29.9,8.5,60.5,15.5,91.7,11.3,31.2-4.2,60.5-16.8,91.5-21.8,16.9-2.7,34.3-2.7,50.8,2.7,14.1,4.7,27.3,12.9,42.3,14.7,14.1,1.7,26.6-4,38.8-10.4,7-3.6,13.9-7.4,21.6-9.6,9.7-2.8,19.8-2.9,29.8-2.8,16.5,0,32-.5,47.8-6.1,14.7-5.2,28.2-13,42.1-19.9,26.9-13.4,64.4-25.2,89.6-2,8.6,8,15.6,18.6,26.6,23.6,4.9,2.2,10,2.8,15.4,2.2,4.5-.5,8.8-1.8,13.3-2.2,6.4-.6,11.9,1.3,17.5,4.2,13,6.7,25,11.9,39.5,14.5,14.7,2.6,29.6,3.4,44.4,5.6,15.7,2.4,31,6.5,43.9,16,11.4,8.3,21.6,19.4,36,22.5,10,2.1,21.5,1,28.3-7.4-.9-.4-1.7-.7-2.6-1.1,3.2,29,3.8,58.2,1.6,87.4-.1,1.9,2.9,1.9,3,0Z"/>
          </g>
        </g>
        <path d="M244.3,426.5c8.1-5.7,19.1-6.5,27.9-1.8,1.7,.9,3.2-1.7,1.5-2.6-9.6-5.2-22-4.5-30.9,1.8-1.6,1.1,0,3.7,1.5,2.6h0Z"/>
        <path d="M611.2,322.1c7-4.9,16.5-5.6,24-1.6,1.7,.9,3.2-1.7,1.5-2.6-8.4-4.5-19.2-4-27,1.6-1.6,1.1,0,3.7,1.5,2.6h0Z"/>
        <path d="M350,343.8c11.2-4.2,23.9-3.1,34.1,3.2,1.7,1,3.2-1.6,1.5-2.6-10.8-6.6-24.5-7.9-36.4-3.5-1.8,.7-1,3.6,.8,2.9h0Z"/>
        <path d="M140.2,353.6c8.8-10.4,20.8-19.4,35.1-18.5,3.9,.2,7.7,1.3,11,3.2,1.7,1,3.2-1.6,1.5-2.6-6.5-3.7-14.1-4.4-21.3-3-7.3,1.4-13.8,5.1-19.5,9.8-3.3,2.7-6.2,5.8-9,9-1.2,1.5,.9,3.6,2.1,2.1h0Z"/>
        <path d="M59,407c10.6,.9,20.2,7.6,24.8,17.2,.8,1.7,3.4,.2,2.6-1.5-5.1-10.5-15.8-17.7-27.4-18.7-1.9-.2-1.9,2.8,0,3h0Z"/>
        <g>
          <path d="M805.3,445.6c-10.4-7.6-25-9-36.7-3.4" style="fill: #fff;"/>
          <path d="M806.1,444.3c-11-7.9-26-9.1-38.2-3.4-1.7,.8-.2,3.4,1.5,2.6,11.3-5.3,25.1-3.8,35.2,3.4,1.6,1.1,3.1-1.5,1.5-2.6h0Z"/>
        </g>
        <path d="M429.4,439.1c2.9-5.7,10.2-8.4,16.2-6.1,.8,.3,1.6-.3,1.8-1,.2-.8-.3-1.5-1-1.8-7.2-2.8-16.1,.6-19.6,7.5-.9,1.7,1.7,3.2,2.6,1.5h0Z"/>
      </g>
      <g>
        <g>
          <g>
            <path d="M1101.2,290.4c0,87-70.5,147.9-157.5,147.9s-157.5-60.9-157.5-147.9,70.5-157.5,157.5-157.5,157.5,70.5,157.5,157.5Z" style="fill: #fff;"/>
            <path d="M943.7,440.1c-90.8,0-159.3-64.4-159.3-149.7s71.5-159.3,159.3-159.3,159.3,71.5,159.3,159.3-68.5,149.7-159.3,149.7Zm0-305.4c-85.9,0-155.7,69.9-155.7,155.7s66.9,146.1,155.7,146.1,155.7-62.8,155.7-146.1-69.9-155.7-155.7-155.7Z"/>
          </g>
          <g>
            <path d="M1045.9,110c0,59.8-48.4,101-108.2,101s-108.2-41.2-108.2-101S877.9,1.8,937.7,1.8s108.2,48.4,108.2,108.2Z" style="fill: #fff;"/>
            <path d="M937.7,212.8c-29.8,0-57.4-10.1-77.7-28.6-20.8-18.9-32.3-45.3-32.3-74.2,0-60.7,49.4-110,110-110s110,49.4,110,110-11.5,55.3-32.3,74.2c-20.3,18.4-47.9,28.6-77.7,28.6Zm0-209.2c-58.7,0-106.4,47.7-106.4,106.4s11,53.4,31.1,71.6c19.6,17.8,46.4,27.6,75.3,27.6s55.7-9.8,75.3-27.6c20.1-18.2,31.1-43.6,31.1-71.6,0-58.7-47.7-106.4-106.4-106.4Z"/>
          </g>
          <path d="M925.6,91.4c-3.6,0-6.6,3-6.6,6.6s3,6.6,6.6,6.6,6.6-3,6.6-6.6-3-6.6-6.6-6.6Z"/>
          <g>
            <circle cx="897.6" cy="247" r="5.4" style="fill: #3fa6f2;"/>
            <path d="M897.6,254.2c-4,0-7.2-3.2-7.2-7.2s3.2-7.2,7.2-7.2,7.2,3.2,7.2,7.2-3.2,7.2-7.2,7.2Zm0-10.7c-2,0-3.6,1.6-3.6,3.6s1.6,3.6,3.6,3.6,3.6-1.6,3.6-3.6-1.6-3.6-3.6-3.6Z"/>
          </g>
          <g>
            <circle cx="894.9" cy="279.3" r="5.4" style="fill: #3fa6f2;"/>
            <path d="M894.9,286.4c-4,0-7.2-3.2-7.2-7.2s3.2-7.2,7.2-7.2,7.2,3.2,7.2,7.2-3.2,7.2-7.2,7.2Zm0-10.7c-2,0-3.6,1.6-3.6,3.6s1.6,3.6,3.6,3.6,3.6-1.6,3.6-3.6-1.6-3.6-3.6-3.6Z"/>
          </g>
          <g>
            <circle cx="896.3" cy="311.5" r="5.4" style="fill: #3fa6f2;"/>
            <path d="M896.3,318.6c-4,0-7.2-3.2-7.2-7.2s3.2-7.2,7.2-7.2,7.2,3.2,7.2,7.2-3.2,7.2-7.2,7.2Zm0-10.7c-2,0-3.6,1.6-3.6,3.6s1.6,3.6,3.6,3.6,3.6-1.6,3.6-3.6-1.6-3.6-3.6-3.6Z"/>
          </g>
          <path d="M894.4,86.6c-3.6,0-6.6,3-6.6,6.6s3,6.6,6.6,6.6,6.6-3,6.6-6.6-3-6.6-6.6-6.6Z"/>
          <g>
            <g>
              <path d="M887.4,108c-15.9-1.6-25.1,3.8-41,6.7-7.9,1.5-15.9,1.9-23.8,2.7-1.1,.1-2.4,.3-3,1.3-.9,1.4,.4,3.3,1.8,4.3,8.1,6.4,18.9,7.8,29.1,9,9.9,1.2,19.8,2.3,29.7,2.7,6.4,.2,13.1,0,18.6-3.1,5.5-3.2,9.3-10.3,6.6-16.1-2.9-6.4-11-7-18-7.6" style="fill: #ff5d03;"/>
              <path d="M887.4,106.2c-6.8-.6-13.5,0-20.1,1.5-6.6,1.5-13.1,3.6-19.7,4.9-7.8,1.6-15.7,2.1-23.6,2.8-2.9,.3-6.9,.9-6.5,4.8,.4,3.1,3.7,5.1,6.1,6.6,5.8,3.4,12.4,5,19,6.1,7.5,1.2,15.1,1.9,22.7,2.7,7.5,.7,15.2,1.6,22.7,1,6.4-.5,12.7-2.5,16.7-7.8,3.9-5.1,4.7-12.5,0-17.3-4.4-4.5-11.4-4.8-17.3-5.3-2.3-.2-2.3,3.4,0,3.6,4.5,.3,9.9,.5,13.7,3.3,4.1,3,4,8.4,1.5,12.5-3.1,5-9,6.9-14.6,7.4-6.6,.5-13.5-.1-20.1-.7-6.9-.6-13.8-1.4-20.7-2.3-5.8-.7-11.8-1.7-17.3-3.9-2.6-1.1-5.4-2.5-7.6-4.3-.7-.6-2.1-1.8-.7-2.2,1.7-.5,3.7-.4,5.4-.6,6.9-.6,13.9-1.2,20.8-2.6,6.6-1.3,12.9-3.3,19.4-4.8,6.6-1.6,13.2-2.2,20-1.6,2.3,.2,2.3-3.4,0-3.6h0Z"/>
            </g>
            <path d="M881.7,107.5c-.8,3,.6,6.5,3.4,7.9,.8,.4,2,.2,2.5-.6,.4-.8,.2-2-.6-2.5-.3-.1-.5-.3-.8-.5,.1,0,.2,.2,.4,.3-.3-.3-.6-.6-.9-.9,0,.1,.2,.2,.3,.4-.3-.4-.5-.8-.7-1.2l.2,.4c-.2-.4-.3-.9-.4-1.3,0,.2,0,.3,0,.5,0-.4,0-.9,0-1.3,0,.2,0,.3,0,.5,0-.2,0-.4,.1-.6,.2-.9-.3-2-1.3-2.2-.9-.2-2,.3-2.2,1.3h0Z"/>
            <path d="M873.1,107.7c-2,3.1-1.5,7.5,1,10.2,.7,.7,1.9,.7,2.6,0,.7-.7,.7-1.8,0-2.6-.1-.1-.2-.3-.3-.4-.1-.2,.3,.4,0,0,0,0,0-.1-.1-.2,0-.1-.2-.3-.3-.4,0,0-.1-.4-.2-.5,0,0,.1,.4,0,.1,0,0,0-.2,0-.3,0-.2-.1-.3-.1-.5,0-.2,0-.3-.1-.5,0,0,0-.3,0,0,0,.3,0,0,0,0,0-.3,0-.6,0-1,0,0,0-.2,0-.3,0-.3,0,0,0,.1,0-.2,0-.3,0-.5,0-.2,0-.3,.1-.5,0,0,0-.2,0-.3,0,0,.1-.3,0,0-.1,.3,0,0,0,0,0,0,0-.1,.1-.2,0-.2,.2-.3,.3-.5,.5-.8,.2-2-.6-2.5-.9-.5-1.9-.2-2.5,.6h0Z"/>
            <path d="M862.3,112.5c-.4,2.1,0,4.3,1.2,6.1,.3,.4,.6,.7,1.1,.8,.4,.1,1,0,1.4-.2,.4-.2,.7-.6,.8-1.1,.1-.4,0-1-.2-1.4-.3-.4-.5-.8-.7-1.2,0,.1,.1,.3,.2,.4-.2-.5-.4-1-.4-1.6,0,.2,0,.3,0,.5,0-.5,0-1.1,0-1.6v.5c0,0,0-.2,0-.3,0-.5,0-1-.2-1.4-.2-.4-.6-.7-1.1-.8-.5-.1-1,0-1.4,.2-.4,.2-.7,.6-.8,1.1h0Z"/>
          </g>
          <path d="M911.8,154.9c-.3-1.8-1.1-3.6-2.1-5.1-1.1-1.7-2.6-3.4-4.6-3.7-2.5-.5-4.7,.4-5.9,2.7-1,1.8-.7,3.8-.6,5.8,0,1.9,.1,3.8,.1,5.7,0,2-.2,4.3,.9,6.1,1.1,1.6,3.1,2.4,5,2.3,2-.2,3.6-1.2,4.9-2.8,2.4-3.1,3-7.2,2.3-11Z"/>
          <path d="M901.3,181.8c4.5,1.5,9.6-.4,12.2-4.2,.5-.8,.2-2-.6-2.5-.9-.5-1.9-.2-2.5,.6,0,0-.1,.2-.2,.3-.1,.2,.3-.3,0,0-.1,.2-.3,.3-.4,.5-.1,.2-.3,.3-.5,.4,0,0-.2,.2-.3,.2-.2,.1,.3-.2,0,0-.4,.3-.7,.5-1.2,.7-.2,0-.4,.2-.6,.3,.2,0,.1,0,0,0-.1,0-.2,0-.3,.1-.4,.1-.8,.2-1.2,.3,0,0-.5,0-.2,0,.3,0-.1,0-.2,0-.2,0-.4,0-.6,0-.2,0-.5,0-.7,0-.1,0-.2,0-.4,0-.2,0,0,0,0,0-.5-.1-.9-.2-1.4-.3-.9-.3-2,.3-2.2,1.3-.2,1,.3,1.9,1.3,2.2h0Z"/>
        </g>
        <g>
          <path d="M857.6,437.6c11.7-6.4,25.6-8.6,38.6-6,5.2,1,10.5,2.8,15.8,2.3,7.5-.6,14-5.5,21.5-6.3,6.1-.7,12.2,1.4,18.2,.4,3.5-.6,6.7-2.1,9.9-3.6,18.2-8.4,37.5-15.1,57.5-16.8,20-1.7,40.9,1.9,57.7,12.8l-3.9,26.9-215.4,4.9v-14.5Z" style="fill: #fff;"/>
          <g>
            <path d="M857.6,437.6c11.7-6.4,25.6-8.6,38.6-6,5.2,1,10.5,2.8,15.8,2.3,7.5-.6,14-5.5,21.5-6.3,6.1-.7,12.2,1.4,18.2,.4,3.5-.6,6.7-2.1,9.9-3.6,18.2-8.4,37.5-15.1,57.5-16.8,20-1.7,40.9,1.9,57.7,12.8" style="fill: #fff;"/>
            <path d="M858.5,439.1c6.4-3.5,13.5-5.7,20.7-6.5,7.4-.8,14.5,.1,21.7,1.8,3.6,.8,7.4,1.6,11.1,1.3,3.5-.3,6.8-1.4,10.1-2.7,3.3-1.3,6.5-2.7,9.9-3.4,3.8-.8,7.7-.2,11.5,.2,3.8,.4,7.6,.4,11.3-.6,3.5-1,6.8-2.7,10.1-4.2,7-3.2,14.2-6,21.5-8.4,14.2-4.7,29.1-7.7,44.1-7.5,16,.3,32,4.2,45.6,12.9,2,1.3,3.8-1.9,1.8-3.1-25.5-16.3-57.5-16-85.6-7.9-7.4,2.1-14.7,4.8-21.9,7.8-3.6,1.5-7.2,3.1-10.8,4.7-3.6,1.6-7.1,3-11.1,3-3.9,0-7.7-.7-11.6-.8-3.6,0-7.1,.7-10.5,1.9-3.3,1.2-6.5,2.7-9.9,3.7-3.8,1.1-7.5,1.1-11.3,.4-4.2-.8-8.3-1.9-12.5-2.5-4.1-.5-8.3-.6-12.4-.2-8.3,.7-16.3,3.1-23.6,7.1-2,1.1-.2,4.2,1.8,3.1h0Z"/>
          </g>
        </g>
      </g>
    </g>
  </g>
</svg>