<?xml version="1.0" encoding="UTF-8"?>
<svg id="Layer_2" data-name="Layer 2" xmlns="http://www.w3.org/2000/svg" viewBox="0 0 1135.6 69.8">
  <g id="BUTTON">
    <g>
      <g>
        <path d="M.7,2.8C19.1,13.2,39.3,20.2,60.1,23.3c10.2,1.5,20.5,2.2,30.9,1.9,5.2-.2,10.5-.6,15.7-1.2,4.3-.5,8.8-1,12.9-2.3,6.1-1.9,13.5-8.5,9.8-15.6-1.6-3.1-5.3-4.3-8.5-3.3-2.9,.9-4.4,3.7-4.5,6.6,0,9.3,10.5,10.5,17.5,10.9,9.4,.6,18.7,1.8,28,3.2,18.8,2.7,37.5,6.1,56.5,7.2,17.5,1,35.7,0,52-7,3.9-1.6,7.6-3.6,11.2-5.9,1.8-1.1,3.5-2.3,5.2-3.6,1.4-1.1,3.2-2.2,3.8-3.9,1-2.9-1.2-6.2-4.3-6.3-3.7,0-6.4,3.2-6.6,6.6-.6,10.3,11.6,12.2,19.2,13.1,11.9,1.3,23.8,1.9,35.8,2,47.6,.2,94.6-8.4,141.1-17.8,5.6-1.1,11.3-2.3,16.9-3.5,1.9-.4,1.1-3.3-.8-2.9-40.6,8.4-81.4,16.7-122.9,19.9-20.5,1.5-41.1,1.8-61.5,.1-5.1-.4-10.3-.7-15.3-1.8-4.1-.9-8.7-3-9.4-7.6-.4-2.2,.6-4.8,3.1-5.1,1,0,1.8,.4,2,1.5,.1,1.2-1,1.8-1.8,2.5-3.1,2.4-6.4,4.6-9.8,6.5-28.3,15.6-63.1,10.6-93.5,6-16-2.4-32.1-5.1-48.3-6.3-4.2-.3-9.5-.2-12.9-3.2-1.9-1.8-3.1-5.9-.8-7.9,1.2-1.1,3.4-1.1,4.8-.3,1.8,1.1,2.1,3.4,1.7,5.3-.8,3.6-3.7,5.9-7,7.1-3.4,1.3-7.1,1.8-10.7,2.3-4.6,.7-9.3,1.1-14,1.4-9.2,.5-18.4,.3-27.5-.7-18.4-2-36.6-7-53.4-14.8C10.2,4.5,6.2,2.4,2.2,.2,.6-.7-.9,1.8,.7,2.8H.7Z" style="fill: #241716;"/>
        <g>
          <g>
            <path d="M91.6,32.3c-1.2,6.2-2.9,22.1,10.2,29,1.1,.6,2.4,.6,3.5,0,4.2-2.6,14.1-11,7.1-30.3-.5-1.4-1.9-2.4-3.5-2.3l-14.1,.9c-1.6,0-2.8,1.2-3.2,2.8Z" style="fill: #3fa6f2;"/>
            <path d="M103.5,62.8c-.7,0-1.5-.2-2.2-.5-13.6-7.2-12-23.5-10.7-30.1h0c.4-2,2.1-3.4,4.1-3.6l14.1-.9c2-.1,3.8,1.1,4.5,3,7.2,19.9-2.8,28.6-7.5,31.5-.7,.4-1.5,.7-2.3,.7Zm-10.9-30.3h0c-1.2,6.2-2.8,21.4,9.7,28,.8,.4,1.7,.4,2.5,0,4.2-2.6,13.4-10.6,6.7-29.1-.4-1-1.4-1.7-2.5-1.6l-14.1,.9c-1.1,0-2,.9-2.2,2Z" style="fill: #241716;"/>
          </g>
          <rect x="89.7" y="22.1" width="24" height="6.7" rx="1.5" ry="1.5" transform="translate(-1.4 6.5) rotate(-3.7)" style="fill: #241716;"/>
          <path d="M103.9,43.6c-.7,0-1.3-.2-2-.5-2.1-1.1-3.2-3.7-2.8-6.1,0-.3,.2-.7,.4-1.2-1-.9-1.5-2.6-1-4.3,.4-1.4,1.3-2.6,2.6-3.6,1.1-.8,2.3-1.2,3.4-1.6,.5-.2,1.1,0,1.3,.6,.2,.5,0,1.1-.6,1.3-1,.4-2,.7-2.9,1.4-.5,.4-1.5,1.2-1.8,2.4-.2,.7-.1,1.5,.2,2,.9-1.2,2.1-2.2,3.1-2.2h0c.7,0,1.5,.4,1.7,1.6,.1,.7,.5,2.9-.9,3.8-.8,.5-1.9,.4-3.3-.3,0,.1,0,.3-.1,.4-.3,1.6,.5,3.3,1.7,4,.3,.2,.9,.4,1.5,.2,.5-.2,1-.6,1.1-1.1,.2-.5,.7-.8,1.3-.6,.5,.2,.8,.7,.6,1.3-.4,1.1-1.3,2.1-2.4,2.4-.3,.1-.7,.2-1.1,.2Zm-1.7-8.4c.9,.4,1.2,.4,1.2,.4,0,0,.2-.3,0-1.6-.3,.2-.8,.7-1.2,1.3Z" style="fill: #241716;"/>
          <path d="M106.6,55.6c-.3,0-.6-.1-.8-.4-.4-.4-.3-1.1,.1-1.4,1.7-1.4,2.7-3.6,2.8-5.8,0-.6,.5-1,1-1,.6,0,1,.5,1,1-.1,2.8-1.4,5.5-3.5,7.3-.2,.2-.4,.2-.6,.2Z" style="fill: #fff;"/>
        </g>
        <g>
          <g>
            <g>
              <path d="M39.4,27.9c-2.7,5.8-8.1,20.8,3,30.6,.9,.8,2.2,1.1,3.4,.8,4.7-1.5,16.3-7.3,14.1-27.7-.2-1.5-1.3-2.8-2.8-3.1l-13.9-2.5c-1.5-.3-3.1,.5-3.7,1.9Z" style="fill: #cb1515;"/>
              <path d="M44.7,60.4c-1.1,0-2.2-.4-3-1.2-11.5-10.2-6.1-25.6-3.2-31.8h0c.8-1.8,2.8-2.8,4.8-2.5l13.9,2.5c1.9,.3,3.4,2,3.6,3.9,2.3,21-9.6,27.1-14.8,28.8-.4,.1-.9,.2-1.4,.2Zm-4.4-32.1h0c-2.7,5.7-7.8,20.1,2.7,29.5,.7,.6,1.6,.8,2.4,.6,4.7-1.5,15.6-7.1,13.4-26.7-.1-1.1-.9-2-2-2.2l-13.9-2.5c-1.1-.2-2.2,.4-2.6,1.4Z" style="fill: #241716;"/>
            </g>
            <rect x="38.7" y="19.3" width="25" height="7.7" rx="1.5" ry="1.5" transform="translate(4.9 -8.6) rotate(10.1)" style="fill: #241716;"/>
            <path d="M49.3,44c-.2,0-.4,0-.6-.2-1.9-1.4-2.8-3-2.9-4.6,0-1.3,.5-2.6,1.6-3.9-.5-.6-1-1.3-1.3-2-.7-1.8-.9-3.9-.4-6.5,.1-.5,.6-.9,1.2-.8,.5,.1,.9,.6,.8,1.2-.4,2.2-.3,3.9,.3,5.3,.2,.5,.5,1,.9,1.4,.2-.1,.3-.3,.5-.4,.9-.7,1.8-1.1,2.6-1,.7,0,1.4,.3,1.8,.8,.4,.4,.6,1,.6,1.6,0,1.4-1.5,2.3-2.8,2.3-.9,0-1.8-.2-2.6-.6-.8,.9-1.2,1.8-1.2,2.7,0,1,.7,2.1,2.1,3.1,.4,.3,.5,1,.2,1.4-.2,.3-.5,.4-.8,.4Zm1.4-9c.3,0,.6,.1,.9,.1,.5,0,.9-.3,.9-.4,0,0,0,0,0-.1-.1-.1-.3-.2-.4-.2-.4,0-.8,.2-1.3,.6Z" style="fill: #241716;"/>
          </g>
          <path d="M48.3,53.9c-.4,0-.8-.2-.9-.6-.2-.5,0-1.1,.5-1.3,2-.8,3.7-2.6,4.5-4.7,.2-.5,.8-.8,1.3-.6,.5,.2,.8,.8,.6,1.3-1,2.6-3.1,4.8-5.6,5.8-.1,0-.3,0-.4,0Z" style="fill: #fff;"/>
        </g>
        <g>
          <g>
            <g>
              <path d="M148.4,29.9c-2.7,5.8-8.1,20.8,3,30.6,.9,.8,2.2,1.1,3.4,.8,4.7-1.5,16.3-7.3,14.1-27.7-.2-1.5-1.3-2.8-2.8-3.1l-13.9-2.5c-1.5-.3-3.1,.5-3.7,1.9Z" style="fill: #ff901e;"/>
              <path d="M153.7,62.4c-1.1,0-2.2-.4-3-1.2-11.5-10.2-6.1-25.6-3.2-31.8h0c.8-1.8,2.8-2.8,4.8-2.5l13.9,2.5c1.9,.3,3.4,2,3.6,3.9,2.3,21-9.6,27.1-14.8,28.8-.4,.1-.9,.2-1.4,.2Zm-4.4-32.1h0c-2.7,5.7-7.8,20.1,2.7,29.5,.7,.6,1.6,.8,2.4,.6,4.7-1.5,15.6-7.1,13.4-26.7-.1-1.1-.9-2-2-2.2l-13.9-2.5c-1.1-.2-2.2,.4-2.6,1.4Z" style="fill: #241716;"/>
            </g>
            <rect x="147.7" y="21.3" width="25" height="7.7" rx="1.5" ry="1.5" transform="translate(6.9 -27.8) rotate(10.1)" style="fill: #241716;"/>
            <path d="M158.3,46c-.2,0-.4,0-.6-.2-1.9-1.4-2.8-3-2.9-4.6,0-1.3,.5-2.6,1.6-3.9-.5-.6-1-1.3-1.3-2-.7-1.8-.9-3.9-.4-6.5,.1-.5,.6-.9,1.2-.8,.5,.1,.9,.6,.8,1.2-.4,2.2-.3,3.9,.3,5.3,.2,.5,.5,1,.9,1.4,.2-.1,.3-.3,.5-.4,.9-.7,1.8-1.1,2.6-1,.7,0,1.4,.3,1.8,.8,.4,.4,.6,1,.6,1.6,0,1.4-1.5,2.3-2.8,2.3-.9,0-1.8-.2-2.6-.6-.8,.9-1.2,1.8-1.2,2.7,0,1,.7,2.1,2.1,3.1,.4,.3,.5,1,.2,1.4-.2,.3-.5,.4-.8,.4Zm1.4-9c.3,0,.6,.1,.9,.1,.5,0,.9-.3,.9-.4,0,0,0,0,0-.1-.1-.1-.3-.2-.4-.2-.4,0-.8,.2-1.3,.6Z" style="fill: #241716;"/>
          </g>
          <path d="M157.3,55.9c-.4,0-.8-.2-.9-.6-.2-.5,0-1.1,.5-1.3,2-.8,3.7-2.6,4.5-4.7,.2-.5,.8-.8,1.3-.6,.5,.2,.8,.8,.6,1.3-1,2.6-3.1,4.8-5.6,5.8-.1,0-.3,0-.4,0Z" style="fill: #fff;"/>
        </g>
        <g>
          <g>
            <path d="M259.4,34.7c.6,6.3,3.4,22,17.9,25,1.2,.3,2.5-.1,3.3-1.1,3.3-3.7,10.5-14.5-1.7-31.1-.9-1.2-2.5-1.8-4-1.2l-13.3,4.8c-1.5,.5-2.4,2-2.3,3.5Z" style="fill: #3fa6f2;"/>
            <path d="M278.1,60.8c-.3,0-.6,0-1,0-15.1-3.1-18.1-19.1-18.7-25.9-.2-2,1-3.9,2.9-4.6l13.3-4.8c1.8-.7,3.9,0,5.1,1.6,12.5,17,5.3,28.3,1.6,32.3-.9,.9-2,1.5-3.3,1.5Zm-2-33.6c-.3,0-.5,0-.8,.1l-13.3,4.8c-1,.4-1.7,1.4-1.6,2.5h0c.6,6.3,3.4,21.3,17.1,24.1,.9,.2,1.8,0,2.4-.7,3.3-3.7,9.9-14-1.8-29.8-.5-.7-1.2-1-2-1Z" style="fill: #241716;"/>
          </g>
          <rect x="255.2" y="21.9" width="24" height="6.7" rx="1.5" ry="1.5" transform="translate(7.4 92.7) rotate(-20)" style="fill: #241716;"/>
          <path d="M273.3,42.2c-.3,0-.6,0-.9,0-2.3-.5-4.1-2.6-4.4-5.1,0-.4,0-.8,0-1.2-1.3-.6-2.1-2.1-2.2-3.8,0-1.4,.5-2.9,1.5-4.1,.8-1.1,1.9-1.8,2.8-2.5,.4-.3,1.1-.2,1.4,.2,.3,.4,.2,1.1-.2,1.4-.9,.6-1.7,1.3-2.4,2.1-.4,.5-1.1,1.6-1,2.8,0,.7,.3,1.4,.7,1.8,.5-1.4,1.4-2.7,2.4-3,.6-.2,1.5,0,2,1.1,.3,.7,1.3,2.7,.2,3.9-.6,.7-1.7,.9-3.3,.6,0,.2,0,.3,0,.4,.2,1.6,1.4,3.1,2.8,3.4,.3,0,1,.1,1.5-.2,.4-.3,.7-.8,.8-1.4,0-.6,.5-1,1-1,.6,0,1,.5,1,1,0,1.2-.7,2.4-1.7,3-.6,.4-1.3,.6-2.1,.6Zm-2.8-7.8c1,.2,1.3,0,1.3,0,0,0,.1-.4-.4-1.5-.3,.3-.6,.9-.8,1.6Z" style="fill: #241716;"/>
          <path d="M280.1,52.9c-.2,0-.4,0-.5-.2-.5-.3-.6-.9-.3-1.4,1.2-1.9,1.6-4.2,1.1-6.4-.1-.5,.2-1.1,.7-1.2,.5-.1,1.1,.2,1.2,.7,.7,2.7,.2,5.7-1.3,8-.2,.3-.5,.5-.8,.5Z" style="fill: #fff;"/>
        </g>
        <g>
          <g>
            <g>
              <path d="M207.8,38.3c-1.8,6.1-5,21.7,7.3,29.9,1,.7,2.4,.8,3.5,.3,4.4-2.2,15.1-9.6,10-29.5-.4-1.5-1.7-2.6-3.2-2.6l-14.1-.5c-1.6,0-3,.9-3.4,2.4Z" style="fill: #cb1515;"/>
              <path d="M217.1,69.8c-.9,0-1.8-.3-2.5-.8-12.9-8.5-9.7-24.5-7.7-31h0c.6-1.9,2.4-3.2,4.4-3.2l14.1,.5c2,0,3.7,1.5,4.2,3.4,5.3,20.5-5.6,28.2-10.5,30.6-.6,.3-1.3,.4-1.9,.4Zm-8.4-31.2h0c-1.8,6.1-4.8,21,6.9,28.8,.8,.5,1.7,.6,2.5,.2,4.5-2.2,14.4-9.3,9.4-28.3-.3-1.1-1.2-1.8-2.3-1.9l-14.1-.5c-1.1,0-2.1,.7-2.4,1.7Z" style="fill: #241716;"/>
            </g>
            <rect x="206.3" y="28.1" width="25" height="7.7" rx="1.5" ry="1.5" transform="translate(1.2 -7.1) rotate(1.9)" style="fill: #241716;"/>
            <path d="M219.8,52.9c-.2,0-.3,0-.5-.1-2.1-1.1-3.2-2.5-3.5-4.2-.2-1.3,.2-2.7,1.1-4.1-.6-.5-1.2-1.1-1.6-1.8-1-1.6-1.4-3.7-1.3-6.3,0-.6,.5-1,1-1,.6,0,1,.5,1,1,0,2.2,.3,3.9,1,5.2,.3,.5,.7,.9,1.1,1.2,.1-.2,.3-.3,.4-.5,.8-.9,1.6-1.3,2.5-1.4,.7,0,1.4,.1,1.9,.6,.5,.4,.8,.9,.8,1.5,.1,1.4-1.1,2.4-2.4,2.7-.9,.2-1.8,0-2.7-.2-.7,1-1,2-.8,2.8,.2,1,1,1.9,2.5,2.7,.5,.3,.7,.9,.4,1.4-.2,.3-.5,.5-.9,.5Zm.2-9.1c.3,0,.6,0,.9,0,.5,0,.8-.4,.8-.5,0,0,0,0,0,0-.1,0-.3-.1-.5-.1-.4,0-.8,.3-1.2,.8Z" style="fill: #241716;"/>
          </g>
          <path d="M220.3,62.7c-.3,0-.7-.2-.9-.5-.3-.5-.1-1.1,.4-1.4,1.9-1.1,3.3-3.1,3.8-5.3,.1-.5,.6-.9,1.2-.8,.5,.1,.9,.6,.8,1.2-.6,2.7-2.3,5.2-4.7,6.6-.2,0-.3,.1-.5,.1Z" style="fill: #fff;"/>
        </g>
        <g>
          <g>
            <g>
              <path d="M367.6,32.7c-1.1,6.3-2.2,22.2,11,28.7,1.1,.6,2.4,.5,3.5-.2,4.1-2.7,13.8-11.4,6.2-30.5-.6-1.4-2-2.3-3.5-2.2l-14.1,1.3c-1.6,.1-2.8,1.3-3.1,2.9Z" style="fill: #cb1515;"/>
              <path d="M380.3,62.8c-.7,0-1.4-.2-2-.5-13.8-6.8-12.7-23.1-11.6-29.8h0c.3-2,2-3.5,4-3.7l14.1-1.3c2-.2,3.8,1,4.6,2.8,7.8,19.6-2,28.7-6.6,31.7-.7,.5-1.6,.7-2.4,.7Zm4.8-33.3c0,0-.1,0-.2,0l-14.1,1.3c-1.1,.1-2,.9-2.2,2h0c-1,6.2-2.1,21.5,10.5,27.7,.8,.4,1.8,.4,2.5-.1,4.2-2.7,13.1-11,5.8-29.3-.4-1-1.3-1.6-2.3-1.6Z" style="fill: #241716;"/>
            </g>
            <rect x="365.2" y="21.1" width="25" height="7.7" rx="1.5" ry="1.5" transform="translate(-.7 35.3) rotate(-5.3)" style="fill: #241716;"/>
            <path d="M381.2,45.6c-.1,0-.2,0-.4,0-2.2-.8-3.5-2.1-4-3.7-.4-1.3-.2-2.7,.5-4.2-.7-.4-1.3-.9-1.8-1.6-1.2-1.5-1.9-3.5-2.1-6.1,0-.5,.4-1,.9-1.1,.6,0,1,.4,1.1,.9,.2,2.2,.7,3.9,1.7,5.1,.3,.4,.8,.8,1.3,1.1,.1-.2,.2-.4,.4-.5,.7-.9,1.4-1.5,2.3-1.7,.7-.2,1.4,0,2,.3,.5,.3,.9,.8,1,1.3,.3,1.4-.8,2.6-2.1,3-.9,.3-1.8,.3-2.7,0-.5,1.1-.7,2.1-.5,2.9,.3,1,1.2,1.8,2.8,2.4,.5,.2,.8,.8,.6,1.3-.2,.4-.5,.6-.9,.6Zm-.8-9.1c.3,0,.6,0,.9-.1,.5-.2,.8-.5,.7-.6,0,0,0,0,0,0-.1,0-.3-.1-.5,0-.3,0-.7,.4-1.1,.9Z" style="fill: #241716;"/>
          </g>
          <path d="M382.9,55.4c-.3,0-.6-.1-.8-.4-.3-.4-.3-1.1,.2-1.4,1.8-1.4,2.9-3.5,3.1-5.7,0-.6,.5-1,1.1-.9,.6,0,1,.5,.9,1.1-.2,2.8-1.7,5.4-3.9,7.1-.2,.1-.4,.2-.6,.2Z" style="fill: #fff;"/>
        </g>
        <g>
          <g>
            <g>
              <path d="M316.8,33.3c-1.8,6.1-5,21.7,7.3,29.9,1,.7,2.4,.8,3.5,.3,4.4-2.2,15.1-9.6,10-29.5-.4-1.5-1.7-2.6-3.2-2.6l-14.1-.5c-1.6,0-3,.9-3.4,2.4Z" style="fill: #ff901e;"/>
              <path d="M326.1,64.8c-.9,0-1.8-.3-2.5-.8-12.9-8.5-9.7-24.5-7.7-31h0c.6-1.9,2.4-3.2,4.4-3.2l14.1,.5c2,0,3.7,1.5,4.2,3.4,5.3,20.5-5.6,28.2-10.5,30.6-.6,.3-1.3,.4-1.9,.4Zm-8.4-31.2h0c-1.8,6.1-4.8,21,6.9,28.8,.8,.5,1.7,.6,2.5,.2,4.5-2.2,14.4-9.3,9.4-28.3-.3-1.1-1.2-1.8-2.3-1.9l-14.1-.5c-1.1,0-2.1,.7-2.4,1.7Z" style="fill: #241716;"/>
            </g>
            <rect x="315.3" y="23.1" width="25" height="7.7" rx="1.5" ry="1.5" transform="translate(1.1 -10.7) rotate(1.9)" style="fill: #241716;"/>
            <path d="M328.8,47.9c-.2,0-.3,0-.5-.1-2.1-1.1-3.2-2.5-3.5-4.2-.2-1.3,.2-2.7,1.1-4.1-.6-.5-1.2-1.1-1.6-1.8-1-1.6-1.4-3.7-1.3-6.3,0-.6,.5-1,1-1,.6,0,1,.5,1,1,0,2.2,.3,3.9,1,5.2,.3,.5,.7,.9,1.1,1.2,.1-.2,.3-.3,.4-.5,.8-.9,1.6-1.3,2.5-1.4,.7,0,1.4,.1,1.9,.6,.5,.4,.8,.9,.8,1.5,.1,1.4-1.1,2.4-2.4,2.7-.9,.2-1.8,0-2.7-.2-.7,1-1,2-.8,2.8,.2,1,1,1.9,2.5,2.7,.5,.3,.7,.9,.4,1.4-.2,.3-.5,.5-.9,.5Zm.2-9.1c.3,0,.6,0,.9,0,.5,0,.8-.4,.8-.5,0,0,0,0,0,0-.1,0-.3-.1-.5-.1-.4,0-.8,.3-1.2,.8Z" style="fill: #241716;"/>
          </g>
          <path d="M329.3,57.7c-.3,0-.7-.2-.9-.5-.3-.5-.1-1.1,.4-1.4,1.9-1.1,3.3-3.1,3.8-5.3,.1-.5,.6-.9,1.2-.8,.5,.1,.9,.6,.8,1.2-.6,2.7-2.3,5.2-4.7,6.6-.2,0-.3,.1-.5,.1Z" style="fill: #fff;"/>
        </g>
      </g>
      <g>
        <path d="M1133.3,.2c-32.1,18.3-70.3,25.7-107,20.4-6.4-.9-16.6-1.9-17.9-9.9-.3-1.7,0-3.6,1.5-4.7,1.4-1,3.9-1,5.2,.3,2.2,2.3,.8,6.4-1.4,8-3.5,2.7-8.5,2.6-12.8,2.9-3.9,.3-7.9,.7-11.8,1.1-8,.9-15.9,2.1-23.8,3.3-16.4,2.5-32.9,5.2-49.5,6-15.4,.8-31.2-.1-45.8-5.4-7.3-2.6-14.2-6.4-20.2-11.3-.7-.6-1.8-1.2-1.8-2.2,0-.9,.6-1.8,1.6-1.9,2.9-.3,3.9,3.3,3.5,5.5-1,4.6-5.6,6.5-9.7,7.4-9.9,2-20.5,2.3-30.6,2.6-10.2,.4-20.4,.3-30.5-.1-41.5-1.8-82.5-9.4-123.1-17.7-5-1-10-2.1-15.1-3.1-1.9-.4-2.7,2.5-.8,2.9,46.5,9.6,93.3,19.2,140.9,21,11.8,.4,23.5,.4,35.3-.3,6-.3,12.1-.8,18.1-1.5,4.6-.5,9.6-.9,13.6-3.6,3.1-2.1,5.4-5.6,5.1-9.4-.2-3.6-3.3-7-7.2-6.6-3,.4-4.8,3.7-3.7,6.4,.6,1.6,2.2,2.6,3.6,3.6,1.8,1.4,3.7,2.7,5.6,3.9,31.2,19.8,71.3,12.8,105.6,7.5,9.5-1.4,18.9-2.9,28.4-4,4.7-.5,9.3-1,14-1.3,4.2-.3,8.8-.5,12.4-2.9,4.9-3.2,6.7-12.8-.4-14.7-3.2-.9-6.7,.4-8.3,3.4-1.7,3.2-.6,7.5,1.4,10.3,4.7,6.4,14.5,6.9,21.7,7.8,10.4,1.3,20.9,1.6,31.3,.9,20.9-1.4,41.5-6.5,60.6-15.2,4.6-2.1,9.2-4.4,13.6-7,1.7-1,.2-3.5-1.5-2.6h0Z" style="fill: #241716;"/>
        <g>
          <g>
            <path d="M1044,32.3c1.2,6.2,2.9,22.1-10.2,29-1.1,.6-2.4,.6-3.5,0-4.2-2.6-14.1-11-7.1-30.3,.5-1.4,1.9-2.4,3.5-2.3l14.1,.9c1.6,0,2.8,1.2,3.2,2.8Z" style="fill: #3fa6f2;"/>
            <path d="M1032.1,62.8c-.8,0-1.6-.2-2.3-.7-4.7-2.9-14.7-11.7-7.5-31.5,.7-1.9,2.5-3.1,4.5-3l14.1,.9c2,.1,3.7,1.6,4.1,3.6h0c1.3,6.7,2.9,22.9-10.7,30.1-.7,.4-1.4,.5-2.2,.5Zm-5.6-33.1c-1,0-2,.7-2.3,1.7-6.7,18.5,2.4,26.5,6.7,29.1,.8,.5,1.7,.5,2.5,0,12.4-6.6,10.9-21.7,9.7-28h0c-.2-1.1-1.1-1.9-2.2-2l-14.1-.9c0,0-.1,0-.2,0Z" style="fill: #241716;"/>
          </g>
          <rect x="1021.9" y="22.1" width="24" height="6.7" rx="1.5" ry="1.5" transform="translate(2064 116.8) rotate(-176.3)" style="fill: #241716;"/>
          <path d="M1031.6,43.6c-.4,0-.7,0-1.1-.2-1.1-.3-2.1-1.3-2.4-2.4-.2-.5,.1-1.1,.6-1.3,.5-.2,1.1,.1,1.3,.6,.2,.5,.6,1,1.1,1.1,.6,.2,1.2,0,1.5-.2,1.3-.7,2-2.4,1.7-4,0-.1,0-.3-.1-.4-1.4,.7-2.5,.8-3.3,.3-1.4-.9-1-3.1-.9-3.8,.2-1.2,1-1.6,1.7-1.6h0c1,0,2.2,1,3.1,2.2,.3-.5,.4-1.3,.2-2-.3-1.2-1.3-2.1-1.8-2.4-.9-.6-1.9-1-2.9-1.4-.5-.2-.8-.8-.6-1.3,.2-.5,.8-.8,1.3-.6,1.1,.4,2.3,.8,3.4,1.6,1.3,.9,2.2,2.2,2.6,3.6,.4,1.6,0,3.4-1,4.3,.2,.4,.3,.8,.4,1.2,.5,2.5-.7,5.1-2.8,6.1-.6,.3-1.3,.5-2,.5Zm.5-8.1s.4,0,1.2-.4c-.4-.6-.9-1-1.2-1.3-.2,1.3,0,1.6,0,1.6h0Z" style="fill: #241716;"/>
          <path d="M1029,55.6c-.2,0-.5,0-.6-.2-2.1-1.8-3.4-4.5-3.5-7.3,0-.6,.4-1,1-1,.5,0,1,.4,1,1,0,2.2,1.1,4.4,2.8,5.8,.4,.4,.5,1,.1,1.4-.2,.2-.5,.4-.8,.4Z" style="fill: #fff;"/>
        </g>
        <g>
          <g>
            <g>
              <path d="M1096.2,27.9c2.7,5.8,8.1,20.8-3,30.6-.9,.8-2.2,1.1-3.4,.8-4.7-1.5-16.3-7.3-14.1-27.7,.2-1.5,1.3-2.8,2.8-3.1l13.9-2.5c1.5-.3,3.1,.5,3.7,1.9Z" style="fill: #cb1515;"/>
              <path d="M1090.9,60.4c-.5,0-.9,0-1.3-.2-5.2-1.7-17.1-7.8-14.8-28.8,.2-2,1.7-3.6,3.6-3.9l13.9-2.5c2-.4,4,.7,4.8,2.5h0c2.9,6.1,8.3,21.6-3.2,31.8-.9,.8-1.9,1.2-3,1.2Zm2.2-33.5c-.1,0-.3,0-.4,0l-13.9,2.5c-1.1,.2-1.9,1.1-2,2.2-2.1,19.5,8.7,25.2,13.4,26.7,.8,.3,1.7,0,2.4-.6,10.5-9.3,5.4-23.7,2.7-29.5-.4-.9-1.3-1.4-2.2-1.4Z" style="fill: #241716;"/>
            </g>
            <rect x="1071.9" y="19.3" width="25" height="7.7" rx="1.5" ry="1.5" transform="translate(2156 -144.9) rotate(169.9)" style="fill: #241716;"/>
            <path d="M1086.3,44c-.3,0-.6-.1-.8-.4-.3-.4-.2-1.1,.2-1.4,1.4-1,2-2,2.1-3.1,0-.8-.4-1.7-1.2-2.7-.8,.4-1.7,.7-2.6,.6-1.3,0-2.7-.9-2.8-2.3,0-.6,.2-1.1,.6-1.6,.5-.5,1.2-.8,1.8-.8,.8,0,1.7,.3,2.6,1,.2,.1,.3,.3,.5,.4,.4-.4,.7-.9,.9-1.4,.6-1.4,.7-3.1,.3-5.3,0-.5,.3-1.1,.8-1.2,.6-.1,1.1,.3,1.2,.8,.5,2.6,.3,4.7-.4,6.5-.3,.8-.8,1.4-1.3,2,1.1,1.3,1.7,2.6,1.6,3.9,0,1.7-1,3.2-2.9,4.6-.2,.1-.4,.2-.6,.2Zm-2.7-9.6h0c-.2,0-.3,0-.4,.2,0,0,0,0,0,.1,0,.1,.4,.4,.9,.4,.3,0,.6,0,.9-.1-.5-.4-.9-.6-1.3-.6Z" style="fill: #241716;"/>
          </g>
          <path d="M1087.2,53.9c-.1,0-.3,0-.4,0-2.6-1-4.7-3.2-5.6-5.8-.2-.5,0-1.1,.6-1.3,.5-.2,1.1,0,1.3,.6,.8,2.1,2.4,3.8,4.5,4.7,.5,.2,.8,.8,.5,1.3-.2,.4-.5,.6-.9,.6Z" style="fill: #fff;"/>
        </g>
        <g>
          <g>
            <g>
              <path d="M987.2,29.9c2.7,5.8,8.1,20.8-3,30.6-.9,.8-2.2,1.1-3.4,.8-4.7-1.5-16.3-7.3-14.1-27.7,.2-1.5,1.3-2.8,2.8-3.1l13.9-2.5c1.5-.3,3.1,.5,3.7,1.9Z" style="fill: #ff901e;"/>
              <path d="M981.9,62.4c-.5,0-.9,0-1.3-.2-5.2-1.7-17.1-7.8-14.8-28.8,.2-2,1.7-3.6,3.6-3.9l13.9-2.5c2-.4,4,.7,4.8,2.5h0c2.9,6.1,8.3,21.6-3.2,31.8-.9,.8-1.9,1.2-3,1.2Zm2.2-33.5c-.1,0-.3,0-.4,0l-13.9,2.5c-1.1,.2-1.9,1.1-2,2.2-2.1,19.5,8.7,25.2,13.4,26.7,.8,.3,1.7,0,2.4-.6,10.5-9.3,5.4-23.7,2.7-29.5-.4-.9-1.3-1.4-2.2-1.4Z" style="fill: #241716;"/>
            </g>
            <rect x="962.9" y="21.3" width="25" height="7.7" rx="1.5" ry="1.5" transform="translate(1940.1 -121.7) rotate(169.9)" style="fill: #241716;"/>
            <path d="M977.3,46c-.3,0-.6-.1-.8-.4-.3-.4-.2-1.1,.2-1.4,1.4-1,2-2,2.1-3.1,0-.8-.4-1.7-1.2-2.7-.8,.4-1.7,.7-2.6,.6-1.3,0-2.7-.9-2.8-2.3,0-.6,.2-1.1,.6-1.6,.5-.5,1.2-.8,1.8-.8,.8,0,1.7,.3,2.6,1,.2,.1,.3,.3,.5,.4,.4-.4,.7-.9,.9-1.4,.6-1.4,.7-3.1,.3-5.3,0-.5,.3-1.1,.8-1.2,.6,0,1.1,.3,1.2,.8,.5,2.6,.3,4.7-.4,6.5-.3,.8-.8,1.4-1.3,2,1.1,1.3,1.7,2.6,1.6,3.9,0,1.7-1,3.2-2.9,4.6-.2,.1-.4,.2-.6,.2Zm-2.7-9.6h0c-.2,0-.3,0-.4,.2,0,0,0,0,0,.1,0,.1,.4,.4,.9,.4,.3,0,.6,0,.9-.1-.5-.4-.9-.6-1.3-.6Z" style="fill: #241716;"/>
          </g>
          <path d="M978.2,55.9c-.1,0-.3,0-.4,0-2.6-1-4.7-3.2-5.6-5.8-.2-.5,0-1.1,.6-1.3,.5-.2,1.1,0,1.3,.6,.8,2.1,2.4,3.8,4.5,4.7,.5,.2,.8,.8,.5,1.3-.2,.4-.5,.6-.9,.6Z" style="fill: #fff;"/>
        </g>
        <g>
          <g>
            <path d="M876.2,34.7c-.6,6.3-3.4,22-17.9,25-1.2,.3-2.5-.1-3.3-1.1-3.3-3.7-10.5-14.5,1.7-31.1,.9-1.2,2.5-1.8,4-1.2l13.3,4.8c1.5,.5,2.4,2,2.3,3.5Z" style="fill: #3fa6f2;"/>
            <path d="M857.5,60.8c-1.3,0-2.5-.5-3.3-1.5-3.7-4.1-10.9-15.3,1.6-32.3,1.2-1.6,3.3-2.3,5.1-1.6l13.3,4.8c1.9,.7,3.1,2.6,2.9,4.6h0c-.6,6.8-3.6,22.8-18.7,25.9-.3,0-.6,0-1,0Zm2-33.6c-.8,0-1.5,.4-2,1-11.6,15.8-5.1,26.1-1.8,29.8,.6,.7,1.5,.9,2.4,.7,13.8-2.8,16.6-17.8,17.1-24.1h0c0-1.1-.6-2.1-1.6-2.5l-13.3-4.8c-.3,0-.5-.1-.8-.1Z" style="fill: #241716;"/>
          </g>
          <rect x="856.4" y="21.9" width="24" height="6.7" rx="1.5" ry="1.5" transform="translate(1675.9 345.4) rotate(-160)" style="fill: #241716;"/>
          <path d="M862.3,42.2c-.8,0-1.5-.2-2.1-.6-1-.6-1.6-1.8-1.7-3,0-.6,.4-1,1-1,.5,0,1,.4,1,1,0,.6,.3,1.1,.8,1.4,.5,.4,1.2,.3,1.5,.2,1.4-.3,2.6-1.8,2.8-3.4,0-.1,0-.3,0-.4-1.6,.3-2.6,0-3.3-.6-1.1-1.3-.1-3.3,.2-3.9,.5-1.1,1.4-1.3,2-1.1,1,.3,1.9,1.6,2.4,3,.4-.4,.7-1.1,.7-1.8,0-1.3-.6-2.3-1-2.8-.7-.8-1.5-1.5-2.4-2.1-.4-.3-.5-1-.2-1.4,.3-.4,1-.5,1.4-.2,.9,.7,2,1.4,2.8,2.5,1,1.2,1.5,2.7,1.5,4.1,0,1.7-.9,3.2-2.2,3.8,0,.4,0,.9,0,1.2-.3,2.5-2.1,4.6-4.4,5.1-.3,0-.6,0-.9,0Zm1.6-7.8s.3,.2,1.3,0c-.3-.7-.6-1.2-.8-1.6-.6,1.2-.4,1.6-.4,1.6h0Z" style="fill: #241716;"/>
          <path d="M855.5,52.9c-.3,0-.6-.2-.8-.5-1.5-2.3-2-5.3-1.3-8,.1-.5,.7-.9,1.2-.7,.5,.1,.9,.7,.7,1.2-.5,2.1-.1,4.5,1.1,6.4,.3,.5,.2,1.1-.3,1.4-.2,.1-.4,.2-.5,.2Z" style="fill: #fff;"/>
        </g>
        <g>
          <g>
            <g>
              <path d="M927.8,38.3c1.8,6.1,5,21.7-7.3,29.9-1,.7-2.4,.8-3.5,.3-4.4-2.2-15.1-9.6-10-29.5,.4-1.5,1.7-2.6,3.2-2.6l14.1-.5c1.6,0,3,.9,3.4,2.4Z" style="fill: #cb1515;"/>
              <path d="M918.5,69.8c-.7,0-1.3-.1-1.9-.4-4.9-2.4-15.8-10.2-10.5-30.6,.5-1.9,2.2-3.3,4.2-3.4l14.1-.5c2,0,3.8,1.2,4.4,3.2,2,6.5,5.1,22.5-7.7,31-.8,.5-1.7,.8-2.5,.8Zm6-32.9s0,0,0,0l-14.1,.5c-1.1,0-2,.8-2.3,1.9-4.9,19,5,26.2,9.4,28.3,.8,.4,1.7,.3,2.5-.2,11.7-7.7,8.8-22.7,6.9-28.8h0c-.3-1-1.3-1.7-2.3-1.7Z" style="fill: #241716;"/>
            </g>
            <rect x="904.3" y="28.1" width="25" height="7.7" rx="1.5" ry="1.5" transform="translate(1834.1 34) rotate(178.1)" style="fill: #241716;"/>
            <path d="M915.8,52.9c-.4,0-.7-.2-.9-.5-.3-.5,0-1.1,.4-1.4,1.5-.8,2.3-1.7,2.5-2.7,.1-.8-.2-1.8-.8-2.8-.9,.3-1.8,.4-2.7,.2-1.3-.2-2.6-1.3-2.4-2.7,0-.6,.3-1.1,.8-1.5,.5-.4,1.3-.6,1.9-.6,.8,0,1.7,.6,2.5,1.4,.2,.2,.3,.3,.4,.5,.4-.4,.8-.8,1.1-1.2,.8-1.3,1.1-3,1-5.2,0-.6,.4-1,1-1,.6,0,1,.4,1,1,0,2.6-.3,4.7-1.3,6.3-.4,.7-1,1.3-1.6,1.8,.9,1.4,1.3,2.8,1.1,4.1-.3,1.7-1.4,3.1-3.5,4.2-.2,0-.3,.1-.5,.1Zm-1.5-9.9c-.1,0-.3,0-.4,.1,0,0,0,0,0,0,0,.1,.3,.4,.8,.5,.3,0,.6,0,.9,0-.5-.5-.9-.7-1.2-.8,0,0,0,0,0,0Z" style="fill: #241716;"/>
          </g>
          <path d="M915.3,62.7c-.2,0-.3,0-.5-.1-2.4-1.4-4.1-3.9-4.7-6.6-.1-.5,.2-1.1,.8-1.2,.5-.1,1.1,.2,1.2,.8,.5,2.2,1.9,4.1,3.8,5.3,.5,.3,.6,.9,.4,1.4-.2,.3-.5,.5-.9,.5Z" style="fill: #fff;"/>
        </g>
        <g>
          <g>
            <g>
              <path d="M768,32.7c1.1,6.3,2.2,22.2-11,28.7-1.1,.6-2.4,.5-3.5-.2-4.1-2.7-13.8-11.4-6.2-30.5,.6-1.4,2-2.3,3.5-2.2l14.1,1.3c1.6,.1,2.8,1.3,3.1,2.9Z" style="fill: #cb1515;"/>
              <path d="M755.3,62.8c-.9,0-1.7-.2-2.4-.7-4.6-3-14.4-12.1-6.6-31.7,.7-1.8,2.6-3,4.6-2.8l14.1,1.3c2,.2,3.6,1.7,4,3.7,1.1,6.7,2.2,23-11.6,29.8-.7,.3-1.4,.5-2,.5Zm-4.8-33.3c-1,0-1.9,.6-2.3,1.6-7.3,18.3,1.6,26.6,5.8,29.3,.7,.5,1.7,.5,2.5,.1,12.6-6.2,11.5-21.4,10.5-27.7h0c-.2-1.1-1.1-1.9-2.2-2l-14.1-1.3c0,0-.1,0-.2,0Z" style="fill: #241716;"/>
            </g>
            <rect x="745.4" y="21.1" width="25" height="7.7" rx="1.5" ry="1.5" transform="translate(1510.1 120.5) rotate(-174.7)" style="fill: #241716;"/>
            <path d="M754.4,45.6c-.4,0-.8-.2-.9-.6-.2-.5,0-1.1,.6-1.3,1.6-.6,2.5-1.4,2.8-2.4,.2-.8,0-1.8-.5-2.9-.9,.2-1.8,.2-2.7,0-1.2-.4-2.4-1.6-2.1-3,.1-.6,.5-1,1-1.3,.6-.4,1.3-.5,2-.3,.8,.2,1.6,.8,2.3,1.7,.1,.2,.3,.4,.4,.5,.5-.3,.9-.7,1.3-1.1,.9-1.2,1.5-2.8,1.7-5.1,0-.5,.5-1,1.1-.9,.6,0,1,.5,.9,1.1-.2,2.6-.9,4.6-2.1,6.1-.5,.7-1.1,1.2-1.8,1.6,.7,1.5,.9,3,.5,4.2-.5,1.6-1.8,2.9-4,3.7-.1,0-.2,0-.4,0Zm-.4-10c-.1,0-.2,0-.3,0,0,0,0,0,0,0,0,.1,.3,.5,.7,.6,.3,0,.6,.1,.9,.1-.4-.5-.8-.8-1.1-.9,0,0,0,0-.1,0Z" style="fill: #241716;"/>
          </g>
          <path d="M752.6,55.4c-.2,0-.4,0-.6-.2-2.2-1.7-3.6-4.3-3.9-7.1,0-.6,.4-1,.9-1.1,.6,0,1,.4,1.1,.9,.2,2.2,1.3,4.3,3.1,5.7,.4,.3,.5,1,.2,1.4-.2,.3-.5,.4-.8,.4Z" style="fill: #fff;"/>
        </g>
        <g>
          <g>
            <g>
              <path d="M818.8,33.3c1.8,6.1,5,21.7-7.3,29.9-1,.7-2.4,.8-3.5,.3-4.4-2.2-15.1-9.6-10-29.5,.4-1.5,1.7-2.6,3.2-2.6l14.1-.5c1.6,0,3,.9,3.4,2.4Z" style="fill: #ff901e;"/>
              <path d="M809.5,64.8c-.7,0-1.3-.1-1.9-.4-4.9-2.4-15.8-10.2-10.5-30.6,.5-1.9,2.2-3.3,4.2-3.4l14.1-.5c2,0,3.8,1.2,4.4,3.2,2,6.5,5.1,22.5-7.7,31-.8,.5-1.7,.8-2.5,.8Zm6-32.9s0,0,0,0l-14.1,.5c-1.1,0-2,.8-2.3,1.9-4.9,19,5,26.2,9.4,28.3,.8,.4,1.7,.3,2.5-.2,11.7-7.7,8.8-22.7,6.9-28.8h0c-.3-1-1.3-1.7-2.3-1.7Z" style="fill: #241716;"/>
            </g>
            <rect x="795.3" y="23.1" width="25" height="7.7" rx="1.5" ry="1.5" transform="translate(1616 27.5) rotate(178.1)" style="fill: #241716;"/>
            <path d="M806.8,47.9c-.4,0-.7-.2-.9-.5-.3-.5,0-1.1,.4-1.4,1.5-.8,2.3-1.7,2.5-2.7,.1-.8-.2-1.8-.8-2.8-.9,.3-1.8,.4-2.7,.2-1.3-.2-2.6-1.3-2.4-2.7,0-.6,.3-1.1,.8-1.5,.5-.4,1.3-.6,1.9-.6,.8,0,1.7,.6,2.5,1.4,.2,.2,.3,.3,.4,.5,.4-.4,.8-.8,1.1-1.2,.8-1.3,1.1-3,1-5.2,0-.6,.4-1,1-1,0,0,0,0,0,0,.5,0,1,.4,1,1,0,2.6-.3,4.7-1.3,6.3-.4,.7-1,1.3-1.6,1.8,.9,1.4,1.3,2.8,1.1,4.1-.3,1.7-1.4,3.1-3.5,4.2-.2,0-.3,.1-.5,.1Zm-1.5-9.9c-.1,0-.3,0-.4,.1,0,0,0,0,0,0,0,.1,.3,.4,.8,.5,.3,0,.6,0,.9,0-.5-.5-.9-.7-1.2-.8,0,0,0,0,0,0Z" style="fill: #241716;"/>
          </g>
          <path d="M806.3,57.7c-.2,0-.3,0-.5-.1-2.4-1.4-4.1-3.9-4.7-6.6-.1-.5,.2-1.1,.8-1.2,.5-.1,1.1,.2,1.2,.8,.5,2.2,1.9,4.1,3.8,5.3,.5,.3,.6,.9,.4,1.4-.2,.3-.5,.5-.9,.5Z" style="fill: #fff;"/>
        </g>
      </g>
    </g>
  </g>
</svg>