<?xml version="1.0" encoding="UTF-8"?>
<svg id="Layer_2" data-name="Layer 2" xmlns="http://www.w3.org/2000/svg" viewBox="0 0 1044.5 23.8">
  <g id="BG">
    <g>
      <g>
        <circle cx="194.9" cy="9.6" r="8.6" transform="translate(32.8 118.2) rotate(-36.7)" style="fill: #cb1515;"/>
        <path d="M194.9,19.3c-5.3,0-9.6-4.3-9.6-9.6s4.3-9.6,9.6-9.6,9.6,4.3,9.6,9.6-4.3,9.6-9.6,9.6Zm0-17.3c-4.2,0-7.6,3.4-7.6,7.6s3.4,7.6,7.6,7.6,7.6-3.4,7.6-7.6-3.4-7.6-7.6-7.6Z"/>
      </g>
      <g>
        <circle cx="142.1" cy="9.6" r="8.6" transform="translate(103.8 146.9) rotate(-78.3)" style="fill: #cb1515;"/>
        <path d="M142.1,19.3c-5.3,0-9.6-4.3-9.6-9.6s4.3-9.6,9.6-9.6,9.6,4.3,9.6,9.6-4.3,9.6-9.6,9.6Zm0-17.3c-4.2,0-7.6,3.4-7.6,7.6s3.4,7.6,7.6,7.6,7.6-3.4,7.6-7.6-3.4-7.6-7.6-7.6Z"/>
      </g>
      <g>
        <circle cx="115.6" cy="14.1" r="8.6" transform="translate(75.3 123.5) rotate(-76.7)" style="fill: #39b24a;"/>
        <path d="M115.6,23.8c-5.3,0-9.6-4.3-9.6-9.6s4.3-9.6,9.6-9.6,9.6,4.3,9.6,9.6-4.3,9.6-9.6,9.6Zm0-17.3c-4.2,0-7.6,3.4-7.6,7.6s3.4,7.6,7.6,7.6,7.6-3.4,7.6-7.6-3.4-7.6-7.6-7.6Z"/>
      </g>
      <g>
        <circle cx="170" cy="14.1" r="8.6" style="fill: #39b24a;"/>
        <path d="M170,23.8c-5.3,0-9.6-4.3-9.6-9.6s4.3-9.6,9.6-9.6,9.6,4.3,9.6,9.6-4.3,9.6-9.6,9.6Zm0-17.3c-4.2,0-7.6,3.4-7.6,7.6s3.4,7.6,7.6,7.6,7.6-3.4,7.6-7.6-3.4-7.6-7.6-7.6Z"/>
      </g>
      <g>
        <circle cx="88.9" cy="9.6" r="8.6" transform="translate(11.8 54.9) rotate(-36.7)" style="fill: #cb1515;"/>
        <path d="M88.9,19.3c-5.3,0-9.6-4.3-9.6-9.6S83.5,0,88.9,0s9.6,4.3,9.6,9.6-4.3,9.6-9.6,9.6Zm0-17.3c-4.2,0-7.6,3.4-7.6,7.6s3.4,7.6,7.6,7.6,7.6-3.4,7.6-7.6-3.4-7.6-7.6-7.6Z"/>
      </g>
      <g>
        <circle cx="36.1" cy="9.6" r="8.6" transform="translate(19.3 43.1) rotate(-78.3)" style="fill: #cb1515;"/>
        <path d="M36.1,19.3c-5.3,0-9.6-4.3-9.6-9.6S30.8,0,36.1,0s9.6,4.3,9.6,9.6-4.3,9.6-9.6,9.6Zm0-17.3c-4.2,0-7.6,3.4-7.6,7.6s3.4,7.6,7.6,7.6,7.6-3.4,7.6-7.6-3.4-7.6-7.6-7.6Z"/>
      </g>
      <g>
        <circle cx="9.6" cy="14.1" r="8.6" transform="translate(-6.3 20.3) rotate(-76.7)" style="fill: #39b24a;"/>
        <path d="M9.6,23.8C4.3,23.8,0,19.5,0,14.1S4.3,4.5,9.6,4.5s9.6,4.3,9.6,9.6-4.3,9.6-9.6,9.6Zm0-17.3c-4.2,0-7.6,3.4-7.6,7.6s3.4,7.6,7.6,7.6,7.6-3.4,7.6-7.6-3.4-7.6-7.6-7.6Z"/>
      </g>
      <g>
        <circle cx="64" cy="14.1" r="8.6" style="fill: #39b24a;"/>
        <path d="M64,23.8c-5.3,0-9.6-4.3-9.6-9.6s4.3-9.6,9.6-9.6,9.6,4.3,9.6,9.6-4.3,9.6-9.6,9.6Zm0-17.3c-4.2,0-7.6,3.4-7.6,7.6s3.4,7.6,7.6,7.6,7.6-3.4,7.6-7.6-3.4-7.6-7.6-7.6Z"/>
      </g>
      <g>
        <circle cx="404.9" cy="9.6" r="8.6" transform="translate(74.3 243.6) rotate(-36.7)" style="fill: #cb1515;"/>
        <path d="M404.9,19.3c-5.3,0-9.6-4.3-9.6-9.6s4.3-9.6,9.6-9.6,9.6,4.3,9.6,9.6-4.3,9.6-9.6,9.6Zm0-17.3c-4.2,0-7.6,3.4-7.6,7.6s3.4,7.6,7.6,7.6,7.6-3.4,7.6-7.6-3.4-7.6-7.6-7.6Z"/>
      </g>
      <g>
        <circle cx="352.1" cy="9.6" r="8.6" transform="translate(271 352.5) rotate(-78.3)" style="fill: #cb1515;"/>
        <path d="M352.1,19.3c-5.3,0-9.6-4.3-9.6-9.6s4.3-9.6,9.6-9.6,9.6,4.3,9.6,9.6-4.3,9.6-9.6,9.6Zm0-17.3c-4.2,0-7.6,3.4-7.6,7.6s3.4,7.6,7.6,7.6,7.6-3.4,7.6-7.6-3.4-7.6-7.6-7.6Z"/>
      </g>
      <g>
        <circle cx="325.6" cy="14.1" r="8.6" transform="translate(237.1 327.8) rotate(-76.7)" style="fill: #39b24a;"/>
        <path d="M325.6,23.8c-5.3,0-9.6-4.3-9.6-9.6s4.3-9.6,9.6-9.6,9.6,4.3,9.6,9.6-4.3,9.6-9.6,9.6Zm0-17.3c-4.2,0-7.6,3.4-7.6,7.6s3.4,7.6,7.6,7.6,7.6-3.4,7.6-7.6-3.4-7.6-7.6-7.6Z"/>
      </g>
      <g>
        <circle cx="380" cy="14.1" r="8.6" style="fill: #39b24a;"/>
        <path d="M380,23.8c-5.3,0-9.6-4.3-9.6-9.6s4.3-9.6,9.6-9.6,9.6,4.3,9.6,9.6-4.3,9.6-9.6,9.6Zm0-17.3c-4.2,0-7.6,3.4-7.6,7.6s3.4,7.6,7.6,7.6,7.6-3.4,7.6-7.6-3.4-7.6-7.6-7.6Z"/>
      </g>
      <g>
        <circle cx="298.9" cy="9.6" r="8.6" transform="translate(53.3 180.3) rotate(-36.7)" style="fill: #cb1515;"/>
        <path d="M298.9,19.3c-5.3,0-9.6-4.3-9.6-9.6s4.3-9.6,9.6-9.6,9.6,4.3,9.6,9.6-4.3,9.6-9.6,9.6Zm0-17.3c-4.2,0-7.6,3.4-7.6,7.6s3.4,7.6,7.6,7.6,7.6-3.4,7.6-7.6-3.4-7.6-7.6-7.6Z"/>
      </g>
      <g>
        <circle cx="246.1" cy="9.6" r="8.6" transform="translate(186.6 248.7) rotate(-78.3)" style="fill: #cb1515;"/>
        <path d="M246.1,19.3c-5.3,0-9.6-4.3-9.6-9.6s4.3-9.6,9.6-9.6,9.6,4.3,9.6,9.6-4.3,9.6-9.6,9.6Zm0-17.3c-4.2,0-7.6,3.4-7.6,7.6s3.4,7.6,7.6,7.6,7.6-3.4,7.6-7.6-3.4-7.6-7.6-7.6Z"/>
      </g>
      <g>
        <circle cx="219.6" cy="14.1" r="8.6" transform="translate(155.4 224.7) rotate(-76.7)" style="fill: #39b24a;"/>
        <path d="M219.6,23.8c-5.3,0-9.6-4.3-9.6-9.6s4.3-9.6,9.6-9.6,9.6,4.3,9.6,9.6-4.3,9.6-9.6,9.6Zm0-17.3c-4.2,0-7.6,3.4-7.6,7.6s3.4,7.6,7.6,7.6,7.6-3.4,7.6-7.6-3.4-7.6-7.6-7.6Z"/>
      </g>
      <g>
        <circle cx="274" cy="14.1" r="8.6" style="fill: #39b24a;"/>
        <path d="M274,23.8c-5.3,0-9.6-4.3-9.6-9.6s4.3-9.6,9.6-9.6,9.6,4.3,9.6,9.6-4.3,9.6-9.6,9.6Zm0-17.3c-4.2,0-7.6,3.4-7.6,7.6s3.4,7.6,7.6,7.6,7.6-3.4,7.6-7.6-3.4-7.6-7.6-7.6Z"/>
      </g>
      <g>
        <circle cx="614.9" cy="9.6" r="8.6" transform="translate(115.8 368.9) rotate(-36.7)" style="fill: #cb1515;"/>
        <path d="M614.9,19.3c-5.3,0-9.6-4.3-9.6-9.6s4.3-9.6,9.6-9.6,9.6,4.3,9.6,9.6-4.3,9.6-9.6,9.6Zm0-17.3c-4.2,0-7.6,3.4-7.6,7.6s3.4,7.6,7.6,7.6,7.6-3.4,7.6-7.6-3.4-7.6-7.6-7.6Z"/>
      </g>
      <g>
        <circle cx="562.1" cy="9.6" r="8.6" transform="translate(438.2 558.1) rotate(-78.3)" style="fill: #cb1515;"/>
        <path d="M562.1,19.3c-5.3,0-9.6-4.3-9.6-9.6s4.3-9.6,9.6-9.6,9.6,4.3,9.6,9.6-4.3,9.6-9.6,9.6Zm0-17.3c-4.2,0-7.6,3.4-7.6,7.6s3.4,7.6,7.6,7.6,7.6-3.4,7.6-7.6-3.4-7.6-7.6-7.6Z"/>
      </g>
      <g>
        <circle cx="535.6" cy="14.1" r="8.6" transform="translate(398.8 532.2) rotate(-76.7)" style="fill: #39b24a;"/>
        <path d="M535.6,23.8c-5.3,0-9.6-4.3-9.6-9.6s4.3-9.6,9.6-9.6,9.6,4.3,9.6,9.6-4.3,9.6-9.6,9.6Zm0-17.3c-4.2,0-7.6,3.4-7.6,7.6s3.4,7.6,7.6,7.6,7.6-3.4,7.6-7.6-3.4-7.6-7.6-7.6Z"/>
      </g>
      <g>
        <circle cx="590" cy="14.1" r="8.6" style="fill: #39b24a;"/>
        <path d="M590,23.8c-5.3,0-9.6-4.3-9.6-9.6s4.3-9.6,9.6-9.6,9.6,4.3,9.6,9.6-4.3,9.6-9.6,9.6Zm0-17.3c-4.2,0-7.6,3.4-7.6,7.6s3.4,7.6,7.6,7.6,7.6-3.4,7.6-7.6-3.4-7.6-7.6-7.6Z"/>
      </g>
      <g>
        <circle cx="508.9" cy="9.6" r="8.6" transform="translate(94.8 305.7) rotate(-36.7)" style="fill: #cb1515;"/>
        <path d="M508.9,19.3c-5.3,0-9.6-4.3-9.6-9.6s4.3-9.6,9.6-9.6,9.6,4.3,9.6,9.6-4.3,9.6-9.6,9.6Zm0-17.3c-4.2,0-7.6,3.4-7.6,7.6s3.4,7.6,7.6,7.6,7.6-3.4,7.6-7.6-3.4-7.6-7.6-7.6Z"/>
      </g>
      <g>
        <circle cx="456.1" cy="9.6" r="8.6" transform="translate(353.8 454.3) rotate(-78.3)" style="fill: #cb1515;"/>
        <path d="M456.1,19.3c-5.3,0-9.6-4.3-9.6-9.6s4.3-9.6,9.6-9.6,9.6,4.3,9.6,9.6-4.3,9.6-9.6,9.6Zm0-17.3c-4.2,0-7.6,3.4-7.6,7.6s3.4,7.6,7.6,7.6,7.6-3.4,7.6-7.6-3.4-7.6-7.6-7.6Z"/>
      </g>
      <g>
        <circle cx="429.6" cy="14.1" r="8.6" transform="translate(317.2 429.1) rotate(-76.7)" style="fill: #39b24a;"/>
        <path d="M429.6,23.8c-5.3,0-9.6-4.3-9.6-9.6s4.3-9.6,9.6-9.6,9.6,4.3,9.6,9.6-4.3,9.6-9.6,9.6Zm0-17.3c-4.2,0-7.6,3.4-7.6,7.6s3.4,7.6,7.6,7.6,7.6-3.4,7.6-7.6-3.4-7.6-7.6-7.6Z"/>
      </g>
      <g>
        <circle cx="484" cy="14.1" r="8.6" style="fill: #39b24a;"/>
        <path d="M484,23.8c-5.3,0-9.6-4.3-9.6-9.6s4.3-9.6,9.6-9.6,9.6,4.3,9.6,9.6-4.3,9.6-9.6,9.6Zm0-17.3c-4.2,0-7.6,3.4-7.6,7.6s3.4,7.6,7.6,7.6,7.6-3.4,7.6-7.6-3.4-7.6-7.6-7.6Z"/>
      </g>
      <g>
        <circle cx="824.9" cy="9.6" r="8.6" transform="translate(157.3 494.3) rotate(-36.7)" style="fill: #cb1515;"/>
        <path d="M824.9,19.3c-5.3,0-9.6-4.3-9.6-9.6s4.3-9.6,9.6-9.6,9.6,4.3,9.6,9.6-4.3,9.6-9.6,9.6Zm0-17.3c-4.2,0-7.6,3.4-7.6,7.6s3.4,7.6,7.6,7.6,7.6-3.4,7.6-7.6-3.4-7.6-7.6-7.6Z"/>
      </g>
      <g>
        <circle cx="772.1" cy="9.6" r="8.6" transform="translate(605.5 763.7) rotate(-78.3)" style="fill: #cb1515;"/>
        <path d="M772.1,19.3c-5.3,0-9.6-4.3-9.6-9.6s4.3-9.6,9.6-9.6,9.6,4.3,9.6,9.6-4.3,9.6-9.6,9.6Zm0-17.3c-4.2,0-7.6,3.4-7.6,7.6s3.4,7.6,7.6,7.6,7.6-3.4,7.6-7.6-3.4-7.6-7.6-7.6Z"/>
      </g>
      <g>
        <circle cx="745.6" cy="14.1" r="8.6" transform="translate(560.6 736.6) rotate(-76.7)" style="fill: #39b24a;"/>
        <path d="M745.6,23.8c-5.3,0-9.6-4.3-9.6-9.6s4.3-9.6,9.6-9.6,9.6,4.3,9.6,9.6-4.3,9.6-9.6,9.6Zm0-17.3c-4.2,0-7.6,3.4-7.6,7.6s3.4,7.6,7.6,7.6,7.6-3.4,7.6-7.6-3.4-7.6-7.6-7.6Z"/>
      </g>
      <g>
        <circle cx="800" cy="14.1" r="8.6" style="fill: #39b24a;"/>
        <path d="M800,23.8c-5.3,0-9.6-4.3-9.6-9.6s4.3-9.6,9.6-9.6,9.6,4.3,9.6,9.6-4.3,9.6-9.6,9.6Zm0-17.3c-4.2,0-7.6,3.4-7.6,7.6s3.4,7.6,7.6,7.6,7.6-3.4,7.6-7.6-3.4-7.6-7.6-7.6Z"/>
      </g>
      <g>
        <circle cx="718.9" cy="9.6" r="8.6" transform="translate(136.4 431) rotate(-36.7)" style="fill: #cb1515;"/>
        <path d="M718.9,19.3c-5.3,0-9.6-4.3-9.6-9.6s4.3-9.6,9.6-9.6,9.6,4.3,9.6,9.6-4.3,9.6-9.6,9.6Zm0-17.3c-4.2,0-7.6,3.4-7.6,7.6s3.4,7.6,7.6,7.6,7.6-3.4,7.6-7.6-3.4-7.6-7.6-7.6Z"/>
      </g>
      <g>
        <circle cx="666.1" cy="9.6" r="8.6" transform="translate(521.1 659.9) rotate(-78.3)" style="fill: #cb1515;"/>
        <path d="M666.1,19.3c-5.3,0-9.6-4.3-9.6-9.6s4.3-9.6,9.6-9.6,9.6,4.3,9.6,9.6-4.3,9.6-9.6,9.6Zm0-17.3c-4.2,0-7.6,3.4-7.6,7.6s3.4,7.6,7.6,7.6,7.6-3.4,7.6-7.6-3.4-7.6-7.6-7.6Z"/>
      </g>
      <g>
        <circle cx="639.6" cy="14.1" r="8.6" transform="translate(478.9 633.4) rotate(-76.7)" style="fill: #39b24a;"/>
        <path d="M639.6,23.8c-5.3,0-9.6-4.3-9.6-9.6s4.3-9.6,9.6-9.6,9.6,4.3,9.6,9.6-4.3,9.6-9.6,9.6Zm0-17.3c-4.2,0-7.6,3.4-7.6,7.6s3.4,7.6,7.6,7.6,7.6-3.4,7.6-7.6-3.4-7.6-7.6-7.6Z"/>
      </g>
      <g>
        <circle cx="694" cy="14.1" r="8.6" style="fill: #39b24a;"/>
        <path d="M694,23.8c-5.3,0-9.6-4.3-9.6-9.6s4.3-9.6,9.6-9.6,9.6,4.3,9.6,9.6-4.3,9.6-9.6,9.6Zm0-17.3c-4.2,0-7.6,3.4-7.6,7.6s3.4,7.6,7.6,7.6,7.6-3.4,7.6-7.6-3.4-7.6-7.6-7.6Z"/>
      </g>
      <g>
        <circle cx="1034.9" cy="9.6" r="8.6" transform="translate(198.8 619.6) rotate(-36.7)" style="fill: #cb1515;"/>
        <path d="M1034.9,19.3c-5.3,0-9.6-4.3-9.6-9.6s4.3-9.6,9.6-9.6,9.6,4.3,9.6,9.6-4.3,9.6-9.6,9.6Zm0-17.3c-4.2,0-7.6,3.4-7.6,7.6s3.4,7.6,7.6,7.6,7.6-3.4,7.6-7.6-3.4-7.6-7.6-7.6Z"/>
      </g>
      <g>
        <circle cx="982.1" cy="9.6" r="8.6" transform="translate(772.7 969.3) rotate(-78.3)" style="fill: #cb1515;"/>
        <path d="M982.1,19.3c-5.3,0-9.6-4.3-9.6-9.6s4.3-9.6,9.6-9.6,9.6,4.3,9.6,9.6-4.3,9.6-9.6,9.6Zm0-17.3c-4.2,0-7.6,3.4-7.6,7.6s3.4,7.6,7.6,7.6,7.6-3.4,7.6-7.6-3.4-7.6-7.6-7.6Z"/>
      </g>
      <g>
        <circle cx="955.6" cy="14.1" r="8.6" transform="translate(722.3 941) rotate(-76.7)" style="fill: #39b24a;"/>
        <path d="M955.6,23.8c-5.3,0-9.6-4.3-9.6-9.6s4.3-9.6,9.6-9.6,9.6,4.3,9.6,9.6-4.3,9.6-9.6,9.6Zm0-17.3c-4.2,0-7.6,3.4-7.6,7.6s3.4,7.6,7.6,7.6,7.6-3.4,7.6-7.6-3.4-7.6-7.6-7.6Z"/>
      </g>
      <g>
        <circle cx="1010" cy="14.1" r="8.6" style="fill: #39b24a;"/>
        <path d="M1010,23.8c-5.3,0-9.6-4.3-9.6-9.6s4.3-9.6,9.6-9.6,9.6,4.3,9.6,9.6-4.3,9.6-9.6,9.6Zm0-17.3c-4.2,0-7.6,3.4-7.6,7.6s3.4,7.6,7.6,7.6,7.6-3.4,7.6-7.6-3.4-7.6-7.6-7.6Z"/>
      </g>
      <g>
        <circle cx="928.9" cy="9.6" r="8.6" transform="translate(177.9 556.4) rotate(-36.7)" style="fill: #cb1515;"/>
        <path d="M928.9,19.3c-5.3,0-9.6-4.3-9.6-9.6s4.3-9.6,9.6-9.6,9.6,4.3,9.6,9.6-4.3,9.6-9.6,9.6Zm0-17.3c-4.2,0-7.6,3.4-7.6,7.6s3.4,7.6,7.6,7.6,7.6-3.4,7.6-7.6-3.4-7.6-7.6-7.6Z"/>
      </g>
      <g>
        <circle cx="876.1" cy="9.6" r="8.6" transform="translate(688.3 865.5) rotate(-78.3)" style="fill: #cb1515;"/>
        <path d="M876.1,19.3c-5.3,0-9.6-4.3-9.6-9.6s4.3-9.6,9.6-9.6,9.6,4.3,9.6,9.6-4.3,9.6-9.6,9.6Zm0-17.3c-4.2,0-7.6,3.4-7.6,7.6s3.4,7.6,7.6,7.6,7.6-3.4,7.6-7.6-3.4-7.6-7.6-7.6Z"/>
      </g>
      <g>
        <circle cx="849.6" cy="14.1" r="8.6" transform="translate(640.7 837.8) rotate(-76.7)" style="fill: #39b24a;"/>
        <path d="M849.6,23.8c-5.3,0-9.6-4.3-9.6-9.6s4.3-9.6,9.6-9.6,9.6,4.3,9.6,9.6-4.3,9.6-9.6,9.6Zm0-17.3c-4.2,0-7.6,3.4-7.6,7.6s3.4,7.6,7.6,7.6,7.6-3.4,7.6-7.6-3.4-7.6-7.6-7.6Z"/>
      </g>
      <g>
        <circle cx="904" cy="14.1" r="8.6" style="fill: #39b24a;"/>
        <path d="M904,23.8c-5.3,0-9.6-4.3-9.6-9.6s4.3-9.6,9.6-9.6,9.6,4.3,9.6,9.6-4.3,9.6-9.6,9.6Zm0-17.3c-4.2,0-7.6,3.4-7.6,7.6s3.4,7.6,7.6,7.6,7.6-3.4,7.6-7.6-3.4-7.6-7.6-7.6Z"/>
      </g>
    </g>
  </g>
</svg>