<?xml version="1.0" encoding="UTF-8"?>
<svg id="Layer_2" data-name="Layer 2" xmlns="http://www.w3.org/2000/svg" viewBox="0 0 375.8 76.8">
  <g id="TEXT_LOGO" data-name="TEXT&amp;amp;LOGO">
    <g>
      <g>
        <g>
          <path d="M31.4,21h.1c0,.1-6.6,9.4-6.6,9.4-2.6,2.7-5.7,4.2-9.3,4.6H7.5l-.5-.5v-9.7l.5-.4h3.3c1.6-.3,2.8-1,3.7-2l.7-1.2h.9c0-.1,15.3-.1,15.3-.1Zm21.7,54.8l-.5-.4v-10l.5-.6h4.8c1.9,0,2.8-1.3,2.8-4v-11.3l-.5-.5h-20.1c-.5,0-.8,.3-.9,.5l-11.4,20.3c-1.4,2-2.8,3.6-4.4,4.6-1.6,1-3.4,1.6-5.5,1.6H8l-.5-.5v-10.1l.5-.6h3.7c1.9,0,3.4-1.1,4.4-3.2l6.5-12.1v-.5H10.4l-.6-.4v-10.3l.6-.4h63.6l.6,.4v28.8c-.7,3.5-1.4,5.7-2.3,6.8-1.6,1.1-4,1.7-7,2h-12.2Zm24-51.8l.7,.5v9.7l-.7,.4h-7.1c-2.5,0-4.6-.5-6.3-1.5-1.7-1-2.9-2.5-3.8-4.4l-4.9-9.7c-.2-.2-.6-.3-.9-.4H17.5l-.5-.5V8.6l.5-.5H63.5l.9,.5,6.6,12.5c1.1,1.9,2.7,2.8,4.8,2.8h1.3Z"/>
          <path d="M17.8,76.5H8c-.1,0-.3,0-.4-.1l-.5-.5c0,0-.1-.2-.1-.4v-10.1c0-.1,0-.2,.1-.3l.5-.6c0-.1,.2-.2,.4-.2h3.7c1.7,0,3-.9,3.9-2.9l6.4-11.9H10.4c-.1,0-.2,0-.3-.1l-.6-.4c-.1,0-.2-.2-.2-.4v-10.3c0-.2,0-.3,.2-.4l.6-.4c0,0,.2-.1,.3-.1h63.6c.1,0,.2,0,.3,.1l.6,.4c.1,0,.2,.2,.2,.4v28.8c-.7,3.7-1.5,6-2.4,7.1,0,0,0,0-.1,.1-1.7,1.1-4.2,1.8-7.3,2.1h-12.3c-.1,0-.2,0-.3-.1l-.5-.4c-.1,0-.2-.2-.2-.4v-10c0-.1,0-.2,.1-.3l.5-.6c0-.1,.2-.2,.4-.2h4.8c1,0,2.3-.4,2.3-3.5v-11.1l-.2-.2h-19.9c-.4,0-.5,.2-.5,.2l-11.4,20.4c-1.4,2.1-2.9,3.7-4.6,4.8-1.7,1.1-3.6,1.6-5.8,1.6Zm-9.6-1h9.6c2,0,3.7-.5,5.2-1.5,1.5-1,3-2.5,4.3-4.5l11.4-20.3c.1-.4,.6-.6,1.3-.8h20.2c.1,0,.3,0,.4,.1l.5,.5c0,0,.1,.2,.1,.4v11.3c0,3.7-1.8,4.5-3.3,4.5h-4.6l-.2,.3v9.5l.2,.2h12c2.9-.3,5.1-.9,6.7-1.9,.7-1,1.5-3.2,2.1-6.5v-28.4s-.3-.2-.3-.2H10.6l-.2,.2v9.8l.2,.2h11.9c.2,0,.5,.2,.5,.4v.5c0,.1,0,.2,0,.3l-6.5,12.1c-1,2.3-2.7,3.5-4.8,3.5h-3.5l-.2,.3v9.7l.2,.2Zm-.6-40c-.1,0-.3,0-.4-.1l-.5-.5c0,0-.1-.2-.1-.4v-9.7c0-.1,0-.3,.2-.4l.5-.4c0,0,.2-.1,.3-.1h3.2c1.4-.3,2.6-.9,3.4-1.8l.7-1.2c0-.1,.2-.2,.3-.2h.9c0-.1,15.3-.2,15.3-.2,.1,0,.3,0,.4,.1h.1c.2,.3,.2,.6,0,.8l-6.6,9.2c-2.7,2.8-5.9,4.4-9.7,4.8H7.5Zm.2-1h7.9c3.4-.3,6.5-1.8,8.9-4.4l6.1-8.5H15.5c0,0-.6,1.1-.6,1.1,0,0,0,0,0,0-.9,1-2.3,1.8-4,2.1,0,0,0,0-.1,0h-3.1l-.2,.2v9.2l.2,.2Zm69.3,.7h-7.1c-2.6,0-4.8-.5-6.5-1.6-1.8-1-3.1-2.6-4-4.6l-4.9-9.6c-.2-.1-.4-.2-.6-.3H17.5c-.1,0-.3,0-.4-.1l-.5-.5c0,0-.1-.2-.1-.4V8.6c0-.1,0-.3,.1-.4l.5-.5c0,0,.2-.1,.4-.1H63.5c0,0,.2,0,.3,0l.9,.5c0,0,.1,.1,.2,.2l6.6,12.5c1,1.7,2.4,2.6,4.4,2.6h1.3c.1,0,.2,0,.3,.1l.7,.5c.1,0,.2,.2,.2,.4v9.7c0,.2,0,.3-.2,.4l-.7,.4c0,0-.2,0-.3,0ZM17.7,18.1H53.9s0,0,.1,0c.5,.1,.8,.3,1.1,.5,0,0,.1,.1,.1,.2l4.9,9.7c.8,1.9,2.1,3.3,3.6,4.2,1.6,.9,3.6,1.4,6,1.4h7l.3-.2v-9.2l-.3-.3h-1.1c-2.3,0-4-1-5.2-3.1l-6.6-12.4-.6-.4H17.7l-.2,.2v9l.2,.2Z"/>
        </g>
        <g>
          <path d="M122.9,7.8l.5,.5v2.5l.6,.5h27.2l.6,.4v7.3l-.6,.5H82.2l-.5-.5v-7.3l.5-.4h27l.5-.5v-2.5l.7-.5h12.5Zm5.7,49.8h22.6l.6,.5v8l-.6,.5h-26.2l-.6,.4v1.7c0,1.2-.1,2.3-.4,3.3-.3,1-.6,1.8-1.1,2.4-1,.7-2.9,1.3-5.9,1.8h-22.2l-.5-.4v-6.1l.5-.5h13.2c1.4-.1,2-.8,2-1.9v-.3l-.6-.4h-26.7l-.6-.5v-8l.6-.5h26.7l.6-.4v-1.5l.6-.7,2.5-1.7-29-.2-.6-.5v-7.1l.6-.4h64.2l.5,.4v5.4l-.5,.5-19.6,6.2Zm-43.1-14.7l-.7-.5V22.2l.7-.4h63.2l.6,.4v13.7c0,1-.2,2-.6,2.8-.4,.9-1,1.7-1.9,2.4-.8,.7-2.7,1.3-5.4,1.7h-55.9Zm13.7-8.2h35.1l.7-.4v-3.3l-.7-.4h-35.1l-.5,.4v3.3l.5,.4Z"/>
          <path d="M94.8,76.8c-.1,0-.2,0-.3-.1l-.5-.4c-.1,0-.2-.2-.2-.4v-6.1c0-.1,0-.3,.1-.4l.5-.5c0,0,.2-.1,.4-.1h13.2c1.4-.1,1.5-.8,1.5-1.4h0s-.2-.2-.2-.2h-26.6c-.1,0-.2,0-.3-.1l-.6-.5c-.1,0-.2-.2-.2-.4v-8c0-.1,0-.3,.2-.4l.6-.5c0,0,.2-.1,.3-.1h26.6l.2-.2v-1.2c0-.1,0-.2,.1-.3l.6-.7s0,0,0,0l1.2-.8-27.4-.2c-.1,0-.2,0-.3-.1l-.6-.5c-.1,0-.2-.2-.2-.4v-7.1c0-.2,0-.3,.2-.4l.6-.4c0,0,.2-.1,.3-.1h64.2c.1,0,.2,0,.3,.1l.5,.4c.1,0,.2,.2,.2,.4v5.4c0,.1,0,.3-.1,.4l-.5,.5c0,0-.1,0-.2,.1l-16.5,5.2h19.3c.1,0,.2,0,.3,.1l.6,.5c.1,0,.2,.2,.2,.4v8c0,.1,0,.3-.2,.4l-.6,.5c0,0-.2,.1-.3,.1h-26.1l-.2,.2v1.5c0,1.2-.1,2.4-.4,3.4-.3,1-.7,1.9-1.1,2.5,0,0,0,0-.1,.1-1,.7-3,1.3-6.1,1.9h-22.3Zm.2-1h22c2.7-.5,4.6-1.1,5.5-1.7,.4-.6,.7-1.3,.9-2.2,.3-.9,.4-2,.4-3.1v-1.7c0-.2,0-.3,.2-.4l.6-.4c0,0,.2-.1,.3-.1h26l.3-.2v-7.5l-.3-.2h-22.4c-.2,0-.5-.2-.5-.4,0-.2,.1-.5,.3-.6l19.5-6.1,.3-.3v-5l-.2-.2h-63.8l-.2,.2v6.6l.3,.2,28.8,.2c.2,0,.4,.1,.5,.4,0,.2,0,.4-.2,.6l-2.4,1.7-.4,.5v1.3c0,.2,0,.3-.2,.4l-.6,.4c0,0-.2,.1-.3,.1h-26.5l-.3,.2v7.5l.3,.2h26.5c.1,0,.2,0,.3,.1l.6,.4c.1,0,.2,.2,.2,.4v.3c0,.8-.3,2.2-2.5,2.4h-13s-.2,.2-.2,.2v5.7l.2,.2Zm-9.5-32.3c-.1,0-.2,0-.3-.1l-.7-.5c-.1,0-.2-.2-.2-.4V22.2c0-.2,0-.3,.2-.4l.7-.4c0,0,.2,0,.3,0h63.2c.1,0,.2,0,.3,0l.6,.4c.1,0,.2,.2,.2,.4v13.7c0,1.1-.2,2.1-.7,3-.4,.9-1.1,1.8-2,2.6-.9,.8-2.8,1.4-5.7,1.9h-55.9Zm.2-1h55.7c2.6-.4,4.3-1,5.1-1.6,.8-.7,1.4-1.4,1.8-2.2,.4-.8,.6-1.7,.6-2.6v-13.5l-.2-.2h-62.9l-.3,.2v19.7l.3,.3Zm48.6-7.2h-35.1c-.1,0-.2,0-.3-.1l-.5-.4c-.1,0-.2-.2-.2-.4v-3.3c0-.2,0-.3,.2-.4l.5-.4c0,0,.2,0,.3,0h35.1c0,0,.2,0,.2,0l.7,.4c.2,0,.3,.3,.3,.4v3.3c0,.2,0,.3-.2,.4l-.7,.4c0,0-.2,0-.3,0Zm-34.9-1h34.8l.3-.2v-2.8l-.3-.2h-35v3l.2,.2Zm51.8-14.1H82.2c-.1,0-.3,0-.4-.1l-.5-.5c0,0-.1-.2-.1-.4v-7.3c0-.1,0-.3,.2-.4l.5-.4c0,0,.2-.1,.3-.1h26.8l.2-.2v-2.3c0-.2,0-.3,.2-.4l.7-.5c0,0,.2-.1,.3-.1h12.5c.1,0,.3,0,.4,.1l.5,.5c0,0,.1,.2,.1,.4v2.3l.3,.2h27c.1,0,.2,0,.3,0l.6,.4c.1,0,.2,.2,.2,.4v7.3c0,.1,0,.3-.2,.4l-.6,.5c0,0-.2,.1-.3,.1Zm-68.7-1h68.6l.3-.2v-6.9l-.2-.2h-27c-.1,0-.2,0-.3-.1l-.6-.5c-.1,0-.2-.2-.2-.4v-2.3l-.2-.2h-12.1l-.3,.3v2.3c0,.1,0,.3-.1,.4l-.5,.5c0,0-.2,.1-.4,.1h-26.8l-.2,.2v6.9l.2,.2Z"/>
        </g>
        <g>
          <path d="M224.6,19.2l-.5,.4h-67.3l-.5-.4V9.3l.5-.5h67.3l.5,.5v9.9Zm1.4,55.6l-.7,.5h-68.3l-.6-.5v-10.9l.6-.5h68.3l.7,.5v10.9Zm-1.9-27.5l-.6,.5h-65.1l-.7-.5v-11.3l.7-.4h65.1l.6,.4v11.3Z"/>
          <path d="M225.3,75.8h-68.3c-.1,0-.2,0-.3-.1l-.6-.5c-.1,0-.2-.2-.2-.4v-10.9c0-.1,0-.3,.2-.4l.6-.5c0,0,.2-.1,.3-.1h68.3c.1,0,.2,0,.3,.1l.7,.5c.1,0,.2,.2,.2,.4v10.9c0,.2,0,.3-.2,.4l-.7,.5c0,0-.2,.1-.3,.1Zm-68.1-1h67.9l.3-.3v-10.4l-.3-.3h-67.9l-.3,.2v10.4l.3,.2Zm66.3-26.5h-65.1c-.1,0-.2,0-.3-.1l-.7-.5c-.1,0-.2-.2-.2-.4v-11.3c0-.2,0-.3,.2-.4l.7-.4c0,0,.2,0,.3,0h65.1c.1,0,.2,0,.3,.1l.6,.4c.1,0,.2,.2,.2,.4v11.3c0,.1,0,.3-.2,.4l-.6,.5c0,0-.2,.1-.3,.1Zm-64.9-1h64.7l.3-.2v-10.8l-.2-.2h-64.8l-.3,.2v10.7l.3,.3Zm65.5-27.2h-67.3c-.1,0-.2,0-.3-.1l-.5-.4c-.1,0-.2-.2-.2-.4V9.3c0-.1,0-.3,.1-.4l.5-.5c0,0,.2-.1,.4-.1h67.3c.1,0,.3,0,.4,.1l.5,.5c0,0,.1,.2,.1,.4v9.9c0,.1,0,.3-.2,.4l-.5,.4c0,0-.2,.1-.3,.1Zm-67.1-1h66.9l.2-.2V9.5l-.2-.2h-66.9l-.2,.2v9.4l.2,.2Z"/>
        </g>
        <g>
          <path d="M248.2,10.2l.5,.4v15.2l.5,.4h8.6l.7-.4V8.3l.5-.4h13.1l.6,.4v2.6l.5,.4h24.6l.7,.5v8.9l-.7,.5h-24.6l-.5,.4v4.1l.5,.4h27.3l.6,.5v9.7l-.6,.5h-27.3l-.5,.4v14.2c0,2.2-.5,4-1.4,5.6-1.4,1.7-3.4,2.9-6,3.6h-11.6l-.6-.4v-9.5l.6-.5h2.7c1.1,.1,1.8-.6,2.1-2.1v-10.9l-.7-.4h-27.2l-.5-.5v-9.7l.5-.5h5.2l.6-.4V10.7l.6-.4h11.3Zm4.5,29.6l.2,.4-6.8,12.9c-.9,1.8-2.2,3.3-3.9,4.7l-1.9,.9c-.5,.2-1.1,.4-1.8,.5-.7,.1-1.4,.2-2.1,.2h-5.4l-.6-.4v-9.5l.6-.4h.9c.9,0,1.9-.7,2.8-2.2l4-6.8,.9-.4h13Zm46.6,.4v.6c0,0-13.5,28.4-13.5,28.4-.2,.4-.4,.9-.7,1.3-.3,.5-.6,.9-.9,1.3l-1.7,2.3c-1.4,1-3.4,1.7-6,2h-42.4l-.7-.5v-9.5l.7-.4h35.2c2,0,3.9-1,5.4-3.1l11-21.7c0-.1,.4-.3,.9-.6h12.7Z"/>
          <path d="M234.1,76.6c-.1,0-.2,0-.3-.1l-.7-.5c-.1,0-.2-.2-.2-.4v-9.5c0-.2,0-.3,.2-.4l.7-.4c0,0,.2,0,.3,0h35.2c1.9,0,3.5-1,5.1-2.9l11-21.6c.2-.3,.5-.5,1.2-.8,0,0,.1,0,.2,0h12.7c.3,0,.5,.2,.5,.4v.6c0,0,0,.2,0,.3l-13.6,28.4c-.2,.4-.5,.9-.8,1.4-.3,.5-.6,.9-1,1.4l-1.7,2.3s0,0-.1,0c-1.5,1.1-3.6,1.8-6.3,2.1h-42.4Zm.2-1h42.2c2.4-.3,4.4-.9,5.7-1.8l1.7-2.2c.3-.4,.6-.9,.9-1.3,.3-.4,.5-.9,.7-1.3l13.5-28.3h-12.2c-.5,.2-.6,.4-.6,.4l-11,21.7c-1.7,2.3-3.7,3.4-5.9,3.4h-35l-.3,.2v9l.3,.3Zm31-14.2h-11.6c-.1,0-.2,0-.3,0l-.6-.4c-.1,0-.2-.2-.2-.4v-9.5c0-.1,0-.3,.2-.4l.6-.5c0,0,.2-.1,.3-.1h2.7c.4,0,1.3,.2,1.6-1.7v-10.5s-.3-.2-.3-.2h-27.1c-.1,0-.3,0-.4-.1l-.5-.5c0,0-.1-.2-.1-.4v-9.7c0-.1,0-.3,.1-.4l.5-.5c0,0,.2-.1,.4-.1h5l.2-.2V10.7c0-.2,0-.3,.2-.4l.6-.4c0,0,.2-.1,.3-.1h11.3c.1,0,.2,0,.3,.1l.5,.4c.1,0,.2,.2,.2,.4v15l.2,.2h8.2l.3-.2V8.3c0-.2,0-.3,.2-.4l.5-.4c0,0,.2,0,.3,0h13.1c0,0,.2,0,.3,0l.6,.4c.1,0,.2,.3,.2,.4v2.4l.2,.2h24.4c.1,0,.2,0,.3,.1l.7,.5c.1,0,.2,.2,.2,.4v8.9c0,.2,0,.3-.2,.4l-.7,.5c0,0-.2,.1-.3,.1h-24.4l-.2,.2v3.6l.2,.2h27.1c.1,0,.2,0,.3,.1l.6,.5c.1,0,.2,.2,.2,.4v9.7c0,.1,0,.3-.2,.4l-.6,.5c0,0-.2,.1-.3,.1h-27.1l-.2,.2v14c0,2.3-.5,4.2-1.5,5.8-1.5,1.8-3.6,3.1-6.3,3.9,0,0,0,0-.1,0Zm-11.4-1h11.3c2.5-.7,4.4-1.9,5.7-3.4,.8-1.4,1.3-3.2,1.3-5.3v-14.2c0-.1,0-.3,.2-.4l.5-.4c0,0,.2-.1,.3-.1h27.1l.3-.2v-9.2l-.3-.2h-27.1c-.1,0-.2,0-.3-.1l-.5-.4c-.1,0-.2-.2-.2-.4v-4.1c0-.1,0-.3,.2-.4l.5-.4c0,0,.2-.1,.3-.1h24.5l.3-.3V12.1l-.3-.3h-24.5c-.1,0-.2,0-.3-.1l-.5-.4c-.1,0-.2-.2-.2-.4v-2.3h-.2c0-.1-12.8-.1-12.8-.1h-.2V25.9c0,.2,0,.3-.2,.4l-.7,.4c0,0-.2,0-.3,0h-8.6c-.1,0-.2,0-.3-.1l-.5-.4c-.1,0-.2-.2-.2-.4V10.9l-.2-.2h-11l-.2,.2v14.9c0,.2,0,.3-.2,.4l-.6,.4c0,0-.2,.1-.3,.1h-5l-.2,.2v9.2l.2,.2h27c0,0,.2,0,.3,0l.7,.4c.1,0,.2,.2,.2,.4v10.9c-.4,2.4-1.7,2.7-2.7,2.6h-2.4s-.3,.2-.3,.2v9l.2,.2Zm-17.4-.5h-5.4c-.1,0-.2,0-.3,0l-.6-.4c-.1,0-.2-.2-.2-.4v-9.5c0-.2,0-.3,.2-.4l.6-.4c0,0,.2,0,.3,0h.9c.7,0,1.6-.7,2.4-2l4-6.7c0,0,.1-.2,.3-.2l.9-.4c0,0,.1,0,.2,0h13c.2,0,.3,0,.4,.2l.2,.4c0,.1,0,.3,0,.5l-6.8,12.9c-.9,1.8-2.3,3.5-4.1,4.8l-2,1c-.5,.2-1.2,.4-1.9,.6-.7,.2-1.5,.2-2.2,.2Zm-5.3-1h5.3c.6,0,1.3,0,2-.2,.7-.1,1.2-.3,1.7-.5l1.9-.9c1.5-1.2,2.8-2.7,3.7-4.4l6.6-12.6h-12.5l-.7,.3-3.9,6.6c-1.1,1.6-2.2,2.4-3.3,2.4h-1v9.1l.2,.2Z"/>
        </g>
        <g>
          <path d="M374.3,13.7l-.5,.5h-19.7l-.6,.5v23.4l-.4,.5h-7.5l-.5-.5v-2.1l-.5-.4h-12.1l-.6,.4-.5,.5h-1.8l-.5,.5v1.6l.5,.5h1.8l.5,.4v30.2c-.4,3.3-2.5,5.2-6.2,5.5h-2.3l-.5-.5v-2.1c-.9,1.3-2.2,2-3.7,2.3h-.9l-.4-.4v-1.8c-1.3,1.4-2.5,2.1-3.9,2.1h-.4l-.5-.5v-2c-.8,1.3-1.9,2.1-3.4,2.3h-.8l-.6-.4v-2.1c-.7,1.4-1.8,2.1-3.3,2.1l-.5-.4v-7.2c.7-.1,1.3-1,1.8-2.6v-13.9l.4-.5h1.5l.6,.5v14.5l.5,.4h.7l.5-.4v-14.5l.5-.5h1.7l.7,.5v14.5l.5,.4h.8l.4-.4v-14.5l.7-.5h1.7l.6,.5v14.5l.5,.4h.7l.7-.4v-14.5l.4-.5h2l.6,.5v14.5l.5,.4h.9l.4-.4v-17.4l-.4-.4h-17.7l-.7-.5V9.3l.7-.5h67.1l.5,.5v4.4Zm-55.1,5.2v-1.6l-.5-.4h-2.3l-.6,.4v1.6l.6,.5h2.3l.5-.5Zm0,9.5v-1.7l-.5-.4h-2.3l-.6,.4v1.7l.6,.4h2.3l.5-.4Zm.4,10.2v-1.6l-.6-.5h-2.7l-.6,.5v1.6l.6,.5h2.7l.6-.5Zm12.7-23.5v1.2l-.6,.5h-2.3l-.6,.4v1.6l.6,.5h1.9l.5,.5v5.9l-.5,.5h-1.8l-.5,.4v1.7l.5,.4h1.8l.5,.5v.7l.6,.5h.8l.5-.5V15.2l-.5-.4h-.4l-.6,.4Zm12.2,54.6c-1.2,2.9-3.1,4.6-5.5,5.2h-4.3l-.5-.4v-5.4c1.3-.4,2.1-1.2,2.6-2.3l.6-1.7,.7-.4h6.9l.4,.4-.9,4.7Zm.5-12.3c-.9,2.3-2.9,3.6-6,4.1h-3.7l-.6-.5v-5.2c1.3-.1,2.2-.9,2.9-2.4l.2-1.9,.7-.5h7.3l.3,.5-1.1,6Zm28.3-37.3c0,.4-.1,.7-.4,.9l-3.2,5.3v.7l1.2,1.9c.2,.4,.6,.8,.9,1.1,.4,.3,.9,.5,1.5,.7h1.3l.7,.4v7.4l-.7,.4h-.7l-.6,.4v3.4c-.7,2.9-2.8,4.6-6.1,5.2h-7l-.6,.5v26.3l-.5,.5h-10.8l-.4-.5v-26.3l-.6-.5h-11.6l-.6-.5v-5.7l.6-.4h21.1c2.7,0,4.4-.7,5.1-2.2h-5.5l-.5-.5v-7.8c1,0,1.9-.5,2.8-1.4l.5-1.2v-.9l-2.4-4.8v-.4h5.2c0,.1,.3,0,.3,0l.5-.5,.2-.7-.2-.5h-5.9l-.6-.4v-4.1l.6-.4h15.8l.5,.4v4.2Zm-28.3-3.2v-2.2l-.5-.5h-2.1l-.7,.5v2.2l.7,.4h2.1l.5-.4Zm0,6.5v-1.9l-.5-.5h-2.1l-.7,.5v1.9l.7,.4h2.1l.5-.4Zm0,6.7v-2l-.5-.4h-2.1l-.7,.4v2l.7,.5h2.1l.5-.5Zm24,25c.8-.2,1.5-.9,2.1-2.2l.4-2,.8-.5h2.3l.4,.5-1.2,8.8c-.8,1.8-1.7,2.9-2.8,3.1v1.7c.1,1,1.1,1.7,2.8,2.2h.7l.6,.4v7.3l-.6,.4h-4.1c-3.9,0-6.4-2.2-7.5-6.5l-1.5-17.1,.6-.4h6.2l.4,.4,.6,3.9Zm-5.7-17.1h3.1l.2-.3-1.5-1.9h-.9l-1,1.9v.3Z"/>
          <path d="M359.2,75.8h-10.8c-.1,0-.3,0-.4-.2l-.4-.5c0,0-.1-.2-.1-.3v-26.1l-.3-.2h-11.4c-.1,0-.2,0-.3-.1l-.6-.5c-.1,0-.2-.2-.2-.4v-5.7c0-.2,0-.3,.2-.4l.6-.4c0,0,.2,0,.3,0h21.1c2,0,3.3-.4,4.1-1.2h-4.6c-.1,0-.3,0-.4-.1l-.5-.5c0,0-.1-.2-.1-.4v-7.8c0-.3,.2-.5,.5-.5,.8,0,1.6-.4,2.4-1.2l.4-1v-.7l-2.3-4.7c0-.1,0-.3,0-.4v-.4c.2-.2,.4-.3,.6-.3h4.9c0,0,.1,0,.2,0l.3-.3v-.4c.1,0,.1,0,.1,0h-5.6c-.1,0-.2,0-.3-.1l-.6-.4c-.1,0-.2-.2-.2-.4v-4.1c0-.2,0-.3,.2-.4l.6-.4c0,0,.2-.1,.3-.1h15.8c.1,0,.2,0,.3,.1l.5,.4c.1,0,.2,.2,.2,.4v4.2c0,.5-.2,.9-.5,1.3l-3.1,5.1v.4l1.2,1.8c.2,.4,.5,.7,.8,.9,.3,.2,.8,.4,1.3,.6h1.2c0,0,.2,0,.3,0l.7,.4c.1,0,.2,.2,.2,.4v7.4c0,.2,0,.3-.2,.4l-.7,.4c0,0-.2,0-.3,0h-.6l-.2,.2v3.2s0,0,0,.1c-.8,3.1-3,5-6.5,5.5h-6.9s-.3,.2-.3,.2v26.1c0,.1,0,.3-.1,.4l-.5,.5c0,0-.2,.1-.4,.1Zm-10.5-1h10.3l.2-.2v-26.1c0-.1,0-.3,.2-.4l.6-.5c0,0,.2-.1,.3-.1h7c3.1-.5,4.9-2,5.6-4.7v-3.4c0-.2,0-.3,.2-.4l.6-.4c0,0,.2,0,.3,0h.6l.3-.2v-6.9l-.3-.2h-1.2c0,0-.1,0-.2,0-.6-.2-1.2-.5-1.6-.8-.4-.3-.8-.7-1.1-1.2l-1.2-1.9c0,0,0-.2,0-.3v-.7c0,0,0-.2,0-.3l3.2-5.3s0,0,.1-.1c.2-.1,.3-.3,.3-.6v-4l-.2-.2h-15.5l-.2,.2v3.6l.2,.2h5.7c.2,0,.4,.1,.5,.3l.2,.5c0,.1,0,.2,0,.4l-.2,.7c0,0,0,.1-.1,.2l-.5,.5s0,0-.1,0h-.3c-.2,.2-.4,.2-.6,0h-4.3l2.3,4.5c0,0,0,.1,0,.2v.9c0,0,0,.1,0,.2l-.5,1.2c0,0,0,.1-.1,.2-.9,.9-1.8,1.4-2.7,1.5v7.2l.2,.2h5.3c.2,0,.3,0,.4,.2s.1,.3,0,.5c-.8,1.6-2.6,2.5-5.5,2.5h-21.2v5.4l.3,.2h11.4c.1,0,.2,0,.3,.1l.6,.5c.1,0,.2,.2,.2,.4v26.1l.2,.2Zm-25.2,1c-.1,0-.3,0-.4-.1l-.5-.5c0,0-.1-.2-.1-.4v-.8c-.9,.8-1.9,1.3-3.1,1.4h-.9c-.1,0-.3,0-.4-.2l-.4-.4c0,0-.1-.2-.1-.3v-.6c-1.1,.9-2.2,1.4-3.4,1.4h-.4c-.1,0-.3,0-.4-.1l-.5-.5c0,0-.1-.2-.1-.4v-.6c-.8,.7-1.7,1.2-2.9,1.3h-.9c-.1,0-.2,0-.3,0l-.6-.4c-.1,0-.2-.2-.2-.4v-.6c-.7,.7-1.7,1.1-2.8,1.1s-.2,0-.3,0l-.5-.4c-.1,0-.2-.2-.2-.4v-7.2c0-.2,.2-.4,.4-.5,.3,0,.8-.4,1.4-2.2v-13.9c0-.1,0-.2,.1-.3l.4-.5c0-.1,.2-.2,.4-.2h1.5c.1,0,.2,0,.3,.1l.6,.5c.1,0,.2,.2,.2,.4v14.2h.2c0,.1,.4,.1,.4,.1h.2v-14.3c0-.1,0-.3,.1-.4l.5-.5c0,0,.2-.1,.4-.1h1.7c.1,0,.2,0,.3,.1l.7,.5c.1,0,.2,.2,.2,.4v14.2h.2c0,.1,.5,.1,.5,.1h.1v-14.3c0-.2,0-.3,.2-.4l.7-.5c0,0,.2-.1,.3-.1h1.7c.1,0,.2,0,.3,.1l.6,.5c.1,0,.2,.2,.2,.4v14.2h.2c0,.1,.4,.1,.4,.1l.3-.2v-14.2c0-.1,0-.2,.1-.3l.4-.5c0-.1,.2-.2,.4-.2h2c.1,0,.2,0,.3,.1l.6,.5c.1,0,.2,.2,.2,.4v14.2h.2c0,.1,.5,.1,.5,.1h.1v-17h-.1c0-.1-17.5-.1-17.5-.1-.1,0-.2,0-.3-.1l-.7-.5c-.1,0-.2-.2-.2-.4V9.3c0-.2,0-.3,.2-.4l.7-.5c0,0,.2-.1,.3-.1h67.1c.1,0,.3,0,.4,.1l.5,.5c0,0,.1,.2,.1,.4v4.4c0,.1,0,.3-.1,.4l-.5,.5c0,0-.2,.1-.4,.1h-19.5l-.3,.2v23.2c0,.1,0,.2-.1,.3l-.4,.5c0,.1-.2,.2-.4,.2h-7.5c-.1,0-.3,0-.4-.1l-.5-.5c0,0-.1-.2-.1-.4v-1.9l-.2-.2h-11.7l-.4,.3-.5,.5c0,0-.2,.1-.4,.1h-1.6l-.2,.2v1.2l.2,.2h1.6c.1,0,.2,0,.3,.1l.5,.4c.1,0,.2,.2,.2,.4v30.2c-.5,3.7-2.7,5.7-6.7,6h-2.3Zm.2-1h2c3.5-.3,5.3-2,5.8-5.1v-29.9s-.2-.2-.2-.2h-1.6c-.1,0-.3,0-.4-.1l-.5-.5c0,0-.1-.2-.1-.4v-1.6c0-.1,0-.3,.1-.4l.5-.5c0,0,.2-.1,.4-.1h1.6l.4-.4,.6-.5c0,0,.2-.1,.3-.1h12.1c.1,0,.2,0,.3,.1l.5,.4c.1,0,.2,.2,.2,.4v1.9l.2,.2h7l.2-.2V14.7c0-.1,0-.3,.2-.4l.6-.5c0,0,.2-.1,.3-.1h19.5l.2-.2v-4l-.2-.2h-66.7l-.3,.3V45.8l.3,.3h17.6c.1,0,.3,0,.4,.1l.4,.4c0,0,.1,.2,.1,.4v17.4c0,.1,0,.3-.2,.4l-.4,.4c0,0-.2,.1-.3,.1h-.9c-.1,0-.2,0-.3,0l-.5-.4c-.1,0-.2-.2-.2-.4v-14.2l-.3-.2h-1.5l-.2,.2v14.3c0,.2,0,.3-.3,.4l-.7,.4c0,0-.2,0-.2,0h-.7c-.1,0-.2,0-.3,0l-.5-.4c-.1,0-.2-.2-.2-.4v-14.2l-.3-.2h-1.3l-.3,.3v14.2c0,.1,0,.3-.2,.4l-.4,.4c0,0-.2,.1-.3,.1h-.8c-.1,0-.2,0-.3,0l-.5-.4c-.1,0-.2-.2-.2-.4v-14.2l-.3-.3h-1.4l-.2,.2v14.3c0,.2,0,.3-.2,.4l-.5,.4c0,0-.2,0-.3,0h-.7c-.1,0-.2,0-.3,0l-.5-.4c-.1,0-.2-.2-.2-.4v-14.2l-.3-.2h-1.1l-.2,.2v13.8c0,0,0,.1,0,.2-.5,1.5-1.1,2.4-1.8,2.8v6.6h.2c1.2,0,2.1-.5,2.7-1.7,.1-.2,.3-.3,.6-.3,.2,0,.4,.3,.4,.5v1.9l.2,.2h.6c1.3-.2,2.3-.8,3-2,.1-.2,.3-.3,.6-.2,.2,0,.4,.3,.4,.5v1.8l.2,.2h.2c1.2,0,2.3-.7,3.5-1.9,.1-.2,.4-.2,.6-.1,.2,0,.3,.3,.3,.5v1.6h0c0,.1,.6,.1,.6,.1,1.3-.2,2.5-.9,3.3-2,.1-.2,.4-.2,.6-.2,.2,0,.3,.3,.3,.5v1.9l.2,.2Zm50.8,.6h-4.1c-4.1,0-6.8-2.3-8-6.9l-1.5-17.2c0-.2,0-.3,.2-.4l.6-.4c0,0,.2-.1,.3-.1h6.2c.1,0,.3,0,.4,.1l.4,.4c0,0,.1,.2,.1,.3l.5,3.2c.4-.3,.9-.8,1.2-1.6l.4-1.9c0-.1,.1-.3,.2-.3l.8-.5c0,0,.2,0,.3,0h2.3c.2,0,.3,0,.4,.2l.4,.5c0,.1,.1,.2,0,.4l-1.2,8.8s0,0,0,.1c-.8,1.8-1.7,2.9-2.8,3.3v1.3c.1,.7,.9,1.3,2.4,1.7h.6c0,0,.2,0,.3,0l.6,.4c.1,0,.2,.3,.2,.4v7.3c0,.2,0,.3-.2,.4l-.6,.4c0,0-.2,.1-.3,.1Zm-12.6-23.9l1.5,16.8c1,4.1,3.3,6.1,7,6.1h3.9l.2-.2v-6.8h-.2c0-.1-.5-.1-.5-.1,0,0,0,0-.1,0-2-.5-3-1.4-3.2-2.6v-1.7c0-.2,.2-.4,.4-.5,.9-.2,1.8-1.1,2.5-2.8l1.2-8.5h0c0-.1-1.8-.1-1.8-.1l-.5,.3-.3,1.7s0,0,0,.1c-.6,1.4-1.5,2.2-2.4,2.5-.1,0-.3,0-.4,0-.1,0-.2-.2-.2-.3l-.6-3.7-.2-.2h-5.8l-.2,.2Zm-22.8,23.9h-4.3c-.1,0-.2,0-.3-.1l-.5-.4c-.1,0-.2-.2-.2-.4v-5.4c0-.2,.1-.4,.3-.5,1.1-.4,1.9-1,2.3-2l.6-1.7c0-.1,.1-.2,.2-.3l.7-.4c0,0,.2,0,.3,0h6.9c.1,0,.3,0,.4,.2l.4,.4c0,.1,.1,.3,.1,.4l-.9,4.7s0,0,0,.1c-1.3,3-3.2,4.8-5.9,5.5,0,0,0,0-.1,0Zm-4.1-1h4c2.3-.6,4-2.1,5.1-4.8l.8-4.4h0c0,0-6.5,0-6.5,0l-.4,.3-.5,1.6c-.5,1.1-1.4,1.9-2.6,2.4v4.9l.2,.2Zm.4-12.4c-.1,0-.2,0-.3-.1l-.6-.5c-.1,0-.2-.2-.2-.4v-5.2c0-.3,.2-.5,.4-.5,1.1-.1,1.9-.8,2.5-2l.2-1.8c0-.1,0-.3,.2-.4l.7-.5c0,0,.2,0,.3,0h7.3c.2,0,.3,0,.4,.3l.3,.5c0,.1,0,.2,0,.3l-1.1,6s0,0,0,0c-.9,2.4-3.1,3.9-6.4,4.4h-3.8Zm.2-1h3.5c2.9-.4,4.7-1.6,5.5-3.7l1-5.7h0c0,0-6.8,0-6.8,0l-.4,.3-.2,1.7c0,0,0,.1,0,.2-.7,1.4-1.6,2.3-2.9,2.6v4.6l.3,.2Zm-16.5-21.4h-2.7c-.1,0-.2,0-.3-.1l-.6-.5c-.1,0-.2-.2-.2-.4v-1.6c0-.1,0-.3,.2-.4l.6-.5c0,0,.2-.1,.3-.1h2.7c.1,0,.2,0,.3,.1l.6,.5c.1,0,.2,.2,.2,.4v1.6c0,.1,0,.3-.2,.4l-.6,.5c0,0-.2,.1-.3,.1Zm-2.5-1h2.3l.3-.2v-1.1l-.3-.2h-2.3l-.3,.2v1.1l.3,.2Zm49.9-.2h-3.1c-.2,0-.4-.2-.5-.4v-.3c-.1-.1,0-.2,0-.4l1-1.9c0-.2,.3-.3,.4-.3h.9c.2,0,.3,0,.4,.2l1.5,1.9c.1,.2,.1,.4,0,.6l-.2,.3c0,.1-.2,.2-.4,.2Zm-2.5-1h1.9l-1-1.2h-.3l-.6,1.2Zm-19.4-6.3h-2.1c-.1,0-.2,0-.3-.1l-.7-.5c-.1,0-.2-.2-.2-.4v-2c0-.2,0-.3,.2-.4l.7-.4c0,0,.2,0,.3,0h2.1c.1,0,.2,0,.3,.1l.5,.4c.1,0,.2,.2,.2,.4v2c0,.1,0,.3-.1,.4l-.5,.5c0,0-.2,.1-.4,.1Zm-1.9-1h1.7l.2-.2v-1.5l-.2-.2h-1.8l-.3,.2v1.4l.3,.3Zm-9.3,1h-.8c-.1,0-.2,0-.3-.1l-.6-.5c-.1,0-.2-.2-.2-.4v-.5l-.2-.2h-1.6c-.1,0-.2,0-.3-.1l-.5-.4c-.1,0-.2-.2-.2-.4v-1.7c0-.1,0-.3,.2-.4l.5-.4c0,0,.2-.1,.3-.1h1.6l.2-.2v-5.5l-.2-.2h-1.7c-.1,0-.2,0-.3-.1l-.6-.5c-.1,0-.2-.2-.2-.4v-1.6c0-.2,0-.3,.2-.4l.6-.4c0,0,.2-.1,.3-.1h2.1l.3-.2v-1c0-.2,0-.3,.2-.4l.6-.4c0,0,.2-.1,.3-.1h.4c.1,0,.2,0,.3,.1l.5,.4c.1,0,.2,.2,.2,.4v15c0,.1,0,.3-.1,.4l-.5,.5c0,0-.2,.1-.4,.1Zm-.6-1h.4l.2-.2V15.4l-.2-.2-.2,.2v1c0,.1,0,.3-.2,.4l-.6,.5c0,0-.2,.1-.3,.1h-2.1l-.2,.2v1.1l.3,.2h1.7c.1,0,.3,0,.4,.1l.5,.5c0,0,.1,.2,.1,.4v5.9c0,.1,0,.3-.1,.4l-.5,.5c0,0-.2,.1-.4,.1h-1.6l-.2,.2v1.2l.2,.2h1.6c.1,0,.3,0,.4,.1l.5,.5c0,0,.1,.2,.1,.4v.5l.3,.2Zm-14-.7h-2.3c-.1,0-.2,0-.3,0l-.6-.4c-.1,0-.2-.2-.2-.4v-1.7c0-.2,0-.3,.2-.4l.6-.4c0,0,.2,0,.3,0h2.3c.1,0,.2,0,.3,.1l.5,.4c.1,0,.2,.2,.2,.4v1.7c0,.1,0,.3-.2,.4l-.5,.4c0,0-.2,.1-.3,.1Zm-2.2-1h2l.2-.2v-1.2l-.2-.2h-2l-.2,.2v1.2l.2,.2Zm28-4h-2.1c0,0-.2,0-.3,0l-.7-.4c-.1,0-.2-.2-.2-.4v-1.9c0-.2,0-.3,.2-.4l.7-.5c0,0,.2-.1,.3-.1h2.1c.1,0,.3,0,.4,.1l.5,.5c0,0,.1,.2,.1,.4v1.9c0,.1,0,.3-.2,.4l-.5,.4c0,0-.2,.1-.3,.1Zm-2-1h1.8l.2-.2v-1.5l-.2-.2h-1.7l-.3,.3v1.4l.3,.2Zm-23.9-3.4h-2.3c-.1,0-.2,0-.3-.1l-.6-.5c-.1,0-.2-.2-.2-.4v-1.6c0-.2,0-.3,.2-.4l.6-.4c0,0,.2-.1,.3-.1h2.3c.1,0,.2,0,.3,.1l.5,.4c.1,0,.2,.2,.2,.4v1.6c0,.1,0,.3-.1,.4l-.5,.5c0,0-.2,.1-.4,.1Zm-2.1-1h1.9l.2-.2v-1.2l-.2-.2h-2l-.2,.2v1.1l.3,.2Zm28-1.1h-2.1c0,0-.2,0-.3,0l-.7-.4c-.1,0-.2-.2-.2-.4v-2.2c0-.2,0-.3,.2-.4l.7-.5c0,0,.2-.1,.3-.1h2.1c.1,0,.3,0,.4,.1l.5,.5c0,0,.1,.2,.1,.4v2.2c0,.1,0,.3-.2,.4l-.5,.4c0,0-.2,.1-.3,.1Zm-2-1h1.8l.2-.2v-1.7l-.2-.2h-1.7l-.3,.3v1.7l.3,.2Z"/>
        </g>
      </g>
      <g>
        <g>
          <path d="M25.3,14.2h.1c0,.1-6.6,9.4-6.6,9.4-2.6,2.7-5.7,4.2-9.3,4.6H1.5l-.5-.5v-9.7l.5-.4h3.3c1.6-.3,2.8-1,3.7-2l.7-1.2h.9c0-.1,15.3-.1,15.3-.1Zm21.7,54.8l-.5-.4v-10l.5-.6h4.8c1.9,0,2.8-1.3,2.8-4v-11.3l-.5-.5h-20.1c-.5,0-.8,.3-.9,.5l-11.4,20.3c-1.4,2-2.8,3.6-4.4,4.6-1.6,1-3.4,1.6-5.5,1.6H1.9l-.5-.5v-10.1l.5-.6h3.7c1.9,0,3.4-1.1,4.4-3.2l6.5-12.1v-.5H4.4l-.6-.4v-10.3l.6-.4h63.6l.6,.4v28.8c-.7,3.5-1.4,5.7-2.3,6.8-1.6,1.1-4,1.7-7,2h-12.2Zm24-51.8l.7,.5v9.7l-.7,.4h-7.1c-2.5,0-4.6-.5-6.3-1.5-1.7-1-2.9-2.5-3.8-4.4l-4.9-9.7c-.2-.2-.6-.3-.9-.4H11.5l-.5-.5V1.9l.5-.5H57.5l.9,.5,6.6,12.5c1.1,1.9,2.7,2.8,4.8,2.8h1.3Z" style="fill: #fff;"/>
          <path d="M11.8,70.2H1.5l-1.1-1.1v-10.9l1.1-1.2H5.6c1.5,0,2.6-.8,3.4-2.6l6-11.2H4.1l-1.2-.9v-11.3l1.2-.9H68.3l1.2,.9v29.5c-.7,3.7-1.5,6-2.5,7.2l-.2,.2c-1.8,1.1-4.3,1.9-7.5,2.2h-12.7s-1.1-1-1.1-1v-10.8l1.1-1.2h5.2c.6,0,1.8,0,1.8-3v-10.8h-19.5c0,0-.2,0-.2,0l-11.4,20.3c-1.5,2.2-3.1,3.9-4.8,5-1.8,1.1-3.8,1.7-6.1,1.7Zm-9.3-2H11.8c1.9,0,3.5-.5,5-1.4,1.5-1,2.9-2.4,4.1-4.3l11.3-20.2c.4-.8,1.3-1,1.7-1h.2s20.5,0,20.5,0l1.1,1.1v11.7c0,4.3-2.4,5-3.8,5h-4.3v9h11.7c2.7-.3,4.9-.9,6.4-1.8,.5-.7,1.2-2.3,1.9-6.1v-28.1H4.8v9.2h12.5l.2,1.7-6.7,12.4c-1.4,3.1-3.6,3.7-5.2,3.7H2.4v9.2ZM1.5,29.2h-.4l-1.1-1.1v-10.5l1.1-1h3.5c1.3-.3,2.3-.8,3-1.6l.9-1.5,1.5-.2h15.7l1,1-7.2,10c-2.7,2.9-6.1,4.5-9.9,4.9H1.5Zm.5-2h7.6c3.3-.3,6.1-1.7,8.5-4.2l5.5-7.7H9.8c0,0-.6,1-.6,1-1,1.1-2.4,1.9-4.2,2.3h-.2s-2.8,0-2.8,0v8.6Zm69.3,1.7h-7.4c-2.7,0-5-.5-6.8-1.6-1.8-1.1-3.3-2.7-4.2-4.8l-4.8-9.5c0,0-.2,0-.3-.1H11l-1.1-1.1V1.5l1.1-1.1H57.7l1.4,.8,6.7,12.7c.9,1.5,2.2,2.3,3.9,2.3h1.7l1.3,1v10.8l-1.4,.9ZM12,10.8H48.2c.5,.2,1,.4,1.3,.7h.2c0,.1,5,10.1,5,10.1,.8,1.8,1.9,3.1,3.4,4,1.5,.9,3.4,1.3,5.8,1.3h6.8v-8.7h-1c-2.5,0-4.4-1.1-5.7-3.3l-6.5-12.3-.4-.2H12V10.8Z"/>
        </g>
        <g>
          <path d="M116.9,1l.5,.5v2.5l.6,.5h27.2l.6,.4v7.3l-.6,.5H76.2l-.5-.5V5l.5-.4h27l.5-.5V1.5l.7-.5h12.5Zm5.7,49.8h22.6l.6,.5v8l-.6,.5h-26.2l-.6,.4v1.7c0,1.2-.1,2.3-.4,3.3-.3,1-.6,1.8-1.1,2.4-1,.7-2.9,1.3-5.9,1.8h-22.2l-.5-.4v-6.1l.5-.5h13.2c1.4-.1,2-.8,2-1.9v-.3l-.6-.4h-26.7l-.6-.5v-8l.6-.5h26.7l.6-.4v-1.5l.6-.7,2.5-1.7-29-.2-.6-.5v-7.1l.6-.4h64.2l.5,.4v5.4l-.5,.5-19.6,6.2Zm-43.1-14.7l-.7-.5V15.5l.7-.4h63.2l.6,.4v13.7c0,1-.2,2-.6,2.8-.4,.9-1,1.7-1.9,2.4-.8,.7-2.7,1.3-5.4,1.7h-55.9Zm13.7-8.2h35.1l.7-.4v-3.3l-.7-.4h-35.1l-.5,.4v3.3l.5,.4Z" style="fill: #fff;"/>
          <path d="M111.1,70.5h-22.7l-1.1-1v-7l1.1-1.1h13.5c.8,0,1-.4,1.1-.6h-26.7l-1.2-1.1v-8.9l1.2-1.1h26.7v-1.3l.9-1-26.2-.2-1.2-1.1v-8.1l1.2-.9h64.9l1.1,1v6.3l-1,1-13.6,4.3h16.5l1.2,1.1v8.9l-1.2,1.1h-26.2v1.2c0,1.3-.1,2.5-.4,3.5-.3,1.1-.7,2-1.2,2.7h-.1c0,.1-.1,.3-.1,.3-1.1,.8-3.2,1.4-6.3,2h0Zm-21.8-2h21.7c3.2-.6,4.6-1.1,5.3-1.5,.3-.5,.6-1.2,.8-1.9,.2-.9,.4-1.9,.4-3v-2.2l1.2-.9h26.1v-7h-28.7l25.6-8.1v-4.5h-63.2v6.1l31.7,.2-4.9,3.5-.3,.3v1.6l-1.2,.9h-26.7v7h26.7l1.2,.9v.8c0,.8-.3,2.6-2.9,2.9h-.1s-12.7,0-12.7,0v5Zm46.2-31.3h-56.3l-1.3-1V14.9l1.4-.9h63.8l1.2,.9v14.2c0,1.2-.2,2.3-.7,3.3-.5,1-1.2,1.9-2.1,2.7-1,.9-2.9,1.5-5.9,2h0Zm-55.6-2h55.4c3.1-.5,4.4-1.1,4.8-1.5,.7-.6,1.3-1.3,1.6-2.1,.3-.7,.5-1.5,.5-2.4v-13.2h-62.4v19.1Zm48.7-6.2h-35.8l-1.1-1v-4.3l1.2-.8h35.7l1.4,.8v4.5l-1.4,.9Zm-34.9-2h34.3v-2.1h-34.3v2.1Zm51.9-13.1H75.8l-1.1-1.1V4.5l1.1-1h26.9V1l1.3-1h13.3l1.1,1.1V3.6h27.1l1.2,.9V12.8l-1.2,1.1Zm-68.8-2h68V5.6h-27.1l-1.2-1.1V2h-11.7v2.5l-1.1,1.1h-26.9v6.3Z"/>
        </g>
        <g>
          <path d="M218.6,12.4l-.5,.4h-67.3l-.5-.4V2.5l.5-.5h67.3l.5,.5V12.4Zm1.4,55.6l-.7,.5h-68.3l-.6-.5v-10.9l.6-.5h68.3l.7,.5v10.9Zm-1.9-27.5l-.6,.5h-65.1l-.7-.5v-11.3l.7-.4h65.1l.6,.4v11.3Z" style="fill: #fff;"/>
          <path d="M219.7,69.5h-69l-1.2-1.1v-11.8l1.2-1.1h69l1.3,1v11.9l-1.3,1Zm-68.2-2h67.5v-9.9h-67.5v9.9Zm66.4-25.5h-65.8l-1.3-1v-12.3l1.4-.9h65.7l1.2,.9v12.2l-1.2,1.1Zm-65.1-2h64.3v-10.2h-64.3v10.2ZM218.5,13.8h-68l-1.1-1V2.1l1.1-1.1h68.1l1.1,1.1V12.9l-1.1,1Zm-67.2-2h66.3V3h-66.3V11.8Z"/>
        </g>
        <g>
          <path d="M242.2,3.5l.5,.4v15.2l.5,.4h8.6l.7-.4V1.6l.5-.4h13.1l.6,.4v2.6l.5,.4h24.6l.7,.5V14.1l-.7,.5h-24.6l-.5,.4v4.1l.5,.4h27.3l.6,.5v9.7l-.6,.5h-27.3l-.5,.4v14.2c0,2.2-.5,4-1.4,5.6-1.4,1.7-3.4,2.9-6,3.6h-11.6l-.6-.4v-9.5l.6-.5h2.7c1.1,.1,1.8-.6,2.1-2.1v-10.9l-.7-.4h-27.2l-.5-.5v-9.7l.5-.5h5.2l.6-.4V3.9l.6-.4h11.3Zm4.5,29.6l.2,.4-6.8,12.9c-.9,1.8-2.2,3.3-3.9,4.7l-1.9,.9c-.5,.2-1.1,.4-1.8,.5-.7,.1-1.4,.2-2.1,.2h-5.4l-.6-.4v-9.5l.6-.4h.9c.9,0,1.9-.7,2.8-2.2l4-6.8,.9-.4h13Zm46.6,.4v.6c0,0-13.5,28.4-13.5,28.4-.2,.4-.4,.9-.7,1.3-.3,.5-.6,.9-.9,1.3l-1.7,2.3c-1.4,1-3.4,1.7-6,2h-42.4l-.7-.5v-9.5l.7-.4h35.2c2,0,3.9-1,5.4-3.1l11-21.7c0-.1,.4-.3,.9-.6h12.7Z" style="fill: #fff;"/>
          <path d="M270.5,70.3h-42.8l-1.3-1v-10.5l1.4-.9h35.5c1.7,0,3.2-.9,4.6-2.7l11.1-21.7c.2-.3,.6-.6,1.4-.9h.2c0,0,13.8,0,13.8,0l.2,1.7-13.7,28.7c-.2,.5-.5,.9-.8,1.4-.3,.5-.6,1-1,1.4l-1.9,2.4c-1.5,1.1-3.7,1.8-6.5,2.1h0Zm-42.1-2h42c2.3-.3,4.1-.8,5.4-1.7l1.7-2.1c.3-.4,.6-.8,.9-1.3,.3-.4,.5-.8,.7-1.2l13.2-27.6h-11.3c-.2,0-.3,.2-.4,.2l-11.1,21.7c-1.8,2.3-3.9,3.5-6.2,3.5h-34.8v8.5Zm31-13.2h-12l-1.2-.9v-10.5l1.2-1.1h3.2c.3,0,.7,.1,1-1.2v-10.2h-27.3l-1.1-1.1v-10.5l1.1-1.1h5.2V3.4l1.2-.9h12l1.1,1v15.1h7.7V1.1l1.2-.8h13.7l1.3,.8V3.6h24.5l1.3,1V14.6l-1.3,1h-24.5v2.9h27.2l1.2,1.1v10.6l-1.2,1.1h-27.2v13.7c0,2.4-.5,4.4-1.5,6.1h0c-1.5,2-3.7,3.3-6.5,4.1h-.1Zm-11.3-2h11c2.4-.7,4.1-1.7,5.3-3.2,.8-1.4,1.2-3.1,1.2-5v-14.7l1.1-1h27.3v-8.7h-27.3l-1.1-1v-5l1.1-1h24.7V5.6h-24.7l-1.1-1V2.2h-12.2V19.6l-1.4,.9h-9.2l-1.1-1V4.5h-10.4v15.1l-1.2,.9h-5v8.7h27.1l1.4,.9v11.6c-.6,2.9-2.3,3-3.2,2.9h-2.2v8.5Zm-17.6,.5h-5.8l-1.2-.9v-10.6l1.3-.8h1.2c.5,0,1.3-.6,2-1.7l4.1-7,1.4-.6h13.8l.8,1.3-7.1,13.4c-1,1.9-2.4,3.6-4.2,5h-.2c0,.1-1.9,1-1.9,1-.6,.3-1.3,.4-2,.6-.8,.2-1.5,.2-2.3,.2Zm-5-2h5c.6,0,1.2,0,1.9-.2,.6-.1,1.2-.3,1.6-.5l1.7-.9c1.5-1.2,2.7-2.6,3.6-4.3l6.3-11.8h-11.6l-.4,.2-3.8,6.5c-1.2,1.8-2.4,2.7-3.7,2.7h-.5v8.3Z"/>
        </g>
        <g>
          <path d="M368.3,7l-.5,.5h-19.7l-.6,.5V31.4l-.4,.5h-7.5l-.5-.5v-2.1l-.5-.4h-12.1l-.6,.4-.5,.5h-1.8l-.5,.5v1.6l.5,.5h1.8l.5,.4v30.2c-.4,3.3-2.5,5.2-6.2,5.5h-2.3l-.5-.5v-2.1c-.9,1.3-2.2,2-3.7,2.3h-.9l-.4-.4v-1.8c-1.3,1.4-2.5,2.1-3.9,2.1h-.4l-.5-.5v-2c-.8,1.3-1.9,2.1-3.4,2.3h-.8l-.6-.4v-2.1c-.7,1.4-1.8,2.1-3.3,2.1l-.5-.4v-7.2c.7-.1,1.3-1,1.8-2.6v-13.9l.4-.5h1.5l.6,.5v14.5l.5,.4h.7l.5-.4v-14.5l.5-.5h1.7l.7,.5v14.5l.5,.4h.8l.4-.4v-14.5l.7-.5h1.7l.6,.5v14.5l.5,.4h.7l.7-.4v-14.5l.4-.5h2l.6,.5v14.5l.5,.4h.9l.4-.4v-17.4l-.4-.4h-17.7l-.7-.5V2.5l.7-.5h67.1l.5,.5V7Zm-55.1,5.2v-1.6l-.5-.4h-2.3l-.6,.4v1.6l.6,.5h2.3l.5-.5Zm0,9.5v-1.7l-.5-.4h-2.3l-.6,.4v1.7l.6,.4h2.3l.5-.4Zm.4,10.2v-1.6l-.6-.5h-2.7l-.6,.5v1.6l.6,.5h2.7l.6-.5Zm12.7-23.5v1.2l-.6,.5h-2.3l-.6,.4v1.6l.6,.5h1.9l.5,.5v5.9l-.5,.5h-1.8l-.5,.4v1.7l.5,.4h1.8l.5,.5v.7l.6,.5h.8l.5-.5V8.4l-.5-.4h-.4l-.6,.4Zm12.2,54.6c-1.2,2.9-3.1,4.6-5.5,5.2h-4.3l-.5-.4v-5.4c1.3-.4,2.1-1.2,2.6-2.3l.6-1.7,.7-.4h6.9l.4,.4-.9,4.7Zm.5-12.3c-.9,2.3-2.9,3.6-6,4.1h-3.7l-.6-.5v-5.2c1.3-.1,2.2-.9,2.9-2.4l.2-1.9,.7-.5h7.3l.3,.5-1.1,6Zm28.3-37.3c0,.4-.1,.7-.4,.9l-3.2,5.3v.7l1.2,1.9c.2,.4,.6,.8,.9,1.1,.4,.3,.9,.5,1.5,.7h1.3l.7,.4v7.4l-.7,.4h-.7l-.6,.4v3.4c-.7,2.9-2.8,4.6-6.1,5.2h-7l-.6,.5v26.3l-.5,.5h-10.8l-.4-.5v-26.3l-.6-.5h-11.6l-.6-.5v-5.7l.6-.4h21.1c2.7,0,4.4-.7,5.1-2.2h-5.5l-.5-.5v-7.8c1,0,1.9-.5,2.8-1.4l.5-1.2v-.9l-2.4-4.8v-.4h5.2c0,.1,.3,0,.3,0l.5-.5,.2-.7-.2-.5h-5.9l-.6-.4v-4.1l.6-.4h15.8l.5,.4v4.2Zm-28.3-3.2v-2.2l-.5-.5h-2.1l-.7,.5v2.2l.7,.4h2.1l.5-.4Zm0,6.5v-1.9l-.5-.5h-2.1l-.7,.5v1.9l.7,.4h2.1l.5-.4Zm0,6.7v-2l-.5-.4h-2.1l-.7,.4v2l.7,.5h2.1l.5-.5Zm24,25c.8-.2,1.5-.9,2.1-2.2l.4-2,.8-.5h2.3l.4,.5-1.2,8.8c-.8,1.8-1.7,2.9-2.8,3.1v1.7c.1,1,1.1,1.7,2.8,2.2h.7l.6,.4v7.3l-.6,.4h-4.1c-3.9,0-6.4-2.2-7.5-6.5l-1.5-17.1,.6-.4h6.2l.4,.4,.6,3.9Zm-5.7-17.1h3.1l.2-.3-1.5-1.9h-.9l-1,1.9v.3Z" style="fill: #fff;"/>
          <path d="M353.6,69.5h-11.6l-1-1.1v-22.5l-1,5.2c-1,2.6-3.3,4.2-6.8,4.7h-.1s-4.1,0-4.1,0l-1.2-1.1v-6.6h.9c.6-.2,1.4-.4,2-1.8l.2-2.2,1.4-.9h8.2l.5,.9v-2h-11.6l-1.2-1.1v-6.7l1.3-.8h21.4c.8,0,1.4,0,2-.2h-2.8l-1.1-1.1v-9.3h1c.7,0,1.3-.3,2-1l.4-.9v-.4l-2.5-5,.5-1.5-.9-.6v-5.1l.2-.2h-1.1V31.7l-1,1.1h-8.4l-1.1-1.1v-2h-11.2l-.3,.2-.8,.8h-1.7v.6h1.7l1.1,1v30.7c-.5,3.8-3,6-7.2,6.4h-2.8s-1.1-1.1-1.1-1.1v-.2c-.8,.5-1.6,.8-2.5,.9h-.2s-1.3,0-1.3,0l-.9-1.1c-.9,.6-1.9,.9-2.9,.9h-.9l-1.1-1.1c-.7,.4-1.4,.7-2.3,.8h-.1s-1.1,0-1.1,0l-1.2-.9h0c-.7,.3-1.4,.5-2.3,.5h-.3l-1.2-.8v-8.5l.8-.2s.5-.1,1-1.8v-14.2l1-1.1h2.4l1.1,1,1-1h2.5l1.2,.9,1.2-.9h2.4l1.1,1,.9-1h2.8l1,.9v-1.7h-17.5l-1.3-1V2l1.3-1h67.8l1.1,1.1V7.4l-1.1,1.1h0l.2,.2v4.7c0,.6-.2,1.2-.7,1.6l-3,5,1.1,1.6c.2,.4,.4,.6,.7,.8,.3,.2,.6,.4,1.1,.5h1.4l1.4,.9v8.5l-1.4,.9h-.6v3.1c-.9,3.3-3.2,5.3-6.9,5.9h-.2s-6.6,0-6.6,0v1.6l.9-.7h6.9l1,1,.4,2.5c.2-.2,.3-.5,.4-.7l.4-2.3,1.4-.9h3.1l.9,1.3-1.4,9.4c-.7,1.7-1.7,2.9-2.8,3.4v.9c.1,.6,1.1,1,2,1.3h.8l1.3,.8v8.4l-1.2,.9h-4.4c-3,0-6.9-1.3-8.5-7.3v-.2s-1.2-13.4-1.2-13.4v20.2l-1.1,1.1Zm-10.6-2h9.7v-26.3l1.2-1.1h7.3c2.8-.5,4.5-1.9,5.2-4.3v-3.8l1.2-.9h.7v-6.3h-1.3c-.7-.3-1.2-.5-1.7-.9-.5-.4-.9-.8-1.3-1.4l-1.4-2.1v-1.2l3.4-5.7h.1c0-.2,0-.2,0-.3v-3.7h-14.9v2.9h6.1l.6,1.5-.4,1.2-.8,.8-1.1,.5-.4-.4h-3.3l2,4v1.3l-.7,1.6h-.1c-.8,.9-1.7,1.5-2.5,1.7v6.5h5.5v-.6c-.1,0,1.3-2.8,1.3-2.8h1.9l2.3,2.9-1,1.3h-3.9l-.3,.6c-.9,1.8-2.9,2.8-6,2.8h-20.7v4.6h11.6l1.2,1.1v26.3Zm-25.1,0h1.8c3.2-.3,4.9-1.8,5.2-4.6v-29.5h-1.7l-1.1-1.1v-2.4l1.1-1.1h1.8l.3-.3,.8-.6h12.8l1.1,1v2.1h6.4V7.5l1.2-1.1h19.6V3h-66.2V38.8h17.8l1,1v18.2l-1.1,.9h-1.6l-1.2-.8v-14.5h-1v14.6l-1.4,.8h-1.2l-1.2-.8v-14.5h-.9v14.4l-1.1,.9h-1.5l-1.2-.8v-14.5h-.9v14.5l-1.2,.8h-1.4l-1.2-.8v-14.5h-.5v13.8c-.4,1-.9,2.3-1.8,2.9v5.9c.8-.1,1.4-.6,1.9-1.5l1.9-3.6v5.7h.3c1.2-.2,2-.7,2.6-1.8l1.9-3.1v5.2c1,0,2-.6,3.1-1.8l1.7-1.9v3.9h.2c1.3-.2,2.2-.8,3-1.8l1.8-2.5v4.7Zm39.9-6.1c1,3.8,3.1,5.7,6.5,5.7h3.6v-6.1h-.5c-2.2-.6-3.4-1.6-3.6-3h0v-2.6l.8-.2c.9-.2,1.6-1.4,2.1-2.4l1.1-8h-1.4c0,.1-.4,1.9-.4,1.9-.7,1.5-1.7,2.5-2.8,2.7l-1.1,.2-.7-4.5h-5.2l1.5,16.3Zm-28.1-7.7h3.2c2.7-.4,4.4-1.5,5.1-3.3l.9-5.2h-6.2c0,0-.2,1.7-.2,1.7h0c-.7,1.6-1.6,2.5-2.8,2.9v3.9Zm29.1-23.5h0s0,0,0,0Zm-25.7,38.9h-4.8l-1.1-1v-6.6l.7-.2c1-.3,1.6-.9,2-1.7l.7-2,1.3-.8h7.6l1,1.2-1,5.4c-1.3,3.2-3.4,5.1-6.2,5.7h-.1Zm-3.9-2h3.7c2.1-.5,3.6-2,4.7-4.5l.7-3.9h-6c0,.1-.5,1.6-.5,1.6-.5,1.1-1.4,2-2.5,2.5v4.2Zm-15.8-33.7h-3.4l-1.2-1.1v-2.5l1.2-1.1h3.4l1.2,1.1v2.5l-1.2,1.1Zm-2.6-2h1.9v-.6h-1.9v.6Zm28.2-6.5h-2.9l-1.3-1v-3l1.4-.9h2.8l1.1,1v2.8l-1.1,1.1Zm-2.2-2h1.3v-.9h-1.3v.9Zm-9.1,2h-1.6l-1.2-1.1v-.7h-1.7l-1.1-1v-2.6l1.1-1h1.7v-4.9h-1.8l-1.2-1.1v-2.6l1.2-.9h2.2v-1.2l1.2-.9h1.1l1.1,1v15.8l-1.1,1.1Zm-3.6-3.7h1.7l1,1v-2.5l-1,1h-1.7v.5Zm-.1-9.4h1.9l1,1v-2.1l-.7,.6h-2.2v.5Zm-10.9,11.4h-3l-1.2-.9v-2.7l1.2-.9h3l1.1,1v2.6l-1.1,1Zm-2.3-2h1.4v-.5h-1.4v.5Zm28.1-3h-2.8l-1.4-.9v-2.9l1.3-1h2.9l1.1,1.1v2.8l-1.1,1Zm-2.1-2h1.3v-.8h-1.3v.8Zm-23.7-2.4h-3.1l-1.2-1.1v-2.6l1.2-.9h3l1.1,1v2.5l-1.1,1.1Zm-2.3-2h1.4v-.5h-1.4v.5Zm28.1-.1h-2.8l-1.4-.9v-3.2l1.3-1h2.9l1.1,1.1v3.1l-1.1,1Zm-2.1-2h1.3v-1.1h-1.3v1.1Z"/>
        </g>
      </g>
    </g>
  </g>
</svg>