<?xml version="1.0" encoding="UTF-8"?>
<svg id="Layer_2" data-name="Layer 2" xmlns="http://www.w3.org/2000/svg" viewBox="0 0 873.9 99.5">
  <g id="BAR">
    <g>
      <g>
        <path d="M872.8,39.6c.7-4.9-2.7-9.4-7.6-10.1h-.4c-.7-.3-1.5-.5-2.3-.6l-1.1-.2c1.7-1.2,3-2.7,3.7-4.7,1.5-4.3-1.1-9.2-4.9-11.6-3.8-2.4-8.6-2.9-13.1-2.6-4.6,.3-9.4,1.4-12.5,4.8-.7,.8-1.3,1.7-1.8,2.6-.2-1-.5-2-1-3-2-4.1-6.4-6.5-10.6-8-4.3-1.5-9-2.5-13.3-1.2-4.4,1.3-8.1,5.3-7.9,9.8,0,2.1,1,3.9,2.2,5.5l-1.1-.2c-.8-.1-1.6-.1-2.4,0h-.4c-4.9-.7-9.4,2.7-10.1,7.5,0,.4,0,.8,0,1.2-.1,.4-.2,.9-.3,1.3l-6.5,46.2c-.9,6.4,3.6,12.4,10,13.3l21,3,19.7,2.8,21,3c6.4,.9,12.4-3.6,13.3-10l6.5-46.2c0-.5,0-.9,.1-1.4,.1-.4,.2-.8,.3-1.2Zm-32.7-22.2c1.8-2,4.7-2.7,7.4-2.8,2.7-.2,5.5,0,7.8,1.5,2.3,1.4,3.8,4.4,2.9,6.9-.8,2.4-3.4,3.7-5.9,4.4l-14.5-2.1-.2-.3c.3-2.7,.7-5.7,2.6-7.7Zm-33.6-1.7c-.1-2.7,2.1-5.1,4.7-5.9s5.4-.2,8,.7c2.6,.9,5.1,2.4,6.4,4.8,1.2,2.5,.8,5.4,.3,8.2l-.2,.2-14.8-2.1c-2.2-1.4-4.3-3.3-4.4-5.9Z"/>
        <path d="M854.3,99.5c-.6,0-1.2,0-1.8-.1l-61.6-8.7c-3.4-.5-6.3-2.2-8.4-5-2.1-2.7-2.9-6.1-2.4-9.4l6.5-46.2c0-.4,.1-.9,.3-1.3,0-.4,0-.8,0-1.2,.4-2.6,1.7-4.9,3.9-6.5,2.1-1.6,4.7-2.3,7.4-1.9h.3c.5,0,1,0,1.5,0-.7-1.4-1.1-2.8-1.2-4.2-.2-5.3,4.3-9.5,8.6-10.8,3.9-1.2,8.5-.8,14,1.2,5.7,2.1,9.3,4.9,11.2,8.5,.2,.3,.3,.7,.5,1.1,.2-.3,.5-.6,.8-.9,2.8-3,7.1-4.7,13.1-5.1,5.8-.4,10.3,.5,13.7,2.7,3.8,2.5,7,7.8,5.3,12.8-.5,1.4-1.2,2.6-2.3,3.7,.5,.1,1,.2,1.4,.4h.3c2.6,.4,4.9,1.8,6.5,3.9,1.6,2.1,2.3,4.7,1.9,7.4,0,.4-.1,.7-.2,1.2,0,.5,0,.9-.1,1.4l-6.5,46.2c-.9,6.4-6.4,11-12.6,11Zm-57.5-78.6c-1.7,0-3.4,.6-4.8,1.6-1.7,1.3-2.8,3.1-3.1,5.2,0,.3,0,.6,0,1.1v.2c-.2,.5-.2,.9-.3,1.2l-6.5,46.2c-.4,2.8,.3,5.7,2.1,8,1.7,2.3,4.2,3.8,7.1,4.2l61.6,8.7c5.9,.8,11.3-3.3,12.2-9.1l6.5-46.2c0-.4,0-.8,0-1.3v-.2c.1-.4,.2-.7,.3-1h0c.3-2.1-.2-4.2-1.5-5.9-1.3-1.7-3.1-2.8-5.2-3.1h-.6c-.7-.4-1.4-.5-2.1-.6l-3.6-.5,2.1-1.5c1.7-1.2,2.8-2.6,3.3-4.2,1.4-4.1-1.3-8.4-4.5-10.5-3.1-2-7.2-2.7-12.5-2.4-5.5,.4-9.4,1.8-11.8,4.5-.6,.7-1.2,1.5-1.7,2.4l-1.3,2.4-.6-2.7c-.2-1-.5-1.9-.9-2.8-1.6-3.2-4.9-5.7-10.1-7.6-5-1.8-9.2-2.2-12.7-1.2-3.6,1.1-7.4,4.5-7.2,8.8,0,1.7,.8,3.4,2,5l1.6,2-3.6-.5c-.7-.1-1.5-.1-2.2,0h-.1s-.5,0-.5,0c-.4,0-.7,0-1.1,0Zm55.5,7.5l-15.2-2.2-.6-.9v-.3c.3-3,.8-6,2.9-8.3,1.7-1.9,4.4-2.9,8.1-3.1,3.5-.2,6.3,.3,8.4,1.7,2.8,1.8,4.3,5.3,3.3,8.1-.8,2.4-3,4.1-6.6,5.1h-.2Zm-13.7-3.9l13.6,1.9c2.8-.8,4.5-2,5-3.7,.8-2.2-.7-4.6-2.5-5.7-1.8-1.1-4.1-1.6-7.2-1.4-3.1,.2-5.3,1-6.7,2.5h0c-1.5,1.6-2,4-2.2,6.4Zm-12.6,.2l-15.4-2.2h-.2c-3.1-2-4.8-4.3-4.9-6.8h0c-.1-3,2.2-5.9,5.5-6.9,2.4-.7,5.2-.5,8.6,.7,3.5,1.3,5.8,3,6.9,5.3,1.4,2.8,1,5.9,.4,8.8v.3c0,0-.9,.7-.9,.7Zm-14.7-4.1l13.8,1.9c.4-2.4,.6-4.8-.4-6.8-.9-1.8-2.8-3.2-5.8-4.3-2.9-1.1-5.3-1.3-7.3-.7-2,.6-4.1,2.5-4,4.9h0c0,1.8,1.3,3.5,3.8,5Z"/>
      </g>
      <g>
        <path d="M842.5,86.5H37.5c-13.8,0-25-11.2-25-25h0c0-13.8,11.2-25,25-25H842.5c13.8,0,25,11.2,25,25h0c0,13.8-11.2,25-25,25Z"/>
        <path d="M842.5,88H37.5c-14.6,0-26.5-11.9-26.5-26.5s11.9-26.5,26.5-26.5H842.5c14.6,0,26.5,11.9,26.5,26.5s-11.9,26.5-26.5,26.5ZM37.5,38c-13,0-23.5,10.5-23.5,23.5s10.5,23.5,23.5,23.5H842.5c13,0,23.5-10.5,23.5-23.5s-10.5-23.5-23.5-23.5H37.5Z"/>
      </g>
      <g>
        <path d="M831.5,77.5H26.5c-13.8,0-25-11.2-25-25h0c0-13.8,11.2-25,25-25H831.5c13.8,0,25,11.2,25,25h0c0,13.8-11.2,25-25,25Z" style="fill: #008f45;"/>
        <path d="M831.5,79H26.5c-14.6,0-26.5-11.9-26.5-26.5S11.9,26,26.5,26H831.5c14.6,0,26.5,11.9,26.5,26.5s-11.9,26.5-26.5,26.5ZM26.5,29c-13,0-23.5,10.5-23.5,23.5s10.5,23.5,23.5,23.5H831.5c13,0,23.5-10.5,23.5-23.5s-10.5-23.5-23.5-23.5H26.5Z"/>
      </g>
      <g>
        <g>
          <path d="M829.2,10.8c-2-4.1-6.4-6.5-10.6-8-4.3-1.5-9-2.5-13.3-1.2-4.4,1.3-8.1,5.3-7.9,9.8,.2,4.8,4.6,8.4,8.8,10.7,6.7,3.7,14.8,6,22.1,3.7l1.5-1.3c.9-4.6,1.5-9.5-.5-13.7Zm-5.8,9.3l-.9,.8c-4.4,1.4-9.2,0-13.2-2.2-2.5-1.4-5.1-3.5-5.3-6.4-.1-2.7,2.1-5.1,4.7-5.9,2.6-.8,5.4-.2,8,.7,2.6,.9,5.1,2.4,6.4,4.8,1.2,2.5,.8,5.4,.3,8.2Z" style="fill: #f1e2b9;"/>
          <path d="M822,27.8c-6.2,0-12.1-2.4-16.4-4.8-5.9-3.2-9.1-7.2-9.3-11.5-.2-5.3,4.3-9.5,8.6-10.8,3.9-1.2,8.5-.8,14,1.2,5.7,2.1,9.3,4.9,11.2,8.5h0c2.2,4.4,1.5,9.5,.6,14.3v.3c0,0-2,1.7-2,1.7h-.2c-2.1,.7-4.3,1-6.4,1Zm-12.4-25.8c-1.5,0-2.8,.2-4.1,.6-3.6,1.1-7.4,4.5-7.2,8.8,.2,4.5,4.6,7.9,8.3,9.9,5.4,3,13.4,6,21.1,3.7l1.1-1c.8-4.4,1.4-8.9-.5-12.7h0c-1.6-3.2-4.9-5.7-10.1-7.6-3.2-1.2-6.1-1.7-8.6-1.7Zm9.2,20.5c-3.8,0-7.4-1.5-10-2.9-3.7-2-5.7-4.5-5.8-7.2-.1-3,2.2-5.9,5.5-6.9,2.4-.7,5.2-.5,8.6,.7,3.5,1.3,5.8,3,6.9,5.3,1.4,2.8,1,5.9,.4,8.8v.3c0,0-1.4,1.2-1.4,1.2h-.2c-1.3,.5-2.7,.6-4,.6Zm-7.4-15.4c-.8,0-1.6,.1-2.3,.3-2,.6-4.1,2.5-4,4.9,.1,2.5,2.6,4.4,4.7,5.6,3.1,1.7,7.8,3.5,12.2,2.2l.5-.4c.5-2.5,.8-5.1-.3-7.2-.9-1.8-2.8-3.2-5.8-4.3-1.9-.7-3.5-1-5-1Z"/>
        </g>
        <g>
          <path d="M827.7,24.3l1.1,1.7c6.4,4.2,14.8,4.2,22.3,2.5,4.7-1.1,9.9-3.3,11.4-7.8,1.5-4.3-1.1-9.2-4.9-11.6-3.8-2.4-8.6-2.9-13.1-2.6-4.6,.3-9.4,1.4-12.5,4.8-3.2,3.4-3.9,8.4-4.3,13Zm9.9-10.2c1.8-2,4.7-2.7,7.4-2.8,2.7-.2,5.5,0,7.8,1.5,2.3,1.4,3.8,4.4,2.9,6.9-.9,2.7-4,4-6.8,4.6-4.4,1-9.4,1-13.2-1.5l-.7-1c.3-2.7,.7-5.7,2.6-7.7Z" style="fill: #f1e2b9;"/>
          <path d="M842.2,30.6c-4.6,0-9.6-.9-13.9-3.8h-.2c0-.1-1.4-2.3-1.4-2.3v-.3c.5-4.9,1.3-9.9,4.6-13.6,2.8-3,7.1-4.7,13.1-5.1,5.8-.4,10.3,.5,13.7,2.7,3.8,2.5,7,7.8,5.3,12.8-1.4,4.1-5.6,7-12.2,8.5-2.7,.6-5.8,1.1-9.1,1.1Zm-12.6-5.3c6.7,4.3,15.3,3.6,21.3,2.3,4.1-.9,9.3-2.9,10.7-7.2,1.4-4.1-1.3-8.4-4.5-10.5-3.1-2-7.2-2.8-12.5-2.4-5.5,.4-9.4,1.8-11.8,4.5-2.9,3.1-3.6,7.6-4,12.1l.8,1.2Zm14.1,.7c-2.8,0-5.8-.6-8.5-2.3h-.2c0-.1-1-1.6-1-1.6v-.3c.3-3,.8-6,2.9-8.3h0c1.7-1.9,4.4-2.9,8.1-3.1,3.5-.2,6.3,.3,8.4,1.7,2.8,1.8,4.3,5.3,3.3,8.1-.9,2.6-3.5,4.4-7.5,5.3-1.6,.4-3.5,.6-5.5,.6Zm-7.2-3.9c3.9,2.4,8.8,2,12.2,1.3,2.3-.5,5.2-1.6,6.1-4,.8-2.2-.7-4.6-2.5-5.7-1.8-1.1-4.1-1.6-7.2-1.4-3.1,.2-5.3,1-6.7,2.5-1.6,1.7-2,4.3-2.3,6.8l.4,.5Z"/>
        </g>
        <g>
          <rect x="781.4" y="20.8" width="85.7" height="70.2" rx="12" ry="12" transform="translate(16 -114.9) rotate(8.1)" style="fill: #ff931e;"/>
          <path d="M851.6,96.1c-.6,0-1.2,0-1.8-.1l-61.1-8.6c-7.1-1-12.1-7.6-11.1-14.7l6.5-45.8c.5-3.4,2.3-6.5,5.1-8.6,2.8-2.1,6.2-3,9.6-2.5l61.1,8.6c3.4,.5,6.5,2.3,8.6,5.1,2.1,2.8,3,6.2,2.5,9.6l-6.5,45.8c-.9,6.5-6.5,11.2-12.9,11.2Zm-54.7-78.4c-2.4,0-4.7,.8-6.6,2.2-2.4,1.8-3.9,4.3-4.3,7.2l-6.5,45.8c-.9,6,3.3,11.6,9.4,12.4l61.1,8.6c6,.9,11.6-3.3,12.4-9.4l6.5-45.8c.4-2.9-.3-5.8-2.1-8.1-1.8-2.4-4.3-3.9-7.2-4.3l-61.1-8.6c-.5,0-1-.1-1.5-.1Z"/>
        </g>
        <path d="M859.8,47l-67.2-9.5c-4.9-.7-8.3-5.2-7.6-10.1h0c.7-4.9,5.2-8.3,10.1-7.6l67.2,9.5c4.9,.7,8.3,5.2,7.6,10.1h0c-.7,4.9-5.2,8.3-10.1,7.6Z"/>
        <g>
          <path d="M860.2,43.9l-67.2-9.5c-4.9-.7-8.3-5.2-7.6-10.1h0c.7-4.9,5.2-8.3,10.1-7.6l67.2,9.5c4.9,.7,8.3,5.2,7.6,10.1h0c-.7,4.9-5.2,8.3-10.1,7.6Z" style="fill: #ff931e;"/>
          <path d="M861.5,45c-.5,0-.9,0-1.4,0l-67.2-9.5c-5.4-.8-9.2-5.8-8.5-11.2,.4-2.6,1.7-4.9,3.9-6.5,2.1-1.6,4.7-2.3,7.4-1.9l67.2,9.5c2.6,.4,4.9,1.7,6.5,3.9,1.6,2.1,2.3,4.7,1.9,7.4-.4,2.6-1.7,4.9-3.9,6.5-1.7,1.3-3.8,2-6,2Zm-67.2-27.4c-1.7,0-3.4,.6-4.8,1.6-1.7,1.3-2.8,3.1-3.1,5.2-.3,2.1,.2,4.2,1.5,5.9,1.3,1.7,3.1,2.8,5.2,3.1l67.2,9.5c2.1,.3,4.2-.2,5.9-1.5,1.7-1.3,2.8-3.1,3.1-5.2,.6-4.3-2.4-8.4-6.8-9l-67.2-9.5c-.4,0-.7,0-1.1,0Z"/>
        </g>
        <g>
          <rect x="814.3" y="21.1" width="19.9" height="70" transform="translate(16 -114.9) rotate(8.1)" style="fill: #f1e2b9;"/>
          <path d="M830,93.2l-21.7-3.1,10.1-71.3,21.7,3.1-10.1,71.3Zm-19.4-4.8l17.7,2.5,9.5-67.3-17.7-2.5-9.5,67.3Z"/>
        </g>
        <g>
          <path d="M820.1,20.1c-3.1,0-5.1,2-7.6,3.9-4.2,3.1-7.8,6.9-10.7,11.1-1.7,2.4-3.1,5.1-4.5,7.7-2.9,5.3-5.8,10.5-8.7,15.8,2.7,.2,5.5-.7,7.6-2.4,.4,2.2,1.3,4.3,2.7,6,4.8-7,5.7-16.1,10.6-23.1,4.6-6.6,14.7-10.9,18.7-17.8-2.1-.4-5.8-.8-8-1.1" style="fill: #f1e2b9;"/>
          <path d="M798.9,63.8l-.9-1c-1.2-1.5-2.1-3.1-2.6-4.9-2.1,1.3-4.6,1.9-7.1,1.7h-1.5c0-.1,9.4-17.3,9.4-17.3,1.4-2.6,2.9-5.2,4.6-7.7,3-4.4,6.7-8.2,11-11.4,.4-.3,.7-.6,1.1-.8,2.1-1.6,4.2-3.2,7.1-3.2h0s1.9,.3,1.9,.3c2,.3,4.6,.6,6.2,.9l1.4,.2-.7,1.2c-2.2,3.9-6.2,7-10.1,9.9-3.2,2.5-6.6,5-8.6,8-2.4,3.4-3.9,7.5-5.3,11.5-1.4,3.9-2.9,8-5.3,11.5l-.8,1.1Zm-2.1-9.6l.3,1.7c.2,1.6,.8,3.1,1.7,4.4,1.8-3.1,3.1-6.5,4.3-9.9,1.5-4.1,3-8.3,5.6-12,2.2-3.2,5.7-5.8,9-8.4,3.3-2.5,6.6-5.1,8.8-8.1-1.4-.2-3.2-.4-4.6-.6l-1.8-.2c-2.3,0-3.9,1.3-5.9,2.8-.4,.3-.7,.6-1.1,.9-4.1,3-7.6,6.7-10.5,10.9-1.6,2.4-3.1,5-4.5,7.6l-7.9,14.3c1.9-.2,3.8-.9,5.3-2.2l1.4-1.1Z"/>
        </g>
        <g>
          <path d="M836.2,22.4c3,.9,4.4,3.4,6.3,5.8,3.1,4.1,5.6,8.8,7.2,13.7,.9,2.8,1.6,5.7,2.2,8.6,1.3,5.9,2.6,11.7,4,17.6-2.7-.6-5.1-2.2-6.7-4.5-.9,2-2.4,3.8-4.3,5-2.6-8.1-1-17.1-3.8-25.1-2.6-7.6-11.1-14.5-13-22.3,2.2,.3,5.8,.8,8,1.1" style="fill: #f1e2b9;"/>
          <path d="M844.4,70.3l-.4-1.3c-1.3-4.1-1.6-8.4-1.9-12.6-.3-4.2-.6-8.6-1.9-12.5-1.2-3.4-3.7-6.8-6.1-10.1-2.9-3.9-5.9-8-6.9-12.4l-.3-1.4,1.4,.2c1.6,.2,4.1,.6,6.2,.9l2,.3c2.8,.8,4.4,3,6,5.1,.3,.4,.5,.7,.8,1.1,3.2,4.2,5.7,8.9,7.4,14,.9,2.9,1.6,5.8,2.3,8.7l4.3,19.1-1.5-.3c-2.4-.5-4.7-1.8-6.3-3.6-1,1.6-2.3,3-3.8,4l-1.1,.8Zm-14.9-47.8c1.2,3.5,3.7,6.9,6.2,10.2,2.5,3.4,5.1,6.9,6.4,10.6,1.5,4.2,1.8,8.7,2,13.1,.2,3.6,.5,7.2,1.4,10.7,1.2-1,2.1-2.3,2.8-3.8l.7-1.6,1,1.5c1.1,1.6,2.7,2.9,4.5,3.6l-3.6-16c-.6-2.8-1.3-5.7-2.2-8.5-1.6-4.8-4-9.3-7.1-13.4-.3-.4-.6-.8-.8-1.1-1.4-2-2.7-3.7-4.9-4.3l-1.8-.3c-1.5-.2-3.2-.5-4.6-.7Z"/>
        </g>
      </g>
      <g>
        <g>
          <path d="M824.4,49.5c-.5,0-.9,0-1.4,0,0-.6-.2-1.2-.3-1.9-3.6-22-24.4-37.1-46.4-33.5-22,3.6-37.1,24.4-33.5,46.4,1.7,10.5,7.4,19.4,16.1,25.1,8.5,5.5,19.1,7.6,29.9,5.8,10.8-1.8,20.3-7.1,26.6-14.9,5-6.2,7.7-13.7,7.8-21.7,.7-.4,1.4-.8,2-1.3,.8-.7,1.9-1.6,1.8-2.7,0-1.4-1.6-1.4-2.6-1.3Z"/>
          <path d="M781.3,92.7c-8.3,0-16.1-2.2-22.7-6.5-8.8-5.7-14.6-14.7-16.3-25.4-1.7-10.8,.8-21.6,7.2-30.5,6.4-8.9,15.9-14.8,26.7-16.5,10.8-1.7,21.6,.8,30.5,7.2,8.9,6.4,14.8,15.9,16.5,26.7,0,.5,.1,.9,.2,1.4h.9c.7-.1,1.9-.2,2.6,.5,.4,.3,.5,.7,.6,1.3,0,1.4-1.2,2.5-2,3.1-.5,.4-1.1,.8-1.8,1.3-.3,8-3,15.5-7.9,21.7-6.4,8-15.9,13.4-26.9,15.1-2.5,.4-5.1,.6-7.6,.6Zm1.5-78.5c-2.1,0-4.3,.2-6.5,.5-10.5,1.7-19.8,7.4-26,16.1-6.3,8.7-8.8,19.3-7.1,29.8,1.7,10.4,7.3,19.2,15.9,24.7,8.3,5.4,18.9,7.5,29.6,5.7,10.7-1.7,20-7,26.3-14.8,4.9-6.1,7.5-13.5,7.7-21.4v-.3s.2-.1,.2-.1c.8-.5,1.4-.9,1.9-1.3,.7-.6,1.7-1.4,1.7-2.3,0-.3,0-.5-.2-.6-.4-.4-1.4-.3-1.9-.3h-1.9c0,.1,0-.3,0-.3,0-.6-.2-1.2-.2-1.8-1.7-10.5-7.4-19.8-16.1-26-6.9-5-15-7.6-23.3-7.6Z"/>
        </g>
        <g>
          <g>
            <g>
              <g>
                <path d="M738.6,58.1c3.5,21.7,23.5,33.8,45.3,30.3,21.7-3.5,36.9-21.3,33.4-43.1-3.5-21.7-24-36.5-45.7-33-21.7,3.5-36.5,24-33,45.7Z" style="fill: #fff;"/>
                <path d="M776.4,89.6c-8.1,0-15.9-2.2-22.3-6.4-8.6-5.6-14.3-14.5-16-25h0c-1.7-10.6,.8-21.3,7.1-30,6.3-8.7,15.6-14.5,26.3-16.2,22-3.6,42.7,11.4,46.3,33.4,3.4,21.2-11.1,40-33.8,43.6-2.5,.4-5,.6-7.5,.6Zm1.5-77.1c-2.1,0-4.2,.2-6.3,.5-10.4,1.7-19.5,7.3-25.6,15.8-6.1,8.5-8.6,18.9-6.9,29.3h0c3.3,20.6,22.6,33.5,44.7,29.9,22.1-3.6,36.3-21.9,33-42.5-3.1-19.3-19.9-33-38.8-33Z"/>
              </g>
              <g>
                <path d="M754,83.3c-8.7-5.6-14.4-14.5-16.1-25.1-3.6-22,11.5-42.9,33.5-46.4,22-3.6,42.9,11.5,46.4,33.5,1.7,10.5-.9,20.8-7.4,28.9-6.3,7.9-15.7,13.2-26.6,14.9-10.8,1.8-21.5-.3-29.9-5.8Zm-14.8-25.3c1.6,10.2,7.2,18.7,15.5,24.2,8.2,5.3,18.5,7.3,29,5.6,10.5-1.7,19.7-6.8,25.7-14.5,6.2-7.8,8.7-17.7,7.1-27.8-3.5-21.3-23.6-35.9-44.9-32.4-21.3,3.5-35.9,23.6-32.4,44.9Z"/>
                <path d="M776.4,90.2c-8.3,0-16.1-2.2-22.7-6.5h0c-8.8-5.7-14.6-14.7-16.3-25.4-1.7-10.8,.8-21.6,7.2-30.5,6.4-8.9,15.9-14.8,26.7-16.5,10.8-1.7,21.6,.8,30.5,7.2,8.9,6.4,14.8,15.9,16.5,26.7,1.7,10.7-.9,21.1-7.5,29.3-6.4,8-15.9,13.4-26.9,15.1-2.6,.4-5.1,.6-7.6,.6Zm-22.1-7.3c8.3,5.4,18.9,7.5,29.6,5.7,10.7-1.7,20-7,26.3-14.8,6.4-8,8.9-18.1,7.3-28.5-1.7-10.5-7.4-19.8-16.1-26-8.7-6.3-19.3-8.8-29.8-7.1-10.5,1.7-19.8,7.4-26,16.1-6.3,8.7-8.8,19.2-7.1,29.8,1.7,10.4,7.3,19.2,15.9,24.7h0Zm22.1,6c-8,0-15.6-2.1-22-6.3-8.5-5.5-14.1-14.2-15.7-24.5h0c-1.7-10.4,.8-20.9,7-29.5,6.2-8.6,15.4-14.3,25.8-16,21.6-3.5,42,11.2,45.5,32.8,1.7,10.3-.9,20.3-7.2,28.2-6.2,7.7-15.4,12.9-26,14.6-2.5,.4-4.9,.6-7.4,.6Zm-36.7-31c1.6,10,7.1,18.5,15.3,23.8,8.1,5.2,18.2,7.2,28.6,5.5,10.4-1.7,19.4-6.8,25.4-14.3,6.1-7.7,8.6-17.4,7-27.4-3.4-21-23.3-35.4-44.4-32-10.2,1.6-19.1,7.2-25.2,15.6-6,8.4-8.5,18.6-6.8,28.8h0Z"/>
              </g>
            </g>
            <g>
              <path d="M784,46.3c-.2-1.3-1.5-2.2-2.8-2-1.3,.2-2.2,1.5-2,2.8,.2,1.3,1.5,2.2,2.8,2,1.3-.2,2.2-1.5,2-2.8Z"/>
              <path d="M781.5,49.6c-.6,0-1.2-.2-1.7-.6-.6-.5-1.1-1.1-1.2-1.9-.3-1.6,.8-3.1,2.4-3.4,1.6-.3,3.1,.8,3.4,2.4h0c.1,.8,0,1.5-.5,2.2-.5,.6-1.1,1.1-1.9,1.2-.2,0-.3,0-.5,0Zm0-4.9c-.1,0-.2,0-.3,0-1.1,.2-1.8,1.2-1.6,2.2,0,.5,.4,1,.8,1.3,.4,.3,.9,.4,1.4,.3,1.1-.2,1.8-1.2,1.6-2.2-.2-.9-1-1.6-1.9-1.6Z"/>
            </g>
            <g>
              <path d="M795,42.7c-.2-1.3-1.5-2.2-2.8-2-1.3,.2-2.2,1.5-2,2.8,.2,1.3,1.5,2.2,2.8,2,1.3-.2,2.2-1.5,2-2.8Z"/>
              <path d="M792.6,46c-1.4,0-2.7-1-2.9-2.5-.3-1.6,.8-3.1,2.4-3.4,1.6-.3,3.1,.8,3.4,2.4h0c.1,.8,0,1.5-.5,2.2s-1.1,1.1-1.9,1.2c-.2,0-.3,0-.5,0Zm0-4.9c-.1,0-.2,0-.3,0-1.1,.2-1.8,1.2-1.6,2.2,.2,1.1,1.2,1.8,2.2,1.6,.5,0,1-.4,1.3-.8,.3-.4,.4-.9,.3-1.4h0c-.2-.9-1-1.6-1.9-1.6Z"/>
            </g>
            <g>
              <g>
                <g>
                  <path d="M796,48.1c5.7-1.5,9.3-.1,15.3,0,2.9,0,5.9-.2,8.8-.4,.4,0,.9,0,1.2,.3,.4,.5,0,1.2-.4,1.7-2.6,2.8-6.4,4-10,5-3.5,1-7,2-10.6,2.7-2.3,.5-4.8,.8-7,0-2.2-.8-4-3.2-3.4-5.5,.7-2.5,3.6-3.2,6.1-3.8" style="fill: #ff5d03;"/>
                  <path d="M796.3,58.4c-1.1,0-2.2-.1-3.2-.5-2.3-.9-4.4-3.5-3.7-6.1,.8-2.8,3.9-3.6,6.4-4.2,3.9-1,6.9-.7,10.2-.4,1.6,.2,3.3,.3,5.2,.4,2.1,0,4.2-.1,6.3-.2,.8,0,1.7-.1,2.5-.2,.4,0,1.1,0,1.6,.5,.5,.6,.4,1.5-.4,2.3-2.7,3-6.9,4.2-10.3,5.1-3.5,1-7,2-10.7,2.7-1.3,.3-2.7,.5-4,.5Zm5-10.5c-1.6,0-3.3,.2-5.2,.7h0c-2.4,.6-5.1,1.2-5.7,3.5-.6,2,1.1,4.1,3,4.9,2.1,.8,4.4,.5,6.7,0,3.6-.7,7.1-1.7,10.6-2.7,3.2-.9,7.3-2.1,9.8-4.9,.3-.3,.6-.8,.4-1-.1-.2-.6-.1-.7-.1-.8,0-1.7,.1-2.5,.2-2.1,.1-4.2,.3-6.4,.2-2,0-3.6-.2-5.3-.4-1.6-.2-3.1-.3-4.7-.3Z"/>
                </g>
                <g>
                  <path d="M819.5,47.1c-2.9,.2-5.8,.5-8.7,.4-2.5,0-5-.5-7.5-.6-2.5-.2-5,0-7.4,.6-2.1,.5-4.6,1-6,2.9-1.5,2-.7,4.7,1,6.3,1.8,1.7,4.2,2,6.5,1.8,2.8-.2,5.5-1,8.2-1.7,2.7-.7,5.4-1.4,8.1-2.3,2.3-.8,4.6-1.7,6.5-3.3,.8-.7,1.9-1.6,1.8-2.7,0-1.4-1.6-1.4-2.6-1.3Zm.9,2.1c-.7,.8-1.6,1.5-2.5,2-1.9,1.1-4,1.8-6,2.4-2.4,.7-4.9,1.4-7.4,2-2.4,.6-4.8,1.3-7.2,1.4-2.1,.2-4.3-.2-5.7-1.8-1.2-1.3-1.5-3.3-.2-4.6,1.2-1.2,3.2-1.6,4.8-2,2.4-.6,4.9-.8,7.4-.6,2.4,.2,4.9,.5,7.3,.6,2.6,0,5.1-.1,7.7-.3,.6,0,1.4-.2,2-.1,.5,0,0,.6-.1,.9Z"/>
                  <path d="M796.4,59c-2.4,0-4.4-.7-5.8-2-1.8-1.7-2.7-4.6-1.1-6.9,1.4-2,4-2.6,6.1-3.1h.2c2.4-.7,4.8-.9,7.5-.7,1.1,0,2.1,.2,3.2,.3,1.4,.1,2.8,.3,4.2,.3,2.3,0,4.6,0,6.8-.2,.6,0,1.3,0,1.9-.1h0c.7,0,1.9-.1,2.6,.5,.3,.3,.5,.7,.6,1.3,0,1.4-1.2,2.5-2,3.1-2.1,1.8-4.7,2.8-6.7,3.4-2.7,.9-5.5,1.6-8.1,2.3h-.5c-2.5,.8-5.1,1.5-7.8,1.7-.4,0-.8,0-1.1,0Zm5.1-11.8c-1.9,0-3.7,.2-5.5,.7h-.2c-2,.5-4.3,1.1-5.5,2.7-1.3,1.9-.5,4.2,.9,5.6,1.4,1.3,3.5,1.9,6.2,1.7,2.5-.2,5.1-.9,7.6-1.5h.5c2.6-.8,5.4-1.6,8-2.4,1.9-.6,4.4-1.6,6.4-3.2,.7-.6,1.7-1.4,1.7-2.3,0-.3,0-.5-.2-.6-.4-.4-1.4-.3-1.9-.3h0c-.6,0-1.3,0-1.9,.1-2.3,.2-4.6,.3-6.9,.2-1.4,0-2.9-.2-4.3-.3-1.1-.1-2.1-.2-3.2-.3-.6,0-1.2,0-1.8,0Zm-5.2,10.5c-2.3,0-4-.7-5.2-2-1.3-1.4-1.7-3.7-.2-5.3,1.2-1.2,3-1.7,4.7-2.1h.4c2.4-.7,4.8-.9,7.5-.7,.9,0,1.9,.2,2.8,.3,1.5,.1,3,.3,4.5,.4,2.3,0,4.7,0,7-.2h.7c.2,0,.4,0,.6-.1,.5,0,1-.1,1.6,0,.4,0,.6,.3,.6,.5,.2,.5-.2,.9-.5,1.2-.6,.7-1.5,1.5-2.6,2.1-1.9,1.2-4.1,1.9-6.2,2.5-2.8,.8-5.2,1.5-7.4,2.1h-.3c-2.3,.7-4.6,1.3-7,1.5-.3,0-.6,0-.9,0Zm5.2-9.1c-1.9,0-3.6,.2-5.3,.7h-.4c-1.5,.4-3.1,.8-4.2,1.9-1.2,1.2-.7,2.9,.2,3.9,1.4,1.6,3.7,1.8,5.3,1.6,2.3-.2,4.6-.8,6.8-1.3h.4c2.2-.7,4.6-1.3,7.4-2.1,2-.6,4.1-1.3,5.9-2.4,1-.6,1.8-1.2,2.4-1.9h0s0,0,0,0c-.3,0-.6,0-.9,0-.2,0-.4,0-.6,0h-.7c-2.3,.2-4.7,.4-7.1,.3-1.5,0-3.1-.2-4.5-.4-.9,0-1.9-.2-2.8-.3-.6,0-1.3,0-1.9,0Z"/>
                </g>
              </g>
              <g>
                <path d="M798.1,47.6c.5,1,.2,2.4-.8,3.1-.3,.2-.7,.2-.9,0-.2-.3-.2-.7,0-.9,0,0,.2-.1,.2-.2,0,0,0,0-.1,.1,.1-.1,.2-.2,.3-.4,0,0,0,0,0,.1,0-.2,.1-.3,.2-.5,0,0,0,.1,0,.2,0-.2,0-.3,0-.5,0,0,0,.1,0,.2,0-.2,0-.3,0-.5,0,0,0,.1,0,.2,0,0,0-.2,0-.2-.1-.3,0-.7,.3-.9,.3-.1,.7,0,.9,.3h0Z"/>
                <path d="M796.8,51.3c-.3,0-.7-.1-.9-.4-.2-.3-.3-.6-.2-.9,0-.3,.2-.6,.4-.7,0,0,0,0,.1,0,0,0,0,0,.1-.1,0,0,0-.1,0-.2,0,0,0-.1,0-.2,0,0,0-.1,0-.2,0,0,0,0,0,0-.1-.3-.1-.6,0-.9,.1-.3,.3-.5,.6-.6,.6-.2,1.3,0,1.5,.6h0c.6,1.3,.2,2.9-.9,3.7-.2,.2-.5,.2-.7,.2Zm0-1.4c0,0-.1,.1-.2,.2,0,.1,0,.2,0,.2,0,0,.2,0,.2,0,.7-.5,1-1.6,.6-2.5,0,0-.2-.1-.2,0,0,.1,0,.2,0,.2,0,0,0,0,0,.1h0s0,.2,0,.2h0c0,0,0,.2,0,.3h0s0,.2,0,.2h0c0,0,0,.2,0,.3h0s0,0,0,0h0v.2s0,0,0,0c0,0,0,.2-.1,.3h0s0,.2,0,.2h0c0,0-.1,.1-.2,.2h0s-.1,.1-.1,.1h0Z"/>
              </g>
              <g>
                <path d="M801.2,47.1c.9,1,1,2.6,.2,3.8-.2,.3-.6,.4-.9,.2-.3-.2-.4-.6-.1-.9,0,0,0-.1,.1-.2,0,0,0,.1,0,0,0,0,0,0,0,0,0,0,0-.1,0-.2,0,0,0-.2,0-.2,0,0,0,.1,0,0,0,0,0,0,0-.1,0,0,0-.1,0-.2,0,0,0-.1,0-.2,0,0,0-.1,0,0,0,.1,0,0,0,0,0-.1,0-.2,0-.3,0,0,0,0,0-.1,0,0,0,0,0,0,0,0,0-.1,0-.2,0,0,0-.1,0-.2,0,0,0,0,0,0,0,0,0-.1,0,0,0,0,0,0,0,0,0,0,0,0,0,0,0,0,0-.1-.1-.2-.2-.3-.2-.7,0-.9,.3-.2,.7-.2,.9,0h0Z"/>
                <path d="M800.9,51.7c-.3,0-.5,0-.7-.2-.5-.4-.6-1.1-.3-1.6h0c0-.1,0-.2,0-.2v-.2c0,0,0-.1,0-.1,0,0,0,0,0,0,0,0,0,0,0-.1,0-.1,0-.2,0-.3h0s0,0,0,0c0,0,0-.1,0-.2h0s0,0,0,0c0-.1-.1-.2-.2-.2-.2-.2-.3-.5-.3-.9,0-.3,.2-.6,.4-.8,.5-.4,1.2-.3,1.6,.2,1.1,1.2,1.2,3.1,.3,4.4-.2,.3-.5,.4-.8,.5,0,0-.1,0-.2,0Zm-.1-1.2c0,0,0,.1,0,.1,.2,0,.2,0,.2,0,.6-.9,.6-2.3-.2-3.1h0c0,0-.2,0-.3,0,0,0,0,0,0,0l.3,.5h0s0,.2,0,.2v.2c0,0,0,0,0,0h0c0,0,0,0,0,0h0s0,0,0,0h0s0,1,0,1h0s0,.1,0,.1h0s-.4,.8-.4,.8Z"/>
              </g>
              <g>
                <path d="M805.4,48.2c.3,.7,.3,1.6,0,2.3,0,.2-.2,.3-.3,.4-.1,0-.4,0-.5,0-.2,0-.3-.2-.4-.3,0-.2,0-.4,0-.5,0-.1,.1-.3,.2-.5,0,0,0,.1,0,.2,0-.2,0-.4,0-.6,0,0,0,.1,0,.2,0-.2,0-.4,0-.6v.2s0,0,0-.1c0-.2,0-.3,0-.5,0-.1,.2-.3,.3-.4,.2,0,.4,0,.5,0,.2,0,.3,.2,.4,.3h0Z"/>
                <path d="M804.7,51.4c-.2,0-.3,0-.4,0-.3-.1-.5-.3-.6-.6-.1-.3-.1-.7,0-.9,0,0,0-.2,.1-.3,0,0,0-.2,0-.3,0,0,0-.2,0-.3-.1-.4-.1-.6,0-.9,.1-.3,.4-.5,.6-.6,.3-.1,.6-.1,.9,0,.3,.1,.5,.4,.6,.6h0c.3,.9,.3,1.9-.1,2.7,0,.2-.3,.4-.6,.6-.2,0-.3,.1-.5,.1Zm-.2-1.2s0,0,0,.1c0,0,0,0,.1,0,0,0,0,0,.1,0,0,0,0,0,.1-.1,.3-.5,.3-1.2,0-1.9,0,0,0,0,0,0,0,0,0,0-.1,0,0,0,0,0,0,0,0,0,0,0,0,.1h0s0,0,0,0c0,0,0,0,0,0h0c0,.1,0,.1,0,.1h0s0,0,0,0c0,.1,0,.2,0,.4h0s0,.2,0,.2h0c0,.1,0,.3,0,.4h0s0,.2,0,.2h0c0,.1-.1,.3-.2,.4,0,0,0,0,0,0Zm.4-1.8h0Z"/>
              </g>
            </g>
          </g>
          <g>
            <path d="M795,67.7c0-.7-.2-1.4-.3-2.1-.1-.7-.1-1.5-.6-2.1-.6-.8-1.4-.9-2.3-.6-.7,.3-1.2,1-1.5,1.6-.3,.6-.4,1.3-.5,2,0,1.4,.4,2.9,1.5,3.9,.5,.5,1.2,.8,1.9,.7,.7,0,1.4-.5,1.7-1.1,.3-.7,0-1.5,0-2.3Z"/>
            <path d="M793.1,71.6c-.7,0-1.5-.3-2.1-.9-1.1-1-1.7-2.5-1.6-4.2,0-.7,.2-1.5,.5-2.2,.3-.7,.8-1.6,1.7-1.9,1.1-.4,2.2-.1,2.9,.8,.5,.6,.5,1.3,.6,1.9,0,.1,0,.3,0,.4,0,.4,.1,.9,.2,1.3v.7c.1,.1,.1,.3,.2,.4,.1,.7,.2,1.4,0,2.1-.3,.8-1.2,1.3-2.1,1.4,0,0-.1,0-.2,0Zm-.5-8.3c-.2,0-.4,0-.6,.1-.5,.2-.8,.6-1.2,1.4-.2,.5-.4,1.2-.4,1.8,0,1.4,.4,2.7,1.3,3.5,.5,.4,1,.6,1.5,.6,.6,0,1.1-.4,1.3-.8,.2-.4,.1-1,0-1.6,0-.1,0-.3,0-.4v-.7c-.2-.4-.2-.9-.3-1.3,0-.1,0-.3,0-.4,0-.6-.1-1-.4-1.4-.3-.4-.7-.6-1.1-.6Z"/>
          </g>
          <g>
            <path d="M795.3,75.7c-1.5,.8-3.5,.4-4.7-.8-.2-.3-.2-.7,0-.9,.3-.2,.7-.2,.9,0,0,0,0,0,0,0,0,0-.1,0,0,0,0,0,.1,.1,.2,.1,0,0,.1,0,.2,.1,0,0,0,0,.1,0,0,0-.1,0,0,0,.2,0,.3,.1,.5,.2,0,0,.2,0,.2,0,0,0,0,0,0,0,0,0,0,0,.1,0,.2,0,.3,0,.5,0,0,0,.2,0,0,0-.1,0,0,0,0,0,0,0,.2,0,.2,0,0,0,.2,0,.3,0,0,0,0,0,.1,0,0,0,0,0,0,0,.2,0,.3-.1,.5-.2,.3-.2,.8,0,.9,.3,.1,.3,0,.7-.3,.9h0Z"/>
            <path d="M793.6,76.6c-1.2,0-2.4-.5-3.3-1.4-.2-.2-.3-.5-.3-.9,0-.3,.2-.6,.4-.8,.4-.3,.8-.3,1.2-.1h0s0,0,0,0c.1,0,.2,.1,.3,.2h0c0,.1,.1,.2,.2,.2,0,0,.1,0,.2,.1h0s0,0,0,0c.1,0,.3,.1,.4,.2,0,0,0,0,.1,0h.2c.1,0,.3,0,.4,0,0,0,0,0,0,0h0c0,0,.2,0,.2,0,0,0,.1,0,.2,0h.3c0-.1,0-.1,0-.1,0,0,.1,0,.2,0,.3-.1,.6-.2,.9,0,.3,.1,.6,.3,.7,.6,.2,.6,0,1.2-.6,1.5h0c-.6,.3-1.3,.5-2,.5Zm-2.4-2.3s0,0-.1,0c0,0,0,0,0,.1,1.1,1.2,2.8,1.5,4.1,.8,0,0,.2-.1,0-.3,0,0,0,0,0,0-.1,0-.2,0-.3,.1h0s-.5,.2-.5,.2c0,0,0,0-.1,0h0s-1,0-1,0h0c0,0,0,0-.1,0h-.1s0-.2,0-.2v.2h-.4c0,0,0,0,0,0l-.7-.3h0s-.2-.1-.2-.1h0s-.4-.4-.4-.4c0,0,0,0,0,0Zm3,.6v-.2c.1,0,0,.2,0,.2Z"/>
          </g>
        </g>
      </g>
    </g>
  </g>
</svg>