<?xml version="1.0" encoding="UTF-8"?>
<svg id="Layer_2" data-name="Layer 2" xmlns="http://www.w3.org/2000/svg" viewBox="0 0 166.8 154">
  <g id="TEXT_LOGO" data-name="TEXT&amp;amp;LOGO">
    <g>
      <g>
        <g>
          <path d="M9.5,99.5V49.9c0-6.9,.8-12.7,2.5-17.5,1.7-4.8,4.4-8.9,8.3-12.2,3.8-3.3,8.6-5.8,14.2-7.3,5.6-1.6,12.4-2.4,20.1-2.4s15.1,.7,20.9,2.2c5.8,1.5,10.7,3.7,14.6,6.6,3.9,3,6.8,6.7,8.7,11.3,1.9,4.5,2.9,9.9,2.9,16v52.9c0,3.7,0,6.2-.3,7.4-.2,1.2-.6,2.9-1.3,5.1-1,3.8-3.1,7.5-6.1,11,1.5,3.7,4.1,6,7.7,7l-12.2,22.3c-2-.3-3.9-.8-5.7-1.3-1.8-.5-3.8-1.3-6-2.2-4-1.6-7.1-3.3-9.5-5.1-2.4-1.8-3.9-3.1-4.6-3.9-.7-.8-1.5-1.9-2.3-3.1l-6.1,.2c-8.6,0-16-1-22.2-3-6.2-2-10.9-4.6-14.3-7.9-3.4-3.6-5.8-7.7-7.2-12.2-1.5-4.5-2.2-9.3-2.2-14.3ZM47.9,48.9v51.6c0,1,.1,2.2,.3,3.5,.2,1.3,.9,2.5,2,3.8,1.1,1.2,2.9,1.8,5.5,1.8s4.9-.8,5.7-2.5c.8-1.7,1.1-5,1.1-9.9V48.9c0-4.4-.6-7.4-1.7-8.9-1.1-1.5-3.2-2.3-6.2-2.3-4.5,0-6.8,3.7-6.8,11.2Z"/>
          <path d="M90.4,154l-1.1-.2c-2-.4-4-.8-5.8-1.3-1.8-.5-3.9-1.3-6.2-2.2-4-1.7-7.4-3.5-9.8-5.3-2.5-1.9-4.1-3.2-4.9-4.1-.6-.7-1.3-1.6-1.9-2.6l-5.3,.2h0c-8.8,0-16.4-1-22.6-3-6.4-2-11.4-4.8-14.9-8.2-3.6-3.8-6.1-8.1-7.6-12.8-1.5-4.7-2.3-9.6-2.3-14.8V49.9c0-7,.9-13.1,2.6-18,1.8-5.1,4.7-9.4,8.7-12.9,4-3.4,9-6,14.8-7.6,5.7-1.6,12.7-2.4,20.6-2.4s15.4,.7,21.3,2.2c6,1.5,11.1,3.8,15.1,6.9,4.1,3.1,7.2,7.1,9.2,11.9,2,4.7,3,10.3,3,16.6v52.9c0,3.8,0,6.3-.3,7.6-.2,1.3-.6,3.1-1.4,5.4-1,3.7-3,7.4-5.8,10.8,1.4,2.8,3.4,4.5,6.3,5.3l1.9,.5-13.7,25Zm-28.1-18.9l.5,.7c.8,1.2,1.5,2.2,2.1,3,.4,.5,1.5,1.5,4.4,3.7,2.3,1.7,5.4,3.4,9.2,5,2.2,.9,4.1,1.6,5.9,2.1,1.4,.4,2.9,.8,4.5,1.1l10.8-19.8c-3.1-1.3-5.5-3.7-6.9-7.3l-.3-.9,.6-.7c2.9-3.3,4.8-6.8,5.8-10.4,.7-2.2,1.1-3.8,1.3-5,.2-1.1,.2-3.6,.2-7.2V46.6c0-5.9-.9-11.1-2.8-15.5-1.8-4.3-4.6-7.9-8.2-10.6-3.7-2.8-8.4-5-14-6.4-5.7-1.4-12.6-2.1-20.6-2.1s-14.3,.8-19.7,2.3c-5.4,1.5-10,3.9-13.6,7-3.6,3.1-6.3,7-7.9,11.6-1.6,4.6-2.4,10.4-2.4,17v49.5c0,4.8,.7,9.5,2.1,13.8,1.4,4.3,3.7,8.2,6.9,11.6,3.1,3,7.8,5.6,13.7,7.4,6,1.9,13.3,2.9,21.7,2.9l6.9-.2Zm-6.6-24c-3,0-5.2-.8-6.6-2.3-1.3-1.4-2.1-2.9-2.4-4.5-.2-1.3-.4-2.6-.4-3.8V48.9c0-10.5,4.5-12.7,8.3-12.7s6,1,7.4,2.9c1.3,1.8,1.9,5,1.9,9.8v48.3c0,5.1-.4,8.6-1.3,10.5-1,2.3-3.4,3.4-7,3.4Zm-1-71.9c-1.3,0-5.3,0-5.3,9.7v51.6c0,1,.1,2,.3,3.2,.2,1,.7,2,1.6,3,.8,.9,2.3,1.3,4.4,1.3s3.8-.6,4.3-1.6c.5-1,1-3.5,1-9.2V48.9c0-5.1-.7-7.2-1.4-8-.8-1.1-2.5-1.7-5-1.7Z"/>
        </g>
        <g>
          <path d="M160.6,11.7V103c0,4.5,1.6,7.5,4.7,8.9v22.5h-47.3v-22.5c1.9-.8,3.1-1.9,3.6-3.3,.5-1.4,.8-3.3,.8-5.6V43.1c0-2.6-.3-4.6-.8-6.1-.5-1.5-1.7-2.4-3.6-2.8V11.7h42.6Z"/>
          <path d="M166.8,135.9h-50.3v-25l.9-.4c1.5-.6,2.4-1.5,2.8-2.5,.5-1.2,.7-2.9,.7-5.1V43.1c0-2.4-.2-4.3-.7-5.6-.2-.6-.7-1.5-2.4-1.8l-1.2-.2V10.2h45.6V103c0,3.9,1.2,6.4,3.8,7.5l.9,.4v25Zm-47.3-3h44.3v-20.1c-3.1-1.8-4.7-5.1-4.7-9.8V13.2h-39.6v19.9c2.1,.8,3.1,2.2,3.5,3.4,.6,1.7,.9,3.8,.9,6.6v59.8c0,2.5-.3,4.5-.9,6.1-.6,1.5-1.7,2.8-3.5,3.7v20.1Z"/>
        </g>
      </g>
      <g>
        <g>
          <path d="M1.5,90.5V40.9c0-6.9,.8-12.7,2.5-17.5,1.7-4.8,4.4-8.9,8.3-12.2,3.8-3.3,8.6-5.8,14.2-7.3,5.6-1.6,12.4-2.4,20.1-2.4s15.1,.7,20.9,2.2c5.8,1.5,10.7,3.7,14.6,6.6,3.9,3,6.8,6.7,8.7,11.3,1.9,4.5,2.9,9.9,2.9,16v52.9c0,3.7,0,6.2-.3,7.4-.2,1.2-.6,2.9-1.3,5.1-1,3.8-3.1,7.5-6.1,11,1.5,3.7,4.1,6,7.7,7l-12.2,22.3c-2-.3-3.9-.8-5.7-1.3-1.8-.5-3.8-1.3-6-2.2-4-1.6-7.1-3.3-9.5-5.1-2.4-1.8-3.9-3.1-4.6-3.9-.7-.8-1.5-1.9-2.3-3.1l-6.1,.2c-8.6,0-16-1-22.2-3-6.2-2-10.9-4.6-14.3-7.9-3.4-3.6-5.8-7.7-7.2-12.2-1.5-4.5-2.2-9.3-2.2-14.3ZM39.9,39.9v51.6c0,1,.1,2.2,.3,3.5,.2,1.3,.9,2.5,2,3.8,1.1,1.2,2.9,1.8,5.5,1.8s4.9-.8,5.7-2.5c.8-1.7,1.1-5,1.1-9.9V39.9c0-4.4-.6-7.4-1.7-8.9-1.1-1.5-3.2-2.3-6.2-2.3-4.5,0-6.8,3.7-6.8,11.2Z" style="fill: #fff;"/>
          <path d="M82.4,145l-1.1-.2c-2-.4-4-.8-5.8-1.3-1.8-.5-3.9-1.3-6.2-2.2-4-1.7-7.4-3.5-9.8-5.3-2.5-1.9-4.1-3.2-4.9-4.1-.6-.7-1.3-1.6-1.9-2.6l-5.3,.2h0c-8.8,0-16.4-1-22.6-3-6.4-2-11.4-4.8-14.9-8.2-3.6-3.8-6.1-8.1-7.6-12.8-1.5-4.7-2.3-9.6-2.3-14.8V40.9c0-7,.9-13.1,2.6-18,1.8-5.1,4.7-9.4,8.7-12.9,4-3.4,9-6,14.8-7.6C31.9,.8,38.8,0,46.7,0s15.4,.7,21.3,2.2c6,1.5,11.1,3.8,15.1,6.9,4.1,3.1,7.2,7.1,9.2,11.9,2,4.7,3,10.3,3,16.6v52.9c0,3.8,0,6.3-.3,7.6-.2,1.3-.6,3.1-1.4,5.4-1,3.7-3,7.4-5.8,10.8,1.4,2.8,3.4,4.5,6.3,5.3l1.9,.5-13.7,25Zm-28.1-18.9l.5,.7c.8,1.2,1.5,2.2,2.1,3,.4,.5,1.5,1.5,4.4,3.7,2.3,1.7,5.4,3.4,9.2,5,2.2,.9,4.1,1.6,5.9,2.1,1.4,.4,2.9,.8,4.5,1.1l10.8-19.8c-3.1-1.3-5.5-3.7-6.9-7.3l-.3-.9,.6-.7c2.9-3.3,4.8-6.8,5.8-10.4,.7-2.2,1.1-3.8,1.3-5,.2-1.1,.2-3.6,.2-7.2V37.6c0-5.9-.9-11.1-2.8-15.5-1.8-4.3-4.6-7.9-8.2-10.6-3.7-2.8-8.4-5-14-6.4-5.7-1.4-12.6-2.1-20.6-2.1s-14.3,.8-19.7,2.3c-5.4,1.5-10,3.9-13.6,7-3.6,3.1-6.3,7-7.9,11.6-1.6,4.6-2.4,10.4-2.4,17v49.5c0,4.8,.7,9.5,2.1,13.8,1.4,4.3,3.7,8.2,6.9,11.6,3.1,3,7.8,5.6,13.7,7.4,6,1.9,13.3,2.9,21.7,2.9l6.9-.2Zm-6.6-24c-3,0-5.2-.8-6.6-2.3-1.3-1.4-2.1-2.9-2.4-4.5-.2-1.3-.4-2.6-.4-3.8V39.9c0-10.5,4.5-12.7,8.3-12.7s6,1,7.4,2.9c1.3,1.8,1.9,5,1.9,9.8v48.3c0,5.1-.4,8.6-1.3,10.5-1,2.3-3.4,3.4-7,3.4Zm-1-71.9c-1.3,0-5.3,0-5.3,9.7v51.6c0,1,.1,2,.3,3.2,.2,1,.7,2,1.6,3,.8,.9,2.3,1.3,4.4,1.3s3.8-.6,4.3-1.6c.5-1,1-3.5,1-9.2V39.9c0-5.1-.7-7.2-1.4-8-.8-1.1-2.5-1.7-5-1.7Z"/>
        </g>
        <g>
          <path d="M152.6,2.7V94c0,4.5,1.6,7.5,4.7,8.9v22.5h-47.3v-22.5c1.9-.8,3.1-1.9,3.6-3.3,.5-1.4,.8-3.3,.8-5.6V34.1c0-2.6-.3-4.6-.8-6.1-.5-1.5-1.7-2.4-3.6-2.8V2.7h42.6Z" style="fill: #fff;"/>
          <path d="M158.8,126.9h-50.3v-25l.9-.4c1.5-.6,2.4-1.5,2.8-2.5,.5-1.2,.7-2.9,.7-5.1V34.1c0-2.4-.2-4.3-.7-5.6-.2-.6-.7-1.5-2.4-1.8l-1.2-.2V1.2h45.6V94c0,3.9,1.2,6.4,3.8,7.5l.9,.4v25Zm-47.3-3h44.3v-20.1c-3.1-1.8-4.7-5.1-4.7-9.8V4.2h-39.6V24.1c2.1,.8,3.1,2.2,3.5,3.4,.6,1.7,.9,3.8,.9,6.6v59.8c0,2.5-.3,4.5-.9,6.1-.6,1.5-1.7,2.8-3.5,3.7v20.1Z"/>
        </g>
      </g>
    </g>
  </g>
</svg>