<?xml version="1.0" encoding="UTF-8"?>
<svg id="Layer_2" data-name="Layer 2" xmlns="http://www.w3.org/2000/svg" viewBox="0 0 201.3 155">
  <g id="TEXT_LOGO" data-name="TEXT&amp;amp;LOGO">
    <g>
      <g>
        <g>
          <path d="M9.5,100.5V51c0-6.9,.8-12.7,2.5-17.5,1.7-4.8,4.4-8.9,8.3-12.2,3.8-3.3,8.6-5.8,14.2-7.3,5.6-1.6,12.4-2.4,20.1-2.4s15.1,.7,20.9,2.2c5.8,1.5,10.7,3.7,14.6,6.6,3.9,3,6.8,6.7,8.7,11.3,1.9,4.5,2.9,9.9,2.9,16v52.9c0,3.7,0,6.2-.3,7.4-.2,1.2-.6,2.9-1.3,5.1-1,3.8-3.1,7.5-6.1,11,1.5,3.7,4.1,6,7.7,7l-12.2,22.3c-2-.3-3.9-.8-5.7-1.3-1.8-.5-3.8-1.3-6-2.2-4-1.6-7.1-3.3-9.5-5.1-2.4-1.8-3.9-3.1-4.6-3.9-.7-.8-1.5-1.9-2.3-3.1l-6.1,.2c-8.6,0-16-1-22.2-3-6.2-2-10.9-4.6-14.3-7.8-3.4-3.6-5.8-7.7-7.2-12.2-1.5-4.5-2.2-9.3-2.2-14.3ZM47.9,49.9v51.6c0,1,.1,2.2,.3,3.5,.2,1.3,.9,2.5,2,3.8,1.1,1.2,2.9,1.8,5.5,1.8s4.9-.8,5.7-2.5c.8-1.7,1.1-5,1.1-9.9V49.9c0-4.4-.6-7.4-1.7-8.9-1.1-1.5-3.2-2.3-6.2-2.3-4.5,0-6.8,3.7-6.8,11.2Z"/>
          <path d="M90.4,155l-1.1-.2c-2-.4-4-.8-5.8-1.3-1.8-.5-3.9-1.3-6.2-2.2-4-1.7-7.4-3.5-9.8-5.3-2.5-1.9-4.1-3.2-4.9-4.1-.6-.7-1.3-1.6-1.9-2.6l-5.3,.2h0c-8.8,0-16.4-1-22.6-3-6.4-2-11.4-4.8-14.9-8.2-3.6-3.8-6.1-8.1-7.6-12.8-1.5-4.7-2.3-9.6-2.3-14.8V51c0-7,.9-13.1,2.6-18,1.8-5.1,4.7-9.4,8.7-12.9,4-3.4,9-6,14.8-7.6,5.7-1.6,12.7-2.4,20.6-2.4s15.4,.7,21.3,2.2c6,1.5,11.1,3.8,15.1,6.9,4.1,3.1,7.2,7.1,9.2,11.9,2,4.7,3,10.3,3,16.6v52.9c0,3.8,0,6.3-.3,7.6-.2,1.3-.6,3.1-1.4,5.4-1,3.7-3,7.4-5.8,10.8,1.4,2.8,3.4,4.5,6.3,5.3l1.9,.5-13.7,25Zm-28.1-18.9l.5,.7c.8,1.2,1.5,2.2,2.1,3,.4,.5,1.5,1.6,4.4,3.7,2.3,1.7,5.4,3.4,9.2,5,2.2,.9,4.1,1.6,5.9,2.1,1.4,.4,2.9,.8,4.5,1.1l10.8-19.8c-3.1-1.3-5.5-3.7-6.9-7.3l-.3-.9,.6-.7c2.9-3.3,4.8-6.8,5.8-10.4,.7-2.2,1.1-3.8,1.3-5,.2-1.1,.2-3.6,.2-7.2V47.7c0-5.9-.9-11.1-2.8-15.5-1.8-4.3-4.6-7.8-8.2-10.6-3.7-2.8-8.4-5-14-6.4-5.7-1.4-12.6-2.1-20.6-2.1s-14.3,.8-19.7,2.3c-5.4,1.5-10,3.9-13.6,7-3.6,3.1-6.3,7-7.9,11.6-1.6,4.6-2.4,10.4-2.4,17v49.5c0,4.8,.7,9.5,2.1,13.8,1.4,4.3,3.7,8.2,6.9,11.6,3.1,3,7.8,5.6,13.7,7.4,6,1.9,13.3,2.9,21.7,2.9l6.9-.2Zm-6.6-24c-3,0-5.2-.8-6.6-2.3-1.3-1.4-2.1-2.9-2.4-4.5-.2-1.3-.4-2.6-.4-3.8V49.9c0-10.5,4.5-12.7,8.3-12.7s6,1,7.4,2.9c1.3,1.8,1.9,5,1.9,9.8v48.3c0,5.1-.4,8.6-1.3,10.5-1,2.3-3.4,3.4-7,3.4Zm-1-71.9c-1.3,0-5.3,0-5.3,9.7v51.6c0,1,.1,2,.3,3.2,.2,1,.7,2,1.6,3,.8,.9,2.3,1.3,4.4,1.3s3.8-.6,4.3-1.6c.5-1,1-3.4,1-9.2V49.9c0-5.1-.7-7.2-1.4-8-.8-1.1-2.5-1.7-5-1.7Z"/>
        </g>
        <g>
          <path d="M121,17c5.2-2.2,10.5-3.8,15.7-4.9,5.2-1,10.6-1.6,16-1.6s14.9,.8,21.7,2.5c6.8,1.7,12.5,5,17,9.9,2.4,2.6,4.3,5.5,5.5,8.9,1.2,3.4,1.8,7.2,1.8,11.3s-.4,9.2-1.2,13.1c-.9,3.5-2.5,6.3-4.7,8.5-2.2,2.2-5.5,4-9.9,5.4,3.7,1.9,6.7,4,9.1,6.3,1.3,1.3,2.3,2.5,3.1,3.7,.8,1.2,1.5,2.6,2.3,4.2,.8,1.6,1.3,3,1.6,4.2,.3,1.2,.4,2.5,.4,4l.5,9.2c0,2.4-.3,5-1,7.6-.7,2.6-1.2,4.3-1.4,5.1-1.2,4-3.3,7.7-6.3,11.2-3,3.5-7.6,6.4-13.6,8.6-6,2.3-14,3.4-23.7,3.4s-16.2-1.3-24.6-3.8c-4.7-1.4-8.6-2.9-11.9-4.4-3.3-1.6-6.2-3.3-8.6-5.3v-33.7h36.1v10.1c0,3.3,.7,5.7,2.1,7.4,1.4,1.7,3.1,2.5,5.2,2.5,.8-.1,1.6-.3,2.3-.4,.7-.2,1.2-.3,1.6-.4,1.9-1,3.3-2.6,4.2-4.5,.9-2,1.4-4.3,1.4-7s-.3-4-.9-5.6c-.6-1.6-1.5-3.1-2.6-4.5-2.4-2.8-6.1-4.2-11-4.2h-13.4v-23.7h11.2c5.9,0,10.1-1,12.5-3.1,2.4-2,3.6-4.8,3.6-8.3l-.2-3.3c-.5-2.8-1.5-4.9-3.1-6.3-1.6-1.4-3.4-2.1-5.2-2.1s-3.7,.8-5.2,2.3c-1.5,1.5-2.3,3.5-2.3,6.1v7.9h-36.1V23.9c3-2.4,7.2-4.8,12.4-7Z"/>
          <path d="M153.8,139.2c-8.1,0-16.6-1.3-25-3.9-4.7-1.4-8.8-2.9-12.2-4.5-3.4-1.6-6.4-3.5-8.9-5.5l-.6-.5v-35.9h39.1v11.6c0,2.9,.6,5.1,1.7,6.5,1.1,1.3,2.4,2,4,2,.7-.1,1.4-.2,2-.4,.6-.1,1-.3,1.3-.4,1.5-.9,2.7-2.1,3.4-3.8,.8-1.8,1.3-3.9,1.3-6.3s-.3-3.6-.8-5.1c-.5-1.5-1.3-2.8-2.4-4.1-2.1-2.4-5.4-3.6-9.8-3.6h-14.9v-26.7h12.7c5.5,0,9.4-.9,11.5-2.7,2.1-1.8,3-4.1,3-7.1l-.2-3.1c-.4-2.4-1.3-4.2-2.6-5.3-1.4-1.2-2.8-1.7-4.3-1.7s-2.9,.6-4.2,1.8c-1.2,1.2-1.8,2.9-1.8,5v9.4h-39.1V23.2l.6-.5c3.1-2.5,7.4-4.9,12.7-7.2h0c5.3-2.2,10.7-3.9,16-5,5.3-1.1,10.8-1.6,16.3-1.6s15.2,.9,22.1,2.6c7.1,1.8,13,5.2,17.7,10.3,2.6,2.7,4.5,5.9,5.8,9.4,1.3,3.5,1.9,7.5,1.9,11.8s-.4,9.5-1.3,13.4c-1,3.8-2.7,6.9-5.1,9.3-1.8,1.8-4.3,3.3-7.4,4.6,2.5,1.5,4.7,3.2,6.5,4.9,1.3,1.3,2.4,2.7,3.2,3.9,.8,1.2,1.6,2.7,2.4,4.4,.8,1.7,1.4,3.2,1.7,4.5,.3,1.3,.5,2.8,.5,4.4l.5,9.2c0,2.6-.4,5.3-1.1,8.1-.7,2.6-1.2,4.4-1.4,5.2-1.2,4.2-3.4,8.1-6.6,11.7-3.2,3.7-8,6.7-14.2,9.1-6.2,2.3-14.3,3.5-24.3,3.5Zm-43.7-15.8c2.2,1.7,4.8,3.3,7.8,4.7,3.2,1.5,7.2,3,11.7,4.4,8.2,2.5,16.3,3.8,24.2,3.8s17.3-1.1,23.2-3.3c5.8-2.2,10.2-4.9,13-8.2,2.9-3.3,4.9-6.9,6-10.6,.2-.8,.7-2.5,1.4-5.1,.7-2.5,1-4.9,1-7.2l-.5-9.2c0-1.5-.1-2.7-.4-3.7-.3-1.1-.8-2.4-1.5-3.9-.7-1.6-1.5-2.9-2.2-4-.7-1.1-1.7-2.2-2.9-3.4-2.2-2.2-5.1-4.2-8.7-6l-3.3-1.7,3.5-1.1c4.2-1.3,7.3-3,9.3-5,2-2,3.5-4.7,4.3-7.9,.8-3.7,1.2-7.9,1.2-12.7s-.6-7.6-1.7-10.8c-1.1-3.2-2.9-6-5.2-8.4-4.3-4.7-9.8-7.8-16.3-9.4-6.7-1.6-13.8-2.5-21.4-2.5s-10.6,.5-15.8,1.5c-5.1,1-10.3,2.6-15.4,4.8-4.8,2-8.6,4.1-11.5,6.3v27.1h33.1v-6.4c0-3,.9-5.4,2.7-7.2,1.8-1.8,3.9-2.7,6.3-2.7s4.3,.8,6.2,2.5c1.9,1.6,3.1,4,3.6,7.2v.2s.2,3.3,.2,3.3c0,4-1.4,7.2-4.1,9.5-2.7,2.3-7.1,3.4-13.4,3.4h-9.7v20.7h11.9c5.3,0,9.4,1.6,12.1,4.7,1.3,1.6,2.3,3.2,2.9,5,.6,1.8,1,3.8,1,6.1s-.5,5.4-1.5,7.6c-1.1,2.3-2.7,4-4.8,5.2h-.3c-.4,.2-.9,.4-1.7,.6-.8,.2-1.6,.3-2.4,.5h-.2c-2.6,0-4.7-1-6.4-3.1-1.6-2-2.4-4.8-2.4-8.4v-8.6h-33.1v31.4Z"/>
        </g>
      </g>
      <g>
        <g>
          <path d="M1.5,91.5V42c0-6.9,.8-12.7,2.5-17.5,1.7-4.8,4.4-8.9,8.3-12.2,3.8-3.3,8.6-5.8,14.2-7.3,5.6-1.6,12.4-2.4,20.1-2.4s15.1,.7,20.9,2.2c5.8,1.5,10.7,3.7,14.6,6.6,3.9,3,6.8,6.7,8.7,11.3,1.9,4.5,2.9,9.9,2.9,16v52.9c0,3.7,0,6.2-.3,7.4-.2,1.2-.6,2.9-1.3,5.1-1,3.8-3.1,7.5-6.1,11,1.5,3.7,4.1,6,7.7,7l-12.2,22.3c-2-.3-3.9-.8-5.7-1.3-1.8-.5-3.8-1.3-6-2.2-4-1.6-7.1-3.3-9.5-5.1-2.4-1.8-3.9-3.1-4.6-3.9-.7-.8-1.5-1.9-2.3-3.1l-6.1,.2c-8.6,0-16-1-22.2-3-6.2-2-10.9-4.6-14.3-7.8-3.4-3.6-5.8-7.7-7.2-12.2-1.5-4.5-2.2-9.3-2.2-14.3ZM39.9,40.9v51.6c0,1,.1,2.2,.3,3.5,.2,1.3,.9,2.5,2,3.8,1.1,1.2,2.9,1.8,5.5,1.8s4.9-.8,5.7-2.5c.8-1.7,1.1-5,1.1-9.9V40.9c0-4.4-.6-7.4-1.7-8.9-1.1-1.5-3.2-2.3-6.2-2.3-4.5,0-6.8,3.7-6.8,11.2Z" style="fill: #fff;"/>
          <path d="M82.4,146l-1.1-.2c-2-.4-4-.8-5.8-1.3-1.8-.5-3.9-1.3-6.2-2.2-4-1.7-7.4-3.5-9.8-5.3-2.5-1.9-4.1-3.2-4.9-4.1-.6-.7-1.3-1.6-1.9-2.6l-5.3,.2h0c-8.8,0-16.4-1-22.6-3-6.4-2-11.4-4.8-14.9-8.2-3.6-3.8-6.1-8.1-7.6-12.8-1.5-4.7-2.3-9.6-2.3-14.8V42c0-7,.9-13.1,2.6-18,1.8-5.1,4.7-9.4,8.7-12.9,4-3.4,9-6,14.8-7.6,5.7-1.6,12.7-2.4,20.6-2.4s15.4,.7,21.3,2.2c6,1.5,11.1,3.8,15.1,6.9,4.1,3.1,7.2,7.1,9.2,11.9,2,4.7,3,10.3,3,16.6v52.9c0,3.8,0,6.3-.3,7.6-.2,1.3-.6,3.1-1.4,5.4-1,3.7-3,7.4-5.8,10.8,1.4,2.8,3.4,4.5,6.3,5.3l1.9,.5-13.7,25Zm-28.1-18.9l.5,.7c.8,1.2,1.5,2.2,2.1,3,.4,.5,1.5,1.6,4.4,3.7,2.3,1.7,5.4,3.4,9.2,5,2.2,.9,4.1,1.6,5.9,2.1,1.4,.4,2.9,.8,4.5,1.1l10.8-19.8c-3.1-1.3-5.5-3.7-6.9-7.3l-.3-.9,.6-.7c2.9-3.3,4.8-6.8,5.8-10.4,.7-2.2,1.1-3.8,1.3-5,.2-1.1,.2-3.6,.2-7.2V38.7c0-5.9-.9-11.1-2.8-15.5-1.8-4.3-4.6-7.8-8.2-10.6-3.7-2.8-8.4-5-14-6.4-5.7-1.4-12.6-2.1-20.6-2.1s-14.3,.8-19.7,2.3c-5.4,1.5-10,3.9-13.6,7-3.6,3.1-6.3,7-7.9,11.6-1.6,4.6-2.4,10.4-2.4,17v49.5c0,4.8,.7,9.5,2.1,13.8,1.4,4.3,3.7,8.2,6.9,11.6,3.1,3,7.8,5.6,13.7,7.4,6,1.9,13.3,2.9,21.7,2.9l6.9-.2Zm-6.6-24c-3,0-5.2-.8-6.6-2.3-1.3-1.4-2.1-2.9-2.4-4.5-.2-1.3-.4-2.6-.4-3.8V40.9c0-10.5,4.5-12.7,8.3-12.7s6,1,7.4,2.9c1.3,1.8,1.9,5,1.9,9.8v48.3c0,5.1-.4,8.6-1.3,10.5-1,2.3-3.4,3.4-7,3.4Zm-1-71.9c-1.3,0-5.3,0-5.3,9.7v51.6c0,1,.1,2,.3,3.2,.2,1,.7,2,1.6,3,.8,.9,2.3,1.3,4.4,1.3s3.8-.6,4.3-1.6c.5-1,1-3.4,1-9.2V40.9c0-5.1-.7-7.2-1.4-8-.8-1.1-2.5-1.7-5-1.7Z"/>
        </g>
        <g>
          <path d="M113,8c5.2-2.2,10.5-3.8,15.7-4.9,5.2-1,10.6-1.6,16-1.6s14.9,.8,21.7,2.5c6.8,1.7,12.5,5,17,9.9,2.4,2.6,4.3,5.5,5.5,8.9,1.2,3.4,1.8,7.2,1.8,11.3s-.4,9.2-1.2,13.1c-.9,3.5-2.5,6.3-4.7,8.5s-5.5,4-9.9,5.4c3.7,1.9,6.7,4,9.1,6.3,1.3,1.3,2.3,2.5,3.1,3.7,.8,1.2,1.5,2.6,2.3,4.2,.8,1.6,1.3,3,1.6,4.2,.3,1.2,.4,2.5,.4,4l.5,9.2c0,2.4-.3,5-1,7.6-.7,2.6-1.2,4.3-1.4,5.1-1.2,4-3.3,7.7-6.3,11.2-3,3.5-7.6,6.4-13.6,8.6-6,2.3-14,3.4-23.7,3.4s-16.2-1.3-24.6-3.8c-4.7-1.4-8.6-2.9-11.9-4.4-3.3-1.6-6.2-3.3-8.6-5.3v-33.7h36.1v10.1c0,3.3,.7,5.7,2.1,7.4,1.4,1.7,3.1,2.5,5.2,2.5,.8-.1,1.6-.3,2.3-.4,.7-.2,1.2-.3,1.6-.4,1.9-1,3.3-2.6,4.2-4.5,.9-2,1.4-4.3,1.4-7s-.3-4-.9-5.6c-.6-1.6-1.5-3.1-2.6-4.5-2.4-2.8-6.1-4.2-11-4.2h-13.4v-23.7h11.2c5.9,0,10.1-1,12.5-3.1,2.4-2,3.6-4.8,3.6-8.3l-.2-3.3c-.5-2.8-1.5-4.9-3.1-6.3-1.6-1.4-3.4-2.1-5.2-2.1s-3.7,.8-5.2,2.3c-1.5,1.5-2.3,3.5-2.3,6.1v7.9h-36.1V14.9c3-2.4,7.2-4.8,12.4-7Z" style="fill: #fff;"/>
          <path d="M145.8,130.2c-8.1,0-16.6-1.3-25-3.9-4.7-1.4-8.8-2.9-12.2-4.5-3.4-1.6-6.4-3.5-8.9-5.5l-.6-.5v-35.9h39.1v11.6c0,2.9,.6,5.1,1.7,6.5,1.1,1.3,2.4,2,4,2,.7-.1,1.4-.2,2-.4,.6-.1,1-.3,1.3-.4,1.5-.9,2.7-2.1,3.4-3.8,.8-1.8,1.3-3.9,1.3-6.3s-.3-3.6-.8-5.1c-.5-1.5-1.3-2.8-2.4-4.1-2.1-2.4-5.4-3.6-9.8-3.6h-14.9v-26.7h12.7c5.5,0,9.4-.9,11.5-2.7,2.1-1.8,3-4.1,3-7.1l-.2-3.1c-.4-2.4-1.3-4.2-2.6-5.3-1.4-1.2-2.8-1.7-4.3-1.7s-2.9,.6-4.2,1.8c-1.2,1.2-1.8,2.9-1.8,5v9.4h-39.1V14.2l.6-.5c3.1-2.5,7.4-4.9,12.7-7.2h0c5.3-2.2,10.7-3.9,16-5,5.3-1.1,10.8-1.6,16.3-1.6s15.2,.9,22.1,2.6c7.1,1.8,13,5.2,17.7,10.3,2.6,2.7,4.5,5.9,5.8,9.4,1.3,3.5,1.9,7.5,1.9,11.8s-.4,9.5-1.3,13.4c-1,3.8-2.7,6.9-5.1,9.3-1.8,1.8-4.3,3.3-7.4,4.6,2.5,1.5,4.7,3.2,6.5,4.9,1.3,1.3,2.4,2.7,3.2,3.9,.8,1.2,1.6,2.7,2.4,4.4,.8,1.7,1.4,3.2,1.7,4.5,.3,1.3,.5,2.8,.5,4.4l.5,9.2c0,2.6-.4,5.3-1.1,8.1-.7,2.6-1.2,4.4-1.4,5.2-1.2,4.2-3.4,8.1-6.6,11.7-3.2,3.7-8,6.7-14.2,9.1-6.2,2.3-14.3,3.5-24.3,3.5Zm-43.7-15.8c2.2,1.7,4.8,3.3,7.8,4.7,3.2,1.5,7.2,3,11.7,4.4,8.2,2.5,16.3,3.8,24.2,3.8s17.3-1.1,23.2-3.3c5.8-2.2,10.2-4.9,13-8.2,2.9-3.3,4.9-6.9,6-10.6,.2-.8,.7-2.5,1.4-5.1,.7-2.5,1-4.9,1-7.2l-.5-9.2c0-1.5-.1-2.7-.4-3.7-.3-1.1-.8-2.4-1.5-3.9-.7-1.6-1.5-2.9-2.2-4-.7-1.1-1.7-2.2-2.9-3.4-2.2-2.2-5.1-4.2-8.7-6l-3.3-1.7,3.5-1.1c4.2-1.3,7.3-3,9.3-5,2-2,3.5-4.7,4.3-7.9,.8-3.7,1.2-7.9,1.2-12.7s-.6-7.6-1.7-10.8c-1.1-3.2-2.9-6-5.2-8.4-4.3-4.7-9.8-7.8-16.3-9.4-6.7-1.6-13.8-2.5-21.4-2.5s-10.6,.5-15.8,1.5c-5.1,1-10.3,2.6-15.4,4.8-4.8,2-8.6,4.1-11.5,6.3v27.1h33.1v-6.4c0-3,.9-5.4,2.7-7.2,1.8-1.8,3.9-2.7,6.3-2.7s4.3,.8,6.2,2.5c1.9,1.6,3.1,4,3.6,7.2v.2s.2,3.3,.2,3.3c0,4-1.4,7.2-4.1,9.5-2.7,2.3-7.1,3.4-13.4,3.4h-9.7v20.7h11.9c5.3,0,9.4,1.6,12.1,4.7,1.3,1.6,2.3,3.2,2.9,5,.6,1.8,1,3.8,1,6.1s-.5,5.4-1.5,7.6c-1.1,2.3-2.7,4-4.8,5.2h-.3c-.4,.2-.9,.4-1.7,.6-.8,.2-1.6,.3-2.4,.5h-.2c-2.6,0-4.7-1-6.4-3.1-1.6-2-2.4-4.8-2.4-8.4v-8.6h-33.1v31.4Z"/>
        </g>
      </g>
    </g>
  </g>
</svg>