<?xml version="1.0" encoding="UTF-8"?>
<svg id="Layer_2" data-name="Layer 2" xmlns="http://www.w3.org/2000/svg" viewBox="0 0 195.7 154">
  <g id="TEXT_LOGO" data-name="TEXT&amp;amp;LOGO">
    <g>
      <g>
        <g>
          <path d="M9.5,99.5V49.9c0-6.9,.8-12.7,2.5-17.5,1.7-4.8,4.4-8.9,8.3-12.2,3.8-3.3,8.6-5.8,14.2-7.3,5.6-1.6,12.4-2.4,20.1-2.4s15.1,.7,20.9,2.2c5.8,1.5,10.7,3.7,14.6,6.6,3.9,3,6.8,6.7,8.7,11.3,1.9,4.5,2.9,9.9,2.9,16v52.9c0,3.7,0,6.2-.3,7.4-.2,1.2-.6,2.9-1.3,5.1-1,3.8-3.1,7.5-6.1,11,1.5,3.7,4.1,6,7.7,7l-12.2,22.3c-2-.3-3.9-.8-5.7-1.3-1.8-.5-3.8-1.3-6-2.2-4-1.6-7.1-3.3-9.5-5.1-2.4-1.8-3.9-3.1-4.6-3.9-.7-.8-1.5-1.9-2.3-3.1l-6.1,.2c-8.6,0-16-1-22.2-3-6.2-2-10.9-4.6-14.3-7.8-3.4-3.6-5.8-7.7-7.2-12.2-1.5-4.5-2.2-9.3-2.2-14.3ZM47.9,48.9v51.6c0,1,.1,2.2,.3,3.5,.2,1.3,.9,2.5,2,3.8,1.1,1.2,2.9,1.8,5.5,1.8s4.9-.8,5.7-2.5c.8-1.7,1.1-5,1.1-9.9V48.9c0-4.4-.6-7.4-1.7-8.9-1.1-1.5-3.2-2.3-6.2-2.3-4.5,0-6.8,3.7-6.8,11.2Z"/>
          <path d="M90.4,154l-1.1-.2c-2-.4-4-.8-5.8-1.3-1.8-.5-3.9-1.3-6.2-2.2-4-1.7-7.4-3.5-9.8-5.3-2.5-1.9-4.1-3.2-4.9-4.1-.6-.7-1.3-1.6-1.9-2.6l-5.3,.2h0c-8.8,0-16.4-1-22.6-3-6.4-2-11.4-4.8-14.9-8.2-3.6-3.8-6.1-8.1-7.6-12.8-1.5-4.7-2.3-9.6-2.3-14.8V49.9c0-7,.9-13.1,2.6-18,1.8-5.1,4.7-9.4,8.7-12.9,4-3.4,9-6,14.8-7.6,5.7-1.6,12.7-2.4,20.6-2.4s15.4,.7,21.3,2.2c6,1.5,11.1,3.8,15.1,6.9,4.1,3.1,7.2,7.1,9.2,11.9,2,4.7,3,10.3,3,16.6v52.9c0,3.8,0,6.3-.3,7.6-.2,1.3-.6,3.1-1.4,5.4-1,3.7-3,7.4-5.8,10.8,1.4,2.8,3.4,4.5,6.3,5.3l1.9,.5-13.7,25Zm-28.1-18.9l.5,.7c.8,1.2,1.5,2.2,2.1,3,.4,.5,1.5,1.6,4.4,3.7,2.3,1.7,5.4,3.4,9.2,5,2.2,.9,4.1,1.6,5.9,2.1,1.4,.4,2.9,.8,4.5,1.1l10.8-19.8c-3.1-1.3-5.5-3.7-6.9-7.3l-.3-.9,.6-.7c2.9-3.3,4.8-6.8,5.8-10.4,.7-2.2,1.1-3.8,1.3-5,.2-1.1,.2-3.6,.2-7.2V46.6c0-5.9-.9-11.1-2.8-15.5-1.8-4.3-4.6-7.8-8.2-10.6-3.7-2.8-8.4-5-14-6.4-5.7-1.4-12.6-2.1-20.6-2.1s-14.3,.8-19.7,2.3c-5.4,1.5-10,3.9-13.6,7-3.6,3.1-6.3,7-7.9,11.6-1.6,4.6-2.4,10.4-2.4,17v49.5c0,4.8,.7,9.5,2.1,13.8,1.4,4.3,3.7,8.2,6.9,11.6,3.1,3,7.8,5.6,13.7,7.4,6,1.9,13.3,2.9,21.7,2.9l6.9-.2Zm-6.6-24c-3,0-5.2-.8-6.6-2.3-1.3-1.4-2.1-2.9-2.4-4.5-.2-1.3-.4-2.6-.4-3.8V48.9c0-10.5,4.5-12.7,8.3-12.7s6,1,7.4,2.9c1.3,1.8,1.9,5,1.9,9.8v48.3c0,5.1-.4,8.6-1.3,10.5-1,2.3-3.4,3.4-7,3.4Zm-1-71.9c-1.3,0-5.3,0-5.3,9.7v51.6c0,1,.1,2,.3,3.2,.2,1,.7,2,1.6,3,.8,.9,2.3,1.3,4.4,1.3s3.8-.6,4.3-1.6c.5-1,1-3.4,1-9.2V48.9c0-5.1-.7-7.2-1.4-8-.8-1.1-2.5-1.7-5-1.7Z"/>
        </g>
        <g>
          <path d="M104.4,11.7h86.7V44.3h-36.1c0-.3,0-1.2-.2-2.4-.1-1.3-.3-2.2-.7-2.6-.5-1.2-1.7-1.9-3.6-2.3-1.9-.3-4.9-.5-9-.5v15.7c4.5-1.9,9.9-2.8,16-2.8s4.6,.1,6.4,.3c1.8,.2,3.8,.6,5.8,1,4.4,1,8.3,2.6,11.6,4.7,3.3,2.1,6,4.8,7.9,8,1.3,1.9,2.3,3.8,3,5.8,.7,2,1,4.2,1,6.5s.1,5.5,.4,10.3c.3,4.8,.4,7.2,.4,7.3,0,8.8-1.1,16.3-3.4,22.3-2.3,6-6.8,11-13.5,14.9-6.7,3.9-16,5.8-27.9,5.8s-8-.3-12-1c-4.1-.7-8.1-1.7-12.2-3-8.3-2.8-15.2-6.3-20.8-10.6v-34.9h37.2v11.3c0,3.6,.4,6.4,1.1,8.3,.8,1.9,2.6,2.9,5.7,2.9,2.7-.3,4.4-1.2,5.3-2.5,.9-1.3,1.3-3.2,1.3-5.5v-18.8c0-2.6-.8-4.6-2.3-6.1-1.7-1.4-3.5-2.1-5.4-2.1s-2.7,.4-3.9,1.2c-1.2,.8-1.8,2-1.8,3.5h-37.2V11.7Z"/>
          <path d="M149.4,138.1c-4,0-8.2-.4-12.3-1.1-4.1-.7-8.3-1.7-12.4-3-8.4-2.8-15.5-6.5-21.2-10.9l-.6-.5v-37.1h40.2v12.8c0,3.4,.3,6,1,7.7,.2,.5,.7,1.9,4.2,1.9,2.1-.3,3.6-.9,4.2-1.8,.7-1.1,1.1-2.7,1.1-4.7v-18.8c0-2.1-.6-3.8-1.8-5-1.5-1.2-2.9-1.7-4.4-1.7s-2.1,.3-3.1,1c-.8,.5-1.2,1.2-1.2,2.2v1.5h-40.2V10.2h89.7V45.8h-39.1v-1.5c0-.3,0-1.1-.2-2.3-.1-1.5-.4-1.8-.4-1.9v-.2c-.1,0-.2-.2-.2-.2-.3-.6-1.1-1.1-2.5-1.4-1.6-.3-4-.5-7.2-.5v12c4.2-1.4,9.1-2.1,14.5-2.1s4.7,.1,6.6,.4c1.8,.2,3.8,.6,6,1.1,4.6,1.1,8.6,2.7,12.1,4.9,3.5,2.2,6.3,5.1,8.4,8.5,1.3,1.9,2.4,4,3.1,6.1,.7,2.2,1.1,4.5,1.1,7s.1,5.5,.4,10.2c.4,6.7,.4,7.3,.4,7.4,0,9-1.2,16.7-3.5,22.9-2.4,6.4-7.2,11.6-14.2,15.7-6.9,4-16.6,6-28.7,6Zm-43.5-16.9c5.3,4,12,7.3,19.7,10,3.9,1.2,8,2.2,12,2.9,4,.7,7.9,1,11.8,1,11.5,0,20.7-1.9,27.2-5.6,6.4-3.7,10.7-8.5,12.9-14.1,2.2-5.8,3.3-13.2,3.3-21.8,0-.2-.2-3.3-.4-7.2-.3-4.8-.4-8.2-.4-10.4s-.3-4.2-1-6.1c-.7-1.9-1.6-3.7-2.8-5.5-1.9-3.1-4.4-5.7-7.5-7.6-3.2-2-6.9-3.5-11.1-4.5-2-.4-3.9-.8-5.7-1-1.7-.2-3.8-.3-6.2-.3-5.9,0-11.1,.9-15.5,2.7l-2.1,.8v-19.4h1.5c4.2,0,7.2,.2,9.3,.5,2.4,.4,3.9,1.4,4.6,3,.5,.7,.7,1.7,.9,3.2,0,.4,0,.8,0,1.1h33.2V13.2H105.9V77.7h34.3c.3-1.3,1.1-2.4,2.3-3.2,1.5-1,3.1-1.5,4.8-1.5s4.3,.8,6.3,2.4h.1c1.8,1.9,2.7,4.3,2.7,7.3v18.8c0,2.6-.5,4.7-1.6,6.3-1.1,1.7-3.3,2.8-6.4,3.2h-.2c-4.6,0-6.4-2.1-7.1-3.8-.8-2.1-1.2-5-1.2-8.8v-9.8h-34.2v32.6Z"/>
        </g>
      </g>
      <g>
        <g>
          <path d="M1.5,90.5V40.9c0-6.9,.8-12.7,2.5-17.5,1.7-4.8,4.4-8.9,8.3-12.2,3.8-3.3,8.6-5.8,14.2-7.3,5.6-1.6,12.4-2.4,20.1-2.4s15.1,.7,20.9,2.2c5.8,1.5,10.7,3.7,14.6,6.6,3.9,3,6.8,6.7,8.7,11.3,1.9,4.5,2.9,9.9,2.9,16v52.9c0,3.7,0,6.2-.3,7.4-.2,1.2-.6,2.9-1.3,5.1-1,3.8-3.1,7.5-6.1,11,1.5,3.7,4.1,6,7.7,7l-12.2,22.3c-2-.3-3.9-.8-5.7-1.3-1.8-.5-3.8-1.3-6-2.2-4-1.6-7.1-3.3-9.5-5.1-2.4-1.8-3.9-3.1-4.6-3.9-.7-.8-1.5-1.9-2.3-3.1l-6.1,.2c-8.6,0-16-1-22.2-3-6.2-2-10.9-4.6-14.3-7.8-3.4-3.6-5.8-7.7-7.2-12.2-1.5-4.5-2.2-9.3-2.2-14.3ZM39.9,39.9v51.6c0,1,.1,2.2,.3,3.5,.2,1.3,.9,2.5,2,3.8,1.1,1.2,2.9,1.8,5.5,1.8s4.9-.8,5.7-2.5c.8-1.7,1.1-5,1.1-9.9V39.9c0-4.4-.6-7.4-1.7-8.9-1.1-1.5-3.2-2.3-6.2-2.3-4.5,0-6.8,3.7-6.8,11.2Z" style="fill: #fff;"/>
          <path d="M82.4,145l-1.1-.2c-2-.4-4-.8-5.8-1.3-1.8-.5-3.9-1.3-6.2-2.2-4-1.7-7.4-3.5-9.8-5.3-2.5-1.9-4.1-3.2-4.9-4.1-.6-.7-1.3-1.6-1.9-2.6l-5.3,.2h0c-8.8,0-16.4-1-22.6-3-6.4-2-11.4-4.8-14.9-8.2-3.6-3.8-6.1-8.1-7.6-12.8-1.5-4.7-2.3-9.6-2.3-14.8V40.9c0-7,.9-13.1,2.6-18,1.8-5.1,4.7-9.4,8.7-12.9,4-3.4,9-6,14.8-7.6C31.9,.8,38.8,0,46.7,0s15.4,.7,21.3,2.2c6,1.5,11.1,3.8,15.1,6.9,4.1,3.1,7.2,7.1,9.2,11.9,2,4.7,3,10.3,3,16.6v52.9c0,3.8,0,6.3-.3,7.6-.2,1.3-.6,3.1-1.4,5.4-1,3.7-3,7.4-5.8,10.8,1.4,2.8,3.4,4.5,6.3,5.3l1.9,.5-13.7,25Zm-28.1-18.9l.5,.7c.8,1.2,1.5,2.2,2.1,3,.4,.5,1.5,1.6,4.4,3.7,2.3,1.7,5.4,3.4,9.2,5,2.2,.9,4.1,1.6,5.9,2.1,1.4,.4,2.9,.8,4.5,1.1l10.8-19.8c-3.1-1.3-5.5-3.7-6.9-7.3l-.3-.9,.6-.7c2.9-3.3,4.8-6.8,5.8-10.4,.7-2.2,1.1-3.8,1.3-5,.2-1.1,.2-3.6,.2-7.2V37.6c0-5.9-.9-11.1-2.8-15.5-1.8-4.3-4.6-7.8-8.2-10.6-3.7-2.8-8.4-5-14-6.4-5.7-1.4-12.6-2.1-20.6-2.1s-14.3,.8-19.7,2.3c-5.4,1.5-10,3.9-13.6,7-3.6,3.1-6.3,7-7.9,11.6-1.6,4.6-2.4,10.4-2.4,17v49.5c0,4.8,.7,9.5,2.1,13.8,1.4,4.3,3.7,8.2,6.9,11.6,3.1,3,7.8,5.6,13.7,7.4,6,1.9,13.3,2.9,21.7,2.9l6.9-.2Zm-6.6-24c-3,0-5.2-.8-6.6-2.3-1.3-1.4-2.1-2.9-2.4-4.5-.2-1.3-.4-2.6-.4-3.8V39.9c0-10.5,4.5-12.7,8.3-12.7s6,1,7.4,2.9c1.3,1.8,1.9,5,1.9,9.8v48.3c0,5.1-.4,8.6-1.3,10.5-1,2.3-3.4,3.4-7,3.4Zm-1-71.9c-1.3,0-5.3,0-5.3,9.7v51.6c0,1,.1,2,.3,3.2,.2,1,.7,2,1.6,3,.8,.9,2.3,1.3,4.4,1.3s3.8-.6,4.3-1.6c.5-1,1-3.4,1-9.2V39.9c0-5.1-.7-7.2-1.4-8-.8-1.1-2.5-1.7-5-1.7Z"/>
        </g>
        <g>
          <path d="M96.4,2.7h86.7V35.3h-36.1c0-.3,0-1.2-.2-2.4-.1-1.3-.3-2.2-.7-2.6-.5-1.2-1.7-1.9-3.6-2.3-1.9-.3-4.9-.5-9-.5v15.7c4.5-1.9,9.9-2.8,16-2.8s4.6,.1,6.4,.3c1.8,.2,3.8,.6,5.8,1,4.4,1,8.3,2.6,11.6,4.7,3.3,2.1,6,4.8,7.9,8,1.3,1.9,2.3,3.8,3,5.8,.7,2,1,4.2,1,6.5s.1,5.5,.4,10.3c.3,4.8,.4,7.2,.4,7.3,0,8.8-1.1,16.3-3.4,22.3-2.3,6-6.8,11-13.5,14.9-6.7,3.9-16,5.8-27.9,5.8s-8-.3-12-1c-4.1-.7-8.1-1.7-12.2-3-8.3-2.8-15.2-6.3-20.8-10.6v-34.9h37.2v11.3c0,3.6,.4,6.4,1.1,8.3,.8,1.9,2.6,2.9,5.7,2.9,2.7-.3,4.4-1.2,5.3-2.5,.9-1.3,1.3-3.2,1.3-5.5v-18.8c0-2.6-.8-4.6-2.3-6.1-1.7-1.4-3.5-2.1-5.4-2.1s-2.7,.4-3.9,1.2c-1.2,.8-1.8,2-1.8,3.5h-37.2V2.7Z" style="fill: #fff;"/>
          <path d="M141.4,129.1c-4,0-8.2-.4-12.3-1.1-4.1-.7-8.3-1.7-12.4-3-8.4-2.8-15.5-6.5-21.2-10.9l-.6-.5v-37.1h40.2v12.8c0,3.4,.3,6,1,7.7,.2,.5,.7,1.9,4.2,1.9,2.1-.3,3.6-.9,4.2-1.8,.7-1.1,1.1-2.7,1.1-4.7v-18.8c0-2.1-.6-3.8-1.8-5-1.5-1.2-2.9-1.7-4.4-1.7s-2.1,.3-3.1,1c-.8,.5-1.2,1.2-1.2,2.2v1.5h-40.2V1.2h89.7V36.8h-39.1v-1.5c0-.3,0-1.1-.2-2.3-.1-1.5-.4-1.8-.4-1.9v-.2c-.1,0-.2-.2-.2-.2-.3-.6-1.1-1.1-2.5-1.4-1.6-.3-4-.5-7.2-.5v12c4.2-1.4,9.1-2.1,14.5-2.1s4.7,.1,6.6,.4c1.8,.2,3.8,.6,6,1.1,4.6,1.1,8.6,2.7,12.1,4.9,3.5,2.2,6.3,5.1,8.4,8.5,1.3,1.9,2.4,4,3.1,6.1,.7,2.2,1.1,4.6,1.1,7s.1,5.5,.4,10.2c.4,6.6,.4,7.3,.4,7.4,0,9-1.2,16.7-3.5,22.9-2.4,6.4-7.2,11.6-14.2,15.7-6.9,4-16.6,6-28.7,6Zm-43.5-16.9c5.3,4,12,7.3,19.7,10,3.9,1.2,8,2.2,12,2.9,4,.7,7.9,1,11.8,1,11.5,0,20.7-1.9,27.2-5.6,6.4-3.7,10.7-8.5,12.9-14.1,2.2-5.8,3.3-13.2,3.3-21.8,0-.2-.2-3.6-.4-7.2-.3-4.7-.4-8.2-.4-10.4s-.3-4.2-1-6.1c-.7-1.9-1.6-3.7-2.8-5.5-1.9-3.1-4.4-5.7-7.5-7.6-3.2-2-6.9-3.5-11.1-4.5-2-.4-3.9-.8-5.7-1-1.7-.2-3.8-.3-6.2-.3-5.9,0-11.1,.9-15.5,2.7l-2.1,.8V26h1.5c4.2,0,7.2,.2,9.3,.5,2.4,.4,3.9,1.4,4.6,3,.5,.7,.7,1.7,.9,3.2,0,.4,0,.8,0,1.1h33.2V4.2H97.9V68.7h34.3c.3-1.3,1.1-2.4,2.3-3.2,1.5-1,3.1-1.5,4.8-1.5s4.3,.8,6.3,2.4h.1c1.8,1.9,2.7,4.3,2.7,7.3v18.8c0,2.6-.5,4.7-1.6,6.3-1.1,1.7-3.3,2.8-6.4,3.2h-.2c-4.6,0-6.4-2.1-7.1-3.8-.8-2.1-1.2-5-1.2-8.8v-9.8h-34.2v32.6Z"/>
        </g>
      </g>
    </g>
  </g>
</svg>