<?xml version="1.0" encoding="UTF-8"?>
<svg id="Layer_2" data-name="Layer 2" xmlns="http://www.w3.org/2000/svg" viewBox="0 0 272.9 98.8">
  <g id="BUTTON">
    <g>
      <g>
        <rect x="8.5" y="15.5" width="262.9" height="81.8" rx="12" ry="12"/>
        <path d="M259.4,98.8H20.5c-7.4,0-13.5-6.1-13.5-13.5V27.5c0-7.4,6.1-13.5,13.5-13.5h238.9c7.4,0,13.5,6.1,13.5,13.5v57.8c0,7.4-6.1,13.5-13.5,13.5ZM20.5,17c-5.8,0-10.5,4.7-10.5,10.5v57.8c0,5.8,4.7,10.5,10.5,10.5h238.9c5.8,0,10.5-4.7,10.5-10.5V27.5c0-5.8-4.7-10.5-10.5-10.5H20.5Z"/>
      </g>
      <g>
        <rect x="1.5" y="1.5" width="262.9" height="81.8" rx="12" ry="12" style="fill: #cb1515;"/>
        <path d="M252.4,84.8H13.5c-7.4,0-13.5-6.1-13.5-13.5V13.5C0,6.1,6.1,0,13.5,0H252.4c7.4,0,13.5,6.1,13.5,13.5v57.8c0,7.4-6.1,13.5-13.5,13.5ZM13.5,3C7.7,3,3,7.7,3,13.5v57.8c0,5.8,4.7,10.5,10.5,10.5H252.4c5.8,0,10.5-4.7,10.5-10.5V13.5c0-5.8-4.7-10.5-10.5-10.5H13.5Z"/>
      </g>
      <g>
        <g>
          <path d="M46,59.4l.6,.4h8.8l.5-.4,6.5-27.5,.6-.3h9.2l.2,.3-6.2,27.5,.3,.4h9l.4,.3v6.8l-.4,.3H26.5l-.4-.3v-6.8l.4-.3h8.9l.3-.4-5.4-27.5,.3-.3h8.7l.6,.3,6.2,27.5Zm-1.6-42.3l.4-.4h11.4l.4,.4v3.6l.4,.4h17.9l.5,.3v6.9l-.5,.4H26.7l-.4-.4v-6.9l.4-.3h17.2l.5-.4v-3.6Z" style="fill: #fff;"/>
          <path d="M75.6,68.2H26.5c-.2,0-.5,0-.7-.2l-.4-.3c-.2-.2-.3-.5-.3-.8v-6.8c0-.3,.1-.6,.3-.8l.4-.3c.2-.2,.4-.2,.7-.2h8.1l-5.2-26.7c0-.3,0-.6,.2-.8l.3-.3c.2-.2,.5-.4,.8-.4h8.7c.2,0,.3,0,.5,.1l.6,.3c.3,.1,.4,.4,.5,.7l6.1,27.1h8.2l6.4-27.1c0-.3,.2-.5,.5-.6l.6-.3c.1,0,.3-.1,.5-.1h9.2c.3,0,.6,.2,.8,.4l.2,.3c.2,.2,.2,.5,.1,.8l-6,26.7h8.2c.2,0,.4,0,.6,.2l.4,.3c.3,.2,.4,.5,.4,.8v6.8c0,.3-.1,.6-.4,.8l-.4,.3c-.2,.1-.4,.2-.6,.2Zm-48.5-2h47.9v-5.4h-8.5c-.3,0-.6-.1-.8-.3l-.3-.4c-.2-.2-.3-.6-.2-.9l6-26.6h-7.9l-6.3,27.1c0,.2-.2,.4-.4,.6l-.5,.4c-.2,.1-.4,.2-.6,.2h-8.8c-.2,0-.4,0-.5-.1l-.6-.4c-.2-.1-.4-.4-.5-.6l-6.1-27h-7.5l5.2,26.6c0,.3,0,.6-.2,.8l-.3,.4c-.2,.2-.5,.3-.8,.3h-8.3v5.4ZM74.9,29.7H26.7c-.2,0-.5,0-.7-.2l-.4-.4c-.2-.2-.3-.5-.3-.8v-6.9c0-.3,.1-.6,.4-.8l.4-.3c.2-.1,.4-.2,.6-.2h16.7v-3c0-.3,.1-.5,.3-.7l.4-.4c.2-.2,.4-.3,.7-.3h11.4c.2,0,.5,0,.7,.2l.4,.4c.2,.2,.3,.5,.3,.8v3h17.3c.2,0,.4,0,.5,.1l.5,.3c.3,.2,.5,.5,.5,.9v6.9c0,.3-.2,.6-.4,.8l-.5,.4c-.2,.1-.4,.2-.6,.2Zm-47.6-2h47.1v-5.6h-17.5c-.3,0-.5-.1-.7-.3l-.4-.4c-.2-.2-.3-.4-.3-.7v-3h-10.2v3c0,.3-.1,.6-.4,.8l-.5,.4c-.2,.1-.4,.2-.6,.2H27.3v5.6Zm17.1-7h0Z"/>
        </g>
        <g>
          <path d="M105,42.6c0,1.8-.4,3.2-1.3,4.2-.9,1-2.2,1.7-3.8,2h-9.6l-.4,.3v9.5l.4,.4h4.9c.8-.6,1.2-1.4,1.2-2.4v-5.6l.5-.3h8.1l.5,.3v10.7c-.5,2.9-2.3,4.6-5.5,5h-18.9l-.4-.4V18.3l.4-.3h23.6l.4,.3v24.2Zm-9.3-13.5v-3.1l-.4-.4h-5.2l-.4,.4v3.1l.4,.3h5.2l.4-.3Zm0,11.2v-3.1l-.4-.3h-5.2l-.4,.3v3.1l.4,.4h5.2l.4-.4Zm34.2,19.6c-.4,2.3-2.1,3.8-5.2,4.7h-5.4l-.4-.4v-6.6l.4-.3,.5-.2c.6-.4,.9-1.2,.9-2.2V26.1l-.4-.4h-3l-.4,.4v40.1l-.4,.3h-8.2l-.3-.3V17.7l.3-.4h21.3l.4,.4V59.8Z" style="fill: #fff;"/>
          <path d="M99.8,67.7h-18.9c-.2,0-.5,0-.7-.2l-.4-.4c-.2-.2-.3-.5-.3-.8V18.3c0-.3,.1-.6,.4-.8l.4-.3c.2-.1,.4-.2,.6-.2h23.6c.2,0,.4,0,.6,.2l.4,.3c.3,.2,.4,.5,.4,.8v24.2c0,2-.5,3.6-1.6,4.8-1,1.1-2.3,1.9-4,2.3h4.5c.2,0,.4,0,.6,.2l.5,.3c.3,.2,.4,.5,.4,.8v10.7c0,0,0,.1,0,.2-.6,3.3-2.8,5.4-6.4,5.9,0,0,0,0-.1,0Zm-18.3-2h18.2c2.7-.4,4.1-1.7,4.6-4.1v-9.9h-7v4.9c0,1.3-.6,2.4-1.6,3.2-.2,.1-.4,.2-.6,.2h-4.9c-.3,0-.6-.1-.8-.3l-.4-.4c-.2-.2-.2-.4-.2-.7v-9.5c0-.3,.1-.6,.3-.8l.4-.3c.2-.2,.4-.2,.7-.2h9.5c1.4-.3,2.4-.8,3.2-1.7,.7-.8,1.1-2,1.1-3.5V19h-22.5v46.7Zm9.3-7.7h3.9c.4-.4,.6-.9,.6-1.4v-5.6c0-.3,.2-.6,.4-.8l.5-.3s0,0,.1,0h-5.5v8.2Zm25.7,9.6h-8.2c-.3,0-.5-.1-.7-.3l-.3-.3c-.2-.2-.3-.4-.3-.7V17.7c0-.2,0-.5,.2-.7l.3-.4c.2-.2,.5-.3,.8-.3h21.3c.3,0,.5,.1,.7,.3l.4,.4c.2,.2,.3,.4,.3,.7V59.8c0,0,0,.1,0,.2-.5,2.7-2.5,4.5-6,5.5,0,0-.2,0-.3,0h-5.4c-.3,0-.5-.1-.7-.3l-.4-.4c-.1-.1-.2-.3-.2-.4v1.8c0,.3-.1,.6-.4,.8l-.4,.3c-.2,.1-.4,.2-.6,.2Zm-7.5-2h6.9V26.1c0-.3,.1-.5,.3-.7l.4-.4c.2-.2,.4-.3,.7-.3h3c.2,0,.5,0,.7,.2l.4,.4c.2,.2,.3,.5,.3,.8v28.7c0,1.4-.4,2.4-1.3,3,0,0-.1,0-.2,.1h-.3v5.5h4.7c2.6-.7,4-2,4.4-3.7V18.3h-20v47.2Zm21-5.7h0Zm-12-33.1v30.6c0-.2,.2-.3,.3-.5l.4-.3c0,0,.2-.1,.3-.2l.4-.2c.3-.2,.4-.7,.4-1.3V26.7h-1.8Zm-22.6,14.9h-5.2c-.2,0-.5,0-.7-.2l-.4-.4c-.2-.2-.3-.5-.3-.8v-3.1c0-.3,.1-.6,.4-.8l.4-.3c.2-.1,.4-.2,.6-.2h5.2c.2,0,.4,0,.6,.2l.4,.3c.3,.2,.4,.5,.4,.8v3.1c0,.3-.1,.6-.3,.8l-.4,.4c-.2,.2-.4,.2-.7,.2Zm.4-1.4h0Zm-5.1-.6h4.1v-1.8h-4.1v1.8Zm4.7-9.2h-5.2c-.2,0-.4,0-.6-.2l-.4-.3c-.3-.2-.4-.5-.4-.8v-3.1c0-.3,.1-.6,.3-.8l.4-.4c.2-.2,.4-.2,.7-.2h5.2c.2,0,.5,0,.7,.2l.4,.4c.2,.2,.3,.5,.3,.8v3.1c0,.3-.1,.6-.4,.8l-.4,.3c-.2,.1-.4,.2-.6,.2Zm.4-1.3h0Zm-5.1-.7h4.1v-1.8h-4.1v1.8Z"/>
        </g>
        <g>
          <path d="M185.2,66.5l-.4,.3h-34.6c-2.2-.2-3.9-1.3-5.4-3.1-1.4,2.2-3,3.3-4.7,3.3h-6.2l-.4-.4v-6.5c1.9-.5,2.9-1.9,2.9-4.3v-9.8l-.5-.3h-2.1l-.4-.4v-6l.4-.4h10.7l.4,.4v17c.6,1.8,1.9,3,3.9,3.5h35.9l.4,.3v6.4Zm-42.2-47.5l.4,.4v7l-.4,.3h-8l-.4-.3v-7l.4-.4h8Zm.5,17.5l-.5,.3h-7.8l-.4-.3v-7.2l.4-.4h7.8l.5,.4v7.2Zm22.9-16.8l.4,.3v4.4h.3c.6,0,1.5-1,2.5-3.1l.6-3.8,.5-.4h6.7l.3,.4-.5,3.8,.4,.3h6.9l.4,.3v5.3l-.4,.4-.6,.4-4.3,12.9-.2,.4,.2,.3,2.4,7.2c.4,1.3,1.3,2.1,2.6,2.5v6.1l-.4,.4h-4.8c-1.2-.2-2.5-1.6-3.7-4-1,2.5-2.6,4-4.9,4.5h-2.4l-.4-.4v-7c.8-.5,1.5-1.5,2-2.8l1.8-5.4v-.7l-3.3-10.2,.3-.4h6.7l.6-.4,.6-2.2-.2-.3h-1.1c-.7,1.2-1.6,1.9-2.7,1.9h-5.1l-.5,.4v2.6c-.3,1.8-1.6,3.1-3.7,3.8h-1.3l-.4,.4v.5l.4,.4h4.8l.4,.3v6.1l-.4,.3h-9.5l-.4,.4v.5l.4,.3h8.2l.5,.3v8.7c-.5,1.9-1.8,2.8-3.7,2.8h-4.6l-.4-.3v-2.6c-1.1,1.9-2.4,2.9-4,2.9h-5.8l-.5-.3v-4.8c1-.2,1.7-1.2,2-2.9v-4.7l-.4-.4h-1.3l-.5-.3v-6.1l.5-.3h5.7l.4-.4v-.7l-.4-.4h-5.3l-.4-.3v-7.4l-.4-.4h-.7l-.4-.3v-6c.9-.2,1.7-1,2.5-2.4l1.5-2.7c.1-.1,.3-.3,.7-.4h6.8l.3,.4-.7,2.1,.3,.3h9.5Zm-7.8,5.1l-.5-.4h-2.6l-.4,.4v1.2l.4,.4h2.6l.5-.4v-1.2Zm0,5.4l-.5-.3h-2.6l-.4,.3v1.3l.4,.3h2.6l.5-.3v-1.3Zm-.5,21.3l-.4-.3h-.7l-.5,.3v1.4l.5,.4h.7l.4-.4v-1.4Z" style="fill: #fff;"/>
          <path d="M140.1,68h-6.2c-.3,0-.5-.1-.7-.3l-.4-.4c-.2-.2-.3-.4-.3-.7v-6.5c0-.5,.3-.9,.8-1,1-.3,2.2-.9,2.2-3.3v-9.1h-1.5c-.3,0-.5-.1-.7-.3l-.4-.4c-.2-.2-.3-.4-.3-.7v-6c0-.3,.1-.5,.3-.7l.4-.4c.2-.2,.4-.3,.7-.3h10.7c.2,0,.5,0,.7,.2l.3,.3c0-.3,.2-.6,.4-.7l.5-.3s0,0,0,0h-.1c-.2-.3-.3-.6-.3-.9v-6.8h0c-.2,0-.4,0-.6-.2l-.4-.3c-.3-.2-.4-.5-.4-.8v-6c0-.5,.3-.9,.8-1,.6-.1,1.2-.8,1.8-1.9l1.5-2.7s0,0,0-.1c.2-.3,.6-.6,1.2-.7,0,0,.2,0,.3,0h6.8c.3,0,.6,.1,.8,.4l.3,.4c.2,.3,.3,.6,.2,1l-.4,1.1h8.5c.2,0,.4,0,.6,.2l.4,.3c.3,.2,.4,.5,.4,.8v2.4c.2-.4,.5-.8,.8-1.4l.6-3.7c0-.3,.2-.5,.4-.7l.5-.4c.2-.1,.4-.2,.6-.2h6.7c.3,0,.6,.2,.8,.4l.3,.4c.1,.2,.2,.5,.2,.7l-.4,3h6.2c.2,0,.4,0,.6,.2l.4,.3c.3,.2,.4,.5,.4,.8v5.3c0,.3-.1,.6-.3,.8l-.4,.4s0,0-.1,0l-.3,.2-4.2,12.5s0,0,0,0c0,0,0,0,0,0l2.4,7.2c.3,1,.9,1.6,1.9,1.8,.4,.1,.7,.5,.7,1v6.1c0,.3-.1,.6-.3,.8l-.4,.4c-.2,.2-.4,.2-.7,.2h-4.8c0,0-.1,0-.2,0-1.2-.2-2.3-1.2-3.4-2.8-.8,1.4-1.9,2.3-3.3,2.9h12.5c.2,0,.4,0,.6,.2l.4,.3c.3,.2,.4,.5,.4,.8v6.4c0,.3-.1,.6-.4,.8l-.4,.3c-.2,.1-.4,.2-.6,.2h-34.6c-2.1-.2-3.9-1-5.3-2.5-1.4,1.8-3,2.7-4.8,2.7Zm45.1-1.5h0Zm-50.7-.5h5.6c1.3,0,2.6-1,3.9-2.8,.2-.3,.5-.4,.8-.4,.3,0,.6,.1,.8,.4,1.3,1.7,2.8,2.6,4.7,2.7h33.9v-5h-35.3c0,0-.2,0-.3,0-2.3-.6-3.8-2-4.5-4.1,0-.1,0-.2,0-.3v-16.4h-9.5v4.8h1.4c.2,0,.3,0,.5,.1l.5,.3c.3,.2,.5,.5,.5,.9v9.8c0,3-1.4,4.4-2.9,5v5.2Zm29.2-7.2h3.5l-.2-.2c-.2-.2-.3-.5-.3-.8v-7c0-.3,.2-.7,.5-.8,.6-.4,1.2-1.2,1.5-2.3l1.7-5.3v-.4l-2.8-8.5c-.2,1.2-.9,2.7-2.8,3.8h1.6c.2,0,.4,0,.6,.2l.4,.3c.3,.2,.4,.5,.4,.8v6.1c0,.3-.2,.7-.5,.8l-.4,.3c-.2,0-.3,.2-.5,.2h0c.1,.2,.2,.4,.2,.6v8.7c0,0,0,.2,0,.3-.5,1.7-1.5,2.8-2.9,3.3Zm-9.2,0h2.2l-.4-.3c-.2-.1-.3-.3-.3-.6-.5,.4-1,.7-1.5,.9Zm14.2-1.5h1.8c1.9-.4,3.2-1.7,4-3.9,.1-.4,.5-.6,.9-.6,.4,0,.8,.2,.9,.5,1.3,2.6,2.4,3.3,2.9,3.4h4.1v-4.8c-1.2-.5-2.1-1.5-2.5-2.9l-2.4-7.1v-.2c-.3-.3-.4-.7-.2-1l.2-.4,4.3-12.8c0-.2,.2-.4,.4-.5l.5-.4v-4.2h-6.4c-.2,0-.5,0-.7-.2l-.4-.3c-.3-.2-.4-.6-.3-.9l.4-3h-5.4l-.5,3.3c0,0,0,.2,0,.3-1.3,2.7-2.3,3.7-3.4,3.7s-.1,0-.2,0h-.3c-.5-.1-.8-.6-.8-1v-3.7h-8.8c-.3,0-.5-.1-.7-.3l-.3-.3c-.3-.3-.4-.7-.2-1l.4-1.2h-5.6s0,0,0,0l-1.4,2.5c-.7,1.3-1.5,2.2-2.4,2.6v4.7h.1c.3,0,.5,.1,.7,.3l.4,.4c.2,.2,.3,.4,.3,.7v6.7h4.7c.2,0,.5,0,.7,.2l.4,.4c.2,.2,.3,.5,.3,.8v.7c0,.3-.1,.6-.3,.8l-.4,.4c-.2,.2-.4,.2-.7,.2h-5.2v4.7h.8c.3,0,.5,.1,.7,.3l.4,.4c.2,.2,.3,.4,.3,.7v4.7c0,0,0,.1,0,.2-.4,1.7-1,2.9-2,3.4v3.4h5.2c1.2,0,2.2-.8,3.1-2.4,.1-.2,.3-.3,.4-.4-.1,0-.2,0-.3-.2l-.5-.4c-.2-.2-.4-.5-.4-.8v-1.4c0-.3,.2-.6,.4-.8l.5-.3c.2-.1,.4-.2,.6-.2h.7c.2,0,.4,0,.6,.2l.4,.3c.3,.2,.4,.5,.4,.8v1.4c0,.3-.1,.6-.3,.8l-.4,.4c-.2,.2-.4,.2-.7,.2h-.1c.3,.2,.5,.5,.5,.9v1.9h4c1.4,0,2.3-.6,2.7-1.9v-7.9h-7.7c-.2,0-.4,0-.6-.2l-.4-.3c-.3-.2-.4-.5-.4-.8v-.5c0-.3,.1-.5,.3-.7l.4-.4c.2-.2,.4-.3,.7-.3h8.9v-4.7h-4.2c-.2,0-.5,0-.7-.2l-.4-.4c-.2-.2-.3-.5-.3-.8v-.5c0-.3,.1-.6,.3-.8l.4-.4c.2-.2,.4-.2,.7-.2h1.2c1.7-.6,2.6-1.5,2.9-2.8v-2.5c0-.3,.1-.6,.4-.8l.5-.4c.2-.1,.4-.2,.6-.2h5.1c.5,0,1.2-.1,1.9-1.3,.2-.3,.5-.5,.9-.5h1.1c.3,0,.6,.2,.8,.4l.2,.3c.2,.2,.2,.5,.1,.8l-.6,2.2c0,.3-.2,.5-.5,.6l-.6,.4c-.2,0-.3,.1-.5,.1h-5.7l3,9.2c0,.1,0,.2,0,.3v.7c0,.1,0,.2,0,.3l-1.8,5.4c-.5,1.3-1.1,2.3-1.9,3v5.9Zm-22.7-11.7v6.7c.1-.2,.3-.3,.5-.3,.7-.1,1-1.2,1.2-2v-4h-.7c-.2,0-.3,0-.5-.1l-.5-.3s0,0,0,0Zm28.8-15.2h0s0,0,0,0c0,0,0,0-.1,0Zm-31.8,7.5h-7.8c-.2,0-.5,0-.7-.2l-.4-.3c-.2-.2-.3-.5-.3-.8v-7.2c0-.3,.1-.5,.3-.7l.4-.4c.2-.2,.4-.3,.7-.3h7.8c.2,0,.4,0,.6,.2l.5,.4c.2,.2,.4,.5,.4,.8v7.2c0,.3-.2,.6-.4,.8l-.5,.3c-.2,.1-.4,.2-.6,.2Zm.5-1.3h0Zm-7.7-.7h6.7v-5.9h-6.7v5.9Zm22.2-3h-2.6c-.2,0-.5,0-.7-.2l-.4-.3c-.2-.2-.3-.5-.3-.8v-1.3c0-.3,.1-.6,.3-.8l.4-.3c.2-.2,.4-.2,.7-.2h2.6c.2,0,.4,0,.6,.2l.5,.3c.3,.2,.4,.5,.4,.8v1.3c0,.3-.2,.6-.4,.8l-.5,.3c-.2,.1-.4,.2-.6,.2Zm-15.1-5.2h-8c-.2,0-.4,0-.6-.2l-.4-.3c-.3-.2-.4-.5-.4-.8v-7c0-.3,.1-.6,.3-.8l.4-.4c.2-.2,.4-.2,.7-.2h8c.3,0,.5,.1,.7,.3l.4,.4c.2,.2,.3,.4,.3,.7v7c0,.3-.1,.6-.3,.8l-.4,.3c-.2,.2-.4,.2-.7,.2Zm-7.5-2h6.8v-5.7h-6.8v5.7Zm22.5,1.7h-2.6c-.3,0-.5-.1-.7-.3l-.4-.4c-.2-.2-.3-.4-.3-.7v-1.2c0-.3,.1-.5,.3-.7l.4-.4c.2-.2,.4-.3,.7-.3h2.6c.2,0,.4,0,.6,.2l.5,.4c.2,.2,.4,.5,.4,.8v1.2c0,.3-.1,.6-.4,.8l-.5,.4c-.2,.1-.4,.2-.6,.2Z"/>
        </g>
        <g>
          <path d="M203.4,17l.4,.4v2.5l.4,.4h4.9l.4,.3v5.2l-.4,.3h-20.2l-.4-.3v-5.2l.4-.3h4.2l.4-.4v-2.5l.5-.4h9.4Zm-14,17.3l-.5-.4v-5.4l.5-.4h19l.4,.4v5.4l-.4,.4h-19Zm0,8.5l-.5-.4v-5.9l.5-.4h19.2l.5,.4v5.9l-.5,.4h-19.2Zm.3,24.4l-.5-.4v-21.8l.5-.3h19.5l.5,.3v16.2c-.2,1.7-.6,2.9-1.3,3.9-.7,.7-1.4,1.2-2.3,1.6-.9,.4-1.9,.6-3.1,.6h-13.3Zm8.3-7h3l.4-.3v-8.6l-.4-.3h-3l-.4,.3v8.6l.4,.3Zm31.4-43.3l.3,.3v1.9l.4,.3h7.5l.4,.4v4.1l-.4,.4h-7.6l-.4,.3v1.3l.4,.3h6.9l.4,.4v4l-.4,.3h-6.9l-.4,.4v1.2l.4,.4h7.9l.4,.4v4.6l-.4,.4h-26.1l-.5-.4v-4.6l.5-.4h7.2l.4-.4v-1.2l-.4-.4h-6.8l-.4-.3v-4l.4-.4h6.8l.4-.3v-1.3l-.4-.3h-7.5l-.4-.4v-4.1l.4-.4h7.5l.4-.3v-1.9l.5-.3h9.4Zm-2.5,49.9l-.4-.4v-4.3l.4-.4h1.9c.8,0,1.3-.5,1.3-1.7l-.4-.5h-8.9l-.4,.4v6.6l-.3,.4h-7.7l-.4-.4v-26.4l.4-.4h25.7l.4,.4v21.4c-.2,1.7-.7,2.9-1.5,3.6-1,.9-2.5,1.5-4.5,1.7h-5.4Zm-5.8-19.2h8.6l.4-.3v-1.4l-.4-.4h-8.6l-.5,.4v1.4l.5,.3Zm0,6.8h8.6l.4-.3v-1.4l-.4-.4h-8.6l-.5,.4v1.4l.5,.3Z" style="fill: #fff;"/>
          <path d="M203.1,68.1h-13.3c-.2,0-.4,0-.6-.2l-.5-.4c-.2-.2-.4-.5-.4-.8v-21.8c0-.4,.2-.7,.5-.9l.5-.3s0,0,0,0c-.2,0-.4,0-.5-.2l-.5-.4c-.2-.2-.4-.5-.4-.8v-5.9c0-.3,.1-.6,.4-.8l.5-.4c0,0,.2-.1,.2-.1-.1,0-.2-.1-.3-.2l-.5-.4c-.2-.2-.3-.5-.3-.7v-5.4c0-.3,.1-.6,.4-.8l.5-.4c0,0,.1,0,.2-.1h0c-.2,0-.5,0-.7-.2l-.4-.3c-.2-.2-.3-.5-.3-.8v-5.2c0-.3,.1-.6,.3-.8l.4-.3c.2-.2,.4-.2,.7-.2h3.5v-1.9c0-.3,.2-.6,.4-.8l.5-.4c.2-.1,.4-.2,.6-.2h9.4c.2,0,.5,0,.7,.2l.4,.4c.2,.2,.3,.5,.3,.8v1.9h4.3c.2,0,.5,0,.7,.2l.4,.3c0,0,.1,0,.1,.2v-.2c0-.3,.1-.5,.3-.7l.4-.4c.2-.2,.4-.3,.7-.3h6.9v-1.2c0-.4,.2-.7,.5-.9l.5-.3c.2,0,.3-.1,.5-.1h9.4c.3,0,.5,.1,.7,.3l.3,.3c.2,.2,.3,.4,.3,.7v1.2h6.9c.2,0,.5,0,.7,.2l.4,.4c.2,.2,.3,.5,.3,.8v4.1c0,.3-.1,.6-.3,.8l-.4,.4c-.2,.2-.4,.2-.7,.2h-.3c0,0,.2,0,.2,.2l.4,.4c.2,.2,.3,.5,.3,.8v4c0,.3-.1,.6-.4,.8l-.4,.3c0,0-.1,0-.2,.1h.6c.2,0,.5,0,.7,.2l.4,.4c.2,.2,.3,.5,.3,.8v4.6c0,.3-.1,.6-.3,.8l-.4,.4h0s0,0,.1,0l.4,.4c.2,.2,.3,.5,.3,.8v21.4s0,0,0,.1c-.2,1.9-.9,3.4-1.9,4.2-1.2,1-2.9,1.7-5.1,2,0,0,0,0-.1,0h-5.4c-.2,0-.5,0-.7-.2l-.4-.4c-.2-.2-.3-.5-.3-.8v-4.3c0-.3,.1-.6,.3-.8l.4-.4c.2-.2,.4-.2,.7-.2h1.9c.1,0,.2,0,.2,0,0,0,0,0,0-.3h-7.6v5.9c0,.2,0,.5-.2,.7l-.3,.4c-.2,.2-.5,.3-.8,.3h-7.7c-.2,0-.5,0-.7-.2l-.4-.4c-.2-.2-.3-.5-.3-.8v-26.4c0-.3,.1-.6,.3-.8l.3-.3c-.1,0-.2,0-.3-.2l-.5-.4c-.2-.2-.4-.5-.4-.8v-4.6c0-.3,.1-.6,.4-.8l.5-.4c.2-.1,.4-.2,.6-.2h0c0,0-.1,0-.2-.1l-.4-.3c-.3-.2-.4-.5-.4-.8v-4c0-.3,.1-.6,.3-.8l.4-.4c0,0,.1-.1,.2-.2h-.3c-.3,0-.5-.1-.7-.3l-.4-.4s0,0,0-.1v1.4c0,.3-.1,.6-.3,.8l-.4,.3c-.2,.2-.4,.2-.7,.2h-.2c.1,0,.2,.1,.3,.2l.4,.4c.2,.2,.3,.4,.3,.7v5.4c0,.2,0,.5-.2,.7l-.4,.4c0,0-.2,.2-.3,.2,.1,0,.2,0,.3,.2l.5,.4c.2,.2,.4,.5,.4,.8v5.9c0,.3-.1,.6-.4,.8l-.5,.4c0,0-.1,0-.2,.1h.2c.2,0,.3,0,.5,.1l.5,.3c.3,.2,.5,.5,.5,.9v16.2s0,0,0,.1c-.2,1.8-.7,3.2-1.4,4.3,0,0,0,0-.1,.1-.8,.8-1.7,1.4-2.6,1.8-1,.4-2.2,.6-3.5,.6Zm-12.8-2h12.8c1,0,1.9-.2,2.7-.5,.7-.3,1.4-.7,1.9-1.3,.5-.8,.9-1.9,1-3.3v-15.4h-18.5v20.5Zm37.2-.4h4.8c1.8-.2,3.1-.7,3.9-1.5,.6-.5,1-1.5,1.2-2.9v-20.7h-24.6v25.1h6.5v-5.9c0-.3,.1-.6,.3-.8l.4-.4c.2-.2,.4-.2,.7-.2h8.9c.3,0,.6,.2,.8,.4l.4,.5c.1,.2,.2,.4,.2,.6,0,1-.3,1.8-.8,2.2-.3,.3-.8,.6-1.6,.5h-1.2v3Zm-37.6-24h18.2v-4.6h-18.2v4.6Zm22.4-4.7h25v-3.3h-7.3c-.3,0-.5-.1-.7-.3l-.4-.4c-.2-.2-.3-.4-.3-.7v-1.2c0-.3,.1-.5,.3-.7l.4-.4c.2-.2,.4-.3,.7-.3h6.3v-2.7h-6.3c-.2,0-.5,0-.7-.2l-.4-.3c-.2-.2-.3-.5-.3-.8v-1.3c0-.3,.1-.6,.3-.8l.4-.3c.2-.2,.4-.2,.7-.2h7v-2.9h-6.9c-.2,0-.4,0-.6-.2l-.4-.3c-.3-.2-.4-.5-.4-.8v-1.2h-8.2v1.2c0,.3-.1,.6-.4,.8l-.4,.3c-.2,.1-.4,.2-.6,.2h-6.8v2.9h6.8c.2,0,.4,0,.6,.2l.4,.3c.3,.2,.4,.5,.4,.8v1.3c0,.3-.1,.6-.4,.8l-.4,.3c-.2,.1-.4,.2-.6,.2h-6.2v2.7h6.2c.2,0,.5,0,.7,.2l.4,.4c.2,.2,.3,.5,.3,.8v1.2c0,.3-.1,.6-.3,.8l-.4,.4c-.2,.2-.4,.2-.7,.2h-6.7v3.3Zm-22.4-3.8h17.9v-4.2h-17.9v4.2Zm-.4-8.1h18.9v-3.9h-4.2c-.2,0-.5,0-.7-.2l-.4-.4c-.2-.2-.3-.5-.3-.8v-1.9h-8.3v1.9c0,.3-.1,.5-.3,.7l-.4,.4c-.2,.2-.4,.3-.7,.3h-3.5v3.9Zm11.4,36h-3c-.2,0-.4,0-.6-.2l-.4-.3c-.3-.2-.4-.5-.4-.8v-8.6c0-.3,.1-.6,.4-.8l.4-.3c.2-.1,.4-.2,.6-.2h3c.2,0,.5,0,.7,.2l.4,.3c.2,.2,.3,.5,.3,.8v8.6c0,.3-.1,.6-.3,.8l-.4,.3c-.2,.2-.4,.2-.7,.2Zm-2.4-2h1.8v-7.3h-1.8v7.3Zm31.1-3.8h-8.6c-.2,0-.4,0-.6-.2l-.5-.3c-.3-.2-.4-.5-.4-.8v-1.4c0-.3,.1-.6,.4-.8l.5-.4c.2-.1,.4-.2,.6-.2h8.6c.3,0,.5,.1,.7,.3l.4,.4c.2,.2,.3,.4,.3,.7v1.4c0,.3-.1,.6-.3,.8l-.4,.3c-.2,.2-.4,.2-.7,.2Zm-8-2h7.4c0-.1-7.4-.1-7.4-.1h0Zm8-4.7h-8.6c-.2,0-.4,0-.6-.2l-.5-.3c-.3-.2-.4-.5-.4-.8v-1.4c0-.3,.1-.6,.4-.8l.5-.4c.2-.1,.4-.2,.6-.2h8.6c.3,0,.5,.1,.7,.3l.4,.4c.2,.2,.3,.4,.3,.7v1.4c0,.3-.1,.6-.3,.8l-.4,.3c-.2,.2-.4,.2-.7,.2Zm-8-2h7.4c0,0-7.4,0-7.4,0h0Z"/>
        </g>
      </g>
    </g>
  </g>
</svg>