<?xml version="1.0" encoding="UTF-8"?>
<svg id="Layer_2" data-name="Layer 2" xmlns="http://www.w3.org/2000/svg" viewBox="0 0 940.4 426">
  <g id="BOX">
    <g>
      <g>
        <rect x="61" y="59.5" width="860.2" height="335.7" rx="20" ry="20"/>
        <path d="M901.2,397.2H81c-12.1,0-22-9.9-22-22V79.5c0-12.1,9.9-22,22-22H901.2c12.1,0,22,9.9,22,22V375.2c0,12.1-9.9,22-22,22ZM81,61.5c-9.9,0-18,8.1-18,18V375.2c0,9.9,8.1,18,18,18H901.2c9.9,0,18-8.1,18-18V79.5c0-9.9-8.1-18-18-18H81Z"/>
      </g>
      <g>
        <rect x="40.8" y="38.8" width="860.2" height="335.7" rx="20" ry="20" style="fill: #e9b177;"/>
        <path d="M881,376H60.8c-11.9,0-21.5-9.6-21.5-21.5V58.8c0-11.9,9.6-21.5,21.5-21.5H881c11.9,0,21.5,9.6,21.5,21.5V354.5c0,11.9-9.6,21.5-21.5,21.5ZM60.8,40.3c-10.2,0-18.5,8.3-18.5,18.5V354.5c0,10.2,8.3,18.5,18.5,18.5H881c10.2,0,18.5-8.3,18.5-18.5V58.8c0-10.2-8.3-18.5-18.5-18.5H60.8Z"/>
      </g>
      <g>
        <rect x="59.4" y="57.2" width="823" height="299" rx="20" ry="20" style="fill: #e9b177;"/>
        <path d="M862.4,357.2H79.4c-11.6,0-21-9.4-21-21V77.2c0-11.6,9.4-21,21-21H862.4c11.6,0,21,9.4,21,21V336.2c0,11.6-9.4,21-21,21ZM79.4,58.2c-10.5,0-19,8.5-19,19V336.2c0,10.5,8.5,19,19,19H862.4c10.5,0,19-8.5,19-19V77.2c0-10.5-8.5-19-19-19H79.4Z" style="fill: #fff;"/>
      </g>
      <g>
        <rect x="78.4" y="73.6" width="787" height="265" rx="20" ry="20" style="fill: #e9b177;"/>
        <path d="M842.4,340.1c-.8,0-1.5-.7-1.5-1.5s.7-1.5,1.5-1.5h3c.8,0,1.5,.7,1.5,1.5s-.6,1.5-1.5,1.5v0h-3.1Zm-11,0h-3c-.8,0-1.5-.7-1.5-1.5s.7-1.5,1.5-1.5h3c.8,0,1.5,.7,1.5,1.5s-.7,1.5-1.5,1.5Zm-14,0h-3c-.8,0-1.5-.7-1.5-1.5s.7-1.5,1.5-1.5h3c.8,0,1.5,.7,1.5,1.5s-.7,1.5-1.5,1.5Zm-14,0h-3c-.8,0-1.5-.7-1.5-1.5s.7-1.5,1.5-1.5h3c.8,0,1.5,.7,1.5,1.5s-.7,1.5-1.5,1.5Zm-14,0h-3c-.8,0-1.5-.7-1.5-1.5s.7-1.5,1.5-1.5h3c.8,0,1.5,.7,1.5,1.5s-.7,1.5-1.5,1.5Zm-14,0h-3c-.8,0-1.5-.7-1.5-1.5s.7-1.5,1.5-1.5h3c.8,0,1.5,.7,1.5,1.5s-.7,1.5-1.5,1.5Zm-14,0h-3c-.8,0-1.5-.7-1.5-1.5s.7-1.5,1.5-1.5h3c.8,0,1.5,.7,1.5,1.5s-.7,1.5-1.5,1.5Zm-14,0h-3c-.8,0-1.5-.7-1.5-1.5s.7-1.5,1.5-1.5h3c.8,0,1.5,.7,1.5,1.5s-.7,1.5-1.5,1.5Zm-14,0h-3c-.8,0-1.5-.7-1.5-1.5s.7-1.5,1.5-1.5h3c.8,0,1.5,.7,1.5,1.5s-.7,1.5-1.5,1.5Zm-14,0h-3c-.8,0-1.5-.7-1.5-1.5s.7-1.5,1.5-1.5h3c.8,0,1.5,.7,1.5,1.5s-.7,1.5-1.5,1.5Zm-14,0h-3c-.8,0-1.5-.7-1.5-1.5s.7-1.5,1.5-1.5h3c.8,0,1.5,.7,1.5,1.5s-.7,1.5-1.5,1.5Zm-14,0h-3c-.8,0-1.5-.7-1.5-1.5s.7-1.5,1.5-1.5h3c.8,0,1.5,.7,1.5,1.5s-.7,1.5-1.5,1.5Zm-14,0h-3c-.8,0-1.5-.7-1.5-1.5s.7-1.5,1.5-1.5h3c.8,0,1.5,.7,1.5,1.5s-.7,1.5-1.5,1.5Zm-14,0h-3c-.8,0-1.5-.7-1.5-1.5s.7-1.5,1.5-1.5h3c.8,0,1.5,.7,1.5,1.5s-.7,1.5-1.5,1.5Zm-14,0h-3c-.8,0-1.5-.7-1.5-1.5s.7-1.5,1.5-1.5h3c.8,0,1.5,.7,1.5,1.5s-.7,1.5-1.5,1.5Zm-14,0h-3c-.8,0-1.5-.7-1.5-1.5s.7-1.5,1.5-1.5h3c.8,0,1.5,.7,1.5,1.5s-.7,1.5-1.5,1.5Zm-14,0h-3c-.8,0-1.5-.7-1.5-1.5s.7-1.5,1.5-1.5h3c.8,0,1.5,.7,1.5,1.5s-.7,1.5-1.5,1.5Zm-14,0h-3c-.8,0-1.5-.7-1.5-1.5s.7-1.5,1.5-1.5h3c.8,0,1.5,.7,1.5,1.5s-.7,1.5-1.5,1.5Zm-14,0h-3c-.8,0-1.5-.7-1.5-1.5s.7-1.5,1.5-1.5h3c.8,0,1.5,.7,1.5,1.5s-.7,1.5-1.5,1.5Zm-14,0h-3c-.8,0-1.5-.7-1.5-1.5s.7-1.5,1.5-1.5h3c.8,0,1.5,.7,1.5,1.5s-.7,1.5-1.5,1.5Zm-14,0h-3c-.8,0-1.5-.7-1.5-1.5s.7-1.5,1.5-1.5h3c.8,0,1.5,.7,1.5,1.5s-.7,1.5-1.5,1.5Zm-14,0h-3c-.8,0-1.5-.7-1.5-1.5s.7-1.5,1.5-1.5h3c.8,0,1.5,.7,1.5,1.5s-.7,1.5-1.5,1.5Zm-14,0h-3c-.8,0-1.5-.7-1.5-1.5s.7-1.5,1.5-1.5h3c.8,0,1.5,.7,1.5,1.5s-.7,1.5-1.5,1.5Zm-14,0h-3c-.8,0-1.5-.7-1.5-1.5s.7-1.5,1.5-1.5h3c.8,0,1.5,.7,1.5,1.5s-.7,1.5-1.5,1.5Zm-14,0h-3c-.8,0-1.5-.7-1.5-1.5s.7-1.5,1.5-1.5h3c.8,0,1.5,.7,1.5,1.5s-.7,1.5-1.5,1.5Zm-14,0h-3c-.8,0-1.5-.7-1.5-1.5s.7-1.5,1.5-1.5h3c.8,0,1.5,.7,1.5,1.5s-.7,1.5-1.5,1.5Zm-14,0h-3c-.8,0-1.5-.7-1.5-1.5s.7-1.5,1.5-1.5h3c.8,0,1.5,.7,1.5,1.5s-.7,1.5-1.5,1.5Zm-14,0h-3c-.8,0-1.5-.7-1.5-1.5s.7-1.5,1.5-1.5h3c.8,0,1.5,.7,1.5,1.5s-.7,1.5-1.5,1.5Zm-14,0h-3c-.8,0-1.5-.7-1.5-1.5s.7-1.5,1.5-1.5h3c.8,0,1.5,.7,1.5,1.5s-.7,1.5-1.5,1.5Zm-14,0h-3c-.8,0-1.5-.7-1.5-1.5s.7-1.5,1.5-1.5h3c.8,0,1.5,.7,1.5,1.5s-.7,1.5-1.5,1.5Zm-14,0h-3c-.8,0-1.5-.7-1.5-1.5s.7-1.5,1.5-1.5h3c.8,0,1.5,.7,1.5,1.5s-.7,1.5-1.5,1.5Zm-14,0h-3c-.8,0-1.5-.7-1.5-1.5s.7-1.5,1.5-1.5h3c.8,0,1.5,.7,1.5,1.5s-.7,1.5-1.5,1.5Zm-14,0h-3c-.8,0-1.5-.7-1.5-1.5s.7-1.5,1.5-1.5h3c.8,0,1.5,.7,1.5,1.5s-.7,1.5-1.5,1.5Zm-14,0h-3c-.8,0-1.5-.7-1.5-1.5s.7-1.5,1.5-1.5h3c.8,0,1.5,.7,1.5,1.5s-.7,1.5-1.5,1.5Zm-14,0h-3c-.8,0-1.5-.7-1.5-1.5s.7-1.5,1.5-1.5h3c.8,0,1.5,.7,1.5,1.5s-.7,1.5-1.5,1.5Zm-14,0h-3c-.8,0-1.5-.7-1.5-1.5s.7-1.5,1.5-1.5h3c.8,0,1.5,.7,1.5,1.5s-.7,1.5-1.5,1.5Zm-14,0h-3c-.8,0-1.5-.7-1.5-1.5s.7-1.5,1.5-1.5h3c.8,0,1.5,.7,1.5,1.5s-.7,1.5-1.5,1.5Zm-14,0h-3c-.8,0-1.5-.7-1.5-1.5s.7-1.5,1.5-1.5h3c.8,0,1.5,.7,1.5,1.5s-.7,1.5-1.5,1.5Zm-14,0h-3c-.8,0-1.5-.7-1.5-1.5s.7-1.5,1.5-1.5h3c.8,0,1.5,.7,1.5,1.5s-.7,1.5-1.5,1.5Zm-14,0h-3c-.8,0-1.5-.7-1.5-1.5s.7-1.5,1.5-1.5h3c.8,0,1.5,.7,1.5,1.5s-.7,1.5-1.5,1.5Zm-14,0h-3c-.8,0-1.5-.7-1.5-1.5s.7-1.5,1.5-1.5h3c.8,0,1.5,.7,1.5,1.5s-.7,1.5-1.5,1.5Zm-14,0h-3c-.8,0-1.5-.7-1.5-1.5s.7-1.5,1.5-1.5h3c.8,0,1.5,.7,1.5,1.5s-.7,1.5-1.5,1.5Zm-14,0h-3c-.8,0-1.5-.7-1.5-1.5s.7-1.5,1.5-1.5h3c.8,0,1.5,.7,1.5,1.5s-.7,1.5-1.5,1.5Zm-14,0h-3c-.8,0-1.5-.7-1.5-1.5s.7-1.5,1.5-1.5h3c.8,0,1.5,.7,1.5,1.5s-.7,1.5-1.5,1.5Zm-14,0h-3c-.8,0-1.5-.7-1.5-1.5s.7-1.5,1.5-1.5h3c.8,0,1.5,.7,1.5,1.5s-.7,1.5-1.5,1.5Zm-14,0h-3c-.8,0-1.5-.7-1.5-1.5s.7-1.5,1.5-1.5h3c.8,0,1.5,.7,1.5,1.5s-.7,1.5-1.5,1.5Zm-14,0h-3c-.8,0-1.5-.7-1.5-1.5s.7-1.5,1.5-1.5h3c.8,0,1.5,.7,1.5,1.5s-.7,1.5-1.5,1.5Zm-14,0h-3c-.8,0-1.5-.7-1.5-1.5s.7-1.5,1.5-1.5h3c.8,0,1.5,.7,1.5,1.5s-.7,1.5-1.5,1.5Zm-14,0h-3c-.8,0-1.5-.7-1.5-1.5s.7-1.5,1.5-1.5h3c.8,0,1.5,.7,1.5,1.5s-.7,1.5-1.5,1.5Zm-14,0h-3c-.8,0-1.5-.7-1.5-1.5s.7-1.5,1.5-1.5h3c.8,0,1.5,.7,1.5,1.5s-.7,1.5-1.5,1.5Zm-14,0h-3c-.8,0-1.5-.7-1.5-1.5s.7-1.5,1.5-1.5h3c.8,0,1.5,.7,1.5,1.5s-.7,1.5-1.5,1.5Zm-14,0h-3c-.8,0-1.5-.7-1.5-1.5s.7-1.5,1.5-1.5h3c.8,0,1.5,.7,1.5,1.5s-.7,1.5-1.5,1.5Zm-14,0h-3c-.8,0-1.5-.7-1.5-1.5s.7-1.5,1.5-1.5h3c.8,0,1.5,.7,1.5,1.5s-.7,1.5-1.5,1.5Zm-14,0h-3c-.8,0-1.5-.7-1.5-1.5s.7-1.5,1.5-1.5h3c.8,0,1.5,.7,1.5,1.5s-.7,1.5-1.5,1.5Zm-13.8-1.6c-.2,0-.4,0-.6-.1-1-.4-1.9-.9-2.8-1.5-.7-.4-.9-1.4-.5-2.1,.4-.7,1.4-.9,2.1-.5,.8,.5,1.6,.9,2.5,1.3,.8,.3,1.1,1.2,.8,2-.2,.6-.8,.9-1.4,.9Zm765.4-1.4c-.5,0-1-.3-1.3-.7-.4-.7-.2-1.6,.5-2.1,.8-.5,1.5-1,2.2-1.6,.6-.5,1.6-.5,2.1,.2,.5,.6,.5,1.6-.2,2.1-.8,.7-1.7,1.3-2.6,1.9-.2,.2-.5,.2-.8,.2Zm-775.4-8c-.5,0-1.1-.3-1.3-.8-.5-1-.9-2-1.2-3-.3-.8,.2-1.6,1-1.9,.8-.3,1.6,.2,1.9,1,.3,.9,.6,1.7,1.1,2.6,.4,.7,0,1.6-.7,2-.2,.1-.4,.2-.7,.2Zm783.9-2.7c-.2,0-.3,0-.5,0-.8-.3-1.2-1.1-1-1.9,.3-.9,.5-1.8,.7-2.7,.1-.8,.9-1.4,1.7-1.2,.8,.1,1.4,.9,1.2,1.7-.2,1.1-.4,2.1-.8,3.1-.2,.6-.8,1-1.4,1Zm-786-10.9c-.8,0-1.5-.7-1.5-1.5v-3c0-.8,.7-1.5,1.5-1.5s1.5,.7,1.5,1.5v3c0,.8-.7,1.5-1.5,1.5Zm787-3c-.8,0-1.5-.7-1.5-1.5v-3c0-.8,.7-1.5,1.5-1.5s1.5,.7,1.5,1.5v3c0,.8-.7,1.5-1.5,1.5Zm-787-11c-.8,0-1.5-.7-1.5-1.5v-3c0-.8,.7-1.5,1.5-1.5s1.5,.7,1.5,1.5v3c0,.8-.7,1.5-1.5,1.5Zm787-3c-.8,0-1.5-.7-1.5-1.5v-3c0-.8,.7-1.5,1.5-1.5s1.5,.7,1.5,1.5v3c0,.8-.7,1.5-1.5,1.5Zm-787-11c-.8,0-1.5-.7-1.5-1.5v-3c0-.8,.7-1.5,1.5-1.5s1.5,.7,1.5,1.5v3c0,.8-.7,1.5-1.5,1.5Zm787-3c-.8,0-1.5-.7-1.5-1.5v-3c0-.8,.7-1.5,1.5-1.5s1.5,.7,1.5,1.5v3c0,.8-.7,1.5-1.5,1.5Zm-787-11c-.8,0-1.5-.7-1.5-1.5v-3c0-.8,.7-1.5,1.5-1.5s1.5,.7,1.5,1.5v3c0,.8-.7,1.5-1.5,1.5Zm787-3c-.8,0-1.5-.7-1.5-1.5v-3c0-.8,.7-1.5,1.5-1.5s1.5,.7,1.5,1.5v3c0,.8-.7,1.5-1.5,1.5Zm-787-11c-.8,0-1.5-.7-1.5-1.5v-3c0-.8,.7-1.5,1.5-1.5s1.5,.7,1.5,1.5v3c0,.8-.7,1.5-1.5,1.5Zm787-3c-.8,0-1.5-.7-1.5-1.5v-3c0-.8,.7-1.5,1.5-1.5s1.5,.7,1.5,1.5v3c0,.8-.7,1.5-1.5,1.5Zm-787-11c-.8,0-1.5-.7-1.5-1.5v-3c0-.8,.7-1.5,1.5-1.5s1.5,.7,1.5,1.5v3c0,.8-.7,1.5-1.5,1.5Zm787-3c-.8,0-1.5-.7-1.5-1.5v-3c0-.8,.7-1.5,1.5-1.5s1.5,.7,1.5,1.5v3c0,.8-.7,1.5-1.5,1.5Zm-787-11c-.8,0-1.5-.7-1.5-1.5v-3c0-.8,.7-1.5,1.5-1.5s1.5,.7,1.5,1.5v3c0,.8-.7,1.5-1.5,1.5Zm787-3c-.8,0-1.5-.7-1.5-1.5v-3c0-.8,.7-1.5,1.5-1.5s1.5,.7,1.5,1.5v3c0,.8-.7,1.5-1.5,1.5Zm-787-11c-.8,0-1.5-.7-1.5-1.5v-3c0-.8,.7-1.5,1.5-1.5s1.5,.7,1.5,1.5v3c0,.8-.7,1.5-1.5,1.5Zm787-3c-.8,0-1.5-.7-1.5-1.5v-3c0-.8,.7-1.5,1.5-1.5s1.5,.7,1.5,1.5v3c0,.8-.7,1.5-1.5,1.5Zm-787-11c-.8,0-1.5-.7-1.5-1.5v-3c0-.8,.7-1.5,1.5-1.5s1.5,.7,1.5,1.5v3c0,.8-.7,1.5-1.5,1.5Zm787-3c-.8,0-1.5-.7-1.5-1.5v-3c0-.8,.7-1.5,1.5-1.5s1.5,.7,1.5,1.5v3c0,.8-.7,1.5-1.5,1.5Zm-787-11c-.8,0-1.5-.7-1.5-1.5v-3c0-.8,.7-1.5,1.5-1.5s1.5,.7,1.5,1.5v3c0,.8-.7,1.5-1.5,1.5Zm787-3c-.8,0-1.5-.7-1.5-1.5v-3c0-.8,.7-1.5,1.5-1.5s1.5,.7,1.5,1.5v3c0,.8-.7,1.5-1.5,1.5Zm-787-11c-.8,0-1.5-.7-1.5-1.5v-3c0-.8,.7-1.5,1.5-1.5s1.5,.7,1.5,1.5v3c0,.8-.7,1.5-1.5,1.5Zm787-3c-.8,0-1.5-.7-1.5-1.5v-3c0-.8,.7-1.5,1.5-1.5s1.5,.7,1.5,1.5v3c0,.8-.7,1.5-1.5,1.5Zm-787-11c-.8,0-1.5-.7-1.5-1.5v-3c0-.8,.7-1.5,1.5-1.5s1.5,.7,1.5,1.5v3c0,.8-.7,1.5-1.5,1.5Zm787-3c-.8,0-1.5-.7-1.5-1.5v-3c0-.8,.7-1.5,1.5-1.5s1.5,.7,1.5,1.5v3c0,.8-.7,1.5-1.5,1.5Zm-787-11c-.8,0-1.5-.7-1.5-1.5v-3c0-.8,.7-1.5,1.5-1.5s1.5,.7,1.5,1.5v3c0,.8-.7,1.5-1.5,1.5Zm787-3c-.8,0-1.5-.7-1.5-1.5v-3c0-.8,.7-1.5,1.5-1.5s1.5,.7,1.5,1.5v3c0,.8-.7,1.5-1.5,1.5Zm-787-11c-.8,0-1.5-.7-1.5-1.5v-3c0-.8,.7-1.5,1.5-1.5s1.5,.7,1.5,1.5v3c0,.8-.7,1.5-1.5,1.5Zm787-3c-.8,0-1.5-.7-1.5-1.5v-3c0-.8,.7-1.5,1.5-1.5s1.5,.7,1.5,1.5v3c0,.8-.7,1.5-1.5,1.5ZM78.4,119.6c-.8,0-1.5-.7-1.5-1.5v-3c0-.8,.7-1.5,1.5-1.5s1.5,.7,1.5,1.5v3c0,.8-.7,1.5-1.5,1.5Zm787-3c-.8,0-1.5-.7-1.5-1.5v-3c0-.8,.7-1.5,1.5-1.5s1.5,.7,1.5,1.5v3c0,.8-.7,1.5-1.5,1.5ZM78.4,105.7c-.8,0-1.5-.7-1.5-1.5v-3c0-.8,.7-1.5,1.5-1.5s1.5,.7,1.5,1.5v3c0,.8-.7,1.5-1.5,1.5Zm787-3c-.8,0-1.5-.7-1.5-1.5v-3c0-.8,.7-1.5,1.5-1.5s1.5,.7,1.5,1.5v3c0,.8-.7,1.5-1.5,1.5ZM78.7,91.7c0,0-.2,0-.3,0-.8-.1-1.4-.9-1.2-1.7,.2-1.1,.4-2.1,.8-3.1,.3-.8,1.1-1.2,1.9-.9,.8,.3,1.2,1.1,.9,1.9-.3,.9-.5,1.8-.7,2.7-.1,.7-.8,1.2-1.5,1.2Zm785.7-2.9c-.6,0-1.2-.4-1.4-1-.3-.9-.6-1.7-1.1-2.6-.4-.7,0-1.6,.7-2,.7-.4,1.6,0,2,.7,.5,1,.9,2,1.2,3,.3,.8-.2,1.6-1,1.9-.2,0-.3,0-.5,0ZM85.6,79.8c-.4,0-.8-.2-1.1-.5-.5-.6-.5-1.6,.2-2.1,.8-.7,1.7-1.3,2.6-1.9,.7-.4,1.6-.2,2.1,.5,.4,.7,.2,1.6-.5,2.1-.8,.5-1.5,1-2.2,1.6-.3,.2-.6,.4-1,.4Zm770.4-1.7c-.3,0-.5,0-.8-.2-.8-.5-1.6-.9-2.5-1.3-.8-.3-1.1-1.2-.8-2,.3-.8,1.2-1.1,2-.8,1,.4,1.9,.9,2.9,1.5,.7,.4,.9,1.4,.5,2.1-.3,.5-.8,.7-1.3,.7Zm-13.4-3h-3c-.8,0-1.5-.7-1.5-1.5s.7-1.5,1.5-1.5h3c.8,0,1.5,.7,1.5,1.5s-.7,1.5-1.5,1.5Zm-14,0h-3c-.8,0-1.5-.7-1.5-1.5s.7-1.5,1.5-1.5h3c.8,0,1.5,.7,1.5,1.5s-.7,1.5-1.5,1.5Zm-14,0h-3c-.8,0-1.5-.7-1.5-1.5s.7-1.5,1.5-1.5h3c.8,0,1.5,.7,1.5,1.5s-.7,1.5-1.5,1.5Zm-14,0h-3c-.8,0-1.5-.7-1.5-1.5s.7-1.5,1.5-1.5h3c.8,0,1.5,.7,1.5,1.5s-.7,1.5-1.5,1.5Zm-14,0h-3c-.8,0-1.5-.7-1.5-1.5s.7-1.5,1.5-1.5h3c.8,0,1.5,.7,1.5,1.5s-.7,1.5-1.5,1.5Zm-14,0h-3c-.8,0-1.5-.7-1.5-1.5s.7-1.5,1.5-1.5h3c.8,0,1.5,.7,1.5,1.5s-.7,1.5-1.5,1.5Zm-14,0h-3c-.8,0-1.5-.7-1.5-1.5s.7-1.5,1.5-1.5h3c.8,0,1.5,.7,1.5,1.5s-.7,1.5-1.5,1.5Zm-14,0h-3c-.8,0-1.5-.7-1.5-1.5s.7-1.5,1.5-1.5h3c.8,0,1.5,.7,1.5,1.5s-.7,1.5-1.5,1.5Zm-14,0h-3c-.8,0-1.5-.7-1.5-1.5s.7-1.5,1.5-1.5h3c.8,0,1.5,.7,1.5,1.5s-.7,1.5-1.5,1.5Zm-14,0h-3c-.8,0-1.5-.7-1.5-1.5s.7-1.5,1.5-1.5h3c.8,0,1.5,.7,1.5,1.5s-.7,1.5-1.5,1.5Zm-14,0h-3c-.8,0-1.5-.7-1.5-1.5s.7-1.5,1.5-1.5h3c.8,0,1.5,.7,1.5,1.5s-.7,1.5-1.5,1.5Zm-14,0h-3c-.8,0-1.5-.7-1.5-1.5s.7-1.5,1.5-1.5h3c.8,0,1.5,.7,1.5,1.5s-.7,1.5-1.5,1.5Zm-14,0h-3c-.8,0-1.5-.7-1.5-1.5s.7-1.5,1.5-1.5h3c.8,0,1.5,.7,1.5,1.5s-.7,1.5-1.5,1.5Zm-14,0h-3c-.8,0-1.5-.7-1.5-1.5s.7-1.5,1.5-1.5h3c.8,0,1.5,.7,1.5,1.5s-.7,1.5-1.5,1.5Zm-14,0h-3c-.8,0-1.5-.7-1.5-1.5s.7-1.5,1.5-1.5h3c.8,0,1.5,.7,1.5,1.5s-.7,1.5-1.5,1.5Zm-14,0h-3c-.8,0-1.5-.7-1.5-1.5s.7-1.5,1.5-1.5h3c.8,0,1.5,.7,1.5,1.5s-.7,1.5-1.5,1.5Zm-14,0h-3c-.8,0-1.5-.7-1.5-1.5s.7-1.5,1.5-1.5h3c.8,0,1.5,.7,1.5,1.5s-.7,1.5-1.5,1.5Zm-14,0h-3c-.8,0-1.5-.7-1.5-1.5s.7-1.5,1.5-1.5h3c.8,0,1.5,.7,1.5,1.5s-.7,1.5-1.5,1.5Zm-14,0h-3c-.8,0-1.5-.7-1.5-1.5s.7-1.5,1.5-1.5h3c.8,0,1.5,.7,1.5,1.5s-.7,1.5-1.5,1.5Zm-14,0h-3c-.8,0-1.5-.7-1.5-1.5s.7-1.5,1.5-1.5h3c.8,0,1.5,.7,1.5,1.5s-.7,1.5-1.5,1.5Zm-14,0h-3c-.8,0-1.5-.7-1.5-1.5s.7-1.5,1.5-1.5h3c.8,0,1.5,.7,1.5,1.5s-.7,1.5-1.5,1.5Zm-14,0h-3c-.8,0-1.5-.7-1.5-1.5s.7-1.5,1.5-1.5h3c.8,0,1.5,.7,1.5,1.5s-.7,1.5-1.5,1.5Zm-14,0h-3c-.8,0-1.5-.7-1.5-1.5s.7-1.5,1.5-1.5h3c.8,0,1.5,.7,1.5,1.5s-.7,1.5-1.5,1.5Zm-14,0h-3c-.8,0-1.5-.7-1.5-1.5s.7-1.5,1.5-1.5h3c.8,0,1.5,.7,1.5,1.5s-.7,1.5-1.5,1.5Zm-14,0h-3c-.8,0-1.5-.7-1.5-1.5s.7-1.5,1.5-1.5h3c.8,0,1.5,.7,1.5,1.5s-.7,1.5-1.5,1.5Zm-14,0h-3c-.8,0-1.5-.7-1.5-1.5s.7-1.5,1.5-1.5h3c.8,0,1.5,.7,1.5,1.5s-.7,1.5-1.5,1.5Zm-14,0h-3c-.8,0-1.5-.7-1.5-1.5s.7-1.5,1.5-1.5h3c.8,0,1.5,.7,1.5,1.5s-.7,1.5-1.5,1.5Zm-14,0h-3c-.8,0-1.5-.7-1.5-1.5s.7-1.5,1.5-1.5h3c.8,0,1.5,.7,1.5,1.5s-.7,1.5-1.5,1.5Zm-14,0h-3c-.8,0-1.5-.7-1.5-1.5s.7-1.5,1.5-1.5h3c.8,0,1.5,.7,1.5,1.5s-.7,1.5-1.5,1.5Zm-14,0h-3c-.8,0-1.5-.7-1.5-1.5s.7-1.5,1.5-1.5h3c.8,0,1.5,.7,1.5,1.5s-.7,1.5-1.5,1.5Zm-14,0h-3c-.8,0-1.5-.7-1.5-1.5s.7-1.5,1.5-1.5h3c.8,0,1.5,.7,1.5,1.5s-.7,1.5-1.5,1.5Zm-14,0h-3c-.8,0-1.5-.7-1.5-1.5s.7-1.5,1.5-1.5h3c.8,0,1.5,.7,1.5,1.5s-.7,1.5-1.5,1.5Zm-14,0h-3c-.8,0-1.5-.7-1.5-1.5s.7-1.5,1.5-1.5h3c.8,0,1.5,.7,1.5,1.5s-.7,1.5-1.5,1.5Zm-14,0h-3c-.8,0-1.5-.7-1.5-1.5s.7-1.5,1.5-1.5h3c.8,0,1.5,.7,1.5,1.5s-.7,1.5-1.5,1.5Zm-14,0h-3c-.8,0-1.5-.7-1.5-1.5s.7-1.5,1.5-1.5h3c.8,0,1.5,.7,1.5,1.5s-.7,1.5-1.5,1.5Zm-14,0h-3c-.8,0-1.5-.7-1.5-1.5s.7-1.5,1.5-1.5h3c.8,0,1.5,.7,1.5,1.5s-.7,1.5-1.5,1.5Zm-14,0h-3c-.8,0-1.5-.7-1.5-1.5s.7-1.5,1.5-1.5h3c.8,0,1.5,.7,1.5,1.5s-.7,1.5-1.5,1.5Zm-14,0h-3c-.8,0-1.5-.7-1.5-1.5s.7-1.5,1.5-1.5h3c.8,0,1.5,.7,1.5,1.5s-.7,1.5-1.5,1.5Zm-14,0h-3c-.8,0-1.5-.7-1.5-1.5s.7-1.5,1.5-1.5h3c.8,0,1.5,.7,1.5,1.5s-.7,1.5-1.5,1.5Zm-14,0h-3c-.8,0-1.5-.7-1.5-1.5s.7-1.5,1.5-1.5h3c.8,0,1.5,.7,1.5,1.5s-.7,1.5-1.5,1.5Zm-14,0h-3c-.8,0-1.5-.7-1.5-1.5s.7-1.5,1.5-1.5h3c.8,0,1.5,.7,1.5,1.5s-.7,1.5-1.5,1.5Zm-14,0h-3c-.8,0-1.5-.7-1.5-1.5s.7-1.5,1.5-1.5h3c.8,0,1.5,.7,1.5,1.5s-.7,1.5-1.5,1.5Zm-14,0h-3c-.8,0-1.5-.7-1.5-1.5s.7-1.5,1.5-1.5h3c.8,0,1.5,.7,1.5,1.5s-.7,1.5-1.5,1.5Zm-14,0h-3c-.8,0-1.5-.7-1.5-1.5s.7-1.5,1.5-1.5h3c.8,0,1.5,.7,1.5,1.5s-.7,1.5-1.5,1.5Zm-14,0h-3c-.8,0-1.5-.7-1.5-1.5s.7-1.5,1.5-1.5h3c.8,0,1.5,.7,1.5,1.5s-.7,1.5-1.5,1.5Zm-14,0h-3c-.8,0-1.5-.7-1.5-1.5s.7-1.5,1.5-1.5h3c.8,0,1.5,.7,1.5,1.5s-.7,1.5-1.5,1.5Zm-14,0h-3c-.8,0-1.5-.7-1.5-1.5s.7-1.5,1.5-1.5h3c.8,0,1.5,.7,1.5,1.5s-.7,1.5-1.5,1.5Zm-14,0h-3c-.8,0-1.5-.7-1.5-1.5s.7-1.5,1.5-1.5h3c.8,0,1.5,.7,1.5,1.5s-.7,1.5-1.5,1.5Zm-14,0h-3c-.8,0-1.5-.7-1.5-1.5s.7-1.5,1.5-1.5h3c.8,0,1.5,.7,1.5,1.5s-.7,1.5-1.5,1.5Zm-14,0h-3c-.8,0-1.5-.7-1.5-1.5s.7-1.5,1.5-1.5h3c.8,0,1.5,.7,1.5,1.5s-.7,1.5-1.5,1.5Zm-14,0h-3c-.8,0-1.5-.7-1.5-1.5s.7-1.5,1.5-1.5h3c.8,0,1.5,.7,1.5,1.5s-.7,1.5-1.5,1.5Zm-14,0h-3c-.8,0-1.5-.7-1.5-1.5s.7-1.5,1.5-1.5h3c.8,0,1.5,.7,1.5,1.5s-.7,1.5-1.5,1.5Zm-14,0h-3c-.8,0-1.5-.7-1.5-1.5s.7-1.5,1.5-1.5h3c.8,0,1.5,.7,1.5,1.5s-.7,1.5-1.5,1.5Zm-14,0h-3c-.8,0-1.5-.7-1.5-1.5s.7-1.5,1.6-1.5h2.9c.8,0,1.5,.7,1.5,1.5s-.7,1.5-1.5,1.5Z" style="fill: #fff;"/>
      </g>
      <g>
        <g>
          <circle cx="679.4" cy="60.1" r="8.6" transform="translate(242.1 583.5) rotate(-55.2)" style="fill: #cb1515;"/>
          <path d="M679.4,69.7c-5.3,0-9.6-4.3-9.6-9.6s4.3-9.6,9.6-9.6,9.6,4.3,9.6,9.6-4.3,9.6-9.6,9.6Zm0-17.3c-4.2,0-7.6,3.4-7.6,7.6s3.4,7.6,7.6,7.6,7.6-3.4,7.6-7.6-3.4-7.6-7.6-7.6Z"/>
        </g>
        <g>
          <circle cx="732.2" cy="60.1" r="8.6" transform="translate(397.9 714.2) rotate(-67.6)" style="fill: #cb1515;"/>
          <path d="M732.2,69.7c-5.3,0-9.6-4.3-9.6-9.6s4.3-9.6,9.6-9.6,9.6,4.3,9.6,9.6-4.3,9.6-9.6,9.6Zm0-17.3c-4.2,0-7.6,3.4-7.6,7.6s3.4,7.6,7.6,7.6,7.6-3.4,7.6-7.6-3.4-7.6-7.6-7.6Z"/>
        </g>
        <g>
          <circle cx="758.7" cy="64.6" r="8.6" transform="translate(410.1 741.5) rotate(-67.6)" style="fill: #39b24a;"/>
          <path d="M758.7,74.2c-5.3,0-9.6-4.3-9.6-9.6s4.3-9.6,9.6-9.6,9.6,4.3,9.6,9.6-4.3,9.6-9.6,9.6Zm0-17.3c-4.2,0-7.6,3.4-7.6,7.6s3.4,7.6,7.6,7.6,7.6-3.4,7.6-7.6-3.4-7.6-7.6-7.6Z"/>
        </g>
        <g>
          <path d="M704.3,55.9c-4.8,0-8.6,3.9-8.6,8.6s3.9,8.6,8.6,8.6,8.6-3.9,8.6-8.6-3.9-8.6-8.6-8.6Z" style="fill: #39b24a;"/>
          <path d="M704.3,74.2c-5.3,0-9.6-4.3-9.6-9.6s4.3-9.6,9.6-9.6,9.6,4.3,9.6,9.6-4.3,9.6-9.6,9.6Zm0-17.3c-4.2,0-7.6,3.4-7.6,7.6s3.4,7.6,7.6,7.6,7.6-3.4,7.6-7.6-3.4-7.6-7.6-7.6Z"/>
        </g>
        <g>
          <path d="M785.4,51.4c-4.8,0-8.6,3.9-8.6,8.6s3.9,8.6,8.6,8.6,8.6-3.9,8.6-8.6-3.9-8.6-8.6-8.6Z" style="fill: #cb1515;"/>
          <path d="M785.4,69.7c-5.3,0-9.6-4.3-9.6-9.6s4.3-9.6,9.6-9.6,9.6,4.3,9.6,9.6-4.3,9.6-9.6,9.6Zm0-17.3c-4.2,0-7.6,3.4-7.6,7.6s3.4,7.6,7.6,7.6,7.6-3.4,7.6-7.6-3.4-7.6-7.6-7.6Z"/>
        </g>
        <g>
          <circle cx="879.3" cy="139.4" r="8.6" transform="translate(104 577) rotate(-38.4)" style="fill: #cb1515;"/>
          <path d="M879.3,149.1c-5.3,0-9.6-4.3-9.6-9.6s4.3-9.6,9.6-9.6,9.6,4.3,9.6,9.6-4.3,9.6-9.6,9.6Zm0-17.3c-4.2,0-7.6,3.4-7.6,7.6s3.4,7.6,7.6,7.6,7.6-3.4,7.6-7.6-3.4-7.6-7.6-7.6Z"/>
        </g>
        <g>
          <circle cx="874.8" cy="165.9" r="8.6" transform="translate(86.7 580.4) rotate(-38.5)" style="fill: #39b24a;"/>
          <path d="M874.8,175.6c-5.3,0-9.6-4.3-9.6-9.6s4.3-9.6,9.6-9.6,9.6,4.3,9.6,9.6-4.3,9.6-9.6,9.6Zm0-17.3c-4.2,0-7.6,3.4-7.6,7.6s3.4,7.6,7.6,7.6,7.6-3.4,7.6-7.6-3.4-7.6-7.6-7.6Z"/>
        </g>
        <g>
          <circle cx="879.3" cy="192.7" r="8.6" transform="translate(-20.1 230.2) rotate(-14.8)" style="fill: #cb1515;"/>
          <path d="M879.3,202.4c-5.3,0-9.6-4.3-9.6-9.6s4.3-9.6,9.6-9.6,9.6,4.3,9.6,9.6-4.3,9.6-9.6,9.6Zm0-17.3c-4.2,0-7.6,3.4-7.6,7.6s3.4,7.6,7.6,7.6,7.6-3.4,7.6-7.6-3.4-7.6-7.6-7.6Z"/>
        </g>
        <g>
          <circle cx="879.3" cy="245.4" r="8.6" transform="translate(38.1 600) rotate(-38.4)" style="fill: #cb1515;"/>
          <path d="M879.3,255.1c-5.3,0-9.6-4.3-9.6-9.6s4.3-9.6,9.6-9.6,9.6,4.3,9.6,9.6-4.3,9.6-9.6,9.6Zm0-17.3c-4.2,0-7.6,3.4-7.6,7.6s3.4,7.6,7.6,7.6,7.6-3.4,7.6-7.6-3.4-7.6-7.6-7.6Z"/>
        </g>
        <g>
          <circle cx="874.8" cy="271.9" r="8.6" transform="translate(20.8 603.4) rotate(-38.5)" style="fill: #39b24a;"/>
          <path d="M874.8,281.6c-5.3,0-9.6-4.3-9.6-9.6s4.3-9.6,9.6-9.6,9.6,4.3,9.6,9.6-4.3,9.6-9.6,9.6Zm0-17.3c-4.2,0-7.6,3.4-7.6,7.6s3.4,7.6,7.6,7.6,7.6-3.4,7.6-7.6-3.4-7.6-7.6-7.6Z"/>
        </g>
        <g>
          <circle cx="874.8" cy="217.6" r="8.6" style="fill: #39b24a;"/>
          <path d="M874.8,227.2c-5.3,0-9.6-4.3-9.6-9.6s4.3-9.6,9.6-9.6,9.6,4.3,9.6,9.6-4.3,9.6-9.6,9.6Zm0-17.3c-4.2,0-7.6,3.4-7.6,7.6s3.4,7.6,7.6,7.6,7.6-3.4,7.6-7.6-3.4-7.6-7.6-7.6Z"/>
        </g>
      </g>
      <g>
        <path d="M926.7,51.8c0-10.7-6.8-15.2-15.4-15.7-8.6-.4-17.2,3.2-25.6,1.9-4.5-.7-8.6-2.8-13.1-3.6-9.7-1.7-19.5,2.8-29.5,2.8-15.6,0-30.4-10.9-45.5-7.6-6.1,1.3-11.4,4.8-17.5,5.8-16.6,2.8-33.5-13-49-6.9-4.4,1.7-7.9,5-12.5,6.2-3.8,1-7.9,.3-11.8-.4-16-3-33.9-7-47.5,1.1-9.8,5.8-14.7,16.8-15.2,27.4-.5,9.8,2.2,19.5,5.2,29,.5,1.5,1.8,2.4,3.1,2,4.6-1.4,6.6-7.6,7.1-12.5,.5-4.6,2.6-10.4,6.8-12,1.5-.6,3.1,.7,3.3,2.6,1,8.9,3.8,17.7,8.4,25.7,1.2,2,3.8,1.7,4.6-.6l5.8-16.2c.9-2.4,3.7-2.5,4.7-.3,5.6,12.3,14-4.2,15.9,8.9,.3,1.8,1.8,3,3.3,2.4,2.4-1,4.4-4.5,4.8-7.4,2.4-15.2,.3-1,2.7-16.2,.3-1.7,1.7-2.9,3.2-2.4,3.4,1,5.6,5.3,6,8.8,.4,3.3,.6,7,2.3,9.7,1.1,1.7,3.4,1.6,4.3-.3,1.4-2.7,2.3-5.5,2.7-8.5,.3-1.9,2-3,3.5-2.2,5.6,2.7,5.6,15.7,14.8,16.1,2.5,.1,4.8-.8,6.7-2.4,1.1-.9,1.9-1.9,2.6-3,1.4-2.2,1.8-3.1,4.7,1.3,4.4,6.7,6.7-25.3,8.7-17.1,.9,3.7,6.6,4.3,8.4,.8,3.2-6.2-2.8,26.6,1.3,21.7,2.3-2.7,4.2-3.7,5.2-.6,1.5,4.7,2.3,9.9,7.1,11.3,5.7,1.8,9.8-3.7,11.6-9.4,.8-2.3,3.4-2.8,4.6-.8,.9,1.5,1.5,3.2,2.3,4.7,1.7,3.3,6.5,6.3,9.2,3,.7-.9,1-2,1-3.1,0-8.2,3.5-17.4,12.6-20.5,4.5-1.5,9.7-.8,13.1,2.3,4.7,4.3,2.8,9.7,2.9,14.9,0,5.1,3.8,11.3,10.9,8,3.4-1.6,5-5.1,4.4-8.5-.3-1.6,0-3.7,.5-5.8,1.3-4.2,8.1-3.6,8.4,.7,0,0,0,.1,0,.2,.7,7.8,10.1,9,12.4,1.7,.8-2.4,1.4-4.7,1.9-7.2,1.3-5.9,10.3-6.9,13.1-1.4,1.1,2.2,2.7,6.1,4.7,16.6,.8,4.2,7,1.6,7.2-2.7,0-.3,0-.6,0-.9,0-22.9,4.3-18.9,4.4-41.8" style="fill: #fff;"/>
        <path d="M928.2,51.8c0-4.1-1-8.2-3.6-11.4-2.3-2.8-5.6-4.5-9.1-5.2-10.7-2.3-21.4,3.6-32.1,.8-2.7-.7-5.3-1.7-8-2.5-2.7-.7-5.6-1.1-8.4-1-5.6,.1-11.1,1.6-16.6,2.5-5.5,.9-10.8,.8-16.2-.4-5.1-1.1-10-2.8-14.9-4.3-4.7-1.4-9.6-2.6-14.6-2.8-5.3-.2-10.2,1.2-15.1,3.2-4.8,2-9.5,3.7-14.8,3.5-4.6-.2-9.1-1.5-13.4-2.9-8.5-2.8-17.4-6.8-26.5-5.4-5,.8-8.8,3.7-13.1,5.9-5.4,2.7-10.9,1.6-16.6,.6-10.2-1.9-20.6-4.1-31-3.1-9.8,.9-18.9,5.1-24.7,13.2-5.7,7.9-7.5,17.9-6.6,27.5,.6,6,2,11.8,3.6,17.5,.7,2.2,1,5.5,3,7,1.7,1.3,3.8,.7,5.5-.4,3.5-2.4,5-6.8,5.7-10.8,.7-4.1,1.1-8.9,4.5-11.7,.6-.5,1.5-1.2,2.3-.8,.9,.6,.8,2.7,.9,3.7,.4,2.7,1,5.4,1.7,8.1,1.5,5.4,3.6,10.7,6.4,15.5,2,3.4,6.2,2.7,7.5-.8,.7-1.9,1.4-3.9,2.1-5.9,1-2.7,1.9-5.4,2.9-8.1,.2-.6,.4-1.3,.7-2,.2-.3,.3-.7,.7-.8,1-.3,1.3,.9,1.6,1.5,1.4,2.6,3.6,4.9,6.7,4.9,2.1,0,4.3-1.2,6.1-1.3,.7,0,1,0,1.5,.7,1,1.5,.7,3.5,1.6,5.1,1,1.9,3.2,2.7,5.2,1.8,1.9-.9,3.4-2.8,4.3-4.7,1.6-3.3,1.7-7.2,2.3-10.8,.1-.5,.2-1.1,.3-1.6,.2-1.3,.4-2.5,.6-3.8,.2-1.5,.1-5.8,2.6-4.6,4.4,2.2,4.2,8.1,4.9,12.2,.4,2.1,1,4.8,2.6,6.3,1.4,1.4,3.7,1.4,5.2,.1,1.7-1.5,2.6-4.6,3.2-6.7,.3-1.2,.5-5.8,2.7-4.4,2.2,1.5,3.3,4.6,4.4,6.9,1.4,2.8,3,5.8,5.7,7.6,3.5,2.3,8.3,1.9,11.7-.5,1.8-1.3,3.2-3,4.4-4.8,0,0,.3-.4,.3-.4,0-.1-.5,.1-.5,0,0,0,.6,.6,.6,.7,.4,.5,.8,1.1,1.2,1.7,1,1.5,2.7,2.3,4.3,.9,1.3-1.2,1.8-3.1,2.3-4.7,1.3-4.3,1.9-8.7,3.1-13,0-.3,.2-.6,.3-1-.1,.3,.2-.4,.2-.4,0,0-.3,.3-.3,.3-.6,.3-1,0-1.5-.2-.7-.3,.1-.2,0,0,0,0,0-.1,0,.2,.9,3.3,4.1,5.3,7.5,4.4,1.7-.4,3-1.6,3.8-3,.2-.5,.1-.1-.1,0-.8,.4-1.3-.1-1.8-.4-.5-.3,.1-.2,0,0,0,0,0-.2,0,0,0,.1,0,.3,0,.4,0,.4,0,.7,0,1.1,0,1,0,2-.2,3-.4,4.7-1,9.5-1,14.3,0,1.3-.1,3.4,1,4.4,.7,.6,1.6,.7,2.4,.2,1-.6,1.9-2.7,3.1-2.7-.2,0-.2-.1,0,0,.2,.2,.2,.5,.3,.7,.2,.5,.3,1,.5,1.5,.3,1.1,.6,2.2,1,3.3,.7,1.9,1.5,3.7,2.8,5.2,2.9,3.1,7.8,3.6,11.2,1.1,1.8-1.2,3.1-3,4.2-4.8,.5-1,1-2,1.4-3,.3-.7,.5-2.2,1.4-2.3,.9-.1,1.3,1.2,1.6,1.8,.6,1.2,1.1,2.6,1.8,3.8,1,1.8,2.7,3.3,4.6,4.2,1.8,.8,3.9,1,5.7-.2,2.1-1.4,2.6-3.6,2.6-5.9,.1-4,1.1-8,3.1-11.5,2.2-3.7,5.9-6.5,10.2-7.3,4.6-.9,10.3,.9,12,5.6,1.4,4-.2,8.4,.4,12.5,.6,3.4,2.6,6.9,6,8.1,4,1.4,9-.9,11-4.5,1.1-1.9,1.3-4.1,1-6.2-.2-1.8-.3-5.1,1.3-6.4,1-.8,2.6-.8,3.6,0,1.3,.9,1,2.6,1.5,4,1,3.2,3.7,5.6,7.1,5.8,3.3,.2,6.2-2,7.5-5,1.1-2.6,1.6-5.4,2.3-8.2,.4-1.5,1.3-2.7,2.8-3.4,2.9-1.3,6.3-.3,7.7,2.6,1.1,2.1,1.8,4.5,2.4,6.8,.6,2.3,1.1,4.7,1.6,7.1,.4,1.9,.6,3.9,2.4,4.9,3.1,1.6,6.9-1.3,7.8-4.2,.7-2.3,.3-5,.4-7.4,0-2.2,.2-4.4,.4-6.5,.3-3,.9-5.9,1.6-8.8,1.6-7.2,2.3-14.3,2.3-21.7,0-1.9-3-1.9-3,0,0,4.5-.1,9-.8,13.5-.4,2.7-1,5.4-1.6,8.1-.7,3-1.2,6-1.5,9.1-.2,2.2-.3,4.4-.4,6.6,0,1.3,0,2.5,0,3.8,0,1.1,0,2.1-.4,3-.5,.9-1.9,2.3-3.1,2-.6-.2-.6-.7-.8-1.3-.3-1.4-.6-2.8-.9-4.2-.7-3.3-1.5-6.7-2.7-9.8-1-2.5-2.3-4.9-4.8-6.1-3-1.4-6.7-1.1-9.4,.9-3.7,2.8-3.3,8.1-5,12.1-1.1,2.6-3.9,4.1-6.5,2.6-1.3-.7-2.1-2.1-2.5-3.5-.4-1.7-.4-3.2-1.7-4.5-2.2-2.2-6.2-2.3-8.5,0-1.6,1.5-1.9,4-2.1,6-.2,2.3,.7,4.4-.4,6.6-1.6,3.4-6.8,5.2-9.6,2.2-2.6-2.8-2.2-6.7-2-10.2,.3-4.6-.4-9-4.2-12.1-7.4-5.9-18-2.4-23.2,4.7-2.3,3.2-3.6,7.1-4.2,11.1-.1,1-.2,1.9-.3,2.9,0,1.1,0,2.3-.7,3.2-1.4,1.7-3.8,.5-5.1-.8-2.6-2.4-3.3-9.9-8.2-8.7-2.1,.5-2.7,2.4-3.4,4.2-.8,2.1-1.9,4.1-3.6,5.6-3.2,3-7.6,1.8-9.5-1.9-.9-1.9-1.4-3.9-2-5.9-.5-1.7-1.3-3.9-3.5-4-2,0-3.4,1.7-4.6,3-.3,.3,0,0,0,0-.2,0,.2,0,.4,0,.3,0,.7,.2,.8,.3,.8,.7,0,.1,.1,.2,0,0,0,.2,0,0,0-.2-.2-.7-.1-.6,0,0,0-.7,0-1,0-1,0-2,0-2.9,.2-4.7,.8-9.4,1.1-14.1,0-1.2,.3-3-.3-4.1-.5-.8-1.5-1.1-2.3-.6-.8,.5-1,1.5-1.6,2.1-1.1,1-2.9,1-4,.2-1-.7-.9-1.7-1.4-2.7-.8-1.6-2.7-1.4-3.5,0-.8,1.5-1.1,3.3-1.5,4.9-.5,2.3-1,4.5-1.5,6.8-.5,1.8-1,4-1.7,5.5-.2,.3-.3,.6-.5,.9,.2-.3,0,0,0,0,0,0,0,0,0,0,.1,0,.2,0,.4,0,.2,0,.1,0,.2,0,0,0,.2,.2,0,0-.2-.3,.1,.2-.4-.6-.8-1.2-1.9-3-3.5-3.3-1.5-.3-2.4,.9-3.1,2-2.3,3.5-6.5,6.6-10.9,4.6-2.7-1.2-4.2-4.2-5.4-6.8-1.3-2.6-2.4-5.5-4.6-7.5-1.2-1.1-2.7-1.9-4.4-1.4-2.4,.7-2.8,3-3.3,5.1-.3,1.3-.7,2.6-1.1,3.8-.3,.8-.8,3-1.8,3.3-1.8,.6-2.5-4.1-2.7-5.1-.4-2.3-.4-4.7-1.1-6.9-.6-2-1.7-4-3.1-5.5-1.3-1.4-3.4-2.7-5.4-2.2-2.4,.6-3,2.9-3.3,5.1-.5,3.1-1.1,6.2-1.6,9.3-.4,2.2-.5,4.4-1.1,6.5-.5,1.6-1.7,4.7-3.6,5.2-1.7,.4-1.8-3.3-2.2-4.4-.4-1.2-1.1-2.3-2.2-3-3.9-2.2-8.3,3.3-11.6-.8-1.2-1.5-1.5-3.5-3.3-4.4-1.6-.8-3.6-.4-4.7,1-1.1,1.3-1.6,3.6-2.2,5.2-1,2.7-2,5.5-2.9,8.2l-1.2,3.2c-.2,.5-.3,1-.6,1.4-1.4,2-3.1-2.8-3.6-3.7-1.2-2.5-2.3-5-3.2-7.6-.9-2.6-1.6-5.3-2.2-8-.3-1.2-.5-2.5-.7-3.7-.2-1.3-.2-2.8-.8-4-2.4-4.7-7.5-1-9.4,1.9-1.2,1.8-2,3.9-2.5,6-.5,2-.6,4-1,6-.5,2-1.1,4.1-2.3,5.8-.7,1-3.2,3.8-4.3,2.1-.7-1.1-.9-2.8-1.3-4-.4-1.5-.9-3-1.3-4.4-.8-2.9-1.4-5.8-2-8.7-1.7-9.7-1.1-20,4.2-28.6,5.2-8.5,14.2-13,24-13.8,10.2-.9,20.5,1.3,30.5,3.2,5.4,1,10.9,2.1,16.2,0,4.6-1.9,8.4-5.3,13.3-6.3,8.7-1.9,17.6,2.3,25.7,5,4.3,1.5,8.8,2.7,13.4,3.1,5,.4,9.7-.7,14.3-2.6,4.8-1.9,9.5-4,14.8-4.1,4.9-.1,9.7,1,14.4,2.3,9.8,2.8,19.4,6.7,29.8,5.6,5.7-.6,11.1-2.1,16.8-2.7,2.8-.3,5.7-.4,8.4,.1,2.7,.5,5.2,1.4,7.8,2.2,2.6,.8,5.3,1.5,8.1,1.7,2.8,.2,5.6-.1,8.3-.5,5.4-.8,10.8-2.1,16.3-1.5,3.3,.3,6.6,1.4,9,3.8,2.8,2.7,3.7,6.5,3.7,10.3,0,1.9,3,1.9,3,0h0Z" style="fill: #241716;"/>
      </g>
      <g>
        <g>
          <path d="M844.9,101.1c.2-4.3,4.2-7.6,8.4-8.7,4.2-1.1,8.6-.5,12.9-.4,7.4,0,14.9-1.5,21.6-4.7-5.5-6.2-8.5-14.5-8.2-22.8,7.2-.2,14.4-.4,21.6-.6-7-5.6-11.7-14.1-12.6-23,7.2,.4,14.3,1.7,21.1,3.9-10.2-12-16.1-27.6-16.5-43.3h0c-12.3,9.9-27.9,15.5-43.7,15.6,6.1,3.8,11.8,8.3,16.7,13.5-7.4,5.1-16.9,7.1-25.7,5.4,4.5,5.6,9,11.2,13.6,16.9-6.1,5.6-14.4,8.7-22.7,8.5,2,7.2,5.6,13.9,10.4,19.5,2.8,3.3,6.1,6.2,8.1,10.1,1.9,3.9,2,9.1-1.2,12.1" style="fill: #008f45;"/>
          <path d="M846.4,101.1c.2-3.3,3.1-5.7,6-6.8,3.8-1.4,8.1-1,12-.8,8.4,.3,16.6-1.3,24.2-4.8,.9-.4,.9-1.7,.3-2.4-5.2-6-8-13.8-7.8-21.7l-1.5,1.5c7.2-.2,14.4-.4,21.6-.6,1.2,0,2.1-1.7,1.1-2.6-6.7-5.4-11.2-13.4-12.1-22l-1.5,1.5c7.1,.4,14,1.7,20.7,3.9,1.5,.5,2.4-1.4,1.5-2.5-9.9-11.8-15.6-26.9-16.1-42.3-.8,.4-1.5,.9-2.3,1.3,0,0,0,0,0,0l-.3-2.4c-12,9.6-27.2,15-42.6,15.1-1.5,0-2,2-.8,2.8,6,3.7,11.5,8.2,16.4,13.3,.1-.8,.2-1.6,.3-2.4-7.1,4.9-16,6.8-24.5,5.2-1.5-.3-2.4,1.3-1.5,2.5,4.5,5.6,9,11.2,13.6,16.9v-2.1c-5.9,5.3-13.7,8.2-21.6,8.1-1,0-1.7,1-1.4,1.9,2.3,8,6.4,15.3,11.9,21.4,2.6,2.9,5.7,5.8,7.1,9.5,1.1,3.1,1.2,6.9-1.3,9.3-1.4,1.3,.7,3.5,2.1,2.1,2.7-2.6,3.4-6.5,2.7-10.1-.8-4.1-3.5-7.4-6.2-10.4-3-3.3-5.9-6.5-8.2-10.4-2.3-3.8-4.1-7.9-5.3-12.2-.5,.6-1,1.3-1.4,1.9,8.7,.1,17.2-3.1,23.7-8.9,.6-.6,.5-1.5,0-2.1-4.5-5.6-9-11.2-13.6-16.9l-1.5,2.5c9.3,1.7,19-.2,26.8-5.5,.8-.5,1-1.6,.3-2.4-5.1-5.3-10.8-9.9-17-13.8-.3,.9-.5,1.9-.8,2.8,16.2-.1,32.1-5.8,44.7-16,.7-.6,.5-2-.3-2.4,0,0,0,0,0,0-1-.5-2.3,0-2.3,1.3,.5,16.2,6.5,32,16.9,44.4,.5-.8,1-1.7,1.5-2.5-7-2.3-14.2-3.6-21.5-4-.7,0-1.6,.7-1.5,1.5,1,9.4,5.7,18.1,13,24.1,.4-.9,.7-1.7,1.1-2.6-7.2,.2-14.4,.4-21.6,.6-.8,0-1.5,.7-1.5,1.5-.2,8.7,2.9,17.3,8.7,23.8l.3-2.4c-4.2,1.9-8.6,3.2-13.1,3.9-4.5,.7-8.9,.5-13.3,.4-4,0-8.2,.2-11.7,2.3-3.1,1.9-5.3,4.8-5.5,8.5-.1,1.9,2.9,1.9,3,0h0Z"/>
        </g>
        <path d="M859,77.8c4-11.9,9.4-23.3,15.9-34,1-1.7-1.6-3.2-2.6-1.5-6.7,10.9-12.1,22.6-16.2,34.7-.6,1.8,2.3,2.6,2.9,.8h0Z"/>
        <g>
          <path d="M828.2,104.6c4-1.8,8.7,.4,11.5,3.7,2.8,3.3,4.2,7.5,6.1,11.4,3.2,6.7,8,12.6,13.8,17.3,3.1-7.7,9.2-14,16.8-17.5,3.4,6.4,6.8,12.7,10.1,19.1,1.9-8.8,7.5-16.7,15.1-21.5,2.8,6.6,4.8,13.6,5.8,20.7,6.3-14.4,17.6-26.6,31.6-34h0c-14.3-6.5-26.3-18.1-33.3-32.2-.7,7.2-2.3,14.2-4.7,21-7.8-4.4-13.8-12-16.2-20.7-3,6.5-6.1,13.1-9.1,19.6-7.7-3-14.2-9.1-17.7-16.6-5.5,4.9-10,11.1-12.8,18-1.7,4-2.9,8.3-5.5,11.7-2.6,3.4-7.3,5.8-11.3,4.3" style="fill: #008f45;"/>
          <path d="M828.6,106.1c3.4-1.4,7.1,.2,9.6,2.8,2.8,2.9,4.2,6.9,5.9,10.5,3.3,7.3,8.3,13.7,14.5,18.7,.9,.8,2.1,.4,2.5-.7,3-7.3,8.9-13.3,16.1-16.6-.7-.2-1.4-.4-2.1-.5,3.4,6.4,6.8,12.7,10.1,19.1,.6,1.1,2.5,.9,2.7-.4,1.9-8.4,7.1-15.9,14.4-20.6l-2.1-.5c2.8,6.5,4.6,13.4,5.7,20.3,.2,1.2,2.2,1.5,2.7,.4,6.3-14.3,17.2-26.1,31-33.4-.8-.4-1.5-.9-2.3-1.3,0,0,0,0,0,0,.8-.4,1.5-.9,2.3-1.3-14.1-6.6-25.8-17.8-32.7-31.7-.7-1.5-2.7-.6-2.8,.8-.7,7-2.3,13.9-4.7,20.6l2.2-.9c-7.5-4.3-13.2-11.4-15.5-19.8-.3-1.2-2.2-1.6-2.7-.4-3,6.5-6.1,13.1-9.1,19.6,.6-.2,1.1-.5,1.7-.7-7.4-2.9-13.4-8.7-16.8-15.9-.4-.9-1.7-.9-2.4-.3-6,5.4-10.6,12.1-13.6,19.6-1.5,3.6-2.6,7.6-5.2,10.7-2.3,2.7-5.9,4.6-9.4,3.3-1.8-.7-2.6,2.2-.8,2.9,3.8,1.3,7.7,0,10.7-2.5,3.2-2.7,4.9-6.6,6.4-10.4,1.6-4,3.2-7.9,5.6-11.5,2.4-3.7,5.2-7,8.5-9.9-.8-.1-1.6-.2-2.4-.3,3.8,7.9,10.5,14,18.6,17.3,.6,.2,1.4-.1,1.7-.7,3-6.5,6.1-13.1,9.1-19.6-.9-.1-1.8-.2-2.7-.4,2.5,9.1,8.7,16.9,16.9,21.6,.9,.5,1.9,0,2.2-.9,2.5-6.9,4.1-14.1,4.8-21.4-.9,.3-1.9,.5-2.8,.8,7.2,14.3,19.3,26.1,33.8,32.8,1,.5,2.3,0,2.3-1.3,0,0,0,0,0,0,0-1.2-1.2-1.8-2.3-1.3-14.2,7.5-25.6,19.8-32.1,34.5,.9,.1,1.8,.2,2.7,.4-1.1-7.3-3.1-14.3-6-21.1-.3-.7-1.4-.9-2.1-.5-7.9,5.1-13.7,13.2-15.8,22.4,.9-.1,1.8-.2,2.7-.4-3.4-6.4-6.8-12.7-10.1-19.1-.4-.8-1.3-.9-2.1-.5-7.9,3.7-14.1,10.3-17.5,18.4,.8-.2,1.7-.4,2.5-.7-3.3-2.7-6.3-5.8-8.9-9.2-2.6-3.5-4.5-7.3-6.2-11.2-1.7-3.8-3.6-7.7-7-10.3-3-2.3-7.1-3.5-10.8-2-.8,.3-1.3,1-1,1.8,.2,.7,1.1,1.4,1.8,1h0Z"/>
        </g>
        <path d="M857.2,107c12.6-1.7,25.3-1.9,37.9-.8,1.9,.2,1.9-2.8,0-3-12.6-1.1-25.4-.8-37.9,.8-.8,.1-1.5,.6-1.5,1.5,0,.7,.7,1.6,1.5,1.5h0Z"/>
        <g>
          <path d="M834,103.9c-3.5-2.5-4.1-7.7-2.7-11.8,1.4-4.1,4.3-7.5,6.7-11.1,4.1-6.2,6.8-13.3,7.8-20.7-8.2,1.2-16.8-.8-23.6-5.5,3.8-6.2,7.5-12.3,11.3-18.5-8.5,2.8-18.2,2.1-26.2-2,4.2-5.8,9.2-11.1,14.8-15.6-15.6,2-31.9-1.5-45.3-9.8h0c1.6,15.6-2.2,31.8-10.8,45.1,6.5-3.1,13.4-5.3,20.5-6.6,.2,9-3.3,18-9.5,24.5,7.2-.7,14.4-1.5,21.5-2.2,1.3,8.2-.6,16.8-5.2,23.6,7.1,2.2,14.7,2.9,22,1.9,4.3-.6,8.6-1.7,12.9-1.2,4.3,.5,8.8,3.3,9.5,7.5" style="fill: #008f45;"/>
          <path d="M834.8,102.6c-2.6-2-3.1-5.8-2.4-8.8,.9-3.8,3.4-7,5.6-10.2,4.8-6.9,8.1-14.6,9.3-22.9,.2-1.2-.6-2-1.8-1.8-7.8,1.1-15.9-.9-22.4-5.3,.2,.7,.4,1.4,.5,2.1,3.8-6.2,7.5-12.3,11.3-18.5,.7-1.1-.4-2.6-1.7-2.2-8.2,2.7-17.3,2.1-25-1.8l.5,2.1c4.2-5.7,9.1-10.8,14.6-15.3,1-.8,.2-2.7-1.1-2.6-15.5,1.9-31.3-1.5-44.6-9.6v2.6s0,0,0,0c-.8-.4-1.5-.9-2.3-1.3,1.6,15.5-2.2,31.2-10.6,44.3-.9,1.4,.8,2.6,2.1,2.1,6.4-3,13.1-5.2,20.1-6.5-.6-.5-1.3-1-1.9-1.4,.2,8.7-3.1,17.1-9.1,23.4-.8,.9-.3,2.7,1.1,2.6,7.2-.7,14.4-1.5,21.5-2.2-.5-.4-1-.7-1.4-1.1,1.2,7.8-.7,15.9-5.1,22.5-.6,.8,0,1.9,.9,2.2,8.1,2.5,16.6,2.9,25,1.5,4-.7,8.2-1.6,12.1-.4,2.9,.9,5.6,2.9,6.2,6,.4,1.9,3.3,1.1,2.9-.8-.6-3.3-3.2-5.9-6.2-7.3-3.8-1.8-8-1.6-12.1-1-4.6,.7-9,1.5-13.7,1.4-4.6-.1-9.1-.9-13.5-2.3l.9,2.2c4.9-7.3,6.7-16.2,5.4-24.8,0-.6-.9-1.2-1.4-1.1-7.2,.7-14.4,1.5-21.5,2.2,.4,.9,.7,1.7,1.1,2.6,6.5-6.8,10.1-16.1,9.9-25.5,0-1-.9-1.6-1.9-1.4-7.2,1.4-14.2,3.7-20.8,6.8,.7,.7,1.4,1.4,2.1,2.1,8.6-13.5,12.6-29.9,11-45.9-.1-1.1-1.2-2-2.3-1.3,0,0,0,0,0,0-1,.6-1,2,0,2.6,13.7,8.4,30.1,11.9,46.1,10-.4-.9-.7-1.7-1.1-2.6-5.7,4.6-10.7,10-15.1,15.9-.5,.6-.1,1.7,.5,2.1,8.4,4.3,18.3,5.1,27.3,2.1-.6-.7-1.1-1.5-1.7-2.2-3.8,6.2-7.5,12.3-11.3,18.5-.4,.7-.1,1.6,.5,2.1,7.2,5,16.1,6.9,24.7,5.6-.6-.6-1.2-1.2-1.8-1.8-.7,4.5-1.9,8.9-3.7,13-1.9,4.2-4.4,7.8-7,11.6-2.3,3.3-4.3,7-4.6,11.1-.2,3.7,1.1,7.3,4.1,9.5,1.6,1.1,3.1-1.5,1.5-2.6h0Z"/>
        </g>
        <path d="M826.5,83.7c-7.8-9.9-14.4-20.6-19.8-31.9-.8-1.7-3.4-.2-2.6,1.5,5.5,11.6,12.4,22.4,20.3,32.5,1.2,1.5,3.3-.6,2.1-2.1h0Z"/>
        <g>
          <circle cx="845.8" cy="83" r="13.6" transform="translate(444.2 832) rotate(-67.4)" style="fill: #cb1515;"/>
          <path d="M845.8,98.1c-2.1,0-4.3-.4-6.3-1.4-3.7-1.7-6.4-4.7-7.8-8.5-1.4-3.8-1.2-7.9,.5-11.5,1.7-3.7,4.7-6.4,8.5-7.8,3.8-1.4,7.9-1.2,11.5,.5,3.7,1.7,6.4,4.7,7.8,8.5,1.4,3.8,1.2,7.9-.5,11.5-2.5,5.5-8,8.8-13.7,8.8Zm0-27.2c-1.4,0-2.8,.2-4.2,.8-3,1.1-5.4,3.3-6.8,6.3-1.4,2.9-1.5,6.2-.4,9.3,1.1,3,3.3,5.4,6.3,6.8,6.1,2.8,13.3,.1,16.1-5.9,1.4-2.9,1.5-6.2,.4-9.3s-3.3-5.4-6.3-6.8c-1.6-.7-3.3-1.1-5.1-1.1Z"/>
        </g>
        <g>
          <path d="M827.7,100c-3.1,6.8-11.2,9.8-18,6.6s-9.8-11.2-6.6-18,11.2-9.8,18-6.6c6.8,3.1,9.8,11.2,6.6,18Z" style="fill: #cb1515;"/>
          <path d="M815.3,109.4c-2.2,0-4.3-.5-6.3-1.4-3.7-1.7-6.4-4.7-7.8-8.5-1.4-3.8-1.2-7.9,.5-11.5,3.5-7.6,12.5-10.9,20-7.4,3.7,1.7,6.4,4.7,7.8,8.5,1.4,3.8,1.2,7.9-.5,11.5-1.7,3.7-4.7,6.4-8.5,7.8-1.7,.6-3.5,.9-5.2,.9Zm0-27.2c-4.6,0-9,2.6-11,7-1.4,2.9-1.5,6.2-.4,9.3,1.1,3,3.3,5.4,6.3,6.8,2.9,1.4,6.2,1.5,9.3,.4,3-1.1,5.4-3.3,6.8-6.3h0c1.4-2.9,1.5-6.2,.4-9.3-1.1-3-3.3-5.4-6.3-6.8-1.6-.8-3.4-1.1-5.1-1.1Z"/>
        </g>
        <g>
          <path d="M849.7,111.1c-3.1,6.8-11.2,9.8-18,6.6-6.8-3.1-9.8-11.2-6.6-18,3.1-6.8,11.2-9.8,18-6.6s9.8,11.2,6.6,18Z" style="fill: #cb1515;"/>
          <path d="M837.3,120.5c-2.1,0-4.3-.4-6.3-1.4-3.7-1.7-6.4-4.7-7.8-8.5-1.4-3.8-1.2-7.9,.5-11.5,1.7-3.7,4.7-6.4,8.5-7.8,3.8-1.4,7.9-1.2,11.5,.5,7.6,3.5,10.9,12.5,7.4,20h0c-2.5,5.5-8,8.8-13.7,8.8Zm0-27.2c-1.4,0-2.8,.2-4.2,.8-3,1.1-5.4,3.3-6.8,6.3-1.4,2.9-1.5,6.2-.4,9.3,1.1,3,3.3,5.4,6.3,6.8,6.1,2.8,13.3,.1,16.1-5.9h0c2.8-6.1,.1-13.3-5.9-16.1-1.6-.7-3.3-1.1-5.1-1.1Z"/>
        </g>
        <path d="M851.6,80c0,.3,.2,.7,.2,1,0-.1,0-.3,0-.4,0,.5,0,1.1,0,1.6,0-.1,0-.3,0-.4,0,.5-.2,.9-.3,1.4,0,0,0,.2,0,0,0-.2,0,0,0,0,0,.1,0,.2-.2,.3-.1,.2-.2,.4-.4,.6-.4,.6-.1,1.7,.5,2.1,.8,.4,1.6,.2,2.1-.5,1.3-1.8,1.6-4.3,1-6.4-.2-.7-1.1-1.3-1.8-1-.8,.2-1.3,1-1,1.8h0Z" style="fill: #fff;"/>
        <path d="M843,102.9c0,.2,.1,.5,.2,.8,0,.3,0-.3,0-.1,0,0,0,.1,0,.2,0,.1,0,.3,0,.4,0,.1,0,.3,0,.4,0,.3,0-.3,0-.1,0,0,0,.1,0,.2,0,.3-.1,.5-.2,.8,0,0,0,0,0,.1,.1-.4,0-.2,0,0,0,.1-.1,.2-.2,.3,0,.1-.1,.2-.2,.3,0,0,0,0,0,.1-.2,.2,.2-.2,0,0-.2,.2-.3,.4-.5,.6,0,0-.1,0-.2,.1,0,0,.3-.2,0,0-.1,0-.2,.2-.4,.2-.7,.4-1,1.4-.5,2.1,.4,.7,1.3,1,2.1,.5,2.5-1.4,3.8-4.7,2.9-7.5-.3-.7-1-1.3-1.8-1-.7,.2-1.3,1.1-1,1.8h0Z" style="fill: #fff;"/>
        <path d="M819.4,90.5c0,.6,0,1.1,0,1.7,0-.1,0-.3,0-.4,0,.3-.1,.6-.2,.9,0,.1,0,.3-.1,.4,0,0,0,.1,0,.2,0,.1-.2,.3,0,0-.2,.3-.3,.6-.4,.8,0,.1-.1,.2-.2,.4,0,0,0,.2-.1,.2,0,0,0-.1,.1-.2,0,0,0,0-.1,.1-.3,.3-.4,.6-.4,1.1s.2,.8,.4,1.1c.5,.5,1.6,.6,2.1,0,1.4-1.8,2.2-4,2-6.3,0-.4-.1-.8-.4-1.1-.3-.3-.7-.5-1.1-.4-.7,0-1.6,.7-1.5,1.5h0Z" style="fill: #fff;"/>
      </g>
      <g>
        <g>
          <circle cx="263.3" cy="60.1" r="8.6" transform="translate(2.2 129.1) rotate(-27.7)" style="fill: #cb1515;"/>
          <path d="M263.3,69.7c-5.3,0-9.6-4.3-9.6-9.6s4.3-9.6,9.6-9.6,9.6,4.3,9.6,9.6-4.3,9.6-9.6,9.6Zm0-17.3c-4.2,0-7.6,3.4-7.6,7.6s3.4,7.6,7.6,7.6,7.6-3.4,7.6-7.6-3.4-7.6-7.6-7.6Z"/>
        </g>
        <g>
          <circle cx="210.6" cy="60.1" r="8.6" transform="translate(120.3 259.6) rotate(-81.6)" style="fill: #cb1515;"/>
          <path d="M210.6,69.7c-5.3,0-9.6-4.3-9.6-9.6s4.3-9.6,9.6-9.6,9.6,4.3,9.6,9.6-4.3,9.6-9.6,9.6Zm0-17.3c-4.2,0-7.6,3.4-7.6,7.6s3.4,7.6,7.6,7.6,7.6-3.4,7.6-7.6-3.4-7.6-7.6-7.6Z"/>
        </g>
        <g>
          <circle cx="184.1" cy="64.6" r="8.6" transform="translate(93 237.1) rotate(-81.5)" style="fill: #39b24a;"/>
          <path d="M184.1,74.2c-5.3,0-9.6-4.3-9.6-9.6s4.3-9.6,9.6-9.6,9.6,4.3,9.6,9.6-4.3,9.6-9.6,9.6Zm0-17.3c-4.2,0-7.6,3.4-7.6,7.6s3.4,7.6,7.6,7.6,7.6-3.4,7.6-7.6-3.4-7.6-7.6-7.6Z"/>
        </g>
        <g>
          <circle cx="238.4" cy="64.6" r="8.6" style="fill: #39b24a;"/>
          <path d="M238.4,74.2c-5.3,0-9.6-4.3-9.6-9.6s4.3-9.6,9.6-9.6,9.6,4.3,9.6,9.6-4.3,9.6-9.6,9.6Zm0-17.3c-4.2,0-7.6,3.4-7.6,7.6s3.4,7.6,7.6,7.6,7.6-3.4,7.6-7.6-3.4-7.6-7.6-7.6Z"/>
        </g>
        <g>
          <circle cx="157.3" cy="60.1" r="8.6" transform="translate(-10.4 74.8) rotate(-25.9)" style="fill: #cb1515;"/>
          <path d="M157.3,69.7c-5.3,0-9.6-4.3-9.6-9.6s4.3-9.6,9.6-9.6,9.6,4.3,9.6,9.6-4.3,9.6-9.6,9.6Zm0-17.3c-4.2,0-7.6,3.4-7.6,7.6s3.4,7.6,7.6,7.6,7.6-3.4,7.6-7.6-3.4-7.6-7.6-7.6Z"/>
        </g>
        <g>
          <circle cx="104.6" cy="60.1" r="8.6" transform="translate(29.4 154.3) rotate(-81.3)" style="fill: #cb1515;"/>
          <path d="M104.6,69.7c-5.3,0-9.6-4.3-9.6-9.6s4.3-9.6,9.6-9.6,9.6,4.3,9.6,9.6-4.3,9.6-9.6,9.6Zm0-17.3c-4.2,0-7.6,3.4-7.6,7.6s3.4,7.6,7.6,7.6,7.6-3.4,7.6-7.6-3.4-7.6-7.6-7.6Z"/>
        </g>
        <g>
          <circle cx="78.1" cy="64.6" r="8.6" transform="translate(2.3 131.9) rotate(-81.2)" style="fill: #39b24a;"/>
          <path d="M78.1,74.2c-5.3,0-9.6-4.3-9.6-9.6s4.3-9.6,9.6-9.6,9.6,4.3,9.6,9.6-4.3,9.6-9.6,9.6Zm0-17.3c-4.2,0-7.6,3.4-7.6,7.6s3.4,7.6,7.6,7.6,7.6-3.4,7.6-7.6-3.4-7.6-7.6-7.6Z"/>
        </g>
        <g>
          <circle cx="132.4" cy="64.6" r="8.6" style="fill: #39b24a;"/>
          <path d="M132.4,74.2c-5.3,0-9.6-4.3-9.6-9.6s4.3-9.6,9.6-9.6,9.6,4.3,9.6,9.6-4.3,9.6-9.6,9.6Zm0-17.3c-4.2,0-7.6,3.4-7.6,7.6s3.4,7.6,7.6,7.6,7.6-3.4,7.6-7.6-3.4-7.6-7.6-7.6Z"/>
        </g>
        <g>
          <circle cx="321.3" cy="347.1" r="8.6" transform="translate(-127 196.5) rotate(-28.6)" style="fill: #cb1515;"/>
          <path d="M321.3,356.7c-5.3,0-9.6-4.3-9.6-9.6s4.3-9.6,9.6-9.6,9.6,4.3,9.6,9.6-4.3,9.6-9.6,9.6Zm0-17.3c-4.2,0-7.6,3.4-7.6,7.6s3.4,7.6,7.6,7.6,7.6-3.4,7.6-7.6-3.4-7.6-7.6-7.6Z"/>
        </g>
        <g>
          <circle cx="268.6" cy="347.1" r="8.6" transform="translate(-113.5 563) rotate(-81.7)" style="fill: #cb1515;"/>
          <path d="M268.6,356.7c-5.3,0-9.6-4.3-9.6-9.6s4.3-9.6,9.6-9.6,9.6,4.3,9.6,9.6-4.3,9.6-9.6,9.6Zm0-17.3c-4.2,0-7.6,3.4-7.6,7.6s3.4,7.6,7.6,7.6,7.6-3.4,7.6-7.6-3.4-7.6-7.6-7.6Z"/>
        </g>
        <g>
          <circle cx="242.1" cy="351.6" r="8.6" transform="translate(-140.9 540.1) rotate(-81.7)" style="fill: #39b24a;"/>
          <path d="M242.1,361.2c-5.3,0-9.6-4.3-9.6-9.6s4.3-9.6,9.6-9.6,9.6,4.3,9.6,9.6-4.3,9.6-9.6,9.6Zm0-17.3c-4.2,0-7.6,3.4-7.6,7.6s3.4,7.6,7.6,7.6,7.6-3.4,7.6-7.6-3.4-7.6-7.6-7.6Z"/>
        </g>
        <g>
          <circle cx="296.4" cy="351.6" r="8.6" style="fill: #39b24a;"/>
          <path d="M296.4,361.2c-5.3,0-9.6-4.3-9.6-9.6s4.3-9.6,9.6-9.6,9.6,4.3,9.6,9.6-4.3,9.6-9.6,9.6Zm0-17.3c-4.2,0-7.6,3.4-7.6,7.6s3.4,7.6,7.6,7.6,7.6-3.4,7.6-7.6-3.4-7.6-7.6-7.6Z"/>
        </g>
        <g>
          <circle cx="215.3" cy="347.1" r="8.6" transform="translate(-133.6 134.8) rotate(-26.9)" style="fill: #cb1515;"/>
          <path d="M215.3,356.7c-5.3,0-9.6-4.3-9.6-9.6s4.3-9.6,9.6-9.6,9.6,4.3,9.6,9.6-4.3,9.6-9.6,9.6Zm0-17.3c-4.2,0-7.6,3.4-7.6,7.6s3.4,7.6,7.6,7.6,7.6-3.4,7.6-7.6-3.4-7.6-7.6-7.6Z"/>
        </g>
        <g>
          <circle cx="162.6" cy="347.1" r="8.6" transform="translate(-204.8 456.2) rotate(-81.4)" style="fill: #cb1515;"/>
          <path d="M162.6,356.7c-5.3,0-9.6-4.3-9.6-9.6s4.3-9.6,9.6-9.6,9.6,4.3,9.6,9.6-4.3,9.6-9.6,9.6Zm0-17.3c-4.2,0-7.6,3.4-7.6,7.6s3.4,7.6,7.6,7.6,7.6-3.4,7.6-7.6-3.4-7.6-7.6-7.6Z"/>
        </g>
        <g>
          <circle cx="136.1" cy="351.6" r="8.6" transform="translate(-231.9 433.3) rotate(-81.4)" style="fill: #39b24a;"/>
          <path d="M136.1,361.2c-5.3,0-9.6-4.3-9.6-9.6s4.3-9.6,9.6-9.6,9.6,4.3,9.6,9.6-4.3,9.6-9.6,9.6Zm0-17.3c-4.2,0-7.6,3.4-7.6,7.6s3.4,7.6,7.6,7.6,7.6-3.4,7.6-7.6-3.4-7.6-7.6-7.6Z"/>
        </g>
        <g>
          <circle cx="190.4" cy="351.6" r="8.6" style="fill: #39b24a;"/>
          <path d="M190.4,361.2c-5.3,0-9.6-4.3-9.6-9.6s4.3-9.6,9.6-9.6,9.6,4.3,9.6,9.6-4.3,9.6-9.6,9.6Zm0-17.3c-4.2,0-7.6,3.4-7.6,7.6s3.4,7.6,7.6,7.6,7.6-3.4,7.6-7.6-3.4-7.6-7.6-7.6Z"/>
        </g>
        <g>
          <path d="M819.3,338.4c4.8,0,8.6,3.9,8.6,8.6s-3.9,8.6-8.6,8.6-8.6-3.9-8.6-8.6,3.9-8.6,8.6-8.6Z" style="fill: #cb1515;"/>
          <path d="M819.3,356.7c-5.3,0-9.6-4.3-9.6-9.6s4.3-9.6,9.6-9.6,9.6,4.3,9.6,9.6-4.3,9.6-9.6,9.6Zm0-17.3c-4.2,0-7.6,3.4-7.6,7.6s3.4,7.6,7.6,7.6,7.6-3.4,7.6-7.6-3.4-7.6-7.6-7.6Z"/>
        </g>
        <g>
          <circle cx="765.6" cy="347.1" r="8.6" transform="translate(328.9 1065.3) rotate(-83.1)" style="fill: #cb1515;"/>
          <path d="M765.6,356.7c-5.3,0-9.6-4.3-9.6-9.6s4.3-9.6,9.6-9.6,9.6,4.3,9.6,9.6-4.3,9.6-9.6,9.6Zm0-17.3c-4.2,0-7.6,3.4-7.6,7.6s3.4,7.6,7.6,7.6,7.6-3.4,7.6-7.6-3.4-7.6-7.6-7.6Z"/>
        </g>
        <g>
          <circle cx="738.1" cy="351.6" r="8.6" transform="translate(299.4 1041.4) rotate(-83)" style="fill: #39b24a;"/>
          <path d="M738.1,361.2c-5.3,0-9.6-4.3-9.6-9.6s4.3-9.6,9.6-9.6,9.6,4.3,9.6,9.6-4.3,9.6-9.6,9.6Zm0-17.3c-4.2,0-7.6,3.4-7.6,7.6s3.4,7.6,7.6,7.6,7.6-3.4,7.6-7.6-3.4-7.6-7.6-7.6Z"/>
        </g>
        <g>
          <circle cx="794.4" cy="351.6" r="8.6" transform="translate(168.6 954.1) rotate(-67.8)" style="fill: #39b24a;"/>
          <path d="M794.4,361.2c-5.3,0-9.6-4.3-9.6-9.6s4.3-9.6,9.6-9.6,9.6,4.3,9.6,9.6-4.3,9.6-9.6,9.6Zm0-17.3c-4.2,0-7.6,3.4-7.6,7.6s3.4,7.6,7.6,7.6,7.6-3.4,7.6-7.6-3.4-7.6-7.6-7.6Z"/>
        </g>
        <g>
          <path d="M712.3,338.4c4.8,0,8.6,3.9,8.6,8.6s-3.9,8.6-8.6,8.6-8.6-3.9-8.6-8.6,3.9-8.6,8.6-8.6Z" style="fill: #cb1515;"/>
          <path d="M712.3,356.7c-5.3,0-9.6-4.3-9.6-9.6s4.3-9.6,9.6-9.6,9.6,4.3,9.6,9.6-4.3,9.6-9.6,9.6Zm0-17.3c-4.2,0-7.6,3.4-7.6,7.6s3.4,7.6,7.6,7.6,7.6-3.4,7.6-7.6-3.4-7.6-7.6-7.6Z"/>
        </g>
        <g>
          <circle cx="657.6" cy="347.1" r="8.6" transform="translate(230.9 956) rotate(-82.8)" style="fill: #cb1515;"/>
          <path d="M657.6,356.7c-5.3,0-9.6-4.3-9.6-9.6s4.3-9.6,9.6-9.6,9.6,4.3,9.6,9.6-4.3,9.6-9.6,9.6Zm0-17.3c-4.2,0-7.6,3.4-7.6,7.6s3.4,7.6,7.6,7.6,7.6-3.4,7.6-7.6-3.4-7.6-7.6-7.6Z"/>
        </g>
        <g>
          <circle cx="631.1" cy="351.6" r="8.6" transform="translate(202.5 933.1) rotate(-82.7)" style="fill: #39b24a;"/>
          <path d="M631.1,361.2c-5.3,0-9.6-4.3-9.6-9.6s4.3-9.6,9.6-9.6,9.6,4.3,9.6,9.6-4.3,9.6-9.6,9.6Zm0-17.3c-4.2,0-7.6,3.4-7.6,7.6s3.4,7.6,7.6,7.6,7.6-3.4,7.6-7.6-3.4-7.6-7.6-7.6Z"/>
        </g>
        <g>
          <circle cx="683.4" cy="351.6" r="8.6" transform="translate(99.9 851.8) rotate(-67.8)" style="fill: #39b24a;"/>
          <path d="M683.4,361.2c-5.3,0-9.6-4.3-9.6-9.6s4.3-9.6,9.6-9.6,9.6,4.3,9.6,9.6-4.3,9.6-9.6,9.6Zm0-17.3c-4.2,0-7.6,3.4-7.6,7.6s3.4,7.6,7.6,7.6,7.6-3.4,7.6-7.6-3.4-7.6-7.6-7.6Z"/>
        </g>
        <g>
          <circle cx="879.9" cy="298.7" r="8.6" transform="translate(-42.9 189.8) rotate(-12)" style="fill: #cb1515;"/>
          <path d="M879.9,308.4c-5.3,0-9.6-4.3-9.6-9.6s4.3-9.6,9.6-9.6,9.6,4.3,9.6,9.6-4.3,9.6-9.6,9.6Zm0-17.3c-4.2,0-7.6,3.4-7.6,7.6s3.4,7.6,7.6,7.6,7.6-3.4,7.6-7.6-3.4-7.6-7.6-7.6Z"/>
        </g>
        <g>
          <circle cx="879.9" cy="351.4" r="8.6" transform="translate(59.6 825.5) rotate(-51.8)" style="fill: #cb1515;"/>
          <path d="M879.9,361.1c-5.3,0-9.6-4.3-9.6-9.6s4.3-9.6,9.6-9.6,9.6,4.3,9.6,9.6-4.3,9.6-9.6,9.6Zm0-17.3c-4.2,0-7.6,3.4-7.6,7.6s3.4,7.6,7.6,7.6,7.6-3.4,7.6-7.6-3.4-7.6-7.6-7.6Z"/>
        </g>
        <g>
          <circle cx="847.4" cy="351.9" r="8.6" transform="translate(-41 122.5) rotate(-8.1)" style="fill: #39b24a;"/>
          <path d="M847.4,361.6c-5.3,0-9.6-4.3-9.6-9.6s4.3-9.6,9.6-9.6,9.6,4.3,9.6,9.6-4.3,9.6-9.6,9.6Zm0-17.3c-4.2,0-7.6,3.4-7.6,7.6s3.4,7.6,7.6,7.6,7.6-3.4,7.6-7.6-3.4-7.6-7.6-7.6Z"/>
        </g>
        <g>
          <circle cx="875.4" cy="323.6" r="8.6" style="fill: #39b24a;"/>
          <path d="M875.4,333.2c-5.3,0-9.6-4.3-9.6-9.6s4.3-9.6,9.6-9.6,9.6,4.3,9.6,9.6-4.3,9.6-9.6,9.6Zm0-17.3c-4.2,0-7.6,3.4-7.6,7.6s3.4,7.6,7.6,7.6,7.6-3.4,7.6-7.6-3.4-7.6-7.6-7.6Z"/>
        </g>
        <g>
          <circle cx="63.4" cy="86.7" r="8.6" transform="translate(-35.7 128.2) rotate(-76.5)" style="fill: #cb1515;"/>
          <path d="M63.4,96.4c-5.3,0-9.6-4.3-9.6-9.6s4.3-9.6,9.6-9.6,9.6,4.3,9.6,9.6-4.3,9.6-9.6,9.6Zm0-17.3c-4.2,0-7.6,3.4-7.6,7.6s3.4,7.6,7.6,7.6,7.6-3.4,7.6-7.6-3.4-7.6-7.6-7.6Z"/>
        </g>
        <g>
          <circle cx="63.4" cy="139.4" r="8.6" transform="translate(-84.5 179.1) rotate(-80.6)" style="fill: #cb1515;"/>
          <path d="M63.4,149.1c-5.3,0-9.6-4.3-9.6-9.6s4.3-9.6,9.6-9.6,9.6,4.3,9.6,9.6-4.3,9.6-9.6,9.6Zm0-17.3c-4.2,0-7.6,3.4-7.6,7.6s3.4,7.6,7.6,7.6,7.6-3.4,7.6-7.6-3.4-7.6-7.6-7.6Z"/>
        </g>
        <g>
          <circle cx="67.9" cy="165.9" r="8.6" transform="translate(-109.5 191.9) rotate(-76.1)" style="fill: #39b24a;"/>
          <path d="M67.9,175.6c-5.3,0-9.6-4.3-9.6-9.6s4.3-9.6,9.6-9.6,9.6,4.3,9.6,9.6-4.3,9.6-9.6,9.6Zm0-17.3c-4.2,0-7.6,3.4-7.6,7.6s3.4,7.6,7.6,7.6,7.6-3.4,7.6-7.6-3.4-7.6-7.6-7.6Z"/>
        </g>
        <g>
          <circle cx="67.9" cy="111.6" r="8.6" style="fill: #39b24a;"/>
          <path d="M67.9,121.2c-5.3,0-9.6-4.3-9.6-9.6s4.3-9.6,9.6-9.6,9.6,4.3,9.6,9.6-4.3,9.6-9.6,9.6Zm0-17.3c-4.2,0-7.6,3.4-7.6,7.6s3.4,7.6,7.6,7.6,7.6-3.4,7.6-7.6-3.4-7.6-7.6-7.6Z"/>
        </g>
        <g>
          <circle cx="63.4" cy="192.7" r="8.6" transform="translate(-138.7 209.6) rotate(-76.5)" style="fill: #cb1515;"/>
          <path d="M63.4,202.4c-5.3,0-9.6-4.3-9.6-9.6s4.3-9.6,9.6-9.6,9.6,4.3,9.6,9.6-4.3,9.6-9.6,9.6Zm0-17.3c-4.2,0-7.6,3.4-7.6,7.6s3.4,7.6,7.6,7.6,7.6-3.4,7.6-7.6-3.4-7.6-7.6-7.6Z"/>
        </g>
        <g>
          <circle cx="63.4" cy="245.4" r="8.6" transform="translate(-189.1 267.8) rotate(-80.6)" style="fill: #cb1515;"/>
          <path d="M63.4,255.1c-5.3,0-9.6-4.3-9.6-9.6s4.3-9.6,9.6-9.6,9.6,4.3,9.6,9.6-4.3,9.6-9.6,9.6Zm0-17.3c-4.2,0-7.6,3.4-7.6,7.6s3.4,7.6,7.6,7.6,7.6-3.4,7.6-7.6-3.4-7.6-7.6-7.6Z"/>
        </g>
        <g>
          <circle cx="67.9" cy="271.9" r="8.6" transform="translate(-212.3 272.4) rotate(-76.1)" style="fill: #39b24a;"/>
          <path d="M67.9,281.6c-5.3,0-9.6-4.3-9.6-9.6s4.3-9.6,9.6-9.6,9.6,4.3,9.6,9.6-4.3,9.6-9.6,9.6Zm0-17.3c-4.2,0-7.6,3.4-7.6,7.6s3.4,7.6,7.6,7.6,7.6-3.4,7.6-7.6-3.4-7.6-7.6-7.6Z"/>
        </g>
        <g>
          <circle cx="67.9" cy="217.6" r="8.6" style="fill: #39b24a;"/>
          <path d="M67.9,227.2c-5.3,0-9.6-4.3-9.6-9.6s4.3-9.6,9.6-9.6,9.6,4.3,9.6,9.6-4.3,9.6-9.6,9.6Zm0-17.3c-4.2,0-7.6,3.4-7.6,7.6s3.4,7.6,7.6,7.6,7.6-3.4,7.6-7.6-3.4-7.6-7.6-7.6Z"/>
        </g>
        <g>
          <path d="M291.9,51.4c0-9.3-6.3-13.3-14.3-13.7s-15.9,2.8-23.8,1.6c-4.2-.6-8-2.4-12.2-3.1-9.1-1.5-18.2,2.4-27.4,2.4-14.5,0-28.2-9.5-42.3-6.6-5.6,1.1-10.6,4.2-16.3,5.1-15.4,2.4-31.1-11.3-45.5-6-4.1,1.5-7.3,4.4-11.6,5.4-3.6,.8-7.3,.3-11-.4-14.8-2.6-31.5-6.1-44.2,.9-9.1,5.1-13.6,14.7-14.1,23.9-.4,8.6,2.1,17,4.8,25.3,.4,1.3,1.7,2.1,2.8,1.7,4.3-1.2,6.1-6.6,6.6-10.8,.5-4,2.4-9.1,6.3-10.5,1.4-.5,2.9,.6,3.1,2.3,.9,7.8,3.6,15.4,7.8,22.4,1.1,1.8,3.5,1.5,4.2-.5l5.4-14.1c.8-2.1,3.4-2.2,4.4-.2,5.2,10.7,8.8,21.9,10.5,33.4,.2,1.6,1.7,2.6,3.1,2.1,2.3-.8,4.1-3.9,4.5-6.4,2.3-13.2,4.5-26.5,6.8-39.7,.3-1.5,1.6-2.5,3-2.1,3.1,.9,5.2,4.6,5.6,7.7,.4,2.8,.5,6.1,2.2,8.5,1,1.5,3.2,1.4,4-.3,1.3-2.3,2.1-4.8,2.6-7.4,.3-1.6,1.9-2.6,3.3-2,5.2,2.4,5.2,13.7,13.8,14.1,2.3,0,4.5-.7,6.2-2.1,1-.8,1.8-1.7,2.5-2.6,1.3-1.9,4-1.2,4.3,1.1,1.2,7.2,2.7,14.5,4.6,21.6,.9,3.3,6.1,3.7,7.8,.7,3-5.4,4.6-11.3,4.9-17.2,.1-2.9,3.8-3.5,4.7-.8,1.4,4.1,2.2,8.6,6.6,9.9,5.3,1.5,9.1-3.2,10.8-8.2,.7-2,3.1-2.4,4.2-.7,.8,1.3,1.4,2.8,2.1,4.1,1.5,2.8,6,5.5,8.6,2.6,.7-.8,.9-1.7,.9-2.7,0-7.1,3.2-15.1,11.7-17.8,4.2-1.3,9-.7,12.2,2,4.4,3.7,2.6,8.5,2.7,13,0,4.4,3.5,9.9,10.1,6.9,3.2-1.4,4.6-4.4,4.1-7.4-.3-1.4,0-3.2,.5-5,1.2-3.7,7.5-3.2,7.8,.6,0,0,0,0,0,.1,.7,6.8,9.3,7.9,11.5,1.5,.7-2.1,1.3-4.1,1.8-6.2,1.2-5.2,9.6-6,12.2-1.2,1.1,1.9,2.5,5.3,4.4,14.5,.8,3.7,6.5,1.4,6.7-2.3,0-.3,0-.5,0-.8,0-19.9,4-16.5,4.1-36.5" style="fill: #fff;"/>
          <path d="M293.4,51.4c0-3.2-.7-6.5-2.7-9.2-1.8-2.4-4.3-4-7-4.9-8-2.7-16.4,.4-24.4,.8-2.3,.1-4.6,0-6.9-.5-2.2-.5-4.3-1.2-6.5-1.9-4.4-1.3-8.8-1.6-13.4-1-4.5,.5-9,1.6-13.5,2.2-4.4,.5-8.7,.3-13-.6-8.2-1.7-16-5-24.4-6-4.1-.5-8.2-.3-12.1,.8-4.3,1.2-8.3,3.3-12.7,4.3-15.2,3.5-28.9-9.6-44.2-6.5-4,.8-7.3,3.1-10.8,4.8-4.3,2.1-8.7,1.9-13.3,1.1-8.4-1.5-16.8-3.2-25.3-3.3-8-.2-16.4,1.2-23.1,6-6,4.3-10,10.9-11.6,18.1-1.9,8.8,0,17.9,2.6,26.4,.3,1.1,.7,2.2,1.1,3.4,.3,.9,.5,1.9,1.1,2.7,1.1,1.4,2.8,1.9,4.5,1.3,3.2-1.2,5.1-4.2,6.2-7.3,1.1-3.2,1-6.6,2.4-9.7,.7-1.5,1.6-2.9,3-3.8,.6-.3,1.2-.7,1.7-.1,.6,.7,.5,2.2,.6,3,.7,4.4,1.9,8.6,3.6,12.7,.9,2.1,1.8,4.1,3,6.1,.9,1.6,1.7,3.3,3.7,3.7,2.5,.5,3.9-1.4,4.7-3.4,.7-1.9,1.4-3.8,2.2-5.7,.8-2.1,1.6-4.1,2.3-6.2,.4-1.1,1.3-3.2,2.3-1.1,4.3,8.4,7.2,17.6,9.2,26.9,.2,1,.4,2.1,.6,3.1,.2,1.2,.3,2.4,.7,3.6,.6,1.5,2,2.7,3.7,2.7,3.6,0,6-4.6,6.6-7.6,1.9-9.9,3.4-20,5.1-29.9,.4-2.4,.8-4.8,1.2-7.2,.2-.9,.1-2.5,.7-3.2,.5-.7,1.3-.3,2,0,3.4,2.1,3.4,6.3,4,9.8,.5,3.1,2.2,8.2,6.3,6.8,1.9-.6,2.6-2.6,3.3-4.3,.4-1,.8-2,1.1-3,.2-.9,.2-2.2,.8-2.9,1.3-1.6,3.6,2.6,4.1,3.4,1.2,2.3,2.2,4.6,3.9,6.6,1.7,2.1,4,3.5,6.8,3.8,4.2,.4,7.8-1.8,10.3-5,1-1.3,1.7-.4,1.9,.9,.4,2.4,.8,4.9,1.3,7.3,.5,2.4,1,4.9,1.6,7.3,.5,2.3,.9,4.7,1.7,6.9,1,2.8,4.3,4,7,3.2,1.4-.4,2.6-1.3,3.3-2.5,1.2-1.9,2.1-4.1,2.8-6.3,.8-2.2,1.3-4.4,1.7-6.6,.2-1,.3-2,.4-3,0-.8-.1-2,.3-2.7,.7-1.1,1.5,0,1.7,.7,.6,1.6,1,3.2,1.7,4.8,1.4,3.2,3.8,5.5,7.3,5.9,3.6,.4,6.6-1.7,8.6-4.5,1.1-1.4,1.7-3,2.4-4.7,.9-2.2,2,0,2.6,1.2,1.6,3.2,3.7,6.4,7.5,6.8,1.7,.2,3.3-.4,4.5-1.6,1.4-1.5,1.3-3.3,1.4-5.2,.2-3.1,1.1-6.3,2.8-8.9,3.7-5.9,13.1-9.4,18.8-4.1,2.9,2.7,2.1,6.6,2,10.1-.1,3,.5,6,2.5,8.2,4.9,5.5,14.7,1.1,14.7-6,0-2-.6-4,.4-6,.4-.9,1.5-1.3,2.5-1.3,.9,0,1.9,.4,2.3,1.3,.2,.6,.2,1.2,.3,1.8,.2,.7,.4,1.4,.8,2.1,2.8,5,10.1,4.9,12.8,0,1-1.8,1.5-4,2-6,.4-1.4,.6-2.9,1.8-3.8,1.9-1.5,5.1-1.6,7,0,1.4,1,2,2.9,2.5,4.4,1.1,3.2,1.9,6.5,2.6,9.8,.3,1.5,.6,3,2.1,3.8,1.2,.6,2.6,.5,3.8,0,1.3-.5,2.4-1.5,3.1-2.7,.9-1.6,.8-3.4,.8-5.1,0-5.8,.8-11.2,2.2-16.8,1.4-5.9,1.9-11.8,1.9-17.9,0-1.9-3-1.9-3,0,0,6-.5,11.8-1.9,17.6-1.4,5.6-2,11.1-2.1,16.9,0,1.6,.3,3.3-1,4.5-.5,.5-1.8,1.3-2.5,.8-.4-.3-.4-1-.5-1.4-.2-1.1-.5-2.1-.7-3.2-.4-1.7-.8-3.3-1.3-5-1.3-4.3-3-9-8.1-9.7-2.6-.4-5.5,.3-7.4,2.3-2.6,2.7-2.2,6.9-3.9,10.1-1.1,2-3.3,2.9-5.4,2.1-1-.4-1.9-1.2-2.3-2.2-.6-1.2-.4-2.5-1-3.7-1.2-2.3-4.2-3.2-6.6-2.6-3.4,.9-4.4,4.4-4.3,7.6,0,1.8,.5,3.3-.4,4.9-.9,1.6-2.7,2.6-4.5,3-2.8,.5-4.9-1.4-5.7-4-1-3.1,.2-6.4-.1-9.5-.4-3.7-2.6-6.8-6-8.4-6.7-3.2-15-.6-19.5,5.2-1.9,2.5-3.2,5.4-3.8,8.5-.3,1.5-.5,3.1-.5,4.6,0,1.8-1.2,3.1-3.1,2.6-1.5-.4-2.8-1.6-3.6-2.9-1-1.7-1.5-3.8-3-5.1-1.2-1.1-3-1.2-4.4-.4-1.5,.9-1.8,2.6-2.6,4.1-1.4,2.8-3.8,6-7.3,5.6-3.4-.4-4.7-3.6-5.6-6.5-.5-1.5-.8-3.2-1.9-4.3-1-.9-2.4-1.2-3.7-.8-1.3,.4-2.3,1.5-2.7,2.9-.2,.9-.2,1.9-.2,2.9,0,1.1-.3,2.2-.5,3.3-.4,2.3-1.1,4.5-1.9,6.6-.4,1-.8,2-1.3,2.9-.4,.8-.7,1.8-1.4,2.3-.8,.7-2.2,.8-3.2,.4-1.6-.6-1.6-2.5-2-3.9-1.2-4.7-2.2-9.3-3.1-14.1-.6-3-.5-8.5-4.9-8.3-1.9,0-2.6,1.5-3.7,2.7-1.3,1.5-3.1,2.6-5.1,3-2.7,.4-5.1-.7-6.7-2.8-2.7-3.4-3.8-9.7-8.3-11.2-1.5-.5-3.2,0-4.2,1.3-.6,.7-.7,1.5-.9,2.4-.2,1.1-.5,2.2-.9,3.3-.3,.8-1.3,4.4-2.7,3.4-.6-.4-.9-1.5-1.1-2.2-.3-1-.5-2.1-.7-3.1-.5-3.6-1-7.2-3.8-9.8-1.2-1.1-2.8-2.1-4.4-2-1.7,.1-3.1,1.5-3.5,3.1-.6,2.4-.9,5-1.3,7.4-.4,2.4-.8,4.8-1.2,7.2-.8,4.8-1.6,9.6-2.5,14.5-.4,2.5-.9,5-1.3,7.5-.3,2-.5,4.2-1.5,6-.4,.8-2.1,3.5-3.3,2.6-.7-.5-.6-1.9-.7-2.6-.2-1.2-.4-2.4-.7-3.6-1.8-9-4.8-17.7-8.6-26-.7-1.6-1.4-3.5-3.1-4.3-1.3-.6-2.9-.3-4,.7-1.1,1-1.5,2.7-2,4-1.5,3.8-2.8,7.7-4.4,11.5-.2,.5-.4,1-1.1,.9-.7-.1-1.1-1.3-1.4-1.9-.6-1-1.1-2.1-1.7-3.2-1.9-3.9-3.4-8.1-4.3-12.4-.6-3-.5-9.2-5.2-8.4-3.3,.5-5.5,3.9-6.6,6.7-1.3,3.1-1.2,6.5-2.4,9.6-.5,1.4-1.3,2.9-2.4,3.9-.5,.5-1.1,.9-1.8,1.1-.9,.3-1.2-.2-1.5-1-3-8.4-5.6-17.9-4.4-26.9,1-7.1,4.5-13.9,10.2-18.2,6.5-4.8,14.7-6,22.5-5.8,8.5,.3,16.7,2.1,25,3.4,4.4,.7,8.7,.9,12.9-.9,3.6-1.5,6.8-4,10.6-5,7.1-1.9,14.6,.8,21.3,3,7,2.3,14.3,4.7,21.8,3.7,4.3-.6,8.2-2.4,12.2-3.8,4-1.4,8-2,12.3-1.7,8.2,.6,15.9,3.9,23.8,5.7,4.1,.9,8.2,1.5,12.4,1.3,4.4-.2,8.8-1.2,13.2-1.9,4.5-.7,9-1.2,13.5-.2,4.2,1,8.3,2.7,12.6,3.1,8.5,.6,16.9-3.2,25.3-1.4,2.6,.5,5.1,1.6,6.9,3.7,2,2.2,2.7,5.2,2.7,8.1,0,1.9,3,1.9,3,0h0Z" style="fill: #241716;"/>
        </g>
      </g>
      <g>
        <g>
          <path d="M93.5,321.7c-.9,4.2-5.5,6.8-9.8,7.1-4.3,.3-8.6-1.1-12.8-1.9-7.3-1.4-14.9-1.1-22.1,.8,4.3,7.1,5.8,15.8,4,23.9-7.1-1.1-14.3-2.2-21.4-3.2,5.9,6.8,9,15.9,8.3,24.9-7-1.7-13.8-4.2-20.1-7.6,7.9,13.7,10.9,30,8.5,45.6h0c13.8-7.6,30.2-10.3,45.8-7.6-5.4-4.8-10.1-10.3-14-16.3,8.2-3.7,17.9-4,26.2-.7-3.4-6.3-6.9-12.7-10.3-19,7-4.4,15.7-6,23.8-4.3-.7-7.4-3-14.6-6.8-21-2.2-3.7-4.9-7.2-6.1-11.4s-.4-9.3,3.3-11.6" style="fill: #008f45;"/>
          <path d="M92.1,321.3c-.8,3.2-3.7,5-6.7,5.7-3.9,.9-8-.3-11.8-1.1-8.4-1.8-16.9-1.8-25.2,.3-.9,.2-1.4,1.4-.9,2.2,4.1,6.8,5.5,15,3.9,22.7,.6-.3,1.2-.7,1.8-1-7.1-1.1-14.3-2.2-21.4-3.2-1.5-.2-2.5,1.3-1.5,2.5,5.7,6.6,8.4,15.2,7.8,23.8,.6-.5,1.3-1,1.9-1.4-6.9-1.7-13.5-4.2-19.7-7.5-1.3-.7-2.8,.7-2.1,2.1,7.6,13.4,10.7,29.2,8.4,44.4,.7-.3,1.5-.6,2.2-.9,0,0,0,0,0,0v2.6c13.5-7.3,29.4-10,44.6-7.4,1.3,.2,2.7-1.4,1.5-2.5-5.3-4.7-9.9-10.1-13.8-16l-.5,2.1c7.9-3.5,17-3.6,25.1-.5,1.3,.5,2.3-1.1,1.7-2.2-3.4-6.3-6.9-12.7-10.3-19-.2,.7-.4,1.4-.5,2.1,6.7-4.2,14.9-5.7,22.7-4.2,.9,.2,2-.4,1.9-1.4-.8-8.6-3.7-16.6-8.3-23.8-2.1-3.3-4.5-6.7-5.1-10.7-.4-3,.3-6.5,3-8.3,1.6-1.1,0-3.7-1.5-2.6-3,2-4.4,5.4-4.5,8.9-.1,4.1,1.7,7.8,3.7,11.2,2.4,3.9,4.8,7.6,6.5,11.8,1.7,4.3,2.8,8.8,3.2,13.4,.6-.5,1.3-1,1.9-1.4-8.6-1.7-17.5-.1-25,4.5-.7,.4-.9,1.3-.5,2.1,3.4,6.3,6.9,12.7,10.3,19,.6-.7,1.1-1.5,1.7-2.2-8.9-3.4-18.8-3-27.4,.8-.7,.3-.9,1.4-.5,2.1,4,6.1,8.8,11.7,14.3,16.6l1.5-2.5c-16-2.8-32.6,0-46.9,7.7-1.1,.6-.9,2,0,2.6,0,0,0,0,0,0,.7,.5,2.1,0,2.2-.9,2.4-16-.6-32.6-8.7-46.7l-2.1,2.1c6.5,3.5,13.3,6.1,20.5,7.8,1,.2,1.8-.5,1.9-1.4,.7-9.4-2.6-18.8-8.7-26-.5,.8-1,1.7-1.5,2.5,7.1,1.1,14.3,2.2,21.4,3.2,.8,.1,1.7-.2,1.8-1,1.8-8.6,.3-17.5-4.2-25-.3,.7-.6,1.5-.9,2.2,4.5-1.2,9.2-1.7,13.9-1.6,4.6,.1,8.9,1.2,13.4,2.1,3.9,.8,8,1.2,11.7-.3,3.2-1.3,6-3.7,6.8-7.2,.5-1.9-2.4-2.7-2.9-.8h0Z"/>
        </g>
        <path d="M75.6,342c-6.1,11-13.4,21.3-21.7,30.6-1.3,1.4,.8,3.6,2.1,2.1,8.5-9.6,16-20.1,22.2-31.3,.9-1.7-1.7-3.2-2.6-1.5h0Z"/>
        <g>
          <path d="M110.6,321.2c-4.2,1-8.5-1.9-10.7-5.7-2.2-3.7-2.8-8.1-4-12.3-2-7.2-5.6-13.9-10.5-19.5-4.4,7-11.6,12.2-19.6,14.2-2.2-6.9-4.4-13.7-6.6-20.6-3.4,8.3-10.3,15.1-18.7,18.5-1.6-7-2.3-14.2-2-21.4-8.8,13.1-22.1,23.1-37.1,27.8h0c12.9,9,22.6,22.5,27,37.6,1.9-6.9,4.8-13.6,8.4-19.8,6.9,5.7,11.5,14.3,12.2,23.2,4.2-5.9,8.3-11.8,12.5-17.7,7,4.3,12.3,11.5,14.4,19.4,6.3-3.9,11.8-9.2,15.8-15.4,2.4-3.6,4.3-7.6,7.5-10.5,3.2-2.9,8.2-4.5,11.9-2.2" style="fill: #008f45;"/>
          <path d="M110.2,319.8c-3.4,.8-6.8-1.6-8.6-4.4-2.3-3.4-2.9-7.6-4-11.5-2-7.8-5.9-15-11.1-21.2-.7-.8-1.9-.5-2.4,.3-4.3,6.7-11,11.5-18.7,13.5,.6,.3,1.2,.7,1.8,1l-6.6-20.6c-.3-1.1-2.2-1.6-2.7-.4-3.4,7.9-9.8,14.5-17.8,17.8,.6,.3,1.2,.7,1.8,1-1.6-6.9-2.2-13.9-2-21,0-1.6-2-1.9-2.8-.8-8.6,12.8-21.5,22.5-36.2,27.1,.6,.6,1.2,1.2,1.8,1.8,0,0,0,0,0,0-.7,.3-1.5,.6-2.2,.9,12.6,8.9,22,22,26.3,36.8,.4,1.4,2.5,1.4,2.9,0,1.9-6.8,4.7-13.3,8.2-19.4l-2.4,.3c6.6,5.5,11,13.5,11.8,22.2,.1,1.5,1.9,2,2.8,.8,4.2-5.9,8.3-11.8,12.5-17.7-.7,.2-1.4,.4-2.1,.5,6.7,4.2,11.7,10.9,13.7,18.6,.2,.9,1.4,1.4,2.2,.9,6.8-4.2,12.6-9.9,16.8-16.7,2.1-3.4,4-7.1,7.1-9.8,2.6-2.2,6.6-3.6,9.8-1.7,1.7,1,3.2-1.6,1.5-2.6-3.5-2-7.6-1.4-11,.4-3.7,2.1-6.1,5.7-8.3,9.3-2.3,3.7-4.6,7.2-7.6,10.4-2.9,3.1-6.3,5.8-9.9,8.1,.7,.3,1.5,.6,2.2,.9-2.3-8.4-7.7-15.7-15.1-20.3-.7-.5-1.6-.1-2.1,.5-4.2,5.9-8.3,11.8-12.5,17.7,.9,.3,1.9,.5,2.8,.8-.9-9.4-5.4-18.2-12.7-24.3-.7-.6-1.8-.6-2.4,.3-3.7,6.3-6.6,13.1-8.5,20.2h2.9c-4.6-15.6-14.4-29.3-27.7-38.6-.7-.5-2.1,0-2.2,.9,0,0,0,0,0,0-.2,1.1,.6,2.2,1.8,1.8,15.4-4.9,28.9-15.1,38-28.5-.9-.3-1.9-.5-2.8-.8-.2,7.3,.5,14.7,2.1,21.8,.2,.7,1.1,1.3,1.8,1,8.7-3.6,15.9-10.4,19.6-19.1-.9-.1-1.8-.2-2.7-.4,2.2,6.9,4.4,13.7,6.6,20.6,.2,.8,1,1.3,1.8,1,8.4-2.2,15.8-7.6,20.5-14.9-.8,.1-1.6,.2-2.4,.3,2.8,3.3,5.2,6.9,7,10.8,1.9,4,3.1,8.2,4.1,12.5,1,4,2.3,8.1,5.2,11.1,2.7,2.8,6.4,4.4,10.2,3.5,1.9-.4,1.1-3.3-.8-2.9h0Z"/>
        </g>
        <path d="M82.2,313.7c-12.5-.6-25-2.6-37.1-5.9-1.9-.5-2.7,2.4-.8,2.9,12.4,3.4,25.1,5.4,37.9,6,1.9,0,1.9-2.9,0-3h0Z"/>
        <g>
          <path d="M104.7,320.9c3,3.1,2.7,8.3,.6,12.1s-5.6,6.6-8.6,9.7c-5.1,5.4-9.1,11.9-11.4,18.9,8.3,.2,16.4,3.8,22.2,9.6-4.8,5.4-9.6,10.8-14.4,16.2,8.9-1.3,18.3,1.2,25.4,6.6-5.2,5-11.1,9.2-17.4,12.7,15.7,.8,31.1,7.2,42.9,17.7h0c1.2-15.7,7.9-30.9,18.6-42.4-6.9,1.9-14.1,2.9-21.3,2.9,1.4-8.9,6.4-17.1,13.7-22.4-7.2-.6-14.4-1.1-21.6-1.7,.1-8.3,3.6-16.4,9.4-22.3-6.6-3.5-13.9-5.4-21.3-5.7-4.3-.2-8.8,.2-12.9-1.1-4.1-1.3-8-4.8-8-9.1" style="fill: #008f45;"/>
          <path d="M103.6,322c2.3,2.5,2.1,6.4,.8,9.3-1.6,3.7-4.9,6.5-7.8,9.3-5.8,5.8-10.2,12.8-12.8,20.6-.3,1,.5,1.9,1.4,1.9,7.9,.3,15.5,3.6,21.2,9.2v-2.1c-4.8,5.4-9.6,10.8-14.4,16.2-1.1,1.2,0,2.7,1.5,2.5,8.6-1.2,17.4,1.3,24.2,6.5-.1-.8-.2-1.6-.3-2.4-5.1,4.9-10.9,9-17.1,12.5-1.4,.8-.7,2.7,.8,2.8,15.4,.9,30.3,7,41.8,17.2,.2-.8,.4-1.7,.7-2.5,0,0,0,0,0,0,.6,.5,1.3,1,1.9,1.4,1.2-15.4,7.7-30.1,18.2-41.4,1-1.1,0-2.9-1.5-2.5-6.8,1.8-13.8,2.8-20.9,2.8,.5,.6,1,1.3,1.4,1.9,1.4-8.5,6-16.4,13-21.5,1.2-.9,.8-2.7-.8-2.8-7.2-.6-14.4-1.1-21.6-1.7l1.5,1.5c.2-7.9,3.4-15.6,8.9-21.3,.6-.7,.6-1.9-.3-2.4-7.3-3.8-15.3-5.8-23.5-6-4,0-8.3,.2-12.1-1.3-3-1.2-5.8-3.9-5.8-7.3,0-1.9-3-1.9-3,0,0,3.8,2.3,6.9,5.4,8.9,3.5,2.3,7.8,2.7,11.8,2.7,4.4,0,8.8,.2,13.1,1.1,4.4,.9,8.6,2.5,12.6,4.5l-.3-2.4c-6.1,6.3-9.6,14.7-9.8,23.4,0,.9,.7,1.4,1.5,1.5,7.2,.6,14.4,1.1,21.6,1.7-.3-.9-.5-1.9-.8-2.8-7.6,5.6-12.9,13.9-14.4,23.3-.1,.9,.4,1.9,1.4,1.9,7.3,0,14.6-1,21.7-2.9-.5-.8-1-1.7-1.5-2.5-11,11.9-17.8,27.4-19.1,43.5,0,.9,1,1.8,1.9,1.4,0,0,0,0,0,0,1-.4,1.6-1.7,.7-2.5-12.1-10.8-27.7-17.2-43.9-18.1,.3,.9,.5,1.9,.8,2.8,6.4-3.5,12.3-7.9,17.7-12.9,.8-.7,.4-1.8-.3-2.4-7.6-5.7-17.2-8.1-26.6-6.8l1.5,2.5c4.8-5.4,9.6-10.8,14.4-16.2,.5-.6,.6-1.5,0-2.1-6.2-6.1-14.6-9.7-23.3-10,.5,.6,1,1.3,1.4,1.9,1.4-4.1,3.3-8.1,5.7-11.7,2.5-3.7,5.5-6.8,8.7-10,2.9-2.9,5.7-6.1,6.8-10.1,.9-3.6,.4-7.6-2.2-10.4-1.3-1.4-3.4,.7-2.1,2.1h0Z"/>
        </g>
        <path d="M108.5,342c5.9,11.1,10.5,22.8,13.9,34.9,.5,1.9,3.4,1.1,2.9-.8-3.4-12.3-8.2-24.3-14.2-35.6-.9-1.7-3.5-.2-2.6,1.5h0Z"/>
        <g>
          <path d="M78.3,331.5c4.3-6.1,12.8-7.6,18.9-3.3,6.1,4.3,7.6,12.8,3.3,18.9-4.3,6.1-12.8,7.6-18.9,3.3-6.1-4.3-7.6-12.8-3.3-18.9Z" style="fill: #cb1515;"/>
          <path d="M89.4,354.4c-3.1,0-6.1-.9-8.6-2.7-3.3-2.3-5.5-5.8-6.2-9.8-.7-4,.2-8,2.5-11.3h0c4.8-6.8,14.2-8.5,21-3.7,6.8,4.8,8.5,14.2,3.7,21-2.3,3.3-5.8,5.5-9.8,6.2-.9,.2-1.8,.2-2.6,.2Zm-9.9-22.1c-1.9,2.6-2.6,5.9-2,9,.6,3.2,2.3,6,5,7.8,2.6,1.9,5.9,2.6,9,2,3.2-.6,6-2.3,7.8-5,3.8-5.5,2.5-13-3-16.9-5.5-3.8-13-2.5-16.9,3h0Z"/>
        </g>
        <g>
          <path d="M110.3,325.9c4.3-6.1,12.8-7.6,18.9-3.3,6.1,4.3,7.6,12.8,3.3,18.9-4.3,6.1-12.8,7.6-18.9,3.3-6.1-4.3-7.6-12.8-3.3-18.9Z" style="fill: #cb1515;"/>
          <path d="M121.4,348.8c-3,0-6-.9-8.6-2.7-3.3-2.3-5.5-5.8-6.2-9.8-.7-4,.2-8,2.5-11.3h0c4.8-6.8,14.2-8.5,21-3.7,3.3,2.3,5.5,5.8,6.2,9.8,.7,4-.2,8-2.5,11.3-2.9,4.2-7.6,6.4-12.4,6.4Zm0-27.2c-3.8,0-7.6,1.8-9.9,5.1h0c-1.9,2.6-2.6,5.9-2,9,.6,3.2,2.3,6,5,7.8,5.5,3.8,13,2.5,16.9-3,3.8-5.5,2.5-13-3-16.9-2.1-1.5-4.5-2.2-6.9-2.2Z"/>
        </g>
        <g>
          <circle cx="101.7" cy="318.8" r="13.6" transform="translate(-224.2 395.1) rotate(-85.5)" style="fill: #cb1515;"/>
          <path d="M101.7,333.9c-3,0-6-.9-8.6-2.7-6.8-4.8-8.5-14.2-3.7-21h0c4.8-6.8,14.2-8.5,21-3.7,3.3,2.3,5.5,5.8,6.2,9.8,.7,4-.2,8-2.5,11.3-2.9,4.2-7.6,6.4-12.4,6.4Zm-9.9-22c-3.8,5.5-2.5,13,3,16.9,5.5,3.8,13,2.5,16.9-3,1.9-2.6,2.6-5.9,2-9-.6-3.2-2.3-6-5-7.8-5.5-3.8-13-2.5-16.9,3h0Z"/>
        </g>
        <path d="M83.1,341.4c0-.5,0-1,0-1.5,0,.1,0,.3,0,.4,0-.5,.2-1.1,.4-1.6,0,.1-.1,.2-.2,.4,.1-.4,.3-.7,.5-1,0,0,.1-.2,.2-.2,.2-.2-.2,.3,0,0,.1-.2,.3-.3,.4-.4,.6-.6,.6-1.6,0-2.1-.6-.6-1.5-.6-2.1,0-1.6,1.6-2.4,3.9-2.2,6.1,0,.4,.1,.8,.4,1.1,.3,.3,.7,.5,1.1,.4,.4,0,.8-.1,1.1-.4,.3-.3,.5-.7,.4-1.1h0Z" style="fill: #fff;"/>
        <path d="M95.6,320s0,0,0-.1c0,.1,0,.3,0,.4,0-.4,0-.8,0-1.2,0,.1,0,.3,0,.4,0-.2,0-.4,.1-.6,0-.2,.2-.4,.2-.6,0,0-.2,.4,0,.1,0,0,0,0,0-.1,0,0,0-.2,.1-.3,0,0,.1-.2,.2-.3,0,0,.3-.4,0-.1-.2,.2,0,0,0-.1,0,0,.1-.2,.2-.2,0,0,.1-.1,.2-.2,0,0,0,0,.1,0,.2-.2-.2,.2-.1,0,.2-.1,.3-.2,.5-.3,0,0,.2,0,.3-.1,.2-.1-.3,.1-.1,0,0,0,.1,0,.2,0,.7-.3,1.3-1,1-1.8-.2-.7-1.1-1.3-1.8-1-1.4,.5-2.6,1.5-3.4,2.8-.4,.6-.6,1.3-.8,1.9-.2,.8-.2,1.6,0,2.4,0,.3,.4,.7,.7,.9,.3,.2,.8,.3,1.2,.2,.4-.1,.7-.3,.9-.7,.2-.4,.2-.7,.2-1.2h0Z" style="fill: #fff;"/>
        <path d="M116.8,336.4c0-.1,0-.3,0-.4,0,.1,0,.3,0,.4,0-.6,.3-1.2,.5-1.8,0,.1-.1,.2-.2,.4,.2-.6,.6-1.1,.9-1.6,0,.1-.2,.2-.2,.3,.3-.4,.6-.7,1-1,.6-.5,.6-1.6,0-2.1-.6-.6-1.5-.5-2.1,0-1.7,1.5-2.7,3.7-2.9,5.9,0,.8,.7,1.5,1.5,1.5,.9,0,1.4-.7,1.5-1.5h0Z" style="fill: #fff;"/>
      </g>
    </g>
  </g>
</svg>