<?xml version="1.0" encoding="UTF-8"?>
<svg id="Layer_2" data-name="Layer 2" xmlns="http://www.w3.org/2000/svg" viewBox="0 0 400.9 103.9">
  <g id="TEXT_LOGO" data-name="TEXT&amp;amp;LOGO">
    <g>
      <g>
        <path d="M34.9,11.9l.6,.5-6.7,29.6,.6,.7h.4l.8,.6v58.6l-.8,.7H15.5l-.7-.7V51.9l-.9-.6h-3.8l-.7-.7v-11.6l.7-.5,1.5-.7c.4-.2,.8-.6,1.1-1.4,.4-.7,.7-1.7,1.1-3l4.3-21.2,1.1-.5h15.7Zm25.9,0l.4,.5v2.5c0,0,.4,.6,.4,.6h38.4l.9,.7v27.9l-.9,.7h-15.2l-.9-.7v-13.3l-.8-.8h-25.6l-1,.8-2.3,7.3c-2.3,3.7-5.6,5.9-9.8,6.7h-10.2l-.7-.7v-12.5l.7-.7h2c.8-.6,1.5-1.4,2.2-2.5,.7-1.1,1.3-2.6,2-4.6l3.1-11.4,1.1-.5h16.1Zm-26.5,87l-.7-.7v-12.3l.7-.9,.6-.2c.6-.1,1.1-.7,1.5-1.6,.4-1,.6-2.3,.6-3.9l2.9-29.9,.7-.7h13.8l.9,.7-2.8,39.1c-1.2,6.1-4,9.6-8.6,10.3h-9.6Zm22.2,3.6l-.9-.7v-13.2l.9-.7h1.3c1.4-.3,2.3-2.3,2.7-5.9V34.4l.7-.7h14.1l.8,.7v57.6c-.6,6-3.2,9.5-7.7,10.4h-11.8Zm46.6-17.4l.8,.7v12.5l-.8,.7h-10.3c-5.3-1.3-8.3-4.4-9.1-9.5l-3.8-39.9,.7-.7h15.3l.7,.7,3.3,32.2c.2,1.6,1.2,2.7,2.9,3.2l.4,.2Z"/>
        <path d="M134.3,11.3l.3,.6-.8,4,.5,.7h21.2l.7,.7V93.3c-.4,3-1.6,5.2-3.6,6.6-2.1,1.7-5.2,2.6-9.2,2.6h-29.9l-.8-.7V39.5l-.7-.6h-1.6l-.8-.7v-13l.2,.2c1.7,0,3.2-1.2,4.4-3.6l3.3-10.1,1.1-.6h15.7Zm5.5,39.9V31.7l-.9-.7h-8.8l-.8,.7v19.5l.8,.6h8.8l.9-.6Zm0,36.4v-21.6l-.9-.7h-8.8l-.8,.7v21.6l.8,.6h8.8l.9-.6ZM167.5,11.9l.9-.6h13.8l.6,.6-1,3.4,.4,.6h18.6l.7,.7,.3,72c-.6,5.1-1.6,8.8-3,11-2.1,1.8-5.3,3-9.7,3.6h-11.6l-.7-.7v-13.6l.7-.6h3.7c1.2,0,2.1-1.3,2.7-3.9V31.7l-.8-.7h-6.1c-.4,0-.8,.2-1.4,.7l-.7,1.6c-1.5,1.7-2.7,2.7-3.8,3-1.9,.8-4.3,1.3-7.2,1.3h-4.5l-.7-.6v-12.3l.7-.7c1.5,0,2.8-1,3.8-3.1l4.3-9.1Zm9.5,53.6c.7,3.6,1.9,5.4,3.6,5.4v13.3l-.9,.7h-8.8c-2.5-.3-4.7-1.4-6.9-3.3l-1.4-2.9-.9-3.8-2.8-33.5,.8-.6h14.4l.8,.6,2,24Z"/>
        <path d="M232.5,11.9l.9,.5v7.3l.7,.7h4.4l.7,.6v12.9l-.7,.7h-4.4l-.7,.7v5.3l.7,.7h4.5l.7,.7v11.7l-.7,.5h-4.5l-.7,.6v41.1c-.6,3.8-2.9,6.1-7,6.8h-13l-.7-.7v-11.7l.7-.7h3.2l.7-.6v-18.9c-3.1,3.9-5.5,6.1-7.3,6.6l-2-14c2.9-2.5,6-8.1,9.3-16.6v-10.7l-.7-.7h-7.9l-.7-.7v-12.9l.7-.6h7.9l.7-.7v-7.3l.7-.5h14.5Zm19.1,1.3l.8-.8h15.7l.8,.8V94.4c0,2.1-.7,3.8-2,5.1-1.3,1.3-3.1,1.9-5.3,1.9h-16l-.8-.6v-9.5l.8-.6h5.3l.7-.7v-7.5l-.7-.6h-7.3l-.7-.7v-12l.7-.6h7.3l.7-.7v-9.2l-.7-.6h-6.3l-.8-.7v-12.1l.8-.7h6.3l.7-.6v-9.8l-.7-.7h-6.9l-.7-.5v-12.4l.7-.6h6.9l.7-.7v-6.6Zm38.6,6.6l.7,.7h7.5l.8,.6v11.6l-.8,.8h-7.5l-.7,.5v11.4l.7,.7h8.5l.9,.6v11.4l-.9,.7h-8.5l-.7,.6v10.2l.7,.7h9.6l.8,.6v12l-.8,.6h-9.6l-.7,.7v17.4l-.9,.6h-14.5l-.9-.6V13.4l.9-.7h14.5l.9,.7v6.3Z"/>
        <path d="M321.8,11.1l1.2-.6h19v.6c0,0-2.5,5.7-2.5,5.7l.2,.7h60.4l.8,.7v10c0,.5-.2,.9-.6,1.3l-13.8,20.3c-2,2.3-4.4,4.4-7.2,6.3l-5.6,1.7c-1.7,.4-3.5,.6-5.3,.6h-59.8l-.8-.6v-12.6l.8-.7h29.6l.2-.5-5.4-8.9,.2-.6h18.4l1.4,.6,5.5,8.9c.3,.3,.5,.5,.7,.6h.3c0,0,.4,0,.4,0h4.6c1,0,1.9-.2,2.9-.7,.9-.5,1.7-1,2.3-1.6l8.8-11.8-.2-.3h-45.1l-1.4,.3-1.6,2.6c-2.8,2.6-6.1,3.9-10.1,3.9l-1.5-.2h-11.1l-.8-.7v-11.9l.8-.7h3.3c2.1,0,4.3-1.5,6.4-4.4l4.8-7.9Zm76.3,80.1c0,1.7,0,2.9-.1,3.5,0,.6-.3,1.3-.6,2.1-.5,1.5-1.3,2.7-2.2,3.6-2.8,2.3-7.4,3.5-13.6,3.5h-70.6l-.7-.6V63.6l.7-.6h86.3l.9,.6v27.7Zm-17.8-.9v-14.2l-.7-.6h-50.3l-.8,.6v14.2l.8,.7h50.3l.7-.7Z"/>
      </g>
      <g>
        <g>
          <path d="M26.9,2.9l.6,.5-6.7,29.6,.6,.7h.4l.8,.6v58.6l-.8,.7H7.5l-.7-.7V42.9l-.9-.6H2.2l-.7-.7v-11.6l.7-.5,1.5-.7c.4-.2,.8-.6,1.1-1.4,.4-.7,.7-1.7,1.1-3L10.2,3.3l1.1-.5h15.7Zm25.9,0l.4,.5v2.5c0,0,.4,.6,.4,.6h38.4l.9,.7v27.9l-.9,.7h-15.2l-.9-.7v-13.3l-.8-.8h-25.6l-1,.8-2.3,7.3c-2.3,3.7-5.6,5.9-9.8,6.7h-10.2l-.7-.7v-12.5l.7-.7h2c.8-.6,1.5-1.4,2.2-2.5,.7-1.1,1.3-2.6,2-4.6l3.1-11.4,1.1-.5h16.1ZM26.3,89.9l-.7-.7v-12.3l.7-.9,.6-.2c.6-.1,1.1-.7,1.5-1.6,.4-1,.6-2.3,.6-3.9l2.9-29.9,.7-.7h13.8l.9,.7-2.8,39.1c-1.2,6.1-4,9.6-8.6,10.3h-9.6Zm22.2,3.6l-.9-.7v-13.2l.9-.7h1.3c1.4-.3,2.3-2.3,2.7-5.9V25.4l.7-.7h14.1l.8,.7v57.6c-.6,6-3.2,9.5-7.7,10.4h-11.8Zm46.6-17.4l.8,.7v12.5l-.8,.7h-10.3c-5.3-1.3-8.3-4.4-9.1-9.5l-3.8-39.9,.7-.7h15.3l.7,.7,3.3,32.2c.2,1.6,1.2,2.7,2.9,3.2l.4,.2Z" style="fill: #fff;"/>
          <path d="M60.4,94.9h-11.8c-.3,0-.7-.1-.9-.3l-.9-.7c-.4-.3-.6-.7-.6-1.2v-13.2c0-.5,.2-.9,.6-1.2l.9-.7c.3-.2,.6-.3,.9-.3h1c.3-.2,1.1-.9,1.5-4.5V25.4c0-.4,.2-.8,.4-1.1l.7-.7c.3-.3,.7-.4,1.1-.4h14.1c.4,0,.7,.1,1,.4l.8,.7c.3,.3,.5,.7,.5,1.1v57.6c0,0,0,.1,0,.2-.7,6.7-3.7,10.6-8.9,11.7-.1,0-.2,0-.3,0Zm-11.2-3h11c3.7-.9,5.8-3.8,6.4-9V26.2h-12.6v46.7c0,0,0,.1,0,.2-.3,2.8-1,6.6-3.9,7.2-.1,0-.2,0-.3,0h-.6v11.6Zm-27.4,3H7.5c-.4,0-.8-.2-1.1-.4l-.7-.7c-.3-.3-.4-.7-.4-1.1V43.8H2.2c-.4,0-.8-.2-1.1-.4l-.7-.7c-.3-.3-.4-.7-.4-1.1v-11.6c0-.5,.2-.9,.6-1.2l.7-.5c0,0,.2-.1,.3-.2l1.5-.6s.2-.2,.5-.7c.3-.6,.6-1.5,1-2.7L8.7,3c0-.5,.4-.9,.9-1.1l1.1-.5c.2,0,.4-.1,.6-.1h15.7c.4,0,.7,.1,1,.3l.6,.5c.4,.4,.6,.9,.5,1.5l-3.9,17.4,.2-.2c.3-.3,.7-.4,1.1-.4h1.5c.5-.4,1-1.1,1.4-1.8,.6-1,1.2-2.4,1.8-4.3l3.1-11.3c.1-.4,.4-.8,.8-1l1.1-.5c.2,0,.4-.1,.6-.1h16.1c.5,0,.9,.2,1.2,.6l.4,.5c.2,.3,.3,.6,.3,1v1.5c0,0,37.3,0,37.3,0,.3,0,.7,.1,.9,.3l.9,.7c.4,.3,.6,.7,.6,1.2v27.9c0,.5-.2,.9-.6,1.2l-.9,.7c-.3,.2-.6,.3-.9,.3h-15.2c-.3,0-.7-.1-.9-.3l-.9-.7c-.4-.3-.6-.7-.6-1.2v-12.6h-24.4l-.2,.2-2.2,6.9c0,.1,0,.2-.2,.3-2.5,4-6.2,6.5-10.8,7.3,0,0-.2,0-.3,0h-10.2c-.4,0-.8-.2-1.1-.4l-.7-.7c-.3-.3-.4-.7-.4-1.1v-10.1l-1.7,7.3c0,0,.1,0,.2,.1l.8,.6c.4,.3,.6,.7,.6,1.2v58.6c0,.4-.2,.8-.5,1.1l-.8,.7c-.3,.2-.6,.4-1,.4Zm-13.5-3h12.8V35.1c-.3,0-.6-.2-.8-.5l-.6-.7c-.3-.4-.4-.8-.3-1.3L25.7,4.4H11.5S7.4,24.8,7.4,24.8c0,0,0,0,0,.1-.4,1.4-.8,2.4-1.2,3.2-.5,1-1.1,1.7-1.8,2l-1.4,.6v10h2.9c.3,0,.6,0,.8,.3l.9,.6c.4,.3,.7,.7,.7,1.2v49.1ZM77.4,34.2h13.9V7.9H53.6c-.4,0-.9-.2-1.2-.5l-.5-.6c-.2-.3-.4-.6-.3-1v-1.4c0,0-14.6,0-14.6,0h-.1c0,0-2.9,10.8-2.9,10.8-.7,2.2-1.4,3.8-2.2,5-.8,1.2-1.6,2.2-2.6,2.9-.3,.2-.6,.3-.9,.3h-1.2v10.8h9.2c3.7-.7,6.5-2.6,8.5-5.8l2.3-7.2c0-.3,.3-.5,.5-.7l1-.8c.3-.2,.6-.3,.9-.3h25.6c.4,0,.8,.2,1.1,.4l.8,.8c.3,.3,.4,.7,.4,1.1v12.5Zm17.7,57.1h-10.3c-.1,0-.2,0-.4,0-5.9-1.4-9.3-5-10.2-10.7l-3.8-40c0-.4,.1-.9,.4-1.2l.7-.7c.3-.3,.7-.4,1.1-.4h15.3c.4,0,.8,.2,1.1,.4l.7,.7c.2,.2,.4,.6,.4,.9l3.3,32.2c0,.7,.4,1.5,1.8,1.9,0,0,.2,0,.2,0l.4,.2c.1,0,.2,.1,.3,.2l.8,.7c.3,.3,.5,.7,.5,1.1v12.5c0,.4-.2,.8-.5,1.1l-.8,.7c-.3,.2-.6,.4-1,.4Zm-10.2-3h9.4v-11l-.2-.2c-2.8-.9-3.6-2.9-3.8-4.4l-3.2-31.5h-13.6l3.7,39c.7,4.3,3.2,7,7.8,8.1Zm-49.1,3h-9.6c-.4,0-.8-.2-1.1-.4l-.7-.7c-.3-.3-.4-.7-.4-1.1v-12.3c0-.3,.1-.7,.3-.9l.7-.9c.2-.2,.4-.4,.7-.5l.6-.2s0,0,.1,0c0,0,.2-.2,.5-.8,.3-.8,.5-1.9,.5-3.3s0,0,0-.1l2.9-29.9c0-.3,.2-.7,.4-.9l.7-.7c.3-.3,.7-.4,1.1-.4h13.8c.3,0,.7,.1,.9,.3l.9,.7c.4,.3,.6,.8,.6,1.3l-2.8,39.1c0,0,0,.1,0,.2-1.3,6.8-4.6,10.7-9.8,11.5,0,0-.2,0-.2,0Zm-8.7-3h8.6c3.8-.7,6.2-3.7,7.2-9l2.7-38h-12.4l-2.8,29.1c0,1.8-.3,3.2-.8,4.4-.6,1.4-1.4,2.2-2.5,2.5h0s0,.1,0,.1v10.9Z"/>
        </g>
        <g>
          <path d="M126.3,2.3l.3,.6-.8,4,.5,.7h21.2l.7,.7V84.3c-.4,3-1.6,5.2-3.6,6.6-2.1,1.7-5.2,2.6-9.2,2.6h-29.9l-.8-.7V30.5l-.7-.6h-1.6l-.8-.7v-13l.2,.2c1.7,0,3.2-1.2,4.4-3.6l3.3-10.1,1.1-.6h15.7Zm5.5,39.9V22.7l-.9-.7h-8.8l-.8,.7v19.5l.8,.6h8.8l.9-.6Zm0,36.4v-21.6l-.9-.7h-8.8l-.8,.7v21.6l.8,.6h8.8l.9-.6ZM159.5,2.9l.9-.6h13.8l.6,.6-1,3.4,.4,.6h18.6l.7,.7,.3,72c-.6,5.1-1.6,8.8-3,11-2.1,1.8-5.3,3-9.7,3.6h-11.6l-.7-.7v-13.6l.7-.6h3.7c1.2,0,2.1-1.3,2.7-3.9V22.7l-.8-.7h-6.1c-.4,0-.8,.2-1.4,.7l-.7,1.6c-1.5,1.7-2.7,2.7-3.8,3-1.9,.8-4.3,1.3-7.2,1.3h-4.5l-.7-.6V15.7l.7-.7c1.5,0,2.8-1,3.8-3.1l4.3-9.1Zm9.5,53.6c.7,3.6,1.9,5.4,3.6,5.4v13.3l-.9,.7h-8.8c-2.5-.3-4.7-1.4-6.9-3.3l-1.4-2.9-.9-3.8-2.8-33.5,.8-.6h14.4l.8,.6,2,24Z" style="fill: #fff;"/>
          <path d="M181,95.6h-11.6c-.4,0-.8-.2-1.1-.4l-.7-.7c-.3-.3-.4-.7-.4-1.1v-13.6c0-.4,.2-.9,.5-1.1l.7-.6c.3-.2,.6-.4,1-.4h3.7s.6-.3,1.2-2.6V23.5h-5.3s0,0-.1,.1l-.5,1.3c0,.2-.2,.3-.3,.4-1.6,1.9-3.1,3-4.4,3.4-2,.9-4.6,1.4-7.7,1.4h-4.5c-.4,0-.7-.1-1-.4l-.7-.6s0,0-.1-.1v2.7c.1-.2,.2-.3,.4-.5l.8-.6c.3-.2,.6-.3,.9-.3h14.4c.3,0,.6,.1,.9,.3l.8,.6c.3,.3,.6,.6,.6,1.1l2,23.9c.6,3,1.5,4.1,2.1,4.1s1.5,.7,1.5,1.5v13.3c0,.5-.2,.9-.6,1.2l-.9,.7c-.3,.2-.6,.3-.9,.3h-8.8c0,0-.1,0-.2,0-2.8-.3-5.4-1.5-7.7-3.7-.1-.1-.3-.3-.4-.5l-1.4-2.9c0,0,0-.2-.1-.3l-.9-3.8c0,0,0-.1,0-.2l-2.6-31.2v49.4c0,0,0,.1,0,.2-.4,3.4-1.8,6-4.2,7.6-2.4,1.9-5.8,2.9-10.1,2.9h-29.9c-.4,0-.7-.1-1-.4l-.8-.7c-.3-.3-.5-.7-.5-1.1V31.4h-.8c-.4,0-.7-.1-1-.4l-.8-.7c-.3-.3-.5-.7-.5-1.1v-13c0-.6,.4-1.2,.9-1.4,.4-.2,.8-.1,1.2,0,.9-.2,1.8-1.1,2.6-2.6l3.2-9.9c.1-.4,.4-.7,.7-.9l1.1-.6c.2-.1,.5-.2,.7-.2h15.7c.6,0,1.1,.3,1.3,.8l.3,.6c.1,.3,.2,.6,.1,1l-.6,2.9h20c.4,0,.8,.2,1.1,.4l.7,.7c.3,.3,.4,.7,.4,1.1v6.5s0,0,0,0l.7-.7c.3-.3,.7-.4,1.1-.4s1.4,0,2.4-2.2l4.3-9.1c.1-.2,.3-.5,.5-.6l.9-.6c.2-.2,.5-.3,.8-.3h13.8c.4,0,.8,.2,1.1,.4l.6,.6c.4,.4,.5,.9,.4,1.5l-.6,2.1h17.1c.4,0,.8,.2,1.1,.4l.7,.7c.3,.3,.4,.7,.4,1.1l.3,72c0,0,0,.1,0,.2-.6,5.4-1.7,9.2-3.2,11.6,0,.1-.2,.2-.3,.3-2.3,2-5.7,3.3-10.5,3.9,0,0-.1,0-.2,0Zm-10.8-3h10.7c3.9-.5,6.8-1.6,8.6-3.1,1.2-2.1,2.1-5.5,2.7-10.1l-.3-71.1h-17.7c-.5,0-1-.3-1.2-.7l-.4-.6c-.2-.4-.3-.8-.2-1.2l.6-2.1h-12.3c0,0-4.1,8.8-4.1,8.8-1.3,2.7-2.9,3.6-4.3,3.9v10.6h3.7c2.7,0,4.9-.4,6.5-1.1,0,0,.1,0,.2,0,.4-.1,1.3-.6,2.9-2.4l.6-1.4c0-.2,.2-.4,.4-.6,.8-.7,1.6-1,2.3-1h6.1c.4,0,.7,.1,1,.4l.8,.7c.3,.3,.5,.7,.5,1.1v52.7c0,.1,0,.2,0,.4-.3,1.2-1.3,5-4.2,5h-2.9v11.9Zm-64-.7h29.1c3.6,0,6.4-.8,8.2-2.3,0,0,0,0,.1,0,1.6-1.1,2.6-2.9,2.9-5.4V9h-20.3c-.5,0-.9-.2-1.2-.6l-.5-.7c-.2-.3-.3-.8-.3-1.2l.5-2.8h-14.1c0,.1-3.1,9.6-3.1,9.6,0,0,0,.1,0,.2-1.2,2.4-2.7,3.8-4.5,4.2v10.6h.9c.4,0,.7,.1,1,.4l.7,.6c.3,.3,.5,.7,.5,1.1v61.4Zm56.7-17.6h8.1v-11.3c-1.7-.8-2.9-2.9-3.5-6.3,0,0,0-.1,0-.2l-2-23.2h-12.9l2.7,32.3,.8,3.5,1.2,2.5c1.8,1.6,3.7,2.5,5.7,2.7Zm-32,6.4h-8.8c-.3,0-.6-.1-.9-.3l-.8-.6c-.4-.3-.6-.7-.6-1.2v-21.6c0-.4,.2-.8,.5-1.1l.8-.7c.3-.2,.6-.4,1-.4h8.8c.3,0,.7,.1,.9,.3l.9,.7c.4,.3,.6,.7,.6,1.2v21.6c0,.5-.3,1-.7,1.2l-.9,.6c-.2,.2-.5,.3-.8,.3Zm-8.1-3h7.4v-19.8h-7.4v19.8Zm8.1-33.4h-8.8c-.3,0-.6-.1-.9-.3l-.8-.6c-.4-.3-.6-.7-.6-1.2V22.7c0-.4,.2-.8,.5-1.1l.8-.7c.3-.2,.6-.4,1-.4h8.8c.3,0,.7,.1,.9,.3l.9,.7c.4,.3,.6,.7,.6,1.2v19.5c0,.5-.3,1-.7,1.2l-.9,.6c-.2,.2-.5,.3-.8,.3Zm-8.1-3h7.4V23.5h-7.4v17.8Z"/>
        </g>
        <g>
          <path d="M224.5,2.9l.9,.5v7.3l.7,.7h4.4l.7,.6v12.9l-.7,.7h-4.4l-.7,.7v5.3l.7,.7h4.5l.7,.7v11.7l-.7,.5h-4.5l-.7,.6v41.1c-.6,3.8-2.9,6.1-7,6.8h-13l-.7-.7v-11.7l.7-.7h3.2l.7-.6v-18.9c-3.1,3.9-5.5,6.1-7.3,6.6l-2-14c2.9-2.5,6-8.1,9.3-16.6v-10.7l-.7-.7h-7.9l-.7-.7V11.9l.7-.6h7.9l.7-.7V3.3l.7-.5h14.5Zm19.1,1.3l.8-.8h15.7l.8,.8V85.4c0,2.1-.7,3.8-2,5.1-1.3,1.3-3.1,1.9-5.3,1.9h-16l-.8-.6v-9.5l.8-.6h5.3l.7-.7v-7.5l-.7-.6h-7.3l-.7-.7v-12l.7-.6h7.3l.7-.7v-9.2l-.7-.6h-6.3l-.8-.7v-12.1l.8-.7h6.3l.7-.6v-9.8l-.7-.7h-6.9l-.7-.5V11.9l.7-.6h6.9l.7-.7V4.1Zm38.6,6.6l.7,.7h7.5l.8,.6v11.6l-.8,.8h-7.5l-.7,.5v11.4l.7,.7h8.5l.9,.6v11.4l-.9,.7h-8.5l-.7,.6v10.2l.7,.7h9.6l.8,.6v12l-.8,.6h-9.6l-.7,.7v17.4l-.9,.6h-14.5l-.9-.6V4.4l.9-.7h14.5l.9,.7v6.3Z" style="fill: #fff;"/>
          <path d="M218.4,94.9h-13c-.4,0-.8-.2-1.1-.4l-.7-.7c-.3-.3-.4-.7-.4-1.1v-11.7c0-.4,.2-.8,.4-1.1l.7-.7c.3-.3,.7-.4,1.1-.4h2.4v-13.9c-2.1,2.2-3.8,3.5-5.3,4-.4,.1-.9,0-1.2-.2-.4-.2-.6-.6-.7-1l-2-14c0-.5,.1-1,.5-1.3,2.7-2.3,5.6-7.6,8.8-15.8v-9.6h-7.1c-.4,0-.8-.2-1.1-.4l-.7-.7c-.3-.3-.4-.7-.4-1.1V11.9c0-.4,.2-.9,.5-1.1l.7-.6c.3-.2,.6-.4,1-.4h7.1V3.3c0-.5,.2-.9,.6-1.2l.7-.5c.3-.2,.6-.3,.9-.3h14.5c.3,0,.5,0,.7,.2l.9,.5c.5,.3,.8,.8,.8,1.3v6.5h3.5c.4,0,.7,.1,1,.4l.7,.6c.3,.3,.5,.7,.5,1.1v12.9c0,.4-.2,.8-.4,1.1l-.7,.7c-.3,.3-.7,.4-1.1,.4h-3.5v3.7h3.7c.4,0,.8,.2,1.1,.4l.7,.7c.3,.3,.4,.7,.4,1.1v11.7c0,.5-.2,.9-.6,1.2l-.7,.5c-.3,.2-.6,.3-.9,.3h-3.7v40.2c0,0,0,.2,0,.2-.7,4.4-3.5,7.2-8.2,8,0,0-.2,0-.3,0Zm-12.1-3h12c3.3-.6,5.1-2.3,5.6-5.4V45.6c0-.4,.2-.9,.5-1.1l.7-.6c.3-.2,.6-.4,1-.4h3.7v-9.9h-3.7c-.4,0-.8-.2-1.1-.4l-.7-.7c-.3-.3-.4-.7-.4-1.1v-5.3c0-.4,.2-.8,.4-1.1l.7-.7c.3-.3,.7-.4,1.1-.4h3.5V12.9h-3.5c-.4,0-.8-.2-1.1-.4l-.7-.7c-.3-.3-.4-.7-.4-1.1V4.4h-13v6.3c0,.4-.2,.8-.4,1.1l-.7,.7c-.3,.3-.7,.4-1.1,.4h-7.1v11.1h7.1c.4,0,.8,.2,1.1,.4l.7,.7c.3,.3,.4,.7,.4,1.1v10.7c0,.2,0,.4,0,.5-3.2,8.3-6.2,13.8-9.1,16.7l1.6,11.1c1.1-.8,2.7-2.4,4.9-5.2,.4-.5,1.1-.7,1.7-.5,.6,.2,1,.8,1,1.4v18.9c0,.4-.2,.9-.5,1.1l-.7,.6c-.3,.2-.6,.4-1,.4h-2.4v10.1Zm75.1,2.3h-14.5c-.3,0-.6,0-.8-.3l-.9-.6c-.4-.3-.7-.7-.7-1.2V4.4c0-.5,.2-.9,.6-1.2l.9-.7c.3-.2,.6-.3,.9-.3h14.5c.3,0,.7,.1,.9,.3l.9,.7c.4,.3,.6,.7,.6,1.2v5.5h6.7c.3,0,.6,.1,.9,.3l.8,.6c.4,.3,.6,.7,.6,1.2v11.6c0,.4-.2,.8-.4,1.1l-.8,.8c-.3,.3-.7,.4-1.1,.4h-6.7v9.6h7.7c.3,0,.6,0,.8,.3l.9,.6c.4,.3,.7,.7,.7,1.2v11.4c0,.5-.2,.9-.6,1.2l-.9,.7c-.3,.2-.6,.3-.9,.3h-7.7v8.4h8.7c.3,0,.6,.1,.9,.3l.8,.6c.4,.3,.6,.7,.6,1.2v12c0,.5-.2,.9-.6,1.2l-.8,.6c-.3,.2-.6,.3-.9,.3h-8.7v16.6c0,.5-.3,1-.7,1.2l-.9,.6c-.2,.2-.5,.3-.8,.3Zm-13.9-3h13.2v-16.5c0-.4,.2-.8,.4-1.1l.7-.7c.3-.3,.7-.4,1.1-.4h8.8v-10.1h-8.8c-.4,0-.8-.2-1.1-.4l-.7-.7c-.3-.3-.4-.7-.4-1.1v-10.2c0-.4,.2-.9,.5-1.1l.7-.6c.3-.2,.6-.4,1-.4h7.9v-9.7h-7.9c-.4,0-.8-.2-1.1-.4l-.7-.7c-.3-.3-.4-.7-.4-1.1v-11.4c0-.5,.2-.9,.6-1.2l.7-.5c.3-.2,.6-.3,.9-.3h6.8V12.9h-6.8c-.4,0-.8-.2-1.1-.4l-.7-.7c-.3-.3-.4-.7-.4-1.1V5.2h-13.2V91.3Zm-13.9,2.6h-16c-.3,0-.6-.1-.9-.3l-.8-.6c-.4-.3-.6-.7-.6-1.2v-9.5c0-.5,.2-.9,.6-1.2l.8-.6c.3-.2,.6-.3,.9-.3h4.5v-5.8h-6.5c-.4,0-.8-.2-1.1-.4l-.7-.7c-.3-.3-.4-.7-.4-1.1v-12c0-.4,.2-.9,.5-1.1l.7-.6c.3-.2,.6-.4,1-.4h6.5v-7.4h-5.5c-.4,0-.7-.1-1-.4l-.8-.7c-.3-.3-.5-.7-.5-1.1v-12.1c0-.4,.2-.8,.5-1.1l.8-.7c.3-.2,.6-.4,1-.4h5.5v-8h-6c-.3,0-.6,0-.9-.3l-.7-.5c-.4-.3-.6-.7-.6-1.2V11.9c0-.4,.2-.9,.5-1.1l.7-.6c.3-.2,.6-.4,1-.4h6V4.1c0-.4,.2-.8,.4-1.1l.8-.8c.3-.3,.7-.4,1.1-.4h15.7c.4,0,.8,.2,1.1,.4l.8,.8c.3,.3,.4,.7,.4,1.1V85.4c0,2.5-.8,4.6-2.4,6.2-1.6,1.5-3.7,2.3-6.3,2.3Zm-15.2-3h15.2c1.8,0,3.2-.5,4.2-1.5,1-1,1.5-2.3,1.5-4V4.8h-14.2v5.8c0,.4-.2,.8-.4,1.1l-.7,.7c-.3,.3-.7,.4-1.1,.4h-6v10.4h6c.4,0,.8,.2,1.1,.4l.7,.7c.3,.3,.4,.7,.4,1.1v9.8c0,.4-.2,.9-.5,1.1l-.7,.6c-.3,.2-.6,.4-1,.4h-5.6v10.4h5.6c.4,0,.7,.1,1,.4l.7,.6c.3,.3,.5,.7,.5,1.1v9.2c0,.4-.2,.8-.4,1.1l-.7,.7c-.3,.3-.7,.4-1.1,.4h-6.5v10.2h6.5c.4,0,.7,.1,1,.4l.7,.6c.3,.3,.5,.7,.5,1.1v7.5c0,.4-.2,.8-.4,1.1l-.7,.7c-.3,.3-.7,.4-1.1,.4h-4.6v7.6Z"/>
        </g>
        <g>
          <path d="M313.8,2.1l1.2-.6h19v.6c0,0-2.5,5.7-2.5,5.7l.2,.7h60.4l.8,.7v10c0,.5-.2,.9-.6,1.3l-13.8,20.3c-2,2.3-4.4,4.4-7.2,6.3l-5.6,1.7c-1.7,.4-3.5,.6-5.3,.6h-59.8l-.8-.6v-12.6l.8-.7h29.6l.2-.5-5.4-8.9,.2-.6h18.4l1.4,.6,5.5,8.9c.3,.3,.5,.5,.7,.6h.3c0,0,.4,0,.4,0h4.6c1,0,1.9-.2,2.9-.7,.9-.5,1.7-1,2.3-1.6l8.8-11.8-.2-.3h-45.1l-1.4,.3-1.6,2.6c-2.8,2.6-6.1,3.9-10.1,3.9l-1.5-.2h-11.1l-.8-.7V15l.8-.7h3.3c2.1,0,4.3-1.5,6.4-4.4l4.8-7.9Zm76.3,80.1c0,1.7,0,2.9-.1,3.5,0,.6-.3,1.3-.6,2.1-.5,1.5-1.3,2.7-2.2,3.6-2.8,2.3-7.4,3.5-13.6,3.5h-70.6l-.7-.6V54.6l.7-.6h86.3l.9,.6v27.7Zm-17.8-.9v-14.2l-.7-.6h-50.3l-.8,.6v14.2l.8,.7h50.3l.7-.7Z" style="fill: #fff;"/>
          <path d="M373.4,96.4h-70.6c-.4,0-.7-.1-1-.4l-.7-.6c-.3-.3-.5-.7-.5-1.1V54.6c0-.4,.2-.9,.5-1.1l.7-.6c.3-.2,.6-.4,1-.4h86.3c.3,0,.6,0,.8,.3l.9,.6c.4,.3,.7,.7,.7,1.2v27.7c0,1.8,0,3.1-.2,3.8-.1,.7-.4,1.5-.7,2.4-.6,1.6-1.4,3-2.6,4.1-3.2,2.6-8,3.9-14.7,3.9Zm-69.8-3h69.8c5.9,0,10.1-1.1,12.7-3.1,.7-.7,1.3-1.7,1.8-2.9,.3-.7,.5-1.3,.6-1.8,0-.4,.1-1.2,.1-3.3v-26.7h-84.9v37.9Zm67.9-9.9h-50.3c-.4,0-.7-.1-1-.4l-.8-.7c-.3-.3-.5-.7-.5-1.1v-14.2c0-.5,.2-.9,.6-1.2l.8-.6c.3-.2,.6-.3,.9-.3h50.3c.4,0,.7,.1,1,.4l.7,.6c.3,.3,.5,.7,.5,1.1v14.2c0,.4-.2,.8-.4,1.1l-.7,.7c-.3,.3-.7,.4-1.1,.4Zm-49.5-3h48.7v-12.5h-48.7v12.5Zm38.3-29.8h-59.8c-.3,0-.6-.1-.9-.3l-.8-.6c-.4-.3-.6-.7-.6-1.2v-12.6c0-.4,.2-.8,.5-1.1l.8-.7c.3-.2,.6-.4,1-.4h27.4l-4.3-7.1c-.2-.4-.3-.8-.1-1.3l.2-.6c.2-.6,.8-1,1.4-1h18.4c.2,0,.4,0,.6,.1l1.4,.6c.3,.1,.5,.3,.7,.6l5.4,8.7c0,0,.1,0,.2,0h4.6c.7,0,1.5-.2,2.2-.5,.7-.4,1.3-.8,1.8-1.2l7.2-9.6h-43c0,.1-1.3,2.2-1.3,2.2,0,.1-.2,.2-.2,.3-3,2.8-6.8,4.3-11.1,4.3s-.1,0-.2,0l-1.4-.2h-11c-.4,0-.7-.1-1-.4l-.8-.7c-.3-.3-.5-.7-.5-1.1V15c0-.4,.2-.8,.5-1.1l.8-.7c.3-.2,.6-.4,1-.4h3.3c1.6,0,3.3-1.2,5.1-3.7l4.8-7.9c.1-.2,.4-.4,.6-.6l1.2-.6c.2-.1,.4-.2,.7-.2h19c.7,0,1.4,.5,1.5,1.3v.6c.1,.3,.1,.6,0,.9l-1.9,4.3h58.6c.4,0,.7,.1,1,.4l.8,.7c.3,.3,.5,.7,.5,1.1v10c0,.6-.2,1.4-.9,2.2l-13.8,20.2c0,0,0,.1-.1,.1-2.1,2.3-4.6,4.5-7.4,6.5-.1,0-.3,.2-.4,.2l-5.6,1.7s0,0-.1,0c-1.8,.4-3.7,.6-5.6,.6Zm-59.1-3h59.1c1.7,0,3.3-.2,4.9-.5l5.3-1.7c2.6-1.8,4.8-3.8,6.6-5.8l13.8-20.2c0,0,.1-.1,.2-.2,.1-.1,.1-.2,.1-.2V10h-59.7c-.7,0-1.3-.4-1.4-1.1l-.2-.7c0-.3,0-.7,0-1l1.9-4.2h-16.7l-.5,.2-4.6,7.6s0,0,0,.1c-2.4,3.3-5,5-7.6,5h-2.6v10.2h10.4c0,0,.1,0,.2,0l1.3,.2c3.5,0,6.3-1.1,8.8-3.3l1.5-2.4c.2-.3,.6-.6,1-.7l1.4-.3c.1,0,.2,0,.3,0h45.1c.5,0,1,.3,1.2,.7l.2,.3c.4,.5,.3,1.2,0,1.7l-8.8,11.8s0,0,0,.1c-.7,.8-1.6,1.5-2.7,2-1.1,.5-2.3,.8-3.5,.8h-4.4c-.4,.2-.8,.2-1.1,.1h-.3c-.5-.3-.9-.6-1.4-1.2,0,0,0,0-.1-.1l-5.3-8.5-.6-.3h-15.9l4.4,7.2c.2,.4,.3,.9,.1,1.3l-.2,.5c-.2,.6-.8,.9-1.4,.9h-28.9v10.8Z"/>
        </g>
      </g>
    </g>
  </g>
</svg>