<?xml version="1.0" encoding="UTF-8"?>
<svg id="Layer_2" data-name="Layer 2" xmlns="http://www.w3.org/2000/svg" viewBox="0 0 398 102.7">
  <g id="TEXT_LOGO" data-name="TEXT&amp;amp;LOGO">
    <g>
      <g>
        <path d="M34.6,93.4c-1.9,5.5-5.8,8.6-11.9,9.2H10.2l-.7-.7v-12.4l.7-.7h3.3c2.1-.3,3.8-1.6,5-4l3.6-16.5,1-.7h16.5l.4,.7-5.3,25ZM29.3,19.1c.9,2.6,2.7,3.9,5.4,3.9l.4-.2h4.4l.7,.7v12.3l-.7,.7h-12.2c-2.9,0-5.3-.6-7.3-1.9-2-1.3-3.4-3.1-4.4-5.5L10.2,12.1l.5-.6h15.5l1,.6,2.2,7Zm1.5,27.7c1.5,1.9,3.5,2.8,6.1,2.8h3.3l.7,.8v13.1l-.7,.5h-9.6l-1.3,.2c-3.2,0-5.9-.8-8.1-2.3-2.3-1.5-4.1-3.8-5.4-6.7l-4.9-14.2,.4-.6H27.6l1.1,.6,2.2,5.9ZM100.9,10.7l.8,.6v6.6c0,6.7-4.6,10.1-13.9,10.1h-5l-.8,.6v5.7l.8,.7h19.7l.7,.7v12.2l-.7,.7h-19.7l-.8,.7v6l.8,.7h18.4l.8,.6v33.2c-1.1,8.2-6.6,12.4-16.5,12.4H46l-.7-.7V56.3l.7-.6h17.7l.8-.7v-6l-.8-.7h-18l-.7-.7v-12.2l.7-.7h18l.8-.7v-5.2l-.8-.7h-18.2l-.8-.7V14.7l.8-.6h33.4c2.6-.4,4.3-1.5,5.2-3.4h16.7Zm-16.1,76.6v-16.7l-.8-.6h-21.5l-.8,.6v16.7l.8,.7h21.5l.8-.7Z"/>
        <path d="M141.9,11.7l.8-.7h13.6l.7,.7v7.8c-.4,1.9-1,3.2-1.7,3.8-1.9,1.4-3.6,2-5.2,2h-5.3c0,0-.9,.5-.9,.5v1.5l.9,.7h14.7l.7-.7v-8.7l.8-.7h3.4l.7-.7v-5.6l.7-.7h14.2l.8,.7v5.6l.8,.7h19.2l.7,.7V91.5c-.6,3-1.6,5.5-3.1,7.5-2.3,1.5-4.3,2.2-6.2,2.2h-9.1l-.9-.6v-11.4c1.5-.2,2.5-2.1,3.1-5.6V33l-.8-.6h-3l-.8,.6v58.1c-.8,3.4-1.7,5.8-2.7,7.3-1.7,1.7-3.4,2.7-5.1,2.9h-10.3l-.8-.6v-11.1c1.5-.6,2.6-2.5,3.3-5.7V33l-.7-.6h-2.8l-.8,.6v5.1l-.9,.6h-15.1l-.9,.7v1.9l.9,.5h14l.7,.8v24.3c-.6,2.6-1.7,4.7-3.3,6.4-2,1.4-4,2.3-6.1,2.8h-5.3l-.9,.7v2.1l.9,.7h13.4l.7,.6v8.2l-.7,.6h-13.4l-.9,.7v1.9l.9,.7h14l.7,.6v8.8l-.7,.6h-48l-.8-.6v-8.8l.8-.6h16l.9-.7v-1.9l-.9-.7h-14l-.7-.6v-8.2l.7-.6h14l.9-.7v-2.1l-.9-.7h-14.3l-.7-.7V42.6l.7-.8h14.3l.9-.5v-2.3l-.9-.6h-16.3l-.8-.7v-9.2l.8-.6h16.3l.9-.7v-1.5l-.9-.6h-14.3l-.7-.7V15l.7-.7h25.6c2.4,0,3.8-.6,4-1.7v-1Zm-14.4,42.4v-1.5l-.9-.6h-2.3l-.8,.6v1.5l.8,.7h2.3l.9-.7Zm0,12.2v-1.5l-.9-.8h-2.3l-.8,.8v1.5l.8,.6h2.3l.9-.6Zm20.8-12.2v-1.5l-.9-.6h-2.7l-.9,.6v1.5l.9,.7h2.7l.9-.7Zm0,12.2v-1.5l-.9-.8h-2.7l-.9,.8v1.5l.9,.6h2.7l.9-.6Z"/>
        <path d="M261.3,85.4l-1.3,.3-1.5,2.6,.3,.2h16.1l1.5,.3,1.6,1c1.7,.6,3.5,1,5.4,1h.9c0,0,13.9,0,13.9,0l.7,.7,.6,10.8-.8,.6h-24.4c-2.6,0-4.9-.4-6.9-1.1-1.9-.6-3.8-1.5-5.7-2.9l-6.6-5.8h-1.3l-5.4,6.3c-2.7,2.3-6.8,3.5-12.2,3.5h-25.6l-.8-.6v-10.4l.8-.6h17.3c2.7,0,5.3-1.1,7.7-3.3l1.3-1.8-.3-.6h-27.7l-.9-.7v-10.4l.9-.7h35l.9-.6v-1.8l-.9-.7h-10.7l-.8-.7v-15.8l-.7-.7h-3.7l-.7,.7v8.3c-.4,2.1-1.3,3.8-2.6,5.1-1.3,1.2-3.1,1.7-5.4,1.7h-10.1l-.7-.7v-8.7l.7-.7h2.4l.7-.6v-4.5l-.7-.7h-1.4l-.6-.6v-9.2l.6-.7h21.4l.7-.6v-4.7l-.7-.6h-19.3l-.7-.7V16l.7-.7h12.4l.8,.7v10.2l.7,.6h4.9l.8-.6V13.4l.7-.6h15.9l.9,.6v54.5l.8,.7h11.6l.8,.7v3.8l.8,.6h20.4l.9-.6v-.9l.7-.7h9.7l-.2,.7c0,1,.3,1.5,.9,1.5h3.9l.7,.7v10.4l-.7,.7h-38.2ZM297.8,14.9l.9,.7v14.8l-.5,1-12.3,11.6,.3,.4h9.9l.9,.5v1.7l.7,.6h2.3l.7,.6v8.3l-.7,.7h-2.3l-.7,.5v6.2c-.7,5.6-3.9,8.4-9.5,8.4h-9.3l-.8-.6v-7.5l.8-.7h1.8l.7-.6v-5.2l-.7-.5h-27.4l-.7-.7v-8.3l.7-.6h26.6l.8-.6v-1.1l-.8-.7h-25.5l-.8-.5v-7.5l.8-.7h6.3v-.7c0,0-1.5-3.8-1.5-3.8l.4-.6h8.9l1.4,.6,1.5,3.2c.3,.4,.6,.6,1,.7h.4c0,0,2.2,0,2.2,0l.2-.6-3.8-6.6,.3-.7h8.8l1.3,.2,1.1,1.7,1,.2,4.5-4.3-.2-.4h-18c-1.4,2.7-4,4.1-8,4.1h-7.5l-.8-.7v-8.7c1.2,0,2.2-.2,3-.7,.9-.5,1.6-1.2,2.2-2.1l2.5-4.8,1.3-.7h15.5l.6,.7-1.3,3.1,.4,.7h20.7Zm-30.3,52.8c-3.5-.6-6.3-1.9-8.3-4.1l-3.3-5,.2-.7h13.1c.9,1.9,3,2.8,6.2,2.8v6.4l-.8,.6h-7.2Z"/>
        <path d="M309.3,100.9l-.7-.6V55.4l.7-.6h41.1l.8,.6v34.5c-.4,3.3-1.7,5.9-4.1,8-2.3,2-5.4,3-9.3,3h-28.5ZM396.5,12.2l.7,.7v25.8l-.7,4.3c-.2,1.2-.5,2.2-1.1,3-1,1.4-2.3,2.5-4.1,3.5-1.8,.8-3.8,1.3-6,1.3h-74.8l-.7-.6V12.9l.7-.7h85.9Zm-72.3,76.1h11.2l.7-.6v-18.3l-.7-.7h-11.2l-.7,.7v18.3l.7,.6Zm4.1-50.6h50.6l.8-.7v-11.3l-.8-.6h-50.6l-.8,.6v11.3l.8,.7Zm28.5,63.1l-.7-.6V55.4l.7-.6h40.4l.8,.6v33.5c0,8-4.3,12-12.9,12h-28.3Zm14.4-12.6h11.3l1-.6v-18.3l-1-.7h-11.3l-.8,.7v18.3l.8,.6Z"/>
      </g>
      <g>
        <g>
          <path d="M26.6,84.4c-1.9,5.5-5.8,8.6-11.9,9.2H2.2l-.7-.7v-12.4l.7-.7h3.3c2.1-.3,3.8-1.6,5-4l3.6-16.5,1-.7H31.6l.4,.7-5.3,25ZM21.3,10.1c.9,2.6,2.7,3.9,5.4,3.9l.4-.2h4.4l.7,.7v12.3l-.7,.7h-12.2c-2.9,0-5.3-.6-7.3-1.9-2-1.3-3.4-3.1-4.4-5.5L2.2,3.1l.5-.6h15.5l1,.6,2.2,7Zm1.5,27.7c1.5,1.9,3.5,2.8,6.1,2.8h3.3l.7,.8v13.1l-.7,.5h-9.6l-1.3,.2c-3.2,0-5.9-.8-8.1-2.3-2.3-1.5-4.1-3.8-5.4-6.7L3,31.9l.4-.6H19.6l1.1,.6,2.2,5.9ZM92.9,1.7l.8,.6v6.6c0,6.7-4.6,10.1-13.9,10.1h-5l-.8,.6v5.7l.8,.7h19.7l.7,.7v12.2l-.7,.7h-19.7l-.8,.7v6l.8,.7h18.4l.8,.6v33.2c-1.1,8.2-6.6,12.4-16.5,12.4H38l-.7-.7V47.3l.7-.6h17.7l.8-.7v-6l-.8-.7h-18l-.7-.7v-12.2l.7-.7h18l.8-.7v-5.2l-.8-.7h-18.2l-.8-.7V5.7l.8-.6h33.4c2.6-.4,4.3-1.5,5.2-3.4h16.7Zm-16.1,76.6v-16.7l-.8-.6h-21.5l-.8,.6v16.7l.8,.7h21.5l.8-.7Z" style="fill: #fff;"/>
          <path d="M14.8,95H1.6l-1.6-1.6v-13.6l1.6-1.6h3.8c1.5-.2,2.7-1.2,3.7-3l3.7-16.9,1.8-1.3h17.9l1.1,1.9-5.5,25.8c-2.1,6.1-6.5,9.6-13.2,10.2h0Zm-11.8-3H14.7c5.4-.5,8.8-3.2,10.5-8.1l5.1-23.8H15.4c0,0-3.5,16.2-3.5,16.2v.2c-1.6,2.8-3.6,4.4-6.3,4.8h-.2s-2.5,0-2.5,0v10.7Zm74.3,2.3H37.4l-1.6-1.6V46.6l1.6-1.4h17.5v-4.3h-17.9l-1.6-1.6v-13.4l1.6-1.6h17.9v-3.6h-18l-1.7-1.5V4.9l1.8-1.3h33.7c2-.3,3.3-1.2,4-2.5l.4-.8h18.2l1.8,1.3v7.3c0,5.3-2.7,11.6-15.4,11.6h-4.3v4h19.6l1.6,1.6v13.4l-1.6,1.6h-19.6v4.3h18.1l1.8,1.3v34.1c-.8,6.2-4.6,13.7-18,13.7Zm-38.4-3h38.4c9.1,0,14-3.6,15-11V48.2h-18.2l-1.7-1.5v-7.4l1.7-1.5h19.5v-10.5h-19.5l-1.7-1.5v-7.1l1.8-1.3h5.5c11.1,0,12.4-4.9,12.4-8.6V3.2h-15.1c-1.2,1.8-3.2,3-5.9,3.4h-.2s-32.6,0-32.6,0v11.2h18l1.7,1.5v6.6l-1.7,1.5h-17.7v10.5h17.7l1.7,1.5v7.4l-1.7,1.5h-17.4v43.1Zm37.6-10.9h-22.6l-1.7-1.5v-18.2l1.8-1.3h22.5l1.8,1.3v18.2l-1.7,1.5Zm-21.3-3h20v-15h-20v15ZM21.5,56.6h-.1c-3.4,0-6.5-.9-9-2.5-2.5-1.7-4.5-4.1-5.9-7.3h0c0-.1-5.2-15-5.2-15l1.2-1.9H20l1.9,1,2.3,6.2c1.2,1.4,2.7,2.1,4.8,2.1h4l1.5,1.7v14.4l-1.7,1.2h-9.9l-1.3,.2Zm-12.3-11.1c1.2,2.7,2.9,4.7,4.9,6,2,1.3,4.4,2,7.2,2l1.4-.2h8.7v-11.3h-2.5c-3,0-5.5-1.1-7.3-3.4v-.2c-.1,0-2.3-5.6-2.3-5.6h-.2c0-.1-14.3-.1-14.3-.1l4.4,12.7Zm22.9-16.6h-12.8c-3.2,0-5.9-.7-8.1-2.2-2.2-1.5-3.9-3.5-5-6.2h0C6.3,20.4,.5,2.8,.5,2.8L2,1.1H18.5l1.8,1.1,2.4,7.5c.7,1.9,1.8,2.7,3.7,2.8l.4-.2h5.4l1.6,1.6v13.5l-1.6,1.6ZM9.1,19.4c.9,2.1,2.1,3.7,3.8,4.8,1.7,1.1,3.9,1.7,6.5,1.7h11.4V15.3h-3.3s-.3,.2-.3,.2h-.4c-3.4,0-5.7-1.7-6.8-4.9h0s-2.1-6.5-2.1-6.5h-.1c0,0-13.7,0-13.7,0l5,15.4Z"/>
        </g>
        <g>
          <path d="M133.9,2.7l.8-.7h13.6l.7,.7v7.8c-.4,1.9-1,3.2-1.7,3.8-1.9,1.4-3.6,2-5.2,2h-5.3c0,0-.9,.5-.9,.5v1.5l.9,.7h14.7l.7-.7V9.6l.8-.7h3.4l.7-.7V2.7l.7-.7h14.2l.8,.7v5.6l.8,.7h19.2l.7,.7V82.5c-.6,3-1.6,5.5-3.1,7.5-2.3,1.5-4.3,2.2-6.2,2.2h-9.1l-.9-.6v-11.4c1.5-.2,2.5-2.1,3.1-5.6V24l-.8-.6h-3l-.8,.6v58.1c-.8,3.4-1.7,5.8-2.7,7.3-1.7,1.7-3.4,2.7-5.1,2.9h-10.3l-.8-.6v-11.1c1.5-.6,2.6-2.5,3.3-5.7V24l-.7-.6h-2.8l-.8,.6v5.1l-.9,.6h-15.1l-.9,.7v1.9l.9,.5h14l.7,.8v24.3c-.6,2.6-1.7,4.7-3.3,6.4-2,1.4-4,2.3-6.1,2.8h-5.3l-.9,.7v2.1l.9,.7h13.4l.7,.6v8.2l-.7,.6h-13.4l-.9,.7v1.9l.9,.7h14l.7,.6v8.8l-.7,.6h-48l-.8-.6v-8.8l.8-.6h16l.9-.7v-1.9l-.9-.7h-14l-.7-.6v-8.2l.7-.6h14l.9-.7v-2.1l-.9-.7h-14.3l-.7-.7V33.6l.7-.8h14.3l.9-.5v-2.3l-.9-.6h-16.3l-.8-.7v-9.2l.8-.6h16.3l.9-.7v-1.5l-.9-.6h-14.3l-.7-.7V6l.7-.7h25.6c2.4,0,3.8-.6,4-1.7v-1Zm-14.4,42.4v-1.5l-.9-.6h-2.3l-.8,.6v1.5l.8,.7h2.3l.9-.7Zm0,12.2v-1.5l-.9-.8h-2.3l-.8,.8v1.5l.8,.6h2.3l.9-.6Zm20.8-12.2v-1.5l-.9-.6h-2.7l-.9,.6v1.5l.9,.7h2.7l.9-.7Zm0,12.2v-1.5l-.9-.8h-2.7l-.9,.8v1.5l.9,.6h2.7l.9-.6Z" style="fill: #fff;"/>
          <path d="M151.2,94.7h-49.1l-1.8-1.3v-10.3l1.8-1.3h15.8v-.3h-13.9l-1.6-1.4v-9.6l1.6-1.4h13.9v-.5h-14.3l-1.6-1.6V33l1.5-1.7h14.4v-.4h-16.3l-1.7-1.5v-10.6l1.8-1.3h1.7l-1.4-1.4V5.4l1.6-1.6h26.2c1.9,0,2.4-.4,2.5-.5V2l1.7-1.5h14.8l1.6,1.6V10.8c-.5,2.3-1.3,3.9-2.3,4.7-1.4,1-2.7,1.7-4,2h6.5V8.9l1.7-1.5h3.1V2l1.6-1.6h15.4l1.7,1.5V7.4h19.1l1.6,1.6V82.8c-.6,3.2-1.8,6-3.4,8.2l-.2,.2h-.2c-2.5,1.8-4.9,2.6-7,2.6h-9.5l-1.9-1.3v-5c-.4,1.1-.9,2-1.4,2.7l-.2,.2c-2,2-4,3.1-6,3.3h-.2s-10.8,0-10.8,0l-1-.7v.2l-1.6,1.4Zm-47.9-3h46.5v-7h-13.7l-1.9-1.4v-3.4l1.9-1.4h13.1v-6.4h-13.1l-1.9-1.4v-3.6l1.9-1.4h5.6c1.8-.5,3.6-1.3,5.3-2.5,1.3-1.4,2.3-3.2,2.8-5.4v-23.4h-13.6l-2-1.1v-3.5l1.9-1.4h15v-5l1.8-1.3h3.9l1.6,1.4v51.8c-.7,3.2-1.7,5.3-3.3,6.3v9.3h9.5c1.3-.2,2.6-1,4.1-2.4,.9-1.3,1.7-3.5,2.4-6.5V23.3l1.8-1.3h4l1.8,1.3v51.7c-.2,1.4-.9,5.1-3.1,6.4v9.5h8.5c1.5,0,3.2-.6,5.1-1.8,1.2-1.7,2.1-4,2.6-6.6V10.4h-19l-1.7-1.5V3.5h-12.7v5.4l-1.6,1.6h-3.3v8.5l-1.6,1.6h-15.8l-1.9-1.4v-3.1l1.9-1.3h5.8c1.3,.1,2.7-.5,4.3-1.6,.1-.1,.7-.7,1.1-2.7V3.5h-12.1v.4c-.4,2-2.2,3-5.5,3h-24.8v7.8h13.9l1.9,1.3v3.1l-1.9,1.4h-16.1v7.4h16.1l1.9,1.3v4l-2,1.1h-13.9v31.2h14l1.9,1.4v3.6l-1.9,1.4h-13.7v6.4h13.7l1.9,1.4v3.4l-1.9,1.4h-15.7v7Zm33.9-10h13.9l.8,.7v-2.2l-1.4,1.2h-13.4v.3Zm0-12.7h13.4l1.6,1.4v9.1l.8-.3c1-.4,1.8-1.9,2.3-4.5V24.9h-1.3v5l-1.9,1.3h-14.9c0,0,14.1,0,14.1,0l1.5,1.7v25.2c-.7,2.8-1.9,5.2-3.7,7.1l-.2,.2c-2.1,1.4-4.3,2.5-6.6,3h-.4s-4.7,0-4.7,0v.5Zm36.7-44.1v53.7c.4-.3,1.1-1.4,1.5-4.1V24.9h-1.5Zm-34.2,34.4h-3.6l-1.9-1.3v-3l1.8-1.6h3.8l1.8,1.6v3l-1.9,1.3Zm-20.8,0h-3.3l-1.8-1.3v-2.9l1.7-1.7h3.5l1.8,1.6v3l-1.9,1.3Zm20.8-12.1h-3.7l-1.9-1.4v-3.1l1.9-1.3h3.6l1.9,1.3v3.1l-1.9,1.4Zm-20.8,0h-3.4l-1.7-1.5v-3l1.8-1.3h3.3l1.9,1.3v3.1l-1.9,1.4Z"/>
        </g>
        <g>
          <path d="M253.3,76.4l-1.3,.3-1.5,2.6,.3,.2h16.1l1.5,.3,1.6,1c1.7,.6,3.5,1,5.4,1h.9c0,0,13.9,0,13.9,0l.7,.7,.6,10.8-.8,.6h-24.4c-2.6,0-4.9-.4-6.9-1.1-1.9-.6-3.8-1.5-5.7-2.9l-6.6-5.8h-1.3l-5.4,6.3c-2.7,2.3-6.8,3.5-12.2,3.5h-25.6l-.8-.6v-10.4l.8-.6h17.3c2.7,0,5.3-1.1,7.7-3.3l1.3-1.8-.3-.6h-27.7l-.9-.7v-10.4l.9-.7h35l.9-.6v-1.8l-.9-.7h-10.7l-.8-.7v-15.8l-.7-.7h-3.7l-.7,.7v8.3c-.4,2.1-1.3,3.8-2.6,5.1-1.3,1.2-3.1,1.7-5.4,1.7h-10.1l-.7-.7v-8.7l.7-.7h2.4l.7-.6v-4.5l-.7-.7h-1.4l-.6-.6v-9.2l.6-.7h21.4l.7-.6v-4.7l-.7-.6h-19.3l-.7-.7V7l.7-.7h12.4l.8,.7v10.2l.7,.6h4.9l.8-.6V4.4l.7-.6h15.9l.9,.6V58.9l.8,.7h11.6l.8,.7v3.8l.8,.6h20.4l.9-.6v-.9l.7-.7h9.7l-.2,.7c0,1,.3,1.5,.9,1.5h3.9l.7,.7v10.4l-.7,.7h-38.2ZM289.8,5.9l.9,.7v14.8l-.5,1-12.3,11.6,.3,.4h9.9l.9,.5v1.7l.7,.6h2.3l.7,.6v8.3l-.7,.7h-2.3l-.7,.5v6.2c-.7,5.6-3.9,8.4-9.5,8.4h-9.3l-.8-.6v-7.5l.8-.7h1.8l.7-.6v-5.2l-.7-.5h-27.4l-.7-.7v-8.3l.7-.6h26.6l.8-.6v-1.1l-.8-.7h-25.5l-.8-.5v-7.5l.8-.7h6.3v-.7c0,0-1.5-3.8-1.5-3.8l.4-.6h8.9l1.4,.6,1.5,3.2c.3,.4,.6,.6,1,.7h.4c0,0,2.2,0,2.2,0l.2-.6-3.8-6.6,.3-.7h8.8l1.3,.2,1.1,1.7,1,.2,4.5-4.3-.2-.4h-18c-1.4,2.7-4,4.1-8,4.1h-7.5l-.8-.7V9.8c1.2,0,2.2-.2,3-.7,.9-.5,1.6-1.2,2.2-2.1l2.5-4.8,1.3-.7h15.5l.6,.7-1.3,3.1,.4,.7h20.7Zm-30.3,52.8c-3.5-.6-6.3-1.9-8.3-4.1l-3.3-5,.2-.7h13.1c.9,1.9,3,2.8,6.2,2.8v6.4l-.8,.6h-7.2Z" style="fill: #fff;"/>
          <path d="M291.2,95.2h-24.9c-2.8,0-5.3-.4-7.4-1.2-2-.6-4.1-1.6-6.1-3.1h-.1c0,0-6.2-5.5-6.2-5.5l-5.1,5.9c-3,2.5-7.4,3.8-13.2,3.8h-26.1l-1.8-1.3v-11.9l1.8-1.3h17.8c2.3,0,4.4-.9,6.5-2.7h-26.1l-1.9-1.4v-11.9l1.9-1.4h34.9c0,0-10.7,0-10.7,0l-1.7-1.5v-15.6h-2v7.8c-.5,2.4-1.5,4.3-3,5.9-1.6,1.5-3.8,2.2-6.5,2.2h-10.7l-1.6-1.6v-9.9l1.6-1.6h2.2v-2.8h-1.2l-1.5-1.5v-10.4l1.4-1.6h21.2v-2.9h-19.1l-1.6-1.6V6.4l1.6-1.6h13.6l1.7,1.5v10h3.4V3.7l1.6-1.4h16.9l1.9,1.3V36.7l1.2-1.1h.1l-.8-.5v-9.1l1.7-1.5h4.9l-1.4-3.1,.6-.9h-4.2l-1.7-1.5V8.3h1.5c.9,0,1.7-.2,2.4-.5,.6-.3,1.1-.8,1.6-1.6l2.7-5.2,2-1.1h16.5l1.6,1.9-1,2.6h19.6l1.9,1.4v15.9l-.8,1.5-10.1,9.6h7.2l2,1.1v1.7h2.1l1.6,1.4v9.6l-1.6,1.6h-2.1v5.4c-.4,3.3-1.6,5.8-3.6,7.4h2l-.6,2.1h3.8l1.6,1.6v11.7l-1.6,1.6h-39c0,0,14.2,.1,14.2,.1l1.7,.3,1.7,1c1.5,.5,3.1,.8,4.7,.8h1c0,0,14.5,0,14.5,0l1.5,1.5,.7,12.2-1.8,1.4Zm-36.5-6.6c1.7,1.2,3.5,2.1,5.2,2.6,1.8,.7,4,1,6.4,1h23.6l-.5-9.1h-14c-2,0-4-.3-5.9-1h-.2c0-.1-1.4-1-1.4-1l-1.1-.2h-16.5l-1.9-1.2,2.6-4.4,2.2-.5h37.4v-8.8h-3c-.4,0-2-.1-2.3-2.1h-7.2v.8l-1.9,1.3h-21.4l-1.8-1.3v-3.7h-11.4l-1.7-1.5V5.3h-14.4v12.7l-1.8,1.3h-6l-1.6-1.4V7.8h-10.8V26.6h19.1l1.6,1.4v6.1l-1.6,1.4h-21v7.4h1.1l1.6,1.6v5.9l-1.6,1.4h-2.1v7.1h9.2c1.9,0,3.4-.5,4.4-1.4,1.1-1.1,1.8-2.4,2.1-4.2v-8.8l1.6-1.6h4.9l1.6,1.6v15.6h10.5l1.9,1.4v3.4l-1.9,1.3h-34.8v8.8h28l1.1,2.2-2,2.8c-2.7,2.4-5.7,3.7-8.7,3.7h-16.6v8.6h24.9c5,0,8.7-1,11.1-3l5.8-6.7h2.5l6.9,6.1Zm1.3-25.5h13.4l-1.5-1.1v-2.3l-.7,.5h-7.9c-1.3-.2-2.6-.6-3.7-1l.4,.4v3.5Zm14.9-2.8h8.6c4.8,0,7.3-2.2,8-7v-6.9l1.7-1.2h2v-6.6h-2.1l-1.6-1.4v-1.4h-10l-1.5-2.1,13.1-12.3,.2-.4V7.4h-20.9l-1.2-2.1,1-2.4h-13.7l-.5,.3-2.3,4.4c-.8,1.3-1.7,2.2-2.8,2.8-.7,.4-1.4,.6-2.2,.7v6.5h6.8c3.4,0,5.6-1.1,6.7-3.2l.4-.8h19.8l1.1,2.2-5.9,5.5-2.4-.5-1-1.7h-.5c0,0-6.8,0-6.8,0l3.2,5.6-.7,2.2h-3.6c0,.1-.3,0-.3,0-.6,0-1.4-.4-2-1.3v-.2c-.1,0-1.3-2.7-1.3-2.7l-.5-.2h-6.9l1.2,2.6-.3,2.4h-6.9v5.7h25.4l1.7,1.5v2.5l-1.8,1.3h-26.3v6.6h27l1.7,1.2v6.7l-1.6,1.4h-1.7v5.8Zm-28-2.2h10.3c-1.1-.7-2.2-1.5-3.1-2.4l-.2-.2-3.7-5.6,.5-1.6h-2.7l-1.2-1.2v11Zm16.8-.9h6.3v-4c-2.6-.2-4.4-1.2-5.5-2.7h-10.2l2.1,3.3c1.8,1.8,4.2,3,7.3,3.5Zm2.9-9h0c.2,.6,.9,2,4.8,2h1.5v1.8l.6-.6h1.6v-3.3h-8.6Zm1.2-24.3h.3l-1.4-2.4,1.1,2.4Zm-5-4.4h1.3l2,.9-1.2-2.1,.2-.4c-.7,.7-1.4,1.2-2.3,1.6Zm15.2-3l.8,1.3,1.4-1.3h-2.2Z"/>
        </g>
        <g>
          <path d="M301.3,91.9l-.7-.6V46.4l.7-.6h41.1l.8,.6v34.5c-.4,3.3-1.7,5.9-4.1,8-2.3,2-5.4,3-9.3,3h-28.5ZM388.5,3.2l.7,.7V29.7l-.7,4.3c-.2,1.2-.5,2.2-1.1,3-1,1.4-2.3,2.5-4.1,3.5-1.8,.8-3.8,1.3-6,1.3h-74.8l-.7-.6V3.9l.7-.7h85.9Zm-72.3,76.1h11.2l.7-.6v-18.3l-.7-.7h-11.2l-.7,.7v18.3l.7,.6Zm4.1-50.6h50.6l.8-.7v-11.3l-.8-.6h-50.6l-.8,.6v11.3l.8,.7Zm28.5,63.1l-.7-.6V46.4l.7-.6h40.4l.8,.6v33.5c0,8-4.3,12-12.9,12h-28.3Zm14.4-12.6h11.3l1-.6v-18.3l-1-.7h-11.3l-.8,.7v18.3l.8,.6Z" style="fill: #fff;"/>
          <path d="M377.1,93.4h-28.9l-1.6-1.4V45.7l1.6-1.4h41.5l1.8,1.3v34.3c0,8.8-5,13.5-14.4,13.5Zm-27.5-3h27.5c7.7,0,11.4-3.3,11.4-10.5V47.3h-38.9v43.1Zm-19.8,3h-29.1l-1.6-1.4V45.7l1.6-1.4h42.1l1.8,1.3v35.4c-.4,3.7-2,6.7-4.6,8.9-2.6,2.3-6,3.4-10.3,3.4Zm-27.7-3h27.7c3.5,0,6.3-.9,8.3-2.7,2-1.8,3.2-4,3.5-6.9V47.3h-39.5v43.1Zm72.8-9.6h-12.2l-1.8-1.3v-19.7l1.7-1.5h12.3l2,1.4v19.9l-2.1,1.2Zm-11-3h10.1v-16.5h-10.1v16.5Zm-35.9,3h-12.3l-1.6-1.4v-19.6l1.6-1.6h12.5l1.6,1.6v19.6l-1.6,1.4Zm-10.9-3h9.6v-16.5h-9.6v16.5Zm60.4-34.6h-75.4l-1.6-1.4V3.3l1.6-1.6h87.2l1.6,1.6V30s-.7,4.3-.7,4.3c-.2,1.4-.7,2.5-1.3,3.5h0c-1.1,1.6-2.6,2.9-4.6,4h0c-2,1-4.2,1.4-6.6,1.4Zm-74-3h74c1.9,0,3.7-.4,5.3-1.1,1.5-.8,2.7-1.8,3.5-3,.4-.7,.7-1.5,.8-2.4l.7-4.1V4.7h-84.3V40.2Zm68-10h-51.7l-1.7-1.5v-12.7l1.8-1.3h51.6l1.8,1.3v12.7l-1.7,1.5Zm-50.4-3h49.1v-9.6h-49.1v9.6Z"/>
        </g>
      </g>
    </g>
  </g>
</svg>