<?xml version="1.0" encoding="UTF-8"?>
<svg id="Layer_2" data-name="Layer 2" xmlns="http://www.w3.org/2000/svg" viewBox="0 0 399.2 102.3">
  <g id="TEXT_LOGO" data-name="TEXT&amp;amp;LOGO">
    <g>
      <g>
        <path d="M34.6,93.2c-1.9,5.5-5.8,8.6-11.9,9.2H10.2l-.7-.7v-12.4l.7-.7h3.3c2.1-.3,3.8-1.6,5-4l3.6-16.5,1-.7h16.5l.4,.7-5.3,25ZM29.3,18.9c.9,2.6,2.7,3.9,5.4,3.9l.4-.2h4.4l.7,.7v12.3l-.7,.7h-12.2c-2.9,0-5.3-.6-7.3-1.9-2-1.3-3.4-3.1-4.4-5.5L10.2,12l.5-.6h15.5l1,.6,2.2,7Zm1.5,27.7c1.5,1.9,3.5,2.8,6.1,2.8h3.3l.7,.8v13.1l-.7,.5h-9.6l-1.3,.2c-3.2,0-5.9-.8-8.1-2.3-2.3-1.5-4.1-3.8-5.4-6.7l-4.9-14.2,.4-.6H27.6l1.1,.6,2.2,5.9ZM100.9,10.5l.8,.6v6.6c0,6.7-4.6,10.1-13.9,10.1h-5l-.8,.6v5.7l.8,.7h19.7l.7,.7v12.2l-.7,.7h-19.7l-.8,.7v6l.8,.7h18.4l.8,.6v33.2c-1.1,8.2-6.6,12.4-16.5,12.4H46l-.7-.7V56.1l.7-.6h17.7l.8-.7v-6l-.8-.7h-18l-.7-.7v-12.2l.7-.7h18l.8-.7v-5.2l-.8-.7h-18.2l-.8-.7V14.5l.8-.6h33.4c2.6-.4,4.3-1.5,5.2-3.4h16.7Zm-16.1,76.6v-16.7l-.8-.6h-21.5l-.8,.6v16.7l.8,.7h21.5l.8-.7Z"/>
        <path d="M141.9,11.5l.8-.7h13.6l.7,.7v7.8c-.4,1.9-1,3.2-1.7,3.8-1.9,1.4-3.6,2-5.2,2h-5.3c0,0-.9,.5-.9,.5v1.5l.9,.7h14.7l.7-.7v-8.7l.8-.7h3.4l.7-.7v-5.6l.7-.7h14.2l.8,.7v5.6l.8,.7h19.2l.7,.7V91.3c-.6,3-1.6,5.5-3.1,7.5-2.3,1.5-4.3,2.2-6.2,2.2h-9.1l-.9-.6v-11.4c1.5-.2,2.5-2.1,3.1-5.6V32.8l-.8-.6h-3l-.8,.6v58.1c-.8,3.4-1.7,5.8-2.7,7.3-1.7,1.7-3.4,2.7-5.1,2.9h-10.3l-.8-.6v-11.1c1.5-.6,2.6-2.5,3.3-5.7V32.8l-.7-.6h-2.8l-.8,.6v5.1l-.9,.6h-15.1l-.9,.7v1.9l.9,.5h14l.7,.8v24.3c-.6,2.6-1.7,4.7-3.3,6.4-2,1.4-4,2.3-6.1,2.8h-5.3l-.9,.7v2.1l.9,.7h13.4l.7,.6v8.2l-.7,.6h-13.4l-.9,.7v1.9l.9,.7h14l.7,.6v8.8l-.7,.6h-48l-.8-.6v-8.8l.8-.6h16l.9-.7v-1.9l-.9-.7h-14l-.7-.6v-8.2l.7-.6h14l.9-.7v-2.1l-.9-.7h-14.3l-.7-.7V42.4l.7-.8h14.3l.9-.5v-2.3l-.9-.6h-16.3l-.8-.7v-9.2l.8-.6h16.3l.9-.7v-1.5l-.9-.6h-14.3l-.7-.7V14.9l.7-.7h25.6c2.4,0,3.8-.6,4-1.7v-1Zm-14.4,42.4v-1.5l-.9-.6h-2.3l-.8,.6v1.5l.8,.7h2.3l.9-.7Zm0,12.2v-1.5l-.9-.8h-2.3l-.8,.8v1.5l.8,.6h2.3l.9-.6Zm20.8-12.2v-1.5l-.9-.6h-2.7l-.9,.6v1.5l.9,.7h2.7l.9-.7Zm0,12.2v-1.5l-.9-.8h-2.7l-.9,.8v1.5l.9,.6h2.7l.9-.6Z"/>
        <path d="M234.6,10.9l.8,.7v5.6l.9,.7h9.2l.8,.7v12.7l-.8,.7h-9.2l-.9,.6v12l.9,.7h10.4l.8,.6v13.2l-.8,.7h-12.3l-1.1,.6-.2,1.2,.5,.7h8.8l1,.7,5,23.1,1.1,.6h2.6l1.1-.6,3-10.3-.4-.5h-2.8l-.9-.8V12.5l.9-.7h44.9l.7,.7v57.3c-.4,3.5-2,5.2-4.7,5.2l-.2,9.8c.2,1,1.6,1.5,4.4,1.5h.9c0,0,2.1,0,2.1,0l.7,.6v12.8l-.7,.6h-14.3c-4.1,0-6.8-2.8-8-8.4v-16.2l-.9-.5h-4.7c-1.7,7-3.9,13.9-6.6,20.6-2.6,3.7-6.1,5.6-10.2,5.6h-14.5c-3.4-.6-5.9-3-7.5-7.3l-4-16.6h-.5l-4.5,15.7c-1.9,5.4-4.9,8.4-8.8,8.9h-8.5l-.7-.7v-13.5l.7-.7h1.3c1.4-.2,2.4-2.4,3.2-6.5l5.4-20.3-.6-.6h-8.7l-.9-.7v-13.2l.9-.6h10.2l.7-.7v-12l-.7-.6h-9l-1-.7v-12.7l1-.7h9l.7-.7v-5.6l.8-.7h14.5Zm33.4,20.1h14.6l.8-.7v-4.4l-.8-.6h-14.6l-.7,.6v4.4l.7,.7Zm0,14.9h14.6l.8-.6v-3.8l-.8-.6h-14.6l-.7,.6v3.8l.7,.6Zm0,16.1h14.6l.8-.7v-3.7l-.8-.7h-14.6l-.7,.7v3.7l.7,.7Z"/>
        <path d="M354.5,84.8c.2,1.5,1.4,2.4,3.5,2.6h2.3l.9,.7v12.8l-.9,.7h-12.1c-5.2-.8-8.6-3.9-10.2-9.4l-4-13.1h-.5l-4.8,13.2c-2.3,6.1-6.1,9.2-11.3,9.2h-9.2l-.8-.7v-12.8l.8-.7h1.6c1.4-.4,2.3-1.6,2.9-3.6l1.1-4.1-.5-.7h-4.7l-.8-.6V12.1l.8-.6h48.9l.8,.6v58.4c-.6,5-2.4,7.5-5.5,7.5l1.7,6.7Zm-29.1-54.9h15l.8-.7v-4.7l-.8-.6h-15l-.9,.6v4.7l.9,.7Zm0,17.3h15l.8-.7v-5l-.8-.7h-15l-.9,.7v5l.9,.7Zm0,18.8h15l.8-.6v-5.1l-.8-.6h-15l-.9,.6v5.1l.9,.6Zm37.4,17.7l-.7-.7V14.7l.7-.7h14.7l.8,.7V82.9l-.8,.7h-14.7Zm4.5,18.3l-.8-.7v-13.1l.8-.7h10.9c1.5,0,2.7-.4,3.5-1.2,.8-.8,1.2-1.8,1.2-3V11.6l.7-.7h14.8l.7,.7V91.4c-.4,3.4-1.5,5.9-3.4,7.6-1.7,1.9-4.2,2.8-7.3,2.8h-21.2Z"/>
      </g>
      <g>
        <g>
          <path d="M26.6,84.2c-1.9,5.5-5.8,8.6-11.9,9.2H2.2l-.7-.7v-12.4l.7-.7h3.3c2.1-.3,3.8-1.6,5-4l3.6-16.5,1-.7H31.6l.4,.7-5.3,25ZM21.3,9.9c.9,2.6,2.7,3.9,5.4,3.9l.4-.2h4.4l.7,.7v12.3l-.7,.7h-12.2c-2.9,0-5.3-.6-7.3-1.9-2-1.3-3.4-3.1-4.4-5.5L2.2,3l.5-.6h15.5l1,.6,2.2,7Zm1.5,27.7c1.5,1.9,3.5,2.8,6.1,2.8h3.3l.7,.8v13.1l-.7,.5h-9.6l-1.3,.2c-3.2,0-5.9-.8-8.1-2.3-2.3-1.5-4.1-3.8-5.4-6.7L3,31.7l.4-.6H19.6l1.1,.6,2.2,5.9ZM92.9,1.5l.8,.6v6.6c0,6.7-4.6,10.1-13.9,10.1h-5l-.8,.6v5.7l.8,.7h19.7l.7,.7v12.2l-.7,.7h-19.7l-.8,.7v6l.8,.7h18.4l.8,.6v33.2c-1.1,8.2-6.6,12.4-16.5,12.4H38l-.7-.7V47.1l.7-.6h17.7l.8-.7v-6l-.8-.7h-18l-.7-.7v-12.2l.7-.7h18l.8-.7v-5.2l-.8-.7h-18.2l-.8-.7V5.5l.8-.6h33.4c2.6-.4,4.3-1.5,5.2-3.4h16.7Zm-16.1,76.6v-16.7l-.8-.6h-21.5l-.8,.6v16.7l.8,.7h21.5l.8-.7Z" style="fill: #fff;"/>
          <path d="M14.7,94.8H2.2c-.4,0-.8-.2-1.1-.4l-.7-.7c-.3-.3-.4-.7-.4-1.1v-12.4c0-.4,.2-.8,.4-1.1l.7-.7c.3-.3,.7-.4,1.1-.4h3.2c1.5-.2,2.7-1.2,3.7-3l3.5-16.3c0-.4,.3-.7,.6-.9l1-.7c.3-.2,.6-.3,.9-.3H31.6c.5,0,1,.3,1.3,.8l.4,.7c.2,.3,.2,.7,.2,1.1l-5.3,25c0,0,0,.1,0,.2-2.1,6.1-6.5,9.6-13.2,10.2,0,0,0,0-.1,0Zm-11.7-3H14.7c5.4-.5,8.8-3.2,10.5-8.1l5.1-23.8H15.4c0,0-3.5,16-3.5,16,0,.1,0,.3-.1,.4-1.5,2.8-3.5,4.4-6.2,4.8,0,0-.1,0-.2,0H3v10.7Zm74.3,2.3H38c-.4,0-.8-.2-1.1-.4l-.7-.7c-.3-.3-.4-.7-.4-1.1V47.1c0-.4,.2-.9,.5-1.1l.7-.6c.3-.2,.6-.4,1-.4h17v-4.3h-17.3c-.4,0-.8-.2-1.1-.4l-.7-.7c-.3-.3-.4-.7-.4-1.1v-12.2c0-.4,.2-.8,.4-1.1l.7-.7c.3-.3,.7-.4,1.1-.4h17.3v-3.6h-17.4c-.4,0-.7-.1-1-.4l-.8-.7c-.3-.3-.5-.7-.5-1.1V5.5c0-.5,.2-.9,.6-1.2l.8-.6c.3-.2,.6-.3,.9-.3h33.2c2-.3,3.3-1.2,4-2.5,.2-.5,.8-.8,1.4-.8h16.7c.3,0,.6,.1,.9,.3l.8,.6c.4,.3,.6,.7,.6,1.2v6.6c0,5.3-2.7,11.6-15.4,11.6h-4.3v4h19c.4,0,.8,.2,1.1,.4l.7,.7c.3,.3,.4,.7,.4,1.1v12.2c0,.4-.2,.8-.4,1.1l-.7,.7c-.3,.3-.7,.4-1.1,.4h-19v4.3h17.6c.3,0,.6,.1,.9,.3l.8,.6c.4,.3,.6,.7,.6,1.2v33.2c0,0,0,.1,0,.2-.8,6.2-4.6,13.7-18,13.7Zm-38.4-3h38.4c9.1,0,14-3.6,15-11V48.1h-17.6c-.4,0-.7-.1-1-.4l-.8-.7c-.3-.3-.5-.7-.5-1.1v-6c0-.4,.2-.8,.5-1.1l.8-.7c.3-.2,.6-.4,1-.4h18.9v-10.5h-18.9c-.4,0-.7-.1-1-.4l-.8-.7c-.3-.3-.5-.7-.5-1.1v-5.7c0-.5,.2-.9,.6-1.2l.8-.6c.3-.2,.6-.3,.9-.3h5c11.1,0,12.4-4.9,12.4-8.6V3h-15.1c-1.2,1.8-3.2,3-5.9,3.4,0,0-.1,0-.2,0H38.3v11.2h17.4c.4,0,.7,.1,1,.4l.8,.7c.3,.3,.5,.7,.5,1.1v5.2c0,.4-.2,.8-.5,1.1l-.8,.7c-.3,.2-.6,.4-1,.4h-17.2v10.5h17.2c.4,0,.7,.1,1,.4l.8,.7c.3,.3,.5,.7,.5,1.1v6c0,.4-.2,.8-.5,1.1l-.8,.7c-.3,.2-.6,.4-1,.4h-16.9v43.1Zm37.1-10.9h-21.5c-.4,0-.7-.1-1-.4l-.8-.7c-.3-.3-.5-.7-.5-1.1v-16.7c0-.5,.2-.9,.6-1.2l.8-.6c.3-.2,.6-.3,.9-.3h21.5c.3,0,.6,.1,.9,.3l.8,.6c.4,.3,.6,.7,.6,1.2v16.7c0,.4-.2,.8-.5,1.1l-.8,.7c-.3,.2-.6,.4-1,.4Zm-20.7-3h20v-15h-20v15ZM21.4,56.4c-3.4,0-6.5-.9-9-2.5-2.5-1.7-4.5-4.1-5.9-7.3,0,0,0,0,0-.1L1.5,32.2c-.2-.4,0-.9,.2-1.3l.4-.6c.3-.4,.7-.7,1.2-.7H19.6c.3,0,.5,0,.7,.2l1.1,.6c.3,.2,.6,.5,.7,.8l2.1,5.7c1.2,1.4,2.7,2.1,4.8,2.1h3.3c.4,0,.8,.2,1.1,.5l.7,.8c.2,.3,.4,.6,.4,1v13.1c0,.5-.2,.9-.6,1.2l-.7,.5c-.3,.2-.6,.3-.9,.3h-9.5l-1.1,.2c0,0-.2,0-.2,0Zm-12.1-11.1c1.2,2.7,2.9,4.7,4.9,6,2,1.3,4.4,2,7.2,2l1.1-.2c0,0,.2,0,.2,0h8.7v-11.3h-2.5c-3,0-5.5-1.1-7.3-3.4,0-.1-.2-.3-.2-.4l-2-5.4h-.2c0-.1-14.3-.1-14.3-.1l4.4,12.7ZM31.6,28.7h-12.2c-3.2,0-5.9-.7-8.1-2.2-2.2-1.5-3.9-3.5-5-6.2,0,0,0,0,0,0L.8,3.4c-.2-.5,0-1,.3-1.4l.5-.6c.3-.3,.7-.5,1.2-.5h15.5c.3,0,.5,0,.8,.2l1,.6c.3,.2,.5,.5,.7,.8l2.2,6.9c.7,1.9,1.8,2.7,3.7,2.8h0c.2-.1,.4-.2,.7-.2h4.4c.4,0,.8,.2,1.1,.4l.7,.7c.3,.3,.4,.7,.4,1.1v12.3c0,.4-.2,.8-.4,1.1l-.7,.7c-.3,.3-.7,.4-1.1,.4ZM9.1,19.3c.9,2.1,2.1,3.7,3.8,4.8,1.7,1.1,3.9,1.7,6.5,1.7h11.4V15.1h-3.3c-.2,.1-.4,.2-.7,.2-3.4,0-5.7-1.7-6.8-4.9,0,0,0,0,0,0l-2.1-6.4h-.1c0,0-13.7,0-13.7,0l5,15.4Z"/>
        </g>
        <g>
          <path d="M133.9,2.5l.8-.7h13.6l.7,.7v7.8c-.4,1.9-1,3.2-1.7,3.8-1.9,1.4-3.6,2-5.2,2h-5.3c0,0-.9,.5-.9,.5v1.5l.9,.7h14.7l.7-.7V9.4l.8-.7h3.4l.7-.7V2.5l.7-.7h14.2l.8,.7v5.6l.8,.7h19.2l.7,.7V82.3c-.6,3-1.6,5.5-3.1,7.5-2.3,1.5-4.3,2.2-6.2,2.2h-9.1l-.9-.6v-11.4c1.5-.2,2.5-2.1,3.1-5.6V23.8l-.8-.6h-3l-.8,.6v58.1c-.8,3.4-1.7,5.8-2.7,7.3-1.7,1.7-3.4,2.7-5.1,2.9h-10.3l-.8-.6v-11.1c1.5-.6,2.6-2.5,3.3-5.7V23.8l-.7-.6h-2.8l-.8,.6v5.1l-.9,.6h-15.1l-.9,.7v1.9l.9,.5h14l.7,.8v24.3c-.6,2.6-1.7,4.7-3.3,6.4-2,1.4-4,2.3-6.1,2.8h-5.3l-.9,.7v2.1l.9,.7h13.4l.7,.6v8.2l-.7,.6h-13.4l-.9,.7v1.9l.9,.7h14l.7,.6v8.8l-.7,.6h-48l-.8-.6v-8.8l.8-.6h16l.9-.7v-1.9l-.9-.7h-14l-.7-.6v-8.2l.7-.6h14l.9-.7v-2.1l-.9-.7h-14.3l-.7-.7V33.4l.7-.8h14.3l.9-.5v-2.3l-.9-.6h-16.3l-.8-.7v-9.2l.8-.6h16.3l.9-.7v-1.5l-.9-.6h-14.3l-.7-.7V5.9l.7-.7h25.6c2.4,0,3.8-.6,4-1.7v-1Zm-14.4,42.4v-1.5l-.9-.6h-2.3l-.8,.6v1.5l.8,.7h2.3l.9-.7Zm0,12.2v-1.5l-.9-.8h-2.3l-.8,.8v1.5l.8,.6h2.3l.9-.6Zm20.8-12.2v-1.5l-.9-.6h-2.7l-.9,.6v1.5l.9,.7h2.7l.9-.7Zm0,12.2v-1.5l-.9-.8h-2.7l-.9,.8v1.5l.9,.6h2.7l.9-.6Z" style="fill: #fff;"/>
          <path d="M150.7,94.5h-48c-.3,0-.6-.1-.9-.3l-.8-.6c-.4-.3-.6-.7-.6-1.2v-8.8c0-.5,.2-.9,.6-1.2l.8-.6c.3-.2,.6-.3,.9-.3h15.3v-.3h-13.4c-.4,0-.7-.1-1-.4l-.7-.6c-.3-.3-.5-.7-.5-1.1v-8.2c0-.4,.2-.9,.5-1.1l.7-.6c.3-.2,.6-.4,1-.4h13.4v-.5h-13.7c-.4,0-.8-.2-1.1-.4l-.7-.7c-.3-.3-.4-.7-.4-1.1V33.4c0-.4,.1-.7,.4-1l.7-.8c.3-.3,.7-.5,1.1-.5h13.7v-.4h-15.7c-.4,0-.7-.1-1-.4l-.8-.7c-.3-.3-.5-.7-.5-1.1v-9.2c0-.5,.2-.9,.6-1.2l.8-.6c.3-.2,.6-.3,.9-.3h1.3c-.1,0-.2-.1-.3-.2l-.7-.7c-.3-.3-.4-.7-.4-1.1V5.9c0-.4,.2-.8,.4-1.1l.7-.7c.3-.3,.7-.4,1.1-.4h25.6c1.9,0,2.4-.4,2.5-.5v-.8c0-.4,.2-.8,.5-1.1l.8-.7c.3-.2,.6-.4,1-.4h13.6c.4,0,.8,.2,1.1,.4l.7,.7c.3,.3,.4,.7,.4,1.1v7.8c0,0,0,.2,0,.3-.5,2.3-1.2,3.9-2.3,4.7-1.4,1-2.7,1.7-4,2h6.5v-7.9c0-.4,.2-.8,.5-1.1l.8-.7c.3-.2,.6-.4,1-.4h2.6V2.5c0-.4,.2-.8,.4-1.1l.7-.7c.3-.3,.7-.4,1.1-.4h14.2c.4,0,.7,.1,1,.4l.8,.7c.3,.3,.5,.7,.5,1.1V7.3h18.5c.4,0,.8,.2,1.1,.4l.7,.7c.3,.3,.4,.7,.4,1.1V82.3c0,0,0,.2,0,.3-.6,3.2-1.8,6-3.4,8.2-.1,.1-.2,.3-.4,.4-2.5,1.6-4.9,2.5-7,2.5h-9.1c-.3,0-.6,0-.8-.3l-.9-.6c-.4-.3-.7-.7-.7-1.2v-4.2c-.4,1.1-.9,2-1.4,2.7,0,0-.1,.1-.2,.2-2,2-4,3.1-6,3.3,0,0-.1,0-.2,0h-10.3c-.3,0-.6-.1-.9-.3l-.7-.5c0,.3-.2,.5-.5,.7l-.7,.6c-.3,.2-.6,.4-1,.4Zm-47.3-3h46.5v-7h-13.2c-.3,0-.7-.1-.9-.3l-.9-.7c-.4-.3-.6-.7-.6-1.2v-1.9c0-.5,.2-.9,.6-1.2l.9-.7c.3-.2,.6-.3,.9-.3h12.6v-6.4h-12.6c-.3,0-.7-.1-.9-.3l-.9-.7c-.4-.3-.6-.7-.6-1.2v-2.1c0-.5,.2-.9,.6-1.2l.9-.7c.3-.2,.6-.3,.9-.3h5.1c1.8-.5,3.6-1.3,5.3-2.5,1.3-1.4,2.3-3.2,2.8-5.4v-23.4h-13.2c-.3,0-.5,0-.7-.2l-.9-.5c-.5-.3-.8-.8-.8-1.3v-1.9c0-.5,.2-.9,.6-1.2l.9-.7c.3-.2,.6-.3,.9-.3h14.5v-4.2c0-.5,.2-.9,.6-1.2l.8-.6c.3-.2,.6-.3,.9-.3h2.8c.4,0,.7,.1,1,.4l.7,.6c.3,.3,.5,.7,.5,1.1v50.9c0,0,0,.2,0,.3-.6,3.2-1.7,5.3-3.3,6.3v9.3h9.5c1.3-.2,2.6-1,4.1-2.4,.9-1.3,1.7-3.5,2.4-6.5V23.8c0-.5,.2-.9,.6-1.2l.8-.6c.3-.2,.6-.3,.9-.3h3c.3,0,.6,.1,.9,.3l.8,.6c.4,.3,.6,.7,.6,1.2v50.7c0,0,0,.2,0,.2-.2,1.4-.8,5.1-3.1,6.4v9.5h8.5c1.5,0,3.2-.6,5.1-1.8,1.2-1.7,2.1-4,2.6-6.6V10.3h-18.4c-.4,0-.7-.1-1-.4l-.8-.7c-.3-.3-.5-.7-.5-1.1V3.3h-12.7v4.8c0,.4-.2,.8-.4,1.1l-.7,.7c-.3,.3-.7,.4-1.1,.4h-2.7v7.9c0,.4-.2,.8-.4,1.1l-.7,.7c-.3,.3-.7,.4-1.1,.4h-14.7c-.3,0-.7-.1-.9-.3l-.9-.7c-.4-.3-.6-.7-.6-1.2v-1.5c0-.5,.3-1,.7-1.2l.9-.6c.3-.2,.5-.3,.9-.3h5.3c1.3,0,2.7-.5,4.3-1.6,.1-.1,.7-.7,1.1-2.7V3.3h-12.1c0,.2,0,.3,0,.4-.3,2-2.2,3-5.4,3h-24.8v7.8h13.5c.3,0,.6,0,.8,.3l.9,.6c.4,.3,.7,.7,.7,1.2v1.5c0,.5-.2,.9-.6,1.2l-.9,.7c-.3,.2-.6,.3-.9,.3h-15.6v7.4h15.6c.3,0,.6,0,.8,.3l.9,.6c.4,.3,.7,.7,.7,1.2v2.3c0,.5-.3,1-.8,1.3l-.9,.5c-.2,.1-.5,.2-.7,.2h-13.5v31.2h13.5c.3,0,.7,.1,.9,.3l.9,.7c.4,.3,.6,.7,.6,1.2v2.1c0,.5-.2,.9-.6,1.2l-.9,.7c-.3,.2-.6,.3-.9,.3h-13.2v6.4h13.2c.3,0,.7,.1,.9,.3l.9,.7c.4,.3,.6,.7,.6,1.2v1.9c0,.5-.2,.9-.6,1.2l-.9,.7c-.3,.2-.6,.3-.9,.3h-15.2v7Zm33.9-10h13.4c.4,0,.7,.1,1,.4l.4,.4v-1.8c0-.6,.4-1.2,1-1.4,1-.4,1.8-1.9,2.3-4.5V24.8h-1.3v4.2c0,.5-.3,1-.7,1.2l-.9,.6c-.2,.2-.5,.3-.8,.3h-14.5c0,0,13.4,0,13.4,0,.4,0,.8,.2,1.1,.5l.7,.8c.2,.3,.4,.6,.4,1v24.3c0,.1,0,.2,0,.3-.6,2.8-1.9,5.2-3.7,7.1,0,0-.2,.1-.2,.2-2.1,1.4-4.3,2.5-6.6,3-.1,0-.2,0-.4,0h-4.7v.5h12.8c.4,0,.7,.1,1,.4l.7,.6c.3,.3,.5,.7,.5,1.1v8.2c0,.4-.2,.9-.5,1.1l-.7,.6c-.3,.2-.6,.4-1,.4h-12.8v.3Zm36.7-56.7v53.7c.4-.3,1.1-1.4,1.5-4.1V24.8h-1.5Zm-34.7,34.4h-2.7c-.3,0-.6,0-.8-.3l-.9-.6c-.4-.3-.7-.7-.7-1.2v-1.5c0-.4,.2-.8,.5-1.1l.9-.8c.3-.2,.6-.4,1-.4h2.7c.4,0,.7,.1,1,.4l.9,.8c.3,.3,.5,.7,.5,1.1v1.5c0,.5-.3,1-.7,1.2l-.9,.6c-.2,.2-.5,.3-.8,.3Zm-20.8,0h-2.3c-.3,0-.6-.1-.9-.3l-.8-.6c-.4-.3-.6-.7-.6-1.2v-1.5c0-.4,.2-.8,.4-1.1l.8-.8c.3-.3,.7-.4,1.1-.4h2.3c.4,0,.7,.1,1,.4l.9,.8c.3,.3,.5,.7,.5,1.1v1.5c0,.5-.3,1-.7,1.2l-.9,.6c-.2,.2-.5,.3-.8,.3Zm20.8-12.1h-2.7c-.3,0-.7-.1-.9-.3l-.9-.7c-.4-.3-.6-.7-.6-1.2v-1.5c0-.5,.3-1,.7-1.2l.9-.6c.2-.2,.5-.3,.8-.3h2.7c.3,0,.6,0,.8,.3l.9,.6c.4,.3,.7,.7,.7,1.2v1.5c0,.5-.2,.9-.6,1.2l-.9,.7c-.3,.2-.6,.3-.9,.3Zm-20.8,0h-2.3c-.4,0-.7-.1-1-.4l-.8-.7c-.3-.3-.5-.7-.5-1.1v-1.5c0-.5,.2-.9,.6-1.2l.8-.6c.3-.2,.6-.3,.9-.3h2.3c.3,0,.6,0,.8,.3l.9,.6c.4,.3,.7,.7,.7,1.2v1.5c0,.5-.2,.9-.6,1.2l-.9,.7c-.3,.2-.6,.3-.9,.3Z"/>
        </g>
        <g>
          <path d="M226.6,1.9l.8,.7v5.6l.9,.7h9.2l.8,.7v12.7l-.8,.7h-9.2l-.9,.6v12l.9,.7h10.4l.8,.6v13.2l-.8,.7h-12.3l-1.1,.6-.2,1.2,.5,.7h8.8l1,.7,5,23.1,1.1,.6h2.6l1.1-.6,3-10.3-.4-.5h-2.8l-.9-.8V3.5l.9-.7h44.9l.7,.7V60.9c-.4,3.5-2,5.2-4.7,5.2l-.2,9.8c.2,1,1.6,1.5,4.4,1.5h.9c0,0,2.1,0,2.1,0l.7,.6v12.8l-.7,.6h-14.3c-4.1,0-6.8-2.8-8-8.4v-16.2l-.9-.5h-4.7c-1.7,7-3.9,13.9-6.6,20.6-2.6,3.7-6.1,5.6-10.2,5.6h-14.5c-3.4-.6-5.9-3-7.5-7.3l-4-16.6h-.5l-4.5,15.7c-1.9,5.4-4.9,8.4-8.8,8.9h-8.5l-.7-.7v-13.5l.7-.7h1.3c1.4-.2,2.4-2.4,3.2-6.5l5.4-20.3-.6-.6h-8.7l-.9-.7v-13.2l.9-.6h10.2l.7-.7v-12l-.7-.6h-9l-1-.7V9.5l1-.7h9l.7-.7V2.6l.8-.7h14.5Zm33.4,20.1h14.6l.8-.7v-4.4l-.8-.6h-14.6l-.7,.6v4.4l.7,.7Zm0,14.9h14.6l.8-.6v-3.8l-.8-.6h-14.6l-.7,.6v3.8l.7,.6Zm0,16.1h14.6l.8-.7v-3.7l-.8-.7h-14.6l-.7,.7v3.7l.7,.7Z" style="fill: #fff;"/>
          <path d="M208.3,94.4h-8.5c-.4,0-.8-.2-1.1-.4l-.7-.7c-.3-.3-.4-.7-.4-1.1v-13.5c0-.4,.2-.8,.4-1.1l.7-.7c.3-.3,.7-.4,1.1-.4h1.1c.2-.1,1.1-.9,1.9-5.3,0,0,0,0,0-.1l5.1-19h-7.5c-.3,0-.7-.1-.9-.3l-.9-.7c-.4-.3-.6-.7-.6-1.2v-13.2c0-.5,.3-1,.7-1.2l.9-.6c.2-.2,.5-.3,.8-.3h9.4v-10.2h-8.2c-.3,0-.6,0-.9-.3l-1-.7c-.4-.3-.6-.7-.6-1.2V9.5c0-.5,.2-.9,.6-1.2l1-.7c.3-.2,.6-.3,.9-.3h8.2V2.6c0-.4,.2-.8,.5-1.1l.8-.7c.3-.2,.6-.4,1-.4h14.5c.4,0,.7,.1,1,.4l.8,.7c.3,.3,.5,.7,.5,1.1V7.3h8.6c.4,0,.7,.1,1,.4l.8,.7c.3,.3,.5,.7,.5,1.1v12.7c0,.4-.2,.8-.5,1.1l-.8,.7c-.3,.2-.6,.4-1,.4h-8.6v10.2h9.8c.3,0,.6,.1,.9,.3l.8,.6c.4,.3,.6,.7,.6,1.2v13.2c0,.4-.2,.8-.5,1.1l-.8,.7c-.3,.2-.6,.4-1,.4h-2.9l.5,.4c.3,.2,.5,.5,.6,.9l4.9,22.4h.1c0,0,1.8,0,1.8,0h.2c0,0,2.4-8.4,2.4-8.4h-1.3c-.4,0-.7-.1-1-.4l-.9-.8c-.3-.3-.5-.7-.5-1.1V3.5c0-.5,.2-.9,.6-1.2l.9-.7c.3-.2,.6-.3,.9-.3h44.9c.4,0,.8,.2,1.1,.4l.7,.7c.3,.3,.4,.7,.4,1.1V60.9c0,0,0,.1,0,.2-.5,4.5-2.8,6-4.8,6.4l-.2,8c.3,.1,1,.4,2.8,.4h.8c0,0,.1,0,.2,0h2.1c.4,0,.7,.1,1,.4l.7,.6c.3,.3,.5,.7,.5,1.1v12.8c0,.4-.2,.9-.5,1.1l-.7,.6c-.3,.2-.6,.4-1,.4h-14.3c-3.4,0-7.8-1.7-9.5-9.6,0-.1,0-.2,0-.3v-15.2h-2.9c-1.7,6.7-3.8,13.3-6.4,19.7,0,.1,0,.2-.2,.3-2.9,4.1-6.8,6.2-11.5,6.2h-14.5c0,0-.2,0-.3,0-3.9-.7-6.8-3.4-8.7-8.2,0,0,0-.1,0-.2l-2.9-12-3.2,11.1c-2.2,6-5.5,9.4-10,10,0,0-.1,0-.2,0Zm-7.7-3h7.6c3.3-.5,5.8-3.1,7.5-7.9l4.5-15.6c.2-.6,.8-1.1,1.4-1.1h.5c.7,0,1.3,.5,1.5,1.2l3.9,16.5c1.5,3.7,3.5,5.7,6.2,6.2h14.4c3.7,0,6.6-1.6,8.9-4.8,2.6-6.6,4.8-13.3,6.4-20.2,.2-.7,.8-1.2,1.5-1.2h4.7c.3,0,.5,0,.7,.2l.9,.5c.5,.3,.8,.8,.8,1.3v16.1c1.4,6.3,4.4,7.1,6.5,7.1h13.5v-10.9h-2c0,0-.1,0-.2,0-1.4,0-5.3,0-5.8-2.7,0-.1,0-.2,0-.3l.2-9.8c0-.8,.7-1.5,1.5-1.5,1.4,0,2.8-.5,3.2-3.8V4.4h-43.4v60.1h2.2c.5,0,.9,.2,1.2,.6l.4,.5c.3,.4,.4,.9,.3,1.4l-3,10.3c-.1,.4-.4,.7-.7,.9l-1.1,.6c-.2,.1-.5,.2-.7,.2h-2.6c-.3,0-.5,0-.7-.2l-1.1-.6c-.4-.2-.7-.6-.7-1l-4.9-22.5h0c0,0-8.3,0-8.3,0-.5,0-.9-.2-1.2-.6l-.5-.7c-.2-.3-.3-.7-.3-1.1l.2-1.2c0-.5,.4-.8,.8-1.1l1.1-.6c.2-.1,.5-.2,.7-.2h11.6v-11.5h-9.7c-.3,0-.7-.1-.9-.3l-.9-.7c-.4-.3-.6-.7-.6-1.2v-12c0-.5,.3-1,.7-1.2l.9-.6c.2-.2,.5-.3,.8-.3h8.5V10.3h-8.5c-.3,0-.7-.1-.9-.3l-.9-.7c-.4-.3-.6-.7-.6-1.2V3.4h-13v4.8c0,.4-.2,.8-.4,1.1l-.7,.7c-.3,.3-.7,.4-1.1,.4h-8.5v11h8.5c.4,0,.7,.1,1,.4l.7,.6c.3,.3,.5,.7,.5,1.1v12c0,.4-.2,.8-.4,1.1l-.7,.7c-.3,.3-.7,.4-1.1,.4h-9.6v11.5h8.1c.4,0,.8,.2,1.1,.4l.6,.6c.4,.4,.5,.9,.4,1.4l-5.4,20.2c-.9,5-2.3,7.3-4.4,7.6,0,0-.1,0-.2,0h-.4v11.9Zm73.9-36.8h-14.6c-.4,0-.8-.2-1.1-.4l-.7-.7c-.3-.3-.4-.7-.4-1.1v-3.7c0-.4,.2-.8,.4-1.1l.7-.7c.3-.3,.7-.4,1.1-.4h14.6c.4,0,.7,.1,1,.4l.8,.7c.3,.3,.5,.7,.5,1.1v3.7c0,.4-.2,.8-.5,1.1l-.8,.7c-.3,.2-.6,.4-1,.4Zm-13.8-3h13v-2h-13v2Zm13.8-13.1h-14.6c-.4,0-.7-.1-1-.4l-.7-.6c-.3-.3-.5-.7-.5-1.1v-3.8c0-.4,.2-.9,.5-1.1l.7-.6c.3-.2,.6-.4,1-.4h14.6c.3,0,.6,.1,.9,.3l.8,.6c.4,.3,.6,.7,.6,1.2v3.8c0,.5-.2,.9-.6,1.2l-.8,.6c-.3,.2-.6,.3-.9,.3Zm-13.8-3h13v-1.9h-13v1.9Zm13.8-11.9h-14.6c-.4,0-.8-.2-1.1-.4l-.7-.7c-.3-.3-.4-.7-.4-1.1v-4.4c0-.4,.2-.9,.5-1.1l.7-.6c.3-.2,.6-.4,1-.4h14.6c.3,0,.6,.1,.9,.3l.8,.6c.4,.3,.6,.7,.6,1.2v4.4c0,.4-.2,.8-.5,1.1l-.8,.7c-.3,.2-.6,.4-1,.4Zm-13.8-3h13v-2.7h-13v2.7Z"/>
        </g>
        <g>
          <path d="M346.5,75.8c.2,1.5,1.4,2.4,3.5,2.6h2.3l.9,.7v12.8l-.9,.7h-12.1c-5.2-.8-8.6-3.9-10.2-9.4l-4-13.1h-.5l-4.8,13.2c-2.3,6.1-6.1,9.2-11.3,9.2h-9.2l-.8-.7v-12.8l.8-.7h1.6c1.4-.4,2.3-1.6,2.9-3.6l1.1-4.1-.5-.7h-4.7l-.8-.6V3.1l.8-.6h48.9l.8,.6V61.5c-.6,5-2.4,7.5-5.5,7.5l1.7,6.7Zm-29.1-54.9h15l.8-.7v-4.7l-.8-.6h-15l-.9,.6v4.7l.9,.7Zm0,17.3h15l.8-.7v-5l-.8-.7h-15l-.9,.7v5l.9,.7Zm0,18.8h15l.8-.6v-5.1l-.8-.6h-15l-.9,.6v5.1l.9,.6Zm37.4,17.7l-.7-.7V5.7l.7-.7h14.7l.8,.7V73.9l-.8,.7h-14.7Zm4.5,18.3l-.8-.7v-13.1l.8-.7h10.9c1.5,0,2.7-.4,3.5-1.2,.8-.8,1.2-1.8,1.2-3V2.6l.7-.7h14.8l.7,.7V82.4c-.4,3.4-1.5,5.9-3.4,7.6-1.7,1.9-4.2,2.8-7.3,2.8h-21.2Z" style="fill: #fff;"/>
          <path d="M380.6,94.4h-21.2c-.4,0-.7-.1-1-.4l-.8-.7c-.3-.3-.5-.7-.5-1.1v-13.1c0-.4,.2-.8,.5-1.1l.8-.7c.3-.2,.6-.4,1-.4h10.9c1.1,0,2-.2,2.5-.7,.5-.5,.7-1.1,.7-1.9V2.6c0-.4,.2-.8,.4-1.1l.7-.7c.3-.3,.7-.4,1.1-.4h14.8c.4,0,.8,.2,1.1,.4l.7,.7c.3,.3,.4,.7,.4,1.1V82.4c0,0,0,.1,0,.2-.4,3.7-1.7,6.5-3.8,8.5-2,2.2-4.8,3.2-8.3,3.2Zm-20.4-3h20.4c2.7,0,4.7-.8,6.2-2.3,0,0,0,0,0,0,1.6-1.5,2.6-3.7,2.9-6.6V3.4h-13.1V74.2c0,1.6-.6,3-1.7,4.1-1.1,1-2.6,1.6-4.6,1.6h-10.2v11.5Zm-7.8,2.6h-12.1c0,0-.1,0-.2,0-5.8-.9-9.7-4.4-11.5-10.4l-2.9-9.5-3.6,9.8c-2.6,6.8-6.8,10.2-12.7,10.2h-9.2c-.4,0-.7-.1-1-.4l-.8-.7c-.3-.3-.5-.7-.5-1.1v-12.8c0-.4,.2-.8,.5-1.1l.8-.7c.3-.2,.6-.4,1-.4h1.4c.7-.3,1.3-1.1,1.7-2.5l.7-2.8h-3.5c-.3,0-.6-.1-.9-.3l-.8-.6c-.4-.3-.6-.7-.6-1.2V3.1c0-.5,.2-.9,.6-1.2l.8-.6c.3-.2,.6-.3,.9-.3h48.9c.3,0,.6,.1,.9,.3l.8,.6c.4,.3,.6,.7,.6,1.2V61.5c0,0,0,.1,0,.2-.7,5.7-2.9,7.9-5.1,8.6l1.3,5.1c0,0,0,.1,0,.2,0,.4,.1,1.1,2.1,1.3h2.2c.3,0,.7,.1,.9,.3l.9,.7c.4,.3,.6,.7,.6,1.2v12.8c0,.5-.2,.9-.6,1.2l-.9,.7c-.3,.2-.6,.3-.9,.3Zm-12-3h11.3v-11.1h-1.7s0,0-.1,0c-3.7-.3-4.6-2.5-4.8-3.8l-1.7-6.6c-.1-.4,0-.9,.3-1.3,.3-.4,.7-.6,1.2-.6,.8,0,3.3,0,4-6.1V4.1h-47.5V68.5h4c.5,0,.9,.2,1.2,.6l.5,.7c.3,.4,.3,.8,.2,1.3l-1.1,4.1c-.7,2.6-2.1,4.1-3.9,4.6-.1,0-.3,0-.4,0h-.9v11.1h8.5c4.6,0,7.8-2.7,9.9-8.2l4.8-13.2c.2-.6,.8-1,1.4-1h.5c.7,0,1.2,.4,1.4,1.1l4,13.1c1.4,4.9,4.4,7.6,8.9,8.3Zm29.2-14.9h-14.7c-.4,0-.8-.2-1.1-.4l-.7-.7c-.3-.3-.4-.7-.4-1.1V5.7c0-.4,.2-.8,.4-1.1l.7-.7c.3-.3,.7-.4,1.1-.4h14.7c.4,0,.7,.1,1,.4l.8,.7c.3,.3,.5,.7,.5,1.1V73.9c0,.4-.2,.8-.5,1.1l-.8,.7c-.3,.2-.6,.4-1,.4Zm-13.9-3h13.1V6.5h-13.1V73.1Zm-23.3-14.7h-15c-.3,0-.6,0-.8-.3l-.9-.6c-.4-.3-.7-.7-.7-1.2v-5.1c0-.5,.3-1,.7-1.2l.9-.6c.2-.2,.5-.3,.8-.3h15c.3,0,.6,.1,.9,.3l.8,.6c.4,.3,.6,.7,.6,1.2v5.1c0,.5-.2,.9-.6,1.2l-.8,.6c-.3,.2-.6,.3-.9,.3Zm-14.4-3h13.6v-3.3h-13.6v3.3Zm14.4-15.8h-15c-.3,0-.7-.1-.9-.3l-.9-.7c-.4-.3-.6-.7-.6-1.2v-5c0-.5,.2-.9,.6-1.2l.9-.7c.3-.2,.6-.3,.9-.3h15c.4,0,.7,.1,1,.4l.8,.7c.3,.3,.5,.7,.5,1.1v5c0,.4-.2,.8-.5,1.1l-.8,.7c-.3,.2-.6,.4-1,.4Zm-14.4-3h13.6v-3.4h-13.6v3.4Zm14.4-14.3h-15c-.3,0-.7-.1-.9-.3l-.9-.7c-.4-.3-.6-.7-.6-1.2v-4.7c0-.5,.3-1,.7-1.2l.9-.6c.2-.2,.5-.3,.8-.3h15c.3,0,.6,.1,.9,.3l.8,.6c.4,.3,.6,.7,.6,1.2v4.7c0,.4-.2,.8-.5,1.1l-.8,.7c-.3,.2-.6,.4-1,.4Zm-14.4-3h13.6v-3h-13.6v3Z"/>
        </g>
      </g>
    </g>
  </g>
</svg>