<?xml version="1.0" encoding="UTF-8"?>
<svg id="Layer_2" data-name="Layer 2" xmlns="http://www.w3.org/2000/svg" viewBox="0 0 174.3 146.7">
  <g id="TEXT_LOGO" data-name="TEXT&amp;amp;LOGO">
    <g>
      <g>
        <path d="M29.4,80.5l.2,.2-7.9,11c-3.1,3.2-6.8,5.1-11.1,5.5H.9l-.6-.6v-11.5l.6-.5h3.9c1.9-.4,3.4-1.2,4.4-2.3l.9-1.5,1-.2H29.4Zm26,65.5l-.6-.5v-11.9l.6-.7h5.7c2.3,0,3.4-1.6,3.4-4.8v-13.5l-.6-.6h-24c-.6,.1-1,.3-1.1,.6l-13.6,24.3c-1.6,2.4-3.4,4.3-5.3,5.5-1.9,1.2-4.1,1.9-6.6,1.9H1.4l-.6-.6v-12.1l.6-.7H5.9c2.3,0,4.1-1.3,5.2-3.8l7.8-14.5v-.6H4.4l-.7-.5v-12.3l.7-.5H80.4l.7,.5v34.4c-.8,4.2-1.7,6.9-2.7,8.1-2,1.3-4.8,2.1-8.4,2.4h-14.6Zm28.7-61.9l.8,.6v11.6l-.8,.5h-8.5c-3,0-5.5-.6-7.5-1.8-2-1.2-3.5-2.9-4.6-5.3l-5.9-11.6c-.3-.2-.7-.4-1.1-.5H12.8l-.6-.6v-11.3l.6-.6h55l1,.6,7.9,14.9c1.3,2.3,3.2,3.4,5.7,3.4h1.6Z"/>
        <path d="M105.5,65.5l.8-.6h12.7l.8,.6v2l.7,.6h13.5l.8,.5v8.4l.6,.6h1l.7-.6v-.8c1.3-.2,2.3-1.2,3-3.1l1.6-8,.9-.5h11.9l.4,.5-.7,3.7,.4,.5h18.7l.7,.6v9.6l-.7,.6h-1.5l-.9,.5-9.3,30.2v1.1l7.1,19.5c.7,1.4,2.1,2.1,4.2,2.1h.5c0,0,0,12,0,12l-.7,.6h-6.5c-4.1,0-6.8-1.7-8-5l-2.4-6.6h-.5l-2.4,7.2c-1.8,3.2-4.9,4.8-9.5,4.8h-4.6l-.7-.6v-11.8c1.9-.2,3.6-1.9,5.2-5.1l4.4-15.6v-1.2l-7.6-21.8,.5-.6h13l1-.6,3-8.5-.5-.5h-4.1l-.9,.5-1.5,3.4c-1.6,1.7-4.1,2.5-7.7,2.5h-5l-.7-.5v-.8l-.7-.6h-1l-.6,.6v3.6c-.7,3.8-3.8,5.7-9.4,5.7h-4.4l-.8,.5v1.1l.8,.5h12.7l.8,.6v10.2c-1,4.6-4.4,6.9-10.2,6.9h-31.9l-.7-.6v-16.5l.7-.6h12.2l.6-.5v-1.1l-.6-.5h-12.5l-.7-.6v-8.8l-.7-.6h-1l-.7-.6v-5.6l.7-.6h1l.7-.4v-8.5l.7-.6h13l.4-.6v-2.2Zm-12.2,51.3l.8-.5h11.8l.7,.5v.5l.6,.6h12.1l.7-.6v-.5l.7-.5h11.5l.6,.5v.5l.8,.6h.9l.7,.5v7.4l-.7,.7h-.9l-.8,.4v3.2l-.6,.8-8.3,5.9c.9,.8,1.9,1.2,3,1.2h.3c0,0,7.6,0,7.6,0l.6,.6v7.6l-.6,.5h-13.7c-1.9,0-3.5-.3-5-.8-1.5-.6-2.7-1.3-3.6-2.2-2.5,2-5.9,3-10.1,3h-11.5l-.7-.5v-7.4l.7-.5h5.7c1.7,0,3.3-.7,4.7-2.1l-7-5.6-.8-.9v-2.9l-.6-.4h-2.5l-.6-.7v-7.4l.6-.5h2.5l.6-.6v-.5Zm12.2-10.2v-1.7l-.8-.6h-2.7l-.7,.6v1.7l.7,.4h2.7l.8-.4Zm0-29.3v-1.5l-.4-.6h-2.6l-.7,.6v1.5l.7,.4h2.6l.4-.4Zm0,9.8v-1.9l-.4-.6h-2.6l-.7,.6v1.9l.7,.6h2.6l.4-.6Zm7.8,43l4.8-3.5-9.7-.2-.3,.2,3.8,3.5,.6,.2,.8-.2Zm10.2-52.8v-1.7l-.5-.6h-2.5l-.7,.6v1.7l.7,.4h2.5l.5-.4Zm0,9.8v-1.9l-.5-.6h-2.5l-.7,.6v1.9l.7,.6h2.5l.5-.6Zm.7,19.4v-1.7l-.7-.6h-2.6l-.8,.6v1.7l.8,.4h2.6l.7-.4Z"/>
      </g>
      <g>
        <path d="M.4,26.4H12.9v2.6c0,.9,0,1.6,.3,2,.2,.4,.5,.7,1,1,.5,.2,1,.3,1.6,.3,.8-.2,1.3-.5,1.5-1.1,.2-.6,.3-1.5,.3-2.6s-.4-1.7-1.1-2.3c-.3-.2-.7-.5-1.1-.7-.5-.2-.9-.4-1.4-.6l-4-1.1c-1.6-.4-2.9-.8-3.7-1.1-1.7-.7-3-1.6-3.9-2.7-.9-1.1-1.6-2.4-1.9-3.8-.2-.7-.3-1.4-.3-2.1,0-.7-.1-1.5-.1-2.4,0-1.7,.2-3.2,.7-4.5,.5-1.4,1.2-2.6,2.3-3.6,1.1-1,2.6-1.8,4.6-2.4,2-.6,4.3-.9,7-.9s3.8,.2,5.5,.6c1.7,.3,3.3,.8,4.7,1.4,1.4,.6,2.8,1.3,4.1,2.1V13.9h-11.8v-1.6c.1-2.3-.6-3.4-2.2-3.4s-1,.2-1.4,.5c-.4,.3-.7,.7-.8,1.3,0,1.1,.3,2,.8,2.6,.5,.6,1.3,1.1,2.2,1.6,.4,.2,.9,.3,1.3,.4,.5,.1,.9,.3,1.4,.4l2.7,.6c3.2,.7,5.5,2.1,7.1,4.1,1.5,2,2.3,4.4,2.3,7.3s0,1.8-.2,2.8c-.2,1-.4,2-.7,3-.5,1.7-1.3,3.1-2.3,4.1-1.1,1.1-2.3,1.9-3.7,2.4-1.4,.5-2.7,.9-4,1l-5.3,.5c-.4,0-.9,0-1.5,0-.6,0-1.2-.1-1.8-.2-.7,0-1.3-.2-2-.3-.6-.1-1.4-.3-2.2-.5-.8-.2-1.5-.5-2.2-.7-.7-.2-1.3-.5-2-.9-1.1-.6-1.9-1.3-2.4-2v-10.3Z"/>
        <path d="M52.9,11c0-.8-.2-1.3-.6-1.7-.4-.4-.9-.6-1.4-.6s-1.2,.3-1.7,.8c-.4,.5-.7,1.3-.7,2.2V30c0,.9,.2,1.6,.7,2,.5,.5,1,.7,1.6,.7,.6,0,1.1-.3,1.4-.7,.4-.4,.6-1.1,.6-2v-6.2h12.4v12.8c-.6,.9-1.6,1.7-3,2.4-1.4,.6-3.2,1.2-5.4,1.5-1.2,.2-2.1,.3-2.7,.4-.6,0-1.8,0-3.5,0-4.6,0-8.2-1-11-3-2.7-2-4.1-5-4.1-9.1V12.5c0-2.2,.3-4,.8-5.5,.5-1.5,1.4-2.8,2.6-3.9,1.2-1.1,2.6-1.8,4.2-2.3,.9-.3,1.8-.5,2.8-.6,.9-.1,2-.2,3.2-.2,2.4,0,4.5,.1,6.1,.4,1.6,.3,3.4,.7,5.2,1.3,1.8,.6,3.4,1.4,4.8,2.3V15.4h-12.4v-4.4Z"/>
        <path d="M71.1,12.1c0-1.1,0-2.1,.2-2.9,.2-.8,.4-1.6,.7-2.5,.7-1.6,1.7-2.9,2.9-3.8,1.2-.9,2.7-1.7,4.7-2.2,1.9-.5,4.2-.8,7-.8,5.3,0,9.1,.9,11.3,2.8,2.2,1.9,3.4,4.8,3.4,8.9V29.7c0,1.9-.2,3.5-.7,5-.5,1.5-1.3,2.7-2.5,3.7-1.2,1-2.7,1.7-4.5,2.2-1.8,.5-4.2,.7-7,.7s-6.6-.5-8.9-1.4c-2.3-1-3.9-2.4-4.9-4.3-1-1.9-1.6-4.3-1.6-7.1V12.1Zm17.6,0c0-1.3-.1-2.2-.3-2.6-.2-.5-.9-.7-1.9-.7s-1.5,.3-1.9,.9c-.4,.6-.6,1.4-.6,2.4V29c0,1.1,.2,2,.6,2.6,.4,.7,1.1,1,2,1s1.4-.3,1.8-.9c.3-.7,.5-1.6,.5-2.7V12.1Z"/>
        <path d="M105.9,.7h18.3c3.3,0,6.3,.7,9.1,2,2.8,1.4,4.1,4.2,4.1,8.6s-.2,3.7-.7,5.1c-.5,1.3-1.2,2.3-2,2.9-.8,.6-1.9,1.1-3.1,1.6,1.6,.2,2.7,.6,3.4,1.2,.7,.5,1.2,1.2,1.4,2.1,.2,.9,.3,2.2,.3,3.9v1.9c0,1.1,0,1.8,.2,2.3,.1,.5,.5,.9,1.2,1.3v7h-12.8c-.6-1.7-.9-3.3-1.1-5-.2-1.7-.3-4-.3-7.1s-.3-2.1-1-2.6c-.7-.4-1.7-.8-3-1.1v4.8c0,1.2,0,2.1,.3,2.7,.1,.7,.5,1.1,1.1,1.3v7h-15.4v-7c.5-.3,.9-.7,1.1-1.2l.3-1.4v-2.1c.1,0,.1-16.5,.1-16.5v-1.4c-.1-.5-.2-.9-.2-1.3,0-.4-.2-.7-.5-.9l-.9-.5V.7Zm14,8.5v8c1.1,0,2,0,2.6-.3,.6-.2,1.2-.5,1.6-1.1,.4-.6,.6-1.5,.6-2.6,0-1.7-.3-2.7-1-3.2-.7-.5-1.9-.7-3.7-.7Z"/>
        <path d="M144.2,.7h30V14.7h-11.7v-2.6c0-1.7-1.5-2.6-4.4-2.6v7.3h8.1v7.7h-8.1v7.7c1.2,0,2.1-.1,2.8-.4,.7-.3,1.1-.6,1.3-1.1,.2-.5,.3-.9,.3-1.5v-3h11.7v14.3h-30v-7.3c.5-.2,.7-.5,.9-.9,.1-.4,.2-.6,.2-.7,0-.1,0-.4,0-.8V11c0-1.4-.4-2.5-1.1-3.3V.7Z"/>
      </g>
    </g>
  </g>
</svg>