<?xml version="1.0" encoding="UTF-8"?>
<svg id="Layer_2" data-name="Layer 2" xmlns="http://www.w3.org/2000/svg" viewBox="0 0 1086.5 748.5">
  <g id="TREE">
    <g>
      <circle cx="60.8" cy="355.8" r="14.5" style="fill: #fff; stroke: #000; stroke-miterlimit: 10; stroke-width: 2.5px;"/>
      <g>
        <path d="M121,579.2c-8.5,2.3-10.4,4.2-12.8,12.8-2.3-8.5-4.2-10.4-12.8-12.8,8.5-2.3,10.4-4.2,12.8-12.8,2.3,8.5,4.2,10.4,12.8,12.8Z" style="fill: #f9eb21;"/>
        <path d="M121,579.2c-8.5,2.3-10.4,4.2-12.8,12.8-2.3-8.5-4.2-10.4-12.8-12.8,8.5-2.3,10.4-4.2,12.8-12.8,2.3,8.5,4.2,10.4,12.8,12.8Z" style="fill: none; stroke: #000; stroke-miterlimit: 10; stroke-width: 2px;"/>
      </g>
      <g>
        <path d="M1038.5,312.8c-8.5,2.3-10.4,4.2-12.8,12.8-2.3-8.5-4.2-10.4-12.8-12.8,8.5-2.3,10.4-4.2,12.8-12.8,2.3,8.5,4.2,10.4,12.8,12.8Z" style="fill: #f9eb21;"/>
        <path d="M1038.5,312.8c-8.5,2.3-10.4,4.2-12.8,12.8-2.3-8.5-4.2-10.4-12.8-12.8,8.5-2.3,10.4-4.2,12.8-12.8,2.3,8.5,4.2,10.4,12.8,12.8Z" style="fill: none; stroke: #000; stroke-miterlimit: 10; stroke-width: 2px;"/>
      </g>
      <g>
        <path d="M244.7,178.6c-8.2,3.3-9.9,5.4-11.3,14.1-3.3-8.2-5.4-9.9-14.1-11.3,8.2-3.3,9.9-5.4,11.3-14.1,3.3,8.2,5.4,9.9,14.1,11.3Z" style="fill: #f9eb21;"/>
        <path d="M244.7,178.6c-8.2,3.3-9.9,5.4-11.3,14.1-3.3-8.2-5.4-9.9-14.1-11.3,8.2-3.3,9.9-5.4,11.3-14.1,3.3,8.2,5.4,9.9,14.1,11.3Z" style="fill: none; stroke: #000; stroke-miterlimit: 10; stroke-width: 2px;"/>
      </g>
      <circle cx="57.8" cy="732.8" r="14.5" style="fill: #fff; stroke: #000; stroke-miterlimit: 10; stroke-width: 2.5px;"/>
      <circle cx="1026.8" cy="410.8" r="8.5" style="fill: #fff; stroke: #000; stroke-miterlimit: 10; stroke-width: 2.5px;"/>
      <circle cx="107.8" cy="113.8" r="8.5" style="fill: #fff; stroke: #000; stroke-miterlimit: 10; stroke-width: 2.5px;"/>
      <circle cx="51.8" cy="9.8" r="8.5" style="fill: #fff; stroke: #000; stroke-miterlimit: 10; stroke-width: 2.5px;"/>
      <circle cx="726.8" cy="334.8" r="6.5" style="fill: #fff; stroke: #000; stroke-miterlimit: 10; stroke-width: 2.5px;"/>
      <circle cx="9.8" cy="551.8" r="8.5" style="fill: #fff; stroke: #000; stroke-miterlimit: 10; stroke-width: 2.5px;"/>
      <circle cx="55.8" cy="226.8" r="6.5" style="fill: #fff; stroke: #000; stroke-miterlimit: 10; stroke-width: 2.5px;"/>
      <circle cx="1078.8" cy="712.8" r="6.5" style="fill: #fff; stroke: #000; stroke-miterlimit: 10; stroke-width: 2.5px;"/>
      <circle cx="457.8" cy="312.8" r="6.5" style="fill: #fff; stroke: #000; stroke-miterlimit: 10; stroke-width: 2.5px;"/>
      <circle cx="248.8" cy="599.8" r="6.5" style="fill: #fff; stroke: #000; stroke-miterlimit: 10; stroke-width: 2.5px;"/>
      <circle cx="803.8" cy="107.8" r="6.5" style="fill: #fff; stroke: #000; stroke-miterlimit: 10; stroke-width: 2.5px;"/>
      <circle cx="409.8" cy="639.8" r="14.5" style="fill: #fff; stroke: #000; stroke-miterlimit: 10; stroke-width: 2.5px;"/>
      <circle cx="1062.8" cy="40.8" r="14.5" style="fill: #fff; stroke: #000; stroke-miterlimit: 10; stroke-width: 2.5px;"/>
    </g>
  </g>
</svg>