<?xml version="1.0" encoding="UTF-8"?>
<svg id="Layer_2" data-name="Layer 2" xmlns="http://www.w3.org/2000/svg" viewBox="0 0 1099.5 1628.5">
  <g id="BG">
    <g>
      <g>
        <g>
          <circle cx="90.8" cy="337.8" r="14.5" style="fill: #fff;"/>
          <path d="M90.8,353.5c-8.7,0-15.8-7.1-15.8-15.8s7.1-15.8,15.8-15.8,15.8,7.1,15.8,15.8-7.1,15.8-15.8,15.8Zm0-29c-7.3,0-13.2,5.9-13.2,13.2s5.9,13.2,13.2,13.2,13.2-5.9,13.2-13.2-5.9-13.2-13.2-13.2Z"/>
        </g>
        <g>
          <path d="M79.5,498.8c-8.5,2.3-10.4,4.2-12.8,12.8-2.3-8.5-4.2-10.4-12.8-12.8,8.5-2.3,10.4-4.2,12.8-12.8,2.3,8.5,4.2,10.4,12.8,12.8Z" style="fill: #f9eb21;"/>
          <path d="M66.8,515.3l-1-3.5c-2.2-8.1-3.9-9.8-12.1-12.1l-3.5-1,3.5-1c8.1-2.2,9.8-3.9,12.1-12.1l1-3.5,1,3.5c2.2,8.1,3.9,9.8,12.1,12.1l3.5,1-3.5,1c-8.1,2.2-9.8,3.9-12.1,12.1l-1,3.5Zm-9.3-16.5c5.3,1.8,7.5,4,9.3,9.3,1.8-5.3,4-7.5,9.3-9.3-5.3-1.8-7.5-4-9.3-9.3-1.8,5.3-4,7.5-9.3,9.3Z"/>
        </g>
        <g>
          <path d="M1051.5,318.8c-8.5,2.3-10.4,4.2-12.8,12.8-2.3-8.5-4.2-10.4-12.8-12.8,8.5-2.3,10.4-4.2,12.8-12.8,2.3,8.5,4.2,10.4,12.8,12.8Z" style="fill: #f9eb21;"/>
          <path d="M1038.8,335.3l-1-3.5c-2.2-8.1-3.9-9.8-12.1-12.1l-3.5-1,3.5-1c8.1-2.2,9.8-3.9,12.1-12.1l1-3.5,1,3.5c2.2,8.1,3.9,9.8,12.1,12.1l3.5,1-3.5,1c-8.1,2.2-9.8,3.9-12.1,12.1l-1,3.5Zm-9.3-16.5c5.3,1.8,7.5,4,9.3,9.3,1.8-5.3,4-7.5,9.3-9.3-5.3-1.8-7.5-4-9.3-9.3-1.8,5.3-4,7.5-9.3,9.3Z"/>
        </g>
        <g>
          <path d="M268.9,173.9c-8.2,3.3-9.9,5.4-11.3,14.1-3.3-8.2-5.4-9.9-14.1-11.3,8.2-3.3,9.9-5.4,11.3-14.1,3.3,8.2,5.4,9.9,14.1,11.3Z" style="fill: #f9eb21;"/>
          <path d="M258.1,191.7l-1.3-3.4c-3.1-7.8-5-9.3-13.3-10.7l-3.6-.6,3.4-1.3c7.8-3.1,9.3-5,10.7-13.3l.6-3.6,1.3,3.4c3.1,7.8,5,9.3,13.3,10.7l3.6,.6-3.4,1.3c-7.8,3.1-9.3,5-10.7,13.3l-.6,3.6Zm-11.1-15.4c5.5,1.2,7.9,3.2,10.3,8.3,1.2-5.5,3.2-7.9,8.3-10.3-5.5-1.2-7.9-3.2-10.3-8.3-1.2,5.5-3.2,7.9-8.3,10.3Z"/>
        </g>
        <g>
          <circle cx="70.8" cy="738.8" r="14.5" style="fill: #fff;"/>
          <path d="M70.8,754.5c-8.7,0-15.8-7.1-15.8-15.8s7.1-15.8,15.8-15.8,15.8,7.1,15.8,15.8-7.1,15.8-15.8,15.8Zm0-29c-7.3,0-13.2,5.9-13.2,13.2s5.9,13.2,13.2,13.2,13.2-5.9,13.2-13.2-5.9-13.2-13.2-13.2Z"/>
        </g>
        <g>
          <circle cx="1039.8" cy="416.8" r="8.5" style="fill: #fff;"/>
          <path d="M1039.8,426.5c-5.4,0-9.8-4.4-9.8-9.8s4.4-9.8,9.8-9.8,9.8,4.4,9.8,9.8-4.4,9.8-9.8,9.8Zm0-17c-4,0-7.2,3.3-7.2,7.2s3.3,7.2,7.2,7.2,7.2-3.3,7.2-7.2-3.3-7.2-7.2-7.2Z"/>
        </g>
        <g>
          <circle cx="134.8" cy="135.8" r="8.5" style="fill: #fff;"/>
          <path d="M134.8,145.5c-5.4,0-9.8-4.4-9.8-9.8s4.4-9.8,9.8-9.8,9.8,4.4,9.8,9.8-4.4,9.8-9.8,9.8Zm0-17c-4,0-7.2,3.3-7.2,7.2s3.3,7.2,7.2,7.2,7.2-3.3,7.2-7.2-3.3-7.2-7.2-7.2Z"/>
        </g>
        <g>
          <circle cx="64.8" cy="15.8" r="8.5" style="fill: #fff;"/>
          <path d="M64.8,25.5c-5.4,0-9.8-4.4-9.8-9.8s4.4-9.8,9.8-9.8,9.8,4.4,9.8,9.8-4.4,9.8-9.8,9.8Zm0-17c-4,0-7.2,3.3-7.2,7.2s3.3,7.2,7.2,7.2,7.2-3.3,7.2-7.2-3.3-7.2-7.2-7.2Z"/>
        </g>
        <g>
          <circle cx="1055.8" cy="209.8" r="8.5" style="fill: #fff;"/>
          <path d="M1055.8,219.5c-5.4,0-9.8-4.4-9.8-9.8s4.4-9.8,9.8-9.8,9.8,4.4,9.8,9.8-4.4,9.8-9.8,9.8Zm0-17c-4,0-7.2,3.3-7.2,7.2s3.3,7.2,7.2,7.2,7.2-3.3,7.2-7.2-3.3-7.2-7.2-7.2Z"/>
        </g>
        <g>
          <circle cx="15.8" cy="604.8" r="8.5" style="fill: #fff;"/>
          <path d="M15.8,614.5c-5.4,0-9.8-4.4-9.8-9.8s4.4-9.8,9.8-9.8,9.8,4.4,9.8,9.8-4.4,9.8-9.8,9.8Zm0-17c-4,0-7.2,3.3-7.2,7.2s3.3,7.2,7.2,7.2,7.2-3.3,7.2-7.2-3.3-7.2-7.2-7.2Z"/>
        </g>
        <g>
          <circle cx="55.8" cy="221.8" r="6.5" style="fill: #fff;"/>
          <path d="M55.8,229.5c-4.3,0-7.8-3.5-7.8-7.8s3.5-7.8,7.8-7.8,7.8,3.5,7.8,7.8-3.5,7.8-7.8,7.8Zm0-13c-2.9,0-5.2,2.4-5.2,5.2s2.4,5.2,5.2,5.2,5.2-2.4,5.2-5.2-2.4-5.2-5.2-5.2Z"/>
        </g>
        <g>
          <circle cx="1091.8" cy="718.8" r="6.5" style="fill: #fff;"/>
          <path d="M1091.8,726.5c-4.3,0-7.8-3.5-7.8-7.8s3.5-7.8,7.8-7.8,7.8,3.5,7.8,7.8-3.5,7.8-7.8,7.8Zm0-13c-2.9,0-5.2,2.4-5.2,5.2s2.4,5.2,5.2,5.2,5.2-2.4,5.2-5.2-2.4-5.2-5.2-5.2Z"/>
        </g>
        <g>
          <circle cx="957.8" cy="7.8" r="6.5" style="fill: #fff;"/>
          <path d="M957.8,15.5c-4.3,0-7.8-3.5-7.8-7.8s3.5-7.8,7.8-7.8,7.8,3.5,7.8,7.8-3.5,7.8-7.8,7.8Zm0-13c-2.9,0-5.2,2.4-5.2,5.2s2.4,5.2,5.2,5.2,5.2-2.4,5.2-5.2-2.4-5.2-5.2-5.2Z"/>
        </g>
        <g>
          <circle cx="1058.8" cy="807.8" r="6.5" style="fill: #fff;"/>
          <path d="M1058.8,815.5c-4.3,0-7.8-3.5-7.8-7.8s3.5-7.8,7.8-7.8,7.8,3.5,7.8,7.8-3.5,7.8-7.8,7.8Zm0-13c-2.9,0-5.2,2.4-5.2,5.2s2.4,5.2,5.2,5.2,5.2-2.4,5.2-5.2-2.4-5.2-5.2-5.2Z"/>
        </g>
        <g>
          <circle cx="967.8" cy="287.8" r="6.5" style="fill: #fff;"/>
          <path d="M967.8,295.5c-4.3,0-7.8-3.5-7.8-7.8s3.5-7.8,7.8-7.8,7.8,3.5,7.8,7.8-3.5,7.8-7.8,7.8Zm0-13c-2.9,0-5.2,2.4-5.2,5.2s2.4,5.2,5.2,5.2,5.2-2.4,5.2-5.2-2.4-5.2-5.2-5.2Z"/>
        </g>
        <g>
          <circle cx="973.8" cy="134.8" r="6.5" style="fill: #fff;"/>
          <path d="M973.8,142.5c-4.3,0-7.8-3.5-7.8-7.8s3.5-7.8,7.8-7.8,7.8,3.5,7.8,7.8-3.5,7.8-7.8,7.8Zm0-13c-2.9,0-5.2,2.4-5.2,5.2s2.4,5.2,5.2,5.2,5.2-2.4,5.2-5.2-2.4-5.2-5.2-5.2Z"/>
        </g>
        <g>
          <circle cx="847.8" cy="38.8" r="14.5" style="fill: #fff;"/>
          <path d="M847.8,54.5c-8.7,0-15.8-7.1-15.8-15.8s7.1-15.8,15.8-15.8,15.8,7.1,15.8,15.8-7.1,15.8-15.8,15.8Zm0-29c-7.3,0-13.2,5.9-13.2,13.2s5.9,13.2,13.2,13.2,13.2-5.9,13.2-13.2-5.9-13.2-13.2-13.2Z"/>
        </g>
        <g>
          <circle cx="1060.8" cy="577.8" r="14.5" style="fill: #fff;"/>
          <path d="M1060.8,593.5c-8.7,0-15.8-7.1-15.8-15.8s7.1-15.8,15.8-15.8,15.8,7.1,15.8,15.8-7.1,15.8-15.8,15.8Zm0-29c-7.3,0-13.2,5.9-13.2,13.2s5.9,13.2,13.2,13.2,13.2-5.9,13.2-13.2-5.9-13.2-13.2-13.2Z"/>
        </g>
      </g>
      <g>
        <g>
          <circle cx="18.8" cy="1066.8" r="14.5" style="fill: #fff;"/>
          <path d="M18.8,1082.5c-8.7,0-15.8-7.1-15.8-15.8s7.1-15.8,15.8-15.8,15.8,7.1,15.8,15.8-7.1,15.8-15.8,15.8Zm0-29c-7.3,0-13.2,5.9-13.2,13.2s5.9,13.2,13.2,13.2,13.2-5.9,13.2-13.2-5.9-13.2-13.2-13.2Z"/>
        </g>
        <g>
          <path d="M70,1190.2c-8.5,2.3-10.4,4.2-12.8,12.8-2.3-8.5-4.2-10.4-12.8-12.8,8.5-2.3,10.4-4.2,12.8-12.8,2.3,8.5,4.2,10.4,12.8,12.8Z" style="fill: #f9eb21;"/>
          <path d="M57.2,1207.7l-1.2-4.4c-2.2-8.1-3.8-9.6-11.9-11.9l-4.4-1.2,4.4-1.2c8.1-2.2,9.6-3.8,11.9-11.9l1.2-4.4,1.2,4.4c2.2,8.1,3.8,9.6,11.9,11.9l4.4,1.2-4.4,1.2c-8.1,2.2-9.6,3.8-11.9,11.9l-1.2,4.4Zm-8.6-17.4c4.7,1.7,6.9,3.9,8.6,8.6,1.7-4.7,3.9-6.9,8.6-8.6-4.7-1.7-6.9-3.9-8.6-8.6-1.7,4.7-3.9,6.9-8.6,8.6Z"/>
        </g>
        <g>
          <path d="M1019,1472.2c-8.5,2.3-10.4,4.2-12.8,12.8-2.3-8.5-4.2-10.4-12.8-12.8,8.5-2.3,10.4-4.2,12.8-12.8,2.3,8.5,4.2,10.4,12.8,12.8Z" style="fill: #f9eb21;"/>
          <path d="M1006.2,1489.7l-1.2-4.4c-2.2-8.1-3.8-9.6-11.9-11.9l-4.4-1.2,4.4-1.2c8.1-2.2,9.6-3.8,11.9-11.9l1.2-4.4,1.2,4.4c2.2,8.1,3.8,9.6,11.9,11.9l4.4,1.2-4.4,1.2c-8.1,2.2-9.6,3.8-11.9,11.9l-1.2,4.4Zm-8.6-17.4c4.7,1.7,6.9,3.9,8.6,8.6,1.7-4.7,3.9-6.9,8.6-8.6-4.7-1.7-6.9-3.9-8.6-8.6-1.7,4.7-3.9,6.9-8.6,8.6Z"/>
        </g>
        <g>
          <path d="M234.4,873.4c-8.2,3.3-9.9,5.4-11.3,14.1-3.3-8.2-5.4-9.9-14.1-11.3,8.2-3.3,9.9-5.4,11.3-14.1,3.3,8.2,5.4,9.9,14.1,11.3Z" style="fill: #f9eb21;"/>
          <path d="M223.7,892.1l-1.7-4.2c-3.1-7.8-4.8-9.2-13.1-10.5l-4.5-.7,4.2-1.7c7.8-3.1,9.2-4.8,10.5-13.1l.7-4.5,1.7,4.2c3.1,7.8,4.8,9.2,13.1,10.5l4.5,.7-4.2,1.7c-7.8,3.1-9.2,4.8-10.5,13.1l-.7,4.5Zm-10.4-16.4c4.8,1.2,7.2,3.1,9.5,7.6,1.2-4.8,3.1-7.2,7.6-9.5-4.8-1.2-7.2-3.1-9.5-7.6-1.2,4.8-3.1,7.2-7.6,9.5Z"/>
        </g>
        <g>
          <circle cx="58.8" cy="1612.8" r="14.5" style="fill: #fff;"/>
          <path d="M58.8,1628.5c-8.7,0-15.8-7.1-15.8-15.8s7.1-15.8,15.8-15.8,15.8,7.1,15.8,15.8-7.1,15.8-15.8,15.8Zm0-29c-7.3,0-13.2,5.9-13.2,13.2s5.9,13.2,13.2,13.2,13.2-5.9,13.2-13.2-5.9-13.2-13.2-13.2Z"/>
        </g>
        <g>
          <circle cx="1060.8" cy="1292.8" r="8.5" style="fill: #fff;"/>
          <path d="M1060.8,1302.5c-5.4,0-9.8-4.4-9.8-9.8s4.4-9.8,9.8-9.8,9.8,4.4,9.8,9.8-4.4,9.8-9.8,9.8Zm0-17c-4,0-7.2,3.3-7.2,7.2s3.3,7.2,7.2,7.2,7.2-3.3,7.2-7.2-3.3-7.2-7.2-7.2Z"/>
        </g>
        <g>
          <circle cx="314.8" cy="1449.8" r="8.5" style="fill: #fff;"/>
          <path d="M314.8,1459.5c-5.4,0-9.8-4.4-9.8-9.8s4.4-9.8,9.8-9.8,9.8,4.4,9.8,9.8-4.4,9.8-9.8,9.8Zm0-17c-4,0-7.2,3.3-7.2,7.2s3.3,7.2,7.2,7.2,7.2-3.3,7.2-7.2-3.3-7.2-7.2-7.2Z"/>
        </g>
        <g>
          <circle cx="90.8" cy="1458.8" r="8.5" style="fill: #fff;"/>
          <path d="M90.8,1468.5c-5.4,0-9.8-4.4-9.8-9.8s4.4-9.8,9.8-9.8,9.8,4.4,9.8,9.8-4.4,9.8-9.8,9.8Zm0-17c-4,0-7.2,3.3-7.2,7.2s3.3,7.2,7.2,7.2,7.2-3.3,7.2-7.2-3.3-7.2-7.2-7.2Z"/>
        </g>
        <g>
          <circle cx="1047.8" cy="932.8" r="8.5" style="fill: #fff;"/>
          <path d="M1047.8,942.5c-5.4,0-9.8-4.4-9.8-9.8s4.4-9.8,9.8-9.8,9.8,4.4,9.8,9.8-4.4,9.8-9.8,9.8Zm0-17c-4,0-7.2,3.3-7.2,7.2s3.3,7.2,7.2,7.2,7.2-3.3,7.2-7.2-3.3-7.2-7.2-7.2Z"/>
        </g>
        <g>
          <circle cx="9.8" cy="1304.8" r="8.5" style="fill: #fff;"/>
          <path d="M9.8,1314.5c-5.4,0-9.8-4.4-9.8-9.8s4.4-9.8,9.8-9.8,9.8,4.4,9.8,9.8-4.4,9.8-9.8,9.8Zm0-17c-4,0-7.2,3.3-7.2,7.2s3.3,7.2,7.2,7.2,7.2-3.3,7.2-7.2-3.3-7.2-7.2-7.2Z"/>
        </g>
        <g>
          <circle cx="49.8" cy="921.8" r="6.5" style="fill: #fff;"/>
          <path d="M49.8,929.5c-4.3,0-7.8-3.5-7.8-7.8s3.5-7.8,7.8-7.8,7.8,3.5,7.8,7.8-3.5,7.8-7.8,7.8Zm0-13c-2.9,0-5.2,2.4-5.2,5.2s2.4,5.2,5.2,5.2,5.2-2.4,5.2-5.2-2.4-5.2-5.2-5.2Z"/>
        </g>
        <g>
          <circle cx="1085.8" cy="1418.8" r="6.5" style="fill: #fff;"/>
          <path d="M1085.8,1426.5c-4.3,0-7.8-3.5-7.8-7.8s3.5-7.8,7.8-7.8,7.8,3.5,7.8,7.8-3.5,7.8-7.8,7.8Zm0-13c-2.9,0-5.2,2.4-5.2,5.2s2.4,5.2,5.2,5.2,5.2-2.4,5.2-5.2-2.4-5.2-5.2-5.2Z"/>
        </g>
        <g>
          <circle cx="632.8" cy="1467.8" r="6.5" style="fill: #fff;"/>
          <path d="M632.8,1475.5c-4.3,0-7.8-3.5-7.8-7.8s3.5-7.8,7.8-7.8,7.8,3.5,7.8,7.8-3.5,7.8-7.8,7.8Zm0-13c-2.9,0-5.2,2.4-5.2,5.2s2.4,5.2,5.2,5.2,5.2-2.4,5.2-5.2-2.4-5.2-5.2-5.2Z"/>
        </g>
        <g>
          <circle cx="1058.8" cy="1591.8" r="6.5" style="fill: #fff;"/>
          <path d="M1058.8,1599.5c-4.3,0-7.8-3.5-7.8-7.8s3.5-7.8,7.8-7.8,7.8,3.5,7.8,7.8-3.5,7.8-7.8,7.8Zm0-13c-2.9,0-5.2,2.4-5.2,5.2s2.4,5.2,5.2,5.2,5.2-2.4,5.2-5.2-2.4-5.2-5.2-5.2Z"/>
        </g>
        <g>
          <circle cx="267.8" cy="1497.8" r="6.5" style="fill: #fff;"/>
          <path d="M267.8,1505.5c-4.3,0-7.8-3.5-7.8-7.8s3.5-7.8,7.8-7.8,7.8,3.5,7.8,7.8-3.5,7.8-7.8,7.8Zm0-13c-2.9,0-5.2,2.4-5.2,5.2s2.4,5.2,5.2,5.2,5.2-2.4,5.2-5.2-2.4-5.2-5.2-5.2Z"/>
        </g>
        <g>
          <circle cx="1074.8" cy="1013.8" r="6.5" style="fill: #fff;"/>
          <path d="M1074.8,1021.5c-4.3,0-7.8-3.5-7.8-7.8s3.5-7.8,7.8-7.8,7.8,3.5,7.8,7.8-3.5,7.8-7.8,7.8Zm0-13c-2.9,0-5.2,2.4-5.2,5.2s2.4,5.2,5.2,5.2,5.2-2.4,5.2-5.2-2.4-5.2-5.2-5.2Z"/>
        </g>
        <g>
          <circle cx="771.8" cy="1330.8" r="6.5" style="fill: #fff;"/>
          <path d="M771.8,1338.5c-4.3,0-7.8-3.5-7.8-7.8s3.5-7.8,7.8-7.8,7.8,3.5,7.8,7.8-3.5,7.8-7.8,7.8Zm0-13c-2.9,0-5.2,2.4-5.2,5.2s2.4,5.2,5.2,5.2,5.2-2.4,5.2-5.2-2.4-5.2-5.2-5.2Z"/>
        </g>
        <g>
          <circle cx="876.8" cy="1472.8" r="14.5" style="fill: #fff;"/>
          <path d="M876.8,1488.5c-8.7,0-15.8-7.1-15.8-15.8s7.1-15.8,15.8-15.8,15.8,7.1,15.8,15.8-7.1,15.8-15.8,15.8Zm0-29c-7.3,0-13.2,5.9-13.2,13.2s5.9,13.2,13.2,13.2,13.2-5.9,13.2-13.2-5.9-13.2-13.2-13.2Z"/>
        </g>
        <g>
          <circle cx="1054.8" cy="1159.8" r="14.5" style="fill: #fff;"/>
          <path d="M1054.8,1175.5c-8.7,0-15.8-7.1-15.8-15.8s7.1-15.8,15.8-15.8,15.8,7.1,15.8,15.8-7.1,15.8-15.8,15.8Zm0-29c-7.3,0-13.2,5.9-13.2,13.2s5.9,13.2,13.2,13.2,13.2-5.9,13.2-13.2-5.9-13.2-13.2-13.2Z"/>
        </g>
      </g>
    </g>
  </g>
</svg>