<?xml version="1.0" encoding="UTF-8"?>
<svg id="Layer_2" data-name="Layer 2" xmlns="http://www.w3.org/2000/svg" xmlns:xlink="http://www.w3.org/1999/xlink" viewBox="0 0 1167 414">
  <defs>
    <clipPath id="clippath">
      <rect y="69" width="1167" height="345" style="fill: none;"/>
    </clipPath>
  </defs>
  <g id="BOX">
    <g>
      <g>
        <g style="clip-path: url(#clippath);">
          <g>
            <path d="M1252.6,302.5c2.3-29.1,1.8-58.4-1.6-87.4-7.4,10.1-24.7,9.6-36.4,3.6-11.7-6-20.3-15.8-31.4-22.6-32.6-19.9-79.1-9.9-113.4-27.5-7.3-3.8-14.3-8.9-22.8-9.5-7.7-.5-15.2,2.9-22.9,2.6-18.2-.7-27-19.7-41.1-30-20.9-15.2-52.2-9.5-76.2,1.3-24,10.9-46.4,26.4-73,29.7-18.7,2.4-38.3-1.5-56.2,3.6-18,5.2-32.7,19-51.6,20.2-18.5,1.2-34.8-10.2-52.3-15.5-49.7-15.2-101.1,18.2-153.5,20.9-68,3.5-134.5-45-199.3-26.3-11.7,3.4-23,9-35.4,9-16.5,0-31-9.7-47.1-13.1-43.6-9.3-84.7,28.8-129.4,25.5-15.9-1.2-30.8-7.6-46.2-11.2-33.9-7.9-71.6-1.8-100.3,16.2v222.2H1246.7l5.9-112Z" style="fill: #fff;"/>
            <path d="M1254.1,302.5c2.2-29.1,1.7-58.3-1.6-87.4-.1-1.1-1.6-2.2-2.6-1.1-10.6,13-30.3,6.9-42-1.1-12.3-8.5-22.3-18.7-36.5-24.2-28.3-10.9-59.8-7.1-88.6-16.4-14-4.5-26.2-16.2-41.6-14.5-7.9,.9-15.5,3.7-23.4,1.3-7.2-2.2-12.7-7.7-17.8-12.9-8.5-8.9-16.4-17.7-28.3-21.9-13.1-4.7-27.7-3.9-41-.9-31.3,7-56.6,28.8-87.7,36.2-17.9,4.3-36.1,1.2-54.2,3.2-14.6,1.6-26.5,8.4-39.4,14.9-7.4,3.7-15.2,7-23.6,7.5-9.1,.6-17.8-2-26.1-5.3-14.1-5.5-27.3-11.9-42.6-13.6-31.6-3.5-62.5,8.3-92.6,16.3-15.9,4.2-32.2,7.8-48.7,8.1-16.6,.3-33.1-2.3-49.2-6.1-30.6-7.1-60.3-18.5-91.6-22.9-13.5-1.9-27.3-2.4-40.8-.4-16.8,2.5-32.8,12.3-49.9,12-16.8-.3-31.3-10.4-47.5-13.4-12.8-2.3-25.8-.8-38.2,2.5-28.5,7.5-55.6,24.1-85.8,23.5-18.7-.4-35.8-8.6-53.9-12.2-14.9-3-30.2-3.3-45.2-1.3-14.3,2-28.3,6.1-41.2,12.5-4.3,2.1-11.2,3.7-11.7,9-.7,8.8,0,18,0,26.8v193.8c0,.8,.7,1.5,1.5,1.5H1194.8c16.6,0,33.2,.4,49.8,0,.7,0,1.4,0,2.1,0s1.5-.7,1.5-1.5c1.7-32.7,3.4-65.3,5.1-98l.7-14c.1-1.9-2.9-1.9-3,0-1.7,32.7-3.4,65.3-5.1,98l-.7,14,1.5-1.5H-18.2c-5.6,0-11.7-.7-17.2,0-.7,0-1.4,0-2.1,0l1.5,1.5V203.4c0-2.8-.7-6.8,0-9.5,.1-.4-.2-1.2,0-1.6,0,0,5.7-2.5,6.4-2.9,4.5-2.4,9.2-4.5,14-6.4,15.5-5.9,32.1-8.9,48.7-8.9,17.4,0,33.4,4.4,50,9.2,14.8,4.3,29.3,6.8,44.6,4.6,14.6-2.2,28.5-7.4,42.2-12.5,13.3-5,26.7-10.2,40.8-12.5,16.6-2.7,31.2,.7,46.7,6.6,15,5.7,28.5,8.7,44.2,4.1,15.9-4.6,30.3-10.1,47.1-10.6,31.7-1,62.5,9.5,92.6,18,29.9,8.5,60.5,15.5,91.7,11.3,31.2-4.2,60.5-16.8,91.5-21.8,16.9-2.7,34.3-2.7,50.8,2.7,14.1,4.7,27.3,12.9,42.3,14.7,14.1,1.7,26.6-4,38.8-10.4,7-3.6,13.9-7.4,21.6-9.6,9.7-2.8,19.8-2.9,29.8-2.8,16.5,0,32-.5,47.8-6.1,14.7-5.2,28.2-13,42.1-19.9,26.9-13.4,64.4-25.2,89.6-2,8.6,8,15.6,18.6,26.6,23.6,4.9,2.2,10,2.8,15.4,2.2,4.5-.5,8.8-1.8,13.3-2.2,6.4-.6,11.9,1.3,17.5,4.2,13,6.7,25,11.9,39.5,14.5,14.7,2.6,29.6,3.4,44.4,5.6,15.7,2.4,31,6.5,43.9,16,11.4,8.3,21.6,19.4,36,22.5,10,2.1,21.5,1,28.3-7.4-.9-.4-1.7-.7-2.6-1.1,3.2,29,3.8,58.2,1.6,87.4-.1,1.9,2.9,1.9,3,0Z"/>
          </g>
        </g>
        <path d="M244.3,331.4c8.1-5.7,19.1-6.5,27.9-1.8,1.7,.9,3.2-1.7,1.5-2.6-9.6-5.2-22-4.5-30.9,1.8-1.6,1.1,0,3.7,1.5,2.6h0Z"/>
        <path d="M611.2,227c7-4.9,16.5-5.6,24-1.6,1.7,.9,3.2-1.7,1.5-2.6-8.4-4.5-19.2-4-27,1.6-1.6,1.1,0,3.7,1.5,2.6h0Z"/>
        <path d="M737.1,245.9c8.7-4.2,19.8-3.1,27.5,2.9,1.5,1.2,3.6-.9,2.1-2.1-8.8-6.8-21-8.2-31.1-3.3-1.7,.8-.2,3.4,1.5,2.6h0Z"/>
        <path d="M350,248.6c11.2-4.2,23.9-3.1,34.1,3.2,1.7,1,3.2-1.6,1.5-2.6-10.8-6.6-24.5-7.9-36.4-3.5-1.8,.7-1,3.6,.8,2.9h0Z"/>
        <path d="M140.2,258.5c8.8-10.4,20.8-19.4,35.1-18.5,3.9,.2,7.7,1.3,11,3.2,1.7,1,3.2-1.6,1.5-2.6-6.5-3.7-14.1-4.4-21.3-3-7.3,1.4-13.8,5.1-19.5,9.8-3.3,2.7-6.2,5.8-9,9-1.2,1.5,.9,3.6,2.1,2.1h0Z"/>
        <path d="M59,311.9c10.6,.9,20.2,7.6,24.8,17.2,.8,1.7,3.4,.2,2.6-1.5-5.1-10.5-15.8-17.7-27.4-18.7-1.9-.2-1.9,2.8,0,3h0Z"/>
        <g>
          <path d="M823.3,347.5c-10.4-7.6-25-9-36.7-3.4" style="fill: #fff;"/>
          <path d="M824.1,346.2c-11-7.9-26-9.1-38.2-3.4-1.7,.8-.2,3.4,1.5,2.6,11.3-5.3,25.1-3.8,35.2,3.4,1.6,1.1,3.1-1.5,1.5-2.6h0Z"/>
        </g>
        <path d="M429.4,344c2.9-5.7,10.2-8.4,16.2-6.1,.8,.3,1.6-.3,1.8-1,.2-.8-.3-1.5-1-1.8-7.2-2.8-16.1,.6-19.6,7.5-.9,1.7,1.7,3.2,2.6,1.5h0Z"/>
      </g>
      <g>
        <g>
          <g>
            <path d="M1094.5,241.5c0,72.3-58.7,123-131,123s-131-50.7-131-123,58.7-131,131-131,131,58.7,131,131Z" style="fill: #fff;"/>
            <path d="M963.5,366c-75.5,0-132.5-53.5-132.5-124.5s59.4-132.5,132.5-132.5,132.5,59.4,132.5,132.5-57,124.5-132.5,124.5Zm0-254c-71.4,0-129.5,58.1-129.5,129.5s55.7,121.5,129.5,121.5,129.5-52.2,129.5-121.5-58.1-129.5-129.5-129.5Z"/>
          </g>
          <g>
            <path d="M1048.5,91.5c0,49.7-40.3,84-90,84s-90-34.3-90-84S908.8,1.5,958.5,1.5s90,40.3,90,90Z" style="fill: #fff;"/>
            <path d="M958.5,177c-24.8,0-47.8-8.4-64.6-23.8-17.3-15.7-26.9-37.7-26.9-61.8,0-50.5,41-91.5,91.5-91.5s91.5,41,91.5,91.5-9.5,46-26.9,61.8c-16.9,15.3-39.8,23.8-64.6,23.8Zm0-174c-48.8,0-88.5,39.7-88.5,88.5s9.2,44.4,25.9,59.5c16.3,14.8,38.6,23,62.6,23s46.3-8.2,62.6-23c16.7-15.1,25.9-36.3,25.9-59.5,0-48.8-39.7-88.5-88.5-88.5Z"/>
          </g>
          <circle cx="948.5" cy="81.5" r="5.5"/>
          <g>
            <circle cx="925.2" cy="205.5" r="4.5" style="fill: #3fa6f2;"/>
            <path d="M925.2,211.4c-3.3,0-6-2.7-6-6s2.7-6,6-6,6,2.7,6,6-2.7,6-6,6Zm0-8.9c-1.6,0-3,1.3-3,3s1.3,3,3,3,3-1.3,3-3-1.3-3-3-3Z"/>
          </g>
          <g>
            <circle cx="923" cy="232.2" r="4.5" style="fill: #3fa6f2;"/>
            <path d="M923,238.2c-3.3,0-6-2.7-6-6s2.7-6,6-6,6,2.7,6,6-2.7,6-6,6Zm0-8.9c-1.6,0-3,1.3-3,3s1.3,3,3,3,3-1.3,3-3-1.3-3-3-3Z"/>
          </g>
          <g>
            <path d="M928.5,259c0,2.5-2,4.5-4.5,4.5s-4.5-2-4.5-4.5,2-4.5,4.5-4.5,4.5,2,4.5,4.5Z" style="fill: #3fa6f2;"/>
            <path d="M924.1,265c-3.3,0-6-2.7-6-6s2.7-6,6-6,6,2.7,6,6-2.7,6-6,6Zm0-8.9c-1.6,0-3,1.3-3,3s1.3,3,3,3,3-1.3,3-3-1.3-3-3-3Z"/>
          </g>
          <circle cx="922.5" cy="77.5" r="5.5"/>
          <g>
            <g>
              <path d="M916.7,89.8c-13.2-1.3-20.9,3.1-34.1,5.6-6.5,1.2-13.2,1.6-19.8,2.3-.9,0-2,.3-2.5,1.1-.8,1.2,.4,2.7,1.5,3.6,6.7,5.3,15.7,6.5,24.2,7.5,8.2,1,16.4,1.9,24.7,2.3,5.3,.2,10.9,0,15.5-2.6s7.7-8.6,5.5-13.4c-2.4-5.3-9.1-5.9-15-6.3" style="fill: #ff5d03;"/>
              <path d="M916.7,88.3c-5.6-.5-11.2,0-16.7,1.3-5.5,1.3-10.9,3-16.4,4.1-6.5,1.3-13.1,1.7-19.6,2.4-2.4,.2-5.8,.7-5.4,4,.3,2.6,3.1,4.3,5.1,5.5,4.8,2.9,10.3,4.2,15.8,5,6.2,1,12.6,1.6,18.8,2.2,6.2,.6,12.7,1.3,18.9,.8,5.3-.4,10.6-2.1,13.9-6.5,3.2-4.2,3.9-10.4,0-14.4-3.7-3.7-9.5-4-14.4-4.4-1.9-.1-1.9,2.9,0,3,3.8,.3,8.2,.4,11.4,2.7,3.4,2.5,3.3,7,1.3,10.4-2.6,4.2-7.5,5.7-12.1,6.1-5.5,.5-11.2-.1-16.7-.6-5.7-.5-11.5-1.2-17.2-1.9-4.9-.6-9.8-1.4-14.4-3.3-2.2-.9-4.5-2.1-6.3-3.6-.6-.5-1.8-1.5-.6-1.9,1.4-.4,3.1-.4,4.5-.5,5.8-.5,11.6-1,17.3-2.1,5.5-1.1,10.7-2.7,16.1-4,5.5-1.3,11-1.9,16.7-1.3,1.9,.2,1.9-2.8,0-3h0Z"/>
            </g>
            <path d="M912,89.4c-.7,2.5,.5,5.4,2.9,6.6,.7,.4,1.7,.2,2.1-.5,.4-.7,.2-1.7-.5-2.1-.2-.1-.4-.2-.6-.4l.3,.2c-.3-.2-.5-.5-.8-.8,0,.1,.2,.2,.2,.3-.2-.3-.4-.6-.6-1,0,.1,.1,.2,.2,.4-.1-.4-.2-.7-.3-1.1,0,.1,0,.3,0,.4,0-.4,0-.7,0-1.1,0,.1,0,.3,0,.4,0-.2,0-.4,.1-.5,.2-.8-.3-1.7-1-1.8-.8-.2-1.6,.2-1.8,1h0Z"/>
            <path d="M904.8,89.6c-1.7,2.6-1.3,6.3,.9,8.5,.5,.6,1.6,.6,2.1,0,.6-.6,.6-1.5,0-2.1,0-.1-.2-.2-.3-.3-.1-.1,.2,.3,0,0,0,0,0-.1-.1-.2,0-.1-.1-.2-.2-.4,0,0-.1-.3-.2-.4,0,0,.1,.3,0,0,0,0,0-.1,0-.2,0-.1,0-.3-.1-.4,0-.1,0-.3,0-.4,0,0,0-.3,0,0,0,.3,0,0,0,0,0-.3,0-.5,0-.8,0,0,0-.2,0-.2,0-.2,0,0,0,.1,0-.1,0-.3,0-.4,0-.1,0-.3,.1-.4,0,0,0-.1,0-.2,0,0,.1-.3,0,0-.1,.2,0,0,0,0,0,0,0-.1,0-.2,0-.1,.2-.3,.2-.4,.4-.7,.2-1.7-.5-2.1-.7-.4-1.6-.2-2.1,.5h0Z"/>
            <path d="M895.8,93.6c-.3,1.7,0,3.6,1,5,.2,.3,.5,.6,.9,.7,.4,0,.8,0,1.2-.2,.3-.2,.6-.5,.7-.9,0-.4,0-.8-.2-1.2-.2-.3-.4-.6-.6-1,0,.1,.1,.2,.2,.4-.2-.4-.3-.9-.4-1.3,0,.1,0,.3,0,.4,0-.4,0-.9,0-1.3,0,.1,0,.3,0,.4,0,0,0-.2,0-.2,0-.4,0-.8-.2-1.2-.2-.3-.5-.6-.9-.7-.4,0-.8,0-1.2,.2-.3,.2-.6,.5-.7,.9h0Z"/>
          </g>
          <path d="M937,128.8c-.3-1.5-.9-3-1.7-4.2-.9-1.4-2.1-2.8-3.8-3.1-2.1-.4-3.9,.3-4.9,2.2-.8,1.5-.5,3.2-.5,4.8,0,1.6,0,3.1,.1,4.7,0,1.7-.2,3.6,.8,5.1,.9,1.4,2.6,2,4.2,1.9,1.6-.1,3-1,4-2.3,2-2.5,2.5-6,1.9-9.1Z"/>
          <path d="M928.2,151.2c3.7,1.3,8-.3,10.2-3.5,.4-.7,.1-1.7-.5-2.1-.8-.4-1.6-.2-2.1,.5,0,0-.1,.2-.2,.2-.1,.2,.2-.3,0,0-.1,.1-.2,.3-.4,.4-.1,.1-.3,.2-.4,.4,0,0-.2,.1-.2,.2-.1,.1,.2-.1,0,0-.3,.2-.6,.4-1,.6-.2,0-.3,.2-.5,.2,.2,0,.1,0,0,0,0,0-.2,0-.3,0-.3,.1-.7,.2-1,.3,0,0-.4,0-.2,0,.2,0-.1,0-.2,0-.2,0-.4,0-.5,0-.2,0-.4,0-.6,0,0,0-.2,0-.3,0-.2,0,0,0,0,0-.4,0-.8-.2-1.1-.3-.7-.3-1.7,.3-1.8,1-.2,.8,.3,1.6,1,1.8h0Z"/>
        </g>
        <g>
          <path d="M891.9,363.9c9.7-5.3,21.3-7.1,32.1-5,4.4,.8,8.7,2.3,13.1,1.9,6.2-.5,11.7-4.6,17.9-5.3,5-.6,10.2,1.2,15.2,.4,2.9-.5,5.6-1.8,8.3-3,15.2-7,31.2-12.5,47.8-14,16.6-1.4,34,1.6,48,10.6l-3.2,22.3-179.1,4.1v-12.1Z" style="fill: #fff;"/>
          <g>
            <path d="M891.9,363.9c9.7-5.3,21.3-7.1,32.1-5,4.4,.8,8.7,2.3,13.1,1.9,6.2-.5,11.7-4.6,17.9-5.3,5-.6,10.2,1.2,15.2,.4,2.9-.5,5.6-1.8,8.3-3,15.2-7,31.2-12.5,47.8-14,16.6-1.4,34,1.6,48,10.6" style="fill: #fff;"/>
            <path d="M892.7,365.2c5.3-2.9,11.2-4.8,17.2-5.4,6.2-.7,12,.1,18,1.5,3,.7,6.1,1.3,9.3,1,2.9-.2,5.7-1.2,8.4-2.2,2.7-1.1,5.4-2.2,8.3-2.8,3.1-.6,6.4-.2,9.5,.1,3.2,.3,6.3,.4,9.4-.5,2.9-.8,5.6-2.3,8.4-3.5,5.8-2.6,11.8-5,17.8-7,11.8-3.9,24.2-6.4,36.7-6.2,13.3,.2,26.6,3.5,37.9,10.7,1.6,1,3.1-1.6,1.5-2.6-21.2-13.5-47.8-13.3-71.2-6.6-6.2,1.8-12.3,4-18.2,6.5-3,1.3-6,2.6-8.9,3.9-3,1.4-5.9,2.5-9.2,2.5-3.2,0-6.4-.6-9.7-.7-3,0-5.9,.6-8.8,1.6-2.7,1-5.4,2.2-8.2,3.1-3.1,.9-6.2,1-9.4,.4-3.5-.6-6.9-1.6-10.4-2-3.4-.4-6.9-.5-10.3-.2-6.9,.6-13.5,2.6-19.6,5.9-1.7,.9-.2,3.5,1.5,2.6h0Z"/>
          </g>
        </g>
      </g>
    </g>
  </g>
</svg>