<?xml version="1.0" encoding="UTF-8"?>
<svg id="Layer_2" data-name="Layer 2" xmlns="http://www.w3.org/2000/svg" viewBox="0 0 355 156">
  <g id="BUTTON">
    <g>
      <g>
        <rect x="14.7" y="22" width="338.3" height="132" rx="20" ry="20"/>
        <path d="M333,156H34.7c-12.1,0-22-9.9-22-22V42c0-12.1,9.9-22,22-22H333c12.1,0,22,9.9,22,22v92c0,12.1-9.9,22-22,22ZM34.7,24c-9.9,0-18,8.1-18,18v92c0,9.9,8.1,18,18,18H333c9.9,0,18-8.1,18-18V42c0-9.9-8.1-18-18-18H34.7Z"/>
      </g>
      <g>
        <rect x="6.3" y="3.1" width="338.3" height="132" rx="20" ry="20" style="fill: #0996d4;"/>
        <path d="M324.6,136.6H26.3c-11.9,0-21.5-9.6-21.5-21.5V23.1C4.8,11.2,14.5,1.6,26.3,1.6H324.6c11.9,0,21.5,9.6,21.5,21.5V115.1c0,11.9-9.6,21.5-21.5,21.5ZM26.3,4.6C16.1,4.6,7.8,12.9,7.8,23.1V115.1c0,10.2,8.3,18.5,18.5,18.5H324.6c10.2,0,18.5-8.3,18.5-18.5V23.1c0-10.2-8.3-18.5-18.5-18.5H26.3Z"/>
      </g>
      <g>
        <path d="M31.9,1.5c-15.7,0-19.4,.5-25.1,5.2S.9,19.4,2.1,26.7c.5,2.9,2.5,6.3,5.4,5.8,3.8-.7,4.5-7.3,8.3-7.2,4.1,0,4.3,7.8,8.4,8.3,3.4,.5,4.8-4.2,7.6-6.3,2.8-2.1,6.8-1.1,10.1,0,5.6,1.8,10.3-2.7,15,.9,2.5,1.9,4.7,4.3,7.4,6,2.7,1.6,6.4,2.4,9.1,.7,2.7-1.7,3.3-6.4,.5-7.9,6.1,.9,11.7,1.1,14.5-2.3,2.8-3.4,2.3-3.9,2.3-8.4,0-3.3-.6-9-3-11.3-2.7-2.6-6.7-2.9-10.5-3.1-15.1-.8-30.3,.5-45.5-.3" style="fill: #f4f9f7;"/>
        <path d="M31.9,0c-8.5,0-17.9-.7-25,4.8-2.1,1.6-3.9,3.5-5,6C.6,13.4,0,16.3,0,19.2c0,2.9,.1,6.1,.9,8.9,.7,2.4,2.2,5.1,4.9,5.8,2.3,.6,4.4-.7,5.8-2.5,.7-.9,1.3-1.8,1.9-2.7,.4-.7,1-1.6,1.8-1.8,1.6-.5,2.6,1.5,3.2,2.6,1,1.8,1.8,3.8,3.6,4.9,2,1.3,4.4,.8,6.2-.7,1.8-1.6,2.8-4.3,5-5.4,2.9-1.6,6.2,0,9.1,.7,2.9,.6,5.7-.1,8.5-.6,1.5-.2,3-.3,4.3,.4,1.6,.8,3,2.3,4.3,3.5,2.8,2.5,5.9,4.7,9.8,4.9,3.2,.2,6.4-1.4,7.5-4.5,1-2.6,.3-5.7-2.1-7.2-.4,.9-.8,1.8-1.2,2.7,5.6,.8,12.5,1.7,16.4-3.3,1.4-1.8,2.3-3.5,2.3-5.8,0-2.6,0-5.2-.4-7.8-.4-2.5-1.1-5.3-2.9-7.3-2-2.2-5.1-3.1-7.9-3.5-3.5-.5-7.1-.5-10.7-.6-4,0-7.9,0-11.9,0-8.9,.1-17.8,.4-26.7,0-1.9,0-1.9,2.9,0,3,14.2,.7,28.3-.3,42.5,.2,4.8,.2,11.9-.2,13.8,5.3,.8,2.2,1.1,4.6,1.1,6.9,0,1.8,.4,4-.3,5.7-2.4,6-9.5,5-14.6,4.3-1.6-.2-2.7,1.8-1.2,2.7,1.7,1,1.2,3.6,0,4.8-1.9,2.1-5.6,1.2-7.8,0-2.8-1.5-5-4-7.5-5.9-2.1-1.6-4.4-2.1-7-1.7-2.6,.3-5.2,1.3-7.9,.7-2.9-.6-5.5-1.7-8.6-1.3-2.6,.4-4.4,1.9-6,3.9-.9,1.2-2.3,3.8-4.1,3.5-1.5-.2-2.4-2.3-3-3.5-.8-1.6-1.7-3.3-3.4-4.2-1.7-1-3.7-.7-5.2,.5-1.5,1.2-2.4,3-3.5,4.5-1.2,1.6-2.8,2.3-4.2,.6-1.6-2-1.8-4.9-2-7.4-.4-5.1,.2-10.6,4.1-14.2,2.5-2.3,5.4-3.8,8.6-4.5,5.2-1.1,10.7-.8,16-.8,1.9,0,1.9-3,0-3h0Z" style="fill: #241716;"/>
      </g>
      <g>
        <g>
          <path d="M26.6,81.5h22v4.6c0,1.7,.2,2.9,.5,3.6,.3,.7,.9,1.3,1.7,1.8,.9,.3,1.8,.5,2.9,.5,1.4-.3,2.3-.9,2.7-1.9,.3-1.1,.5-2.7,.5-4.6s-.7-3-2-4.1c-.5-.4-1.2-.8-2-1.3-.8-.4-1.6-.8-2.4-1.1l-7-1.9c-2.9-.7-5.1-1.4-6.6-2-2.9-1.2-5.2-2.8-6.9-4.7-1.6-1.9-2.8-4.2-3.4-6.7-.3-1.3-.5-2.5-.6-3.7-.1-1.2-.2-2.6-.2-4.3,0-2.9,.4-5.6,1.3-7.9,.8-2.5,2.2-4.6,4.1-6.4,1.9-1.8,4.7-3.2,8.2-4.2,3.5-1,7.6-1.6,12.4-1.6s6.7,.3,9.6,1c3.1,.6,5.9,1.4,8.4,2.4,2.5,1,4.9,2.2,7.3,3.7v16.8h-20.7l.2-2.9c0-4-1.3-6-4-6s-1.8,.3-2.5,.8c-.7,.5-1.2,1.3-1.4,2.3,0,1.9,.5,3.5,1.5,4.6,1,1.1,2.3,2,3.9,2.8,.7,.3,1.5,.5,2.3,.8,.8,.2,1.6,.5,2.4,.7l4.8,1c5.6,1.3,9.8,3.7,12.5,7.2,2.7,3.5,4.1,7.8,4.1,12.8s-.1,3.2-.4,5c-.3,1.8-.7,3.6-1.3,5.4-.9,3-2.2,5.4-4.1,7.3-1.9,1.9-4,3.3-6.5,4.2-2.4,.9-4.8,1.5-7.1,1.8l-9.4,.9c-.7,0-1.6,0-2.6,0-1,0-2.1-.2-3.3-.4-1.2-.2-2.3-.4-3.5-.6-1.1-.2-2.4-.6-3.8-1-1.4-.4-2.7-.8-3.9-1.3-1.2-.4-2.3-1-3.5-1.6-2-1.1-3.4-2.3-4.2-3.6v-18.1Z" style="fill: #fff;"/>
          <path d="M80.9,36.3h60.8v31.7h-16.2v-12.3c0-1-.2-1.8-.6-2.5-.4-.6-1.2-1.1-2.5-1.4v34.9c0,4.1,.8,6.5,2.5,7.1v12.9h-27.2v-12.3c.9-.2,1.6-1.2,2-3,.4-1.8,.6-3.6,.6-5.4V51.9c-1.4,0-2.3,.4-2.7,1.3-.4,.8-.6,1.9-.6,3.3v11.6h-16.2v-31.7Z" style="fill: #fff;"/>
          <path d="M187,36.3l9.7,51.1c.5,3.3,1.8,5.7,3.9,7v12.3h-27.9v-12.3c.8-.6,1.4-1.2,1.8-1.8,.4-.6,.6-1.2,.8-1.9v-2.7c.1,0-10.8,0-10.8,0,0,1.7,.1,3,.4,3.8,.2,.8,1,1.7,2.2,2.6v12.3h-24v-12.9c1-1,1.7-2,2.2-2.9,.4-.9,.8-2.3,1.1-4.3l9.1-50.4h31.7Zm-14.2,38.1l-3.2-20.6-3.3,20.6h6.5Z" style="fill: #fff;"/>
          <path d="M205.6,36.3h32.4c5.8,0,11.2,1.2,16,3.6,4.9,2.4,7.3,7.5,7.3,15.1s-.4,6.4-1.3,8.9c-.9,2.3-2.1,4.1-3.6,5.2-1.5,1.1-3.3,2-5.4,2.8,2.7,.4,4.7,1.1,6,2.1,1.3,.9,2.1,2.1,2.5,3.7s.6,3.9,.6,6.9v3.4c0,1.9,.1,3.2,.4,4.1,.2,.9,1,1.6,2.2,2.3v12.3h-22.7c-1-2.9-1.7-5.9-2-8.8-.3-2.9-.5-7.1-.5-12.5s-.6-3.8-1.8-4.6c-1.2-.8-3-1.4-5.4-2v8.5c0,2.1,.2,3.7,.5,4.7,.2,1.2,.9,2,2,2.3v12.3h-27.2v-12.3c.9-.6,1.5-1.3,1.9-2.1l.6-2.5,.2-3.7v-31.6c-.2-.9-.3-1.6-.4-2.3,0-.6-.3-1.2-.8-1.6l-1.5-.9v-13.5Zm24.7,14.9v14.1c1.9,0,3.5-.2,4.6-.5,1.1-.3,2.1-1,2.8-2,.7-1,1.1-2.6,1.1-4.7,0-2.9-.6-4.8-1.8-5.7-1.2-.9-3.4-1.3-6.6-1.3Z" style="fill: #fff;"/>
          <path d="M263.9,36.3h60.8v31.7h-16.2v-12.3c0-1-.2-1.8-.6-2.5-.4-.6-1.2-1.1-2.5-1.4v34.9c0,4.1,.8,6.5,2.5,7.1v12.9h-27.2v-12.3c.9-.2,1.6-1.2,2-3,.4-1.8,.6-3.6,.6-5.4V51.9c-1.4,0-2.3,.4-2.7,1.3-.4,.8-.6,1.9-.6,3.3v11.6h-16.2v-31.7Z" style="fill: #fff;"/>
        </g>
        <g>
          <path d="M51.3,109.6c-.8,0-1.6,0-2.7-.1-1,0-2.2-.2-3.4-.4-1.2-.2-2.4-.4-3.5-.6-1.2-.2-2.5-.6-3.9-1-1.5-.4-2.8-.9-4-1.3-1.2-.5-2.4-1-3.6-1.6-2.3-1.3-3.8-2.6-4.8-4.1-.2-.2-.2-.5-.2-.8v-18.1c0-.8,.7-1.5,1.5-1.5h21.9l-5.4-1.5c-2.9-.7-5.2-1.4-6.8-2.1-3.2-1.3-5.7-3-7.5-5.1-1.8-2.1-3-4.6-3.7-7.3-.3-1.3-.5-2.6-.6-3.9-.1-1.2-.2-2.7-.2-4.5,0-3.1,.5-5.9,1.4-8.4,.9-2.7,2.4-5,4.5-6.9,2.1-1.9,5-3.4,8.8-4.5,3.6-1.1,7.9-1.6,12.8-1.6s7,.4,10,1c3.1,.6,6,1.4,8.6,2.5,2.6,1,5.1,2.3,7.5,3.8,.4,.3,.7,.8,.7,1.3v16.8c0,.8-.7,1.5-1.5,1.5h-17.8l4.5,.9c6,1.3,10.5,4,13.4,7.8,2.9,3.8,4.4,8.4,4.4,13.7s-.1,3.3-.4,5.2c-.3,1.8-.7,3.7-1.4,5.6-.9,3.2-2.4,5.9-4.5,7.9-2,2-4.4,3.5-7,4.5-2.5,1-5,1.6-7.4,1.9l-9.5,.9s0,0-.1,0Zm-23.2-10.4c.7,.9,1.9,1.9,3.4,2.8,1,.5,2.1,1,3.2,1.5,1.1,.4,2.4,.8,3.7,1.2,1.4,.4,2.6,.7,3.7,.9,1.1,.2,2.2,.4,3.4,.6,1.1,.2,2.2,.3,3.1,.3,1,0,1.8,0,2.4,0l9.3-.9c2.1-.2,4.4-.8,6.7-1.7,2.2-.9,4.2-2.2,5.9-3.9,1.7-1.7,2.9-3.9,3.7-6.7,.6-1.8,1-3.5,1.3-5.2,.3-1.7,.4-3.3,.4-4.7,0-4.6-1.3-8.7-3.8-11.9-2.5-3.2-6.4-5.5-11.6-6.7l-4.8-1c-.9-.2-1.7-.4-2.5-.7-.8-.2-1.6-.5-2.4-.8,0,0,0,0-.1,0-1.8-.8-3.3-1.9-4.4-3.1-1.2-1.4-1.8-3.2-1.8-5.6s0-.2,0-.3c.3-1.4,.9-2.5,2-3.2,1-.7,2.1-1.1,3.4-1.1,2.1,0,5.5,1,5.5,7.5s0,0,0,.1v1.3c0,0,17.5,0,17.5,0v-14.5c-2-1.2-4.2-2.3-6.3-3.2-2.4-1-5.1-1.7-8.1-2.3-2.8-.6-5.9-1-9.3-1s-8.6,.5-12,1.5c-3.3,1-5.8,2.3-7.6,3.9-1.7,1.6-3,3.5-3.7,5.7-.8,2.2-1.2,4.7-1.2,7.5s0,3,.2,4.1c.1,1.2,.3,2.4,.6,3.6,.5,2.3,1.6,4.3,3,6.1,1.5,1.7,3.6,3.2,6.3,4.3,1.5,.6,3.6,1.2,6.4,1.9l7,1.9c1,.3,1.9,.7,2.7,1.2,.9,.5,1.6,.9,2.2,1.4,1.8,1.5,2.6,3.3,2.6,5.3s-.2,3.7-.6,5c0,0,0,0,0,.1-.4,1-1.4,2.4-3.8,2.8,0,0-.2,0-.3,0-1.3,0-2.4-.2-3.4-.6,0,0-.1,0-.2-.1-1.1-.6-1.8-1.4-2.3-2.4-.4-.9-.6-2.3-.6-4.2v-3.1H28.1v16.2Zm23.4-9.1c.6,.2,1.3,.3,2.1,.4,1.1-.2,1.3-.7,1.4-.9,.3-1,.4-2.4,.4-4.1s-.5-2.1-1.5-3c-.4-.3-1-.7-1.7-1.1-.7-.4-1.4-.7-2.2-.9l-.6-.2c.4,.3,.7,.7,.7,1.2v4.6c0,2,.2,2.7,.4,2.9,.2,.4,.5,.7,1,1Zm3-30.4c.1,0,.2,0,.4,.1,0-.1,0-.2,0-.3l.2-2.9c0-4.5-1.8-4.5-2.5-4.5s-1.1,.2-1.6,.5c-.4,.3-.6,.7-.8,1.2,0,1.5,.4,2.6,1.1,3.4,.8,.9,1.9,1.7,3.3,2.4Z" style="fill: #231815;"/>
          <path d="M124.9,108.3h-27.2c-.8,0-1.5-.7-1.5-1.5v-12.3c0-.7,.5-1.3,1.2-1.5,.1,0,.5-.4,.9-1.8,.4-1.7,.6-3.3,.6-5v-31.8c-.1,.6-.2,1.2-.2,2v11.6c0,.8-.7,1.5-1.5,1.5h-16.2c-.8,0-1.5-.7-1.5-1.5v-31.7c0-.8,.7-1.5,1.5-1.5h60.8c.8,0,1.5,.7,1.5,1.5v31.7c0,.8-.7,1.5-1.5,1.5h-16.2c-.8,0-1.5-.7-1.5-1.5v-12.3c0-.4,0-.7-.1-1v32.1c0,4.8,1.2,5.6,1.5,5.7,.6,.2,1,.8,1,1.4v12.9c0,.8-.7,1.5-1.5,1.5Zm-25.7-3h24.2v-10.5c-1.7-1.2-2.5-3.9-2.5-8V51.9c0-.5,.2-.9,.6-1.2,.4-.3,.8-.4,1.3-.3,1.7,.4,2.8,1,3.5,2,.6,.9,.8,2,.8,3.3v10.8h13.2v-28.7h-57.8v28.7h13.2v-10.1c0-1.6,.2-2.8,.7-3.9,.4-1,1.5-2.1,4-2.1s1.5,.7,1.5,1.5v34.3c0,1.9-.2,3.8-.6,5.7-.4,1.7-1,2.9-2,3.6v9.9Z" style="fill: #231815;"/>
          <path d="M200.6,108.3h-27.9c-.8,0-1.5-.7-1.5-1.5v-12.3c0-.5,.2-.9,.6-1.2,.6-.5,1.1-1,1.4-1.4,.3-.4,.4-.8,.5-1.3v-1s-7.8,0-7.8,0c0,1,.2,1.6,.3,1.9,0,.2,.4,.8,1.6,1.8,.4,.3,.6,.7,.6,1.2v12.3c0,.8-.7,1.5-1.5,1.5h-24c-.8,0-1.5-.7-1.5-1.5v-12.9c0-.4,.2-.8,.4-1.1,.9-.9,1.5-1.7,1.9-2.4,.2-.5,.6-1.6,.9-3.8l9.1-50.5c.1-.7,.8-1.2,1.5-1.2h31.7c.7,0,1.3,.5,1.5,1.2l9.7,51.1c.4,3,1.5,4.9,3.2,6,.4,.3,.7,.8,.7,1.3v12.3c0,.8-.7,1.5-1.5,1.5Zm-26.4-3h24.9v-10c-2.1-1.6-3.4-4.2-3.9-7.6l-9.5-49.8h-29.2l-8.9,49.2c-.3,2.1-.7,3.6-1.2,4.6-.4,.9-1.1,1.9-2,2.8v10.8h21v-10.1c-1.1-1-1.8-1.9-2.1-2.9-.3-.9-.4-2.3-.4-4.2s.7-1.5,1.5-1.5h10.9c.4,0,.8,.2,1.1,.5,.3,.3,.4,.7,.4,1.1v2.7c-.1,0-.1,.2-.1,.2-.2,.8-.5,1.6-.9,2.4-.4,.6-.9,1.2-1.5,1.7v10.1Zm-1.5-29.4h-6.5c-.4,0-.9-.2-1.1-.5-.3-.3-.4-.8-.3-1.2l3.3-20.6c.1-.7,.7-1.3,1.5-1.3h0c.7,0,1.4,.5,1.5,1.3l3.2,20.6c0,.4,0,.9-.3,1.2-.3,.3-.7,.5-1.1,.5Zm-4.8-3h3l-1.5-9.5-1.5,9.5Z" style="fill: #231815;"/>
          <path d="M262.5,108.3h-22.7c-.6,0-1.2-.4-1.4-1-1-3-1.7-6.1-2.1-9.1-.3-3-.5-7.2-.5-12.7s-.2-2.7-1.1-3.3c-.7-.5-1.7-.9-3-1.3v6.6c0,2.5,.2,3.7,.4,4.2,0,0,0,.2,0,.2,.1,.6,.4,.9,.9,1.1,.6,.2,1.1,.8,1.1,1.4v12.3c0,.8-.7,1.5-1.5,1.5h-27.2c-.8,0-1.5-.7-1.5-1.5v-12.3c0-.5,.2-1,.6-1.2,.6-.4,1.1-.9,1.3-1.4l.5-2.2,.2-3.6v-31.3c-.2-.9-.3-1.6-.4-2.3,0-.2,0-.4-.2-.5l-1.4-.8c-.5-.3-.7-.8-.7-1.3v-13.5c0-.8,.7-1.5,1.5-1.5h32.4c6,0,11.6,1.3,16.7,3.8,5.4,2.7,8.2,8.2,8.2,16.5s-.5,6.8-1.4,9.4c-1.1,2.6-2.4,4.6-4.1,5.9-.5,.4-1.1,.8-1.8,1.2,.9,.4,1.7,.8,2.3,1.3,1.6,1.1,2.6,2.6,3,4.6,.4,1.7,.6,4.1,.6,7.2v3.4c0,2.2,.2,3.2,.3,3.7,.1,.5,.6,.9,1.4,1.4,.5,.3,.8,.8,.8,1.3v12.3c0,.8-.7,1.5-1.5,1.5Zm-21.6-3h20.1v-10c-1.1-.8-1.8-1.7-2.1-2.7-.3-1-.4-2.5-.4-4.5v-3.4c0-2.9-.2-5.1-.5-6.6-.3-1.2-.9-2.2-1.8-2.8,0,0,0,0,0,0-1.1-.8-2.8-1.4-5.3-1.8-.7-.1-1.2-.7-1.3-1.3,0-.7,.4-1.3,1-1.6,2-.7,3.7-1.5,5-2.5,1.2-.9,2.3-2.5,3.1-4.5,.8-2.2,1.2-5.1,1.2-8.4,0-7.1-2.1-11.6-6.5-13.8-4.6-2.3-9.8-3.5-15.4-3.5h-30.9v11.2l.8,.5c0,0,.1,0,.2,.1,.8,.6,1.2,1.5,1.3,2.5,0,.6,.2,1.3,.4,2.1,0,.1,0,.2,0,.3v31.6l-.2,3.8c0,0,0,.2,0,.3l-.6,2.5c0,.1,0,.2-.1,.3-.4,.8-1,1.5-1.7,2.2v10.1h24.2v-9.9c-1-.6-1.7-1.6-2-2.9-.4-1.2-.5-2.8-.5-5.1v-8.5c0-.5,.2-.9,.6-1.2,.4-.3,.8-.4,1.3-.3,2.6,.6,4.5,1.3,5.9,2.2,1.6,1.1,2.4,3,2.4,5.8,0,5.3,.2,9.5,.5,12.4,.3,2.5,.8,5,1.6,7.5Zm-10.7-38.4c-.8,0-1.5-.7-1.5-1.5v-14.1c0-.8,.7-1.5,1.5-1.5,3.6,0,6,.5,7.5,1.6,1.6,1.2,2.4,3.4,2.4,6.9s-.4,4.2-1.3,5.5c-.9,1.3-2.1,2.2-3.6,2.6-1.3,.3-2.9,.5-5,.5Zm1.5-14.1v11.1c1.1,0,2-.2,2.7-.4,.8-.2,1.4-.7,1.9-1.4,.5-.8,.8-2.1,.8-3.8,0-3.2-.7-4.2-1.2-4.5-.4-.3-1.6-.8-4.2-1Z" style="fill: #231815;"/>
          <path d="M307.8,108.3h-27.2c-.8,0-1.5-.7-1.5-1.5v-12.3c0-.7,.5-1.3,1.2-1.5,.1,0,.5-.4,.9-1.8,.4-1.7,.6-3.3,.6-5v-31.8c-.1,.6-.2,1.2-.2,2v11.6c0,.8-.7,1.5-1.5,1.5h-16.2c-.8,0-1.5-.7-1.5-1.5v-31.7c0-.8,.7-1.5,1.5-1.5h60.8c.8,0,1.5,.7,1.5,1.5v31.7c0,.8-.7,1.5-1.5,1.5h-16.2c-.8,0-1.5-.7-1.5-1.5v-12.3c0-.4,0-.7-.1-1v32.1c0,4.8,1.2,5.6,1.5,5.7,.6,.2,1,.8,1,1.4v12.9c0,.8-.7,1.5-1.5,1.5Zm-25.7-3h24.2v-10.5c-1.7-1.2-2.5-3.9-2.5-8V51.9c0-.5,.2-.9,.6-1.2,.4-.3,.8-.4,1.3-.3,1.7,.4,2.8,1,3.5,2,.6,.9,.8,2,.8,3.3v10.8h13.2v-28.7h-57.8v28.7h13.2v-10.1c0-1.6,.2-2.8,.7-3.9,.4-1,1.5-2.1,4-2.1s1.5,.7,1.5,1.5v34.3c0,1.9-.2,3.8-.6,5.7-.4,1.7-1,2.9-2,3.6v9.9Z" style="fill: #231815;"/>
        </g>
      </g>
    </g>
  </g>
</svg>