<?xml version="1.0" encoding="UTF-8"?>
<svg id="Layer_2" data-name="Layer 2" xmlns="http://www.w3.org/2000/svg" viewBox="0 0 674.5 842.1">
  <g id="TREE">
    <g>
      <g>
        <rect x="272.3" y="670.6" width="122" height="170" rx="12" ry="12" style="fill: #754c24;"/>
        <path d="M382.3,842.1h-98c-7.4,0-13.5-6.1-13.5-13.5v-146c0-7.4,6.1-13.5,13.5-13.5h98c7.4,0,13.5,6.1,13.5,13.5v146c0,7.4-6.1,13.5-13.5,13.5Zm-98-170c-5.8,0-10.5,4.7-10.5,10.5v146c0,5.8,4.7,10.5,10.5,10.5h98c5.8,0,10.5-4.7,10.5-10.5v-146c0-5.8-4.7-10.5-10.5-10.5h-98Z"/>
      </g>
      <g>
        <g>
          <path d="M321.2,348.4c-100.7,99.7-201.4,199.4-302.1,299.1-9,8.9-18.6,19.5-17.5,32.1,1.3,15.2,17.5,24.2,32.1,28.5,34.6,10.1,72.6,8.5,106.2-4.7,25.6-10,50.9-26.8,78.1-22.9,28.8,4.1,50.4,30.2,79.1,35.1,39.9,6.8,77.2-29.7,117.3-24.5,22.9,3,43.9,19.5,66.8,16.1,31-4.6,48.7-43.4,79.9-46.5,14.9-1.5,29.1,5.7,42.2,12.8,13.1,7.1,27,14.6,41.9,13.9s30.2-13.7,27.5-28.4c-1.4-7.5-6.8-13.4-12.1-18.9-89.4-94.2-178.8-188.5-268.3-282.7-15.4-16.3-39.5-33.6-57.8-20.6" style="fill: #083d2b;"/>
          <path d="M320.1,347.4c-45.7,45.3-91.5,90.6-137.2,135.9-45.7,45.3-91.5,90.6-137.2,135.9-11,10.9-22.4,21.4-32.9,32.7-7.7,8.4-14.8,18.9-12.3,30.9,2.2,10.3,11.1,17.5,20.1,22,11.3,5.6,24.1,8.3,36.5,9.9,28.3,3.8,57.6,.4,84.2-10.1,25-9.9,51.1-27.5,79.2-22,24,4.7,42.1,23.2,64.6,31.5,23.1,8.5,46.1,1.2,68-7.4,23-9,46.4-18.8,71.4-11.7,12.6,3.6,24.4,9.7,37.2,12.7,10.8,2.5,21.7,2,31.9-2.6,18.8-8.4,31.3-26,48.9-36.3,10.7-6.3,22.4-8.2,34.6-5,14.4,3.8,26.7,12.6,40.1,18.7,11.2,5.1,24.4,8.9,36.6,4.8,9.5-3.3,18.7-11.1,20.3-21.5,2.1-12.7-8.3-22.2-16.2-30.6-11.1-11.7-22.1-23.3-33.2-35-44.3-46.6-88.5-93.3-132.8-139.9-22.1-23.3-44.3-46.6-66.4-69.9-11-11.6-21.9-23.2-33-34.7-8.3-8.7-18-16.8-29.2-21.6-9.8-4.2-20.6-4.8-29.7,1.5-1.6,1.1,0,3.7,1.5,2.6,10.6-7.3,23-4.1,33.4,1.9,11.6,6.8,20.7,16.5,29.9,26.2,21.5,22.7,43,45.3,64.5,68,42.7,45,85.4,90,128.1,135,21.5,22.7,43,45.3,64.5,68,8.7,9.1,20.5,20.4,13.3,33.9-5.8,10.9-18.7,15.7-30.4,14.6-27.9-2.8-49-29.7-78.1-26.5-19.5,2.2-33.7,17.4-47.9,29.3-7.6,6.4-15.9,12.7-25.5,15.7-12.1,3.8-24.3,1.1-35.9-3-12-4.2-23.7-9.8-36.5-11.6-10.9-1.5-21.9,.1-32.4,3.1-22.7,6.4-43.7,19.1-67.4,21.7-11.9,1.3-23.4-.7-34.2-5.6-10.8-4.8-20.6-11.5-30.8-17.4-9.8-5.7-20.3-10.8-31.7-12.4-12.7-1.8-25.3,.8-37.2,5.1-12.8,4.6-24.9,10.9-37.4,16.1-12.7,5.3-26,9.1-39.6,11.1-14.1,2.1-28.6,2.3-42.8,.8-12.9-1.4-26.5-4-38.3-9.6-9.9-4.8-20.1-12.9-20-24.9,0-13.6,12.1-24,21-32.7,44.3-43.9,88.6-87.7,132.9-131.6,44.3-43.9,88.6-87.7,132.9-131.6,10.8-10.7,21.6-21.4,32.4-32.1,1.4-1.4-.7-3.5-2.1-2.1h0Z" style="fill: #083d2b;"/>
        </g>
        <g>
          <path d="M321.2,334.2c-100.7,99.7-201.4,199.4-302.1,299.1-9,8.9-18.6,19.5-17.5,32.1,1.3,15.2,17.5,24.2,32.1,28.5,34.6,10.1,72.6,8.5,106.2-4.7,25.6-10,50.9-26.8,78.1-22.9,28.8,4.1,50.4,30.2,79.1,35.1,39.9,6.8,77.2-29.7,117.3-24.5,22.9,3,43.9,19.5,66.8,16.1,31-4.6,48.7-43.4,79.9-46.5,14.9-1.5,29.1,5.7,42.2,12.8,13.1,7.1,27,14.6,41.9,13.9s30.2-13.7,27.5-28.4c-1.4-7.5-6.8-13.4-12.1-18.9-89.4-94.2-178.8-188.5-268.3-282.7-15.4-16.3-39.5-33.6-57.8-20.6" style="fill: #0d7051;"/>
          <path d="M307.1,703.6c-3.4,0-6.9-.3-10.4-.9-14.4-2.4-27.1-10.2-39.4-17.7-12.5-7.6-25.3-15.4-39.6-17.4-20.2-2.8-39.7,6.1-58.6,14.7-6.2,2.8-12.5,5.7-18.8,8.2-34,13.3-72.1,14.9-107.2,4.7-9.4-2.8-31.5-11.2-33.1-29.8-1.2-13.2,8.7-24.1,18-33.3L320.1,333.1l2.1,2.1L20.2,634.3c-8.8,8.7-18.1,19-17.1,30.9,1.5,16.8,22.2,24.6,31,27.2,34.4,10.1,71.8,8.4,105.2-4.6,6.2-2.4,12.5-5.3,18.7-8.1,19.3-8.8,39.2-17.9,60.2-14.9,14.9,2.1,28.1,10.1,40.8,17.8,12.1,7.3,24.5,14.9,38.3,17.3,19.9,3.4,39.6-4.4,58.7-12,18.9-7.4,38.4-15.2,58.5-12.5,9.5,1.2,18.8,4.8,27.7,8.2,13.1,5,25.5,9.8,38.6,7.8,14.8-2.2,26.8-12.7,38.5-22.9,12.4-10.8,25.2-22,41.5-23.6,14.9-1.5,28.9,5.3,43,13,12.5,6.8,26.6,14.4,41.2,13.7,8.2-.4,16.8-4.8,21.8-11.2,2.6-3.3,5.5-8.7,4.3-15.4-1.3-7.3-7.1-13.3-11.7-18.2L391.2,344.1c-10.3-10.8-36.2-34.4-55.8-20.4l-1.8-2.4c21.5-15.4,48.9,9.4,59.7,20.8l268.3,282.7c4.9,5.1,10.9,11.5,12.4,19.7,1.1,6.1-.6,12.4-4.9,17.8-5.7,7.2-14.9,11.9-24,12.4-15.4,.8-29.9-7.1-42.7-14-13.7-7.5-27.2-14.1-41.3-12.6-15.4,1.6-27.2,11.9-39.8,22.9-12,10.5-24.3,21.3-40,23.6-13.9,2.1-27.2-3.1-40.1-8-8.8-3.4-17.9-6.9-27-8.1-19.3-2.5-38.5,5-57,12.3-16.2,6.4-32.9,13-50,13Z"/>
        </g>
        <g>
          <path d="M321.9,175.6c-94.4,93.5-188.9,187-283.3,280.5-8.4,8.3-17.5,18.3-16.4,30.1,1.3,14.2,16.4,22.7,30.1,26.7,32.5,9.5,68.1,7.9,99.6-4.4,24-9.4,47.7-25.1,73.3-21.5,27,3.8,47.3,28.4,74.2,32.9,37.4,6.4,72.4-27.9,110-23,21.5,2.8,41.2,18.3,62.6,15.1,29.1-4.3,45.7-40.7,74.9-43.6,13.9-1.4,27.3,5.3,39.6,12s25.4,13.7,39.3,13c14-.7,28.3-12.9,25.8-26.6-1.3-7-6.4-12.6-11.3-17.8-83.9-88.4-167.7-176.8-251.6-265.1-14.5-15.3-37.1-31.6-54.2-19.3" style="fill: #083d2b;"/>
          <path d="M320.8,174.6c-42.9,42.5-85.8,84.9-128.7,127.4-42.9,42.5-85.8,84.9-128.7,127.4-10.3,10.2-21,20-30.8,30.7-7.2,7.9-13.9,17.8-11.5,29,2.1,9.7,10.4,16.5,18.9,20.7,10.6,5.3,22.7,7.8,34.3,9.3,26.6,3.6,54,.4,79-9.5,23.4-9.3,47.9-25.8,74.2-20.6,22.5,4.4,39.5,21.8,60.6,29.5,21.7,8,43.3,1.1,63.8-7,21.6-8.5,43.5-17.6,66.9-10.9,11.8,3.4,22.9,9.1,34.9,11.9,10.2,2.4,20.4,1.9,30-2.4,17.6-7.9,29.4-24.4,45.9-34.1,10-5.9,21-7.7,32.3-4.6,13.5,3.6,25,11.8,37.6,17.5,10.6,4.8,23,8.4,34.4,4.5,9-3.1,17.6-10.5,19.1-20.3,1.9-12-7.8-20.9-15.2-28.7-10.4-10.9-20.8-21.9-31.1-32.8-41.5-43.7-83-87.5-124.5-131.2-20.8-21.9-41.5-43.7-62.3-65.6-10.3-10.9-20.5-21.8-30.9-32.6-7.8-8.1-16.9-15.8-27.4-20.2-9.2-3.9-19.4-4.5-27.9,1.4-1.6,1.1,0,3.7,1.5,2.6,9.9-6.8,21.5-3.9,31.2,1.8,10.9,6.3,19.4,15.5,28,24.6,20.2,21.3,40.4,42.5,60.5,63.8,40.1,42.2,80.1,84.4,120.2,126.6,20.2,21.3,40.4,42.5,60.5,63.8,8.1,8.5,19.2,19.1,12.5,31.7-5.4,10.2-17.5,14.7-28.5,13.6-26.1-2.6-45.9-27.8-73.3-24.8-18.3,2-31.6,16.3-45,27.6-7.1,6-14.9,11.9-23.9,14.7-11.3,3.5-22.8,1-33.6-2.8-11.3-4-22.3-9.2-34.2-10.8-10.2-1.4-20.5,.1-30.4,2.9-21.2,6-41,17.9-63.2,20.4-11.1,1.2-21.9-.6-32.1-5.2-10.1-4.5-19.3-10.8-28.8-16.3-9.2-5.4-19-10.1-29.7-11.7-11.9-1.7-23.8,.7-35,4.8-12,4.3-23.3,10.2-35.1,15.1-11.9,5-24.4,8.5-37.2,10.4-13.2,2-26.8,2.2-40.1,.7-12.1-1.3-24.9-3.7-35.9-9-9.3-4.4-18.8-12.1-18.7-23.3,0-12.7,11.3-22.4,19.6-30.6,41.6-41.1,83.1-82.3,124.7-123.4,41.6-41.1,83.1-82.3,124.7-123.4,10.1-10,20.3-20.1,30.4-30.1,1.4-1.4-.7-3.5-2.1-2.1h0Z" style="fill: #083d2b;"/>
        </g>
        <g>
          <path d="M321.9,167.1c-94.4,93.5-188.9,187-283.3,280.5-8.4,8.3-17.5,18.3-16.4,30.1,1.3,14.2,16.4,22.7,30.1,26.7,32.5,9.5,68.1,7.9,99.6-4.4,24-9.4,47.7-25.1,73.3-21.5,27,3.8,47.3,28.4,74.2,32.9,37.4,6.4,72.4-27.9,110-23,21.5,2.8,41.2,18.3,62.6,15.1,29.1-4.3,45.7-40.7,74.9-43.6,13.9-1.4,27.3,5.3,39.6,12,12.3,6.7,25.4,13.7,39.3,13,14-.7,28.3-12.9,25.8-26.6-1.3-7-6.4-12.6-11.3-17.8-83.9-88.4-167.7-176.8-251.6-265.1-14.5-15.3-37.1-31.6-54.2-19.3" style="fill: #0d7051;"/>
          <path d="M308.7,513.7c-3.2,0-6.5-.3-9.7-.8-13.5-2.3-25.4-9.6-37-16.6-11.7-7.1-23.7-14.4-37.2-16.3-18.9-2.7-37.2,5.7-54.9,13.8-5.8,2.6-11.7,5.4-17.6,7.7-31.9,12.5-67.7,14-100.6,4.4-8.8-2.6-29.6-10.5-31.1-28-1.1-12.4,8.1-22.7,16.9-31.3L320.8,166l2.1,2.1L39.6,448.6c-8.3,8.2-17,17.8-16,28.9,1.4,15.7,20.7,23,29,25.4,32.3,9.4,67.3,7.9,98.6-4.3,5.8-2.3,11.8-5,17.5-7.6,18.1-8.2,36.8-16.8,56.5-14,14,2,26.4,9.5,38.3,16.7,11.3,6.9,23,14,35.9,16.2,18.6,3.2,37.1-4.1,55-11.2,17.7-7,36.1-14.2,54.9-11.8,9,1.2,17.6,4.5,26,7.7,12.3,4.7,23.9,9.2,36.2,7.4,13.8-2.1,25.1-11.9,36-21.5,11.6-10.1,23.6-20.6,39-22.2,14-1.4,27.1,5,40.4,12.2,11.7,6.3,24.9,13.5,38.5,12.8,7.7-.4,15.7-4.5,20.4-10.5,2.5-3.1,5.2-8.1,4-14.4-1.2-6.8-6.6-12.4-10.9-17L387.5,176.4c-9.6-10.1-33.9-32.2-52.2-19.1l-1.8-2.4c20.2-14.5,46,8.8,56.1,19.5l251.6,265.1c4.6,4.8,10.3,10.8,11.7,18.5,1,5.7-.6,11.7-4.6,16.8-5.3,6.7-14,11.2-22.6,11.6-14.5,.8-28.1-6.6-40.1-13.2-12.9-7-25.5-13.2-38.7-11.8-14.4,1.5-25.5,11.2-37.3,21.5-11.2,9.8-22.9,20-37.6,22.2-13.1,1.9-25.6-2.9-37.7-7.5-8.2-3.2-16.7-6.4-25.3-7.6-18.1-2.4-36.1,4.7-53.5,11.6-15.2,6-30.9,12.2-46.9,12.2Z"/>
        </g>
        <g>
          <path d="M580,376.9c-191.4,68.8-357.6,70.8-515.5,45l34.3-33.6c138.4,25.9,319.9,6.4,442.7-53.6l38.6,42.1Z" style="fill: #9dcecb;"/>
          <path d="M243.4,438.7c-57.6,0-116.8-5.1-179.2-15.3-.6,0-1-.5-1.2-1-.2-.5,0-1.1,.4-1.5l34.3-33.6c.3-.3,.8-.5,1.3-.4,67.8,12.7,148.3,14.6,226.8,5.4,81.3-9.5,155.7-29.9,215-58.8,.6-.3,1.3-.2,1.8,.3l38.6,42.1c.3,.4,.5,.9,.3,1.4s-.5,.9-.9,1.1c-91.3,32.8-179.9,51.8-270.7,58.1-22,1.5-44.1,2.3-66.4,2.3Zm-175.8-17.8c85.3,13.8,164.4,17.9,241.9,12.5,89.9-6.2,177.5-24.9,267.8-57.1l-36.3-39.6c-59.5,28.9-133.8,49.1-215,58.6-78.5,9.2-159,7.3-226.9-5.3l-31.6,30.9Z"/>
        </g>
        <g>
          <path d="M68.8,584c191.4,68.8,399.9,35,551.9,0l-32.1-34.3c-138.4,25.9-353.4,50.7-476.3-9.3l-43.6,43.6Z" style="fill: #9dcecb;"/>
          <path d="M316.7,625.4c-91.1,0-174.5-13.4-248.5-40-.5-.2-.8-.6-1-1.1-.1-.5,0-1,.4-1.4l43.6-43.6c.5-.5,1.1-.6,1.7-.3,54.4,26.6,132.3,38.9,231.6,36.7,90.6-2,182.6-16.1,243.7-27.5,.5,0,1,0,1.4,.4l32.1,34.3c.4,.4,.5,.9,.3,1.5-.2,.5-.6,.9-1.1,1-63.2,14.5-159.1,34.4-261.5,38.9-14.5,.6-28.7,1-42.8,1Zm-245.2-42c84.5,30,181.3,42.8,287.9,38,100.8-4.5,195.3-23.8,258.4-38.3l-29.8-31.8c-61.3,11.4-153,25.4-243.4,27.4-99.2,2.2-177.2-10.1-232-36.5l-41.1,41.1Z"/>
        </g>
        <g>
          <path d="M317.1,98.1c-71.1,70.4-142.2,140.8-213.4,211.2-6.3,6.3-13.2,13.8-12.4,22.7,.9,10.7,12.3,17.1,22.6,20.1,24.5,7.1,51.3,6,75-3.3,18.1-7.1,35.9-18.9,55.2-16.2,20.3,2.9,35.6,21.4,55.8,24.8,28.2,4.8,54.5-21,82.9-17.3,16.2,2.1,31,13.8,47.2,11.4,21.9-3.3,34.4-30.6,56.4-32.9,10.5-1.1,20.5,4,29.8,9,9.3,5,19.1,10.3,29.6,9.8,10.5-.6,21.3-9.7,19.4-20.1-1-5.3-4.8-9.5-8.5-13.4-63.2-66.5-126.3-133.1-189.5-199.6-10.9-11.5-27.9-23.8-40.8-14.5" style="fill: #083d2b;"/>
          <path d="M316,97.1c-32.3,32-64.6,64-96.9,95.9-32.3,32-64.6,64-96.9,95.9-7.7,7.7-15.8,15.1-23.2,23.1-5.5,6-10.6,13.6-8.8,22.2,1.6,7.4,7.9,12.6,14.4,15.8,8,4,17.2,5.9,26,7.1,20,2.7,40.8,.3,59.6-7.2,17.5-7,36-19.4,55.7-15.5,16.9,3.3,29.7,16.4,45.6,22.2,16.4,6,32.7,.8,48.3-5.2,16.2-6.3,32.7-13.2,50.2-8.2,8.9,2.5,17.2,6.9,26.3,9,7.8,1.8,15.5,1.4,22.9-1.9,13.3-5.9,22.1-18.4,34.6-25.7,7.5-4.4,15.6-5.7,24.1-3.5,10.1,2.7,18.8,8.9,28.2,13.2,8,3.6,17.5,6.4,26.2,3.4,6.9-2.4,13.4-8,14.7-15.5,1.5-9.2-5.9-16-11.6-22l-23.4-24.7c-31.3-32.9-62.5-65.9-93.8-98.8s-31.3-32.9-46.9-49.4c-7.8-8.2-15.5-16.4-23.3-24.5-5.9-6.2-12.8-12-20.8-15.3-7-3-14.8-3.4-21.3,1.1-1.6,1.1,0,3.7,1.5,2.6,7.3-5.1,15.9-2.8,23.1,1.3,8.2,4.8,14.6,11.6,21,18.4,15.2,16,30.4,32,45.6,48,30.2,31.8,60.3,63.6,90.5,95.4,15.2,16,30.4,32,45.6,48,6,6.3,14.3,14.1,9.3,23.4-4,7.6-13,10.9-21.1,10.1-19.7-2-34.5-21-55.2-18.7-13.9,1.5-24,12.3-34.1,20.9-5.3,4.5-11.1,8.9-17.9,11-8.5,2.6-17,.7-25.1-2.1-8.5-3-16.8-6.9-25.8-8.2-7.8-1.1-15.6,0-23.1,2.2-16,4.5-30.8,13.5-47.5,15.3-8.3,.9-16.3-.5-24-3.9-7.6-3.4-14.5-8.1-21.7-12.3-7-4-14.4-7.7-22.5-8.8-9-1.3-18,.5-26.5,3.6-9,3.2-17.6,7.7-26.4,11.4-9,3.7-18.4,6.4-28,7.8-9.9,1.5-20.1,1.6-30.1,.5-9-1-18.6-2.8-26.8-6.7-6.9-3.3-14-8.9-13.9-17.2,0-9.5,8.5-16.7,14.7-22.8,31.3-31,62.6-62,93.9-93,31.3-31,62.6-62,93.9-93,7.6-7.6,15.3-15.1,22.9-22.7,1.4-1.4-.7-3.5-2.1-2.1h0Z" style="fill: #083d2b;"/>
        </g>
        <g>
          <path d="M317.1,92.4c-71.1,70.4-142.2,140.8-213.4,211.2-6.3,6.3-13.2,13.8-12.4,22.7,.9,10.7,12.3,17.1,22.6,20.1,24.5,7.1,51.3,6,75-3.3,18.1-7.1,35.9-18.9,55.2-16.2,20.3,2.9,35.6,21.4,55.8,24.8,28.2,4.8,54.5-21,82.9-17.3,16.2,2.1,31,13.8,47.2,11.4,21.9-3.3,34.4-30.6,56.4-32.9,10.5-1.1,20.5,4,29.8,9,9.3,5,19.1,10.3,29.6,9.8,10.5-.6,21.3-9.7,19.4-20.1-1-5.3-4.8-9.5-8.5-13.4-63.2-66.5-126.3-133.1-189.5-199.6-10.9-11.5-27.9-23.8-40.8-14.5" style="fill: #0d7051;"/>
          <path d="M307.2,353.8c-2.5,0-4.9-.2-7.4-.6-10.2-1.7-19.2-7.2-28-12.5-8.8-5.3-17.8-10.8-27.8-12.3-14.1-2-27.8,4.3-41.1,10.3-4.3,2-8.8,4-13.3,5.8-24.1,9.4-51.1,10.6-76,3.3-6.7-2-22.5-8-23.7-21.4-.8-9.5,6.2-17.3,12.8-23.9L316,91.3l2.1,2.1L104.8,304.7c-6.2,6.1-12.7,13.3-11.9,21.5,1,11.6,15.4,17,21.6,18.8,24.2,7.1,50.5,5.9,74-3.2,4.4-1.7,8.8-3.7,13.1-5.7,13.7-6.2,27.8-12.7,42.8-10.6,10.6,1.5,20,7.2,29,12.7,8.5,5.2,17.2,10.5,26.9,12.1,13.9,2.4,27.2-2.9,41.3-8.4,13.4-5.3,27.2-10.7,41.6-8.9,6.8,.9,13.3,3.4,19.7,5.8,9.2,3.5,17.9,6.9,27.1,5.5,10.3-1.5,18.8-8.9,26.9-16.1,8.8-7.7,17.9-15.6,29.5-16.8,10.7-1.1,20.6,3.7,30.7,9.2,9.2,5,18.7,10.1,28.8,9.6,5.7-.3,11.6-3.3,15.1-7.8,1.8-2.3,3.8-6,3-10.5-.9-5-4.9-9.2-8.1-12.6L366.2,99.7c-7.2-7.6-25.3-24.1-38.8-14.3l-1.8-2.4c15.4-11.1,35,6.6,42.8,14.7l189.5,199.6c3.5,3.7,7.8,8.2,8.9,14.1,.8,4.4-.5,9-3.6,12.9-4.1,5.1-10.7,8.6-17.3,8.9-11,.6-21.3-5-30.4-10-9.6-5.2-19.1-9.9-28.9-8.9-10.7,1.1-19,8.4-27.9,16.1-8.5,7.4-17.3,15.1-28.5,16.8-9.9,1.5-19.4-2.2-28.6-5.7-6.2-2.4-12.6-4.8-19-5.7-13.6-1.8-27,3.5-40.1,8.7-11.5,4.5-23.3,9.2-35.5,9.2Z"/>
        </g>
        <g>
          <circle cx="328.5" cy="433.3" r="9.6" transform="translate(-210.2 359.2) rotate(-45)" style="fill: #fae63d;"/>
          <path d="M328.5,444.4c-6.1,0-11.1-5-11.1-11.1s5-11.1,11.1-11.1,11.1,5,11.1,11.1-5,11.1-11.1,11.1Zm0-19.3c-4.5,0-8.1,3.7-8.1,8.1s3.7,8.1,8.1,8.1,8.1-3.7,8.1-8.1-3.7-8.1-8.1-8.1Z"/>
        </g>
        <g>
          <path d="M531.5,272c-105.1,16.4-272.8,12.9-374.9-21.4l27.5-26.7c103.8,23.3,216.1,34.3,321.7,21l25.7,27.1Z" style="fill: #9dcecb;"/>
          <path d="M531.1,270.5c-22.5,3.5-45.1,5.7-67.8,7.2-25.4,1.7-50.8,2.3-76.2,2.2-26.3-.2-52.6-1.2-78.8-3.3-25.5-2-50.9-5-76.1-9.3-22.8-3.9-45.5-8.9-67.7-15.8-2.5-.8-5-1.6-7.5-2.4,.2,.8,.4,1.7,.7,2.5,8-7.8,16-15.6,24-23.4,1.1-1.1,2.3-2.2,3.4-3.3-.5,.1-1,.3-1.5,.4,41.2,9.2,82.9,16.4,124.8,21,42.1,4.6,84.4,6.7,126.8,5.5,23.6-.7,47.1-2.4,70.5-5.4-.4-.1-.7-.3-1.1-.4,7.5,7.9,15,15.8,22.5,23.8,1.1,1.1,2.1,2.2,3.2,3.4,1.3,1.4,3.4-.7,2.1-2.1-4.3-4.5-8.6-9-12.9-13.6-3-3.1-6-6.3-8.9-9.4-1.3-1.3-2.5-3-3.9-4.1-1.2-1-3.8-.1-5.2,0-2.3,.3-4.6,.5-6.9,.8-4.4,.5-8.8,.9-13.2,1.3-8.6,.8-17.2,1.4-25.9,1.9-17.6,1-35.2,1.3-52.9,1.2-35.6-.3-71.2-2.9-106.6-7.2-35.1-4.3-70-10.3-104.5-17.8-2-.4-4.1-.9-6.1-1.3-1-.2-1.7-.5-2.5,.2-.6,.4-1.1,1-1.6,1.6-2.6,2.5-5.2,5-7.7,7.5-5.7,5.5-11.3,11-17,16.5-.4,.4-.7,.7-1.1,1.1-.8,.8-.4,2.2,.7,2.5,21.7,7.3,44,12.5,66.5,16.7,25,4.6,50.3,7.8,75.6,10.1,26.4,2.4,52.8,3.7,79.3,4.1,25.8,.4,51.7-.1,77.4-1.6,23.1-1.3,46.2-3.4,69.1-6.7,2.6-.4,5.1-.8,7.7-1.2,1.9-.3,1.1-3.2-.8-2.9Z"/>
        </g>
        <g>
          <circle cx="282.4" cy="285.9" r="16.8" transform="translate(-119.4 283.4) rotate(-45)" style="fill: #13bae2;"/>
          <path d="M282.4,304.2c-10.1,0-18.3-8.2-18.3-18.3s8.2-18.3,18.3-18.3,18.3,8.2,18.3,18.3-8.2,18.3-18.3,18.3Zm0-33.6c-8.4,0-15.3,6.9-15.3,15.3s6.9,15.3,15.3,15.3,15.3-6.9,15.3-15.3-6.9-15.3-15.3-15.3Z"/>
        </g>
        <g>
          <path d="M315.3,15.4c-55,54.4-109.9,108.8-164.9,163.2-4.9,4.8-10.2,10.7-9.6,17.5,.7,8.3,9.5,13.2,17.5,15.5,18.9,5.5,39.6,4.6,58-2.5,14-5.5,27.8-14.6,42.6-12.5,15.7,2.2,27.5,16.5,43.1,19.2,21.8,3.7,42.1-16.2,64-13.4,12.5,1.6,24,10.6,36.4,8.8,16.9-2.5,26.6-23.7,43.6-25.4,8.1-.8,15.9,3.1,23,7,7.2,3.9,14.8,8,22.9,7.6s16.5-7.5,15-15.5c-.7-4.1-3.7-7.3-6.6-10.3-48.8-51.4-97.6-102.8-146.4-154.3-8.4-8.9-21.6-18.4-31.5-11.2" style="fill: #083d2b;"/>
          <path d="M314.2,14.3c-25,24.7-49.9,49.4-74.9,74.1-25,24.7-49.9,49.4-74.9,74.1-6,5.9-12.2,11.7-17.9,17.9-4.4,4.8-8.3,10.7-6.9,17.5,1.2,5.8,6.2,9.9,11.3,12.4,6.3,3.1,13.4,4.6,20.3,5.5,15.5,2.1,31.6,.2,46.1-5.6,13.5-5.4,27.7-15,42.9-12,13.1,2.6,23,12.7,35.3,17.2,12.7,4.7,25.4,.7,37.5-4.1,12.4-4.9,25.1-10.2,38.6-6.4,6.9,2,13.3,5.3,20.3,6.9,6.1,1.4,12.2,1.1,17.9-1.5,10.3-4.6,17.1-14.2,26.7-19.8,5.7-3.3,11.9-4.4,18.3-2.6,7.8,2.1,14.4,6.8,21.7,10.1,6.3,2.9,13.7,5,20.5,2.7,5.4-1.9,10.6-6.3,11.6-12.2,1.2-7.2-4.5-12.6-9-17.3-6-6.4-12.1-12.7-18.1-19.1-24.1-25.4-48.3-50.9-72.4-76.3-12.1-12.7-24.1-25.4-36.2-38.2-6-6.3-11.9-12.7-18-19-4.6-4.8-10-9.3-16.2-11.9-5.5-2.3-11.6-2.6-16.7,.9-1.6,1.1,0,3.7,1.5,2.6,5.6-3.9,12.1-2.1,17.5,1,6.3,3.7,11.2,9,16.2,14.2,11.7,12.4,23.5,24.7,35.2,37.1,23.3,24.6,46.6,49.1,69.9,73.7,11.7,12.4,23.5,24.7,35.2,37.1,4.5,4.7,10.9,10.6,7.2,17.7-3.1,5.7-9.8,8.2-16,7.6-15.2-1.5-26.7-16.2-42.6-14.4-10.8,1.2-18.7,9.5-26.6,16.2-4.1,3.4-8.5,6.8-13.6,8.4-6.5,2-13,.5-19.2-1.7-6.6-2.3-13-5.4-19.9-6.3-6.1-.8-12.2,0-18,1.7-12.3,3.5-23.8,10.4-36.6,11.8-6.4,.7-12.5-.3-18.3-2.9-5.9-2.6-11.2-6.3-16.8-9.5-5.4-3.1-11.2-6-17.4-6.9-7-1-14.1,.4-20.7,2.8-7,2.5-13.6,5.9-20.4,8.8-6.9,2.9-14.2,4.9-21.6,6.1-7.6,1.1-15.5,1.2-23.2,.4-6.9-.8-14.3-2.1-20.6-5.2-5.2-2.5-10.6-6.7-10.6-13,0-7.2,6.6-12.7,11.2-17.4,24.2-23.9,48.4-47.9,72.5-71.8,24.2-23.9,48.4-47.9,72.5-71.8,5.9-5.8,11.8-11.7,17.7-17.5,1.4-1.4-.7-3.5-2.1-2.1h0Z" style="fill: #083d2b;"/>
        </g>
        <g>
          <path d="M316.4,9.5c.1,0,6.3-5.5,6.4-5.6,9.9-6.9,23,2.5,31.3,11.4,48.8,51.4,97.6,102.8,146.4,154.3,2.9,3,5.8,6.3,6.6,10.3,1.5,8-6.9,15.1-15,15.5s-15.7-3.7-22.9-7.6c-7.2-3.9-14.9-7.8-23-7-17,1.7-26.7,22.9-43.6,25.4-12.5,1.9-23.9-7.1-36.4-8.8-21.9-2.9-42.3,17.1-64,13.4-15.6-2.7-27.5-16.9-43.1-19.2-14.9-2.1-28.6,7.1-42.6,12.5-18.3,7.2-39.1,8.1-58,2.5-8-2.3-16.8-7.3-17.5-15.5-.6-6.9,4.7-12.7,9.6-17.5,55-54.4,97.4-96.8,152.4-151.2l13.6-12.9Z" style="fill: #0d7051;"/>
          <path d="M307.6,212.7c-1.9,0-3.8-.1-5.8-.5-8-1.4-15-5.6-21.7-9.7-7-4.3-13.7-8.3-21.4-9.4-10.8-1.5-21.4,3.3-31.6,8-3.4,1.5-6.8,3.1-10.3,4.5-18.7,7.3-39.6,8.2-58.9,2.6-5.3-1.5-17.6-6.3-18.6-16.8-.7-7.5,4.8-13.6,10-18.7,27.5-27.2,52.2-51.8,76.2-75.6,23.9-23.8,48.7-48.4,76.2-75.6l14.2-13.4c5.8-5.1,5.8-5.1,6-5.2,12.1-8.4,27.3,5.3,33.3,11.5l146.4,154.3c2.7,2.9,6.1,6.4,7,11.1,.6,3.5-.4,7.2-2.8,10.3-3.2,4.1-8.4,6.7-13.6,7-8.6,.4-16.6-3.9-23.7-7.7-7.4-4-14.7-7.6-22.1-6.8-8.2,.8-14.6,6.4-21.3,12.3-6.6,5.8-13.4,11.7-22.2,13-7.8,1.2-15.1-1.7-22.3-4.4-4.8-1.8-9.7-3.7-14.6-4.4-10.4-1.4-20.8,2.7-30.8,6.7-8.9,3.5-18.1,7.1-27.5,7.1Zm-53.1-22.9c1.5,0,3.1,.1,4.6,.3,8.3,1.2,15.5,5.6,22.5,9.8,6.5,4,13.3,8.1,20.7,9.3,10.7,1.8,20.9-2.2,31.7-6.5,10.4-4.1,21.1-8.3,32.3-6.9,5.3,.7,10.4,2.6,15.3,4.5,7.1,2.7,13.8,5.3,20.7,4.2,7.9-1.2,14.1-6.6,20.6-12.3,6.8-6,13.9-12.1,23-13.1,8.3-.8,16.1,2.9,23.9,7.2,7,3.8,14.3,7.8,22.1,7.4,4.3-.2,8.8-2.5,11.4-5.9,1.4-1.7,2.8-4.5,2.2-7.9-.7-3.8-3.7-7-6.2-9.6L353,16.3c-16.2-17.1-25.9-13.6-29.3-11.2-.3,.3-2.3,2-5.7,5l-.5,.5-13.5,12.8c-27.5,27.2-52.2,51.8-76.2,75.6-23.9,23.8-48.7,48.4-76.2,75.6-4.7,4.7-9.7,10.1-9.1,16.3,.8,8.7,11.7,12.9,16.4,14.2,18.7,5.5,38.9,4.6,57-2.5,3.4-1.3,6.8-2.9,10.1-4.4,9.2-4.2,18.7-8.5,28.6-8.5Z"/>
        </g>
        <g>
          <circle cx="282.4" cy="624.1" r="16.8" transform="translate(-378.9 802.9) rotate(-80.8)" style="fill: #69b5ba;"/>
          <path d="M282.4,642.4c-10.1,0-18.3-8.2-18.3-18.3s8.2-18.3,18.3-18.3,18.3,8.2,18.3,18.3-8.2,18.3-18.3,18.3Zm0-33.6c-8.4,0-15.3,6.9-15.3,15.3s6.9,15.3,15.3,15.3,15.3-6.9,15.3-15.3-6.9-15.3-15.3-15.3Z"/>
        </g>
        <g>
          <path d="M455.1,121.3c-111.4,55-193.7,54.2-285.6,33.6l25-25c80.5,20.7,163.8,7.7,235.6-34.3l25,25.7Z" style="fill: #9dcecb;"/>
          <path d="M273.5,169.4c-35.2,0-69.3-5.1-104.4-13-.5-.1-1-.5-1.1-1-.2-.5,0-1.1,.4-1.5l25-25c.4-.4,.9-.5,1.4-.4,78.9,20.2,162.1,8.1,234.5-34.1,.6-.3,1.4-.2,1.8,.2l25,25.7c.3,.3,.5,.8,.4,1.3,0,.5-.4,.9-.8,1.1-69.2,34.1-127.1,46.7-182.2,46.7Zm-101.1-15.4c87.9,19.4,169.6,21,280.1-33.1l-22.7-23.4c-72.6,42-155.9,54.1-234.9,34.1l-22.5,22.5Z"/>
        </g>
        <g>
          <circle cx="392.2" cy="243.2" r="16.8" style="fill: #9a5cbc;"/>
          <path d="M392.2,261.5c-10.1,0-18.3-8.2-18.3-18.3s8.2-18.3,18.3-18.3,18.3,8.2,18.3,18.3-8.2,18.3-18.3,18.3Zm0-33.6c-8.4,0-15.3,6.9-15.3,15.3s6.9,15.3,15.3,15.3,15.3-6.9,15.3-15.3-6.9-15.3-15.3-15.3Z"/>
        </g>
        <g>
          <circle cx="507.3" cy="402.4" r="16.8" style="fill: #f8ad3b;"/>
          <path d="M507.3,420.7c-10.1,0-18.3-8.2-18.3-18.3s8.2-18.3,18.3-18.3,18.3,8.2,18.3,18.3-8.2,18.3-18.3,18.3Zm0-33.6c-8.4,0-15.3,6.9-15.3,15.3s6.9,15.3,15.3,15.3,15.3-6.9,15.3-15.3-6.9-15.3-15.3-15.3Z"/>
        </g>
        <g>
          <circle cx="422.6" cy="138.8" r="11.8" transform="translate(25.6 339.5) rotate(-45)" style="fill: #f4901e;"/>
          <path d="M422.6,152.1c-7.3,0-13.3-6-13.3-13.3s6-13.3,13.3-13.3,13.3,6,13.3,13.3-6,13.3-13.3,13.3Zm0-23.6c-5.7,0-10.3,4.6-10.3,10.3s4.6,10.3,10.3,10.3,10.3-4.6,10.3-10.3-4.6-10.3-10.3-10.3Z"/>
        </g>
        <g>
          <circle cx="441.1" cy="574.4" r="9.6" style="fill: #9a5cbc;"/>
          <path d="M441.1,585.5c-6.1,0-11.1-5-11.1-11.1s5-11.1,11.1-11.1,11.1,5,11.1,11.1-5,11.1-11.1,11.1Zm0-19.3c-4.5,0-8.1,3.7-8.1,8.1s3.7,8.1,8.1,8.1,8.1-3.7,8.1-8.1-3.7-8.1-8.1-8.1Z"/>
        </g>
        <g>
          <circle cx="291.9" cy="134.5" r="9.6" transform="translate(-29.3 122) rotate(-22.5)" style="fill: #00a69a;"/>
          <path d="M291.9,145.7c-6.1,0-11.1-5-11.1-11.1s5-11.1,11.1-11.1,11.1,5,11.1,11.1-5,11.1-11.1,11.1Zm0-19.3c-4.5,0-8.1,3.7-8.1,8.1s3.7,8.1,8.1,8.1,8.1-3.7,8.1-8.1-3.7-8.1-8.1-8.1Z"/>
        </g>
        <g>
          <circle cx="463.3" cy="281" r="9.6" style="fill: #f8a5cf;"/>
          <path d="M463.3,292.2c-6.1,0-11.1-5-11.1-11.1s5-11.1,11.1-11.1,11.1,5,11.1,11.1-5,11.1-11.1,11.1Zm0-19.3c-4.5,0-8.1,3.7-8.1,8.1s3.7,8.1,8.1,8.1,8.1-3.7,8.1-8.1-3.7-8.1-8.1-8.1Z"/>
        </g>
      </g>
    </g>
  </g>
</svg>