<?xml version="1.0" encoding="UTF-8"?>
<svg id="Layer_2" data-name="Layer 2" xmlns="http://www.w3.org/2000/svg" viewBox="0 0 161.2 521.8">
  <g id="CAT">
    <g>
      <path d="M61.5,521.8c-6.1-22.4-3.7-41-.7-52.6,1.7-6.4,4.3-12.6,7.8-18.5,36-61,.4-125.6-7.1-137.9-14.4-23.7-23.1-65.9-11.6-100.7,10.4-31.5,13.9-43.4,15-47.8l-1-.4c1.1-2.7,2.2-5.2,4.5-4.3,2.4,.9,1.9,2.6-1,12.5-2.5,8.5-7,22.5-13.3,41.5-11,33.5-2.7,74.1,11.2,96.9,7.7,12.7,44.4,79.3,7.1,142.5-3.3,5.6-5.7,11.4-7.3,17.4-2.9,11.1-5.2,28.9,.7,50.3l-4.3,1.2Z"/>
      <g>
        <g>
          <ellipse cx="80.6" cy="84" rx="82.2" ry="78.4" transform="translate(-17.9 146.1) rotate(-78.4)" style="fill: #ffdc20;"/>
          <path d="M79.2,168c-5.1,0-10.3-.5-15.5-1.6C20.2,157.5-7.5,113.3,1.8,67.8,11.1,22.4,54.1-7.3,97.5,1.6c43.4,8.9,71.2,53.2,61.8,98.6h0c-8.2,40-42.5,67.8-80.2,67.8ZM82,4C46.1,4,13.6,30.5,5.7,68.6c-8.9,43.3,17.5,85.4,58.7,93.9,41.3,8.5,82.1-19.8,91-63.1h0c8.9-43.3-17.5-85.4-58.7-93.9-4.9-1-9.9-1.5-14.7-1.5Z"/>
        </g>
        <g>
          <polyline points="74.7 164.4 79.2 179.8 49.2 173.7 59.7 159.8" style="fill: #e7bc41;"/>
          <polygon points="82.1 182.4 45.7 175 58.1 158.6 61.3 161 52.7 172.3 76.4 177.2 72.8 165 76.7 163.9 82.1 182.4"/>
        </g>
        <g style="opacity: .8;">
          <path d="M129.5,108c-3.2-2.4-3.6-7.3-1.7-11.3,9.3-19.5,5.1-42.8-10.3-57.9-3.1-3.1-4.5-7.9-2.3-11.2t0,0c2.2-3.3,8.1-3.3,12.3,.9,19.9,19.3,25.2,49.4,13.3,74.4-2.6,5.4-8.1,7.5-11.3,5.1t0,0Z" style="fill: #fff;"/>
        </g>
        <path d="M67.8,142.6c1.5-4.5-1.4-9.6-5.9-12.3-22.3-12.8-34-38.7-29-63.9,1-5.2-.9-10.7-5.3-12.5h0c-4.4-1.8-10.2,2.3-11.5,9.2-6.5,32.4,8.6,65.6,37.2,82.1,6.1,3.5,13,1.9,14.5-2.6t0,0Z" style="fill: #f4b80f;"/>
      </g>
    </g>
  </g>
</svg>