<?xml version="1.0" encoding="UTF-8"?>
<svg id="Layer_2" data-name="Layer 2" xmlns="http://www.w3.org/2000/svg" xmlns:xlink="http://www.w3.org/1999/xlink" viewBox="0 0 1242.5 512">
  <defs>
    <clipPath id="clippath">
      <rect x="35.4" width="1169" height="497" style="fill: none;"/>
    </clipPath>
  </defs>
  <g id="BG">
    <g style="clip-path: url(#clippath);">
      <g>
        <path d="M1206.3,33.1c-19.2-3.2-36.2,.6-45.3,3.3-33.4,9.8-55.8,37.4-56.6,66.2-16.7,7.1-30.3,18.3-39.7,31.6-20.1-11.7-46.5-15.2-72.7-7.5-8.3,2.5-16.1,5.9-23.1,10.1-20.7-17.6-52.2-24.3-83.4-15.1-19.1,5.6-35,16.3-46.3,29.7-14.7-11.7-36.5-16-58-9.7-25.6,7.5-43.2,27.8-45.8,49.7-9.9-1.7-20.7-1.2-31.4,1.9-21.7,6.4-37.6,22-43.6,39.9-2.9,.5-5.7,1.1-8.6,1.9-2.1,.6-15.7,2.9-32,10.1-16.7-7.6-30.9-10-33-10.6-2.9-.8-5.7-1.4-8.6-1.9-6-17.9-21.9-33.5-43.6-39.9-10.7-3.2-21.5-3.6-31.4-1.9-2.6-21.9-20.2-42.2-45.8-49.7-21.6-6.4-43.3-2-58,9.7-11.3-13.4-27.2-24.1-46.3-29.7-31.2-9.2-62.7-2.5-83.4,15.1-7-4.2-14.7-7.6-23.1-10.1-26.2-7.7-52.6-4.2-72.7,7.5-9.3-13.3-23-24.5-39.7-31.6-.8-28.8-23.2-56.4-56.6-66.2-9.1-2.7-26.2-6.4-45.3-3.3L2,279.5l.3,2.3v228.2H1240.4l-34.1-476.9Z" style="fill: #fff;"/>
        <path d="M1242.5,512H.4v-230l-.4-2.4v-.3S30.6,30.9,30.6,30.9l1.5-.2c18.5-3.1,35.4,.1,46.2,3.3,32.8,9.7,56.5,37,58,66.8,15.6,6.9,28.8,17.3,38.3,30.3,21.1-11.7,47.5-14.2,72.7-6.8,7.8,2.3,15.3,5.5,22.3,9.6,21.9-17.9,54-23.4,84.1-14.5,18.2,5.4,34.1,15.3,46,28.9,15.8-11.7,37.5-15,58.3-8.9,24.7,7.3,43.3,27,46.9,49.4,10-1.4,20.4-.6,30.3,2.3,21.3,6.3,37.8,21.2,44.5,40.1,2.9,.5,5.3,1.1,7.6,1.8,.3,0,1,.2,1.9,.4,4.6,1,16.8,3.7,30.6,9.9,13.3-5.8,24.6-8.3,29.5-9.4,.9-.2,1.6-.4,1.9-.4,2.3-.7,4.8-1.3,7.6-1.8,6.7-18.9,23.3-33.8,44.5-40.1,9.9-2.9,20.3-3.7,30.3-2.3,3.6-22.4,22.2-42.1,46.9-49.4,20.9-6.1,42.5-2.8,58.3,8.9,11.9-13.5,27.8-23.5,46-28.9,30.2-8.9,62.2-3.3,84.1,14.5,7-4,14.5-7.3,22.3-9.6,25.2-7.4,51.5-4.9,72.7,6.8,9.5-13,22.7-23.4,38.3-30.3,1.5-29.8,25.2-57.1,58-66.8,10.9-3.2,27.7-6.4,46.2-3.3l1.6,.3v1.6c.1,0,34.4,479.1,34.4,479.1ZM4.4,508H1238.2l-33.8-473.2c-17.2-2.5-32.7,.5-42.9,3.4-31.7,9.3-54.3,35.8-55.2,64.3v1.3s-1.2,.5-1.2,.5c-16,6.8-29.4,17.5-38.8,30.9l-1.1,1.5-1.6-.9c-20.4-12-46.3-14.6-71.1-7.3-8,2.3-15.6,5.7-22.6,9.9l-1.2,.7-1.1-.9c-20.9-17.7-52.1-23.3-81.5-14.7-18.1,5.3-33.8,15.4-45.3,29.1l-1.3,1.5-1.5-1.2c-14.9-11.8-35.9-15.3-56.2-9.3-24,7.1-41.8,26.4-44.4,48.1l-.2,2.1-2.1-.4c-10-1.7-20.5-1.1-30.5,1.9-20.1,5.9-36.3,20.7-42.3,38.6l-.4,1.1-1.2,.2c-3.2,.5-5.9,1.1-8.3,1.9-.4,.1-1.1,.3-2.1,.5-4.9,1.1-16.3,3.6-29.6,9.5l-.8,.4-.8-.4c-13.7-6.3-25.5-8.9-30.6-10-1-.2-1.7-.4-2.1-.5-2.5-.7-5.1-1.3-8.3-1.9l-1.2-.2-.4-1.1c-6-17.9-22.1-32.7-42.3-38.6-10-2.9-20.5-3.6-30.5-1.9l-2.1,.4-.2-2.1c-2.6-21.7-20.4-41-44.4-48.1-20.3-6-41.3-2.5-56.2,9.3l-1.5,1.2-1.3-1.5c-11.6-13.7-27.2-23.7-45.3-29.1-29.4-8.7-60.6-3-81.5,14.7l-1.1,.9-1.2-.7c-7-4.2-14.6-7.5-22.6-9.9-24.8-7.3-50.7-4.6-71.1,7.3l-1.6,.9-1.1-1.5c-9.4-13.4-22.8-24.1-38.8-30.9l-1.2-.5v-1.3c-.9-28.6-23.6-55-55.2-64.3-10.2-3-25.8-6-43-3.4L4,279.5l.3,2.3v226.2Z"/>
      </g>
    </g>
  </g>
</svg>