<?xml version="1.0" encoding="UTF-8"?>
<svg id="Layer_2" data-name="Layer 2" xmlns="http://www.w3.org/2000/svg" viewBox="0 0 1149.4 108.1">
  <g id="BOX">
    <g>
      <g>
        <g>
          <g>
            <path d="M1107,76.9c-2.2,0-4.3-.9-5.9-2.6l-13.6-15.5c-2.7-3.1-2.6-7.6,.2-10.5l13.9-14.6c1.4-1.5,3.4-2.4,5.5-2.4,2.1,0,4.1,.7,5.6,2.2,1.5,1.5,2.4,3.5,2.4,5.6s-.8,3.9-2.2,5.4l-9,9.4,8.9,10.1c2.8,3.2,2.5,8.2-.7,11-1.5,1.3-3.3,1.9-5.1,1.9Z" style="fill: #211815;"/>
            <path d="M1124.1,76.9c-2.2,0-4.3-.9-5.9-2.7l-13.6-15.5c-2.7-3.1-2.6-7.6,.2-10.5l13.9-14.6c1.4-1.5,3.4-2.4,5.5-2.4,2.1,0,4.1,.7,5.6,2.2,1.5,1.5,2.4,3.5,2.4,5.6s-.8,3.9-2.2,5.4l-9,9.4,8.9,10.1c2.8,3.2,2.5,8.2-.7,11-1.5,1.3-3.3,1.9-5.1,1.9Z" style="fill: #211815;"/>
            <path d="M1141.2,76.9c-2.2,0-4.3-.9-5.9-2.6l-13.6-15.5c-2.7-3.1-2.6-7.6,.2-10.5l13.9-14.6c1.4-1.5,3.4-2.4,5.5-2.4,2.1,0,4.1,.7,5.6,2.2,1.5,1.5,2.4,3.5,2.4,5.6s-.8,3.9-2.2,5.4l-9,9.4,8.9,10.1c2.8,3.2,2.5,8.2-.7,11-1.5,1.3-3.3,1.9-5.1,1.9Z" style="fill: #211815;"/>
            <path d="M1134.2,61.3h-171.7c-4.3,0-7.8-3.5-7.8-7.8s3.5-7.8,7.8-7.8h171.7c4.3,0,7.8,3.5,7.8,7.8s-3.5,7.8-7.8,7.8Z" style="fill: #211815;"/>
            <path d="M974.5,71.7c-1.5,0-2.9-.4-4.2-1.2l-16.1-10.2c-2.3-1.4-3.6-3.9-3.6-6.6,0-2.7,1.3-5.1,3.6-6.6l16.5-10.6c1.8-1.1,3.8-1.5,5.9-1.1,2,.4,3.8,1.6,4.9,3.4,.8,1.3,1.2,2.7,1.2,4.2,0,2.7-1.3,5.1-3.6,6.5l-6.2,4,5.8,3.7c1.8,1.1,3,2.8,3.4,4.9,.5,2,0,4.1-1,5.9-1.1,1.8-2.8,3-4.9,3.4-.6,.1-1.2,.2-1.7,.2Z" style="fill: #211815;"/>
          </g>
          <g>
            <path d="M1111.1,39c0,.9-.3,1.9-1,2.6l-11.5,12.1,11.3,12.9c1.4,1.6,1.2,4-.4,5.4-1.6,1.4-4,1.2-5.4-.4l-13.6-15.5c-1.3-1.5-1.2-3.7,.1-5.1l13.9-14.6c1.4-1.5,3.8-1.6,5.4-.1,.8,.7,1.2,1.7,1.2,2.7Z" style="fill: #ff96d5;"/>
            <path d="M1128.2,39c0,.9-.3,1.9-1.1,2.6l-11.5,12.1,11.3,12.9c1.4,1.6,1.2,4-.4,5.4-1.6,1.4-4,1.2-5.4-.4l-13.6-15.5c-1.3-1.5-1.2-3.7,.1-5.1l13.9-14.6c1.4-1.5,3.8-1.6,5.4-.1,.8,.7,1.2,1.7,1.2,2.7Z" style="fill: #ff96d5;"/>
            <path d="M1145.4,39c0,.9-.3,1.9-1,2.6l-11.5,12.1,11.3,12.9c1.4,1.6,1.2,4-.4,5.4-1.6,1.4-4,1.2-5.4-.4l-13.6-15.5c-1.3-1.5-1.3-3.7,.1-5.1l13.9-14.6c1.4-1.5,3.8-1.6,5.4-.1,.8,.7,1.2,1.7,1.2,2.7Z" style="fill: #ff96d5;"/>
            <path d="M1138,53.6c0,2.1-1.7,3.8-3.8,3.8h-171.7c-2.1,0-3.8-1.7-3.8-3.8s1.7-3.8,3.8-3.8h171.7c2.1,0,3.8,1.7,3.8,3.8Z" style="fill: #ff96d5;"/>
            <path d="M978.7,43.1c0,1.2-.6,2.5-1.7,3.2l-11.5,7.4,11.1,7c1.8,1.1,2.3,3.5,1.2,5.2-1.1,1.8-3.5,2.3-5.2,1.2l-16.1-10.2c-1.1-.7-1.8-1.9-1.8-3.2h0c0-1.3,.7-2.5,1.7-3.2l16.5-10.6c1.8-1.1,4.1-.6,5.2,1.1,.4,.6,.6,1.4,.6,2.1Z" style="fill: #5cbaa9;"/>
          </g>
        </g>
        <g>
          <path d="M956.3,76.7l-17.6-18.7c-2.2-2.2-2.2-5.8,0-8l17.8-18.9c6.1-6.1,16-6.1,22.1,0,2.9,2.9,4.6,6.9,4.6,11s-1.1,6.6-3,9.3c-.8,1-1.7,1.9-2.8,2.6h0c1.1,.7,2,1.5,2.8,2.6,2,2.7,3.1,5.9,3.1,9.3s-1.3,7.1-3.6,9.9c-6,7.3-16.6,7.6-23.2,1Z" style="fill: #ff96d5;"/>
          <path d="M967.5,83.5c-4.7,0-9.2-1.9-12.6-5.3h0s-17.6-18.8-17.6-18.8c-2.9-2.9-2.9-7.8,0-10.7l17.7-18.8c6.9-6.9,18.1-6.9,24.9,0s5.2,7.7,5.2,12.5-1.2,7.4-3.4,10.5c-.4,.5-.8,.9-1.2,1.4,.4,.4,.8,.9,1.2,1.4,2.3,3,3.4,6.7,3.4,10.5s-1.4,8-4,11.2c-3.2,3.9-7.7,6.2-12.7,6.4-.3,0-.6,0-.8,0Zm-9.8-8.2c2.9,2.9,6.6,4.3,10.4,4.1,3.8-.2,7.3-2,9.8-5,2-2.5,3.1-5.4,3.1-8.7s-.9-5.7-2.7-8.1c-.6-.8-1.3-1.5-2.2-2.1l-2.6-1.7,2.6-1.7c.9-.6,1.6-1.3,2.2-2.1,1.7-2.3,2.7-5.1,2.7-8.1s-1.4-7.1-4-9.6c-5.3-5.3-13.9-5.3-19.2,0l-17.7,18.8c-1.5,1.5-1.5,3.8,0,5.2l17.6,18.8Z"/>
        </g>
      </g>
      <g>
        <g>
          <g>
            <path d="M42.4,76.9c-1.8,0-3.7-.6-5.1-1.9-3.2-2.8-3.6-7.8-.7-11l8.9-10.1-9-9.4c-1.4-1.5-2.2-3.4-2.2-5.4s.9-4.2,2.4-5.6c1.5-1.4,3.5-2.2,5.6-2.2,2.1,0,4,.9,5.5,2.4l13.9,14.6c2.8,2.9,2.9,7.5,.2,10.5l-13.6,15.5c-1.5,1.8-3.7,2.7-5.9,2.7Z" style="fill: #211815;"/>
            <path d="M25.2,76.9c-1.8,0-3.7-.6-5.1-1.9-3.2-2.8-3.6-7.8-.7-11l8.9-10.1-9-9.4c-1.4-1.5-2.2-3.4-2.2-5.4s.9-4.2,2.4-5.6c1.5-1.4,3.5-2.2,5.6-2.2,2.1,0,4,.9,5.5,2.4l13.9,14.6c2.8,2.9,2.9,7.5,.2,10.5l-13.6,15.5c-1.5,1.8-3.7,2.7-5.9,2.7Z" style="fill: #211815;"/>
            <path d="M8.1,76.9c-1.8,0-3.7-.6-5.1-1.9-3.2-2.8-3.6-7.8-.7-11l8.9-10.1L2.2,44.4c-1.4-1.5-2.2-3.4-2.2-5.4s.9-4.2,2.4-5.6c1.5-1.4,3.5-2.2,5.6-2.1,2.1,0,4,.9,5.5,2.4l13.9,14.6c2.8,2.9,2.9,7.5,.2,10.5l-13.6,15.5c-1.5,1.8-3.7,2.7-5.9,2.7Z" style="fill: #211815;"/>
            <path d="M186.9,61.3H15.2c-4.3,0-7.8-3.5-7.8-7.8s3.5-7.8,7.8-7.8H186.9c4.3,0,7.8,3.5,7.8,7.8s-3.5,7.8-7.8,7.8Z" style="fill: #211815;"/>
            <path d="M174.9,71.7c-.6,0-1.2,0-1.7-.2-2-.5-3.8-1.7-4.9-3.4-1.1-1.8-1.5-3.8-1-5.9,.5-2,1.7-3.8,3.4-4.9l5.8-3.6-6.2-4c-2.2-1.4-3.6-3.9-3.6-6.5s.4-3,1.2-4.2c1.1-1.7,2.9-3,4.9-3.4,2-.4,4.1,0,5.9,1.1l16.5,10.6c2.2,1.4,3.6,3.9,3.6,6.5,0,2.7-1.4,5.2-3.6,6.6l-16.1,10.2c-1.3,.8-2.7,1.2-4.2,1.2Z" style="fill: #211815;"/>
          </g>
          <g>
            <path d="M38.3,39c0,.9,.3,1.9,1,2.6l11.5,12.1-11.3,12.9c-1.4,1.6-1.2,4,.4,5.4,1.6,1.4,4,1.2,5.4-.4l13.6-15.5c1.3-1.5,1.3-3.7-.1-5.1l-13.9-14.6c-1.4-1.5-3.8-1.6-5.4-.1-.8,.7-1.2,1.7-1.2,2.7Z" style="fill: #ff96d5;"/>
            <path d="M21.1,39c0,.9,.3,1.9,1.1,2.6l11.5,12.1-11.3,12.9c-1.4,1.6-1.2,4,.4,5.4,1.6,1.4,4,1.2,5.4-.4l13.6-15.5c1.3-1.5,1.3-3.7-.1-5.1l-13.9-14.6c-1.4-1.5-3.8-1.6-5.4-.1-.8,.7-1.2,1.7-1.2,2.7Z" style="fill: #ff96d5;"/>
            <path d="M4,39c0,.9,.3,1.9,1,2.6l11.5,12.1-11.3,12.9c-1.4,1.6-1.2,4,.4,5.4,1.6,1.4,4,1.2,5.4-.4l13.6-15.5c1.3-1.5,1.3-3.7-.1-5.1l-13.9-14.6c-1.4-1.5-3.8-1.6-5.4-.1-.8,.7-1.2,1.7-1.2,2.7Z" style="fill: #ff96d5;"/>
            <path d="M11.4,53.6c0,2.1,1.7,3.8,3.8,3.8H186.9c2.1,0,3.8-1.7,3.8-3.8s-1.7-3.8-3.8-3.8H15.2c-2.1,0-3.8,1.7-3.8,3.8Z" style="fill: #ff96d5;"/>
            <path d="M170.7,43.1c0,1.2,.6,2.5,1.7,3.2l11.5,7.4-11.1,7c-1.8,1.1-2.3,3.5-1.2,5.2,1.1,1.8,3.5,2.3,5.2,1.2l16.1-10.2c1.1-.7,1.8-1.9,1.8-3.2h0c0-1.3-.7-2.5-1.7-3.2l-16.5-10.6c-1.8-1.1-4.1-.6-5.2,1.1-.4,.6-.6,1.4-.6,2.1Z" style="fill: #5cbaa9;"/>
          </g>
        </g>
        <g>
          <path d="M193.1,76.7l17.6-18.7c2.2-2.2,2.2-5.8,0-8l-17.8-18.9c-6.1-6.1-16-6.1-22.1,0-2.9,2.9-4.6,6.9-4.6,11s1.1,6.6,3,9.3,1.7,1.9,2.8,2.6h0c-1.1,.7-2,1.5-2.8,2.6-2,2.7-3.1,5.9-3.1,9.3s1.3,7.1,3.6,9.9c6,7.3,16.6,7.6,23.2,1Z" style="fill: #ff96d5;"/>
          <path d="M181.9,83.5c-.3,0-.6,0-.8,0-4.9-.2-9.5-2.5-12.7-6.4-2.6-3.2-4-7.1-4-11.2s1.2-7.4,3.4-10.5c.4-.5,.8-.9,1.2-1.4-.4-.4-.8-.9-1.2-1.4-2.2-3-3.4-6.7-3.4-10.5s1.8-9.1,5.2-12.5c6.9-6.9,18-6.9,24.9,0l17.8,18.9c2.9,2.9,2.9,7.8,0,10.7l-17.6,18.7c-3.5,3.5-7.9,5.3-12.6,5.3Zm0-54.9c-3.5,0-7,1.3-9.6,4-2.6,2.6-4,6-4,9.6s.9,5.7,2.7,8.1c.6,.8,1.3,1.5,2.2,2.1l2.6,1.7-2.6,1.7c-.9,.6-1.6,1.3-2.2,2.1-1.7,2.3-2.7,5.1-2.7,8.1s1.1,6.2,3.1,8.7c2.5,3,6,4.8,9.8,5,3.9,.2,7.6-1.3,10.4-4.1l17.6-18.7c1.5-1.5,1.5-3.8,0-5.2l-17.8-18.9c-2.6-2.6-6.1-3.9-9.6-3.9Z"/>
        </g>
      </g>
      <g>
        <g>
          <g>
            <path d="M333.9,54c0-6.9-8-14-23-12.6,11.7-9,12-19.4,6.9-24.2-5.1-4.8-16.2-4.6-25.7,6.5,1.5-14.2-6.1-21.7-13.3-21.7s-14.8,7.5-13.3,21.7c-9.5-11-20.6-11.3-25.7-6.5-5.1,4.8-4.8,15.2,6.9,24.2-15-1.4-23,5.7-23,12.6s8,14,23,12.6c-11.7,9-12,19.4-6.9,24.2,5.1,4.8,16.2,4.6,25.7-6.5-1.5,14.2,6.1,21.7,13.3,21.7s14.8-7.5,13.3-21.7c9.5,11,20.6,11.3,25.7,6.5,5.1-4.8,4.8-15.2-6.9-24.2,15,1.4,23-5.7,23-12.6Z" style="fill: #fff;"/>
            <path d="M278.7,108.1c-3.9,0-7.6-1.7-10.4-4.9-3.1-3.4-4.8-8.2-5.1-13.8-4.5,3.9-9.5,6.2-14.4,6.4-4.1,.2-7.9-1-10.5-3.5-2.6-2.5-4-6-3.8-10,.2-4.6,2.5-9.3,6.6-13.6-6.3-.3-11.5-2.1-15.2-5.4-2.9-2.6-4.4-5.9-4.4-9.3s1.6-6.7,4.4-9.3c3.6-3.3,8.9-5.2,15.2-5.4-4.1-4.2-6.4-8.9-6.6-13.6-.2-3.9,1.1-7.5,3.8-10,2.6-2.5,6.4-3.7,10.5-3.5,4.9,.2,9.9,2.5,14.4,6.4,.3-5.6,2-10.4,5.1-13.8,2.8-3.2,6.5-4.9,10.4-4.9s7.6,1.7,10.4,4.9c3.1,3.4,4.8,8.2,5.1,13.8,4.5-3.9,9.5-6.2,14.4-6.4,4.1-.2,7.9,1,10.5,3.5,2.6,2.5,4,6,3.8,10-.2,4.6-2.5,9.3-6.6,13.6,6.3,.3,11.5,2.1,15.2,5.4,2.9,2.6,4.4,5.9,4.4,9.3s-1.6,6.7-4.4,9.3c-3.6,3.3-8.9,5.2-15.2,5.4,4.1,4.2,6.4,8.9,6.6,13.6,.2,3.9-1.1,7.5-3.8,10-2.6,2.5-6.4,3.7-10.5,3.5-4.9-.2-9.9-2.5-14.4-6.4-.3,5.6-2,10.4-5.1,13.8-2.8,3.2-6.5,4.9-10.4,4.9Zm-13.3-25.7c.3,0,.5,0,.8,.2,.8,.3,1.3,1.2,1.2,2-.7,6.7,.7,12.3,3.9,15.9,2.1,2.3,4.7,3.6,7.4,3.6s5.4-1.3,7.4-3.6c3.2-3.6,4.6-9.3,3.9-15.9,0-.9,.4-1.7,1.2-2,.8-.3,1.7-.1,2.3,.5,4.7,5.4,10.1,8.5,15.3,8.8,3,.2,5.7-.7,7.6-2.4,1.8-1.7,2.7-4.1,2.5-6.9-.2-4.8-3.5-9.9-9.2-14.3-.7-.5-1-1.5-.6-2.3,.3-.8,1.2-1.3,2.1-1.3,10.2,1,15.5-2.2,17.7-4.3,2-1.8,3.1-4.1,3.1-6.3s-1.1-4.5-3.1-6.3c-2.2-2-7.5-5.2-17.7-4.3-.9,0-1.7-.4-2.1-1.3-.3-.8,0-1.8,.6-2.3,5.7-4.4,9-9.5,9.2-14.3,.1-2.8-.8-5.2-2.5-6.9-1.8-1.7-4.5-2.6-7.6-2.4-5.2,.3-10.6,3.4-15.3,8.8-.6,.7-1.5,.9-2.3,.5-.8-.3-1.3-1.2-1.2-2,.7-6.7-.7-12.3-3.9-15.9-2.1-2.3-4.7-3.6-7.4-3.6s-5.4,1.3-7.4,3.6c-3.2,3.6-4.6,9.3-3.9,15.9,0,.9-.4,1.7-1.2,2-.8,.3-1.7,.1-2.3-.5-4.7-5.4-10.1-8.5-15.3-8.8-3-.2-5.7,.7-7.6,2.4-1.8,1.7-2.7,4.1-2.5,6.9,.2,4.8,3.5,9.9,9.2,14.3,.7,.5,1,1.5,.6,2.3-.3,.8-1.2,1.3-2.1,1.3-10.2-1-15.5,2.2-17.7,4.3-2,1.8-3.1,4.1-3.1,6.3s1.1,4.5,3.1,6.3c2.2,2,7.5,5.2,17.7,4.3,.9,0,1.7,.4,2.1,1.3,.3,.8,0,1.8-.6,2.3-5.7,4.4-9,9.5-9.2,14.3-.1,2.8,.8,5.2,2.5,6.9,1.8,1.7,4.5,2.6,7.6,2.4,5.2-.3,10.6-3.4,15.3-8.8,.4-.4,.9-.7,1.5-.7Z" style="fill: #211815;"/>
          </g>
          <g>
            <path d="M295.3,61c-2.1,2.1-8.5,8.4-8.5,8.4-4.5,4.4-11.4,4.5-15.9,0,0,0-6.8-6.4-9-8.6-4.6-4.6-4.5-12.5,0-17.2,2.2-2.3,5-3.6,8.1-3.6s5,.9,7,2.5,1.2,1.2,1.7,2h0s0,0,0,0c.5-.8,1-1.5,1.7-2,2-1.6,4.4-2.5,7-2.5s5.2,1,7.3,2.8c5.3,4.7,5.7,13,.7,18.1Z" style="fill: #ffdc20;"/>
            <path d="M278.8,74.7c-3.3,0-6.7-1.3-9.3-3.8-.3-.2-6.8-6.4-9-8.6-5.3-5.4-5.3-14.3,0-20,2.5-2.7,5.9-4.2,9.6-4.2s5.9,1,8.2,3c.1,.1,.3,.2,.4,.4,.1-.1,.3-.3,.4-.4,2.4-1.9,5.2-3,8.2-3s6.2,1.2,8.6,3.3c3,2.6,4.8,6.4,4.9,10.4,.2,4-1.3,7.8-4.1,10.6h0c-2.1,2.1-8.3,8.2-8.6,8.4-2.6,2.6-6,3.9-9.4,3.9Zm-8.8-32.6c-2.5,0-4.9,1-6.6,2.9-3.8,4-3.8,10.6,0,14.4,2.1,2.2,8.8,8.5,8.9,8.5,3.8,3.6,9.4,3.6,13.2,0,0,0,6.5-6.3,8.5-8.4h0c2-2.1,3.1-4.8,3-7.7-.1-2.9-1.4-5.6-3.6-7.5-1.7-1.5-3.8-2.3-6-2.3s-4.1,.7-5.7,2.1c-.5,.4-.9,.9-1.2,1.5-.4,.6-1,1-1.7,1h0c-.7,0-1.4-.4-1.7-1-.4-.6-.8-1.1-1.3-1.5-1.6-1.3-3.6-2.1-5.7-2.1Z" style="fill: #211815;"/>
          </g>
        </g>
        <g>
          <g>
            <path d="M925.9,54c0-6.9-8-14-23-12.6,11.7-9,12-19.4,6.9-24.2-5.1-4.8-16.2-4.6-25.7,6.5,1.5-14.2-6.1-21.7-13.3-21.7s-14.8,7.5-13.3,21.7c-9.5-11-20.6-11.3-25.7-6.5-5.1,4.8-4.8,15.2,6.9,24.2-15-1.4-23,5.7-23,12.6s8,14,23,12.6c-11.7,9-12,19.4-6.9,24.2,5.1,4.8,16.2,4.6,25.7-6.5-1.5,14.2,6.1,21.7,13.3,21.7s14.8-7.5,13.3-21.7c9.5,11,20.6,11.3,25.7,6.5,5.1-4.8,4.8-15.2-6.9-24.2,15,1.4,23-5.7,23-12.6Z" style="fill: #fff;"/>
            <path d="M870.7,108.1c-3.9,0-7.6-1.7-10.4-4.9-3.1-3.4-4.8-8.2-5.1-13.8-4.5,3.9-9.5,6.2-14.4,6.4-4.1,.2-7.9-1-10.5-3.5-2.6-2.5-4-6-3.8-10,.2-4.6,2.5-9.3,6.6-13.6-6.3-.3-11.5-2.1-15.2-5.4-2.9-2.6-4.4-5.9-4.4-9.3s1.6-6.7,4.4-9.3c3.6-3.3,8.9-5.2,15.2-5.4-4.1-4.2-6.4-8.9-6.6-13.6-.2-3.9,1.1-7.5,3.8-10,2.6-2.5,6.4-3.7,10.5-3.5,4.9,.2,9.9,2.5,14.4,6.4,.3-5.6,2-10.4,5.1-13.8,2.8-3.2,6.5-4.9,10.4-4.9s7.6,1.7,10.4,4.9c3.1,3.4,4.8,8.2,5.1,13.8,4.5-3.9,9.5-6.2,14.4-6.4,4.1-.2,7.9,1,10.5,3.5,2.6,2.5,4,6,3.8,10-.2,4.6-2.5,9.3-6.6,13.6,6.3,.3,11.5,2.1,15.2,5.4,2.9,2.6,4.4,5.9,4.4,9.3s-1.6,6.7-4.4,9.3c-3.6,3.3-8.9,5.2-15.2,5.4,4.1,4.2,6.4,8.9,6.6,13.6,.2,3.9-1.1,7.5-3.8,10-2.6,2.5-6.4,3.7-10.5,3.5-4.9-.2-9.9-2.5-14.4-6.4-.3,5.6-2,10.4-5.1,13.8-2.8,3.2-6.5,4.9-10.4,4.9Zm-13.3-25.7c.3,0,.5,0,.8,.2,.8,.3,1.3,1.2,1.2,2-.7,6.7,.7,12.3,3.9,15.9,2.1,2.3,4.7,3.6,7.4,3.6s5.4-1.3,7.4-3.6c3.2-3.6,4.6-9.3,3.9-15.9,0-.9,.4-1.7,1.2-2,.8-.3,1.7-.1,2.3,.5,4.7,5.4,10.1,8.5,15.3,8.8,3,.2,5.7-.7,7.6-2.4,1.8-1.7,2.7-4.1,2.5-6.9-.2-4.8-3.5-9.9-9.2-14.3-.7-.5-1-1.5-.6-2.3,.3-.8,1.2-1.3,2.1-1.3,10.3,1,15.5-2.2,17.7-4.3,2-1.8,3.1-4.1,3.1-6.3s-1.1-4.5-3.1-6.3c-2.2-2-7.5-5.2-17.7-4.3-.9,0-1.7-.4-2.1-1.3-.3-.8,0-1.8,.6-2.3,5.7-4.4,9-9.5,9.2-14.3,.1-2.8-.8-5.2-2.5-6.9-1.8-1.7-4.5-2.6-7.6-2.4-5.2,.3-10.6,3.4-15.3,8.8-.6,.7-1.5,.9-2.3,.5-.8-.3-1.3-1.2-1.2-2,.7-6.7-.7-12.3-3.9-15.9-2.1-2.3-4.7-3.6-7.4-3.6s-5.4,1.3-7.4,3.6c-3.2,3.6-4.6,9.3-3.9,15.9,0,.9-.4,1.7-1.2,2-.8,.3-1.7,.1-2.3-.5-4.7-5.4-10.1-8.5-15.3-8.8-3-.2-5.7,.7-7.6,2.4-1.8,1.7-2.7,4.1-2.5,6.9,.2,4.8,3.5,9.9,9.2,14.3,.7,.5,1,1.5,.6,2.3-.3,.8-1.2,1.3-2.1,1.3-10.3-1-15.5,2.2-17.7,4.3-2,1.8-3.1,4.1-3.1,6.3s1.1,4.5,3.1,6.3c2.2,2,7.5,5.2,17.7,4.3,.9,0,1.7,.4,2.1,1.3s0,1.8-.6,2.3c-5.7,4.4-9,9.5-9.2,14.3-.1,2.8,.8,5.2,2.5,6.9,1.8,1.7,4.5,2.6,7.6,2.4,5.2-.3,10.6-3.4,15.3-8.8,.4-.4,.9-.7,1.5-.7Z" style="fill: #211815;"/>
          </g>
          <g>
            <path d="M887.3,61c-2.1,2.1-8.5,8.4-8.5,8.4-4.5,4.4-11.4,4.5-15.9,0,0,0-6.8-6.4-9-8.6-4.6-4.6-4.5-12.5,0-17.2,2.2-2.3,5-3.6,8.1-3.6s5,.9,7,2.5,1.2,1.2,1.7,2h0s0,0,0,0c.5-.8,1-1.5,1.7-2,2-1.6,4.4-2.5,7-2.5s5.2,1,7.3,2.8c5.3,4.7,5.7,13,.7,18.1Z" style="fill: #ffdc20;"/>
            <path d="M870.8,74.7c-3.3,0-6.7-1.3-9.3-3.8-.3-.3-6.8-6.4-9-8.6-5.3-5.4-5.3-14.3,0-20,2.5-2.7,5.9-4.2,9.6-4.2s5.9,1,8.2,3c.1,.1,.3,.2,.4,.4,.1-.1,.3-.3,.4-.4,2.4-1.9,5.2-3,8.2-3s6.2,1.2,8.6,3.3c3,2.6,4.8,6.4,4.9,10.4,.2,4-1.3,7.8-4.1,10.6h0c-2.1,2.1-8.3,8.2-8.6,8.4-2.6,2.6-6,3.9-9.4,3.9Zm-8.8-32.6c-2.5,0-4.9,1-6.6,2.9-3.8,4-3.8,10.6,0,14.4,2.1,2.2,8.8,8.5,8.9,8.5,3.8,3.6,9.4,3.6,13.2,0,0,0,6.5-6.3,8.5-8.4h0c2-2.1,3.1-4.8,3-7.7-.1-2.9-1.4-5.6-3.6-7.5-1.7-1.5-3.8-2.3-6-2.3s-4.1,.7-5.7,2.1c-.5,.4-.9,.9-1.2,1.5-.4,.6-1,1-1.7,1h0c-.7,0-1.4-.4-1.7-1-.4-.6-.8-1.1-1.3-1.5-1.6-1.3-3.6-2.1-5.7-2.1Zm25.3,18.9h0Z" style="fill: #211815;"/>
          </g>
        </g>
      </g>
    </g>
  </g>
</svg>