<?xml version="1.0" encoding="UTF-8"?>
<svg id="Layer_2" data-name="Layer 2" xmlns="http://www.w3.org/2000/svg" viewBox="0 0 112.6 86.4">
  <g id="BAR">
    <polygon points="16.5 7.5 6.5 73.7 101.1 84.9 111.1 18.6 16.5 7.5" style="fill-rule: evenodd; stroke: #000; stroke-linecap: round; stroke-linejoin: round; stroke-width: 3px;"/>
    <g>
      <g>
        <polygon points="106.1 12.6 11.5 1.5 1.5 67.7 96.1 78.9 106.1 12.6" style="fill: #fff; fill-rule: evenodd;"/>
        <path d="M96.1,80.4c0,0-.1,0-.2,0L1.3,69.2c-.4,0-.8-.3-1-.6-.2-.3-.4-.7-.3-1.1L10,1.3c.1-.8,.9-1.4,1.7-1.3L106.3,11.1c.4,0,.8,.3,1,.6,.2,.3,.4,.7,.3,1.1l-10,66.2c-.1,.7-.7,1.3-1.5,1.3ZM3.2,66.4l91.6,10.8,9.6-63.3L12.8,3.2,3.2,66.4Z"/>
      </g>
      <g>
        <polygon points="54.9 32.8 96.1 78.9 1.5 67.7 54.9 32.8" style="fill: #fdf3ff; fill-rule: evenodd;"/>
        <path d="M96.1,80.4c0,0-.1,0-.2,0L1.3,69.2c-.6,0-1.1-.5-1.3-1.1-.1-.6,.1-1.3,.6-1.6L54.1,31.6c.6-.4,1.4-.3,1.9,.3l41.2,46c.4,.5,.5,1.1,.2,1.7-.3,.5-.8,.8-1.3,.8ZM5.8,66.7l86.5,10.2L54.6,34.8,5.8,66.7Z"/>
      </g>
      <g>
        <polygon points="52.7 47.5 11.5 1.5 73.8 8.8 106.1 12.6 52.7 47.5" style="fill: #fdf3ff; fill-rule: evenodd;"/>
        <path d="M52.7,49c-.4,0-.8-.2-1.1-.5L10.4,2.5c-.4-.5-.5-1.1-.2-1.7S11.1,0,11.7,0L106.3,11.1c.6,0,1.1,.5,1.3,1.1,.1,.6-.1,1.3-.6,1.6L53.5,48.8c-.3,.2-.5,.2-.8,.2ZM15.3,3.5L52.9,45.6,101.8,13.6,15.3,3.5Z"/>
      </g>
      <g>
        <path d="M60.7,33.3c-2.4-.3-4.6,.6-6.1,2.1-1-1.8-3-3.2-5.3-3.5-3.9-.5-7.6,2.2-8.2,6-1.2,7.7,10.8,14.9,10.8,14.9,0,0,13.7-4.2,14.9-11.9,.6-3.8-2.2-7.2-6.1-7.7Z" style="fill: #f0515f; fill-rule: evenodd;"/>
        <path d="M51.9,54.3c-.3,0-.5,0-.8-.2-.5-.3-12.8-7.8-11.5-16.4,.7-4.6,5.1-7.8,9.8-7.2,2.1,.2,4,1.3,5.4,2.8,1.8-1.2,3.9-1.7,6-1.4h0c2.4,.3,4.4,1.4,5.8,3.3,1.3,1.8,1.9,3.9,1.6,6.1-1.3,8.6-15.3,12.9-15.9,13.1-.1,0-.3,0-.4,0Zm-3.6-21c-2.9,0-5.4,2-5.8,4.8-.8,5.2,6.2,10.9,9.5,13.1,3.9-1.3,12.4-5.2,13.2-10.5,.2-1.4-.1-2.7-1-3.8-.9-1.2-2.3-1.9-3.8-2.1h0c-1.8-.2-3.6,.4-4.9,1.7-.3,.3-.8,.5-1.3,.4-.5,0-.9-.3-1.1-.7-.9-1.5-2.4-2.5-4.2-2.7-.2,0-.5,0-.7,0Z"/>
      </g>
    </g>
  </g>
</svg>