<?xml version="1.0" encoding="UTF-8"?>
<svg id="Layer_2" data-name="Layer 2" xmlns="http://www.w3.org/2000/svg" viewBox="0 0 185.2 136.5">
  <g id="TEXT_LOGO" data-name="TEXT&amp;amp;LOGO">
    <g>
      <g>
        <g>
          <path d="M51.6,116.4c-11.3-3.7-19-13.6-22.4-24.2-3.4-10.8-2.8-22.9,.6-33.3,3.1-10.1,11.8-19.9,22.4-24,8.2-3.3,20-3,28.3-.6,20.8,6.2,25.4,24.6,24.9,43.1-.2,8-1.9,15.7-6.4,22.3,4.8-1.6,10.2-2.6,16.9-2.4v20.8c-10.9-1.6-21.6-2.4-31.5-1.1-10.5,1.3-22.6,2.8-32.8-.7Zm17.6-63.7c-6.2-.7-12.2,1-14.9,6.4-4.5,9.2-4.5,21.1-1.9,31.5,1.5,4.1,5.9,7.8,10.5,8.4,18.7,2.5,18.8-16.3,18.4-28.8-.2-4.5-.7-8.8-3.1-12.1-2.2-3.1-5.5-4.9-9-5.3Z" style="fill: none; stroke: #000; stroke-linecap: round; stroke-linejoin: round; stroke-width: 36px;"/>
          <path d="M145.4,58.3c-5.3,2.9-11,5.6-18.3,7.6v-20.8c8.6-2.2,15.6-6.3,22.2-12h17.8V117.8h-21.8V58.3Z" style="fill: none; stroke: #000; stroke-linecap: round; stroke-linejoin: round; stroke-width: 36px;"/>
        </g>
        <g>
          <path d="M51.6,116.4c-11.3-3.7-19-13.6-22.4-24.2-3.4-10.8-2.8-22.9,.6-33.3,3.1-10.1,11.8-19.9,22.4-24,8.2-3.3,20-3,28.3-.6,20.8,6.2,25.4,24.6,24.9,43.1-.2,8-1.9,15.7-6.4,22.3,4.8-1.6,10.2-2.6,16.9-2.4v20.8c-10.9-1.6-21.6-2.4-31.5-1.1-10.5,1.3-22.6,2.8-32.8-.7Zm17.6-63.7c-6.2-.7-12.2,1-14.9,6.4-4.5,9.2-4.5,21.1-1.9,31.5,1.5,4.1,5.9,7.8,10.5,8.4,18.7,2.5,18.8-16.3,18.4-28.8-.2-4.5-.7-8.8-3.1-12.1-2.2-3.1-5.5-4.9-9-5.3Z" style="fill: none; stroke: #fff; stroke-linecap: round; stroke-linejoin: round; stroke-width: 28px;"/>
          <path d="M145.4,58.3c-5.3,2.9-11,5.6-18.3,7.6v-20.8c8.6-2.2,15.6-6.3,22.2-12h17.8V117.8h-21.8V58.3Z" style="fill: none; stroke: #fff; stroke-linecap: round; stroke-linejoin: round; stroke-width: 28px;"/>
        </g>
        <g>
          <path d="M51.6,116.4c-11.3-3.7-19-13.6-22.4-24.2-3.4-10.8-2.8-22.9,.6-33.3,3.1-10.1,11.8-19.9,22.4-24,8.2-3.3,20-3,28.3-.6,20.8,6.2,25.4,24.6,24.9,43.1-.2,8-1.9,15.7-6.4,22.3,4.8-1.6,10.2-2.6,16.9-2.4v20.8c-10.9-1.6-21.6-2.4-31.5-1.1-10.5,1.3-22.6,2.8-32.8-.7Zm17.6-63.7c-6.2-.7-12.2,1-14.9,6.4-4.5,9.2-4.5,21.1-1.9,31.5,1.5,4.1,5.9,7.8,10.5,8.4,18.7,2.5,18.8-16.3,18.4-28.8-.2-4.5-.7-8.8-3.1-12.1-2.2-3.1-5.5-4.9-9-5.3Z" style="fill: none; stroke: #fff; stroke-linecap: round; stroke-linejoin: round; stroke-width: 6px;"/>
          <path d="M145.4,58.3c-5.3,2.9-11,5.6-18.3,7.6v-20.8c8.6-2.2,15.6-6.3,22.2-12h17.8V117.8h-21.8V58.3Z" style="fill: none; stroke: #fff; stroke-linecap: round; stroke-linejoin: round; stroke-width: 6px;"/>
        </g>
        <g>
          <path d="M51.6,116.4c-11.3-3.7-19-13.6-22.4-24.2-3.4-10.8-2.8-22.9,.6-33.3,3.1-10.1,11.8-19.9,22.4-24,8.2-3.3,20-3,28.3-.6,20.8,6.2,25.4,24.6,24.9,43.1-.2,8-1.9,15.7-6.4,22.3,4.8-1.6,10.2-2.6,16.9-2.4v20.8c-10.9-1.6-21.6-2.4-31.5-1.1-10.5,1.3-22.6,2.8-32.8-.7Zm17.6-63.7c-6.2-.7-12.2,1-14.9,6.4-4.5,9.2-4.5,21.1-1.9,31.5,1.5,4.1,5.9,7.8,10.5,8.4,18.7,2.5,18.8-16.3,18.4-28.8-.2-4.5-.7-8.8-3.1-12.1-2.2-3.1-5.5-4.9-9-5.3Z" style="fill: #fff;"/>
          <path d="M145.4,58.3c-5.3,2.9-11,5.6-18.3,7.6v-20.8c8.6-2.2,15.6-6.3,22.2-12h17.8V117.8h-21.8V58.3Z" style="fill: #fff;"/>
        </g>
        <g>
          <path d="M51.6,116.4c-11.3-3.7-19-13.6-22.4-24.2-3.4-10.8-2.8-22.9,.6-33.3,3.1-10.1,11.8-19.9,22.4-24,8.2-3.3,20-3,28.3-.6,20.8,6.2,25.4,24.6,24.9,43.1-.2,8-1.9,15.7-6.4,22.3,4.8-1.6,10.2-2.6,16.9-2.4v20.8c-10.9-1.6-21.6-2.4-31.5-1.1-10.5,1.3-22.6,2.8-32.8-.7Zm17.6-63.7c-6.2-.7-12.2,1-14.9,6.4-4.5,9.2-4.5,21.1-1.9,31.5,1.5,4.1,5.9,7.8,10.5,8.4,18.7,2.5,18.8-16.3,18.4-28.8-.2-4.5-.7-8.8-3.1-12.1-2.2-3.1-5.5-4.9-9-5.3Z" style="fill: none; stroke: #fff; stroke-linecap: round; stroke-linejoin: round; stroke-width: .5px;"/>
          <path d="M145.4,58.3c-5.3,2.9-11,5.6-18.3,7.6v-20.8c8.6-2.2,15.6-6.3,22.2-12h17.8V117.8h-21.8V58.3Z" style="fill: none; stroke: #fff; stroke-linecap: round; stroke-linejoin: round; stroke-width: .5px;"/>
        </g>
      </g>
      <g>
        <g>
          <path d="M42.7,101.9c-11.3-3.7-19-13.6-22.4-24.2-3.4-10.8-2.8-22.9,.6-33.3,3.1-10.1,11.8-19.9,22.4-24,8.2-3.3,20-3,28.3-.6,20.8,6.2,25.4,24.6,24.9,43.1-.2,8-1.9,15.7-6.4,22.3,4.8-1.6,10.2-2.6,16.9-2.4v20.8c-10.9-1.6-21.6-2.4-31.5-1.1-10.5,1.3-22.6,2.8-32.8-.7Zm17.6-63.7c-6.2-.7-12.2,1-14.9,6.4-4.5,9.2-4.5,21.1-1.9,31.5,1.5,4.1,5.9,7.8,10.5,8.4,18.7,2.5,18.8-16.3,18.4-28.8-.2-4.5-.7-8.8-3.1-12.1-2.2-3.1-5.5-5-9-5.3Z" style="fill: none; stroke: #000; stroke-linecap: round; stroke-linejoin: round; stroke-width: 36px;"/>
          <path d="M136.5,43.9c-5.3,2.9-11,5.6-18.3,7.6V30.7c8.6-2.2,15.6-6.3,22.2-12h17.8V103.4h-21.8V43.9Z" style="fill: none; stroke: #000; stroke-linecap: round; stroke-linejoin: round; stroke-width: 36px;"/>
        </g>
        <g>
          <path d="M42.7,101.9c-11.3-3.7-19-13.6-22.4-24.2-3.4-10.8-2.8-22.9,.6-33.3,3.1-10.1,11.8-19.9,22.4-24,8.2-3.3,20-3,28.3-.6,20.8,6.2,25.4,24.6,24.9,43.1-.2,8-1.9,15.7-6.4,22.3,4.8-1.6,10.2-2.6,16.9-2.4v20.8c-10.9-1.6-21.6-2.4-31.5-1.1-10.5,1.3-22.6,2.8-32.8-.7Zm17.6-63.7c-6.2-.7-12.2,1-14.9,6.4-4.5,9.2-4.5,21.1-1.9,31.5,1.5,4.1,5.9,7.8,10.5,8.4,18.7,2.5,18.8-16.3,18.4-28.8-.2-4.5-.7-8.8-3.1-12.1-2.2-3.1-5.5-5-9-5.3Z" style="fill: none; stroke: #fff; stroke-linecap: round; stroke-linejoin: round; stroke-width: 28px;"/>
          <path d="M136.5,43.9c-5.3,2.9-11,5.6-18.3,7.6V30.7c8.6-2.2,15.6-6.3,22.2-12h17.8V103.4h-21.8V43.9Z" style="fill: none; stroke: #fff; stroke-linecap: round; stroke-linejoin: round; stroke-width: 28px;"/>
        </g>
        <g>
          <path d="M42.7,101.9c-11.3-3.7-19-13.6-22.4-24.2-3.4-10.8-2.8-22.9,.6-33.3,3.1-10.1,11.8-19.9,22.4-24,8.2-3.3,20-3,28.3-.6,20.8,6.2,25.4,24.6,24.9,43.1-.2,8-1.9,15.7-6.4,22.3,4.8-1.6,10.2-2.6,16.9-2.4v20.8c-10.9-1.6-21.6-2.4-31.5-1.1-10.5,1.3-22.6,2.8-32.8-.7Zm17.6-63.7c-6.2-.7-12.2,1-14.9,6.4-4.5,9.2-4.5,21.1-1.9,31.5,1.5,4.1,5.9,7.8,10.5,8.4,18.7,2.5,18.8-16.3,18.4-28.8-.2-4.5-.7-8.8-3.1-12.1-2.2-3.1-5.5-5-9-5.3Z" style="fill: none; stroke: #211815; stroke-linecap: round; stroke-linejoin: round; stroke-width: 6px;"/>
          <path d="M136.5,43.9c-5.3,2.9-11,5.6-18.3,7.6V30.7c8.6-2.2,15.6-6.3,22.2-12h17.8V103.4h-21.8V43.9Z" style="fill: none; stroke: #211815; stroke-linecap: round; stroke-linejoin: round; stroke-width: 6px;"/>
        </g>
        <g>
          <path d="M42.7,101.9c-11.3-3.7-19-13.6-22.4-24.2-3.4-10.8-2.8-22.9,.6-33.3,3.1-10.1,11.8-19.9,22.4-24,8.2-3.3,20-3,28.3-.6,20.8,6.2,25.4,24.6,24.9,43.1-.2,8-1.9,15.7-6.4,22.3,4.8-1.6,10.2-2.6,16.9-2.4v20.8c-10.9-1.6-21.6-2.4-31.5-1.1-10.5,1.3-22.6,2.8-32.8-.7Zm17.6-63.7c-6.2-.7-12.2,1-14.9,6.4-4.5,9.2-4.5,21.1-1.9,31.5,1.5,4.1,5.9,7.8,10.5,8.4,18.7,2.5,18.8-16.3,18.4-28.8-.2-4.5-.7-8.8-3.1-12.1-2.2-3.1-5.5-5-9-5.3Z" style="fill: #ffdc20;"/>
          <path d="M136.5,43.9c-5.3,2.9-11,5.6-18.3,7.6V30.7c8.6-2.2,15.6-6.3,22.2-12h17.8V103.4h-21.8V43.9Z" style="fill: #ffdc20;"/>
        </g>
        <g>
          <path d="M42.7,101.9c-11.3-3.7-19-13.6-22.4-24.2-3.4-10.8-2.8-22.9,.6-33.3,3.1-10.1,11.8-19.9,22.4-24,8.2-3.3,20-3,28.3-.6,20.8,6.2,25.4,24.6,24.9,43.1-.2,8-1.9,15.7-6.4,22.3,4.8-1.6,10.2-2.6,16.9-2.4v20.8c-10.9-1.6-21.6-2.4-31.5-1.1-10.5,1.3-22.6,2.8-32.8-.7Zm17.6-63.7c-6.2-.7-12.2,1-14.9,6.4-4.5,9.2-4.5,21.1-1.9,31.5,1.5,4.1,5.9,7.8,10.5,8.4,18.7,2.5,18.8-16.3,18.4-28.8-.2-4.5-.7-8.8-3.1-12.1-2.2-3.1-5.5-5-9-5.3Z" style="fill: none; stroke: #211815; stroke-linecap: round; stroke-linejoin: round; stroke-width: .5px;"/>
          <path d="M136.5,43.9c-5.3,2.9-11,5.6-18.3,7.6V30.7c8.6-2.2,15.6-6.3,22.2-12h17.8V103.4h-21.8V43.9Z" style="fill: none; stroke: #211815; stroke-linecap: round; stroke-linejoin: round; stroke-width: .5px;"/>
        </g>
      </g>
    </g>
  </g>
</svg>