<?xml version="1.0" encoding="UTF-8"?>
<svg id="Layer_2" data-name="Layer 2" xmlns="http://www.w3.org/2000/svg" viewBox="0 0 204.2 136.5">
  <g id="TEXT_LOGO" data-name="TEXT&amp;amp;LOGO">
    <g>
      <g>
        <g>
          <path d="M51.6,116.4c-11.3-3.7-19-13.6-22.4-24.2-3.4-10.8-2.8-22.9,.5-33.3,3.1-10.1,11.8-19.9,22.4-24,8.2-3.3,20-3,28.3-.6,20.8,6.2,25.4,24.6,24.9,43.1-.2,8-1.9,15.7-6.4,22.3,4.8-1.6,10.2-2.6,16.9-2.4v20.8c-10.9-1.6-21.6-2.4-31.5-1.1-10.5,1.3-22.6,2.8-32.8-.7Zm17.6-63.7c-6.2-.7-12.2,1-14.8,6.4-4.5,9.2-4.5,21.1-1.9,31.5,1.5,4.1,5.9,7.8,10.5,8.4,18.7,2.5,18.8-16.3,18.4-28.8-.2-4.5-.7-8.8-3.1-12.1-2.2-3.1-5.5-4.9-9-5.3Z" style="fill: none; stroke: #000; stroke-linecap: round; stroke-linejoin: round; stroke-width: 36px;"/>
          <path d="M120.7,100c16.1-9.4,34-21.8,39.7-38.6,2.8-8.1-10.1-14.4-15.3-5.7-1.8,3.1-2.1,6.9-2.2,12h-23c.4-8.6,2.4-16.5,6.7-22.8,4.5-6.5,10.3-9.8,17.9-11.3,13.3-2.6,29.9,.2,36.3,13.1,5.1,10,1.4,22.9-4.8,31.6-5.7,8-13.9,15-21.8,20.8h32v18.8H120.7v-17.8Z" style="fill: none; stroke: #000; stroke-linecap: round; stroke-linejoin: round; stroke-width: 36px;"/>
        </g>
        <g>
          <path d="M51.6,116.4c-11.3-3.7-19-13.6-22.4-24.2-3.4-10.8-2.8-22.9,.5-33.3,3.1-10.1,11.8-19.9,22.4-24,8.2-3.3,20-3,28.3-.6,20.8,6.2,25.4,24.6,24.9,43.1-.2,8-1.9,15.7-6.4,22.3,4.8-1.6,10.2-2.6,16.9-2.4v20.8c-10.9-1.6-21.6-2.4-31.5-1.1-10.5,1.3-22.6,2.8-32.8-.7Zm17.6-63.7c-6.2-.7-12.2,1-14.8,6.4-4.5,9.2-4.5,21.1-1.9,31.5,1.5,4.1,5.9,7.8,10.5,8.4,18.7,2.5,18.8-16.3,18.4-28.8-.2-4.5-.7-8.8-3.1-12.1-2.2-3.1-5.5-4.9-9-5.3Z" style="fill: none; stroke: #fff; stroke-linecap: round; stroke-linejoin: round; stroke-width: 28px;"/>
          <path d="M120.7,100c16.1-9.4,34-21.8,39.7-38.6,2.8-8.1-10.1-14.4-15.3-5.7-1.8,3.1-2.1,6.9-2.2,12h-23c.4-8.6,2.4-16.5,6.7-22.8,4.5-6.5,10.3-9.8,17.9-11.3,13.3-2.6,29.9,.2,36.3,13.1,5.1,10,1.4,22.9-4.8,31.6-5.7,8-13.9,15-21.8,20.8h32v18.8H120.7v-17.8Z" style="fill: none; stroke: #fff; stroke-linecap: round; stroke-linejoin: round; stroke-width: 28px;"/>
        </g>
        <g>
          <path d="M51.6,116.4c-11.3-3.7-19-13.6-22.4-24.2-3.4-10.8-2.8-22.9,.5-33.3,3.1-10.1,11.8-19.9,22.4-24,8.2-3.3,20-3,28.3-.6,20.8,6.2,25.4,24.6,24.9,43.1-.2,8-1.9,15.7-6.4,22.3,4.8-1.6,10.2-2.6,16.9-2.4v20.8c-10.9-1.6-21.6-2.4-31.5-1.1-10.5,1.3-22.6,2.8-32.8-.7Zm17.6-63.7c-6.2-.7-12.2,1-14.8,6.4-4.5,9.2-4.5,21.1-1.9,31.5,1.5,4.1,5.9,7.8,10.5,8.4,18.7,2.5,18.8-16.3,18.4-28.8-.2-4.5-.7-8.8-3.1-12.1-2.2-3.1-5.5-4.9-9-5.3Z" style="fill: none; stroke: #fff; stroke-linecap: round; stroke-linejoin: round; stroke-width: 6px;"/>
          <path d="M120.7,100c16.1-9.4,34-21.8,39.7-38.6,2.8-8.1-10.1-14.4-15.3-5.7-1.8,3.1-2.1,6.9-2.2,12h-23c.4-8.6,2.4-16.5,6.7-22.8,4.5-6.5,10.3-9.8,17.9-11.3,13.3-2.6,29.9,.2,36.3,13.1,5.1,10,1.4,22.9-4.8,31.6-5.7,8-13.9,15-21.8,20.8h32v18.8H120.7v-17.8Z" style="fill: none; stroke: #fff; stroke-linecap: round; stroke-linejoin: round; stroke-width: 6px;"/>
        </g>
        <g>
          <path d="M51.6,116.4c-11.3-3.7-19-13.6-22.4-24.2-3.4-10.8-2.8-22.9,.5-33.3,3.1-10.1,11.8-19.9,22.4-24,8.2-3.3,20-3,28.3-.6,20.8,6.2,25.4,24.6,24.9,43.1-.2,8-1.9,15.7-6.4,22.3,4.8-1.6,10.2-2.6,16.9-2.4v20.8c-10.9-1.6-21.6-2.4-31.5-1.1-10.5,1.3-22.6,2.8-32.8-.7Zm17.6-63.7c-6.2-.7-12.2,1-14.8,6.4-4.5,9.2-4.5,21.1-1.9,31.5,1.5,4.1,5.9,7.8,10.5,8.4,18.7,2.5,18.8-16.3,18.4-28.8-.2-4.5-.7-8.8-3.1-12.1-2.2-3.1-5.5-4.9-9-5.3Z" style="fill: #fff;"/>
          <path d="M120.7,100c16.1-9.4,34-21.8,39.7-38.6,2.8-8.1-10.1-14.4-15.3-5.7-1.8,3.1-2.1,6.9-2.2,12h-23c.4-8.6,2.4-16.5,6.7-22.8,4.5-6.5,10.3-9.8,17.9-11.3,13.3-2.6,29.9,.2,36.3,13.1,5.1,10,1.4,22.9-4.8,31.6-5.7,8-13.9,15-21.8,20.8h32v18.8H120.7v-17.8Z" style="fill: #fff;"/>
        </g>
        <g>
          <path d="M51.6,116.4c-11.3-3.7-19-13.6-22.4-24.2-3.4-10.8-2.8-22.9,.5-33.3,3.1-10.1,11.8-19.9,22.4-24,8.2-3.3,20-3,28.3-.6,20.8,6.2,25.4,24.6,24.9,43.1-.2,8-1.9,15.7-6.4,22.3,4.8-1.6,10.2-2.6,16.9-2.4v20.8c-10.9-1.6-21.6-2.4-31.5-1.1-10.5,1.3-22.6,2.8-32.8-.7Zm17.6-63.7c-6.2-.7-12.2,1-14.8,6.4-4.5,9.2-4.5,21.1-1.9,31.5,1.5,4.1,5.9,7.8,10.5,8.4,18.7,2.5,18.8-16.3,18.4-28.8-.2-4.5-.7-8.8-3.1-12.1-2.2-3.1-5.5-4.9-9-5.3Z" style="fill: none; stroke: #fff; stroke-linecap: round; stroke-linejoin: round; stroke-width: .5px;"/>
          <path d="M120.7,100c16.1-9.4,34-21.8,39.7-38.6,2.8-8.1-10.1-14.4-15.3-5.7-1.8,3.1-2.1,6.9-2.2,12h-23c.4-8.6,2.4-16.5,6.7-22.8,4.5-6.5,10.3-9.8,17.9-11.3,13.3-2.6,29.9,.2,36.3,13.1,5.1,10,1.4,22.9-4.8,31.6-5.7,8-13.9,15-21.8,20.8h32v18.8H120.7v-17.8Z" style="fill: none; stroke: #fff; stroke-linecap: round; stroke-linejoin: round; stroke-width: .5px;"/>
        </g>
      </g>
      <g>
        <g>
          <path d="M42.7,101.9c-11.3-3.7-19-13.6-22.4-24.2-3.4-10.8-2.8-22.9,.5-33.3,3.1-10.1,11.8-19.9,22.4-24,8.2-3.3,20-3,28.3-.6,20.8,6.2,25.4,24.6,24.9,43.1-.2,8-1.9,15.7-6.4,22.3,4.8-1.6,10.2-2.6,16.9-2.4v20.8c-10.9-1.6-21.6-2.4-31.5-1.1-10.5,1.3-22.6,2.8-32.8-.7Zm17.6-63.7c-6.2-.7-12.2,1-14.8,6.4-4.5,9.2-4.5,21.1-1.9,31.5,1.5,4.1,5.9,7.8,10.5,8.4,18.7,2.5,18.8-16.3,18.4-28.8-.2-4.5-.7-8.8-3.1-12.1-2.2-3.1-5.5-5-9-5.3Z" style="fill: none; stroke: #000; stroke-linecap: round; stroke-linejoin: round; stroke-width: 36px;"/>
          <path d="M111.8,85.5c16.1-9.4,34-21.8,39.7-38.6,2.8-8.1-10.1-14.4-15.3-5.7-1.8,3.1-2.1,6.9-2.2,12h-23c.4-8.6,2.4-16.5,6.7-22.8,4.5-6.5,10.3-9.8,17.9-11.3,13.3-2.6,29.9,.2,36.3,13.1,5.1,10,1.4,22.9-4.8,31.6-5.7,8-13.9,15-21.8,20.8h32v18.8H111.8v-17.8Z" style="fill: none; stroke: #000; stroke-linecap: round; stroke-linejoin: round; stroke-width: 36px;"/>
        </g>
        <g>
          <path d="M42.7,101.9c-11.3-3.7-19-13.6-22.4-24.2-3.4-10.8-2.8-22.9,.5-33.3,3.1-10.1,11.8-19.9,22.4-24,8.2-3.3,20-3,28.3-.6,20.8,6.2,25.4,24.6,24.9,43.1-.2,8-1.9,15.7-6.4,22.3,4.8-1.6,10.2-2.6,16.9-2.4v20.8c-10.9-1.6-21.6-2.4-31.5-1.1-10.5,1.3-22.6,2.8-32.8-.7Zm17.6-63.7c-6.2-.7-12.2,1-14.8,6.4-4.5,9.2-4.5,21.1-1.9,31.5,1.5,4.1,5.9,7.8,10.5,8.4,18.7,2.5,18.8-16.3,18.4-28.8-.2-4.5-.7-8.8-3.1-12.1-2.2-3.1-5.5-5-9-5.3Z" style="fill: none; stroke: #fff; stroke-linecap: round; stroke-linejoin: round; stroke-width: 28px;"/>
          <path d="M111.8,85.5c16.1-9.4,34-21.8,39.7-38.6,2.8-8.1-10.1-14.4-15.3-5.7-1.8,3.1-2.1,6.9-2.2,12h-23c.4-8.6,2.4-16.5,6.7-22.8,4.5-6.5,10.3-9.8,17.9-11.3,13.3-2.6,29.9,.2,36.3,13.1,5.1,10,1.4,22.9-4.8,31.6-5.7,8-13.9,15-21.8,20.8h32v18.8H111.8v-17.8Z" style="fill: none; stroke: #fff; stroke-linecap: round; stroke-linejoin: round; stroke-width: 28px;"/>
        </g>
        <g>
          <path d="M42.7,101.9c-11.3-3.7-19-13.6-22.4-24.2-3.4-10.8-2.8-22.9,.5-33.3,3.1-10.1,11.8-19.9,22.4-24,8.2-3.3,20-3,28.3-.6,20.8,6.2,25.4,24.6,24.9,43.1-.2,8-1.9,15.7-6.4,22.3,4.8-1.6,10.2-2.6,16.9-2.4v20.8c-10.9-1.6-21.6-2.4-31.5-1.1-10.5,1.3-22.6,2.8-32.8-.7Zm17.6-63.7c-6.2-.7-12.2,1-14.8,6.4-4.5,9.2-4.5,21.1-1.9,31.5,1.5,4.1,5.9,7.8,10.5,8.4,18.7,2.5,18.8-16.3,18.4-28.8-.2-4.5-.7-8.8-3.1-12.1-2.2-3.1-5.5-5-9-5.3Z" style="fill: none; stroke: #211815; stroke-linecap: round; stroke-linejoin: round; stroke-width: 6px;"/>
          <path d="M111.8,85.5c16.1-9.4,34-21.8,39.7-38.6,2.8-8.1-10.1-14.4-15.3-5.7-1.8,3.1-2.1,6.9-2.2,12h-23c.4-8.6,2.4-16.5,6.7-22.8,4.5-6.5,10.3-9.8,17.9-11.3,13.3-2.6,29.9,.2,36.3,13.1,5.1,10,1.4,22.9-4.8,31.6-5.7,8-13.9,15-21.8,20.8h32v18.8H111.8v-17.8Z" style="fill: none; stroke: #211815; stroke-linecap: round; stroke-linejoin: round; stroke-width: 6px;"/>
        </g>
        <g>
          <path d="M42.7,101.9c-11.3-3.7-19-13.6-22.4-24.2-3.4-10.8-2.8-22.9,.5-33.3,3.1-10.1,11.8-19.9,22.4-24,8.2-3.3,20-3,28.3-.6,20.8,6.2,25.4,24.6,24.9,43.1-.2,8-1.9,15.7-6.4,22.3,4.8-1.6,10.2-2.6,16.9-2.4v20.8c-10.9-1.6-21.6-2.4-31.5-1.1-10.5,1.3-22.6,2.8-32.8-.7Zm17.6-63.7c-6.2-.7-12.2,1-14.8,6.4-4.5,9.2-4.5,21.1-1.9,31.5,1.5,4.1,5.9,7.8,10.5,8.4,18.7,2.5,18.8-16.3,18.4-28.8-.2-4.5-.7-8.8-3.1-12.1-2.2-3.1-5.5-5-9-5.3Z" style="fill: #ffd01d;"/>
          <path d="M111.8,85.5c16.1-9.4,34-21.8,39.7-38.6,2.8-8.1-10.1-14.4-15.3-5.7-1.8,3.1-2.1,6.9-2.2,12h-23c.4-8.6,2.4-16.5,6.7-22.8,4.5-6.5,10.3-9.8,17.9-11.3,13.3-2.6,29.9,.2,36.3,13.1,5.1,10,1.4,22.9-4.8,31.6-5.7,8-13.9,15-21.8,20.8h32v18.8H111.8v-17.8Z" style="fill: #ffd01d;"/>
        </g>
        <g>
          <path d="M42.7,101.9c-11.3-3.7-19-13.6-22.4-24.2-3.4-10.8-2.8-22.9,.5-33.3,3.1-10.1,11.8-19.9,22.4-24,8.2-3.3,20-3,28.3-.6,20.8,6.2,25.4,24.6,24.9,43.1-.2,8-1.9,15.7-6.4,22.3,4.8-1.6,10.2-2.6,16.9-2.4v20.8c-10.9-1.6-21.6-2.4-31.5-1.1-10.5,1.3-22.6,2.8-32.8-.7Zm17.6-63.7c-6.2-.7-12.2,1-14.8,6.4-4.5,9.2-4.5,21.1-1.9,31.5,1.5,4.1,5.9,7.8,10.5,8.4,18.7,2.5,18.8-16.3,18.4-28.8-.2-4.5-.7-8.8-3.1-12.1-2.2-3.1-5.5-5-9-5.3Z" style="fill: none; stroke: #211815; stroke-linecap: round; stroke-linejoin: round; stroke-width: .5px;"/>
          <path d="M111.8,85.5c16.1-9.4,34-21.8,39.7-38.6,2.8-8.1-10.1-14.4-15.3-5.7-1.8,3.1-2.1,6.9-2.2,12h-23c.4-8.6,2.4-16.5,6.7-22.8,4.5-6.5,10.3-9.8,17.9-11.3,13.3-2.6,29.9,.2,36.3,13.1,5.1,10,1.4,22.9-4.8,31.6-5.7,8-13.9,15-21.8,20.8h32v18.8H111.8v-17.8Z" style="fill: none; stroke: #211815; stroke-linecap: round; stroke-linejoin: round; stroke-width: .5px;"/>
        </g>
      </g>
    </g>
  </g>
</svg>