<?xml version="1.0" encoding="UTF-8"?>
<svg id="Layer_2" data-name="Layer 2" xmlns="http://www.w3.org/2000/svg" viewBox="0 0 205.3 136.8">
  <g id="TEXT_LOGO" data-name="TEXT&amp;amp;LOGO">
    <g>
      <g>
        <g>
          <path d="M51.6,116.4c-11.3-3.7-19-13.6-22.4-24.2-3.4-10.8-2.8-22.9,.5-33.3,3.1-10.1,11.8-19.9,22.4-24,8.2-3.3,20-3,28.3-.6,20.8,6.2,25.4,24.6,24.9,43.1-.2,8-1.9,15.7-6.4,22.3,4.8-1.6,10.2-2.6,16.9-2.4v20.8c-10.9-1.6-21.6-2.4-31.5-1.1-10.5,1.3-22.6,2.8-32.8-.7Zm17.6-63.7c-6.2-.7-12.2,1-14.8,6.4-4.5,9.2-4.5,21.1-1.9,31.5,1.5,4.1,5.9,7.8,10.5,8.4,18.7,2.5,18.8-16.3,18.4-28.8-.2-4.5-.7-8.8-3.1-12.1-2.2-3.1-5.5-4.9-9-5.3Z" style="fill: none; stroke: #000; stroke-linecap: round; stroke-linejoin: round; stroke-width: 36px;"/>
          <path d="M163.8,117.9c-8.9,1.8-18.6,1-26.8-1.6-7.7-2.5-13-8.7-15.5-15.8-1.3-4-2-9.7-1.8-14.7h21.7c-.1,3.4,.1,6.4,.9,9,.7,2.2,1.9,3.7,4.1,4.8,5.6,2.5,16.1,2.3,18-4.7,1.1-3.6-.1-7.1-3.2-9.4-2.4-1.8-6.2-2.2-10.7-2.2h-7.3v-17.7h7.3c5,0,11.9-1.6,12-7.7,0-2.1-1.3-4.6-3.1-5.8-2.2-1.5-6.4-2-9.1-1.5-3.4,.6-5.9,2.6-7.2,5.7-.8,2-1.4,4.2-1.2,7.5h-21.8c1.2-7.2,2.8-13.8,6.5-19.3,4-5.8,9.4-8.8,16.5-10.6,13.1-3.2,32.7-1.3,39.5,11.9,2.6,5.1,3.1,11.4,1.3,16.8-1.4,4.3-4.7,8.4-8.6,11,3.5,1.1,6.8,3.6,8.8,6.6,2.6,4,3.4,10.2,3.1,14.7-.2,5.4-2.2,10.8-6.3,14.7-4.4,4.4-11.2,7-17.2,8.2Z" style="fill: none; stroke: #000; stroke-linecap: round; stroke-linejoin: round; stroke-width: 36px;"/>
        </g>
        <g>
          <path d="M51.6,116.4c-11.3-3.7-19-13.6-22.4-24.2-3.4-10.8-2.8-22.9,.5-33.3,3.1-10.1,11.8-19.9,22.4-24,8.2-3.3,20-3,28.3-.6,20.8,6.2,25.4,24.6,24.9,43.1-.2,8-1.9,15.7-6.4,22.3,4.8-1.6,10.2-2.6,16.9-2.4v20.8c-10.9-1.6-21.6-2.4-31.5-1.1-10.5,1.3-22.6,2.8-32.8-.7Zm17.6-63.7c-6.2-.7-12.2,1-14.8,6.4-4.5,9.2-4.5,21.1-1.9,31.5,1.5,4.1,5.9,7.8,10.5,8.4,18.7,2.5,18.8-16.3,18.4-28.8-.2-4.5-.7-8.8-3.1-12.1-2.2-3.1-5.5-4.9-9-5.3Z" style="fill: none; stroke: #fff; stroke-linecap: round; stroke-linejoin: round; stroke-width: 28px;"/>
          <path d="M163.8,117.9c-8.9,1.8-18.6,1-26.8-1.6-7.7-2.5-13-8.7-15.5-15.8-1.3-4-2-9.7-1.8-14.7h21.7c-.1,3.4,.1,6.4,.9,9,.7,2.2,1.9,3.7,4.1,4.8,5.6,2.5,16.1,2.3,18-4.7,1.1-3.6-.1-7.1-3.2-9.4-2.4-1.8-6.2-2.2-10.7-2.2h-7.3v-17.7h7.3c5,0,11.9-1.6,12-7.7,0-2.1-1.3-4.6-3.1-5.8-2.2-1.5-6.4-2-9.1-1.5-3.4,.6-5.9,2.6-7.2,5.7-.8,2-1.4,4.2-1.2,7.5h-21.8c1.2-7.2,2.8-13.8,6.5-19.3,4-5.8,9.4-8.8,16.5-10.6,13.1-3.2,32.7-1.3,39.5,11.9,2.6,5.1,3.1,11.4,1.3,16.8-1.4,4.3-4.7,8.4-8.6,11,3.5,1.1,6.8,3.6,8.8,6.6,2.6,4,3.4,10.2,3.1,14.7-.2,5.4-2.2,10.8-6.3,14.7-4.4,4.4-11.2,7-17.2,8.2Z" style="fill: none; stroke: #fff; stroke-linecap: round; stroke-linejoin: round; stroke-width: 28px;"/>
        </g>
        <g>
          <path d="M51.6,116.4c-11.3-3.7-19-13.6-22.4-24.2-3.4-10.8-2.8-22.9,.5-33.3,3.1-10.1,11.8-19.9,22.4-24,8.2-3.3,20-3,28.3-.6,20.8,6.2,25.4,24.6,24.9,43.1-.2,8-1.9,15.7-6.4,22.3,4.8-1.6,10.2-2.6,16.9-2.4v20.8c-10.9-1.6-21.6-2.4-31.5-1.1-10.5,1.3-22.6,2.8-32.8-.7Zm17.6-63.7c-6.2-.7-12.2,1-14.8,6.4-4.5,9.2-4.5,21.1-1.9,31.5,1.5,4.1,5.9,7.8,10.5,8.4,18.7,2.5,18.8-16.3,18.4-28.8-.2-4.5-.7-8.8-3.1-12.1-2.2-3.1-5.5-4.9-9-5.3Z" style="fill: none; stroke: #fff; stroke-linecap: round; stroke-linejoin: round; stroke-width: 6px;"/>
          <path d="M163.8,117.9c-8.9,1.8-18.6,1-26.8-1.6-7.7-2.5-13-8.7-15.5-15.8-1.3-4-2-9.7-1.8-14.7h21.7c-.1,3.4,.1,6.4,.9,9,.7,2.2,1.9,3.7,4.1,4.8,5.6,2.5,16.1,2.3,18-4.7,1.1-3.6-.1-7.1-3.2-9.4-2.4-1.8-6.2-2.2-10.7-2.2h-7.3v-17.7h7.3c5,0,11.9-1.6,12-7.7,0-2.1-1.3-4.6-3.1-5.8-2.2-1.5-6.4-2-9.1-1.5-3.4,.6-5.9,2.6-7.2,5.7-.8,2-1.4,4.2-1.2,7.5h-21.8c1.2-7.2,2.8-13.8,6.5-19.3,4-5.8,9.4-8.8,16.5-10.6,13.1-3.2,32.7-1.3,39.5,11.9,2.6,5.1,3.1,11.4,1.3,16.8-1.4,4.3-4.7,8.4-8.6,11,3.5,1.1,6.8,3.6,8.8,6.6,2.6,4,3.4,10.2,3.1,14.7-.2,5.4-2.2,10.8-6.3,14.7-4.4,4.4-11.2,7-17.2,8.2Z" style="fill: none; stroke: #fff; stroke-linecap: round; stroke-linejoin: round; stroke-width: 6px;"/>
        </g>
        <g>
          <path d="M51.6,116.4c-11.3-3.7-19-13.6-22.4-24.2-3.4-10.8-2.8-22.9,.5-33.3,3.1-10.1,11.8-19.9,22.4-24,8.2-3.3,20-3,28.3-.6,20.8,6.2,25.4,24.6,24.9,43.1-.2,8-1.9,15.7-6.4,22.3,4.8-1.6,10.2-2.6,16.9-2.4v20.8c-10.9-1.6-21.6-2.4-31.5-1.1-10.5,1.3-22.6,2.8-32.8-.7Zm17.6-63.7c-6.2-.7-12.2,1-14.8,6.4-4.5,9.2-4.5,21.1-1.9,31.5,1.5,4.1,5.9,7.8,10.5,8.4,18.7,2.5,18.8-16.3,18.4-28.8-.2-4.5-.7-8.8-3.1-12.1-2.2-3.1-5.5-4.9-9-5.3Z" style="fill: #fff;"/>
          <path d="M163.8,117.9c-8.9,1.8-18.6,1-26.8-1.6-7.7-2.5-13-8.7-15.5-15.8-1.3-4-2-9.7-1.8-14.7h21.7c-.1,3.4,.1,6.4,.9,9,.7,2.2,1.9,3.7,4.1,4.8,5.6,2.5,16.1,2.3,18-4.7,1.1-3.6-.1-7.1-3.2-9.4-2.4-1.8-6.2-2.2-10.7-2.2h-7.3v-17.7h7.3c5,0,11.9-1.6,12-7.7,0-2.1-1.3-4.6-3.1-5.8-2.2-1.5-6.4-2-9.1-1.5-3.4,.6-5.9,2.6-7.2,5.7-.8,2-1.4,4.2-1.2,7.5h-21.8c1.2-7.2,2.8-13.8,6.5-19.3,4-5.8,9.4-8.8,16.5-10.6,13.1-3.2,32.7-1.3,39.5,11.9,2.6,5.1,3.1,11.4,1.3,16.8-1.4,4.3-4.7,8.4-8.6,11,3.5,1.1,6.8,3.6,8.8,6.6,2.6,4,3.4,10.2,3.1,14.7-.2,5.4-2.2,10.8-6.3,14.7-4.4,4.4-11.2,7-17.2,8.2Z" style="fill: #fff;"/>
        </g>
        <g>
          <path d="M51.6,116.4c-11.3-3.7-19-13.6-22.4-24.2-3.4-10.8-2.8-22.9,.5-33.3,3.1-10.1,11.8-19.9,22.4-24,8.2-3.3,20-3,28.3-.6,20.8,6.2,25.4,24.6,24.9,43.1-.2,8-1.9,15.7-6.4,22.3,4.8-1.6,10.2-2.6,16.9-2.4v20.8c-10.9-1.6-21.6-2.4-31.5-1.1-10.5,1.3-22.6,2.8-32.8-.7Zm17.6-63.7c-6.2-.7-12.2,1-14.8,6.4-4.5,9.2-4.5,21.1-1.9,31.5,1.5,4.1,5.9,7.8,10.5,8.4,18.7,2.5,18.8-16.3,18.4-28.8-.2-4.5-.7-8.8-3.1-12.1-2.2-3.1-5.5-4.9-9-5.3Z" style="fill: none; stroke: #fff; stroke-linecap: round; stroke-linejoin: round; stroke-width: .5px;"/>
          <path d="M163.8,117.9c-8.9,1.8-18.6,1-26.8-1.6-7.7-2.5-13-8.7-15.5-15.8-1.3-4-2-9.7-1.8-14.7h21.7c-.1,3.4,.1,6.4,.9,9,.7,2.2,1.9,3.7,4.1,4.8,5.6,2.5,16.1,2.3,18-4.7,1.1-3.6-.1-7.1-3.2-9.4-2.4-1.8-6.2-2.2-10.7-2.2h-7.3v-17.7h7.3c5,0,11.9-1.6,12-7.7,0-2.1-1.3-4.6-3.1-5.8-2.2-1.5-6.4-2-9.1-1.5-3.4,.6-5.9,2.6-7.2,5.7-.8,2-1.4,4.2-1.2,7.5h-21.8c1.2-7.2,2.8-13.8,6.5-19.3,4-5.8,9.4-8.8,16.5-10.6,13.1-3.2,32.7-1.3,39.5,11.9,2.6,5.1,3.1,11.4,1.3,16.8-1.4,4.3-4.7,8.4-8.6,11,3.5,1.1,6.8,3.6,8.8,6.6,2.6,4,3.4,10.2,3.1,14.7-.2,5.4-2.2,10.8-6.3,14.7-4.4,4.4-11.2,7-17.2,8.2Z" style="fill: none; stroke: #fff; stroke-linecap: round; stroke-linejoin: round; stroke-width: .5px;"/>
        </g>
      </g>
      <g>
        <g>
          <path d="M42.7,102c-11.3-3.7-19-13.6-22.4-24.2-3.4-10.8-2.8-22.9,.5-33.3,3.1-10.1,11.8-19.9,22.4-24,8.2-3.3,20-3,28.3-.6,20.8,6.2,25.4,24.6,24.9,43.1-.2,8-1.9,15.7-6.4,22.3,4.8-1.6,10.2-2.6,16.9-2.4v20.8c-10.9-1.6-21.6-2.4-31.5-1.1-10.5,1.3-22.6,2.8-32.8-.7Zm17.6-63.7c-6.2-.7-12.2,1-14.8,6.4-4.5,9.2-4.5,21.1-1.9,31.5,1.5,4.1,5.9,7.8,10.5,8.4,18.7,2.5,18.8-16.3,18.4-28.8-.2-4.5-.7-8.8-3.1-12.1-2.2-3.1-5.5-5-9-5.3Z" style="fill: none; stroke: #000; stroke-linecap: round; stroke-linejoin: round; stroke-width: 36px;"/>
          <path d="M154.9,103.4c-8.9,1.8-18.6,1-26.8-1.6-7.7-2.5-13-8.7-15.5-15.8-1.3-4-2-9.7-1.8-14.7h21.7c-.1,3.4,.1,6.4,.9,9,.7,2.2,1.9,3.7,4.1,4.8,5.6,2.5,16.1,2.3,18-4.7,1.1-3.6-.1-7.1-3.2-9.4-2.4-1.8-6.2-2.2-10.7-2.2h-7.3v-17.7h7.3c5,0,11.9-1.6,12-7.7,0-2.1-1.3-4.6-3.1-5.8-2.2-1.5-6.4-2-9.1-1.5-3.4,.6-5.9,2.6-7.2,5.7-.8,2-1.4,4.2-1.2,7.5h-21.8c1.2-7.1,2.8-13.8,6.5-19.2,4-5.8,9.4-8.8,16.5-10.6,13.1-3.2,32.7-1.3,39.5,11.9,2.6,5.1,3.1,11.4,1.3,16.8-1.4,4.3-4.7,8.4-8.6,11,3.5,1.1,6.8,3.6,8.8,6.6,2.6,4,3.4,10.2,3.1,14.7-.2,5.4-2.2,10.8-6.3,14.7-4.4,4.4-11.2,7-17.2,8.2Z" style="fill: none; stroke: #000; stroke-linecap: round; stroke-linejoin: round; stroke-width: 36px;"/>
        </g>
        <g>
          <path d="M42.7,102c-11.3-3.7-19-13.6-22.4-24.2-3.4-10.8-2.8-22.9,.5-33.3,3.1-10.1,11.8-19.9,22.4-24,8.2-3.3,20-3,28.3-.6,20.8,6.2,25.4,24.6,24.9,43.1-.2,8-1.9,15.7-6.4,22.3,4.8-1.6,10.2-2.6,16.9-2.4v20.8c-10.9-1.6-21.6-2.4-31.5-1.1-10.5,1.3-22.6,2.8-32.8-.7Zm17.6-63.7c-6.2-.7-12.2,1-14.8,6.4-4.5,9.2-4.5,21.1-1.9,31.5,1.5,4.1,5.9,7.8,10.5,8.4,18.7,2.5,18.8-16.3,18.4-28.8-.2-4.5-.7-8.8-3.1-12.1-2.2-3.1-5.5-5-9-5.3Z" style="fill: none; stroke: #fff; stroke-linecap: round; stroke-linejoin: round; stroke-width: 28px;"/>
          <path d="M154.9,103.4c-8.9,1.8-18.6,1-26.8-1.6-7.7-2.5-13-8.7-15.5-15.8-1.3-4-2-9.7-1.8-14.7h21.7c-.1,3.4,.1,6.4,.9,9,.7,2.2,1.9,3.7,4.1,4.8,5.6,2.5,16.1,2.3,18-4.7,1.1-3.6-.1-7.1-3.2-9.4-2.4-1.8-6.2-2.2-10.7-2.2h-7.3v-17.7h7.3c5,0,11.9-1.6,12-7.7,0-2.1-1.3-4.6-3.1-5.8-2.2-1.5-6.4-2-9.1-1.5-3.4,.6-5.9,2.6-7.2,5.7-.8,2-1.4,4.2-1.2,7.5h-21.8c1.2-7.1,2.8-13.8,6.5-19.2,4-5.8,9.4-8.8,16.5-10.6,13.1-3.2,32.7-1.3,39.5,11.9,2.6,5.1,3.1,11.4,1.3,16.8-1.4,4.3-4.7,8.4-8.6,11,3.5,1.1,6.8,3.6,8.8,6.6,2.6,4,3.4,10.2,3.1,14.7-.2,5.4-2.2,10.8-6.3,14.7-4.4,4.4-11.2,7-17.2,8.2Z" style="fill: none; stroke: #fff; stroke-linecap: round; stroke-linejoin: round; stroke-width: 28px;"/>
        </g>
        <g>
          <path d="M42.7,102c-11.3-3.7-19-13.6-22.4-24.2-3.4-10.8-2.8-22.9,.5-33.3,3.1-10.1,11.8-19.9,22.4-24,8.2-3.3,20-3,28.3-.6,20.8,6.2,25.4,24.6,24.9,43.1-.2,8-1.9,15.7-6.4,22.3,4.8-1.6,10.2-2.6,16.9-2.4v20.8c-10.9-1.6-21.6-2.4-31.5-1.1-10.5,1.3-22.6,2.8-32.8-.7Zm17.6-63.7c-6.2-.7-12.2,1-14.8,6.4-4.5,9.2-4.5,21.1-1.9,31.5,1.5,4.1,5.9,7.8,10.5,8.4,18.7,2.5,18.8-16.3,18.4-28.8-.2-4.5-.7-8.8-3.1-12.1-2.2-3.1-5.5-5-9-5.3Z" style="fill: none; stroke: #211815; stroke-linecap: round; stroke-linejoin: round; stroke-width: 6px;"/>
          <path d="M154.9,103.4c-8.9,1.8-18.6,1-26.8-1.6-7.7-2.5-13-8.7-15.5-15.8-1.3-4-2-9.7-1.8-14.7h21.7c-.1,3.4,.1,6.4,.9,9,.7,2.2,1.9,3.7,4.1,4.8,5.6,2.5,16.1,2.3,18-4.7,1.1-3.6-.1-7.1-3.2-9.4-2.4-1.8-6.2-2.2-10.7-2.2h-7.3v-17.7h7.3c5,0,11.9-1.6,12-7.7,0-2.1-1.3-4.6-3.1-5.8-2.2-1.5-6.4-2-9.1-1.5-3.4,.6-5.9,2.6-7.2,5.7-.8,2-1.4,4.2-1.2,7.5h-21.8c1.2-7.1,2.8-13.8,6.5-19.2,4-5.8,9.4-8.8,16.5-10.6,13.1-3.2,32.7-1.3,39.5,11.9,2.6,5.1,3.1,11.4,1.3,16.8-1.4,4.3-4.7,8.4-8.6,11,3.5,1.1,6.8,3.6,8.8,6.6,2.6,4,3.4,10.2,3.1,14.7-.2,5.4-2.2,10.8-6.3,14.7-4.4,4.4-11.2,7-17.2,8.2Z" style="fill: none; stroke: #211815; stroke-linecap: round; stroke-linejoin: round; stroke-width: 6px;"/>
        </g>
        <g>
          <path d="M42.7,102c-11.3-3.7-19-13.6-22.4-24.2-3.4-10.8-2.8-22.9,.5-33.3,3.1-10.1,11.8-19.9,22.4-24,8.2-3.3,20-3,28.3-.6,20.8,6.2,25.4,24.6,24.9,43.1-.2,8-1.9,15.7-6.4,22.3,4.8-1.6,10.2-2.6,16.9-2.4v20.8c-10.9-1.6-21.6-2.4-31.5-1.1-10.5,1.3-22.6,2.8-32.8-.7Zm17.6-63.7c-6.2-.7-12.2,1-14.8,6.4-4.5,9.2-4.5,21.1-1.9,31.5,1.5,4.1,5.9,7.8,10.5,8.4,18.7,2.5,18.8-16.3,18.4-28.8-.2-4.5-.7-8.8-3.1-12.1-2.2-3.1-5.5-5-9-5.3Z" style="fill: #ffd01d;"/>
          <path d="M154.9,103.4c-8.9,1.8-18.6,1-26.8-1.6-7.7-2.5-13-8.7-15.5-15.8-1.3-4-2-9.7-1.8-14.7h21.7c-.1,3.4,.1,6.4,.9,9,.7,2.2,1.9,3.7,4.1,4.8,5.6,2.5,16.1,2.3,18-4.7,1.1-3.6-.1-7.1-3.2-9.4-2.4-1.8-6.2-2.2-10.7-2.2h-7.3v-17.7h7.3c5,0,11.9-1.6,12-7.7,0-2.1-1.3-4.6-3.1-5.8-2.2-1.5-6.4-2-9.1-1.5-3.4,.6-5.9,2.6-7.2,5.7-.8,2-1.4,4.2-1.2,7.5h-21.8c1.2-7.1,2.8-13.8,6.5-19.2,4-5.8,9.4-8.8,16.5-10.6,13.1-3.2,32.7-1.3,39.5,11.9,2.6,5.1,3.1,11.4,1.3,16.8-1.4,4.3-4.7,8.4-8.6,11,3.5,1.1,6.8,3.6,8.8,6.6,2.6,4,3.4,10.2,3.1,14.7-.2,5.4-2.2,10.8-6.3,14.7-4.4,4.4-11.2,7-17.2,8.2Z" style="fill: #ffd01d;"/>
        </g>
        <g>
          <path d="M42.7,102c-11.3-3.7-19-13.6-22.4-24.2-3.4-10.8-2.8-22.9,.5-33.3,3.1-10.1,11.8-19.9,22.4-24,8.2-3.3,20-3,28.3-.6,20.8,6.2,25.4,24.6,24.9,43.1-.2,8-1.9,15.7-6.4,22.3,4.8-1.6,10.2-2.6,16.9-2.4v20.8c-10.9-1.6-21.6-2.4-31.5-1.1-10.5,1.3-22.6,2.8-32.8-.7Zm17.6-63.7c-6.2-.7-12.2,1-14.8,6.4-4.5,9.2-4.5,21.1-1.9,31.5,1.5,4.1,5.9,7.8,10.5,8.4,18.7,2.5,18.8-16.3,18.4-28.8-.2-4.5-.7-8.8-3.1-12.1-2.2-3.1-5.5-5-9-5.3Z" style="fill: none; stroke: #211815; stroke-linecap: round; stroke-linejoin: round; stroke-width: .5px;"/>
          <path d="M154.9,103.4c-8.9,1.8-18.6,1-26.8-1.6-7.7-2.5-13-8.7-15.5-15.8-1.3-4-2-9.7-1.8-14.7h21.7c-.1,3.4,.1,6.4,.9,9,.7,2.2,1.9,3.7,4.1,4.8,5.6,2.5,16.1,2.3,18-4.7,1.1-3.6-.1-7.1-3.2-9.4-2.4-1.8-6.2-2.2-10.7-2.2h-7.3v-17.7h7.3c5,0,11.9-1.6,12-7.7,0-2.1-1.3-4.6-3.1-5.8-2.2-1.5-6.4-2-9.1-1.5-3.4,.6-5.9,2.6-7.2,5.7-.8,2-1.4,4.2-1.2,7.5h-21.8c1.2-7.1,2.8-13.8,6.5-19.2,4-5.8,9.4-8.8,16.5-10.6,13.1-3.2,32.7-1.3,39.5,11.9,2.6,5.1,3.1,11.4,1.3,16.8-1.4,4.3-4.7,8.4-8.6,11,3.5,1.1,6.8,3.6,8.8,6.6,2.6,4,3.4,10.2,3.1,14.7-.2,5.4-2.2,10.8-6.3,14.7-4.4,4.4-11.2,7-17.2,8.2Z" style="fill: none; stroke: #211815; stroke-linecap: round; stroke-linejoin: round; stroke-width: .5px;"/>
        </g>
      </g>
    </g>
  </g>
</svg>