<?xml version="1.0" encoding="UTF-8"?>
<svg id="Layer_2" data-name="Layer 2" xmlns="http://www.w3.org/2000/svg" viewBox="0 0 204.7 136.5">
  <g id="TEXT_LOGO" data-name="TEXT&amp;amp;LOGO">
    <g>
      <g>
        <g>
          <path d="M51.6,116.4c-11.3-3.7-19-13.6-22.4-24.2-3.4-10.8-2.8-22.9,.5-33.3,3.1-10.1,11.8-19.9,22.4-24,8.2-3.3,20-3,28.3-.6,20.8,6.2,25.4,24.6,24.9,43.1-.2,8-1.9,15.7-6.4,22.3,4.8-1.6,10.2-2.6,16.9-2.4v20.8c-10.9-1.6-21.6-2.4-31.5-1.1-10.5,1.3-22.6,2.8-32.8-.7Zm17.6-63.7c-6.2-.7-12.2,1-14.8,6.4-4.5,9.2-4.5,21.1-1.9,31.5,1.5,4.1,5.9,7.8,10.5,8.4,18.7,2.5,18.8-16.3,18.4-28.8-.2-4.5-.7-8.8-3.1-12.1-2.2-3.1-5.5-4.9-9-5.3Z" style="fill: none; stroke: #000; stroke-linecap: round; stroke-linejoin: round; stroke-width: 36px;"/>
          <path d="M166.2,116.6c-8.2,2.4-20.3,2.4-28.3-.3-5.7-2-10.8-6.3-13.6-11.5-2.8-5-3.8-12.6-3.8-18.8h21.8c0,6,.2,12.4,7.5,14.4,5.9,1.5,12.2-.7,14.5-6.4,2.6-6,1-15.2-6-17.9-5.7-2.1-13.3,.8-16.2,5.9h-21.2l4.6-48.8h58.2v18.6h-38.5l-.9,10.4c3.6-2.9,8.2-4.2,12.9-4.5,6.4-.3,14.2,1.2,19.2,5.1,6.2,4.7,9.5,12.4,10.1,19.9,.9,9.5-1.3,18.2-6.8,25.1-3.6,4.6-8,7.4-13.4,8.9Z" style="fill: none; stroke: #000; stroke-linecap: round; stroke-linejoin: round; stroke-width: 36px;"/>
        </g>
        <g>
          <path d="M51.6,116.4c-11.3-3.7-19-13.6-22.4-24.2-3.4-10.8-2.8-22.9,.5-33.3,3.1-10.1,11.8-19.9,22.4-24,8.2-3.3,20-3,28.3-.6,20.8,6.2,25.4,24.6,24.9,43.1-.2,8-1.9,15.7-6.4,22.3,4.8-1.6,10.2-2.6,16.9-2.4v20.8c-10.9-1.6-21.6-2.4-31.5-1.1-10.5,1.3-22.6,2.8-32.8-.7Zm17.6-63.7c-6.2-.7-12.2,1-14.8,6.4-4.5,9.2-4.5,21.1-1.9,31.5,1.5,4.1,5.9,7.8,10.5,8.4,18.7,2.5,18.8-16.3,18.4-28.8-.2-4.5-.7-8.8-3.1-12.1-2.2-3.1-5.5-4.9-9-5.3Z" style="fill: none; stroke: #fff; stroke-linecap: round; stroke-linejoin: round; stroke-width: 28px;"/>
          <path d="M166.2,116.6c-8.2,2.4-20.3,2.4-28.3-.3-5.7-2-10.8-6.3-13.6-11.5-2.8-5-3.8-12.6-3.8-18.8h21.8c0,6,.2,12.4,7.5,14.4,5.9,1.5,12.2-.7,14.5-6.4,2.6-6,1-15.2-6-17.9-5.7-2.1-13.3,.8-16.2,5.9h-21.2l4.6-48.8h58.2v18.6h-38.5l-.9,10.4c3.6-2.9,8.2-4.2,12.9-4.5,6.4-.3,14.2,1.2,19.2,5.1,6.2,4.7,9.5,12.4,10.1,19.9,.9,9.5-1.3,18.2-6.8,25.1-3.6,4.6-8,7.4-13.4,8.9Z" style="fill: none; stroke: #fff; stroke-linecap: round; stroke-linejoin: round; stroke-width: 28px;"/>
        </g>
        <g>
          <path d="M51.6,116.4c-11.3-3.7-19-13.6-22.4-24.2-3.4-10.8-2.8-22.9,.5-33.3,3.1-10.1,11.8-19.9,22.4-24,8.2-3.3,20-3,28.3-.6,20.8,6.2,25.4,24.6,24.9,43.1-.2,8-1.9,15.7-6.4,22.3,4.8-1.6,10.2-2.6,16.9-2.4v20.8c-10.9-1.6-21.6-2.4-31.5-1.1-10.5,1.3-22.6,2.8-32.8-.7Zm17.6-63.7c-6.2-.7-12.2,1-14.8,6.4-4.5,9.2-4.5,21.1-1.9,31.5,1.5,4.1,5.9,7.8,10.5,8.4,18.7,2.5,18.8-16.3,18.4-28.8-.2-4.5-.7-8.8-3.1-12.1-2.2-3.1-5.5-4.9-9-5.3Z" style="fill: none; stroke: #fff; stroke-linecap: round; stroke-linejoin: round; stroke-width: 6px;"/>
          <path d="M166.2,116.6c-8.2,2.4-20.3,2.4-28.3-.3-5.7-2-10.8-6.3-13.6-11.5-2.8-5-3.8-12.6-3.8-18.8h21.8c0,6,.2,12.4,7.5,14.4,5.9,1.5,12.2-.7,14.5-6.4,2.6-6,1-15.2-6-17.9-5.7-2.1-13.3,.8-16.2,5.9h-21.2l4.6-48.8h58.2v18.6h-38.5l-.9,10.4c3.6-2.9,8.2-4.2,12.9-4.5,6.4-.3,14.2,1.2,19.2,5.1,6.2,4.7,9.5,12.4,10.1,19.9,.9,9.5-1.3,18.2-6.8,25.1-3.6,4.6-8,7.4-13.4,8.9Z" style="fill: none; stroke: #fff; stroke-linecap: round; stroke-linejoin: round; stroke-width: 6px;"/>
        </g>
        <g>
          <path d="M51.6,116.4c-11.3-3.7-19-13.6-22.4-24.2-3.4-10.8-2.8-22.9,.5-33.3,3.1-10.1,11.8-19.9,22.4-24,8.2-3.3,20-3,28.3-.6,20.8,6.2,25.4,24.6,24.9,43.1-.2,8-1.9,15.7-6.4,22.3,4.8-1.6,10.2-2.6,16.9-2.4v20.8c-10.9-1.6-21.6-2.4-31.5-1.1-10.5,1.3-22.6,2.8-32.8-.7Zm17.6-63.7c-6.2-.7-12.2,1-14.8,6.4-4.5,9.2-4.5,21.1-1.9,31.5,1.5,4.1,5.9,7.8,10.5,8.4,18.7,2.5,18.8-16.3,18.4-28.8-.2-4.5-.7-8.8-3.1-12.1-2.2-3.1-5.5-4.9-9-5.3Z" style="fill: #fff;"/>
          <path d="M166.2,116.6c-8.2,2.4-20.3,2.4-28.3-.3-5.7-2-10.8-6.3-13.6-11.5-2.8-5-3.8-12.6-3.8-18.8h21.8c0,6,.2,12.4,7.5,14.4,5.9,1.5,12.2-.7,14.5-6.4,2.6-6,1-15.2-6-17.9-5.7-2.1-13.3,.8-16.2,5.9h-21.2l4.6-48.8h58.2v18.6h-38.5l-.9,10.4c3.6-2.9,8.2-4.2,12.9-4.5,6.4-.3,14.2,1.2,19.2,5.1,6.2,4.7,9.5,12.4,10.1,19.9,.9,9.5-1.3,18.2-6.8,25.1-3.6,4.6-8,7.4-13.4,8.9Z" style="fill: #fff;"/>
        </g>
        <g>
          <path d="M51.6,116.4c-11.3-3.7-19-13.6-22.4-24.2-3.4-10.8-2.8-22.9,.5-33.3,3.1-10.1,11.8-19.9,22.4-24,8.2-3.3,20-3,28.3-.6,20.8,6.2,25.4,24.6,24.9,43.1-.2,8-1.9,15.7-6.4,22.3,4.8-1.6,10.2-2.6,16.9-2.4v20.8c-10.9-1.6-21.6-2.4-31.5-1.1-10.5,1.3-22.6,2.8-32.8-.7Zm17.6-63.7c-6.2-.7-12.2,1-14.8,6.4-4.5,9.2-4.5,21.1-1.9,31.5,1.5,4.1,5.9,7.8,10.5,8.4,18.7,2.5,18.8-16.3,18.4-28.8-.2-4.5-.7-8.8-3.1-12.1-2.2-3.1-5.5-4.9-9-5.3Z" style="fill: none; stroke: #fff; stroke-linecap: round; stroke-linejoin: round; stroke-width: .5px;"/>
          <path d="M166.2,116.6c-8.2,2.4-20.3,2.4-28.3-.3-5.7-2-10.8-6.3-13.6-11.5-2.8-5-3.8-12.6-3.8-18.8h21.8c0,6,.2,12.4,7.5,14.4,5.9,1.5,12.2-.7,14.5-6.4,2.6-6,1-15.2-6-17.9-5.7-2.1-13.3,.8-16.2,5.9h-21.2l4.6-48.8h58.2v18.6h-38.5l-.9,10.4c3.6-2.9,8.2-4.2,12.9-4.5,6.4-.3,14.2,1.2,19.2,5.1,6.2,4.7,9.5,12.4,10.1,19.9,.9,9.5-1.3,18.2-6.8,25.1-3.6,4.6-8,7.4-13.4,8.9Z" style="fill: none; stroke: #fff; stroke-linecap: round; stroke-linejoin: round; stroke-width: .5px;"/>
        </g>
      </g>
      <g>
        <g>
          <path d="M42.7,101.9c-11.3-3.7-19-13.6-22.4-24.2-3.4-10.8-2.8-22.9,.5-33.3,3.1-10.1,11.8-19.9,22.4-24,8.2-3.3,20-3,28.3-.6,20.8,6.2,25.4,24.6,24.9,43.1-.2,8-1.9,15.7-6.4,22.3,4.8-1.6,10.2-2.6,16.9-2.4v20.8c-10.9-1.6-21.6-2.4-31.5-1.1-10.5,1.3-22.6,2.8-32.8-.7Zm17.6-63.7c-6.2-.7-12.2,1-14.8,6.4-4.5,9.2-4.5,21.1-1.9,31.5,1.5,4.1,5.9,7.8,10.5,8.4,18.7,2.5,18.8-16.3,18.4-28.8-.2-4.5-.7-8.8-3.1-12.1-2.2-3.1-5.5-5-9-5.3Z" style="fill: none; stroke: #000; stroke-linecap: round; stroke-linejoin: round; stroke-width: 36px;"/>
          <path d="M157.3,102.2c-8.2,2.4-20.3,2.4-28.3-.3-5.7-2-10.8-6.3-13.6-11.5-2.8-5-3.8-12.6-3.8-18.8h21.8c0,6,.2,12.4,7.5,14.4,5.9,1.5,12.2-.7,14.5-6.4,2.6-6,1-15.2-6-17.9-5.7-2.1-13.3,.8-16.2,5.9h-21.2l4.6-48.8h58.2v18.6h-38.5l-.9,10.4c3.6-2.9,8.2-4.2,12.9-4.5,6.4-.3,14.2,1.2,19.2,5.1,6.2,4.7,9.5,12.4,10.1,19.9,.9,9.5-1.3,18.2-6.8,25.1-3.6,4.6-8,7.4-13.4,8.9Z" style="fill: none; stroke: #000; stroke-linecap: round; stroke-linejoin: round; stroke-width: 36px;"/>
        </g>
        <g>
          <path d="M42.7,101.9c-11.3-3.7-19-13.6-22.4-24.2-3.4-10.8-2.8-22.9,.5-33.3,3.1-10.1,11.8-19.9,22.4-24,8.2-3.3,20-3,28.3-.6,20.8,6.2,25.4,24.6,24.9,43.1-.2,8-1.9,15.7-6.4,22.3,4.8-1.6,10.2-2.6,16.9-2.4v20.8c-10.9-1.6-21.6-2.4-31.5-1.1-10.5,1.3-22.6,2.8-32.8-.7Zm17.6-63.7c-6.2-.7-12.2,1-14.8,6.4-4.5,9.2-4.5,21.1-1.9,31.5,1.5,4.1,5.9,7.8,10.5,8.4,18.7,2.5,18.8-16.3,18.4-28.8-.2-4.5-.7-8.8-3.1-12.1-2.2-3.1-5.5-5-9-5.3Z" style="fill: none; stroke: #fff; stroke-linecap: round; stroke-linejoin: round; stroke-width: 28px;"/>
          <path d="M157.3,102.2c-8.2,2.4-20.3,2.4-28.3-.3-5.7-2-10.8-6.3-13.6-11.5-2.8-5-3.8-12.6-3.8-18.8h21.8c0,6,.2,12.4,7.5,14.4,5.9,1.5,12.2-.7,14.5-6.4,2.6-6,1-15.2-6-17.9-5.7-2.1-13.3,.8-16.2,5.9h-21.2l4.6-48.8h58.2v18.6h-38.5l-.9,10.4c3.6-2.9,8.2-4.2,12.9-4.5,6.4-.3,14.2,1.2,19.2,5.1,6.2,4.7,9.5,12.4,10.1,19.9,.9,9.5-1.3,18.2-6.8,25.1-3.6,4.6-8,7.4-13.4,8.9Z" style="fill: none; stroke: #fff; stroke-linecap: round; stroke-linejoin: round; stroke-width: 28px;"/>
        </g>
        <g>
          <path d="M42.7,101.9c-11.3-3.7-19-13.6-22.4-24.2-3.4-10.8-2.8-22.9,.5-33.3,3.1-10.1,11.8-19.9,22.4-24,8.2-3.3,20-3,28.3-.6,20.8,6.2,25.4,24.6,24.9,43.1-.2,8-1.9,15.7-6.4,22.3,4.8-1.6,10.2-2.6,16.9-2.4v20.8c-10.9-1.6-21.6-2.4-31.5-1.1-10.5,1.3-22.6,2.8-32.8-.7Zm17.6-63.7c-6.2-.7-12.2,1-14.8,6.4-4.5,9.2-4.5,21.1-1.9,31.5,1.5,4.1,5.9,7.8,10.5,8.4,18.7,2.5,18.8-16.3,18.4-28.8-.2-4.5-.7-8.8-3.1-12.1-2.2-3.1-5.5-5-9-5.3Z" style="fill: none; stroke: #211815; stroke-linecap: round; stroke-linejoin: round; stroke-width: 6px;"/>
          <path d="M157.3,102.2c-8.2,2.4-20.3,2.4-28.3-.3-5.7-2-10.8-6.3-13.6-11.5-2.8-5-3.8-12.6-3.8-18.8h21.8c0,6,.2,12.4,7.5,14.4,5.9,1.5,12.2-.7,14.5-6.4,2.6-6,1-15.2-6-17.9-5.7-2.1-13.3,.8-16.2,5.9h-21.2l4.6-48.8h58.2v18.6h-38.5l-.9,10.4c3.6-2.9,8.2-4.2,12.9-4.5,6.4-.3,14.2,1.2,19.2,5.1,6.2,4.7,9.5,12.4,10.1,19.9,.9,9.5-1.3,18.2-6.8,25.1-3.6,4.6-8,7.4-13.4,8.9Z" style="fill: none; stroke: #211815; stroke-linecap: round; stroke-linejoin: round; stroke-width: 6px;"/>
        </g>
        <g>
          <path d="M42.7,101.9c-11.3-3.7-19-13.6-22.4-24.2-3.4-10.8-2.8-22.9,.5-33.3,3.1-10.1,11.8-19.9,22.4-24,8.2-3.3,20-3,28.3-.6,20.8,6.2,25.4,24.6,24.9,43.1-.2,8-1.9,15.7-6.4,22.3,4.8-1.6,10.2-2.6,16.9-2.4v20.8c-10.9-1.6-21.6-2.4-31.5-1.1-10.5,1.3-22.6,2.8-32.8-.7Zm17.6-63.7c-6.2-.7-12.2,1-14.8,6.4-4.5,9.2-4.5,21.1-1.9,31.5,1.5,4.1,5.9,7.8,10.5,8.4,18.7,2.5,18.8-16.3,18.4-28.8-.2-4.5-.7-8.8-3.1-12.1-2.2-3.1-5.5-5-9-5.3Z" style="fill: #ffd01d;"/>
          <path d="M157.3,102.2c-8.2,2.4-20.3,2.4-28.3-.3-5.7-2-10.8-6.3-13.6-11.5-2.8-5-3.8-12.6-3.8-18.8h21.8c0,6,.2,12.4,7.5,14.4,5.9,1.5,12.2-.7,14.5-6.4,2.6-6,1-15.2-6-17.9-5.7-2.1-13.3,.8-16.2,5.9h-21.2l4.6-48.8h58.2v18.6h-38.5l-.9,10.4c3.6-2.9,8.2-4.2,12.9-4.5,6.4-.3,14.2,1.2,19.2,5.1,6.2,4.7,9.5,12.4,10.1,19.9,.9,9.5-1.3,18.2-6.8,25.1-3.6,4.6-8,7.4-13.4,8.9Z" style="fill: #ffd01d;"/>
        </g>
        <g>
          <path d="M42.7,101.9c-11.3-3.7-19-13.6-22.4-24.2-3.4-10.8-2.8-22.9,.5-33.3,3.1-10.1,11.8-19.9,22.4-24,8.2-3.3,20-3,28.3-.6,20.8,6.2,25.4,24.6,24.9,43.1-.2,8-1.9,15.7-6.4,22.3,4.8-1.6,10.2-2.6,16.9-2.4v20.8c-10.9-1.6-21.6-2.4-31.5-1.1-10.5,1.3-22.6,2.8-32.8-.7Zm17.6-63.7c-6.2-.7-12.2,1-14.8,6.4-4.5,9.2-4.5,21.1-1.9,31.5,1.5,4.1,5.9,7.8,10.5,8.4,18.7,2.5,18.8-16.3,18.4-28.8-.2-4.5-.7-8.8-3.1-12.1-2.2-3.1-5.5-5-9-5.3Z" style="fill: none; stroke: #211815; stroke-linecap: round; stroke-linejoin: round; stroke-width: .5px;"/>
          <path d="M157.3,102.2c-8.2,2.4-20.3,2.4-28.3-.3-5.7-2-10.8-6.3-13.6-11.5-2.8-5-3.8-12.6-3.8-18.8h21.8c0,6,.2,12.4,7.5,14.4,5.9,1.5,12.2-.7,14.5-6.4,2.6-6,1-15.2-6-17.9-5.7-2.1-13.3,.8-16.2,5.9h-21.2l4.6-48.8h58.2v18.6h-38.5l-.9,10.4c3.6-2.9,8.2-4.2,12.9-4.5,6.4-.3,14.2,1.2,19.2,5.1,6.2,4.7,9.5,12.4,10.1,19.9,.9,9.5-1.3,18.2-6.8,25.1-3.6,4.6-8,7.4-13.4,8.9Z" style="fill: none; stroke: #211815; stroke-linecap: round; stroke-linejoin: round; stroke-width: .5px;"/>
        </g>
      </g>
    </g>
  </g>
</svg>