<?xml version="1.0" encoding="UTF-8"?>
<svg id="Layer_2" data-name="Layer 2" xmlns="http://www.w3.org/2000/svg" viewBox="0 0 204.7 136.7">
  <g id="TEXT_LOGO" data-name="TEXT&amp;amp;LOGO">
    <g>
      <g>
        <g>
          <path d="M51.6,116.6c-11.3-3.7-19-13.6-22.4-24.2-3.4-10.8-2.8-22.9,.5-33.3,3.1-10.1,11.8-19.9,22.4-24,8.2-3.3,20-3,28.3-.6,20.8,6.2,25.4,24.6,24.9,43.1-.2,8-1.9,15.7-6.4,22.3,4.8-1.6,10.2-2.6,16.9-2.4v20.8c-10.9-1.6-21.6-2.4-31.5-1.1-10.5,1.3-22.6,2.8-32.8-.7Zm17.6-63.7c-6.2-.7-12.2,1-14.8,6.4-4.5,9.2-4.5,21.1-1.9,31.5,1.5,4.1,5.9,7.8,10.5,8.4,18.7,2.5,18.8-16.3,18.4-28.8-.2-4.5-.7-8.8-3.1-12.1-2.2-3.1-5.5-4.9-9-5.3Z" style="fill: none; stroke: #000; stroke-linecap: round; stroke-linejoin: round; stroke-width: 36px;"/>
          <path d="M162.8,52.4c-4-4.4-12.2-2.3-15.6,1.8-2.3,2.8-3.2,6.4-3.7,10.2,15.2-8.6,36.6-4.2,41.7,13.8,4.8,16.8-2,33.7-19.9,38.9-7.7,2.3-16.4,2.2-24.1-.1-8.7-2.6-14.4-8-17.5-16.2-4.7-12.8-3.6-37.7,1.7-49.2,3-6.6,8-12,14.7-15.4,6.9-3.4,15.7-4.3,23.3-3.4,14.7,1.8,23,11.7,23.3,25.6h-21.5c-.5-2.8-1.1-4.7-2.4-6.1Zm-12.9,26.5c-6.7,2.3-7.4,10.2-5.8,16,.7,2.2,2.5,4.4,4.8,5.5,2.5,1.2,6.7,1.2,9.5,.3,7-2.4,7.1-10.6,5.6-16.5-.7-2.5-2.3-4.2-4.5-5.1-2.8-1.2-6.6-1.3-9.6-.2Z" style="fill: none; stroke: #000; stroke-linecap: round; stroke-linejoin: round; stroke-width: 36px;"/>
        </g>
        <g>
          <path d="M51.6,116.6c-11.3-3.7-19-13.6-22.4-24.2-3.4-10.8-2.8-22.9,.5-33.3,3.1-10.1,11.8-19.9,22.4-24,8.2-3.3,20-3,28.3-.6,20.8,6.2,25.4,24.6,24.9,43.1-.2,8-1.9,15.7-6.4,22.3,4.8-1.6,10.2-2.6,16.9-2.4v20.8c-10.9-1.6-21.6-2.4-31.5-1.1-10.5,1.3-22.6,2.8-32.8-.7Zm17.6-63.7c-6.2-.7-12.2,1-14.8,6.4-4.5,9.2-4.5,21.1-1.9,31.5,1.5,4.1,5.9,7.8,10.5,8.4,18.7,2.5,18.8-16.3,18.4-28.8-.2-4.5-.7-8.8-3.1-12.1-2.2-3.1-5.5-4.9-9-5.3Z" style="fill: none; stroke: #fff; stroke-linecap: round; stroke-linejoin: round; stroke-width: 28px;"/>
          <path d="M162.8,52.4c-4-4.4-12.2-2.3-15.6,1.8-2.3,2.8-3.2,6.4-3.7,10.2,15.2-8.6,36.6-4.2,41.7,13.8,4.8,16.8-2,33.7-19.9,38.9-7.7,2.3-16.4,2.2-24.1-.1-8.7-2.6-14.4-8-17.5-16.2-4.7-12.8-3.6-37.7,1.7-49.2,3-6.6,8-12,14.7-15.4,6.9-3.4,15.7-4.3,23.3-3.4,14.7,1.8,23,11.7,23.3,25.6h-21.5c-.5-2.8-1.1-4.7-2.4-6.1Zm-12.9,26.5c-6.7,2.3-7.4,10.2-5.8,16,.7,2.2,2.5,4.4,4.8,5.5,2.5,1.2,6.7,1.2,9.5,.3,7-2.4,7.1-10.6,5.6-16.5-.7-2.5-2.3-4.2-4.5-5.1-2.8-1.2-6.6-1.3-9.6-.2Z" style="fill: none; stroke: #fff; stroke-linecap: round; stroke-linejoin: round; stroke-width: 28px;"/>
        </g>
        <g>
          <path d="M51.6,116.6c-11.3-3.7-19-13.6-22.4-24.2-3.4-10.8-2.8-22.9,.5-33.3,3.1-10.1,11.8-19.9,22.4-24,8.2-3.3,20-3,28.3-.6,20.8,6.2,25.4,24.6,24.9,43.1-.2,8-1.9,15.7-6.4,22.3,4.8-1.6,10.2-2.6,16.9-2.4v20.8c-10.9-1.6-21.6-2.4-31.5-1.1-10.5,1.3-22.6,2.8-32.8-.7Zm17.6-63.7c-6.2-.7-12.2,1-14.8,6.4-4.5,9.2-4.5,21.1-1.9,31.5,1.5,4.1,5.9,7.8,10.5,8.4,18.7,2.5,18.8-16.3,18.4-28.8-.2-4.5-.7-8.8-3.1-12.1-2.2-3.1-5.5-4.9-9-5.3Z" style="fill: none; stroke: #fff; stroke-linecap: round; stroke-linejoin: round; stroke-width: 6px;"/>
          <path d="M162.8,52.4c-4-4.4-12.2-2.3-15.6,1.8-2.3,2.8-3.2,6.4-3.7,10.2,15.2-8.6,36.6-4.2,41.7,13.8,4.8,16.8-2,33.7-19.9,38.9-7.7,2.3-16.4,2.2-24.1-.1-8.7-2.6-14.4-8-17.5-16.2-4.7-12.8-3.6-37.7,1.7-49.2,3-6.6,8-12,14.7-15.4,6.9-3.4,15.7-4.3,23.3-3.4,14.7,1.8,23,11.7,23.3,25.6h-21.5c-.5-2.8-1.1-4.7-2.4-6.1Zm-12.9,26.5c-6.7,2.3-7.4,10.2-5.8,16,.7,2.2,2.5,4.4,4.8,5.5,2.5,1.2,6.7,1.2,9.5,.3,7-2.4,7.1-10.6,5.6-16.5-.7-2.5-2.3-4.2-4.5-5.1-2.8-1.2-6.6-1.3-9.6-.2Z" style="fill: none; stroke: #fff; stroke-linecap: round; stroke-linejoin: round; stroke-width: 6px;"/>
        </g>
        <g>
          <path d="M51.6,116.6c-11.3-3.7-19-13.6-22.4-24.2-3.4-10.8-2.8-22.9,.5-33.3,3.1-10.1,11.8-19.9,22.4-24,8.2-3.3,20-3,28.3-.6,20.8,6.2,25.4,24.6,24.9,43.1-.2,8-1.9,15.7-6.4,22.3,4.8-1.6,10.2-2.6,16.9-2.4v20.8c-10.9-1.6-21.6-2.4-31.5-1.1-10.5,1.3-22.6,2.8-32.8-.7Zm17.6-63.7c-6.2-.7-12.2,1-14.8,6.4-4.5,9.2-4.5,21.1-1.9,31.5,1.5,4.1,5.9,7.8,10.5,8.4,18.7,2.5,18.8-16.3,18.4-28.8-.2-4.5-.7-8.8-3.1-12.1-2.2-3.1-5.5-4.9-9-5.3Z" style="fill: #fff;"/>
          <path d="M162.8,52.4c-4-4.4-12.2-2.3-15.6,1.8-2.3,2.8-3.2,6.4-3.7,10.2,15.2-8.6,36.6-4.2,41.7,13.8,4.8,16.8-2,33.7-19.9,38.9-7.7,2.3-16.4,2.2-24.1-.1-8.7-2.6-14.4-8-17.5-16.2-4.7-12.8-3.6-37.7,1.7-49.2,3-6.6,8-12,14.7-15.4,6.9-3.4,15.7-4.3,23.3-3.4,14.7,1.8,23,11.7,23.3,25.6h-21.5c-.5-2.8-1.1-4.7-2.4-6.1Zm-12.9,26.5c-6.7,2.3-7.4,10.2-5.8,16,.7,2.2,2.5,4.4,4.8,5.5,2.5,1.2,6.7,1.2,9.5,.3,7-2.4,7.1-10.6,5.6-16.5-.7-2.5-2.3-4.2-4.5-5.1-2.8-1.2-6.6-1.3-9.6-.2Z" style="fill: #fff;"/>
        </g>
        <g>
          <path d="M51.6,116.6c-11.3-3.7-19-13.6-22.4-24.2-3.4-10.8-2.8-22.9,.5-33.3,3.1-10.1,11.8-19.9,22.4-24,8.2-3.3,20-3,28.3-.6,20.8,6.2,25.4,24.6,24.9,43.1-.2,8-1.9,15.7-6.4,22.3,4.8-1.6,10.2-2.6,16.9-2.4v20.8c-10.9-1.6-21.6-2.4-31.5-1.1-10.5,1.3-22.6,2.8-32.8-.7Zm17.6-63.7c-6.2-.7-12.2,1-14.8,6.4-4.5,9.2-4.5,21.1-1.9,31.5,1.5,4.1,5.9,7.8,10.5,8.4,18.7,2.5,18.8-16.3,18.4-28.8-.2-4.5-.7-8.8-3.1-12.1-2.2-3.1-5.5-4.9-9-5.3Z" style="fill: none; stroke: #fff; stroke-linecap: round; stroke-linejoin: round; stroke-width: .5px;"/>
          <path d="M162.8,52.4c-4-4.4-12.2-2.3-15.6,1.8-2.3,2.8-3.2,6.4-3.7,10.2,15.2-8.6,36.6-4.2,41.7,13.8,4.8,16.8-2,33.7-19.9,38.9-7.7,2.3-16.4,2.2-24.1-.1-8.7-2.6-14.4-8-17.5-16.2-4.7-12.8-3.6-37.7,1.7-49.2,3-6.6,8-12,14.7-15.4,6.9-3.4,15.7-4.3,23.3-3.4,14.7,1.8,23,11.7,23.3,25.6h-21.5c-.5-2.8-1.1-4.7-2.4-6.1Zm-12.9,26.5c-6.7,2.3-7.4,10.2-5.8,16,.7,2.2,2.5,4.4,4.8,5.5,2.5,1.2,6.7,1.2,9.5,.3,7-2.4,7.1-10.6,5.6-16.5-.7-2.5-2.3-4.2-4.5-5.1-2.8-1.2-6.6-1.3-9.6-.2Z" style="fill: none; stroke: #fff; stroke-linecap: round; stroke-linejoin: round; stroke-width: .5px;"/>
        </g>
      </g>
      <g>
        <g>
          <path d="M42.7,102.1c-11.3-3.7-19-13.6-22.4-24.2-3.4-10.8-2.8-22.9,.5-33.3,3.1-10.1,11.8-19.9,22.4-24,8.2-3.3,20-3,28.3-.6,20.8,6.2,25.4,24.6,24.9,43.1-.2,8-1.9,15.7-6.4,22.3,4.8-1.6,10.2-2.6,16.9-2.4v20.8c-10.9-1.6-21.6-2.4-31.5-1.1-10.5,1.3-22.6,2.8-32.8-.7Zm17.6-63.7c-6.2-.7-12.2,1-14.8,6.4-4.5,9.2-4.5,21.1-1.9,31.5,1.5,4.1,5.9,7.8,10.5,8.4,18.7,2.5,18.8-16.3,18.4-28.8-.2-4.5-.7-8.8-3.1-12.1-2.2-3.1-5.5-5-9-5.3Z" style="fill: none; stroke: #000; stroke-linecap: round; stroke-linejoin: round; stroke-width: 36px;"/>
          <path d="M153.9,37.9c-4-4.4-12.2-2.3-15.6,1.8-2.3,2.8-3.2,6.4-3.7,10.2,15.2-8.6,36.6-4.2,41.7,13.8,4.8,16.8-2,33.7-19.9,38.9-7.7,2.3-16.4,2.2-24.1-.1-8.7-2.6-14.4-8-17.5-16.2-4.7-12.8-3.6-37.7,1.7-49.2,3-6.6,8-12,14.7-15.4,6.9-3.4,15.7-4.3,23.3-3.4,14.7,1.8,23,11.7,23.3,25.6h-21.5c-.5-2.8-1.1-4.7-2.4-6.1Zm-12.9,26.5c-6.7,2.3-7.4,10.2-5.8,16,.7,2.2,2.5,4.4,4.8,5.5,2.5,1.2,6.7,1.2,9.5,.3,7-2.4,7.1-10.6,5.6-16.5-.7-2.5-2.3-4.2-4.5-5.1-2.8-1.2-6.6-1.3-9.6-.2Z" style="fill: none; stroke: #000; stroke-linecap: round; stroke-linejoin: round; stroke-width: 36px;"/>
        </g>
        <g>
          <path d="M42.7,102.1c-11.3-3.7-19-13.6-22.4-24.2-3.4-10.8-2.8-22.9,.5-33.3,3.1-10.1,11.8-19.9,22.4-24,8.2-3.3,20-3,28.3-.6,20.8,6.2,25.4,24.6,24.9,43.1-.2,8-1.9,15.7-6.4,22.3,4.8-1.6,10.2-2.6,16.9-2.4v20.8c-10.9-1.6-21.6-2.4-31.5-1.1-10.5,1.3-22.6,2.8-32.8-.7Zm17.6-63.7c-6.2-.7-12.2,1-14.8,6.4-4.5,9.2-4.5,21.1-1.9,31.5,1.5,4.1,5.9,7.8,10.5,8.4,18.7,2.5,18.8-16.3,18.4-28.8-.2-4.5-.7-8.8-3.1-12.1-2.2-3.1-5.5-5-9-5.3Z" style="fill: none; stroke: #fff; stroke-linecap: round; stroke-linejoin: round; stroke-width: 28px;"/>
          <path d="M153.9,37.9c-4-4.4-12.2-2.3-15.6,1.8-2.3,2.8-3.2,6.4-3.7,10.2,15.2-8.6,36.6-4.2,41.7,13.8,4.8,16.8-2,33.7-19.9,38.9-7.7,2.3-16.4,2.2-24.1-.1-8.7-2.6-14.4-8-17.5-16.2-4.7-12.8-3.6-37.7,1.7-49.2,3-6.6,8-12,14.7-15.4,6.9-3.4,15.7-4.3,23.3-3.4,14.7,1.8,23,11.7,23.3,25.6h-21.5c-.5-2.8-1.1-4.7-2.4-6.1Zm-12.9,26.5c-6.7,2.3-7.4,10.2-5.8,16,.7,2.2,2.5,4.4,4.8,5.5,2.5,1.2,6.7,1.2,9.5,.3,7-2.4,7.1-10.6,5.6-16.5-.7-2.5-2.3-4.2-4.5-5.1-2.8-1.2-6.6-1.3-9.6-.2Z" style="fill: none; stroke: #fff; stroke-linecap: round; stroke-linejoin: round; stroke-width: 28px;"/>
        </g>
        <g>
          <path d="M42.7,102.1c-11.3-3.7-19-13.6-22.4-24.2-3.4-10.8-2.8-22.9,.5-33.3,3.1-10.1,11.8-19.9,22.4-24,8.2-3.3,20-3,28.3-.6,20.8,6.2,25.4,24.6,24.9,43.1-.2,8-1.9,15.7-6.4,22.3,4.8-1.6,10.2-2.6,16.9-2.4v20.8c-10.9-1.6-21.6-2.4-31.5-1.1-10.5,1.3-22.6,2.8-32.8-.7Zm17.6-63.7c-6.2-.7-12.2,1-14.8,6.4-4.5,9.2-4.5,21.1-1.9,31.5,1.5,4.1,5.9,7.8,10.5,8.4,18.7,2.5,18.8-16.3,18.4-28.8-.2-4.5-.7-8.8-3.1-12.1-2.2-3.1-5.5-5-9-5.3Z" style="fill: none; stroke: #211815; stroke-linecap: round; stroke-linejoin: round; stroke-width: 6px;"/>
          <path d="M153.9,37.9c-4-4.4-12.2-2.3-15.6,1.8-2.3,2.8-3.2,6.4-3.7,10.2,15.2-8.6,36.6-4.2,41.7,13.8,4.8,16.8-2,33.7-19.9,38.9-7.7,2.3-16.4,2.2-24.1-.1-8.7-2.6-14.4-8-17.5-16.2-4.7-12.8-3.6-37.7,1.7-49.2,3-6.6,8-12,14.7-15.4,6.9-3.4,15.7-4.3,23.3-3.4,14.7,1.8,23,11.7,23.3,25.6h-21.5c-.5-2.8-1.1-4.7-2.4-6.1Zm-12.9,26.5c-6.7,2.3-7.4,10.2-5.8,16,.7,2.2,2.5,4.4,4.8,5.5,2.5,1.2,6.7,1.2,9.5,.3,7-2.4,7.1-10.6,5.6-16.5-.7-2.5-2.3-4.2-4.5-5.1-2.8-1.2-6.6-1.3-9.6-.2Z" style="fill: none; stroke: #211815; stroke-linecap: round; stroke-linejoin: round; stroke-width: 6px;"/>
        </g>
        <g>
          <path d="M42.7,102.1c-11.3-3.7-19-13.6-22.4-24.2-3.4-10.8-2.8-22.9,.5-33.3,3.1-10.1,11.8-19.9,22.4-24,8.2-3.3,20-3,28.3-.6,20.8,6.2,25.4,24.6,24.9,43.1-.2,8-1.9,15.7-6.4,22.3,4.8-1.6,10.2-2.6,16.9-2.4v20.8c-10.9-1.6-21.6-2.4-31.5-1.1-10.5,1.3-22.6,2.8-32.8-.7Zm17.6-63.7c-6.2-.7-12.2,1-14.8,6.4-4.5,9.2-4.5,21.1-1.9,31.5,1.5,4.1,5.9,7.8,10.5,8.4,18.7,2.5,18.8-16.3,18.4-28.8-.2-4.5-.7-8.8-3.1-12.1-2.2-3.1-5.5-5-9-5.3Z" style="fill: #ffd01d;"/>
          <path d="M153.9,37.9c-4-4.4-12.2-2.3-15.6,1.8-2.3,2.8-3.2,6.4-3.7,10.2,15.2-8.6,36.6-4.2,41.7,13.8,4.8,16.8-2,33.7-19.9,38.9-7.7,2.3-16.4,2.2-24.1-.1-8.7-2.6-14.4-8-17.5-16.2-4.7-12.8-3.6-37.7,1.7-49.2,3-6.6,8-12,14.7-15.4,6.9-3.4,15.7-4.3,23.3-3.4,14.7,1.8,23,11.7,23.3,25.6h-21.5c-.5-2.8-1.1-4.7-2.4-6.1Zm-12.9,26.5c-6.7,2.3-7.4,10.2-5.8,16,.7,2.2,2.5,4.4,4.8,5.5,2.5,1.2,6.7,1.2,9.5,.3,7-2.4,7.1-10.6,5.6-16.5-.7-2.5-2.3-4.2-4.5-5.1-2.8-1.2-6.6-1.3-9.6-.2Z" style="fill: #ffd01d;"/>
        </g>
        <g>
          <path d="M42.7,102.1c-11.3-3.7-19-13.6-22.4-24.2-3.4-10.8-2.8-22.9,.5-33.3,3.1-10.1,11.8-19.9,22.4-24,8.2-3.3,20-3,28.3-.6,20.8,6.2,25.4,24.6,24.9,43.1-.2,8-1.9,15.7-6.4,22.3,4.8-1.6,10.2-2.6,16.9-2.4v20.8c-10.9-1.6-21.6-2.4-31.5-1.1-10.5,1.3-22.6,2.8-32.8-.7Zm17.6-63.7c-6.2-.7-12.2,1-14.8,6.4-4.5,9.2-4.5,21.1-1.9,31.5,1.5,4.1,5.9,7.8,10.5,8.4,18.7,2.5,18.8-16.3,18.4-28.8-.2-4.5-.7-8.8-3.1-12.1-2.2-3.1-5.5-5-9-5.3Z" style="fill: none; stroke: #211815; stroke-linecap: round; stroke-linejoin: round; stroke-width: .5px;"/>
          <path d="M153.9,37.9c-4-4.4-12.2-2.3-15.6,1.8-2.3,2.8-3.2,6.4-3.7,10.2,15.2-8.6,36.6-4.2,41.7,13.8,4.8,16.8-2,33.7-19.9,38.9-7.7,2.3-16.4,2.2-24.1-.1-8.7-2.6-14.4-8-17.5-16.2-4.7-12.8-3.6-37.7,1.7-49.2,3-6.6,8-12,14.7-15.4,6.9-3.4,15.7-4.3,23.3-3.4,14.7,1.8,23,11.7,23.3,25.6h-21.5c-.5-2.8-1.1-4.7-2.4-6.1Zm-12.9,26.5c-6.7,2.3-7.4,10.2-5.8,16,.7,2.2,2.5,4.4,4.8,5.5,2.5,1.2,6.7,1.2,9.5,.3,7-2.4,7.1-10.6,5.6-16.5-.7-2.5-2.3-4.2-4.5-5.1-2.8-1.2-6.6-1.3-9.6-.2Z" style="fill: none; stroke: #211815; stroke-linecap: round; stroke-linejoin: round; stroke-width: .5px;"/>
        </g>
      </g>
    </g>
  </g>
</svg>