<?xml version="1.0" encoding="UTF-8"?>
<svg id="Layer_2" data-name="Layer 2" xmlns="http://www.w3.org/2000/svg" viewBox="0 0 105 82">
  <g id="BAR">
    <g>
      <g>
        <path d="M54.7,81.4c-2.7,0-5.4-.9-7.4-2.8L13.4,49.5c-5.4-4.9-8.3-11.4-8.3-18.4s3-13.5,8.3-18.4c5.4-4.9,12.5-7.6,20-7.6s11.9,1.7,16.8,5.1c1.7,1.1,3.2,2.6,4.4,4.2,1.2-1.6,2.7-3,4.4-4.2,4.9-3.3,10.7-5.1,16.8-5.1s12.9,2,18,5.9c6.4,4.8,10.1,11.5,10.4,18.8,.3,7.4-2.7,14.4-8.6,19.8h0s-33.6,28.9-33.6,28.9c-2,1.9-4.7,2.8-7.4,2.8ZM33.5,5.9c-7.4,0-14.3,2.6-19.5,7.4-5.2,4.8-8.1,11.1-8.1,17.8s2.9,13.1,8.1,17.8l33.9,29.1c3.8,3.5,10,3.5,13.8,0l33.6-28.9c5.7-5.2,8.7-12.1,8.4-19.2-.3-7.1-3.9-13.6-10.1-18.3-5-3.8-11.1-5.8-17.6-5.8s-11.7,1.7-16.4,4.9c-1.8,1.2-3.3,2.7-4.5,4.4l-.3,.4-.3-.4c-1.2-1.7-2.7-3.2-4.5-4.4-4.8-3.2-10.4-4.9-16.4-4.9Z"/>
        <path d="M95.4,49.4l-33.6,28.9c-3.9,3.6-10.3,3.6-14.3,0L13.7,49.2C2.8,39.2,2.8,23,13.7,13c5.3-4.8,12.3-7.5,19.8-7.5s11.8,1.8,16.6,5,3.4,2.8,4.6,4.5h0s0,0,0,0c1.2-1.7,2.8-3.3,4.6-4.5,4.8-3.2,10.6-5,16.6-5s12.8,2.1,17.8,5.8c13.1,9.9,13.7,27.1,1.7,38.1Z"/>
        <path d="M54.7,82c-2.8,0-5.7-1-7.8-3L13,49.9c-5.5-5-8.5-11.7-8.5-18.8s3-13.8,8.5-18.8c5.5-5,12.7-7.8,20.5-7.8s12.2,1.8,17.2,5.2c1.5,1,2.9,2.3,4,3.7,1.2-1.4,2.5-2.7,4-3.7,5-3.4,10.9-5.2,17.2-5.2s13.2,2.1,18.4,6c6.5,4.9,10.3,11.8,10.6,19.3,.4,7.6-2.8,14.8-8.8,20.3,0,0,0,0,0,0l-33.6,28.9c-2.1,2-5,2.9-7.8,2.9ZM33.5,6.5c-7.2,0-14,2.6-19.1,7.2-5.1,4.6-7.9,10.8-7.9,17.4s2.8,12.7,7.9,17.4l33.8,29.1c3.6,3.3,9.4,3.3,12.9,0l33.6-28.9c5.6-5.1,8.5-11.8,8.2-18.7-.3-6.9-3.8-13.2-9.9-17.8-4.9-3.7-10.8-5.6-17.2-5.6s-11.4,1.7-16.1,4.8c-1.7,1.1-3.1,2.6-4.3,4.3-.2,.3-.5,.4-.8,.4-.3,0-.6-.2-.8-.4-1.2-1.7-2.6-3.1-4.3-4.3-4.7-3.2-10.2-4.8-16.1-4.8Zm61.9,42.9h0Z"/>
      </g>
      <g>
        <path d="M50.7,77.4c-2.7,0-5.4-.9-7.4-2.8L9.4,45.5C4.1,40.6,1.1,34,1.1,27.1S4.1,13.6,9.4,8.7C14.8,3.8,21.9,1.1,29.5,1.1s11.9,1.7,16.8,5.1c1.7,1.1,3.2,2.6,4.4,4.2,1.2-1.6,2.7-3,4.4-4.2,4.9-3.3,10.7-5.1,16.8-5.1s12.9,2,18,5.9c6.4,4.8,10.1,11.5,10.4,18.8,.3,7.4-2.7,14.4-8.6,19.8h0s-33.6,28.9-33.6,28.9c-2,1.9-4.7,2.8-7.4,2.8ZM29.5,1.9c-7.4,0-14.3,2.6-19.5,7.4C4.7,14,1.9,20.4,1.9,27.1s2.9,13.1,8.1,17.8l33.9,29.1c3.8,3.5,10,3.5,13.8,0l33.6-28.9c5.7-5.2,8.7-12.1,8.4-19.2-.3-7.1-3.9-13.6-10.1-18.3-5-3.8-11.1-5.8-17.6-5.8s-11.7,1.7-16.4,4.9c-1.8,1.2-3.3,2.7-4.5,4.4l-.3,.4-.3-.4c-1.2-1.7-2.7-3.2-4.5-4.4-4.8-3.2-10.4-4.9-16.4-4.9Z"/>
        <g>
          <path d="M91.4,45.4l-33.6,28.9c-3.9,3.6-10.3,3.6-14.3,0L9.7,45.2C-1.2,35.2-1.2,19,9.7,9,15,4.2,22,1.5,29.5,1.5s11.8,1.8,16.6,5,3.4,2.8,4.6,4.5h0s0,0,0,0c1.2-1.7,2.8-3.3,4.6-4.5,4.8-3.2,10.6-5,16.6-5s12.8,2.1,17.8,5.8c13.1,9.9,13.7,27.1,1.7,38.1Z" style="fill: #f0515f;"/>
          <path d="M50.7,78.5c-3,0-5.9-1-8.2-3.1L8.7,46.3C3.1,41.2,0,34.3,0,27.1S3.1,13,8.7,7.9C14.2,2.8,21.6,0,29.5,0s12.4,1.8,17.5,5.2c1.4,.9,2.7,2.1,3.7,3.3,1.1-1.3,2.3-2.4,3.7-3.3,5.1-3.4,11.1-5.3,17.5-5.3s13.4,2.1,18.7,6.1c6.6,5,10.5,12,10.8,19.7,.4,7.7-2.8,15.1-9,20.7h0s-33.6,28.9-33.6,28.9c-2.2,2-5.2,3.1-8.1,3.1ZM29.5,3c-7.1,0-13.8,2.5-18.8,7.1C5.7,14.6,3,20.7,3,27.1s2.7,12.4,7.7,17l33.8,29.1c3.4,3.1,8.9,3.1,12.3,0l33.6-28.9c5.5-5,8.3-11.5,8-18.3-.3-6.8-3.7-13-9.7-17.4-4.8-3.6-10.6-5.5-16.9-5.5s-11.2,1.6-15.8,4.7c-1.6,1.1-3,2.5-4.2,4.1l-1.2,1.8-1.2-1.8c-1.1-1.6-2.6-3-4.2-4.1-4.6-3.1-10-4.7-15.8-4.7Z"/>
        </g>
        <path d="M50.7,78c-2.8,0-5.7-1-7.8-3L9,45.9C3.5,40.9,.5,34.2,.5,27.1S3.5,13.3,9,8.3C14.5,3.3,21.8,.5,29.5,.5s12.2,1.8,17.2,5.2c1.5,1,2.9,2.3,4,3.7,1.2-1.4,2.5-2.7,4-3.7,5-3.4,10.9-5.2,17.2-5.2s13.2,2.1,18.4,6c6.5,4.9,10.3,11.8,10.6,19.3,.4,7.6-2.8,14.8-8.8,20.3,0,0,0,0,0,0l-33.6,28.9c-2.1,2-5,2.9-7.8,2.9ZM29.5,2.5c-7.2,0-14,2.6-19.1,7.2C5.3,14.4,2.5,20.5,2.5,27.1s2.8,12.7,7.9,17.4l33.8,29.1c3.6,3.3,9.4,3.3,12.9,0l33.6-28.9c5.6-5.1,8.5-11.8,8.2-18.7-.3-6.9-3.8-13.2-9.9-17.8-4.9-3.7-10.8-5.6-17.2-5.6s-11.4,1.7-16.1,4.8c-1.7,1.1-3.1,2.6-4.3,4.3-.2,.3-.5,.4-.8,.4-.4,0-.6-.2-.8-.4-1.2-1.7-2.6-3.1-4.3-4.3-4.7-3.2-10.2-4.8-16.1-4.8Zm61.9,42.9h0Z"/>
      </g>
      <g>
        <g>
          <g>
            <g>
              <ellipse cx="59.2" cy="19.5" rx="8.5" ry="8.4" style="fill: #fff;"/>
              <path d="M59.2,28.9c-5.2,0-9.5-4.2-9.5-9.4s4.2-9.4,9.5-9.4,9.5,4.2,9.5,9.4-4.2,9.4-9.5,9.4Zm0-16.8c-4.1,0-7.5,3.3-7.5,7.4s3.3,7.4,7.5,7.4,7.5-3.3,7.5-7.4-3.3-7.4-7.5-7.4Z"/>
            </g>
            <g>
              <path d="M62.4,15.6s0,0,0,0c-.7,0-1.2,.8-.7,1.4s.7,1.2,.7,2c0,1.4-1.2,2.5-2.6,2.6s-1.5-.2-2-.7-1.4,0-1.4,.7,0,0,0,0c.2,2.8,2.6,4.9,5.4,5,3.2,0,5.8-2.5,5.7-5.7s-2.3-5.1-5.1-5.3Z"/>
              <path d="M61.9,27.1c0,0-.1,0-.2,0-3.1,0-5.7-2.5-5.9-5.5,0-.6,.3-1.2,.8-1.4,.5-.3,1.1-.2,1.6,.2,.4,.4,1,.6,1.6,.6,1.1,0,2-1,2.1-2.1,0-.6-.2-1.1-.6-1.6-.4-.4-.5-1-.2-1.5,.2-.5,.8-.8,1.3-.8,0,0,0,0,0,0,3,.3,5.5,2.8,5.6,5.8,0,1.7-.6,3.3-1.8,4.4-1.2,1.2-2.7,1.8-4.3,1.8Zm-4.7-6c0,0-.1,0-.1,0,0,0-.2,0-.1,.2,.2,2.5,2.3,4.5,4.8,4.6,1.4,0,2.7-.5,3.7-1.5,1-1,1.5-2.3,1.4-3.6,0-2.5-2.1-4.6-4.6-4.8,0,0,0,0,0,0v-.6c0,0,0,.6,0,.6-.2,0-.2,0-.3,.1,0,0,0,.2,0,.3,.6,.6,.9,1.5,.9,2.4,0,1.7-1.5,3-3.2,3.1-.9,0-1.7-.3-2.4-.8,0,0-.1,0-.2,0Z"/>
            </g>
          </g>
          <g>
            <g>
              <ellipse cx="41.8" cy="20" rx="8.5" ry="8.4" style="fill: #fff;"/>
              <path d="M41.8,29.4c-5.2,0-9.5-4.2-9.5-9.4s4.2-9.4,9.5-9.4,9.5,4.2,9.5,9.4-4.2,9.4-9.5,9.4Zm0-16.8c-4.1,0-7.5,3.3-7.5,7.4s3.3,7.4,7.5,7.4,7.5-3.3,7.5-7.4-3.3-7.4-7.5-7.4Z"/>
            </g>
            <g>
              <path d="M45,16.1s0,0,0,0c-.7,0-1.2,.8-.7,1.4s.7,1.2,.7,2c0,1.4-1.2,2.5-2.6,2.6s-1.5-.2-2-.7-1.4,0-1.4,.7,0,0,0,0c.2,2.8,2.6,4.9,5.4,5,3.2,0,5.8-2.5,5.7-5.7s-2.3-5.1-5.1-5.3Z"/>
              <path d="M44.5,27.7c0,0-.1,0-.2,0-3.1,0-5.7-2.5-5.9-5.5,0-.6,.3-1.2,.8-1.4,.5-.3,1.1-.2,1.6,.2,.4,.4,1,.6,1.6,.6,1.1,0,2-1,2.1-2.1,0-.6-.2-1.1-.6-1.6-.4-.4-.5-1-.2-1.5,.2-.5,.8-.8,1.3-.8,0,0,0,0,0,0,3,.3,5.5,2.8,5.6,5.8,0,1.7-.6,3.3-1.8,4.4-1.2,1.2-2.7,1.8-4.3,1.8Zm-4.7-6c0,0-.1,0-.1,0,0,0-.2,0-.1,.2,.2,2.5,2.3,4.5,4.8,4.6,1.4,0,2.7-.5,3.7-1.5,1-1,1.5-2.3,1.4-3.6,0-2.5-2.1-4.6-4.6-4.8,0,0,0,0,0,0v-.6c0,0,0,.6,0,.6-.2,0-.2,0-.3,.1,0,0,0,.2,0,.3,.6,.6,.9,1.5,.9,2.4,0,1.7-1.5,3-3.2,3.1-.9,0-1.7-.3-2.4-.8,0,0-.1,0-.2,0Z"/>
            </g>
          </g>
        </g>
        <g>
          <path d="M60.9,42.6h0c-2.2,.9-4.5-.2-5.5-2.3-1.2-2.5-1.9-4.8-1.9-4.8,0,0,2.9,.6,5.1,0,1.8-.4,3.2-1.6,3.5-1,.4,.8,.8,1.4,1.1,2.6,.6,2.2-.2,4.6-2.3,5.4Z" style="fill: red;"/>
          <path d="M59.4,43.9c-2,0-3.9-1.2-4.8-3.1-1.2-2.5-1.9-4.9-1.9-5,0-.3,0-.7,.2-1,.2-.3,.6-.4,.9-.3,0,0,2.7,.5,4.7,0,.7-.2,1.3-.4,1.8-.7,.9-.4,2.2-1,2.8,.2l.2,.3c.4,.7,.7,1.3,1,2.5,.8,2.9-.4,5.6-2.9,6.6-.6,.3-1.3,.4-1.9,.4Zm-4.4-7.2c.3,.9,.8,2,1.3,3.2,.8,1.7,2.6,2.4,4.2,1.8h0c1.8-.7,2.2-2.7,1.7-4.2-.2-.9-.5-1.4-.8-1.9-.1,0-.3,.1-.5,.2-.6,.3-1.3,.6-2.2,.8-1.3,.3-2.8,.3-3.9,.2Zm6.3-1.7s0,0,0,0h0Z"/>
        </g>
        <g>
          <path d="M58.8,35.7s.4,.4,1,3" style="fill: #ffe9d2;"/>
          <path d="M59.7,39.7c-.5,0-.9-.3-1-.8-.4-2-.7-2.5-.8-2.6-.3-.4-.2-1,.2-1.3,.4-.4,1-.3,1.4,0,.4,.5,.9,2.1,1.2,3.4,.1,.5-.2,1.1-.8,1.2,0,0-.1,0-.2,0Z"/>
        </g>
        <g>
          <ellipse cx="50.5" cy="28.9" rx="6.1" ry="2.9" style="fill: #ffdc20;"/>
          <path d="M50.5,32.8c-4.1,0-7.1-1.7-7.1-3.9s3.1-3.9,7.1-3.9,7.1,1.7,7.1,3.9-3.1,3.9-7.1,3.9Zm0-5.9c-3.1,0-5.1,1.2-5.1,1.9s2.1,1.9,5.1,1.9,5.1-1.2,5.1-1.9-2.1-1.9-5.1-1.9Z"/>
        </g>
        <path d="M53.2,9.7c-.3,0-.5,0-.7-.3-.4-.4-.4-1,0-1.4,1.8-1.8,4.2-2.7,6.7-2.7s4.7,.9,6.4,2.5c.4,.4,.4,1,0,1.4-.4,.4-1,.4-1.4,0-1.4-1.3-3.2-2-5.1-2s-3.9,.8-5.3,2.2c-.2,.2-.4,.3-.7,.3Z"/>
        <g>
          <path d="M44.6,36.9c-4.6,0-8.3-2.6-8.3-6s.4-1,1-1,1,.4,1,1c0,2.1,2.9,4,6.3,4s4-.7,5.2-1.8c.4-.4,1-.4,1.4,0,.4,.4,.4,1,0,1.4-1.6,1.5-4,2.3-6.6,2.3Z"/>
          <path d="M56.4,36.9c-2.6,0-5-.8-6.6-2.3-.4-.4-.4-1,0-1.4,.4-.4,1-.4,1.4,0,1.2,1.1,3.1,1.8,5.2,1.8,3.4,0,6.3-1.8,6.3-4s.4-1,1-1,1,.4,1,1c0,3.3-3.6,6-8.3,6Z"/>
        </g>
        <path d="M35.9,9.7c-.3,0-.5,0-.7-.3-.4-.4-.4-1,0-1.4,1.8-1.8,4.2-2.7,6.7-2.7s4.7,.9,6.4,2.5c.4,.4,.4,1,0,1.4-.4,.4-1,.4-1.4,0-1.4-1.3-3.2-2-5.1-2s-3.9,.8-5.3,2.2c-.2,.2-.4,.3-.7,.3Z"/>
      </g>
      <g>
        <g>
          <ellipse cx="17.5" cy="25.6" rx="1.9" ry="1.6" style="fill: #eac4c8;"/>
          <ellipse cx="17.5" cy="33" rx="1.9" ry="1.6" style="fill: #eac4c8;"/>
          <ellipse cx="12.2" cy="29.2" rx="1.9" ry="1.6" style="fill: #eac4c8;"/>
          <ellipse cx="22.3" cy="29.2" rx="1.9" ry="1.6" style="fill: #eac4c8;"/>
        </g>
        <g>
          <ellipse cx="84" cy="25.6" rx="1.9" ry="1.6" style="fill: #eac4c8;"/>
          <ellipse cx="84" cy="33" rx="1.9" ry="1.6" style="fill: #eac4c8;"/>
          <ellipse cx="78.7" cy="29.2" rx="1.9" ry="1.6" style="fill: #eac4c8;"/>
          <ellipse cx="88.9" cy="29.2" rx="1.9" ry="1.6" style="fill: #eac4c8;"/>
        </g>
      </g>
    </g>
  </g>
</svg>