<?xml version="1.0" encoding="UTF-8"?>
<svg id="Layer_2" data-name="Layer 2" xmlns="http://www.w3.org/2000/svg" viewBox="0 0 1101.5 2039.4">
  <g id="BG">
    <g>
      <path d="M105.9,631.7c-15.8,4.4-19.3,7.9-23.7,23.7-4.4-15.8-7.9-19.3-23.7-23.7,15.8-4.4,19.3-7.9,23.7-23.7,4.4,15.8,7.9,19.3,23.7,23.7Z" style="fill: #f9eb21;"/>
      <path d="M787.9,1739.7c-15.8,4.4-19.3,7.9-23.7,23.7-4.4-15.8-7.9-19.3-23.7-23.7,15.8-4.4,19.3-7.9,23.7-23.7,4.4,15.8,7.9,19.3,23.7,23.7Z" style="fill: #f9eb21;"/>
      <path d="M1101.5,1523.9c-13.9,3.8-17,7-20.9,20.9-3.8-13.9-7-17-20.9-20.9,13.9-3.8,17-7,20.9-20.9,3.8,13.9,7,17,20.9,20.9Z" style="fill: #f9eb21;"/>
      <path d="M1052.9,208.9c-11.9,3.3-14.6,5.9-17.8,17.8-3.3-11.9-5.9-14.6-17.8-17.8,11.9-3.3,14.6-5.9,17.8-17.8,3.3,11.9,5.9,14.6,17.8,17.8Z" style="fill: #f9eb21;"/>
      <path d="M1087.5,1162.9c-11.9,3.3-14.6,6-17.9,17.9-3.3-11.9-6-14.6-17.9-17.9,11.9-3.3,14.6-6,17.9-17.9,3.3,11.9,6,14.6,17.9,17.9Z" style="fill: #fff;"/>
      <path d="M67.5,1455.9c-11.9,3.3-14.6,6-17.9,17.9-3.3-11.9-6-14.6-17.9-17.9,11.9-3.3,14.6-6,17.9-17.9,3.3,11.9,6,14.6,17.9,17.9Z" style="fill: #fff;"/>
      <path d="M1061.9,1942.9c-14.1,3.9-17.3,7.1-21.2,21.2-3.9-14.1-7.1-17.3-21.2-21.2,14.1-3.9,17.3-7.1,21.2-21.2,3.9,14.1,7.1,17.3,21.2,21.2Z" style="fill: #fff;"/>
      <path d="M33.9,778.9c-10.1,2.8-12.4,5.1-15.2,15.2-2.8-10.1-5.1-12.4-15.2-15.2,10.1-2.8,12.4-5.1,15.2-15.2,2.8,10.1,5.1,12.4,15.2,15.2Z" style="fill: #fff;"/>
      <path d="M857.9,1560.9c-10.1,2.8-12.4,5.1-15.2,15.2-2.8-10.1-5.1-12.4-15.2-15.2,10.1-2.8,12.4-5.1,15.2-15.2,2.8,10.1,5.1,12.4,15.2,15.2Z" style="fill: #fff;"/>
      <text/>
      <path d="M637.9,1640.9c-8.8,2.4-10.8,4.4-13.2,13.2-2.4-8.8-4.4-10.8-13.2-13.2,8.8-2.4,10.8-4.4,13.2-13.2,2.4,8.8,4.4,10.8,13.2,13.2Z" style="fill: #fff;"/>
      <path d="M1076.9,2013.9c-8.8,2.4-10.8,4.4-13.2,13.2-2.4-8.8-4.4-10.8-13.2-13.2,8.8-2.4,10.8-4.4,13.2-13.2,2.4,8.8,4.4,10.8,13.2,13.2Z" style="fill: #fff;"/>
      <path d="M1079.9,935.9c-10.8,3-13.2,5.4-16.2,16.2-3-10.8-5.4-13.2-16.2-16.2,10.8-3,13.2-5.4,16.2-16.2,3,10.8,5.4,13.2,16.2,16.2Z" style="fill: #fff;"/>
      <path d="M529.9,1549.9c-10.8,3-13.2,5.4-16.2,16.2-3-10.8-5.4-13.2-16.2-16.2,10.8-3,13.2-5.4,16.2-16.2,3,10.8,5.4,13.2,16.2,16.2Z" style="fill: #fff;"/>
      <path d="M45.9,1040.9c-8.8,2.4-10.8,4.4-13.2,13.2-2.4-8.8-4.4-10.8-13.2-13.2,8.8-2.4,10.8-4.4,13.2-13.2,2.4,8.8,4.4,10.8,13.2,13.2Z" style="fill: #fff;"/>
      <path d="M35.9,1752.9c-11.5,3.2-14,5.7-17.2,17.2-3.2-11.5-5.7-14-17.2-17.2,11.5-3.2,14-5.7,17.2-17.2,3.2,11.5,5.7,14,17.2,17.2Z" style="fill: #fff;"/>
      <path d="M1063.5,541.9c-11.2,3.1-13.7,5.6-16.8,16.8-3.1-11.2-5.6-13.7-16.8-16.8,11.2-3.1,13.7-5.6,16.8-16.8,3.1,11.2,5.6,13.7,16.8,16.8Z" style="fill: #fff;"/>
      <path d="M1079.5,309.1c-9.8,2.7-12,4.9-14.7,14.7-2.7-9.8-4.9-12-14.7-14.7,9.8-2.7,12-4.9,14.7-14.7,2.7,9.8,4.9,12,14.7,14.7Z" style="fill: #fff;"/>
      <path d="M739.5,227.1c-9.8,2.7-12,4.9-14.7,14.7-2.7-9.8-4.9-12-14.7-14.7,9.8-2.7,12-4.9,14.7-14.7,2.7,9.8,4.9,12,14.7,14.7Z" style="fill: #fff;"/>
      <path d="M66.5,1897.9c-6.5,1.8-8,3.3-9.8,9.8-1.8-6.5-3.3-8-9.8-9.8,6.5-1.8,8-3.3,9.8-9.8,1.8,6.5,3.3,8,9.8,9.8Z" style="fill: #fff;"/>
      <path d="M892.5,51.9c-10.6,2.9-12.9,5.3-15.9,15.9-2.9-10.6-5.3-12.9-15.9-15.9,10.6-2.9,12.9-5.3,15.9-15.9,2.9,10.6,5.3,12.9,15.9,15.9Z" style="fill: #fff;"/>
      <path d="M316.5,15.9c-10.6,2.9-12.9,5.3-15.9,15.9-2.9-10.6-5.3-12.9-15.9-15.9,10.6-2.9,12.9-5.3,15.9-15.9,2.9,10.6,5.3,12.9,15.9,15.9Z" style="fill: #fff;"/>
      <path d="M68.5,181.2c-13,3.6-15.9,6.5-19.5,19.5-3.6-13-6.5-15.9-19.5-19.5,13-3.6,15.9-6.5,19.5-19.5,3.6,13,6.5,15.9,19.5,19.5Z" style="fill: #fff;"/>
      <path d="M131.9,41.8c-8.7,2.4-10.6,4.3-13,12.9-2.4-8.6-4.3-10.6-13-12.9,8.7-2.4,10.6-4.3,13-12.9,2.4,8.6,4.3,10.6,13,12.9Z" style="fill: #fff;"/>
      <path d="M1068.4,1663.3c-11.6,3.2-14.2,5.8-17.5,17.4-3.2-11.6-5.8-14.2-17.5-17.4,11.6-3.2,14.2-5.8,17.5-17.4,3.2,11.6,5.8,14.2,17.5,17.4Z" style="fill: #fff;"/>
      <path d="M935,1681.3c-7.4,2-9,3.7-11.1,11-2-7.4-3.7-9-11.1-11,7.4-2,9-3.7,11.1-11,2,7.4,3.7,9,11.1,11Z" style="fill: #fff;"/>
      <path d="M1002.5,720.9c-7.9,2.2-9.7,4-11.9,11.9-2.2-7.9-4-9.7-11.9-11.9,7.9-2.2,9.7-4,11.9-11.9,2.2,7.9,4,9.7,11.9,11.9Z" style="fill: #f9eb21;"/>
      <path d="M1082.5,1790.9c-7.9,2.2-9.7,4-11.9,11.9-2.2-7.9-4-9.7-11.9-11.9,7.9-2.2,9.7-4,11.9-11.9,2.2,7.9,4,9.7,11.9,11.9Z" style="fill: #f9eb21;"/>
      <path d="M75.5,1356.9c-7.9,2.2-9.7,4-11.9,11.9-2.2-7.9-4-9.7-11.9-11.9,7.9-2.2,9.7-4,11.9-11.9,2.2,7.9,4,9.7,11.9,11.9Z" style="fill: #f9eb21;"/>
      <path d="M549.5,1764.9c-7.9,2.2-9.7,4-11.9,11.9-2.2-7.9-4-9.7-11.9-11.9,7.9-2.2,9.7-4,11.9-11.9,2.2,7.9,4,9.7,11.9,11.9Z" style="fill: #f9eb21;"/>
      <path d="M31.9,533.8c-10.6,2.9-13,5.3-15.9,15.9-2.9-10.6-5.3-13-15.9-15.9,10.6-2.9,13-5.3,15.9-15.9,2.9,10.6,5.3,13,15.9,15.9Z" style="fill: #fff;"/>
      <path d="M82.9,375.8c-10,2.7-12.2,5-14.9,14.9-2.7-10-5-12.2-14.9-14.9,10-2.7,12.2-5,14.9-14.9,2.7,10,5,12.2,14.9,14.9Z" style="fill: #fff;"/>
      <path d="M115.9,1178.8c-11.3,3.1-13.8,5.6-16.9,16.9-3.1-11.3-5.6-13.8-16.9-16.9,11.3-3.1,13.8-5.6,16.9-16.9,3.1,11.3,5.6,13.8,16.9,16.9Z" style="fill: #fff;"/>
      <path d="M65.9,2020.1c-12.8,3.5-15.7,6.4-19.3,19.3-3.5-12.8-6.4-15.7-19.3-19.3,12.8-3.5,15.7-6.4,19.3-19.3,3.5,12.8,6.4,15.7,19.3,19.3Z" style="fill: #fff;"/>
      <path d="M93.5,887.9c-8.6,2.4-10.5,4.3-12.9,12.9-2.4-8.6-4.3-10.5-12.9-12.9,8.6-2.4,10.5-4.3,12.9-12.9,2.4,8.6,4.3,10.5,12.9,12.9Z" style="fill: #fff;"/>
    </g>
  </g>
</svg>