<?xml version="1.0" encoding="UTF-8"?>
<svg id="Layer_2" data-name="Layer 2" xmlns="http://www.w3.org/2000/svg" viewBox="0 0 391.743000000000393 250.570153124999706">
  <g id="TEXT">
    <g>
      <g>
        <path d="M9.7734375,151.73828125h3.7607421875v4.3173828125h8.1484375v3.62109375h-7.3125c1.005859375,1.7646484375,2.150390625,3.2275390625,3.435546875,4.3876953125,1.2841796875,1.1611328125,2.9169921875,2.1982421875,4.8984375,3.111328125-.7431640625,1.20703125-1.478515625,2.4599609375-2.2060546875,3.7607421875-3.064453125-1.841796875-5.3857421875-4.0009765625-6.9638671875-6.4775390625v9.1005859375h-3.7607421875v-9.123046875c-1.517578125,2.4912109375-3.916015625,4.7744140625-7.1962890625,6.84765625-.8828125-1.6396484375-1.5712890625-2.9013671875-2.06640625-3.7841796875,1.9345703125-1.005859375,3.5595703125-2.1123046875,4.875-3.3193359375,1.361328125-1.25390625,2.5458984375-2.7548828125,3.5517578125-4.50390625H1.671875v-3.62109375H9.7734375v-4.3173828125Z"/>
        <path d="M44.38671875,168.0341796875c-.7900390625,.5263671875-1.5791015625,1.044921875-2.3681640625,1.5556640625,1.0830078125,.3251953125,2.3447265625,.595703125,3.7841796875,.8125-.650390625,.974609375-1.25390625,1.9267578125-1.810546875,2.85546875-3.328125-.681640625-5.8740234375-1.7412109375-7.6376953125-3.1806640625-.078125,.7431640625-.1474609375,1.5556640625-.208984375,2.4375-.5888671875,.0771484375-2.228515625,.3095703125-4.921875,.6962890625-.990234375,.154296875-1.7177734375,.3251953125-2.181640625,.5107421875l-1.3701171875-1.857421875c.572265625-.35546875,.859375-.7890625,.859375-1.2998046875v-.34765625c-.6962890625,.2314453125-1.896484375,.580078125-3.5986328125,1.0439453125-.3564453125-.8505859375-.7587890625-1.755859375-1.20703125-2.7158203125,2.630859375-.4326171875,4.84375-.974609375,6.6396484375-1.625h-5.966796875v-2.576171875h9.193359375c-.0927734375-.263671875-.193359375-.5263671875-.3017578125-.7900390625l3.5048828125-.37109375c.1240234375,.38671875,.248046875,.7744140625,.3720703125,1.1611328125h8.2177734375v2.576171875h-2.4375l1.439453125,1.1142578125Zm-14.8115234375-16.2958984375h3.0185546875v1.392578125h4.0625v2.1357421875h-4.0625v.7197265625h4.689453125v2.181640625h-4.689453125v.7431640625h4.45703125v2.228515625c0,.666015625-.1318359375,1.1455078125-.39453125,1.439453125-.279296875,.3095703125-.7822265625,.4873046875-1.5087890625,.5341796875-.7431640625,.0458984375-1.4248046875,.0693359375-2.04296875,.0693359375-.0927734375-.41796875-.216796875-.9208984375-.3720703125-1.5087890625,.3251953125,.015625,.681640625,.0234375,1.068359375,.0234375,.3095703125,0,.4638671875-.1474609375,.4638671875-.44140625v-.3017578125h-1.6708984375v2.80859375h-3.0185546875v-2.80859375h-1.578125v2.228515625h-2.7861328125v-4.271484375h4.3642578125v-.7431640625h-5.3857421875v-2.181640625h1.6025390625c-.248046875-.169921875-.7509765625-.4873046875-1.509765625-.9521484375,.9443359375-1.0361328125,1.5478515625-2.0732421875,1.8115234375-3.1103515625l2.6923828125,.2314453125c-.1083984375,.3564453125-.224609375,.681640625-.34765625,.9755859375h1.13671875v-1.392578125Zm-2.205078125,3.5283203125c-.169921875,.2626953125-.3408203125,.5029296875-.5107421875,.7197265625h2.7158203125v-.7197265625h-2.205078125Zm10.1220703125,11.74609375c.525390625,.49609375,1.0673828125,.9287109375,1.625,1.2998046875,.6337890625-.4169921875,1.2763671875-.8818359375,1.9267578125-1.392578125h-5.33984375c-1.392578125,.8515625-2.669921875,1.5322265625-3.830078125,2.04296875v1.416015625c1.20703125-.201171875,2.576171875-.41015625,4.1083984375-.626953125-.556640625-.5107421875-1.0439453125-1.0517578125-1.4619140625-1.625l2.9716796875-1.1142578125Zm.34765625-14.16015625h2.7392578125v6.9404296875h-2.7392578125v-6.9404296875Zm3.8076171875-1.1142578125h2.970703125v8.49609375c0,1.1298828125-.193359375,1.9345703125-.580078125,2.4140625-.40234375,.49609375-1.0908203125,.7666015625-2.06640625,.8125-1.021484375,.046875-2.01171875,.0703125-2.970703125,.0703125-.1865234375-1.021484375-.3876953125-1.9580078125-.603515625-2.8095703125,.6181640625,.03125,1.376953125,.046875,2.2744140625,.046875,.3408203125,0,.587890625-.0771484375,.7431640625-.232421875,.154296875-.154296875,.232421875-.41796875,.232421875-.7890625v-8.0087890625Z"/>
        <path d="M65.8603515625,168.962890625c-.1083984375,1.423828125-.49609375,2.453125-1.1611328125,3.087890625-.6650390625,.6181640625-1.7333984375,.958984375-3.203125,1.021484375-1.1455078125,.0458984375-2.646484375,.0849609375-4.50390625,.115234375-.1708984375-.8974609375-.45703125-2.1201171875-.8583984375-3.6669921875,1.4228515625,.0458984375,2.623046875,.0693359375,3.59765625,.0693359375,.8359375,0,1.416015625-.1474609375,1.7412109375-.44140625s.5263671875-.8583984375,.603515625-1.6943359375c.0927734375-1.068359375,.162109375-2.228515625,.208984375-3.482421875h-6.4072265625c-.2783203125,2.04296875-.8740234375,3.7998046875-1.787109375,5.26953125-.8984375,1.455078125-2.291015625,2.9560546875-4.1787109375,4.50390625-1.3310546875-1.3310546875-2.306640625-2.283203125-2.9248046875-2.85546875,1.8876953125-1.4697265625,3.1953125-2.8701171875,3.9228515625-4.2021484375,.7275390625-1.314453125,1.16015625-3.0478515625,1.2998046875-5.19921875,.046875-.697265625,.1005859375-1.865234375,.1630859375-3.505859375h-4.8291015625v-3.435546875h8.6591796875c-.2939453125-1.005859375-.5498046875-1.849609375-.7666015625-2.5302734375l4.48046875-.232421875c.185546875,.634765625,.42578125,1.5556640625,.7197265625,2.7626953125h7.8935546875v3.435546875h-12.234375c-.03125,.8671875-.0693359375,1.7255859375-.1162109375,2.5771484375h10.14453125c-.138671875,3.5908203125-.2939453125,6.3916015625-.4638671875,8.4033203125Z"/>
        <path d="M70.45703125,152.8291015625c3.064453125-.154296875,5.6181640625-.3251953125,7.6611328125-.5107421875l.4873046875,3.1572265625c-.8046875,.0927734375-1.6103515625,.162109375-2.4140625,.208984375v2.228515625h2.181640625v3.3427734375h-2.181640625v1.578125c1.021484375,.5888671875,1.98828125,1.1689453125,2.9013671875,1.7412109375l-1.439453125,2.9248046875-1.4619140625-1.2294921875v7.3125h-3.296875v-6.2685546875c-.572265625,1.1142578125-1.1142578125,2.0048828125-1.625,2.669921875-.3408203125-1.25390625-.7119140625-2.5068359375-1.1142578125-3.7607421875,1.0986328125-1.4697265625,2.00390625-3.1259765625,2.7158203125-4.9677734375h-2.4375v-3.3427734375h2.4609375v-2.01953125c-.4794921875,.03125-1.18359375,.0615234375-2.1123046875,.0927734375l-.3251953125-3.1572265625Zm8.49609375,12.9306640625h4.4345703125v-1.486328125c-1.640625,.046875-3.1572265625,.0703125-4.5498046875,.0703125l-.1630859375-2.85546875c4.45703125-.0625,8.8056640625-.201171875,13.046875-.41796875l.138671875,2.83203125c-.4951171875,.0458984375-2.158203125,.1318359375-4.9912109375,.2548828125v1.6025390625h4.4580078125v2.80859375h-4.4580078125v1.4853515625h5.33984375v2.85546875h-14.392578125v-2.85546875h5.5712890625v-1.4853515625h-4.4345703125v-2.80859375Zm12.1875-5.548828125h-11.931640625v-7.544921875h11.931640625v7.544921875Zm-8.5419921875-4.7119140625v1.9267578125h5.1533203125v-1.9267578125h-5.1533203125Z"/>
        <path d="M94.11328125,164.4130859375v-3.3203125h10.4228515625v3.3203125h-3.3427734375v3.9462890625c1.361328125-.1083984375,2.7861328125-.2470703125,4.271484375-.41796875-.046875,1.1767578125-.046875,2.306640625,0,3.3896484375-4.53515625,.4482421875-8.388671875,.8662109375-11.560546875,1.2529296875l-.5810546875-3.5048828125c1.423828125-.1240234375,2.84765625-.2470703125,4.271484375-.37109375v-4.294921875h-3.4814453125Zm-.46484375-8.6123046875h11.3291015625c-.1396484375-2.5537109375-.208984375-3.923828125-.208984375-4.109375h3.6904296875c.03125,.9443359375,.0849609375,2.3134765625,.1630859375,4.109375h2.83203125c-.8818359375-1.052734375-1.5556640625-1.833984375-2.01953125-2.3447265625l2.4609375-1.6953125c.9287109375,.9140625,1.779296875,1.7880859375,2.5537109375,2.6240234375l-2.06640625,1.416015625h2.6923828125v3.3427734375h-6.267578125c.2939453125,4.1630859375,.8818359375,7.3046875,1.7646484375,9.4248046875,.2001953125,.4794921875,.4404296875,.7197265625,.7197265625,.7197265625,.2470703125,0,.4326171875-.2705078125,.556640625-.8125,.232421875-1.005859375,.46484375-2.228515625,.6962890625-3.66796875,.8515625,.44921875,1.849609375,.9443359375,2.9951171875,1.4853515625-.3095703125,1.7958984375-.666015625,3.3046875-1.068359375,4.52734375-.2939453125,.8974609375-.7041015625,1.546875-1.23046875,1.9501953125-.5419921875,.4169921875-1.2607421875,.6259765625-2.158203125,.6259765625-.8984375,0-1.6875-.33984375-2.3681640625-1.021484375-.7275390625-.7275390625-1.3544921875-1.8798828125-1.880859375-3.4580078125-.7890625-2.3525390625-1.337890625-5.6103515625-1.6474609375-9.7734375h-11.5380859375v-3.3427734375Z"/>
        <path d="M131.953125,156.404296875h-9.7734375v4.8046875h8.51953125v3.66796875h-8.51953125v7.962890625h-4.5498046875v-20.150390625h14.3232421875v3.71484375Z"/>
        <path d="M133.6240234375,167.8486328125l4.50390625-.9521484375c.38671875,1.9501953125,1.5166015625,2.92578125,3.388671875,2.92578125,.990234375,0,1.7333984375-.263671875,2.228515625-.7900390625,.46484375-.4794921875,.697265625-1.16015625,.697265625-2.04296875,0-1.8720703125-1.455078125-2.80859375-4.3642578125-2.80859375h-1.833984375v-3.3662109375h1.763671875c2.615234375,0,3.923828125-.8818359375,3.923828125-2.646484375,0-.7734375-.1943359375-1.376953125-.5810546875-1.810546875-.4326171875-.4794921875-1.0830078125-.7197265625-1.94921875-.7197265625-.7744140625,0-1.455078125,.271484375-2.04296875,.8125-.603515625,.5576171875-.9599609375,1.26171875-1.068359375,2.1123046875l-4.294921875-.8349609375c.3720703125-1.6875,1.22265625-3.0029296875,2.5537109375-3.947265625,1.3466796875-.958984375,3.095703125-1.4384765625,5.2470703125-1.4384765625,2.150390625,0,3.837890625,.548828125,5.060546875,1.6474609375,1.0673828125,.9599609375,1.6015625,2.1357421875,1.6015625,3.529296875,0,1.2685546875-.3095703125,2.2744140625-.9287109375,3.017578125-.6650390625,.8046875-1.7490234375,1.392578125-3.25,1.7646484375v.0458984375c1.423828125,.1708984375,2.5771484375,.7509765625,3.458984375,1.7412109375,.8203125,.9130859375,1.23046875,1.9580078125,1.23046875,3.1337890625,0,1.6875-.619140625,3.064453125-1.857421875,4.1328125-1.361328125,1.17578125-3.3037109375,1.763671875-5.826171875,1.763671875-2.10546875,.03125-3.7529296875-.3330078125-4.9453125-1.0908203125-1.20703125-.7744140625-2.1123046875-2.1669921875-2.7158203125-4.1787109375Z"/>
        <path d="M150.7099609375,160.2109375h5.3857421875v-.6494140625h-3.66796875v-1.5791015625h3.66796875v-.6494140625h-3.1806640625v-1.021484375h-2.0654296875v-3.5751953125h8.333984375c-.216796875-.634765625-.3408203125-.990234375-.3720703125-1.068359375l4.4111328125-.2314453125c.1083984375,.4326171875,.208984375,.8662109375,.3017578125,1.2998046875h8.2646484375v3.5751953125h-2.06640625v1.021484375h-3.2734375v.6494140625h3.7607421875v1.5791015625h-3.7607421875v.6494140625h5.4560546875v1.7646484375h-4.318359375c1.392578125,.619140625,2.9951171875,1.1064453125,4.8056640625,1.4619140625-.3720703125,.712890625-.7744140625,1.5634765625-1.20703125,2.5537109375-.48046875-.138671875-1.123046875-.35546875-1.9267578125-.6494140625v4.9912109375h-15.90234375v-4.9453125c-.5419921875,.248046875-1.21484375,.5107421875-2.01953125,.7890625-.37109375-.8818359375-.7587890625-1.740234375-1.1611328125-2.576171875,1.888671875-.43359375,3.505859375-.9755859375,4.8525390625-1.625h-4.318359375v-1.7646484375Zm8.310546875,10.19140625l1.1611328125,2.1123046875c-2.677734375,.35546875-5.541015625,.7734375-8.58984375,1.25390625-.38671875-.9287109375-.765625-1.7568359375-1.13671875-2.484375,3.4501953125-.3095703125,6.3056640625-.603515625,8.5654296875-.8818359375Zm3.9931640625-15.3212890625h3.435546875v.6494140625h1.857421875v-.951171875h-13.974609375v.951171875h1.763671875v-.6494140625h3.435546875v.6494140625h3.482421875v-.6494140625Zm-6.1748046875,9.2158203125v.650390625h8.9375v-.650390625h-8.9375Zm0,1.9267578125v.650390625h8.9375v-.650390625h-8.9375Zm0,1.9267578125v.650390625h8.9375v-.650390625h-8.9375Zm2.5068359375-6.1748046875c-.6494140625,.44921875-1.029296875,.7119140625-1.1376953125,.7890625h6.2451171875c-.0927734375-.0615234375-.44921875-.3251953125-1.068359375-.7890625h-4.0390625Zm.185546875-4.642578125v.6494140625h3.482421875v-.6494140625h-3.482421875Zm0,2.228515625v.6494140625h3.482421875v-.6494140625h-3.482421875Zm3.923828125,10.88671875c1.841796875,.1865234375,4.7431640625,.48828125,8.705078125,.90625l-.8818359375,2.34375c-2.3525390625-.32421875-5.26953125-.71875-8.751953125-1.18359375l.9287109375-2.06640625Z"/>
        <path d="M175.48046875,157.35546875h7.1962890625v-1.0439453125h-8.310546875v-2.7861328125h8.310546875v-1.833984375h3.7138671875v1.833984375h8.2880859375v2.7861328125h-8.2880859375v1.0439453125h7.197265625v9.8427734375h-7.197265625v1.068359375h9.1005859375v2.83203125h-9.1005859375v2.5068359375h-3.7138671875v-2.5068359375h-9.099609375v-2.83203125h9.099609375v-1.068359375h-7.1962890625v-9.8427734375Zm3.59765625,2.5078125v1.2763671875h3.5986328125v-1.2763671875h-3.5986328125Zm0,3.5283203125v1.2998046875h3.5986328125v-1.2998046875h-3.5986328125Zm10.9111328125-3.5283203125h-3.5986328125v1.2763671875h3.5986328125v-1.2763671875Zm-3.5986328125,4.828125h3.5986328125v-1.2998046875h-3.5986328125v1.2998046875Z"/>
        <path d="M204.2197265625,172.83984375h-6.5224609375v-20.150390625h6.220703125c3.69921875,0,6.4853515625,.8974609375,8.357421875,2.693359375,1.7646484375,1.6865234375,2.646484375,4.0625,2.646484375,7.126953125,0,3.65234375-.828125,6.283203125-2.4833984375,7.892578125-1.671875,1.625-4.4111328125,2.4375-8.21875,2.4375Zm-.39453125-16.435546875h-1.5546875v12.744140625h1.578125c4.1943359375,0,6.291015625-2.189453125,6.291015625-6.5693359375,0-1.8876953125-.5107421875-3.3662109375-1.5322265625-4.43359375-1.0986328125-1.1611328125-2.6923828125-1.7412109375-4.7822265625-1.7412109375Z"/>
        <path d="M221.724609375,172.83984375h-4.55078125v-20.150390625h4.55078125v20.150390625Z"/>
        <path d="M243.638671875,152.689453125l-7.9853515625,12.1181640625v8.0322265625h-4.5732421875v-7.962890625l-7.8701171875-12.1875h5.1767578125l4.0166015625,6.6630859375c.35546875,.572265625,.7431640625,1.23828125,1.16015625,1.99609375h.0234375c.3720703125-.6650390625,.7353515625-1.3154296875,1.0908203125-1.9501953125l3.73828125-6.708984375h5.22265625Z"/>
        <path d="M250.7890625,166.36328125h5.9892578125c.03125-.248046875,.0537109375-.5263671875,.0693359375-.8359375h-4.9677734375v-2.7158203125l-1.2998046875,2.7392578125c-.3408203125-.3251953125-.681640625-.658203125-1.021484375-.9990234375v9.0537109375h-3.203125v-8.0087890625c-.5263671875,1.3154296875-1.083984375,2.484375-1.671875,3.505859375-.1708984375-1.625-.37890625-3.3203125-.626953125-5.083984375,.9130859375-1.408203125,1.6640625-3.1181640625,2.251953125-5.130859375h-1.810546875v-3.203125h1.857421875v-3.9697265625h3.203125v3.9697265625h1.416015625v3.203125h-1.416015625v1.671875c.7734375,.572265625,1.5478515625,1.1455078125,2.3212890625,1.7177734375v-4.9912109375h13.3017578125v8.2412109375h-4.9912109375c-.015625,.2783203125-.03125,.556640625-.0458984375,.8359375h5.919921875v2.6923828125h-4.9677734375c2.2587890625,.7431640625,4.0390625,1.439453125,5.3388671875,2.08984375l-1.671875,2.8544921875c-1.5009765625-.8974609375-3.443359375-1.8330078125-5.826171875-2.80859375l1.439453125-2.1357421875h-.7900390625c-.4482421875,1.1455078125-1.23046875,2.05078125-2.3447265625,2.7158203125-1.1455078125,.697265625-3.001953125,1.3544921875-5.5712890625,1.9736328125-.603515625-1.23828125-1.0986328125-2.1904296875-1.4853515625-2.85546875,3.171875-.4794921875,5.076171875-1.0908203125,5.7109375-1.833984375h-5.107421875v-2.6923828125Zm2.85546875-14.625h3.203125v1.5546875h1.30078125v2.693359375h-1.30078125v.9287109375h-3.203125v-.9287109375h-2.484375v-2.693359375h2.484375v-1.5546875Zm1.4853515625,7.892578125v.8125h6.8017578125v-.8125h-6.8017578125Zm0,2.7158203125v.8359375h6.8017578125v-.8359375h-6.8017578125Zm3.5751953125-9.0537109375h1.4853515625v-1.5546875h3.2041015625v1.5546875h2.669921875v2.693359375h-2.669921875v.9287109375h-3.2041015625v-.9287109375h-1.4853515625v-2.693359375Z"/>
        <path d="M268.130859375,152.2255859375h11.583984375v2.9248046875h-1.439453125v2.1591796875h1.99609375v2.970703125h-1.99609375v2.87890625h1.9501953125v2.205078125h7.6142578125v2.9951171875h-7.6142578125v1.4853515625h8.8447265625v3.087890625h-21.4267578125v-3.087890625h8.8212890625v-1.4853515625h-7.591796875v-2.9951171875h7.591796875v-1.345703125h-1.439453125v-3.73828125h-1.880859375c-.0458984375,1.037109375-.216796875,1.873046875-.5107421875,2.5078125-.2939453125,.619140625-.8505859375,1.3310546875-1.6708984375,2.1357421875-1.1298828125-.650390625-2.1591796875-1.1845703125-3.087890625-1.6015625,.6962890625-.5263671875,1.1845703125-.9990234375,1.462890625-1.4169921875,.2939453125-.4326171875,.4794921875-.974609375,.556640625-1.625h-2.2978515625v-2.970703125h2.3447265625v-2.1591796875h-1.810546875v-2.9248046875Zm5.037109375,2.9248046875v2.1591796875h1.857421875v-2.1591796875h-1.857421875Zm7.5908203125-2.4140625h3.0419921875v7.5439453125h-3.0419921875v-7.5439453125Zm4.48046875-.859375h3.296875v9.0771484375c0,1.1298828125-.216796875,1.9501953125-.650390625,2.4609375s-1.16796875,.796875-2.205078125,.8583984375c-.974609375,.0625-2.291015625,.0927734375-3.9462890625,.0927734375-.1396484375-.958984375-.3408203125-2.01171875-.603515625-3.1572265625,.990234375,.03125,1.96484375,.046875,2.9248046875,.046875,.4638671875,0,.7734375-.0771484375,.9287109375-.232421875,.169921875-.169921875,.2548828125-.4951171875,.2548828125-.974609375v-8.171875Z"/>
      </g>
      <g>
        <path d="M33.208984375,1.5966796875l-5.4267578125,25.1875h-6.326171875l-3.9169921875-16.1337890625c-.193359375-.83203125-.3388671875-1.7802734375-.435546875-2.84375h-.0283203125c-.09765625,1.1025390625-.2421875,2.05078125-.435546875,2.84375l-4.0048828125,16.1337890625H6.0185546875L.5927734375,1.5966796875H6.3671875l2.78515625,16.685546875c.1552734375,.8896484375,.291015625,1.8857421875,.40625,2.98828125h.087890625c.154296875-1.2763671875,.30859375-2.2724609375,.4638671875-2.98828125L13.912109375,1.5966796875h6.064453125l4.033203125,16.9169921875c.193359375,.8515625,.3291015625,1.7607421875,.40625,2.7275390625h.05859375c.1162109375-1.1025390625,.2412109375-2.0498046875,.376953125-2.84375L27.5498046875,1.5966796875h5.6591796875Z"/>
        <path d="M53.6953125,17.7880859375c0,2.86328125-.8701171875,5.13671875-2.611328125,6.8193359375-1.7607421875,1.7021484375-4.1494140625,2.5537109375-7.16796875,2.5537109375-2.84375,0-5.1650390625-.861328125-6.9638671875-2.58203125-1.798828125-1.7216796875-2.69921875-3.9853515625-2.69921875-6.791015625,0-2.84375,.861328125-5.1259765625,2.5830078125-6.84765625,1.759765625-1.7607421875,4.1591796875-2.640625,7.1962890625-2.640625,3.1337890625,0,5.5615234375,.9091796875,7.2841796875,2.7275390625,1.5859375,1.6826171875,2.37890625,3.9365234375,2.37890625,6.7607421875Zm-5.6875-.0283203125c0-1.68359375-.3671875-2.9794921875-1.1025390625-3.888671875-.7158203125-.8896484375-1.7216796875-1.3349609375-3.017578125-1.3349609375-1.31640625,0-2.322265625,.4453125-3.0185546875,1.3349609375s-1.0439453125,2.1865234375-1.0439453125,3.888671875c0,1.7216796875,.3955078125,3.02734375,1.189453125,3.9169921875,.7158203125,.8125,1.6728515625,1.21875,2.873046875,1.21875,2.74609375,0,4.1201171875-1.7119140625,4.1201171875-5.1357421875Z"/>
        <path d="M75.2265625,17.7880859375c0,2.86328125-.8701171875,5.13671875-2.611328125,6.8193359375-1.7607421875,1.7021484375-4.1494140625,2.5537109375-7.16796875,2.5537109375-2.84375,0-5.1650390625-.861328125-6.9638671875-2.58203125-1.798828125-1.7216796875-2.69921875-3.9853515625-2.69921875-6.791015625,0-2.84375,.861328125-5.1259765625,2.5830078125-6.84765625,1.759765625-1.7607421875,4.1591796875-2.640625,7.1962890625-2.640625,3.1337890625,0,5.5615234375,.9091796875,7.2841796875,2.7275390625,1.5859375,1.6826171875,2.37890625,3.9365234375,2.37890625,6.7607421875Zm-5.6875-.0283203125c0-1.68359375-.3671875-2.9794921875-1.1025390625-3.888671875-.7158203125-.8896484375-1.7216796875-1.3349609375-3.017578125-1.3349609375-1.31640625,0-2.322265625,.4453125-3.0185546875,1.3349609375s-1.0439453125,2.1865234375-1.0439453125,3.888671875c0,1.7216796875,.3955078125,3.02734375,1.189453125,3.9169921875,.7158203125,.8125,1.6728515625,1.21875,2.873046875,1.21875,2.74609375,0,4.1201171875-1.7119140625,4.1201171875-5.1357421875Z"/>
        <path d="M95.9443359375,26.7255859375h-5.513671875v-2.37890625c-.966796875,1.8759765625-2.84375,2.814453125-5.62890625,2.814453125-2.1865234375,0-3.9658203125-.802734375-5.33984375-2.408203125-1.412109375-1.6640625-2.1181640625-3.869140625-2.1181640625-6.6162109375,0-3.25,.6484375-5.6875,1.9443359375-7.3125,1.353515625-1.68359375,3.43359375-2.5244140625,6.2392578125-2.5244140625,1.0634765625,0,2.0693359375,.2998046875,3.017578125,.8994140625,.9287109375,.580078125,1.556640625,1.287109375,1.8857421875,2.1181640625V0h5.513671875V26.7255859375Zm-5.3974609375-9.052734375v-.9580078125c0-1.1611328125-.3291015625-2.1376953125-.986328125-2.9306640625-.6962890625-.83203125-1.5869140625-1.248046875-2.669921875-1.248046875-1.23828125,0-2.205078125,.4453125-2.9013671875,1.3349609375-.6962890625,.9091796875-1.044921875,2.1953125-1.044921875,3.859375,0,1.7021484375,.357421875,3.0087890625,1.0732421875,3.9169921875,.658203125,.83203125,1.5673828125,1.248046875,2.728515625,1.248046875,2.5341796875,0,3.80078125-1.7412109375,3.80078125-5.22265625Z"/>
        <path d="M118.404296875,17.93359375v1.3642578125h-13.8701171875c0,1.1796875,.4345703125,2.1376953125,1.3056640625,2.8720703125,.8505859375,.7158203125,1.9150390625,1.07421875,3.19140625,1.07421875,.9677734375,0,1.7900390625-.18359375,2.466796875-.5517578125,.6962890625-.38671875,1.1708984375-.9375,1.421875-1.654296875l5.8037109375,.66796875c-1.392578125,3.65625-4.5947265625,5.474609375-9.6044921875,5.455078125-3.1728515625,0-5.6689453125-.841796875-7.4873046875-2.5244140625-1.779296875-1.64453125-2.6689453125-3.83984375-2.6689453125-6.5869140625,0-2.9794921875,.8310546875-5.33984375,2.4951171875-7.080078125,1.7021484375-1.7802734375,4.052734375-2.669921875,7.0517578125-2.669921875,3.4814453125,0,6.044921875,.9091796875,7.689453125,2.7275390625,1.4697265625,1.625,2.205078125,3.927734375,2.205078125,6.90625Zm-13.986328125-2.0888671875h8.6474609375c0-1.103515625-.40625-2.021484375-1.21875-2.7568359375s-1.818359375-1.1025390625-3.0185546875-1.1025390625c-1.333984375,0-2.41796875,.38671875-3.25,1.16015625-.7734375,.7158203125-1.16015625,1.615234375-1.16015625,2.69921875Z"/>
        <path d="M139.15234375,26.697265625h-5.484375v-10.21484375c0-1.3154296875-.2509765625-2.2919921875-.75390625-2.9306640625-.5419921875-.6767578125-1.3837890625-1.015625-2.5244140625-1.015625-1.064453125,0-1.92578125,.396484375-2.5830078125,1.189453125-.638671875,.7744140625-.9580078125,1.7802734375-.9580078125,3.0185546875v9.953125h-5.5419921875V8.7060546875h5.5419921875v2.6982421875c.5810546875-.8896484375,1.4033203125-1.625,2.466796875-2.205078125,1.1025390625-.599609375,2.205078125-.8994140625,3.30859375-.8994140625,2.359375,0,4.0625,.6484375,5.1064453125,1.9443359375,.9482421875,1.1796875,1.421875,2.978515625,1.421875,5.3974609375v11.0556640625Z"/>
        <path d="M168.7802734375,6.2392578125h-12.216796875v6.0068359375h10.6494140625v4.5849609375h-10.6494140625v9.953125h-5.6875V1.5966796875h17.904296875V6.2392578125Z"/>
        <path d="M170.869140625,20.544921875l5.62890625-1.189453125c.4833984375,2.4375,1.896484375,3.65625,4.2373046875,3.65625,1.2373046875,0,2.166015625-.3291015625,2.78515625-.986328125,.5810546875-.599609375,.87109375-1.451171875,.87109375-2.5537109375,0-2.3408203125-1.818359375-3.51171875-5.4560546875-3.51171875h-2.2919921875v-4.20703125h2.205078125c3.26953125,0,4.904296875-1.1025390625,4.904296875-3.30859375,0-.966796875-.2421875-1.7216796875-.7255859375-2.2626953125-.5419921875-.599609375-1.3544921875-.900390625-2.4375-.900390625-.9677734375,0-1.818359375,.3388671875-2.5537109375,1.015625-.75390625,.697265625-1.19921875,1.5771484375-1.3349609375,2.640625l-5.3681640625-1.0439453125c.46484375-2.1083984375,1.5283203125-3.7529296875,3.1923828125-4.93359375,1.6826171875-1.19921875,3.869140625-1.798828125,6.5576171875-1.798828125,2.689453125,0,4.7978515625,.6865234375,6.326171875,2.060546875,1.3349609375,1.19921875,2.001953125,2.6689453125,2.001953125,4.41015625,0,1.5869140625-.38671875,2.84375-1.16015625,3.7724609375-.83203125,1.005859375-2.1865234375,1.7412109375-4.0625,2.2060546875v.0576171875c1.779296875,.212890625,3.220703125,.9384765625,4.3232421875,2.1767578125,1.025390625,1.1416015625,1.5380859375,2.447265625,1.5380859375,3.9169921875,0,2.1083984375-.7734375,3.830078125-2.3212890625,5.1650390625-1.7021484375,1.4697265625-4.130859375,2.205078125-7.283203125,2.205078125-2.6318359375,.0390625-4.69140625-.416015625-6.181640625-1.36328125-1.5087890625-.9677734375-2.640625-2.7080078125-3.39453125-5.2236328125Z"/>
        <path d="M224.7548828125,26.7841796875h-6.2099609375l-1.857421875-5.6005859375h-9.576171875l-1.76953125,5.6005859375h-6.123046875L208.5625,1.5966796875h6.7900390625l9.40234375,25.1875Zm-9.140625-9.953125l-3.10546875-8.58984375c-.2509765625-.6376953125-.4541015625-1.353515625-.609375-2.1474609375h-.0576171875c-.1357421875,.677734375-.3388671875,1.421875-.609375,2.234375l-2.84375,8.5029296875h7.2255859375Z"/>
        <path d="M239.7568359375,9.140625l-1.828125,4.6435546875c-.599609375-.4453125-1.353515625-.66796875-2.2626953125-.66796875-1.1611328125,0-2.0703125,.3681640625-2.728515625,1.103515625-.6962890625,.79296875-1.0439453125,1.9345703125-1.0439453125,3.423828125v9.0537109375h-5.484375V8.7060546875h5.484375v3.279296875c.8896484375-2.4765625,2.4853515625-3.71484375,4.7880859375-3.71484375,1.2763671875,.0966796875,2.3017578125,.3876953125,3.0751953125,.8701171875Z"/>
        <path d="M243.296875,21.357421875V12.7978515625h-2.9013671875v-4.12109375h2.9013671875V2.5537109375l5.3681640625-1.0732421875v7.1962890625h4.32421875v4.12109375h-4.32421875v7.283203125c0,.986328125,.1845703125,1.7021484375,.5517578125,2.1474609375,.3486328125,.42578125,.9091796875,.6376953125,1.6826171875,.6376953125,.5419921875,0,1.064453125-.154296875,1.5673828125-.4638671875l1.1025390625,3.7431640625c-1.0634765625,.6767578125-2.58203125,1.015625-4.5556640625,1.015625s-3.4150390625-.455078125-4.3232421875-1.36328125c-.9287109375-.9287109375-1.3935546875-2.4091796875-1.3935546875-4.4404296875Z"/>
        <path d="M263.9287109375,26.7841796875h-8.154296875V1.5966796875h7.7763671875c4.6240234375,0,8.10546875,1.1220703125,10.447265625,3.3662109375,2.205078125,2.1083984375,3.3076171875,5.078125,3.3076171875,8.908203125,0,4.5654296875-1.03515625,7.8544921875-3.1044921875,9.8662109375-2.08984375,2.03125-5.513671875,3.046875-10.2724609375,3.046875Zm-.494140625-20.544921875h-1.943359375v15.9306640625h1.97265625c5.2421875,0,7.8642578125-2.7373046875,7.8642578125-8.2119140625,0-2.3603515625-.638671875-4.2080078125-1.9150390625-5.5419921875-1.3740234375-1.451171875-3.3662109375-2.1767578125-5.978515625-2.1767578125Z"/>
        <path d="M293.265625,9.140625l-1.828125,4.6435546875c-.599609375-.4453125-1.353515625-.66796875-2.2626953125-.66796875-1.1611328125,0-2.0703125,.3681640625-2.728515625,1.103515625-.6962890625,.79296875-1.0439453125,1.9345703125-1.0439453125,3.423828125v9.0537109375h-5.484375V8.7060546875h5.484375v3.279296875c.8896484375-2.4765625,2.4853515625-3.71484375,4.7880859375-3.71484375,1.2763671875,.0966796875,2.3017578125,.3876953125,3.0751953125,.8701171875Z"/>
        <path d="M300.810546875,6.15234375h-5.5712890625V1.5966796875h5.5712890625V6.15234375Zm0,20.6318359375h-5.5712890625V8.79296875h5.5712890625V26.7841796875Z"/>
        <path d="M322.515625,8.7060546875l-6.935546875,17.9326171875h-6.1806640625l-6.732421875-17.9326171875h5.861328125l3.337890625,11.171875c.34765625,1.1796875,.580078125,2.205078125,.6962890625,3.076171875h.0576171875c.1357421875-.8896484375,.376953125-1.9248046875,.7255859375-3.10546875l3.3076171875-11.142578125h5.8623046875Z"/>
        <path d="M343.0888671875,17.93359375v1.3642578125h-13.8701171875c0,1.1796875,.4345703125,2.1376953125,1.3056640625,2.8720703125,.8505859375,.7158203125,1.9150390625,1.07421875,3.19140625,1.07421875,.9677734375,0,1.7900390625-.18359375,2.466796875-.5517578125,.6962890625-.38671875,1.1708984375-.9375,1.421875-1.654296875l5.8037109375,.66796875c-1.392578125,3.65625-4.5947265625,5.474609375-9.6044921875,5.455078125-3.1728515625,0-5.6689453125-.841796875-7.4873046875-2.5244140625-1.779296875-1.64453125-2.6689453125-3.83984375-2.6689453125-6.5869140625,0-2.9794921875,.8310546875-5.33984375,2.4951171875-7.080078125,1.7021484375-1.7802734375,4.052734375-2.669921875,7.0517578125-2.669921875,3.4814453125,0,6.044921875,.9091796875,7.689453125,2.7275390625,1.4697265625,1.625,2.205078125,3.927734375,2.205078125,6.90625Zm-13.986328125-2.0888671875h8.6474609375c0-1.103515625-.40625-2.021484375-1.21875-2.7568359375s-1.818359375-1.1025390625-3.0185546875-1.1025390625c-1.333984375,0-2.41796875,.38671875-3.25,1.16015625-.7734375,.7158203125-1.16015625,1.615234375-1.16015625,2.69921875Z"/>
        <path d="M361.66015625,11.6943359375h-5.6005859375V6.123046875h5.6005859375v5.5712890625Zm0,10.5341796875h-5.6005859375v-5.5712890625h5.6005859375v5.5712890625Z"/>
        <path d="M29.875,52.9599609375l-6.6572265625,1.5029296875c-.357421875-1.5029296875-1.109375-2.7080078125-2.2548828125-3.615234375-1.1689453125-.9296875-2.564453125-1.3955078125-4.1875-1.3955078125-2.41015625,0-4.2939453125,.990234375-5.654296875,2.970703125-1.2412109375,1.8134765625-1.861328125,4.1279296875-1.861328125,6.943359375,0,3.1728515625,.751953125,5.6904296875,2.2548828125,7.55078125,1.408203125,1.7421875,3.185546875,2.61328125,5.3330078125,2.61328125,1.8603515625,0,3.3642578125-.5732421875,4.5087890625-1.71875,1.1689453125-1.16796875,1.8974609375-2.8505859375,2.18359375-5.0458984375l6.62109375,2.076171875c-.7158203125,3.458984375-2.1953125,6.095703125-4.4384765625,7.9091796875-2.2666015625,1.8369140625-5.2373046875,2.755859375-8.9111328125,2.755859375-4.62890625,0-8.291015625-1.515625-10.9873046875-4.5458984375-2.625-2.9345703125-3.9365234375-6.8115234375-3.9365234375-11.630859375,0-4.7958984375,1.3720703125-8.63671875,4.115234375-11.5244140625,2.744140625-2.88671875,6.3232421875-4.330078125,10.7373046875-4.330078125,3.4111328125,0,6.333984375,.9541015625,8.7685546875,2.86328125,2.21875,1.7412109375,3.673828125,3.94921875,4.3662109375,6.62109375Z"/>
        <path d="M49.80859375,53.2099609375l-2.2548828125,5.7265625c-.7392578125-.548828125-1.669921875-.8232421875-2.791015625-.8232421875-1.431640625,0-2.5537109375,.453125-3.3642578125,1.3603515625-.859375,.978515625-1.2890625,2.3857421875-1.2890625,4.22265625v11.166015625h-6.763671875v-22.189453125h6.763671875v4.044921875c1.09765625-3.0537109375,3.0654296875-4.5810546875,5.9052734375-4.5810546875,1.5751953125,.119140625,2.8388671875,.4775390625,3.7939453125,1.0732421875Z"/>
        <path d="M75.326171875,74.8623046875h-6.3701171875c-.572265625-.9306640625-.9189453125-2.111328125-1.0380859375-3.54296875-.8828125,1.2880859375-2.1708984375,2.2900390625-3.865234375,3.005859375-1.669921875,.7158203125-3.54296875,1.07421875-5.6181640625,1.07421875-2.1005859375,0-3.818359375-.6083984375-5.154296875-1.8251953125-1.3125-1.193359375-1.9677734375-2.744140625-1.9677734375-4.65234375,0-2.0048828125,.6318359375-3.5791015625,1.896484375-4.724609375,1.2880859375-1.1689453125,3.3759765625-1.9921875,6.2626953125-2.4697265625,4.0087890625-.7392578125,6.728515625-1.443359375,8.16015625-2.111328125,0-1.025390625-.2861328125-1.7412109375-.859375-2.1474609375-.6435546875-.453125-1.8369140625-.6796875-3.578125-.6796875-2.505859375,.0478515625-4.1162109375,.978515625-4.83203125,2.791015625l-6.333984375-.8583984375c.6669921875-2.21875,1.8720703125-3.8525390625,3.6142578125-4.9033203125,1.8125-1.0966796875,4.306640625-1.646484375,7.4794921875-1.646484375,4.103515625,0,7.0029296875,.751953125,8.697265625,2.2548828125,1.6220703125,1.431640625,2.43359375,3.841796875,2.43359375,7.2294921875v8.41015625c0,2.099609375,.357421875,3.6982421875,1.0732421875,4.7958984375Zm-7.2646484375-10.2353515625v-1.181640625c-1.3837890625,.8115234375-3.3046875,1.4560546875-5.7626953125,1.9326171875-1.55078125,.310546875-2.7080078125,.751953125-3.470703125,1.32421875-.6923828125,.525390625-1.0380859375,1.1220703125-1.0380859375,1.7900390625,0,.7392578125,.2734375,1.2763671875,.8232421875,1.6103515625,.548828125,.333984375,1.443359375,.5009765625,2.68359375,.5009765625,1.98046875,0,3.615234375-.6083984375,4.9033203125-1.8251953125,1.240234375-1.1689453125,1.861328125-2.552734375,1.861328125-4.1513671875Z"/>
        <path d="M95.1171875,42.40234375l-2.0048828125,4.9384765625c-.8828125-.3818359375-1.7060546875-.572265625-2.46875-.572265625-1.0263671875,0-1.7666015625,.25-2.2197265625,.7509765625s-.6796875,1.2880859375-.6796875,2.3623046875v2.8271484375h4.7958984375v5.08203125h-4.7958984375v17.1787109375h-6.763671875v-17.1787109375h-3.650390625v-5.08203125h3.650390625v-2.6845703125c0-3.029296875,.6435546875-5.2001953125,1.9326171875-6.5126953125,1.263671875-1.2890625,3.3515625-1.9326171875,6.2626953125-1.9326171875,2.1953125,0,4.1748046875,.2744140625,5.94140625,.8232421875Z"/>
        <path d="M98.23046875,68.27734375v-10.5576171875h-3.578125v-5.08203125h3.578125v-7.5517578125l6.62109375-1.32421875v8.8759765625h5.3330078125v5.08203125h-5.3330078125v8.982421875c0,1.216796875,.2265625,2.1005859375,.6806640625,2.6484375,.4287109375,.525390625,1.12109375,.7880859375,2.0751953125,.7880859375,.66796875,0,1.3125-.19140625,1.9326171875-.5732421875l1.3603515625,4.6171875c-1.3125,.8349609375-3.185546875,1.251953125-5.619140625,1.251953125s-4.2109375-.560546875-5.33203125-1.681640625c-1.1455078125-1.1455078125-1.71875-2.970703125-1.71875-5.4755859375Z"/>
        <path d="M154.025390625,70.92578125l-4.6171875,4.4736328125c-1.55078125-1.169921875-3.11328125-2.3388671875-4.6884765625-3.5078125-2.625,2.41015625-6.287109375,3.6025390625-10.9873046875,3.5791015625-3.458984375,0-6.1552734375-.751953125-8.087890625-2.2548828125s-2.8984375-3.6025390625-2.8984375-6.298828125c0-1.669921875,.6083984375-3.2685546875,1.8251953125-4.7958984375,1.2880859375-1.6220703125,3.13671875-2.9697265625,5.546875-4.0439453125-1.2412109375-1.455078125-2.111328125-2.7431640625-2.6123046875-3.865234375-.4541015625-1.025390625-.6806640625-2.111328125-.6806640625-3.2568359375,0-2.2900390625,.751953125-4.091796875,2.2548828125-5.4033203125,1.6220703125-1.408203125,4.0322265625-2.1123046875,7.2294921875-2.1123046875,2.671875,0,4.83203125,.740234375,6.4775390625,2.21875,1.52734375,1.3603515625,2.291015625,2.9833984375,2.291015625,4.8681640625,0,1.98046875-.4423828125,3.51953125-1.32421875,4.6162109375-.978515625,1.216796875-2.8876953125,2.3984375-5.7265625,3.54296875,1.765625,1.6708984375,3.9013671875,3.54296875,6.40625,5.619140625,.9541015625-1.884765625,1.5751953125-3.888671875,1.861328125-6.0126953125l5.439453125,1.9326171875c-.357421875,2.171875-1.3837890625,4.60546875-3.0771484375,7.30078125,1.0732421875,.7158203125,2.8623046875,1.849609375,5.3681640625,3.400390625Zm-13.0986328125-2.43359375c-2.6015625-2.3857421875-5.2138671875-4.783203125-7.837890625-7.193359375-2.4580078125,1.240234375-3.6865234375,2.8984375-3.6865234375,4.974609375,0,1.55078125,.5244140625,2.7197265625,1.5751953125,3.5068359375,.8818359375,.66796875,2.0400390625,1.001953125,3.470703125,1.001953125,2.314453125,0,4.4736328125-.7626953125,6.478515625-2.2900390625Zm-1.6103515625-17.8232421875c0-.8349609375-.287109375-1.5263671875-.859375-2.0751953125s-1.2880859375-.8232421875-2.1474609375-.8232421875c-2.3388671875,0-3.5068359375,1.025390625-3.5068359375,3.0771484375,.0234375,1.3603515625,.8583984375,2.8994140625,2.5048828125,4.6171875,2.671875-1.3115234375,4.0087890625-2.9111328125,4.0087890625-4.7958984375Z"/>
        <path d="M178.826171875,63.9111328125h-5.154296875v11.05859375h-7.0146484375v-31.064453125h12.77734375c3.865234375,0,6.8232421875,.9423828125,8.875,2.8271484375,1.884765625,1.7177734375,2.828125,4.0322265625,2.828125,6.943359375,0,4.556640625-1.7900390625,7.5869140625-5.369140625,9.08984375-1.8134765625,.763671875-4.1279296875,1.1455078125-6.9423828125,1.1455078125Zm-.5732421875-14.6015625h-4.5810546875v9.2685546875h4.5810546875c1.7900390625,0,3.1611328125-.3935546875,4.1162109375-1.1806640625,.9541015625-.787109375,1.431640625-1.9443359375,1.431640625-3.4716796875,0-1.4072265625-.4541015625-2.5166015625-1.3603515625-3.328125-.9541015625-.859375-2.3505859375-1.2880859375-4.1875-1.2880859375Z"/>
        <path d="M217.763671875,74.8623046875h-6.3701171875c-.572265625-.9306640625-.9189453125-2.111328125-1.0380859375-3.54296875-.8828125,1.2880859375-2.1708984375,2.2900390625-3.865234375,3.005859375-1.669921875,.7158203125-3.54296875,1.07421875-5.6181640625,1.07421875-2.1005859375,0-3.818359375-.6083984375-5.154296875-1.8251953125-1.3125-1.193359375-1.9677734375-2.744140625-1.9677734375-4.65234375,0-2.0048828125,.6318359375-3.5791015625,1.896484375-4.724609375,1.2880859375-1.1689453125,3.3759765625-1.9921875,6.2626953125-2.4697265625,4.0087890625-.7392578125,6.728515625-1.443359375,8.16015625-2.111328125,0-1.025390625-.2861328125-1.7412109375-.859375-2.1474609375-.6435546875-.453125-1.8369140625-.6796875-3.578125-.6796875-2.505859375,.0478515625-4.1162109375,.978515625-4.83203125,2.791015625l-6.333984375-.8583984375c.6669921875-2.21875,1.8720703125-3.8525390625,3.6142578125-4.9033203125,1.8125-1.0966796875,4.306640625-1.646484375,7.4794921875-1.646484375,4.103515625,0,7.0029296875,.751953125,8.697265625,2.2548828125,1.6220703125,1.431640625,2.43359375,3.841796875,2.43359375,7.2294921875v8.41015625c0,2.099609375,.357421875,3.6982421875,1.0732421875,4.7958984375Zm-7.2646484375-10.2353515625v-1.181640625c-1.3837890625,.8115234375-3.3046875,1.4560546875-5.7626953125,1.9326171875-1.55078125,.310546875-2.7080078125,.751953125-3.470703125,1.32421875-.6923828125,.525390625-1.0380859375,1.1220703125-1.0380859375,1.7900390625,0,.7392578125,.2734375,1.2763671875,.8232421875,1.6103515625,.548828125,.333984375,1.443359375,.5009765625,2.68359375,.5009765625,1.98046875,0,3.615234375-.6083984375,4.9033203125-1.8251953125,1.240234375-1.1689453125,1.861328125-2.552734375,1.861328125-4.1513671875Z"/>
        <path d="M227.677734375,49.5234375h-6.8720703125v-5.6181640625h6.8720703125v5.6181640625Zm0,25.4462890625h-6.8720703125v-22.189453125h6.8720703125v22.189453125Z"/>
        <path d="M253.875,74.8623046875h-6.7646484375v-12.59765625c0-1.6220703125-.310546875-2.8271484375-.9306640625-3.6142578125-.66796875-.8349609375-1.7060546875-1.2529296875-3.11328125-1.2529296875-1.3125,0-2.3740234375,.4892578125-3.185546875,1.466796875-.787109375,.955078125-1.1806640625,2.1962890625-1.1806640625,3.72265625v12.275390625h-6.8359375v-22.189453125h6.8359375v3.3291015625c.7158203125-1.09765625,1.7294921875-2.0048828125,3.0419921875-2.720703125,1.3603515625-.7392578125,2.7197265625-1.109375,4.080078125-1.109375,2.91015625,0,5.0107421875,.7998046875,6.298828125,2.3984375,1.1689453125,1.455078125,1.75390625,3.673828125,1.75390625,6.65625v13.6357421875Z"/>
        <path d="M259.994140625,68.27734375v-10.5576171875h-3.578125v-5.08203125h3.578125v-7.5517578125l6.62109375-1.32421875v8.8759765625h5.3330078125v5.08203125h-5.3330078125v8.982421875c0,1.216796875,.2265625,2.1005859375,.6806640625,2.6484375,.4287109375,.525390625,1.12109375,.7880859375,2.0751953125,.7880859375,.66796875,0,1.3125-.19140625,1.9326171875-.5732421875l1.3603515625,4.6171875c-1.3125,.8349609375-3.185546875,1.251953125-5.619140625,1.251953125s-4.2109375-.560546875-5.33203125-1.681640625c-1.1455078125-1.1455078125-1.71875-2.970703125-1.71875-5.4755859375Z"/>
        <path d="M314.7509765625,43.9052734375l-12.3115234375,18.681640625v12.3828125h-7.0498046875v-12.275390625l-12.1328125-18.7890625h7.98046875l6.19140625,10.271484375c.548828125,.8828125,1.1455078125,1.9091796875,1.7900390625,3.0771484375h.0361328125c.572265625-1.025390625,1.1328125-2.02734375,1.681640625-3.005859375l5.76171875-10.3427734375h8.052734375Z"/>
        <path d="M339.9453125,63.875c0,3.53125-1.0732421875,6.3349609375-3.220703125,8.41015625-2.171875,2.099609375-5.1181640625,3.1494140625-8.83984375,3.1494140625-3.5078125,0-6.37109375-1.0615234375-8.58984375-3.1845703125s-3.328125-4.9150390625-3.328125-8.375c0-3.5068359375,1.0615234375-6.322265625,3.185546875-8.4462890625,2.1708984375-2.1708984375,5.12890625-3.2568359375,8.875-3.2568359375,3.865234375,0,6.859375,1.1220703125,8.9833984375,3.3642578125,1.9560546875,2.076171875,2.9345703125,4.85546875,2.9345703125,8.3388671875Zm-7.0146484375-.03515625c0-2.076171875-.453125-3.6748046875-1.3603515625-4.7958984375-.8828125-1.09765625-2.123046875-1.646484375-3.7216796875-1.646484375-1.623046875,0-2.86328125,.548828125-3.7216796875,1.646484375-.859375,1.09765625-1.2890625,2.6962890625-1.2890625,4.7958984375,0,2.123046875,.4892578125,3.734375,1.4677734375,4.8310546875,.8828125,1.001953125,2.0634765625,1.5029296875,3.54296875,1.5029296875,3.3876953125,0,5.08203125-2.111328125,5.08203125-6.333984375Z"/>
        <path d="M365.3193359375,74.8984375h-6.7646484375v-3.435546875c-1.5029296875,2.6240234375-3.8056640625,3.9365234375-6.9072265625,3.9365234375-2.791015625,0-4.9033203125-.8232421875-6.3349609375-2.4697265625-1.3837890625-1.57421875-2.0751953125-3.865234375-2.0751953125-6.87109375v-13.3857421875h6.763671875v12.8125c0,1.6708984375,.3935546875,2.8876953125,1.181640625,3.650390625,.7158203125,.6923828125,1.7890625,1.0380859375,3.220703125,1.0380859375,1.1689453125,0,2.1474609375-.4765625,2.9345703125-1.431640625,.810546875-.9775390625,1.216796875-2.23046875,1.216796875-3.7578125v-12.3115234375h6.7646484375v22.2255859375Z"/>
        <path d="M385.826171875,53.2099609375l-2.2548828125,5.7265625c-.7392578125-.548828125-1.669921875-.8232421875-2.791015625-.8232421875-1.431640625,0-2.5537109375,.453125-3.3642578125,1.3603515625-.859375,.978515625-1.2890625,2.3857421875-1.2890625,4.22265625v11.166015625h-6.763671875v-22.189453125h6.763671875v4.044921875c1.09765625-3.0537109375,3.0654296875-4.5810546875,5.9052734375-4.5810546875,1.5751953125,.119140625,2.8388671875,.4775390625,3.7939453125,1.0732421875Z"/>
        <path d="M29.0869140625,97.2197265625h-9.984375v25.3388671875h-7.0869140625v-25.3388671875H1.9951171875v-5.7255859375H29.0869140625v5.7255859375Z"/>
        <path d="M48.806640625,100.798828125l-2.2548828125,5.7265625c-.7392578125-.548828125-1.669921875-.8232421875-2.791015625-.8232421875-1.431640625,0-2.5537109375,.453125-3.3642578125,1.3603515625-.859375,.978515625-1.2890625,2.3857421875-1.2890625,4.22265625v11.166015625h-6.763671875v-22.189453125h6.763671875v4.044921875c1.09765625-3.0537109375,3.0654296875-4.5810546875,5.9052734375-4.5810546875,1.5751953125,.119140625,2.8388671875,.4775390625,3.7939453125,1.0732421875Z"/>
        <path d="M74.3232421875,122.451171875h-6.3701171875c-.572265625-.9306640625-.9189453125-2.111328125-1.0380859375-3.54296875-.8828125,1.2880859375-2.1708984375,2.2900390625-3.865234375,3.005859375-1.669921875,.7158203125-3.54296875,1.07421875-5.6181640625,1.07421875-2.1005859375,0-3.818359375-.6083984375-5.154296875-1.8251953125-1.3125-1.193359375-1.9677734375-2.744140625-1.9677734375-4.65234375,0-2.0048828125,.6318359375-3.5791015625,1.896484375-4.724609375,1.2880859375-1.1689453125,3.3759765625-1.9921875,6.2626953125-2.4697265625,4.0087890625-.7392578125,6.728515625-1.443359375,8.16015625-2.111328125,0-1.025390625-.2861328125-1.7412109375-.859375-2.1474609375-.6435546875-.453125-1.8369140625-.6796875-3.578125-.6796875-2.505859375,.0478515625-4.1162109375,.978515625-4.83203125,2.791015625l-6.333984375-.8583984375c.6669921875-2.21875,1.8720703125-3.8525390625,3.6142578125-4.9033203125,1.8125-1.0966796875,4.306640625-1.646484375,7.4794921875-1.646484375,4.103515625,0,7.0029296875,.751953125,8.697265625,2.2548828125,1.6220703125,1.431640625,2.43359375,3.841796875,2.43359375,7.2294921875v8.41015625c0,2.099609375,.357421875,3.6982421875,1.0732421875,4.7958984375Zm-7.2646484375-10.2353515625v-1.181640625c-1.3837890625,.8115234375-3.3046875,1.4560546875-5.7626953125,1.9326171875-1.55078125,.310546875-2.7080078125,.751953125-3.470703125,1.32421875-.6923828125,.525390625-1.0380859375,1.1220703125-1.0380859375,1.7900390625,0,.7392578125,.2734375,1.2763671875,.8232421875,1.6103515625,.548828125,.333984375,1.443359375,.5009765625,2.68359375,.5009765625,1.98046875,0,3.615234375-.6083984375,4.9033203125-1.8251953125,1.240234375-1.1689453125,1.861328125-2.552734375,1.861328125-4.1513671875Z"/>
        <path d="M100.4140625,107.1689453125l-6.943359375,1.0029296875c-.310546875-.9306640625-.89453125-1.6943359375-1.75390625-2.291015625-.8349609375-.595703125-1.7412109375-.89453125-2.7197265625-.89453125-1.669921875,0-3.005859375,.5849609375-4.0087890625,1.75390625-1.025390625,1.193359375-1.5380859375,2.779296875-1.5380859375,4.759765625,0,2.1474609375,.5126953125,3.74609375,1.5380859375,4.7958984375,.9306640625,.9541015625,2.2783203125,1.431640625,4.044921875,1.431640625,1.1923828125,0,2.1943359375-.345703125,3.005859375-1.0380859375,.8349609375-.7158203125,1.3359375-1.6943359375,1.5029296875-2.9345703125l7.193359375,.8583984375c-.90625,3.0068359375-2.302734375,5.166015625-4.1865234375,6.4775390625-1.837890625,1.2890625-4.4150390625,1.9326171875-7.73046875,1.9326171875-3.9130859375,0-6.9560546875-1.025390625-9.1259765625-3.0771484375-2.1474609375-2.0283203125-3.2216796875-4.9150390625-3.2216796875-8.6611328125,0-3.5078125,1.0380859375-6.2744140625,3.1142578125-8.302734375,2.1943359375-2.1474609375,5.2958984375-3.2216796875,9.3046875-3.2216796875,2.7431640625,0,5.1533203125,.6806640625,7.2294921875,2.0400390625,2.00390625,1.3125,3.435546875,3.1025390625,4.294921875,5.3681640625Z"/>
        <path d="M128.580078125,122.451171875h-8.1240234375l-5.7978515625-9.3046875-3.615234375,3.435546875v5.869140625h-6.7998046875v-32.8896484375h6.7998046875v19.3974609375l8.517578125-8.697265625h8.5537109375l-9.0185546875,8.6611328125,9.484375,13.5283203125Z"/>
        <path d="M163.974609375,122.55859375h-22.8330078125v-31.064453125h6.9423828125v25.41015625h15.890625v5.654296875Z"/>
        <path d="M190.6005859375,111.642578125v1.6826171875h-17.107421875c0,1.455078125,.537109375,2.63671875,1.6103515625,3.54296875,1.0498046875,.8828125,2.3623046875,1.32421875,3.9375,1.32421875,1.1923828125,0,2.2060546875-.2265625,3.0419921875-.6796875,.8583984375-.4775390625,1.443359375-1.1572265625,1.75390625-2.0400390625l7.1572265625,.8232421875c-1.7177734375,4.5087890625-5.6669921875,6.7509765625-11.845703125,6.7275390625-3.9140625,0-6.9912109375-1.037109375-9.2333984375-3.11328125-2.1962890625-2.02734375-3.29296875-4.7353515625-3.29296875-8.1240234375,0-3.673828125,1.025390625-6.5849609375,3.078125-8.732421875,2.0986328125-2.1953125,4.998046875-3.29296875,8.6962890625-3.29296875,4.294921875,0,7.4560546875,1.1220703125,9.484375,3.3642578125,1.8125,2.0048828125,2.7197265625,4.84375,2.7197265625,8.517578125Zm-17.25-2.576171875h10.6650390625c0-1.3603515625-.5009765625-2.4931640625-1.5029296875-3.400390625-1.0029296875-.90625-2.2431640625-1.359375-3.72265625-1.359375-1.646484375,0-2.982421875,.4775390625-4.0078125,1.431640625-.955078125,.8828125-1.431640625,1.9921875-1.431640625,3.328125Z"/>
        <path d="M193.9296875,122.916015625l7.4794921875,.6806640625c.0947265625,.9306640625,.5009765625,1.646484375,1.216796875,2.1474609375s1.6826171875,.7509765625,2.8994140625,.7509765625c1.3359375,0,2.373046875-.46484375,3.11328125-1.3955078125,.7392578125-.9306640625,1.109375-2.2666015625,1.109375-4.0087890625l-.0361328125-3.220703125c-1.4072265625,2.4814453125-3.7216796875,3.72265625-6.9423828125,3.72265625-2.7685546875,0-4.974609375-.955078125-6.62109375-2.86328125-1.7177734375-1.98046875-2.5771484375-4.7001953125-2.5771484375-8.16015625,0-3.53125,.8115234375-6.21484375,2.43359375-8.052734375,1.646484375-1.8603515625,4.080078125-2.791015625,7.30078125-2.791015625,1.3359375,0,2.5888671875,.2744140625,3.7578125,.8232421875,1.193359375,.572265625,2.076171875,1.3359375,2.6484375,2.2900390625v-2.6123046875h6.8359375v18.6455078125c0,4.771484375-.9072265625,8.076171875-2.7197265625,9.9140625-1.765625,1.7890625-4.8798828125,2.68359375-9.3408203125,2.68359375-3.1494140625,0-5.619140625-.6923828125-7.408203125-2.0751953125-1.8857421875-1.4560546875-2.9345703125-3.615234375-3.1494140625-6.478515625Zm15.8896484375-12.275390625v-.7158203125c0-1.5263671875-.3935546875-2.7314453125-1.1806640625-3.6142578125-.8115234375-.90625-1.9326171875-1.3603515625-3.3642578125-1.3603515625-1.57421875,0-2.779296875,.5009765625-3.6142578125,1.5029296875-.7880859375,.9306640625-1.181640625,2.2314453125-1.181640625,3.9013671875,0,1.9326171875,.4296875,3.435546875,1.2890625,4.509765625,.8349609375,1.0498046875,1.9677734375,1.57421875,3.3994140625,1.57421875,3.1015625,0,4.65234375-1.9326171875,4.65234375-5.7978515625Z"/>
        <path d="M244.3193359375,111.642578125v1.6826171875h-17.107421875c0,1.455078125,.537109375,2.63671875,1.6103515625,3.54296875,1.0498046875,.8828125,2.3623046875,1.32421875,3.9375,1.32421875,1.1923828125,0,2.2060546875-.2265625,3.0419921875-.6796875,.8583984375-.4775390625,1.443359375-1.1572265625,1.75390625-2.0400390625l7.1572265625,.8232421875c-1.7177734375,4.5087890625-5.6669921875,6.7509765625-11.845703125,6.7275390625-3.9140625,0-6.9912109375-1.037109375-9.2333984375-3.11328125-2.1962890625-2.02734375-3.29296875-4.7353515625-3.29296875-8.1240234375,0-3.673828125,1.025390625-6.5849609375,3.078125-8.732421875,2.0986328125-2.1953125,4.998046875-3.29296875,8.6962890625-3.29296875,4.294921875,0,7.4560546875,1.1220703125,9.484375,3.3642578125,1.8125,2.0048828125,2.7197265625,4.84375,2.7197265625,8.517578125Zm-17.25-2.576171875h10.6650390625c0-1.3603515625-.5009765625-2.4931640625-1.5029296875-3.400390625-1.0029296875-.90625-2.2431640625-1.359375-3.72265625-1.359375-1.646484375,0-2.982421875,.4775390625-4.0078125,1.431640625-.955078125,.8828125-1.431640625,1.9921875-1.431640625,3.328125Z"/>
        <path d="M269.9091796875,122.451171875h-6.7646484375v-12.59765625c0-1.6220703125-.310546875-2.8271484375-.9306640625-3.6142578125-.66796875-.8349609375-1.7060546875-1.2529296875-3.11328125-1.2529296875-1.3125,0-2.3740234375,.4892578125-3.185546875,1.466796875-.787109375,.955078125-1.1806640625,2.1962890625-1.1806640625,3.72265625v12.275390625h-6.8359375v-22.189453125h6.8359375v3.3291015625c.7158203125-1.09765625,1.7294921875-2.0048828125,3.0419921875-2.720703125,1.3603515625-.7392578125,2.7197265625-1.109375,4.080078125-1.109375,2.91015625,0,5.0107421875,.7998046875,6.298828125,2.3984375,1.1689453125,1.455078125,1.75390625,3.673828125,1.75390625,6.65625v13.6357421875Z"/>
        <path d="M296.1064453125,122.4873046875h-6.7998046875v-2.9345703125c-1.193359375,2.3134765625-3.5078125,3.470703125-6.943359375,3.470703125-2.6962890625,0-4.8916015625-.990234375-6.5849609375-2.9697265625-1.7421875-2.0517578125-2.6123046875-4.7724609375-2.6123046875-8.16015625,0-4.0087890625,.798828125-7.0146484375,2.3974609375-9.0185546875,1.669921875-2.076171875,4.234375-3.1142578125,7.6943359375-3.1142578125,1.3125,0,2.552734375,.3701171875,3.72265625,1.109375,1.14453125,.7158203125,1.919921875,1.587890625,2.326171875,2.61328125v-13.9580078125h6.7998046875v32.9619140625Zm-6.6572265625-11.166015625v-1.181640625c0-1.431640625-.4052734375-2.6357421875-1.216796875-3.6142578125-.8583984375-1.025390625-1.9560546875-1.5390625-3.2919921875-1.5390625-1.52734375,0-2.7197265625,.548828125-3.5791015625,1.646484375-.859375,1.12109375-1.2880859375,2.7080078125-1.2880859375,4.759765625,0,2.099609375,.4404296875,3.7099609375,1.32421875,4.8310546875,.810546875,1.0263671875,1.9326171875,1.5390625,3.3642578125,1.5390625,3.125,0,4.6875-2.1474609375,4.6875-6.44140625Z"/>
      </g>
      <g>
        <g>
          <polygon points="0 198.337753125000745 17.410800000001473 250.570153124999706 26.11620000000039 250.570153124999706 8.705399999998917 198.337753125000745 0 198.337753125000745"/>
          <polygon points="130.581000000000131 198.337753125000745 17.410800000001473 198.337753125000745 34.821599999999307 250.570153124999706 147.991799999999785 250.570153124999706 130.581000000000131 198.337753125000745"/>
        </g>
        <g>
          <polygon points="165.402600000001257 198.337753125000745 182.813399999999092 250.570153124999706 191.518799999999828 250.570153124999706 174.108000000000175 198.337753125000745 165.402600000001257 198.337753125000745"/>
          <polygon points="374.332200000000739 198.337753125000745 182.813399999999092 198.337753125000745 200.224200000000565 250.570153124999706 391.743000000000393 250.570153124999706 374.332200000000739 198.337753125000745"/>
        </g>
        <g>
          <path d="M50.46484375,224.5634765625c.87890625,1.291015625,1.3046875,2.8515625,1.2763671875,4.681640625,0,1.19140625-.1982421875,2.0927734375-.595703125,2.7021484375-.3974609375,.6103515625-1.0634765625,.9931640625-2,1.1494140625-.42578125,.0703125-.81640625,.1201171875-1.1708984375,.1484375l-.33984375-1.212890625v3.703125h-2.89453125v-19.322265625h6.958984375v2.9150390625l-1.234375,5.2353515625Zm-2.830078125-5.150390625v10.5341796875c.169921875,0,.2978515625-.0078125,.3828125-.021484375,.609375-.04296875,.9150390625-.5322265625,.9150390625-1.46875,0-1.078125-.3759765625-2.2265625-1.1279296875-3.447265625l1.1279296875-5.5966796875h-1.2978515625Zm16.5126953125,10.0439453125c-.751953125,.4970703125-1.6103515625,1.021484375-2.5751953125,1.5751953125,.7802734375,.5390625,1.7314453125,1.0146484375,2.8515625,1.42578125-.595703125,1.021484375-1.1201171875,2-1.57421875,2.9365234375-2-.8798828125-3.5400390625-1.9931640625-4.6181640625-3.3408203125v2.234375c-1.2197265625,.2412109375-2.3056640625,.49609375-3.255859375,.765625-.7373046875,.212890625-1.390625,.4609375-1.95703125,.7451171875l-1.447265625-2.447265625c.26953125-.3115234375,.4541015625-.6171875,.552734375-.9150390625,.099609375-.2978515625,.1494140625-.6875,.1494140625-1.169921875v-14.7685546875h10.9169921875v11.0654296875h-.5322265625l1.4892578125,1.8935546875Zm-8.8525390625-10.0224609375v1.2978515625h4.916015625v-1.2978515625h-4.916015625Zm0,5.255859375h4.916015625v-1.3193359375h-4.916015625v1.3193359375Zm2.3623046875,6.5546875c-.5390625-.8515625-.986328125-1.8017578125-1.3408203125-2.8515625l2.638671875-.830078125h-3.66015625v4.298828125c.794921875-.1982421875,1.58203125-.404296875,2.3623046875-.6171875Zm2.1064453125-2.1064453125c.7373046875-.5107421875,1.4326171875-1.0361328125,2.0859375-1.5751953125h-2.830078125c.2119140625,.6103515625,.4599609375,1.134765625,.744140625,1.5751953125Z" style="fill: #f4c500;"/>
          <path d="M67.1484375,224.6904296875h16.5986328125v5.8740234375h-6.6611328125v.6376953125h7.12890625v1.5966796875h-7.12890625v.6376953125h8.384765625v1.7451171875h-20.0673828125v-1.7451171875h8.4052734375v-.6376953125h-7.1279296875v-1.5966796875h7.1279296875v-.6376953125h-6.66015625v-5.8740234375Zm-1.7021484375-.552734375v-1.7451171875h20.0029296875v1.7451171875h-20.0029296875Zm1.638671875-2.298828125v-5.681640625h16.7255859375v5.681640625h-16.7255859375Zm3.255859375,4.3623046875v.703125h3.4677734375v-.703125h-3.4677734375Zm0,2.12890625v.72265625h3.4677734375v-.72265625h-3.4677734375Zm.0205078125-10.4697265625v.57421875h10.171875v-.57421875h-10.171875Zm0,2.404296875h10.171875v-.57421875h-10.171875v.57421875Zm10.193359375,5.9365234375h-3.46875v.703125h3.46875v-.703125Zm0,2.8515625v-.72265625h-3.46875v.72265625h3.46875Z" style="fill: #f4c500;"/>
          <path d="M86.83203125,230.3515625l4.064453125-.873046875c.1982421875,.951171875,.5673828125,1.66015625,1.1064453125,2.1279296875,.5107421875,.4404296875,1.15625,.66015625,1.9365234375,.66015625,.779296875,0,1.439453125-.2978515625,1.978515625-.8935546875,.5390625-.5966796875,.80859375-1.3408203125,.80859375-2.234375,0-.96484375-.248046875-1.7236328125-.744140625-2.27734375-.525390625-.58203125-1.263671875-.8720703125-2.2138671875-.8720703125-1.2333984375,.056640625-2.1845703125,.4248046875-2.8515625,1.1064453125l-3.3408203125-.021484375,.681640625-10.40625h11.4912109375v3.3203125h-8.0869140625l-.3828125,4.255859375c1.021484375-.6953125,2.2060546875-1.04296875,3.5537109375-1.04296875,1.873046875,0,3.3408203125,.525390625,4.4052734375,1.5751953125,1.048828125,1.03515625,1.57421875,2.4326171875,1.57421875,4.19140625,0,1.9580078125-.5888671875,3.490234375-1.7666015625,4.5966796875-1.2197265625,1.1494140625-2.9287109375,1.7236328125-5.1279296875,1.7236328125-1.943359375,0-3.50390625-.42578125-4.681640625-1.2763671875-1.12109375-.80859375-1.9228515625-2.029296875-2.404296875-3.66015625Z" style="fill: #f4c500;"/>
          <path d="M107.3671875,235.6494140625h-3.234375v-9.0859375c-.412109375,.6240234375-.9296875,1.369140625-1.5537109375,2.234375-.11328125-1.291015625-.291015625-2.873046875-.5322265625-4.7451171875,1.560546875-2.5400390625,2.7734375-5.3203125,3.6396484375-8.341796875l3.3828125,.787109375c-.5107421875,1.5185546875-1.078125,2.951171875-1.7021484375,4.298828125v14.8525390625Zm12.6611328125-3.638671875c-.0419921875,1.12109375-.283203125,1.9228515625-.72265625,2.4052734375-.482421875,.5390625-1.3056640625,.84375-2.46875,.9150390625-.751953125,.056640625-1.73828125,.091796875-2.9580078125,.1064453125-.212890625-1.05078125-.447265625-2.04296875-.7021484375-2.9794921875,.6240234375,.0146484375,1.326171875,.021484375,2.1064453125,.021484375,.5390625,0,.908203125-.0849609375,1.1064453125-.255859375,.19921875-.169921875,.3046875-.49609375,.3193359375-.978515625,.0712890625-1.177734375,.1201171875-2.482421875,.1494140625-3.916015625h-2.638671875c-.0859375,1.9443359375-.42578125,3.51171875-1.021484375,4.703125-.6103515625,1.2197265625-1.6953125,2.4609375-3.255859375,3.7236328125-.58203125-.5390625-1.412109375-1.2763671875-2.490234375-2.212890625,1.291015625-.8935546875,2.177734375-1.7734375,2.66015625-2.638671875,.49609375-.87890625,.765625-2.0712890625,.80859375-3.5751953125h-.978515625v-2c-.35546875,.412109375-.759765625,.8232421875-1.212890625,1.234375-.2841796875-.80859375-.7099609375-1.6884765625-1.27734375-2.638671875,.751953125-.7236328125,1.517578125-1.794921875,2.298828125-3.212890625,.8369140625-1.50390625,1.453125-2.986328125,1.8505859375-4.4482421875l2.7666015625,.8515625c-.865234375,2.80859375-2.0849609375,5.234375-3.66015625,7.27734375h8.8525390625c-1.4755859375-1.5888671875-2.759765625-3.5322265625-3.8515625-5.830078125h-.978515625v-2.51171875h3.2978515625c.5244140625,1.50390625,1.134765625,2.7666015625,1.830078125,3.7880859375,.65234375,.978515625,1.4755859375,1.873046875,2.46875,2.681640625-.3271484375,1.234375-.6171875,2.4609375-.873046875,3.6806640625-.4677734375-.396484375-.8583984375-.7509765625-1.169921875-1.0634765625-.1416015625,3.8447265625-.2275390625,6.1357421875-.255859375,6.873046875Z" style="fill: #f4c500;"/>
          <path d="M217,235.7138671875h-3.021484375v-8.958984375c-.2841796875,.482421875-.73828125,1.220703125-1.3623046875,2.212890625-.11328125-1.57421875-.26953125-3.099609375-.4677734375-4.5751953125,1.34765625-2.638671875,2.3544921875-5.5537109375,3.021484375-8.74609375l2.9365234375,.595703125h14.1728515625v2.2138671875h-4.0439453125v.787109375h3.703125v4.3408203125h-13.98046875v-4.3408203125h3.638671875v-.787109375h-3.5322265625v-1.5966796875c-.35546875,1.291015625-.7099609375,2.4267578125-1.064453125,3.4052734375v15.44921875Zm6.0859375-3.107421875l1.1064453125,2.0224609375c-.9931640625,.2548828125-2.986328125,.666015625-5.9794921875,1.2333984375-.26953125-.7373046875-.5888671875-1.5322265625-.95703125-2.3828125,1.943359375-.2841796875,3.88671875-.57421875,5.830078125-.873046875Zm-4.5107421875-.0419921875v-8.341796875h12.6826171875v8.341796875h-12.6826171875Zm2-11.5546875v.80859375h1.021484375v-.80859375h-1.021484375Zm7.703125,4.8935546875h-6.724609375v.66015625h6.724609375v-.66015625Zm-6.724609375,2.1494140625v.66015625h6.724609375v-.66015625h-6.724609375Zm0,2.830078125h6.724609375v-.6591796875h-6.724609375v.6591796875Zm2.703125-12.4267578125v.787109375h1.3193359375v-.787109375h-1.3193359375Zm0,2.5537109375v.80859375h1.3193359375v-.80859375h-1.3193359375Zm2.212890625,11.6396484375c.6943359375,.11328125,2.708984375,.412109375,6.04296875,.8935546875l-.9150390625,2.255859375c-4-.765625-6.0361328125-1.15625-6.1064453125-1.169921875l.978515625-1.9794921875Zm2.8515625-10.8310546875v-.80859375h-1.0859375v.80859375h1.0859375Z" style="fill: #f4c500;"/>
          <path d="M236.662109375,215.646484375l3.234375,.830078125c-.0849609375,.2841796875-.1484375,.4892578125-.19140625,.6171875h5.0859375l.169921875-1.57421875,3.234375,.361328125-.1484375,1.212890625h5.3203125v2.5322265625h-5.5966796875l-.1064453125,.8935546875h4.873046875v12.1083984375h1.1484375v2.5322265625h-14.74609375v-2.5322265625h1.1484375v-12.1083984375h4.3203125l.0849609375-.8935546875h-4.9365234375v-2.1064453125c-.3408203125,1.0078125-.703125,1.986328125-1.0859375,2.9365234375v15.2578125h-3.064453125v-9.12890625c-.4677734375,.751953125-.95703125,1.517578125-1.4677734375,2.2978515625-.3125-2.6669921875-.4970703125-4.1630859375-.5537109375-4.490234375,1.34765625-2.5673828125,2.4404296875-5.482421875,3.27734375-8.74609375Zm6.5751953125,7.3203125v.8515625h6.150390625v-.8515625h-6.150390625Zm0,2.916015625v.8720703125h6.150390625v-.8720703125h-6.150390625Zm0,2.9365234375v.8720703125h6.150390625v-.8720703125h-6.150390625Zm0,2.9365234375v.8720703125h6.150390625v-.8720703125h-6.150390625Z" style="fill: #f4c500;"/>
          <path d="M281.0732421875,235.033203125h-3.9794921875v-11.044921875c0-1.3046875,.0498046875-2.673828125,.1494140625-4.1064453125h-.064453125c-.212890625,1.3193359375-.42578125,2.361328125-.638671875,3.1279296875l-3.42578125,12.0234375h-3.5107421875l-3.4052734375-12.3857421875c-.2265625-.80859375-.4462890625-1.7373046875-.6591796875-2.787109375h-.064453125c.11328125,1.81640625,.1708984375,3.4755859375,.1708984375,4.9794921875v10.193359375h-3.9375v-18.4716796875h6.171875l3.234375,12.0234375c.11328125,.42578125,.19140625,1.0849609375,.234375,1.9794921875h.0419921875c.04296875-.9365234375,.1201171875-1.603515625,.234375-2.0009765625l3.255859375-12.001953125h6.1923828125v18.4716796875Z" style="fill: #f4c500;"/>
          <path d="M301.48046875,225.83984375c0,2.8515625-.8447265625,5.1572265625-2.5322265625,6.916015625-1.673828125,1.7451171875-3.859375,2.6171875-6.5546875,2.6171875-2.6806640625-.0419921875-4.8583984375-.9150390625-6.5322265625-2.6171875-1.66015625-1.7021484375-2.5185546875-4.0078125-2.5751953125-6.916015625,0-2.80859375,.787109375-5.078125,2.3623046875-6.8095703125,1.6591796875-1.8154296875,3.908203125-2.7236328125,6.7451171875-2.7236328125,2.7529296875,0,4.9794921875,.943359375,6.6826171875,2.830078125,1.6025390625,1.787109375,2.404296875,4.021484375,2.404296875,6.703125Zm-4.5537109375,0c0-1.84375-.412109375-3.298828125-1.234375-4.3623046875-.8232421875-1.078125-1.951171875-1.6171875-3.3837890625-1.6171875-1.390625,0-2.5185546875,.5390625-3.3828125,1.6171875-.8662109375,1.0927734375-1.298828125,2.546875-1.298828125,4.3623046875,0,1.873046875,.4541015625,3.3408203125,1.3623046875,4.4052734375,.8369140625,.9931640625,1.9365234375,1.4892578125,3.2978515625,1.4892578125,1.4755859375,0,2.6181640625-.517578125,3.4267578125-1.5537109375,.80859375-1.03515625,1.212890625-2.482421875,1.212890625-4.3408203125Z" style="fill: #f4c500;"/>
          <path d="M310.9716796875,228.45703125h-3.064453125v6.576171875h-4.1708984375v-18.4716796875h7.5966796875c2.298828125,0,4.0576171875,.560546875,5.27734375,1.681640625,1.12109375,1.021484375,1.681640625,2.3974609375,1.681640625,4.1279296875,0,2.7099609375-1.064453125,4.51171875-3.1923828125,5.4052734375-1.078125,.4541015625-2.4541015625,.6806640625-4.1279296875,.6806640625Zm-.3408203125-8.681640625h-2.7236328125v5.5107421875h2.7236328125c1.064453125,0,1.8798828125-.2333984375,2.447265625-.7021484375,.5673828125-.4677734375,.8515625-1.1552734375,.8515625-2.0634765625,0-.8369140625-.26953125-1.4970703125-.80859375-1.9794921875-.568359375-.5107421875-1.3974609375-.765625-2.490234375-.765625Z" style="fill: #f4c500;"/>
          <path d="M335.5283203125,235.033203125h-4.064453125v-12.896484375c-1.7587890625,1.3056640625-3.6884765625,2.298828125-5.7880859375,2.9794921875v-3.4892578125c2.9794921875-1.12109375,5.2138671875-2.81640625,6.703125-5.0859375h3.1494140625v18.4921875Z" style="fill: #f4c500;"/>
          <path d="M351.87109375,220.796875l-3.7666015625,.6376953125c-.212890625-.7373046875-.50390625-1.2763671875-.873046875-1.6171875-.4111328125-.3828125-.96484375-.57421875-1.6591796875-.57421875-2.1572265625,0-3.255859375,1.943359375-3.298828125,5.8310546875,.8935546875-1.2626953125,2.2626953125-1.916015625,4.107421875-1.9580078125,1.7587890625,0,3.1982421875,.5888671875,4.3193359375,1.765625,1.0498046875,1.107421875,1.5751953125,2.4404296875,1.5751953125,4.0009765625,0,1.830078125-.560546875,3.333984375-1.681640625,4.51171875-1.2197265625,1.2763671875-2.88671875,1.9150390625-5.0009765625,1.9150390625-2.4677734375,0-4.2763671875-.7021484375-5.42578125-2.1064453125-1.2490234375-1.5185546875-1.873046875-4.0078125-1.873046875-7.4697265625,0-2.9365234375,.6171875-5.2490234375,1.8515625-6.9375,1.2626953125-1.73046875,3.04296875-2.595703125,5.3408203125-2.595703125,3.4755859375,0,5.6044921875,1.5322265625,6.384765625,4.5966796875Zm-3.490234375,8.341796875c0-.89453125-.2626953125-1.6103515625-.787109375-2.1494140625-.5400390625-.5537109375-1.2626953125-.830078125-2.1708984375-.830078125-.921875,0-1.66015625,.26953125-2.212890625,.80859375-.5390625,.525390625-.80859375,1.19921875-.80859375,2.021484375,0,1.0078125,.3046875,1.8017578125,.9150390625,2.3837890625,.5810546875,.552734375,1.3408203125,.8291015625,2.2763671875,.8291015625,.794921875,0,1.4541015625-.283203125,1.9794921875-.8505859375,.5390625-.58203125,.80859375-1.3193359375,.80859375-2.212890625Z" style="fill: #f4c500;"/>
          <path d="M357.8076171875,225.392578125v-.0205078125c-1.12109375-.26953125-1.978515625-.7880859375-2.5751953125-1.5537109375-.5673828125-.7236328125-.8505859375-1.6171875-.8505859375-2.681640625,0-1.3193359375,.5673828125-2.447265625,1.7021484375-3.3828125,1.248046875-1.021484375,2.8798828125-1.5322265625,4.89453125-1.5322265625,2.0283203125,0,3.65234375,.517578125,4.873046875,1.552734375,1.091796875,.9228515625,1.638671875,2.029296875,1.638671875,3.3203125,0,1.0927734375-.291015625,1.978515625-.873046875,2.66015625-.6240234375,.72265625-1.6025390625,1.2548828125-2.9365234375,1.595703125v.021484375c1.447265625,.2548828125,2.546875,.822265625,3.298828125,1.7021484375,.666015625,.7802734375,1,1.7021484375,1,2.7666015625,0,1.7587890625-.5888671875,3.099609375-1.7666015625,4.021484375-1.248046875,.978515625-3.134765625,1.46875-5.66015625,1.46875-2.0712890625,0-3.716796875-.46875-4.9365234375-1.4052734375-1.220703125-.935546875-1.830078125-2.234375-1.830078125-3.8935546875,0-1.12109375,.33984375-2.0859375,1.021484375-2.89453125,.708984375-.8369140625,1.708984375-1.41796875,3-1.7451171875Zm6.0224609375,4.490234375c0-.7373046875-.234375-1.3408203125-.7021484375-1.80859375-.4970703125-.49609375-1.2841796875-.8798828125-2.3623046875-1.1494140625-1.873046875,.5107421875-2.80859375,1.490234375-2.80859375,2.9365234375,0,.7529296875,.26171875,1.35546875,.787109375,1.8095703125,.5390625,.4677734375,1.248046875,.7021484375,2.1279296875,.7021484375,.9365234375,0,1.6669921875-.2265625,2.19140625-.681640625,.5107421875-.439453125,.7666015625-1.0419921875,.7666015625-1.80859375Zm-.5107421875-8.51171875c0-.708984375-.19921875-1.255859375-.595703125-1.638671875-.412109375-.3828125-1-.57421875-1.7666015625-.57421875-.751953125,0-1.3408203125,.1982421875-1.7666015625,.595703125-.4248046875,.3974609375-.6376953125,.9296875-.6376953125,1.595703125-.04296875,1.2060546875,.7587890625,2.04296875,2.404296875,2.51171875,.8515625-.2412109375,1.46875-.58203125,1.8515625-1.021484375,.3408203125-.3837890625,.5107421875-.873046875,.5107421875-1.46875Z" style="fill: #f4c500;"/>
        </g>
      </g>
    </g>
  </g>
</svg>