<?xml version="1.0" encoding="UTF-8"?>
<svg id="Layer_2" data-name="Layer 2" xmlns="http://www.w3.org/2000/svg" viewBox="0 0 396.1328125 251.004723437499706">
  <g id="TEXT">
    <g>
      <text transform="translate(0 171.231258869171143)" style="font-family: FZLTTHB--BIG5-0, FZLanTingHei-H-BIG5; font-size: 23.214399337768555px;"><tspan x="0" y="0">木製方程式F3賽車DIY模型</tspan></text>
      <text transform="translate(.5634765625 24.6650390625)" style="font-family: FZLTTHB--BIG5-0, FZLanTingHei-H-BIG5;"><tspan style="font-size: 29.017999649047852px;"><tspan x="0" y="0">Wooden F3 ArtDrive：</tspan></tspan><tspan style="font-size: 35.788871765136719px;"><tspan x="0" y="47.58984375">Craft &amp; Paint Your </tspan></tspan><tspan style="font-size: 35.788871765136719px;"><tspan x="0" y="95.1787109375">Track Legend</tspan></tspan></text>
      <g>
        <g>
          <polygon points="0 198.772323437500745 17.410800000001473 251.004723437499706 26.11620000000039 251.004723437499706 8.705399999998917 198.772323437500745 0 198.772323437500745"/>
          <polygon points="130.581000000000131 198.772323437500745 17.410800000001473 198.772323437500745 34.821599999999307 251.004723437499706 147.991799999999785 251.004723437499706 130.581000000000131 198.772323437500745"/>
        </g>
        <g>
          <polygon points="165.402600000001257 198.772323437500745 182.813399999999092 251.004723437499706 191.518799999999828 251.004723437499706 174.108000000000175 198.772323437500745 165.402600000001257 198.772323437500745"/>
          <polygon points="374.332200000000739 198.772323437500745 182.813399999999092 198.772323437500745 200.224200000000565 251.004723437499706 391.743000000000393 251.004723437499706 374.332200000000739 198.772323437500745"/>
        </g>
        <g>
          <path d="M50.46484375,224.998046875c.87890625,1.291015625,1.3046875,2.8515625,1.2763671875,4.681640625,0,1.19140625-.1982421875,2.0927734375-.595703125,2.7021484375-.3974609375,.6103515625-1.0634765625,.9931640625-2,1.1494140625-.42578125,.0703125-.81640625,.1201171875-1.1708984375,.1484375l-.33984375-1.212890625v3.703125h-2.89453125v-19.322265625h6.958984375v2.9150390625l-1.234375,5.2353515625Zm-2.830078125-5.150390625v10.5341796875c.169921875,0,.2978515625-.0078125,.3828125-.021484375,.609375-.04296875,.9150390625-.5322265625,.9150390625-1.46875,0-1.078125-.3759765625-2.2265625-1.1279296875-3.447265625l1.1279296875-5.5966796875h-1.2978515625Zm16.5126953125,10.0439453125c-.751953125,.4970703125-1.6103515625,1.021484375-2.5751953125,1.5751953125,.7802734375,.5390625,1.7314453125,1.0146484375,2.8515625,1.42578125-.595703125,1.021484375-1.1201171875,2-1.57421875,2.9365234375-2-.8798828125-3.5400390625-1.9931640625-4.6181640625-3.3408203125v2.234375c-1.2197265625,.2412109375-2.3056640625,.49609375-3.255859375,.765625-.7373046875,.212890625-1.390625,.4609375-1.95703125,.7451171875l-1.447265625-2.447265625c.26953125-.3115234375,.4541015625-.6171875,.552734375-.9150390625,.099609375-.2978515625,.1494140625-.6875,.1494140625-1.169921875v-14.7685546875h10.9169921875v11.0654296875h-.5322265625l1.4892578125,1.8935546875Zm-8.8525390625-10.0224609375v1.2978515625h4.916015625v-1.2978515625h-4.916015625Zm0,5.255859375h4.916015625v-1.3193359375h-4.916015625v1.3193359375Zm2.3623046875,6.5546875c-.5390625-.8515625-.986328125-1.8017578125-1.3408203125-2.8515625l2.638671875-.830078125h-3.66015625v4.298828125c.794921875-.1982421875,1.58203125-.404296875,2.3623046875-.6171875Zm2.1064453125-2.1064453125c.7373046875-.5107421875,1.4326171875-1.0361328125,2.0859375-1.5751953125h-2.830078125c.2119140625,.6103515625,.4599609375,1.134765625,.744140625,1.5751953125Z" style="fill: #f4c500;"/>
          <path d="M67.1484375,225.125h16.5986328125v5.8740234375h-6.6611328125v.6376953125h7.12890625v1.5966796875h-7.12890625v.6376953125h8.384765625v1.7451171875h-20.0673828125v-1.7451171875h8.4052734375v-.6376953125h-7.1279296875v-1.5966796875h7.1279296875v-.6376953125h-6.66015625v-5.8740234375Zm-1.7021484375-.552734375v-1.7451171875h20.0029296875v1.7451171875h-20.0029296875Zm1.638671875-2.298828125v-5.681640625h16.7255859375v5.681640625h-16.7255859375Zm3.255859375,4.3623046875v.703125h3.4677734375v-.703125h-3.4677734375Zm0,2.12890625v.72265625h3.4677734375v-.72265625h-3.4677734375Zm.0205078125-10.4697265625v.57421875h10.171875v-.57421875h-10.171875Zm0,2.404296875h10.171875v-.57421875h-10.171875v.57421875Zm10.193359375,5.9365234375h-3.46875v.703125h3.46875v-.703125Zm0,2.8515625v-.72265625h-3.46875v.72265625h3.46875Z" style="fill: #f4c500;"/>
          <path d="M86.83203125,230.7861328125l4.064453125-.873046875c.1982421875,.951171875,.5673828125,1.66015625,1.1064453125,2.1279296875,.5107421875,.4404296875,1.15625,.66015625,1.9365234375,.66015625,.779296875,0,1.439453125-.2978515625,1.978515625-.8935546875,.5390625-.5966796875,.80859375-1.3408203125,.80859375-2.234375,0-.96484375-.248046875-1.7236328125-.744140625-2.27734375-.525390625-.58203125-1.263671875-.8720703125-2.2138671875-.8720703125-1.2333984375,.056640625-2.1845703125,.4248046875-2.8515625,1.1064453125l-3.3408203125-.021484375,.681640625-10.40625h11.4912109375v3.3203125h-8.0869140625l-.3828125,4.255859375c1.021484375-.6953125,2.2060546875-1.04296875,3.5537109375-1.04296875,1.873046875,0,3.3408203125,.525390625,4.4052734375,1.5751953125,1.048828125,1.03515625,1.57421875,2.4326171875,1.57421875,4.19140625,0,1.9580078125-.5888671875,3.490234375-1.7666015625,4.5966796875-1.2197265625,1.1494140625-2.9287109375,1.7236328125-5.1279296875,1.7236328125-1.943359375,0-3.50390625-.42578125-4.681640625-1.2763671875-1.12109375-.80859375-1.9228515625-2.029296875-2.404296875-3.66015625Z" style="fill: #f4c500;"/>
          <path d="M107.3671875,236.083984375h-3.234375v-9.0859375c-.412109375,.6240234375-.9296875,1.369140625-1.5537109375,2.234375-.11328125-1.291015625-.291015625-2.873046875-.5322265625-4.7451171875,1.560546875-2.5400390625,2.7734375-5.3203125,3.6396484375-8.341796875l3.3828125,.787109375c-.5107421875,1.5185546875-1.078125,2.951171875-1.7021484375,4.298828125v14.8525390625Zm12.6611328125-3.638671875c-.0419921875,1.12109375-.283203125,1.9228515625-.72265625,2.4052734375-.482421875,.5390625-1.3056640625,.84375-2.46875,.9150390625-.751953125,.056640625-1.73828125,.091796875-2.9580078125,.1064453125-.212890625-1.05078125-.447265625-2.04296875-.7021484375-2.9794921875,.6240234375,.0146484375,1.326171875,.021484375,2.1064453125,.021484375,.5390625,0,.908203125-.0849609375,1.1064453125-.255859375,.19921875-.169921875,.3046875-.49609375,.3193359375-.978515625,.0712890625-1.177734375,.1201171875-2.482421875,.1494140625-3.916015625h-2.638671875c-.0859375,1.9443359375-.42578125,3.51171875-1.021484375,4.703125-.6103515625,1.2197265625-1.6953125,2.4609375-3.255859375,3.7236328125-.58203125-.5390625-1.412109375-1.2763671875-2.490234375-2.212890625,1.291015625-.8935546875,2.177734375-1.7734375,2.66015625-2.638671875,.49609375-.87890625,.765625-2.0712890625,.80859375-3.5751953125h-.978515625v-2c-.35546875,.412109375-.759765625,.8232421875-1.212890625,1.234375-.2841796875-.80859375-.7099609375-1.6884765625-1.27734375-2.638671875,.751953125-.7236328125,1.517578125-1.794921875,2.298828125-3.212890625,.8369140625-1.50390625,1.453125-2.986328125,1.8505859375-4.4482421875l2.7666015625,.8515625c-.865234375,2.80859375-2.0849609375,5.234375-3.66015625,7.27734375h8.8525390625c-1.4755859375-1.5888671875-2.759765625-3.5322265625-3.8515625-5.830078125h-.978515625v-2.51171875h3.2978515625c.5244140625,1.50390625,1.134765625,2.7666015625,1.830078125,3.7880859375,.65234375,.978515625,1.4755859375,1.873046875,2.46875,2.681640625-.3271484375,1.234375-.6171875,2.4609375-.873046875,3.6806640625-.4677734375-.396484375-.8583984375-.7509765625-1.169921875-1.0634765625-.1416015625,3.8447265625-.2275390625,6.1357421875-.255859375,6.873046875Z" style="fill: #f4c500;"/>
          <path d="M217,236.1484375h-3.021484375v-8.958984375c-.2841796875,.482421875-.73828125,1.220703125-1.3623046875,2.212890625-.11328125-1.57421875-.26953125-3.099609375-.4677734375-4.5751953125,1.34765625-2.638671875,2.3544921875-5.5537109375,3.021484375-8.74609375l2.9365234375,.595703125h14.1728515625v2.2138671875h-4.0439453125v.787109375h3.703125v4.3408203125h-13.98046875v-4.3408203125h3.638671875v-.787109375h-3.5322265625v-1.5966796875c-.35546875,1.291015625-.7099609375,2.4267578125-1.064453125,3.4052734375v15.44921875Zm6.0859375-3.107421875l1.1064453125,2.0224609375c-.9931640625,.2548828125-2.986328125,.666015625-5.9794921875,1.2333984375-.26953125-.7373046875-.5888671875-1.5322265625-.95703125-2.3828125,1.943359375-.2841796875,3.88671875-.57421875,5.830078125-.873046875Zm-4.5107421875-.0419921875v-8.341796875h12.6826171875v8.341796875h-12.6826171875Zm2-11.5546875v.80859375h1.021484375v-.80859375h-1.021484375Zm7.703125,4.8935546875h-6.724609375v.66015625h6.724609375v-.66015625Zm-6.724609375,2.1494140625v.66015625h6.724609375v-.66015625h-6.724609375Zm0,2.830078125h6.724609375v-.6591796875h-6.724609375v.6591796875Zm2.703125-12.4267578125v.787109375h1.3193359375v-.787109375h-1.3193359375Zm0,2.5537109375v.80859375h1.3193359375v-.80859375h-1.3193359375Zm2.212890625,11.6396484375c.6943359375,.11328125,2.708984375,.412109375,6.04296875,.8935546875l-.9150390625,2.255859375c-4-.765625-6.0361328125-1.15625-6.1064453125-1.169921875l.978515625-1.9794921875Zm2.8515625-10.8310546875v-.80859375h-1.0859375v.80859375h1.0859375Z" style="fill: #f4c500;"/>
          <path d="M236.662109375,216.0810546875l3.234375,.830078125c-.0849609375,.2841796875-.1484375,.4892578125-.19140625,.6171875h5.0859375l.169921875-1.57421875,3.234375,.361328125-.1484375,1.212890625h5.3203125v2.5322265625h-5.5966796875l-.1064453125,.8935546875h4.873046875v12.1083984375h1.1484375v2.5322265625h-14.74609375v-2.5322265625h1.1484375v-12.1083984375h4.3203125l.0849609375-.8935546875h-4.9365234375v-2.1064453125c-.3408203125,1.0078125-.703125,1.986328125-1.0859375,2.9365234375v15.2578125h-3.064453125v-9.12890625c-.4677734375,.751953125-.95703125,1.517578125-1.4677734375,2.2978515625-.3125-2.6669921875-.4970703125-4.1630859375-.5537109375-4.490234375,1.34765625-2.5673828125,2.4404296875-5.482421875,3.27734375-8.74609375Zm6.5751953125,7.3203125v.8515625h6.150390625v-.8515625h-6.150390625Zm0,2.916015625v.8720703125h6.150390625v-.8720703125h-6.150390625Zm0,2.9365234375v.8720703125h6.150390625v-.8720703125h-6.150390625Zm0,2.9365234375v.8720703125h6.150390625v-.8720703125h-6.150390625Z" style="fill: #f4c500;"/>
          <path d="M281.0732421875,235.4677734375h-3.9794921875v-11.044921875c0-1.3046875,.0498046875-2.673828125,.1494140625-4.1064453125h-.064453125c-.212890625,1.3193359375-.42578125,2.361328125-.638671875,3.1279296875l-3.42578125,12.0234375h-3.5107421875l-3.4052734375-12.3857421875c-.2265625-.80859375-.4462890625-1.7373046875-.6591796875-2.787109375h-.064453125c.11328125,1.81640625,.1708984375,3.4755859375,.1708984375,4.9794921875v10.193359375h-3.9375v-18.4716796875h6.171875l3.234375,12.0234375c.11328125,.42578125,.19140625,1.0849609375,.234375,1.9794921875h.0419921875c.04296875-.9365234375,.1201171875-1.603515625,.234375-2.0009765625l3.255859375-12.001953125h6.1923828125v18.4716796875Z" style="fill: #f4c500;"/>
          <path d="M301.48046875,226.2744140625c0,2.8515625-.8447265625,5.1572265625-2.5322265625,6.916015625-1.673828125,1.7451171875-3.859375,2.6171875-6.5546875,2.6171875-2.6806640625-.0419921875-4.8583984375-.9150390625-6.5322265625-2.6171875-1.66015625-1.7021484375-2.5185546875-4.0078125-2.5751953125-6.916015625,0-2.80859375,.787109375-5.078125,2.3623046875-6.8095703125,1.6591796875-1.8154296875,3.908203125-2.7236328125,6.7451171875-2.7236328125,2.7529296875,0,4.9794921875,.943359375,6.6826171875,2.830078125,1.6025390625,1.787109375,2.404296875,4.021484375,2.404296875,6.703125Zm-4.5537109375,0c0-1.84375-.412109375-3.298828125-1.234375-4.3623046875-.8232421875-1.078125-1.951171875-1.6171875-3.3837890625-1.6171875-1.390625,0-2.5185546875,.5390625-3.3828125,1.6171875-.8662109375,1.0927734375-1.298828125,2.546875-1.298828125,4.3623046875,0,1.873046875,.4541015625,3.3408203125,1.3623046875,4.4052734375,.8369140625,.9931640625,1.9365234375,1.4892578125,3.2978515625,1.4892578125,1.4755859375,0,2.6181640625-.517578125,3.4267578125-1.5537109375,.80859375-1.03515625,1.212890625-2.482421875,1.212890625-4.3408203125Z" style="fill: #f4c500;"/>
          <path d="M310.9716796875,228.8916015625h-3.064453125v6.576171875h-4.1708984375v-18.4716796875h7.5966796875c2.298828125,0,4.0576171875,.560546875,5.27734375,1.681640625,1.12109375,1.021484375,1.681640625,2.3974609375,1.681640625,4.1279296875,0,2.7099609375-1.064453125,4.51171875-3.1923828125,5.4052734375-1.078125,.4541015625-2.4541015625,.6806640625-4.1279296875,.6806640625Zm-.3408203125-8.681640625h-2.7236328125v5.5107421875h2.7236328125c1.064453125,0,1.8798828125-.2333984375,2.447265625-.7021484375,.5673828125-.4677734375,.8515625-1.1552734375,.8515625-2.0634765625,0-.8369140625-.26953125-1.4970703125-.80859375-1.9794921875-.568359375-.5107421875-1.3974609375-.765625-2.490234375-.765625Z" style="fill: #f4c500;"/>
          <path d="M335.5283203125,235.4677734375h-4.064453125v-12.896484375c-1.7587890625,1.3056640625-3.6884765625,2.298828125-5.7880859375,2.9794921875v-3.4892578125c2.9794921875-1.12109375,5.2138671875-2.81640625,6.703125-5.0859375h3.1494140625v18.4921875Z" style="fill: #f4c500;"/>
          <path d="M351.87109375,221.2314453125l-3.7666015625,.6376953125c-.212890625-.7373046875-.50390625-1.2763671875-.873046875-1.6171875-.4111328125-.3828125-.96484375-.57421875-1.6591796875-.57421875-2.1572265625,0-3.255859375,1.943359375-3.298828125,5.8310546875,.8935546875-1.2626953125,2.2626953125-1.916015625,4.107421875-1.9580078125,1.7587890625,0,3.1982421875,.5888671875,4.3193359375,1.765625,1.0498046875,1.107421875,1.5751953125,2.4404296875,1.5751953125,4.0009765625,0,1.830078125-.560546875,3.333984375-1.681640625,4.51171875-1.2197265625,1.2763671875-2.88671875,1.9150390625-5.0009765625,1.9150390625-2.4677734375,0-4.2763671875-.7021484375-5.42578125-2.1064453125-1.2490234375-1.5185546875-1.873046875-4.0078125-1.873046875-7.4697265625,0-2.9365234375,.6171875-5.2490234375,1.8515625-6.9375,1.2626953125-1.73046875,3.04296875-2.595703125,5.3408203125-2.595703125,3.4755859375,0,5.6044921875,1.5322265625,6.384765625,4.5966796875Zm-3.490234375,8.341796875c0-.89453125-.2626953125-1.6103515625-.787109375-2.1494140625-.5400390625-.5537109375-1.2626953125-.830078125-2.1708984375-.830078125-.921875,0-1.66015625,.26953125-2.212890625,.80859375-.5390625,.525390625-.80859375,1.19921875-.80859375,2.021484375,0,1.0078125,.3046875,1.8017578125,.9150390625,2.3837890625,.5810546875,.552734375,1.3408203125,.8291015625,2.2763671875,.8291015625,.794921875,0,1.4541015625-.283203125,1.9794921875-.8505859375,.5390625-.58203125,.80859375-1.3193359375,.80859375-2.212890625Z" style="fill: #f4c500;"/>
          <path d="M357.8076171875,225.8271484375v-.0205078125c-1.12109375-.26953125-1.978515625-.7880859375-2.5751953125-1.5537109375-.5673828125-.7236328125-.8505859375-1.6171875-.8505859375-2.681640625,0-1.3193359375,.5673828125-2.447265625,1.7021484375-3.3828125,1.248046875-1.021484375,2.8798828125-1.5322265625,4.89453125-1.5322265625,2.0283203125,0,3.65234375,.517578125,4.873046875,1.552734375,1.091796875,.9228515625,1.638671875,2.029296875,1.638671875,3.3203125,0,1.0927734375-.291015625,1.978515625-.873046875,2.66015625-.6240234375,.72265625-1.6025390625,1.2548828125-2.9365234375,1.595703125v.021484375c1.447265625,.2548828125,2.546875,.822265625,3.298828125,1.7021484375,.666015625,.7802734375,1,1.7021484375,1,2.7666015625,0,1.7587890625-.5888671875,3.099609375-1.7666015625,4.021484375-1.248046875,.978515625-3.134765625,1.46875-5.66015625,1.46875-2.0712890625,0-3.716796875-.46875-4.9365234375-1.4052734375-1.220703125-.935546875-1.830078125-2.234375-1.830078125-3.8935546875,0-1.12109375,.33984375-2.0859375,1.021484375-2.89453125,.708984375-.8369140625,1.708984375-1.41796875,3-1.7451171875Zm6.0224609375,4.490234375c0-.7373046875-.234375-1.3408203125-.7021484375-1.80859375-.4970703125-.49609375-1.2841796875-.8798828125-2.3623046875-1.1494140625-1.873046875,.5107421875-2.80859375,1.490234375-2.80859375,2.9365234375,0,.7529296875,.26171875,1.35546875,.787109375,1.8095703125,.5390625,.4677734375,1.248046875,.7021484375,2.1279296875,.7021484375,.9365234375,0,1.6669921875-.2265625,2.19140625-.681640625,.5107421875-.439453125,.7666015625-1.0419921875,.7666015625-1.80859375Zm-.5107421875-8.51171875c0-.708984375-.19921875-1.255859375-.595703125-1.638671875-.412109375-.3828125-1-.57421875-1.7666015625-.57421875-.751953125,0-1.3408203125,.1982421875-1.7666015625,.595703125-.4248046875,.3974609375-.6376953125,.9296875-.6376953125,1.595703125-.04296875,1.2060546875,.7587890625,2.04296875,2.404296875,2.51171875,.8515625-.2412109375,1.46875-.58203125,1.8515625-1.021484375,.3408203125-.3837890625,.5107421875-.873046875,.5107421875-1.46875Z" style="fill: #f4c500;"/>
        </g>
      </g>
    </g>
  </g>
</svg>