<?xml version="1.0" encoding="UTF-8"?>
<svg id="Layer_2" data-name="Layer 2" xmlns="http://www.w3.org/2000/svg" viewBox="0 0 405 209.3037109375">
  <g id="TEXT">
    <g>
      <g>
        <g>
          <path d="M.888671875,80.7294921875l4.51171875-1.201171875c.0634765625,1.568359375,.3994140625,2.705078125,1.0078125,3.408203125,.52734375,.625,1.287109375,.9365234375,2.279296875,.9365234375,1.041015625,0,1.80859375-.3525390625,2.3046875-1.0556640625,.52734375-.751953125,.7919921875-1.9765625,.7919921875-3.671875v-12.384765625h4.6796875v12.576171875c0,2.8798828125-.6083984375,5.0322265625-1.8232421875,6.4560546875-1.232421875,1.4404296875-3.12109375,2.16015625-5.6640625,2.16015625-2.369140625,0-4.216796875-.6005859375-5.544921875-1.7998046875-1.3115234375-1.18359375-2.16015625-2.9921875-2.54296875-5.423828125Z"/>
          <path d="M34.19921875,87.544921875h-4.53515625v-2.3037109375c-1.0078125,1.759765625-2.552734375,2.6396484375-4.6328125,2.6396484375-1.87109375,0-3.287109375-.5517578125-4.248046875-1.6552734375-.927734375-1.056640625-1.390625-2.5927734375-1.390625-4.6083984375v-8.9755859375h4.53515625v8.591796875c0,1.119140625,.263671875,1.935546875,.7919921875,2.447265625,.4794921875,.46484375,1.2001953125,.6962890625,2.16015625,.6962890625,.7841796875,0,1.4404296875-.3193359375,1.9677734375-.9599609375,.5439453125-.65625,.81640625-1.49609375,.81640625-2.51953125v-8.255859375h4.53515625v14.9033203125Z"/>
          <path d="M60.744140625,87.5205078125h-4.5361328125v-8.4716796875c0-1.1201171875-.1845703125-1.935546875-.5517578125-2.4482421875-.384765625-.52734375-1.0166015625-.791015625-1.896484375-.791015625-.81640625,0-1.4560546875,.271484375-1.919921875,.8154296875-.49609375,.5927734375-.744140625,1.4482421875-.744140625,2.5673828125v8.328125h-4.5595703125v-8.591796875c0-1.0390625-.1845703125-1.8076171875-.5517578125-2.3037109375-.400390625-.5439453125-1.048828125-.8154296875-1.9443359375-.8154296875-.7685546875,0-1.3837890625,.3037109375-1.8486328125,.912109375-.4794921875,.623046875-.71875,1.462890625-.71875,2.51953125v8.279296875h-4.537109375v-14.85546875h4.537109375v2.3037109375c1.0703125-1.7919921875,2.7109375-2.6884765625,4.919921875-2.6884765625,2.126953125,0,3.5830078125,.9208984375,4.3671875,2.7607421875,1.103515625-1.83984375,2.7998046875-2.7607421875,5.087890625-2.7607421875,1.599609375,0,2.81640625,.5048828125,3.6484375,1.5126953125s1.248046875,2.49609375,1.248046875,4.4638671875v9.263671875Z"/>
          <path d="M68.16015625,85.79296875v7.4404296875h-4.51171875v-20.591796875h4.51171875v2.255859375c.48046875-.83203125,1.19140625-1.48046875,2.1357421875-1.9443359375,.8955078125-.4326171875,1.8642578125-.6474609375,2.904296875-.6474609375,1.8876953125,0,3.3515625,.703125,4.3916015625,2.111328125,.9765625,1.3125,1.46484375,3.064453125,1.46484375,5.255859375,0,5.47265625-2.1767578125,8.2080078125-6.529296875,8.2080078125-.912109375,0-1.744140625-.1767578125-2.49609375-.5283203125-.798828125-.3671875-1.423828125-.8876953125-1.87109375-1.5595703125Zm0-6.0966796875v1.056640625c0,1.18359375,.287109375,2.095703125,.86328125,2.736328125,.5283203125,.591796875,1.232421875,.8876953125,2.1123046875,.8876953125,2.1435546875,0,3.2158203125-1.5517578125,3.2158203125-4.6552734375,0-1.201171875-.248046875-2.14453125-.744140625-2.83203125-.52734375-.736328125-1.287109375-1.1044921875-2.279296875-1.1044921875-1.041015625,0-1.83203125,.3447265625-2.3759765625,1.0322265625-.5283203125,.671875-.7919921875,1.630859375-.7919921875,2.87890625Z"/>
          <path d="M108.263671875,77.2255859375c0,3.21484375-.951171875,5.8154296875-2.85546875,7.798828125-1.888671875,1.96875-4.3525390625,2.953125-7.392578125,2.953125-3.0234375-.048828125-5.48046875-1.033203125-7.3671875-2.953125-1.873046875-1.919921875-2.8408203125-4.51953125-2.904296875-7.798828125,0-3.16796875,.8876953125-5.728515625,2.6640625-7.6806640625,1.87109375-2.0478515625,4.4072265625-3.0712890625,7.607421875-3.0712890625,3.103515625,0,5.6162109375,1.0634765625,7.5361328125,3.19140625,1.8076171875,2.015625,2.7119140625,4.5361328125,2.7119140625,7.560546875Zm-5.1357421875,0c0-2.080078125-.4638671875-3.720703125-1.3916015625-4.919921875-.9287109375-1.216796875-2.201171875-1.82421875-3.81640625-1.82421875-1.568359375,0-2.83984375,.607421875-3.81640625,1.82421875-.9755859375,1.2314453125-1.462890625,2.87109375-1.462890625,4.919921875,0,2.111328125,.51171875,3.767578125,1.53515625,4.966796875,.943359375,1.12109375,2.18359375,1.6806640625,3.720703125,1.6806640625,1.6630859375,0,2.951171875-.583984375,3.86328125-1.751953125s1.3681640625-2.7998046875,1.3681640625-4.8955078125Z"/>
          <path d="M121.9677734375,65.7529296875l-1.3447265625,3.3125c-.591796875-.255859375-1.1435546875-.384765625-1.6552734375-.384765625-.6884765625,0-1.1845703125,.16796875-1.48828125,.50390625s-.4560546875,.8642578125-.4560546875,1.583984375v1.896484375h3.216796875v3.408203125h-3.216796875v11.51953125h-4.53515625v-11.51953125h-2.44921875v-3.408203125h2.44921875v-1.80078125c0-2.03125,.431640625-3.4873046875,1.294921875-4.3671875,.84765625-.8642578125,2.248046875-1.2958984375,4.201171875-1.2958984375,1.470703125,0,2.798828125,.1845703125,3.9833984375,.5517578125Z"/>
          <path d="M133.9921875,65.7529296875l-1.3447265625,3.3125c-.591796875-.255859375-1.1435546875-.384765625-1.6552734375-.384765625-.6884765625,0-1.1845703125,.16796875-1.48828125,.50390625-.3046875,.3359375-.4560546875,.8642578125-.4560546875,1.583984375v1.896484375h3.2158203125v3.408203125h-3.2158203125v11.51953125h-4.5361328125v-11.51953125h-2.4482421875v-3.408203125h2.4482421875v-1.80078125c0-2.03125,.431640625-3.4873046875,1.2958984375-4.3671875,.84765625-.8642578125,2.2470703125-1.2958984375,4.2001953125-1.2958984375,1.4716796875,0,2.7998046875,.1845703125,3.984375,.5517578125Z"/>
          <path d="M146.375,83.7763671875h9.81640625v3.81640625h-15.240234375v-2.904296875c.7041015625-1.103515625,1.583984375-2.2314453125,2.640625-3.3828125,1.103515625-1.201171875,2.2314453125-2.224609375,3.3837890625-3.072265625,1.8232421875-1.376953125,3.0556640625-2.46484375,3.6962890625-3.2646484375,.576171875-.7197265625,.86328125-1.4482421875,.86328125-2.18359375,0-.81640625-.224609375-1.4560546875-.671875-1.9208984375-.51171875-.52734375-1.248046875-.791015625-2.2080078125-.791015625s-1.7197265625,.287109375-2.2802734375,.86328125c-.5595703125,.576171875-.951171875,1.46484375-1.17578125,2.6640625l-4.2236328125-.8876953125c.7841796875-4.1591796875,3.5595703125-6.2392578125,8.328125-6.2392578125,2.2392578125,0,3.9990234375,.615234375,5.2802734375,1.84765625,1.119140625,1.087890625,1.6796875,2.439453125,1.6796875,4.0556640625,0,1.4873046875-.2880859375,2.6806640625-.8642578125,3.576171875-.6240234375,.9755859375-1.8564453125,2.072265625-3.6962890625,3.2880859375-2.17578125,1.47265625-3.951171875,2.984375-5.328125,4.53515625Z"/>
          <path d="M163.2236328125,70.5283203125h-4.6083984375v-3.767578125h4.6083984375v3.767578125Zm0,17.064453125h-4.6083984375v-14.8798828125h4.6083984375v14.8798828125Z"/>
          <path d="M180.791015625,87.5205078125h-4.5361328125v-8.447265625c0-1.087890625-.2080078125-1.896484375-.6240234375-2.423828125-.447265625-.560546875-1.14453125-.83984375-2.087890625-.83984375-.8798828125,0-1.591796875,.328125-2.1357421875,.9833984375-.5283203125,.6396484375-.7919921875,1.4716796875-.7919921875,2.49609375v8.2314453125h-4.583984375v-14.87890625h4.583984375v2.2314453125c.48046875-.7353515625,1.16015625-1.3447265625,2.0390625-1.82421875,.912109375-.4951171875,1.82421875-.7431640625,2.736328125-.7431640625,1.9521484375,0,3.3603515625,.53515625,4.224609375,1.607421875,.783203125,.9765625,1.17578125,2.4638671875,1.17578125,4.4638671875v9.1435546875Z"/>
          <path d="M193.84765625,87.5927734375h-4.583984375v-14.5439453125c-1.984375,1.4716796875-4.1611328125,2.5927734375-6.529296875,3.3603515625v-3.935546875c3.361328125-1.2646484375,5.880859375-3.1767578125,7.560546875-5.736328125h3.552734375v20.85546875Z"/>
          <path d="M212.6630859375,80.1767578125h-3.4560546875v7.416015625h-4.7041015625v-20.83203125h8.5673828125c2.5927734375,0,4.576171875,.6328125,5.953125,1.896484375,1.263671875,1.15234375,1.8955078125,2.703125,1.8955078125,4.65625,0,3.0556640625-1.2001953125,5.087890625-3.6005859375,6.095703125-1.21484375,.51171875-2.767578125,.767578125-4.6552734375,.767578125Zm-.3837890625-9.7919921875h-3.072265625v6.2158203125h3.072265625c1.19921875,0,2.119140625-.263671875,2.759765625-.791015625,.6396484375-.529296875,.9599609375-1.3046875,.9599609375-2.328125,0-.9443359375-.3037109375-1.6884765625-.912109375-2.232421875-.6396484375-.576171875-1.576171875-.8642578125-2.8076171875-.8642578125Z"/>
          <path d="M238.7265625,80.1533203125c0,2.3671875-.7197265625,4.248046875-2.16015625,5.6396484375-1.455078125,1.4072265625-3.431640625,2.1123046875-5.927734375,2.1123046875-2.3515625,0-4.271484375-.712890625-5.759765625-2.13671875s-2.232421875-3.294921875-2.232421875-5.615234375c0-2.3525390625,.7119140625-4.240234375,2.13671875-5.6640625,1.455078125-1.4560546875,3.439453125-2.18359375,5.951171875-2.18359375,2.591796875,0,4.599609375,.751953125,6.0244140625,2.255859375,1.3115234375,1.3916015625,1.9677734375,3.255859375,1.9677734375,5.591796875Zm-4.703125-.0244140625c0-1.3916015625-.3046875-2.4638671875-.912109375-3.2158203125-.5927734375-.736328125-1.4248046875-1.103515625-2.49609375-1.103515625-1.0888671875,0-1.919921875,.3671875-2.49609375,1.103515625s-.8642578125,1.80859375-.8642578125,3.2158203125c0,1.4248046875,.3271484375,2.5048828125,.9833984375,3.240234375,.591796875,.671875,1.384765625,1.0078125,2.376953125,1.0078125,2.271484375,0,3.408203125-1.416015625,3.408203125-4.248046875Z"/>
          <path d="M255.7421875,87.544921875h-4.53515625v-2.3037109375c-1.0087890625,1.759765625-2.552734375,2.6396484375-4.6328125,2.6396484375-1.87109375,0-3.287109375-.5517578125-4.248046875-1.6552734375-.927734375-1.056640625-1.3916015625-2.5927734375-1.3916015625-4.6083984375v-8.9755859375h4.5361328125v8.591796875c0,1.119140625,.263671875,1.935546875,.791015625,2.447265625,.48046875,.46484375,1.201171875,.6962890625,2.16015625,.6962890625,.7841796875,0,1.4404296875-.3193359375,1.96875-.9599609375,.54296875-.65625,.81640625-1.49609375,.81640625-2.51953125v-8.255859375h4.53515625v14.9033203125Z"/>
          <path d="M274.078125,77.2724609375l-4.65625,.671875c-.20703125-.623046875-.599609375-1.134765625-1.17578125-1.53515625-.560546875-.400390625-1.16796875-.599609375-1.82421875-.599609375-1.119140625,0-2.015625,.3916015625-2.6875,1.17578125-.6875,.7998046875-1.03125,1.86328125-1.03125,3.19140625,0,1.4404296875,.34375,2.51171875,1.03125,3.216796875,.6240234375,.6396484375,1.52734375,.958984375,2.7119140625,.958984375,.7998046875,0,1.4716796875-.2314453125,2.0166015625-.6953125,.5595703125-.48046875,.8955078125-1.13671875,1.0078125-1.96875l4.82421875,.576171875c-.609375,2.015625-1.544921875,3.46484375-2.80859375,4.34375-1.232421875,.865234375-2.9599609375,1.296875-5.18359375,1.296875-2.625,0-4.6640625-.6884765625-6.1201171875-2.064453125-1.4404296875-1.359375-2.16015625-3.2958984375-2.16015625-5.80859375,0-2.3515625,.6962890625-4.20703125,2.087890625-5.5673828125,1.4716796875-1.4404296875,3.5517578125-2.1591796875,6.240234375-2.1591796875,1.8388671875,0,3.4560546875,.455078125,4.84765625,1.3671875,1.3447265625,.880859375,2.3037109375,2.080078125,2.8798828125,3.599609375Z"/>
          <path d="M291.3583984375,87.5205078125h-4.5361328125v-8.447265625c0-2.17578125-.904296875-3.263671875-2.7119140625-3.263671875-.8642578125,0-1.568359375,.3359375-2.1123046875,1.0078125-.52734375,.65625-.791015625,1.48828125-.791015625,2.49609375v8.20703125h-4.560546875v-22.0556640625h4.560546875v9.3837890625c.4951171875-.7197265625,1.17578125-1.3203125,2.0390625-1.7998046875,.896484375-.4951171875,1.80078125-.7431640625,2.712890625-.7431640625,1.87109375,0,3.248046875,.51171875,4.126953125,1.53515625,.84765625,.9921875,1.2724609375,2.50390625,1.2724609375,4.5361328125v9.1435546875Z"/>
          <path d="M1.0322265625,109.3369140625H6.599609375v-.671875H2.80859375v-1.6318359375h3.791015625v-.671875H3.3125v-1.0556640625H1.17578125v-3.6962890625H9.7919921875c-.2236328125-.6552734375-.3525390625-1.0244140625-.3837890625-1.1044921875l4.5595703125-.240234375c.1123046875,.44921875,.2158203125,.896484375,.3115234375,1.3447265625h8.544921875v3.6962890625h-2.13671875v1.0556640625h-3.3828125v.671875h3.88671875v1.6318359375h-3.88671875v.671875h5.638671875v1.82421875h-4.462890625c1.439453125,.640625,3.095703125,1.14453125,4.9677734375,1.51171875-.3837890625,.736328125-.7998046875,1.6171875-1.248046875,2.640625-.49609375-.14453125-1.1611328125-.3681640625-1.9921875-.671875v5.16015625H3.767578125v-5.1123046875c-.560546875,.255859375-1.255859375,.5283203125-2.087890625,.8154296875-.3837890625-.912109375-.783203125-1.7998046875-1.19921875-2.6640625,1.951171875-.447265625,3.623046875-1.0078125,5.015625-1.6796875H1.0322265625v-1.82421875Zm8.591796875,10.5361328125l1.2001953125,2.1845703125c-2.7685546875,.3671875-5.728515625,.798828125-8.880859375,1.294921875-.3994140625-.958984375-.791015625-1.8154296875-1.17578125-2.5673828125,3.568359375-.3203125,6.51953125-.6240234375,8.8564453125-.912109375Zm4.1279296875-15.83984375h3.552734375v.671875h1.919921875v-.9833984375H4.775390625v.9833984375h1.82421875v-.671875h3.552734375v.671875h3.599609375v-.671875Zm-6.3837890625,9.5283203125v.671875h9.2392578125v-.671875H7.3681640625Zm0,1.9921875v.671875h9.2392578125v-.671875H7.3681640625Zm0,1.9921875v.671875h9.2392578125v-.671875H7.3681640625Zm2.591796875-6.384765625c-.671875,.46484375-1.064453125,.736328125-1.17578125,.81640625h6.4560546875c-.095703125-.064453125-.46484375-.3359375-1.103515625-.81640625h-4.1767578125Zm.1923828125-4.7998046875v.671875h3.599609375v-.671875h-3.599609375Zm0,2.3037109375v.671875h3.599609375v-.671875h-3.599609375Zm4.0556640625,11.255859375c1.9033203125,.1923828125,4.9033203125,.50390625,9,.9365234375l-.912109375,2.423828125c-2.4326171875-.3359375-5.4482421875-.744140625-9.0478515625-1.2236328125l.9599609375-2.13671875Z"/>
          <path d="M26.640625,106.3857421875h7.439453125v-1.080078125h-8.591796875v-2.880859375h8.591796875v-1.8955078125h3.83984375v1.8955078125h8.568359375v2.880859375h-8.568359375v1.080078125h7.439453125v10.17578125h-7.439453125v1.103515625h9.408203125v2.927734375h-9.408203125v2.591796875h-3.83984375v-2.591796875h-9.408203125v-2.927734375h9.408203125v-1.103515625h-7.439453125v-10.17578125Zm3.71875,2.591796875v1.3203125h3.720703125v-1.3203125h-3.720703125Zm0,3.6484375v1.34375h3.720703125v-1.34375h-3.720703125Zm11.28125-3.6484375h-3.720703125v1.3203125h3.720703125v-1.3203125Zm-3.720703125,4.9921875h3.720703125v-1.34375h-3.720703125v1.34375Z"/>
          <path d="M70.51171875,106.9853515625v3.2158203125c-.49609375,3.1044921875-1.3515625,5.6083984375-2.568359375,7.5126953125,.9921875,.9921875,2.1845703125,1.85546875,3.576171875,2.591796875-1.16796875,1.34375-1.9677734375,2.294921875-2.3994140625,2.85546875-1.2802734375-.767578125-2.3916015625-1.6875-3.3359375-2.759765625-.9287109375,.927734375-2.1044921875,1.896484375-3.5283203125,2.904296875-.607421875-.8486328125-1.2236328125-1.697265625-1.84765625-2.544921875-.384765625,.751953125-.912109375,1.591796875-1.583984375,2.5205078125-.208984375-.3037109375-.712890625-1-1.51171875-2.087890625v1.583984375h-3.2646484375v-7.7041015625h-.9833984375c-.11328125,3.583984375-.6640625,6.34375-1.65625,8.279296875-1.056640625-.7353515625-2.015625-1.3671875-2.880859375-1.8955078125,.48046875-1.2958984375,.81640625-2.599609375,1.0087890625-3.9111328125,.1923828125-1.3603515625,.2880859375-3.201171875,.2880859375-5.5205078125v-10.7763671875h3.263671875v6.095703125h1.103515625v-6.599609375h3.2646484375v9.6484375h-4.3681640625v1.607421875h4.224609375v7.080078125c.54296875-1.072265625,.927734375-2.255859375,1.1513671875-3.5517578125,.2080078125-1.2158203125,.3115234375-2.7919921875,.3115234375-4.7275390625v-9.6005859375h12.16796875v3.50390625h-8.759765625v2.2802734375h8.328125Zm-6.7197265625,10.6318359375c-.65625-1.1669921875-1.2080078125-2.4482421875-1.6552734375-3.83984375-.11328125,2.5439453125-.6005859375,4.7119140625-1.46484375,6.50390625,1.248046875-.84765625,2.2880859375-1.7353515625,3.1201171875-2.6640625Zm.1435546875-7.1044921875c.4482421875,1.552734375,1.0322265625,2.96875,1.751953125,4.248046875,.5283203125-1.134765625,.919921875-2.55078125,1.17578125-4.248046875h-2.927734375Z"/>
          <path d="M72.671875,102.5458984375h3.048828125c-.14453125-.560546875-.2890625-1.12109375-.4326171875-1.6806640625l3.744140625-.2392578125c.0322265625,.1591796875,.16796875,.798828125,.4072265625,1.919921875h2.736328125v3.16796875h-9.50390625v-3.16796875Zm.48046875,4.03125h8.54296875v.6484375c.78515625-.5283203125,1.328125-1.0078125,1.6328125-1.4404296875,.3203125-.4638671875,.48046875-1.0478515625,.48046875-1.751953125v-2.7119140625h9.16796875v3.3125c0,.3828125,.0712890625,.6474609375,.21484375,.791015625,.14453125,.14453125,.392578125,.216796875,.744140625,.216796875h1.560546875c-.12890625,.736328125-.3046875,1.80859375-.5283203125,3.2158203125h-2.6162109375c-1.82421875-.0166015625-2.7353515625-.9443359375-2.7353515625-2.7841796875v-1.4638671875h-2.5205078125v.2880859375c0,.9599609375-.2158203125,1.7919921875-.6474609375,2.49609375-.4169921875,.6875-1.1611328125,1.447265625-2.232421875,2.279296875-.8642578125-.83203125-1.7041015625-1.607421875-2.5205078125-2.328125v2.041015625h-8.54296875v-2.80859375Zm0,3.671875h8.54296875v2.80859375h-8.54296875v-2.80859375Zm.095703125,12.552734375v-8.8564453125h8.328125v5.9033203125c1.53515625-.4794921875,2.84765625-.9990234375,3.935546875-1.5595703125-.912109375-.9599609375-1.85546875-2.2001953125-2.83203125-3.7197265625l2.3525390625-1.48828125h-2.5927734375v-3.3125h12.1923828125v3.48046875c-.9599609375,1.96875-2.080078125,3.640625-3.3603515625,5.015625,1.216796875,.609375,2.6328125,1.0966796875,4.248046875,1.46484375-.736328125,1.328125-1.3193359375,2.447265625-1.751953125,3.359375-2.17578125-.7041015625-3.9677734375-1.51171875-5.375-2.423828125-1.47265625,.9921875-3.296875,1.83984375-5.47265625,2.544921875-.4482421875-.9287109375-.896484375-1.81640625-1.34375-2.6640625v2.255859375h-3.0244140625v-1.15234375h-2.255859375v1.15234375h-3.0478515625Zm3.0478515625-5.9287109375v1.8486328125h2.255859375v-1.8486328125h-2.255859375Zm9.50390625-3.7919921875c.8798828125,1.296875,1.751953125,2.3515625,2.6162109375,3.16796875,.86328125-.81640625,1.65625-1.87109375,2.3759765625-3.16796875h-4.9921875Z"/>
          <path d="M96.671875,102.5693359375h3.2880859375c-.16015625-.591796875-.3203125-1.18359375-.4794921875-1.775390625l3.8876953125-.240234375c.1435546875,.671875,.2880859375,1.34375,.431640625,2.015625h3.3115234375v3.16796875h-10.439453125v-3.16796875Zm.671875,4.03125h9.14453125v2.80859375h-9.14453125v-2.80859375Zm0,3.6728515625h9.14453125v2.7841796875h-9.14453125v-2.7841796875Zm.048828125,12.83984375v-9.16796875h9.0712890625v9.16796875h-3.2392578125v-1.080078125h-2.5927734375v1.080078125h-3.2392578125Zm3.2392578125-6.1435546875v2.0390625h2.5927734375v-2.0390625h-2.5927734375Zm6.6728515625-9.0966796875h4.0546875v-7.2236328125h3.79296875v7.2236328125h4.271484375v3.6005859375h-4.271484375v11.591796875h-3.79296875v-11.591796875h-4.0546875v-3.6005859375Z"/>
          <path d="M141.912109375,116.6337890625c-.705078125,.3671875-1.7041015625,.85546875-3,1.462890625,1.103515625,.46484375,2.5517578125,.865234375,4.34375,1.201171875-1.16796875,2.0791015625-1.7919921875,3.19921875-1.8720703125,3.359375-3.48828125-1.056640625-6.0166015625-2.3603515625-7.583984375-3.912109375-.1123046875,1.072265625-.1767578125,1.9921875-.1923828125,2.759765625-2.240234375,.4482421875-3.783203125,.79296875-4.630859375,1.0322265625-.912109375,.2236328125-1.736328125,.4873046875-2.47265625,.7919921875l-1.6318359375-2.568359375c.671875-.4638671875,1.0078125-1.0634765625,1.0078125-1.798828125v-.025390625c-1.2314453125,.609375-2.5205078125,1.1611328125-3.8642578125,1.65625-.560546875-1.294921875-1.0556640625-2.375-1.48828125-3.240234375,2.560546875-.7509765625,4.80078125-1.6953125,6.720703125-2.8310546875h-6.359375v-3.0244140625h9.16796875c-.4326171875-.783203125-.865234375-1.568359375-1.296875-2.3515625l3.14453125-1.2001953125c.6396484375,.9921875,1.20703125,1.8876953125,1.703125,2.6884765625l-2.0634765625,.86328125h11.6884765625v3.0244140625h-2.83203125l1.51171875,2.1123046875Zm-14.6162109375-5.6884765625h-3.4560546875v-3.0478515625c-.6875,.49609375-1.4638671875,1.03125-2.328125,1.607421875-.224609375-1.2314453125-.51953125-2.49609375-.8876953125-3.791015625,2.2080078125-1.216796875,4.095703125-2.9443359375,5.6640625-5.1845703125l3.3603515625,1.3916015625c-.7529296875,.9921875-1.537109375,1.9365234375-2.3525390625,2.83203125v6.1923828125Zm.6240234375-6.3603515625l3.7919921875-.3837890625c-.3203125-1.0078125-.6318359375-2.2158203125-.9365234375-3.6240234375h3.625c.287109375,1.216796875,.599609375,2.3046875,.935546875,3.263671875l2.255859375-.240234375c-1.1201171875-.9111328125-1.6953125-1.3828125-1.728515625-1.416015625l2.328125-1.8232421875c.9609375,.7197265625,1.80078125,1.3603515625,2.5205078125,1.919921875l-1.4404296875,1.1513671875,3.2646484375-.3359375,.3359375,2.880859375-2.1357421875,.240234375c.87890625,.3515625,1.751953125,.671875,2.615234375,.958984375-.19140625,.83203125-.3837890625,1.529296875-.576171875,2.087890625-.271484375,.720703125-.6640625,1.232421875-1.17578125,1.537109375-.51171875,.3037109375-1.263671875,.455078125-2.255859375,.455078125-1.9677734375,0-3.6484375-.775390625-5.0390625-2.328125-.560546875-.607421875-1.025390625-1.2392578125-1.392578125-1.8955078125l-4.65625,.50390625-.3359375-2.9521484375Zm6.48046875,10.080078125c.52734375,.591796875,1.046875,1.1123046875,1.5595703125,1.560546875,1.0078125-.5283203125,2.0166015625-1.095703125,3.0244140625-1.7041015625h-6.720703125c-.86328125,.8642578125-1.87109375,1.6962890625-3.0234375,2.4951171875v2.16015625c1.34375-.3193359375,2.6875-.6474609375,4.03125-.9833984375-.591796875-.6240234375-1.19140625-1.3681640625-1.798828125-2.2314453125l2.927734375-1.296875Zm5.736328125-7.3671875c.0791015625-.3525390625,.1513671875-.705078125,.21484375-1.056640625l-3.4794921875,.384765625c.1923828125,.2392578125,.4072265625,.4794921875,.6474609375,.71875,.48046875,.5283203125,1.080078125,.79296875,1.80078125,.79296875,.416015625,0,.6875-.2802734375,.81640625-.83984375Z"/>
        </g>
        <g>
          <path d="M1.951171875,21.9775390625l6.9560546875-1.849609375c.09765625,2.41796875,.6162109375,4.1689453125,1.5537109375,5.25390625,.814453125,.9619140625,1.9853515625,1.443359375,3.5146484375,1.443359375,1.603515625,0,2.787109375-.54296875,3.552734375-1.62890625,.8134765625-1.1591796875,1.220703125-3.0458984375,1.220703125-5.66015625V.443359375h7.21484375V19.83203125c0,4.439453125-.9375,7.7578125-2.8115234375,9.953125-1.900390625,2.2197265625-4.810546875,3.3291015625-8.732421875,3.3291015625-3.650390625,0-6.5-.9248046875-8.546875-2.7744140625-2.0224609375-1.8251953125-3.330078125-4.6123046875-3.921875-8.3623046875Z"/>
          <path d="M30.84765625,18.7216796875V.443359375h7.2529296875V18.7216796875c0,2.7626953125,.689453125,4.8466796875,2.0712890625,6.2529296875,1.2333984375,1.2578125,2.9228515625,1.88671875,5.0693359375,1.88671875,4.587890625,0,6.8818359375-2.7373046875,6.8818359375-8.2138671875V.443359375h7.251953125V18.462890625c0,4.7607421875-1.171875,8.375-3.5146484375,10.8408203125-2.41796875,2.5400390625-6.068359375,3.810546875-10.9521484375,3.810546875-4.6376953125,0-8.1396484375-1.2080078125-10.5078125-3.6259765625-2.3681640625-2.4169921875-3.552734375-6.005859375-3.552734375-10.7666015625Z"/>
          <path d="M97.669921875,32.5595703125h-6.9189453125V13.3564453125c0-2.2685546875,.0859375-4.6494140625,.2587890625-7.140625h-.111328125c-.3701171875,2.2939453125-.7392578125,4.1064453125-1.109375,5.4384765625l-5.95703125,20.9052734375h-6.10546875l-5.919921875-21.5341796875c-.39453125-1.4052734375-.77734375-3.0205078125-1.146484375-4.8466796875h-.111328125c.197265625,3.158203125,.2958984375,6.0439453125,.2958984375,8.658203125v17.72265625h-6.8447265625V.443359375h10.7294921875l5.6240234375,20.9052734375c.197265625,.740234375,.3330078125,1.88671875,.4072265625,3.44140625h.07421875c.07421875-1.6279296875,.208984375-2.787109375,.4072265625-3.478515625L86.90234375,.443359375h10.767578125V32.5595703125Z"/>
          <path d="M114.9853515625,21.126953125h-5.3271484375v11.4326171875h-7.2529296875V.443359375h13.2099609375c3.9951171875,0,7.0537109375,.974609375,9.17578125,2.923828125,1.9482421875,1.775390625,2.9228515625,4.16796875,2.9228515625,7.177734375,0,4.7119140625-1.8505859375,7.84375-5.5498046875,9.3974609375-1.875,.7900390625-4.267578125,1.1845703125-7.1787109375,1.1845703125Zm-.591796875-15.0966796875h-4.7353515625V15.61328125h4.7353515625c1.8505859375,0,3.2685546875-.40625,4.2548828125-1.220703125,.986328125-.8134765625,1.48046875-2.009765625,1.48046875-3.5888671875,0-1.455078125-.46875-2.6025390625-1.40625-3.44140625-.986328125-.8876953125-2.4296875-1.33203125-4.3291015625-1.33203125Z"/>
          <path d="M172.7412109375,16.576171875c0,4.9580078125-1.4677734375,8.9658203125-4.40234375,12.0244140625-2.9111328125,3.0341796875-6.7099609375,4.55078125-11.396484375,4.55078125-4.662109375-.0732421875-8.4482421875-1.5908203125-11.3583984375-4.55078125-2.88671875-2.9599609375-4.37890625-6.9677734375-4.4775390625-12.0244140625,0-4.884765625,1.369140625-8.8310546875,4.107421875-11.8408203125,2.8857421875-3.1572265625,6.794921875-4.7353515625,11.728515625-4.7353515625,4.78515625,0,8.658203125,1.640625,11.6181640625,4.9208984375,2.787109375,3.107421875,4.1806640625,6.9931640625,4.1806640625,11.6552734375Zm-7.91796875,0c0-3.20703125-.7158203125-5.7353515625-2.1455078125-7.5859375-1.4306640625-1.8740234375-3.3916015625-2.8115234375-5.8828125-2.8115234375-2.41796875,0-4.37890625,.9375-5.8828125,2.8115234375-1.5048828125,1.900390625-2.2578125,4.4287109375-2.2578125,7.5859375,0,3.255859375,.7890625,5.80859375,2.3681640625,7.658203125,1.455078125,1.7275390625,3.3671875,2.5908203125,5.7353515625,2.5908203125,2.5654296875,0,4.55078125-.900390625,5.95703125-2.701171875s2.1083984375-4.31640625,2.1083984375-7.5478515625Z"/>
          <path d="M199.4921875,6.36328125h-15.576171875v7.6591796875h13.578125v5.8466796875h-13.578125v12.6904296875h-7.2529296875V.443359375h22.8291015625V6.36328125Z"/>
          <path d="M226.021484375,6.36328125h-15.576171875v7.6591796875h13.578125v5.8466796875h-13.578125v12.6904296875h-7.2529296875V.443359375h22.8291015625V6.36328125Z"/>
        </g>
      </g>
      <g>
        <g>
          <polygon points="0 155.3037109375 18 209.3037109375 27 209.3037109375 9 155.3037109375 0 155.3037109375"/>
          <polygon points="135 155.3037109375 18 155.3037109375 36 209.3037109375 153 209.3037109375 135 155.3037109375"/>
        </g>
        <g>
          <polygon points="171 155.3037109375 189 209.3037109375 198 209.3037109375 180 155.3037109375 171 155.3037109375"/>
          <polygon points="387 155.3037109375 189 155.3037109375 207 209.3037109375 405 209.3037109375 387 155.3037109375"/>
        </g>
        <g>
          <path d="M52.171875,182.416015625c.9091796875,1.3349609375,1.349609375,2.947265625,1.3203125,4.83984375,0,1.2314453125-.2060546875,2.1630859375-.6162109375,2.7939453125-.4111328125,.630859375-1.099609375,1.0263671875-2.068359375,1.1875-.439453125,.0732421875-.8427734375,.125-1.2099609375,.154296875l-.3515625-1.25390625v3.828125h-2.9921875v-19.9765625h7.1943359375v3.0146484375l-1.2763671875,5.412109375Zm-2.92578125-5.32421875v10.8896484375c.17578125,0,.3076171875-.0068359375,.3955078125-.021484375,.630859375-.0439453125,.9462890625-.5498046875,.9462890625-1.5185546875,0-1.1142578125-.388671875-2.3017578125-1.166015625-3.5634765625l1.166015625-5.7861328125h-1.341796875Zm17.072265625,10.3837890625c-.7783203125,.513671875-1.6650390625,1.0556640625-2.662109375,1.6279296875,.806640625,.5576171875,1.7890625,1.048828125,2.947265625,1.474609375-.615234375,1.0556640625-1.158203125,2.0673828125-1.6279296875,3.03515625-2.0673828125-.9091796875-3.6591796875-2.060546875-4.7734375-3.453125v2.3095703125c-1.26171875,.2490234375-2.3837890625,.513671875-3.3662109375,.7919921875-.7626953125,.2197265625-1.4375,.4765625-2.0244140625,.76953125l-1.4951171875-2.529296875c.2783203125-.322265625,.46875-.638671875,.5712890625-.9462890625s.154296875-.7109375,.154296875-1.2099609375v-15.267578125h11.2861328125v11.439453125h-.5498046875l1.5400390625,1.9580078125Zm-9.15234375-10.3623046875v1.3427734375h5.08203125v-1.3427734375h-5.08203125Zm0,5.4345703125h5.08203125v-1.3642578125h-5.08203125v1.3642578125Zm2.4423828125,6.775390625c-.5576171875-.8798828125-1.01953125-1.8623046875-1.38671875-2.947265625l2.728515625-.8583984375h-3.7841796875v4.4443359375c.8212890625-.205078125,1.634765625-.41796875,2.4423828125-.638671875Zm2.177734375-2.177734375c.7626953125-.52734375,1.4814453125-1.0703125,2.15625-1.6279296875h-2.9267578125c.220703125,.630859375,.4765625,1.173828125,.7705078125,1.6279296875Z" style="fill: #f4c500;"/>
          <path d="M69.419921875,182.5478515625h17.16015625v6.072265625h-6.8857421875v.6591796875h7.3701171875v1.650390625h-7.3701171875v.66015625h8.66796875v1.8037109375h-20.74609375v-1.8037109375h8.689453125v-.66015625h-7.3701171875v-1.650390625h7.3701171875v-.6591796875h-6.8857421875v-6.072265625Zm-1.759765625-.572265625v-1.8037109375h20.6796875v1.8037109375h-20.6796875Zm1.693359375-2.3759765625v-5.8740234375h17.29296875v5.8740234375h-17.29296875Zm3.3662109375,4.509765625v.7265625h3.5859375v-.7265625h-3.5859375Zm0,2.2001953125v.748046875h3.5859375v-.748046875h-3.5859375Zm.0224609375-10.82421875v.5947265625h10.515625v-.5947265625h-10.515625Zm0,2.486328125h10.515625v-.59375h-10.515625v.59375Zm10.5380859375,6.1376953125h-3.5859375v.7265625h3.5859375v-.7265625Zm0,2.9482421875v-.748046875h-3.5859375v.748046875h3.5859375Z" style="fill: #f4c500;"/>
          <path d="M90.099609375,188.751953125l3.916015625-.638671875c.1767578125,.763671875,.4619140625,1.3203125,.8583984375,1.6728515625,.4248046875,.380859375,1.0048828125,.5712890625,1.73828125,.5712890625,1.0703125,0,1.876953125-.4326171875,2.419921875-1.2978515625,.6005859375-.953125,.9384765625-2.5302734375,1.01171875-4.7294921875-.9384765625,1.3056640625-2.353515625,1.9794921875-4.24609375,2.0234375-1.818359375,0-3.2705078125-.5205078125-4.35546875-1.5615234375-1.115234375-1.0703125-1.6728515625-2.5224609375-1.6728515625-4.3564453125,0-1.876953125,.6015625-3.431640625,1.8046875-4.6640625,1.2900390625-1.3193359375,3.0283203125-1.9794921875,5.2138671875-1.9794921875,2.6396484375,0,4.5390625,.76953125,5.6982421875,2.3095703125,1.12890625,1.49609375,1.693359375,3.9384765625,1.693359375,7.326171875,0,3.314453125-.6376953125,5.8232421875-1.9140625,7.5244140625-1.2900390625,1.7158203125-3.189453125,2.5732421875-5.697265625,2.5732421875-1.892578125,0-3.359375-.3955078125-4.400390625-1.1875-1.0263671875-.77734375-1.7158203125-1.97265625-2.068359375-3.5859375Zm9.8564453125-8.42578125c0-1.056640625-.263671875-1.8701171875-.7919921875-2.4423828125-.5576171875-.6015625-1.3564453125-.90234375-2.3984375-.90234375-.8798828125,0-1.5908203125,.30078125-2.1337890625,.90234375-.5283203125,.5869140625-.7919921875,1.3564453125-.7919921875,2.3095703125,0,.96875,.2783203125,1.7314453125,.8359375,2.2880859375,.5283203125,.5283203125,1.232421875,.7919921875,2.1123046875,.7919921875,1.01171875,0,1.7958984375-.2705078125,2.353515625-.8134765625,.54296875-.5283203125,.814453125-1.2392578125,.814453125-2.1337890625Z" style="fill: #f4c500;"/>
          <path d="M110.82421875,193.8779296875h-3.3447265625v-9.39453125c-.4248046875,.6455078125-.9599609375,1.416015625-1.60546875,2.310546875-.1181640625-1.3349609375-.30078125-2.970703125-.5498046875-4.90625,1.61328125-2.625,2.8671875-5.5,3.76171875-8.6240234375l3.498046875,.814453125c-.5283203125,1.5693359375-1.115234375,3.05078125-1.759765625,4.443359375v15.3564453125Zm13.08984375-3.7626953125c-.0439453125,1.1591796875-.2939453125,1.9873046875-.748046875,2.486328125-.4990234375,.5576171875-1.349609375,.873046875-2.5517578125,.9462890625-.7783203125,.05859375-1.796875,.0947265625-3.05859375,.109375-.2197265625-1.0849609375-.4619140625-2.111328125-.7255859375-3.0791015625,.64453125,.0146484375,1.37109375,.021484375,2.177734375,.021484375,.5576171875,0,.9384765625-.087890625,1.1435546875-.263671875,.2060546875-.17578125,.3154296875-.513671875,.330078125-1.0126953125,.0732421875-1.216796875,.125-2.56640625,.154296875-4.0478515625h-2.7275390625c-.087890625,2.009765625-.4404296875,3.6298828125-1.056640625,4.8623046875-.630859375,1.26171875-1.7529296875,2.544921875-3.365234375,3.849609375-.6015625-.5576171875-1.4599609375-1.3193359375-2.57421875-2.287109375,1.333984375-.9248046875,2.2509765625-1.833984375,2.75-2.728515625,.5126953125-.9091796875,.7919921875-2.1416015625,.8359375-3.6962890625h-1.01171875v-2.0673828125c-.3671875,.4248046875-.78515625,.8505859375-1.2548828125,1.275390625-.29296875-.8359375-.7333984375-1.7451171875-1.3193359375-2.7275390625,.77734375-.748046875,1.5693359375-1.85546875,2.3759765625-3.322265625,.865234375-1.5546875,1.5029296875-3.0869140625,1.9140625-4.59765625l2.859375,.8798828125c-.89453125,2.904296875-2.1552734375,5.412109375-3.783203125,7.5234375h9.1513671875c-1.525390625-1.6416015625-2.8525390625-3.6513671875-3.9814453125-6.02734375h-1.0126953125v-2.5966796875h3.41015625c.54296875,1.5556640625,1.173828125,2.8603515625,1.892578125,3.916015625,.673828125,1.0126953125,1.5244140625,1.9365234375,2.5517578125,2.7724609375-.337890625,1.2763671875-.638671875,2.544921875-.90234375,3.8056640625-.4833984375-.41015625-.8876953125-.77734375-1.2099609375-1.099609375-.146484375,3.974609375-.234375,6.34375-.263671875,7.10546875Z" style="fill: #f4c500;"/>
          <path d="M224.1669921875,193.943359375h-3.1240234375v-9.26171875c-.2939453125,.4990234375-.7626953125,1.26171875-1.408203125,2.2880859375-.1171875-1.6279296875-.2783203125-3.2041015625-.4833984375-4.73046875,1.392578125-2.7275390625,2.43359375-5.7412109375,3.1240234375-9.0419921875l3.03515625,.6162109375h14.65234375v2.2880859375h-4.1796875v.814453125h3.828125v4.4873046875h-14.4541015625v-4.4873046875h3.76171875v-.814453125h-3.65234375v-1.6494140625c-.3662109375,1.333984375-.7333984375,2.5078125-1.099609375,3.51953125v15.9716796875Zm6.2919921875-3.2119140625l1.1435546875,2.08984375c-1.0263671875,.2646484375-3.0869140625,.689453125-6.181640625,1.2763671875-.2783203125-.7626953125-.6083984375-1.583984375-.990234375-2.4638671875,2.009765625-.2939453125,4.0185546875-.59375,6.0283203125-.90234375Zm-4.6640625-.0439453125v-8.6240234375h13.1123046875v8.6240234375h-13.1123046875Zm2.068359375-11.9453125v.8359375h1.0556640625v-.8359375h-1.0556640625Zm7.9638671875,5.0595703125h-6.9521484375v.681640625h6.9521484375v-.681640625Zm-6.9521484375,2.2216796875v.6826171875h6.9521484375v-.6826171875h-6.9521484375Zm0,2.9267578125h6.9521484375v-.6826171875h-6.9521484375v.6826171875Zm2.7939453125-12.8486328125v.814453125h1.3642578125v-.814453125h-1.3642578125Zm0,2.640625v.8359375h1.3642578125v-.8359375h-1.3642578125Zm2.2880859375,12.033203125c.71875,.1181640625,2.80078125,.42578125,6.248046875,.9248046875l-.9462890625,2.3310546875c-4.1357421875-.7919921875-6.240234375-1.1953125-6.3134765625-1.2099609375l1.01171875-2.0458984375Zm2.9482421875-11.197265625v-.8359375h-1.1220703125v.8359375h1.1220703125Z" style="fill: #f4c500;"/>
          <path d="M244.4951171875,173.197265625l3.34375,.8583984375c-.087890625,.2939453125-.154296875,.505859375-.1982421875,.6376953125h5.2587890625l.17578125-1.6279296875,3.34375,.3740234375-.154296875,1.25390625h5.5v2.6181640625h-5.7861328125l-.109375,.923828125h5.0380859375v12.5185546875h1.1875v2.6181640625h-15.24609375v-2.6181640625h1.1884765625v-12.5185546875h4.4658203125l.087890625-.923828125h-5.103515625v-2.177734375c-.3525390625,1.041015625-.7265625,2.0537109375-1.1220703125,3.0361328125v15.7734375h-3.16796875v-9.4375c-.484375,.77734375-.990234375,1.5693359375-1.5185546875,2.3759765625-.322265625-2.7578125-.513671875-4.3046875-.5712890625-4.642578125,1.392578125-2.654296875,2.521484375-5.66796875,3.3876953125-9.0419921875Zm6.7978515625,7.568359375v.8798828125h6.3583984375v-.8798828125h-6.3583984375Zm0,3.013671875v.90234375h6.3583984375v-.90234375h-6.3583984375Zm0,3.0361328125v.90234375h6.3583984375v-.90234375h-6.3583984375Zm0,3.0361328125v.90234375h6.3583984375v-.90234375h-6.3583984375Z" style="fill: #f4c500;"/>
          <path d="M290.4091796875,193.2392578125h-4.1142578125v-11.41796875c0-1.3486328125,.0517578125-2.763671875,.154296875-4.2451171875h-.06640625c-.2197265625,1.36328125-.439453125,2.44140625-.66015625,3.2333984375l-3.5419921875,12.4296875h-3.6298828125l-3.51953125-12.8037109375c-.2353515625-.8359375-.4619140625-1.7958984375-.6826171875-2.8818359375h-.0654296875c.1171875,1.8779296875,.17578125,3.59375,.17578125,5.1484375v10.537109375h-4.0703125v-19.095703125h6.3798828125l3.3447265625,12.4296875c.1171875,.4404296875,.197265625,1.1220703125,.2421875,2.046875h.0439453125c.0439453125-.96875,.1240234375-1.6572265625,.2412109375-2.068359375l3.3662109375-12.408203125h6.40234375v19.095703125Z" style="fill: #f4c500;"/>
          <path d="M311.505859375,183.7353515625c0,2.9482421875-.873046875,5.33203125-2.6181640625,7.150390625-1.73046875,1.8037109375-3.9892578125,2.7060546875-6.775390625,2.7060546875-2.7724609375-.0439453125-5.0234375-.9462890625-6.75390625-2.7060546875-1.716796875-1.759765625-2.603515625-4.1435546875-2.662109375-7.150390625,0-2.9033203125,.8134765625-5.25,2.44140625-7.0400390625,1.7158203125-1.876953125,4.041015625-2.8154296875,6.974609375-2.8154296875,2.8447265625,0,5.1474609375,.9755859375,6.9072265625,2.92578125,1.6572265625,1.84765625,2.486328125,4.158203125,2.486328125,6.9296875Zm-4.7080078125,0c0-1.90625-.42578125-3.4091796875-1.275390625-4.509765625-.8515625-1.1142578125-2.017578125-1.671875-3.498046875-1.671875-1.4375,0-2.603515625,.5576171875-3.498046875,1.671875-.8955078125,1.1298828125-1.3427734375,2.6328125-1.3427734375,4.509765625,0,1.9365234375,.4697265625,3.4541015625,1.408203125,4.5546875,.865234375,1.0263671875,2.001953125,1.5400390625,3.41015625,1.5400390625,1.525390625,0,2.7060546875-.53515625,3.5419921875-1.6064453125,.8359375-1.0703125,1.25390625-2.56640625,1.25390625-4.48828125Z" style="fill: #f4c500;"/>
          <path d="M321.318359375,186.44140625h-3.16796875v6.7978515625h-4.3125v-19.095703125h7.8544921875c2.3759765625,0,4.1943359375,.580078125,5.4560546875,1.73828125,1.158203125,1.0556640625,1.73828125,2.478515625,1.73828125,4.267578125,0,2.8017578125-1.1005859375,4.6640625-3.30078125,5.587890625-1.1142578125,.4697265625-2.537109375,.7041015625-4.267578125,.7041015625Zm-.3525390625-8.9755859375h-2.8154296875v5.6982421875h2.8154296875c1.1005859375,0,1.943359375-.2421875,2.5302734375-.7265625,.5869140625-.4833984375,.8798828125-1.1953125,.8798828125-2.1337890625,0-.865234375-.2783203125-1.546875-.8359375-2.0458984375-.5869140625-.5283203125-1.4443359375-.7919921875-2.57421875-.7919921875Z" style="fill: #f4c500;"/>
          <path d="M336.7626953125,188.509765625l4.267578125-.90234375c.3662109375,1.8486328125,1.4375,2.7724609375,3.2119140625,2.7724609375,.9384765625,0,1.642578125-.2490234375,2.1123046875-.748046875,.439453125-.4541015625,.66015625-1.1005859375,.66015625-1.9365234375,0-1.7744140625-1.37890625-2.6611328125-4.13671875-2.6611328125h-1.7373046875v-3.1904296875h1.671875c2.478515625,0,3.7177734375-.8359375,3.7177734375-2.5078125,0-.7333984375-.18359375-1.3056640625-.5498046875-1.7158203125-.4111328125-.455078125-1.02734375-.6826171875-1.8486328125-.6826171875-.7333984375,0-1.3779296875,.2568359375-1.935546875,.7705078125-.572265625,.52734375-.9091796875,1.1953125-1.01171875,2.001953125l-4.0703125-.7919921875c.3515625-1.5986328125,1.158203125-2.845703125,2.419921875-3.740234375,1.2763671875-.9091796875,2.93359375-1.3642578125,4.9716796875-1.3642578125,2.0390625,0,3.6376953125,.521484375,4.796875,1.5625,1.01171875,.9091796875,1.517578125,2.0234375,1.517578125,3.34375,0,1.203125-.2939453125,2.15625-.8798828125,2.8603515625-.630859375,.7626953125-1.6572265625,1.3193359375-3.080078125,1.671875v.0439453125c1.349609375,.1611328125,2.4423828125,.7109375,3.2783203125,1.6494140625,.7763671875,.8662109375,1.166015625,1.8564453125,1.166015625,2.970703125,0,1.5986328125-.5869140625,2.9033203125-1.7607421875,3.916015625-1.2900390625,1.1142578125-3.130859375,1.671875-5.521484375,1.671875-1.9951171875,.029296875-3.556640625-.3154296875-4.6865234375-1.0341796875-1.1435546875-.7333984375-2.001953125-2.0537109375-2.5732421875-3.9599609375Z" style="fill: #f4c500;"/>
          <path d="M352.77734375,188.3994140625l4.2021484375-.9013671875c.205078125,.982421875,.5869140625,1.7158203125,1.14453125,2.19921875,.52734375,.455078125,1.1953125,.6826171875,2.001953125,.6826171875s1.48828125-.30859375,2.0458984375-.923828125c.5576171875-.6162109375,.8359375-1.38671875,.8359375-2.310546875,0-.9970703125-.2568359375-1.7822265625-.76953125-2.353515625-.54296875-.6015625-1.3056640625-.90234375-2.2880859375-.90234375-1.2763671875,.05859375-2.2587890625,.4404296875-2.9482421875,1.14453125l-3.4541015625-.0224609375,.7041015625-10.7578125h11.8798828125v3.431640625h-8.3603515625l-.3955078125,4.400390625c1.0556640625-.71875,2.2802734375-1.078125,3.673828125-1.078125,1.935546875,0,3.4541015625,.54296875,4.5537109375,1.6279296875,1.0859375,1.0703125,1.6279296875,2.515625,1.6279296875,4.333984375,0,2.0244140625-.6083984375,3.6083984375-1.8251953125,4.751953125-1.26171875,1.1884765625-3.029296875,1.7822265625-5.302734375,1.7822265625-2.0087890625,0-3.6220703125-.4404296875-4.83984375-1.3203125-1.158203125-.8359375-1.9873046875-2.0966796875-2.486328125-3.7841796875Z" style="fill: #f4c500;"/>
          <path d="M383.4462890625,183.69140625c0,3.388671875-.59375,5.8818359375-1.7822265625,7.48046875-1.1728515625,1.583984375-3.013671875,2.3759765625-5.521484375,2.3759765625-2.2734375,0-4.041015625-.77734375-5.3017578125-2.33203125-1.349609375-1.671875-2.0244140625-4.1728515625-2.0244140625-7.501953125-.0146484375-3.1240234375,.623046875-5.55859375,1.9140625-7.3037109375,1.2900390625-1.74609375,3.0947265625-2.6181640625,5.412109375-2.6181640625,2.419921875,0,4.2529296875,.8876953125,5.5,2.662109375,1.2021484375,1.701171875,1.8037109375,4.11328125,1.8037109375,7.2373046875Zm-4.4658203125,.0439453125c0-2.44921875-.2421875-4.208984375-.7255859375-5.279296875-.4404296875-.982421875-1.1376953125-1.474609375-2.0908203125-1.474609375s-1.6640625,.4921875-2.1337890625,1.474609375c-.5283203125,1.099609375-.7919921875,2.859375-.7919921875,5.279296875,0,4.400390625,.9755859375,6.6005859375,2.92578125,6.6005859375,.89453125,0,1.5693359375-.455078125,2.0244140625-1.3642578125,.5419921875-1.0703125,.806640625-2.81640625,.7919921875-5.236328125Z" style="fill: #f4c500;"/>
        </g>
      </g>
    </g>
  </g>
</svg>